G75*
G70*
%OFA0B0*%
%FSLAX24Y24*%
%IPPOS*%
%LPD*%
%AMOC8*
5,1,8,0,0,1.08239X$1,22.5*
%
%ADD10C,0.0050*%
%ADD11C,0.0100*%
%ADD12C,0.0040*%
%ADD13C,0.0000*%
D10*
X004093Y004859D02*
X004093Y010961D01*
X008227Y010961D01*
X008227Y004859D01*
X004093Y004859D01*
X003288Y006532D02*
X002737Y006532D01*
X002737Y009288D01*
X003288Y009288D01*
X003288Y006532D01*
X002737Y006532D02*
X001083Y006532D01*
X001083Y009288D01*
X002737Y009288D01*
X001319Y008591D02*
X001321Y008639D01*
X001327Y008687D01*
X001337Y008734D01*
X001350Y008780D01*
X001368Y008825D01*
X001388Y008869D01*
X001413Y008911D01*
X001441Y008950D01*
X001471Y008987D01*
X001505Y009021D01*
X001542Y009053D01*
X001580Y009082D01*
X001621Y009107D01*
X001664Y009129D01*
X001709Y009147D01*
X001755Y009161D01*
X001802Y009172D01*
X001850Y009179D01*
X001898Y009182D01*
X001946Y009181D01*
X001994Y009176D01*
X002042Y009167D01*
X002088Y009155D01*
X002133Y009138D01*
X002177Y009118D01*
X002219Y009095D01*
X002259Y009068D01*
X002297Y009038D01*
X002332Y009005D01*
X002364Y008969D01*
X002394Y008931D01*
X002420Y008890D01*
X002442Y008847D01*
X002462Y008803D01*
X002477Y008758D01*
X002489Y008711D01*
X002497Y008663D01*
X002501Y008615D01*
X002501Y008567D01*
X002497Y008519D01*
X002489Y008471D01*
X002477Y008424D01*
X002462Y008379D01*
X002442Y008335D01*
X002420Y008292D01*
X002394Y008251D01*
X002364Y008213D01*
X002332Y008177D01*
X002297Y008144D01*
X002259Y008114D01*
X002219Y008087D01*
X002177Y008064D01*
X002133Y008044D01*
X002088Y008027D01*
X002042Y008015D01*
X001994Y008006D01*
X001946Y008001D01*
X001898Y008000D01*
X001850Y008003D01*
X001802Y008010D01*
X001755Y008021D01*
X001709Y008035D01*
X001664Y008053D01*
X001621Y008075D01*
X001580Y008100D01*
X001542Y008129D01*
X001505Y008161D01*
X001471Y008195D01*
X001441Y008232D01*
X001413Y008271D01*
X001388Y008313D01*
X001368Y008357D01*
X001350Y008402D01*
X001337Y008448D01*
X001327Y008495D01*
X001321Y008543D01*
X001319Y008591D01*
X001083Y009288D02*
X000532Y009288D01*
X000532Y006532D01*
X001083Y006532D01*
X001319Y007229D02*
X001321Y007277D01*
X001327Y007325D01*
X001337Y007372D01*
X001350Y007418D01*
X001368Y007463D01*
X001388Y007507D01*
X001413Y007549D01*
X001441Y007588D01*
X001471Y007625D01*
X001505Y007659D01*
X001542Y007691D01*
X001580Y007720D01*
X001621Y007745D01*
X001664Y007767D01*
X001709Y007785D01*
X001755Y007799D01*
X001802Y007810D01*
X001850Y007817D01*
X001898Y007820D01*
X001946Y007819D01*
X001994Y007814D01*
X002042Y007805D01*
X002088Y007793D01*
X002133Y007776D01*
X002177Y007756D01*
X002219Y007733D01*
X002259Y007706D01*
X002297Y007676D01*
X002332Y007643D01*
X002364Y007607D01*
X002394Y007569D01*
X002420Y007528D01*
X002442Y007485D01*
X002462Y007441D01*
X002477Y007396D01*
X002489Y007349D01*
X002497Y007301D01*
X002501Y007253D01*
X002501Y007205D01*
X002497Y007157D01*
X002489Y007109D01*
X002477Y007062D01*
X002462Y007017D01*
X002442Y006973D01*
X002420Y006930D01*
X002394Y006889D01*
X002364Y006851D01*
X002332Y006815D01*
X002297Y006782D01*
X002259Y006752D01*
X002219Y006725D01*
X002177Y006702D01*
X002133Y006682D01*
X002088Y006665D01*
X002042Y006653D01*
X001994Y006644D01*
X001946Y006639D01*
X001898Y006638D01*
X001850Y006641D01*
X001802Y006648D01*
X001755Y006659D01*
X001709Y006673D01*
X001664Y006691D01*
X001621Y006713D01*
X001580Y006738D01*
X001542Y006767D01*
X001505Y006799D01*
X001471Y006833D01*
X001441Y006870D01*
X001413Y006909D01*
X001388Y006951D01*
X001368Y006995D01*
X001350Y007040D01*
X001337Y007086D01*
X001327Y007133D01*
X001321Y007181D01*
X001319Y007229D01*
X004910Y011410D02*
X004910Y012410D01*
X007410Y012410D01*
X007410Y011410D01*
X004910Y011410D01*
X005960Y011510D02*
X005960Y012310D01*
X006010Y012260D01*
X006010Y011560D01*
X006060Y011610D01*
X006060Y012210D01*
X006110Y012160D01*
X006110Y011660D01*
X006160Y011710D01*
X006160Y012110D01*
X006210Y012060D01*
X006210Y011760D01*
X006260Y011810D01*
X006260Y012010D01*
X006310Y011960D01*
X006310Y011860D01*
X006260Y011810D01*
X006210Y011760D02*
X006160Y011710D01*
X006110Y011660D02*
X006060Y011610D01*
X006010Y011560D02*
X005960Y011510D01*
X006310Y011860D02*
X006360Y011910D01*
X006310Y011960D01*
X006260Y012010D02*
X006210Y012060D01*
X006160Y012110D02*
X006110Y012160D01*
X006060Y012210D02*
X006010Y012260D01*
X007910Y012460D02*
X007910Y011360D01*
X008410Y011360D01*
X008410Y012460D01*
X007910Y012460D01*
X008660Y012460D02*
X009160Y012460D01*
X009160Y011360D01*
X008660Y011360D01*
X008660Y012460D01*
X009910Y011985D02*
X009910Y011835D01*
X010060Y011335D02*
X010410Y011335D01*
X010410Y011635D01*
X010410Y012185D02*
X010410Y012485D01*
X010060Y012485D01*
X009707Y009879D02*
X015219Y009879D01*
X015219Y005941D01*
X009707Y005941D01*
X009707Y009879D01*
X014910Y004410D02*
X015160Y003910D01*
X015410Y004410D01*
X014910Y004410D01*
X014925Y004380D02*
X015395Y004380D01*
X015371Y004332D02*
X014949Y004332D01*
X014973Y004283D02*
X015347Y004283D01*
X015322Y004235D02*
X014998Y004235D01*
X015022Y004186D02*
X015298Y004186D01*
X015274Y004138D02*
X015046Y004138D01*
X015070Y004089D02*
X015250Y004089D01*
X015225Y004041D02*
X015095Y004041D01*
X015119Y003992D02*
X015201Y003992D01*
X015177Y003944D02*
X015143Y003944D01*
D11*
X014932Y000164D02*
X001388Y000164D01*
X001321Y000166D01*
X001254Y000172D01*
X001187Y000181D01*
X001121Y000194D01*
X001056Y000211D01*
X000992Y000231D01*
X000929Y000255D01*
X000867Y000283D01*
X000808Y000314D01*
X000750Y000348D01*
X000694Y000385D01*
X000640Y000426D01*
X000588Y000469D01*
X000539Y000515D01*
X000493Y000564D01*
X000450Y000616D01*
X000409Y000670D01*
X000372Y000726D01*
X000338Y000784D01*
X000307Y000843D01*
X000279Y000905D01*
X000255Y000968D01*
X000235Y001032D01*
X000218Y001097D01*
X000205Y001163D01*
X000196Y001230D01*
X000190Y001297D01*
X000188Y001364D01*
X000188Y011956D01*
X000190Y012023D01*
X000196Y012090D01*
X000205Y012157D01*
X000218Y012223D01*
X000235Y012288D01*
X000255Y012352D01*
X000279Y012415D01*
X000307Y012477D01*
X000338Y012536D01*
X000372Y012594D01*
X000409Y012650D01*
X000450Y012704D01*
X000493Y012756D01*
X000539Y012805D01*
X000588Y012851D01*
X000640Y012894D01*
X000694Y012935D01*
X000750Y012972D01*
X000808Y013006D01*
X000867Y013037D01*
X000929Y013065D01*
X000992Y013089D01*
X001056Y013109D01*
X001121Y013126D01*
X001187Y013139D01*
X001254Y013148D01*
X001321Y013154D01*
X001388Y013156D01*
X014932Y013156D01*
X014999Y013154D01*
X015066Y013148D01*
X015133Y013139D01*
X015199Y013126D01*
X015264Y013109D01*
X015328Y013089D01*
X015391Y013065D01*
X015453Y013037D01*
X015512Y013006D01*
X015570Y012972D01*
X015626Y012935D01*
X015680Y012894D01*
X015732Y012851D01*
X015781Y012805D01*
X015827Y012756D01*
X015870Y012704D01*
X015911Y012650D01*
X015948Y012594D01*
X015982Y012536D01*
X016013Y012477D01*
X016041Y012415D01*
X016065Y012352D01*
X016085Y012288D01*
X016102Y012223D01*
X016115Y012157D01*
X016124Y012090D01*
X016130Y012023D01*
X016132Y011956D01*
X016132Y001364D01*
X016130Y001297D01*
X016124Y001230D01*
X016115Y001163D01*
X016102Y001097D01*
X016085Y001032D01*
X016065Y000968D01*
X016041Y000905D01*
X016013Y000843D01*
X015982Y000784D01*
X015948Y000726D01*
X015911Y000670D01*
X015870Y000616D01*
X015827Y000564D01*
X015781Y000515D01*
X015732Y000469D01*
X015680Y000426D01*
X015626Y000385D01*
X015570Y000348D01*
X015512Y000314D01*
X015453Y000283D01*
X015391Y000255D01*
X015328Y000231D01*
X015264Y000211D01*
X015199Y000194D01*
X015133Y000181D01*
X015066Y000172D01*
X014999Y000166D01*
X014932Y000164D01*
X016101Y003707D02*
X000219Y003707D01*
D12*
X000930Y003039D02*
X000982Y003090D01*
X001085Y003090D01*
X001137Y003039D01*
X001137Y002987D01*
X000930Y002780D01*
X001137Y002780D01*
X001252Y002832D02*
X001304Y002780D01*
X001407Y002780D01*
X001459Y002832D01*
X001459Y003039D01*
X001407Y003090D01*
X001304Y003090D01*
X001252Y003039D01*
X001252Y002987D01*
X001304Y002935D01*
X001459Y002935D01*
X007880Y002987D02*
X007983Y003090D01*
X007983Y002780D01*
X007880Y002780D02*
X008087Y002780D01*
X008202Y002832D02*
X008254Y002780D01*
X008357Y002780D01*
X008409Y002832D01*
X008409Y002935D01*
X008357Y002987D01*
X008306Y002987D01*
X008202Y002935D01*
X008202Y003090D01*
X008409Y003090D01*
X015080Y002987D02*
X015183Y003090D01*
X015183Y002780D01*
X015080Y002780D02*
X015287Y002780D01*
D13*
X014069Y011660D02*
X014071Y011708D01*
X014077Y011756D01*
X014087Y011803D01*
X014100Y011849D01*
X014118Y011894D01*
X014138Y011938D01*
X014163Y011980D01*
X014191Y012019D01*
X014221Y012056D01*
X014255Y012090D01*
X014292Y012122D01*
X014330Y012151D01*
X014371Y012176D01*
X014414Y012198D01*
X014459Y012216D01*
X014505Y012230D01*
X014552Y012241D01*
X014600Y012248D01*
X014648Y012251D01*
X014696Y012250D01*
X014744Y012245D01*
X014792Y012236D01*
X014838Y012224D01*
X014883Y012207D01*
X014927Y012187D01*
X014969Y012164D01*
X015009Y012137D01*
X015047Y012107D01*
X015082Y012074D01*
X015114Y012038D01*
X015144Y012000D01*
X015170Y011959D01*
X015192Y011916D01*
X015212Y011872D01*
X015227Y011827D01*
X015239Y011780D01*
X015247Y011732D01*
X015251Y011684D01*
X015251Y011636D01*
X015247Y011588D01*
X015239Y011540D01*
X015227Y011493D01*
X015212Y011448D01*
X015192Y011404D01*
X015170Y011361D01*
X015144Y011320D01*
X015114Y011282D01*
X015082Y011246D01*
X015047Y011213D01*
X015009Y011183D01*
X014969Y011156D01*
X014927Y011133D01*
X014883Y011113D01*
X014838Y011096D01*
X014792Y011084D01*
X014744Y011075D01*
X014696Y011070D01*
X014648Y011069D01*
X014600Y011072D01*
X014552Y011079D01*
X014505Y011090D01*
X014459Y011104D01*
X014414Y011122D01*
X014371Y011144D01*
X014330Y011169D01*
X014292Y011198D01*
X014255Y011230D01*
X014221Y011264D01*
X014191Y011301D01*
X014163Y011340D01*
X014138Y011382D01*
X014118Y011426D01*
X014100Y011471D01*
X014087Y011517D01*
X014077Y011564D01*
X014071Y011612D01*
X014069Y011660D01*
X001069Y011660D02*
X001071Y011708D01*
X001077Y011756D01*
X001087Y011803D01*
X001100Y011849D01*
X001118Y011894D01*
X001138Y011938D01*
X001163Y011980D01*
X001191Y012019D01*
X001221Y012056D01*
X001255Y012090D01*
X001292Y012122D01*
X001330Y012151D01*
X001371Y012176D01*
X001414Y012198D01*
X001459Y012216D01*
X001505Y012230D01*
X001552Y012241D01*
X001600Y012248D01*
X001648Y012251D01*
X001696Y012250D01*
X001744Y012245D01*
X001792Y012236D01*
X001838Y012224D01*
X001883Y012207D01*
X001927Y012187D01*
X001969Y012164D01*
X002009Y012137D01*
X002047Y012107D01*
X002082Y012074D01*
X002114Y012038D01*
X002144Y012000D01*
X002170Y011959D01*
X002192Y011916D01*
X002212Y011872D01*
X002227Y011827D01*
X002239Y011780D01*
X002247Y011732D01*
X002251Y011684D01*
X002251Y011636D01*
X002247Y011588D01*
X002239Y011540D01*
X002227Y011493D01*
X002212Y011448D01*
X002192Y011404D01*
X002170Y011361D01*
X002144Y011320D01*
X002114Y011282D01*
X002082Y011246D01*
X002047Y011213D01*
X002009Y011183D01*
X001969Y011156D01*
X001927Y011133D01*
X001883Y011113D01*
X001838Y011096D01*
X001792Y011084D01*
X001744Y011075D01*
X001696Y011070D01*
X001648Y011069D01*
X001600Y011072D01*
X001552Y011079D01*
X001505Y011090D01*
X001459Y011104D01*
X001414Y011122D01*
X001371Y011144D01*
X001330Y011169D01*
X001292Y011198D01*
X001255Y011230D01*
X001221Y011264D01*
X001191Y011301D01*
X001163Y011340D01*
X001138Y011382D01*
X001118Y011426D01*
X001100Y011471D01*
X001087Y011517D01*
X001077Y011564D01*
X001071Y011612D01*
X001069Y011660D01*
M02*
