%
M48
M72
T01C0.0100
T02C0.0350
T03C0.0394
T04C0.1181
%
T01
X1160Y2660
X660Y2910
X1910Y3160
X2660Y3160
X3160Y2660
X4160Y2660
X5410Y2910
X6160Y4160
X5260Y4810
X7160Y4660
X7410Y4910
X9160Y5660
X8410Y6710
X8160Y7510
X10660Y6910
X11060Y5310
X12160Y4910
X12660Y5310
X13160Y5160
X14210Y5160
X15660Y4160
X15660Y2910
X15160Y2660
X14410Y2910
X13660Y2910
X13160Y3410
X12160Y3160
X11460Y3760
X8410Y2910
X7410Y2910
X4910Y6660
X3760Y7110
X3660Y9410
X3660Y11460
X4860Y11910
X6160Y12660
X8560Y12660
X9410Y11160
X9160Y10160
X10710Y9410
X11479Y9470
X12160Y9060
X13160Y8910
X13410Y7410
X14660Y7410
X15660Y9160
X13410Y10660
X12910Y10660
X11910Y12410
X11060Y11910
X10910Y11410
X2410Y4410
X910Y5960
X1110Y9910
T02
X4660Y5410
X7660Y5410
X7660Y9410
X7660Y10410
X4660Y10410
X4660Y9410
T03
X1910Y7221
X1910Y8599
T04
X1660Y11660
X14660Y11660
M30
