G75*
G70*
%OFA0B0*%
%FSLAX24Y24*%
%IPPOS*%
%LPD*%
%AMOC8*
5,1,8,0,0,1.08239X$1,22.5*
%
%ADD10C,0.0080*%
%ADD11C,0.0050*%
%ADD12C,0.0100*%
%ADD13C,0.0059*%
%ADD14R,0.0089X0.0006*%
%ADD15R,0.0094X0.0006*%
%ADD16R,0.0130X0.0006*%
%ADD17R,0.0106X0.0006*%
%ADD18R,0.0201X0.0006*%
%ADD19R,0.0136X0.0006*%
%ADD20R,0.1742X0.0006*%
%ADD21R,0.0154X0.0006*%
%ADD22R,0.0112X0.0006*%
%ADD23R,0.0219X0.0006*%
%ADD24R,0.0165X0.0006*%
%ADD25R,0.1748X0.0006*%
%ADD26R,0.0177X0.0006*%
%ADD27R,0.0100X0.0006*%
%ADD28R,0.0236X0.0006*%
%ADD29R,0.0189X0.0006*%
%ADD30R,0.0195X0.0006*%
%ADD31R,0.0248X0.0006*%
%ADD32R,0.0207X0.0006*%
%ADD33R,0.0213X0.0006*%
%ADD34R,0.0260X0.0006*%
%ADD35R,0.0224X0.0006*%
%ADD36R,0.0266X0.0006*%
%ADD37R,0.0278X0.0006*%
%ADD38R,0.0254X0.0006*%
%ADD39R,0.0283X0.0006*%
%ADD40R,0.0289X0.0006*%
%ADD41R,0.0272X0.0006*%
%ADD42R,0.0295X0.0006*%
%ADD43R,0.0301X0.0006*%
%ADD44R,0.0307X0.0006*%
%ADD45R,0.0313X0.0006*%
%ADD46R,0.0319X0.0006*%
%ADD47R,0.0148X0.0006*%
%ADD48R,0.0159X0.0006*%
%ADD49R,0.0124X0.0006*%
%ADD50R,0.0118X0.0006*%
%ADD51R,0.0242X0.0006*%
%ADD52R,0.0337X0.0006*%
%ADD53R,0.0331X0.0006*%
%ADD54R,0.0325X0.0006*%
%ADD55R,0.0142X0.0006*%
%ADD56R,0.0183X0.0006*%
%ADD57R,0.0230X0.0006*%
%ADD58R,0.0419X0.0006*%
%ADD59R,0.0425X0.0006*%
%ADD60R,0.0171X0.0006*%
%ADD61R,0.0083X0.0006*%
%ADD62R,0.0041X0.0006*%
%ADD63R,0.0047X0.0006*%
%ADD64R,0.1022X0.0006*%
%ADD65R,0.0980X0.0006*%
%ADD66R,0.0957X0.0006*%
%ADD67R,0.0933X0.0006*%
%ADD68R,0.0921X0.0006*%
%ADD69R,0.0904X0.0006*%
%ADD70R,0.0892X0.0006*%
%ADD71R,0.0886X0.0006*%
%ADD72R,0.0874X0.0006*%
%ADD73R,0.0868X0.0006*%
%ADD74R,0.0856X0.0006*%
%ADD75R,0.0850X0.0006*%
%ADD76R,0.0844X0.0006*%
%ADD77R,0.0839X0.0006*%
%ADD78R,0.0833X0.0006*%
%ADD79R,0.0827X0.0006*%
%ADD80R,0.0071X0.0006*%
%ADD81R,0.0862X0.0006*%
%ADD82R,0.0880X0.0006*%
%ADD83R,0.0898X0.0006*%
%ADD84R,0.0915X0.0006*%
%ADD85R,0.0927X0.0006*%
%ADD86R,0.0945X0.0006*%
%ADD87R,0.0969X0.0006*%
%ADD88R,0.0998X0.0006*%
%ADD89R,0.0151X0.0006*%
%ADD90R,0.0239X0.0006*%
%ADD91R,0.0302X0.0006*%
%ADD92R,0.0346X0.0006*%
%ADD93R,0.0391X0.0006*%
%ADD94R,0.0422X0.0006*%
%ADD95R,0.0454X0.0006*%
%ADD96R,0.0479X0.0006*%
%ADD97R,0.0504X0.0006*%
%ADD98R,0.0529X0.0006*%
%ADD99R,0.0548X0.0006*%
%ADD100R,0.0573X0.0006*%
%ADD101R,0.0592X0.0006*%
%ADD102R,0.0611X0.0006*%
%ADD103R,0.0630X0.0006*%
%ADD104R,0.0643X0.0006*%
%ADD105R,0.0661X0.0006*%
%ADD106R,0.0674X0.0006*%
%ADD107R,0.0693X0.0006*%
%ADD108R,0.0706X0.0006*%
%ADD109R,0.0718X0.0006*%
%ADD110R,0.0731X0.0006*%
%ADD111R,0.0743X0.0006*%
%ADD112R,0.0750X0.0006*%
%ADD113R,0.0762X0.0006*%
%ADD114R,0.0775X0.0006*%
%ADD115R,0.0787X0.0006*%
%ADD116R,0.0800X0.0006*%
%ADD117R,0.0813X0.0006*%
%ADD118R,0.0806X0.0006*%
%ADD119R,0.0321X0.0006*%
%ADD120R,0.0359X0.0006*%
%ADD121R,0.0283X0.0006*%
%ADD122R,0.0328X0.0006*%
%ADD123R,0.0246X0.0006*%
%ADD124R,0.0315X0.0006*%
%ADD125R,0.0220X0.0006*%
%ADD126R,0.0296X0.0006*%
%ADD127R,0.0195X0.0006*%
%ADD128R,0.0290X0.0006*%
%ADD129R,0.0170X0.0006*%
%ADD130R,0.0277X0.0006*%
%ADD131R,0.0145X0.0006*%
%ADD132R,0.0126X0.0006*%
%ADD133R,0.0265X0.0006*%
%ADD134R,0.0107X0.0006*%
%ADD135R,0.0088X0.0006*%
%ADD136R,0.0258X0.0006*%
%ADD137R,0.0063X0.0006*%
%ADD138R,0.0252X0.0006*%
%ADD139R,0.0044X0.0006*%
%ADD140R,0.0025X0.0006*%
%ADD141R,0.0069X0.0006*%
%ADD142R,0.0006X0.0006*%
%ADD143R,0.0233X0.0006*%
%ADD144R,0.0227X0.0006*%
%ADD145R,0.0384X0.0006*%
%ADD146R,0.0409X0.0006*%
%ADD147R,0.0189X0.0006*%
%ADD148R,0.0435X0.0006*%
%ADD149R,0.0214X0.0006*%
%ADD150R,0.0460X0.0006*%
%ADD151R,0.0208X0.0006*%
%ADD152R,0.0050X0.0006*%
%ADD153R,0.0271X0.0006*%
%ADD154R,0.0485X0.0006*%
%ADD155R,0.0510X0.0006*%
%ADD156R,0.0523X0.0006*%
%ADD157R,0.0372X0.0006*%
%ADD158R,0.0561X0.0006*%
%ADD159R,0.0586X0.0006*%
%ADD160R,0.0340X0.0006*%
%ADD161R,0.0598X0.0006*%
%ADD162R,0.0365X0.0006*%
%ADD163R,0.0441X0.0006*%
%ADD164R,0.0038X0.0006*%
%ADD165R,0.0624X0.0006*%
%ADD166R,0.0416X0.0006*%
%ADD167R,0.0649X0.0006*%
%ADD168R,0.0428X0.0006*%
%ADD169R,0.0472X0.0006*%
%ADD170R,0.0491X0.0006*%
%ADD171R,0.0466X0.0006*%
%ADD172R,0.0756X0.0006*%
%ADD173R,0.0517X0.0006*%
%ADD174R,0.0769X0.0006*%
%ADD175R,0.0781X0.0006*%
%ADD176R,0.0794X0.0006*%
%ADD177R,0.0825X0.0006*%
%ADD178R,0.0838X0.0006*%
%ADD179R,0.0819X0.0006*%
%ADD180R,0.0353X0.0006*%
%ADD181R,0.0850X0.0006*%
%ADD182R,0.0334X0.0006*%
%ADD183R,0.0712X0.0006*%
%ADD184R,0.0157X0.0006*%
%ADD185R,0.0699X0.0006*%
%ADD186R,0.0309X0.0006*%
%ADD187R,0.0680X0.0006*%
%ADD188R,0.0668X0.0006*%
%ADD189R,0.0120X0.0006*%
%ADD190R,0.0655X0.0006*%
%ADD191R,0.0101X0.0006*%
%ADD192R,0.0082X0.0006*%
%ADD193R,0.0076X0.0006*%
%ADD194R,0.0535X0.0006*%
%ADD195R,0.0057X0.0006*%
%ADD196R,0.0498X0.0006*%
%ADD197R,0.0094X0.0006*%
%ADD198R,0.0132X0.0006*%
%ADD199R,0.0202X0.0006*%
%ADD200R,0.0176X0.0006*%
%ADD201R,0.0031X0.0006*%
%ADD202R,0.0183X0.0006*%
%ADD203R,0.0542X0.0006*%
%ADD204R,0.0554X0.0006*%
%ADD205R,0.0567X0.0006*%
%ADD206R,0.0580X0.0006*%
%ADD207R,0.0605X0.0006*%
%ADD208R,0.0687X0.0006*%
%ADD209R,0.0939X0.0006*%
%ADD210R,0.0932X0.0006*%
%ADD211R,0.0857X0.0006*%
%ADD212R,0.0737X0.0006*%
%ADD213R,0.0844X0.0006*%
%ADD214R,0.0724X0.0006*%
%ADD215R,0.0831X0.0006*%
%ADD216R,0.0164X0.0006*%
%ADD217R,0.0636X0.0006*%
%ADD218R,0.0397X0.0006*%
%ADD219R,0.0403X0.0006*%
%ADD220R,0.0378X0.0006*%
%ADD221R,0.0139X0.0006*%
%ADD222R,0.0113X0.0006*%
%ADD223R,0.0019X0.0006*%
%ADD224R,0.0013X0.0006*%
%ADD225C,0.0040*%
%ADD226C,0.0000*%
%ADD227C,0.0150*%
D10*
X005210Y004410D02*
X005210Y004910D01*
X005260Y004910D02*
X005260Y004410D01*
X005310Y004410D02*
X005310Y004910D01*
X005360Y004910D02*
X005360Y004410D01*
X008176Y006150D02*
X008387Y006150D01*
X008457Y006220D01*
X008457Y006360D01*
X008387Y006430D01*
X008176Y006430D01*
X008176Y006570D02*
X008176Y006150D01*
X008630Y006430D02*
X008700Y006430D01*
X008840Y006290D01*
X008840Y006150D02*
X008840Y006430D01*
X009020Y006360D02*
X009020Y006150D01*
X009231Y006150D01*
X009301Y006220D01*
X009231Y006290D01*
X009020Y006290D01*
X009020Y006360D02*
X009091Y006430D01*
X009231Y006430D01*
X009481Y006500D02*
X009551Y006570D01*
X009691Y006570D01*
X009761Y006500D01*
X009761Y006220D01*
X009691Y006150D01*
X009551Y006150D01*
X009481Y006220D01*
X010402Y006150D02*
X010612Y006150D01*
X010682Y006220D01*
X010682Y006430D01*
X010862Y006360D02*
X010862Y006150D01*
X011072Y006150D01*
X011142Y006220D01*
X011072Y006290D01*
X010862Y006290D01*
X010862Y006360D02*
X010932Y006430D01*
X011072Y006430D01*
X011379Y006570D02*
X011379Y006150D01*
X011449Y006150D02*
X011309Y006150D01*
X011629Y006290D02*
X011910Y006290D01*
X011910Y006220D02*
X011910Y006360D01*
X011840Y006430D01*
X011699Y006430D01*
X011629Y006360D01*
X011629Y006290D01*
X011699Y006150D02*
X011840Y006150D01*
X011910Y006220D01*
X012090Y006150D02*
X012230Y006290D01*
X012160Y006290D02*
X012370Y006290D01*
X012370Y006150D02*
X012370Y006570D01*
X012160Y006570D01*
X012090Y006500D01*
X012090Y006360D01*
X012160Y006290D01*
X011449Y006570D02*
X011379Y006570D01*
X010542Y006010D02*
X010472Y006010D01*
X010402Y006080D01*
X010402Y006430D01*
D11*
X010459Y005685D02*
X010409Y005635D01*
X010409Y005435D01*
X010459Y005385D01*
X010609Y005385D01*
X010609Y005685D01*
X010459Y005685D01*
X010287Y005685D02*
X010136Y005685D01*
X010086Y005635D01*
X010086Y005535D01*
X010136Y005485D01*
X010287Y005485D01*
X010287Y005385D02*
X010287Y005685D01*
X010186Y005485D02*
X010086Y005385D01*
X009964Y005385D02*
X009964Y005435D01*
X009914Y005435D01*
X009914Y005385D01*
X009964Y005385D01*
X009964Y005535D02*
X009914Y005535D01*
X009914Y005585D01*
X009964Y005585D01*
X009964Y005535D01*
X009481Y005435D02*
X009281Y005635D01*
X009281Y005435D01*
X009331Y005385D01*
X009431Y005385D01*
X009481Y005435D01*
X009481Y005635D01*
X009431Y005685D01*
X009331Y005685D01*
X009281Y005635D01*
X009159Y005585D02*
X008958Y005385D01*
X008836Y005535D02*
X008636Y005535D01*
X008514Y005585D02*
X008414Y005685D01*
X008414Y005385D01*
X008514Y005385D02*
X008314Y005385D01*
X008686Y005385D02*
X008686Y005685D01*
X008836Y005535D01*
X008958Y005585D02*
X009159Y005385D01*
X009384Y005035D02*
X009484Y005035D01*
X009535Y004985D01*
X009535Y004935D01*
X009484Y004885D01*
X009334Y004885D01*
X009334Y004785D02*
X009334Y004985D01*
X009384Y005035D01*
X009334Y004785D02*
X009384Y004735D01*
X009484Y004735D01*
X009535Y004785D01*
X009657Y004735D02*
X009857Y004735D01*
X009757Y004735D02*
X009757Y005035D01*
X009857Y004935D01*
X009979Y004985D02*
X009979Y004785D01*
X010029Y004735D01*
X010129Y004735D01*
X010179Y004785D01*
X009979Y004985D01*
X010029Y005035D01*
X010129Y005035D01*
X010179Y004985D01*
X010179Y004785D01*
X010301Y004735D02*
X010501Y004735D01*
X010301Y004935D01*
X010301Y004985D01*
X010351Y005035D01*
X010451Y005035D01*
X010501Y004985D01*
X010623Y005035D02*
X010824Y004735D01*
X010946Y004735D02*
X011146Y004735D01*
X011046Y004735D02*
X011046Y005035D01*
X011146Y004935D01*
X011268Y004985D02*
X011268Y004785D01*
X011318Y004735D01*
X011418Y004735D01*
X011468Y004785D01*
X011268Y004985D01*
X011318Y005035D01*
X011418Y005035D01*
X011468Y004985D01*
X011468Y004785D01*
X011590Y005035D02*
X011790Y004735D01*
X011913Y004785D02*
X011963Y004735D01*
X012063Y004735D01*
X012113Y004785D01*
X011913Y004985D01*
X011913Y004785D01*
X011913Y004985D02*
X011963Y005035D01*
X012063Y005035D01*
X012113Y004985D01*
X012113Y004785D01*
X012235Y004735D02*
X012435Y004735D01*
X012335Y004735D02*
X012335Y005035D01*
X012435Y004935D01*
X012435Y005385D02*
X012335Y005385D01*
X012385Y005385D02*
X012385Y005685D01*
X012435Y005685D02*
X012335Y005685D01*
X012220Y005635D02*
X012170Y005685D01*
X012070Y005685D01*
X012020Y005635D01*
X012020Y005585D01*
X012220Y005385D01*
X012020Y005385D01*
X011898Y005435D02*
X011848Y005385D01*
X011748Y005385D01*
X011698Y005435D01*
X011898Y005435D02*
X011898Y005635D01*
X011848Y005685D01*
X011748Y005685D01*
X011698Y005635D01*
X011253Y005585D02*
X011253Y005385D01*
X011253Y005535D02*
X011053Y005535D01*
X011053Y005585D02*
X011053Y005385D01*
X010931Y005385D02*
X010781Y005385D01*
X010731Y005435D01*
X010731Y005635D01*
X010781Y005685D01*
X010931Y005685D01*
X010931Y005385D01*
X011053Y005585D02*
X011153Y005685D01*
X011253Y005585D01*
X005910Y004960D02*
X005910Y004310D01*
X005410Y004310D01*
X005410Y004960D01*
X005910Y004960D01*
X005160Y004960D02*
X005160Y004310D01*
X004660Y004310D01*
X004660Y004960D01*
X005160Y004960D01*
X004435Y004810D02*
X004435Y004560D01*
X004385Y004510D01*
X004285Y004510D01*
X004235Y004560D01*
X004235Y004810D01*
X004113Y004710D02*
X004013Y004810D01*
X003913Y004710D01*
X003913Y004510D01*
X003790Y004510D02*
X003790Y004810D01*
X003640Y004810D01*
X003590Y004760D01*
X003590Y004660D01*
X003640Y004610D01*
X003790Y004610D01*
X003690Y004610D02*
X003590Y004510D01*
X003368Y004510D02*
X003368Y004810D01*
X003468Y004810D02*
X003268Y004810D01*
X003913Y004660D02*
X004113Y004660D01*
X004113Y004710D02*
X004113Y004510D01*
D12*
X001388Y000164D02*
X014932Y000164D01*
X014999Y000166D01*
X015066Y000172D01*
X015133Y000181D01*
X015199Y000194D01*
X015264Y000211D01*
X015328Y000231D01*
X015391Y000255D01*
X015453Y000283D01*
X015512Y000314D01*
X015570Y000348D01*
X015626Y000385D01*
X015680Y000426D01*
X015732Y000469D01*
X015781Y000515D01*
X015827Y000564D01*
X015870Y000616D01*
X015911Y000670D01*
X015948Y000726D01*
X015982Y000784D01*
X016013Y000843D01*
X016041Y000905D01*
X016065Y000968D01*
X016085Y001032D01*
X016102Y001097D01*
X016115Y001163D01*
X016124Y001230D01*
X016130Y001297D01*
X016132Y001364D01*
X016132Y011956D01*
X016130Y012023D01*
X016124Y012090D01*
X016115Y012157D01*
X016102Y012223D01*
X016085Y012288D01*
X016065Y012352D01*
X016041Y012415D01*
X016013Y012477D01*
X015982Y012536D01*
X015948Y012594D01*
X015911Y012650D01*
X015870Y012704D01*
X015827Y012756D01*
X015781Y012805D01*
X015732Y012851D01*
X015680Y012894D01*
X015626Y012935D01*
X015570Y012972D01*
X015512Y013006D01*
X015453Y013037D01*
X015391Y013065D01*
X015328Y013089D01*
X015264Y013109D01*
X015199Y013126D01*
X015133Y013139D01*
X015066Y013148D01*
X014999Y013154D01*
X014932Y013156D01*
X001388Y013156D01*
X001321Y013154D01*
X001254Y013148D01*
X001187Y013139D01*
X001121Y013126D01*
X001056Y013109D01*
X000992Y013089D01*
X000929Y013065D01*
X000867Y013037D01*
X000808Y013006D01*
X000750Y012972D01*
X000694Y012935D01*
X000640Y012894D01*
X000588Y012851D01*
X000539Y012805D01*
X000493Y012756D01*
X000450Y012704D01*
X000409Y012650D01*
X000372Y012594D01*
X000338Y012536D01*
X000307Y012477D01*
X000279Y012415D01*
X000255Y012352D01*
X000235Y012288D01*
X000218Y012223D01*
X000205Y012157D01*
X000196Y012090D01*
X000190Y012023D01*
X000188Y011956D01*
X000188Y001364D01*
X000190Y001297D01*
X000196Y001230D01*
X000205Y001163D01*
X000218Y001097D01*
X000235Y001032D01*
X000255Y000968D01*
X000279Y000905D01*
X000307Y000843D01*
X000338Y000784D01*
X000372Y000726D01*
X000409Y000670D01*
X000450Y000616D01*
X000493Y000564D01*
X000539Y000515D01*
X000588Y000469D01*
X000640Y000426D01*
X000694Y000385D01*
X000750Y000348D01*
X000808Y000314D01*
X000867Y000283D01*
X000929Y000255D01*
X000992Y000231D01*
X001056Y000211D01*
X001121Y000194D01*
X001187Y000181D01*
X001254Y000172D01*
X001321Y000166D01*
X001388Y000164D01*
X000160Y003710D02*
X016110Y003710D01*
D13*
X015475Y004246D02*
X015374Y004145D01*
X015225Y004266D01*
X015165Y004235D01*
X015081Y004439D01*
X015118Y004461D01*
X015150Y004490D01*
X015174Y004526D01*
X015189Y004567D01*
X015195Y004610D01*
X015189Y004654D01*
X015174Y004695D01*
X015149Y004732D01*
X015116Y004761D01*
X015077Y004782D01*
X015034Y004793D01*
X014990Y004793D01*
X014947Y004783D01*
X014908Y004763D01*
X014874Y004735D01*
X014848Y004699D01*
X014832Y004658D01*
X014826Y004614D01*
X014830Y004570D01*
X014845Y004528D01*
X014869Y004491D01*
X014901Y004461D01*
X014939Y004439D01*
X014855Y004235D01*
X014795Y004266D01*
X014646Y004145D01*
X014545Y004246D01*
X014666Y004395D01*
X014635Y004455D01*
X014614Y004519D01*
X014424Y004538D01*
X014424Y004682D01*
X014614Y004701D01*
X014635Y004765D01*
X014666Y004825D01*
X014545Y004974D01*
X014646Y005075D01*
X014795Y004954D01*
X014855Y004985D01*
X014919Y005006D01*
X014938Y005196D01*
X015082Y005196D01*
X015101Y005006D01*
X015165Y004985D01*
X015225Y004954D01*
X015374Y005075D01*
X015475Y004974D01*
X015354Y004825D01*
X015385Y004765D01*
X015406Y004701D01*
X015596Y004682D01*
X015596Y004538D01*
X015406Y004519D01*
X015385Y004455D01*
X015354Y004395D01*
X015475Y004246D01*
X015472Y004243D02*
X015253Y004243D01*
X015181Y004243D02*
X015162Y004243D01*
X015138Y004300D02*
X015431Y004300D01*
X015385Y004358D02*
X015114Y004358D01*
X015091Y004415D02*
X015365Y004415D01*
X015391Y004473D02*
X015132Y004473D01*
X015176Y004530D02*
X015522Y004530D01*
X015596Y004588D02*
X015192Y004588D01*
X015190Y004646D02*
X015596Y004646D01*
X015405Y004703D02*
X015168Y004703D01*
X015116Y004761D02*
X015387Y004761D01*
X015358Y004818D02*
X014662Y004818D01*
X014633Y004761D02*
X014904Y004761D01*
X014851Y004703D02*
X014615Y004703D01*
X014624Y004876D02*
X015396Y004876D01*
X015443Y004933D02*
X014577Y004933D01*
X014562Y004991D02*
X014750Y004991D01*
X014679Y005048D02*
X014620Y005048D01*
X014873Y004991D02*
X015147Y004991D01*
X015097Y005048D02*
X014923Y005048D01*
X014929Y005106D02*
X015091Y005106D01*
X015085Y005164D02*
X014935Y005164D01*
X015270Y004991D02*
X015458Y004991D01*
X015400Y005048D02*
X015341Y005048D01*
X014830Y004646D02*
X014424Y004646D01*
X014424Y004588D02*
X014828Y004588D01*
X014844Y004530D02*
X014498Y004530D01*
X014629Y004473D02*
X014888Y004473D01*
X014929Y004415D02*
X014655Y004415D01*
X014635Y004358D02*
X014906Y004358D01*
X014882Y004300D02*
X014589Y004300D01*
X014548Y004243D02*
X014767Y004243D01*
X014839Y004243D02*
X014858Y004243D01*
X014696Y004185D02*
X014606Y004185D01*
X015324Y004185D02*
X015414Y004185D01*
D14*
X009403Y007055D03*
X008759Y007468D03*
X008753Y007498D03*
X008753Y007504D03*
X008747Y007521D03*
X008747Y007527D03*
X008747Y007533D03*
X008741Y007545D03*
X008741Y007551D03*
X008741Y007557D03*
X008647Y007557D03*
X008641Y007533D03*
X008641Y007527D03*
X008635Y007504D03*
X008629Y007474D03*
X008694Y007769D03*
X006586Y008407D03*
X006580Y008431D03*
X006580Y008437D03*
X006574Y008460D03*
X006574Y008466D03*
X006568Y008484D03*
X006568Y008490D03*
X006568Y008496D03*
X006562Y008514D03*
X006468Y008514D03*
X006468Y008508D03*
X006462Y008490D03*
X006462Y008484D03*
X006456Y008460D03*
X006456Y008454D03*
X006450Y008431D03*
X006515Y008726D03*
X006515Y008732D03*
D15*
X006518Y008720D03*
X006565Y008508D03*
X006565Y008502D03*
X006571Y008478D03*
X006571Y008472D03*
X006577Y008454D03*
X006577Y008449D03*
X006577Y008443D03*
X006583Y008425D03*
X006583Y008419D03*
X006583Y008413D03*
X006589Y008401D03*
X006589Y008395D03*
X006589Y008390D03*
X006589Y008384D03*
X006589Y008378D03*
X006595Y008372D03*
X006595Y008366D03*
X006595Y008360D03*
X006595Y008354D03*
X006601Y008342D03*
X006601Y008336D03*
X006601Y008330D03*
X006601Y008325D03*
X006607Y008313D03*
X006607Y008307D03*
X006607Y008301D03*
X006613Y008283D03*
X006613Y008277D03*
X006613Y008271D03*
X006429Y008325D03*
X006429Y008330D03*
X006429Y008336D03*
X006435Y008348D03*
X006435Y008354D03*
X006435Y008360D03*
X006435Y008366D03*
X006441Y008378D03*
X006441Y008384D03*
X006441Y008390D03*
X006441Y008395D03*
X006447Y008401D03*
X006447Y008407D03*
X006447Y008413D03*
X006447Y008419D03*
X006447Y008425D03*
X006453Y008437D03*
X006453Y008443D03*
X006453Y008449D03*
X006459Y008466D03*
X006459Y008472D03*
X006459Y008478D03*
X006465Y008496D03*
X006465Y008502D03*
X006424Y008307D03*
X006424Y008301D03*
X006418Y008277D03*
X006418Y008271D03*
X005804Y008431D03*
X005798Y008413D03*
X005792Y008395D03*
X005786Y008384D03*
X005780Y008366D03*
X005774Y008348D03*
X005768Y008330D03*
X005762Y008319D03*
X006512Y007055D03*
X007959Y008319D03*
X007965Y008336D03*
X007971Y008348D03*
X007977Y008366D03*
X007983Y008384D03*
X007989Y008401D03*
X008000Y008431D03*
X008691Y007764D03*
X008691Y007758D03*
X008644Y007551D03*
X008644Y007545D03*
X008644Y007539D03*
X008638Y007521D03*
X008638Y007516D03*
X008638Y007510D03*
X008632Y007498D03*
X008632Y007492D03*
X008632Y007486D03*
X008632Y007480D03*
X008626Y007468D03*
X008626Y007462D03*
X008626Y007456D03*
X008626Y007451D03*
X008620Y007445D03*
X008620Y007439D03*
X008620Y007433D03*
X008620Y007427D03*
X008620Y007421D03*
X008615Y007415D03*
X008615Y007409D03*
X008615Y007403D03*
X008615Y007397D03*
X008609Y007386D03*
X008609Y007380D03*
X008609Y007374D03*
X008603Y007356D03*
X008603Y007350D03*
X008603Y007344D03*
X008597Y007321D03*
X008780Y007362D03*
X008780Y007368D03*
X008780Y007374D03*
X008780Y007380D03*
X008774Y007391D03*
X008774Y007397D03*
X008774Y007403D03*
X008774Y007409D03*
X008768Y007415D03*
X008768Y007421D03*
X008768Y007427D03*
X008768Y007433D03*
X008768Y007439D03*
X008762Y007445D03*
X008762Y007451D03*
X008762Y007456D03*
X008762Y007462D03*
X008756Y007474D03*
X008756Y007480D03*
X008756Y007486D03*
X008756Y007492D03*
X008750Y007510D03*
X008750Y007516D03*
X008744Y007539D03*
X008786Y007350D03*
X008786Y007344D03*
X008786Y007338D03*
X008792Y007321D03*
X008792Y007315D03*
D16*
X008691Y007681D03*
X008620Y008124D03*
X008821Y008124D03*
X008821Y008626D03*
X008620Y008626D03*
X008095Y008649D03*
X008095Y008655D03*
X007865Y008106D03*
X007865Y008100D03*
X007865Y008094D03*
X007870Y007669D03*
X007870Y007462D03*
X007150Y007161D03*
X006618Y007161D03*
X006412Y007356D03*
X006412Y007669D03*
X006613Y007669D03*
X007339Y008124D03*
X007339Y008626D03*
X007138Y008626D03*
X005898Y008643D03*
X005898Y008649D03*
X005898Y008655D03*
X005668Y008106D03*
X005668Y008100D03*
X005668Y008094D03*
X009311Y007161D03*
X009406Y007061D03*
X009500Y007161D03*
X009500Y007669D03*
D17*
X009518Y007628D03*
X009518Y007622D03*
X009518Y007616D03*
X009518Y007610D03*
X009518Y007604D03*
X009518Y007598D03*
X009518Y007592D03*
X009518Y007586D03*
X009518Y007580D03*
X009518Y007575D03*
X009518Y007569D03*
X009518Y007563D03*
X009518Y007557D03*
X009518Y007551D03*
X009518Y007545D03*
X009518Y007539D03*
X009518Y007533D03*
X009518Y007527D03*
X009518Y007521D03*
X009518Y007516D03*
X009518Y007510D03*
X009518Y007504D03*
X009518Y007498D03*
X009518Y007492D03*
X009518Y007486D03*
X009518Y007480D03*
X009518Y007474D03*
X009518Y007468D03*
X009518Y007462D03*
X009518Y007456D03*
X009518Y007451D03*
X009518Y007445D03*
X009518Y007439D03*
X009518Y007433D03*
X009518Y007427D03*
X009518Y007421D03*
X009518Y007415D03*
X009518Y007409D03*
X009518Y007403D03*
X009518Y007397D03*
X009518Y007391D03*
X009518Y007386D03*
X009518Y007380D03*
X009518Y007374D03*
X009518Y007368D03*
X009518Y007362D03*
X009518Y007356D03*
X009518Y007350D03*
X009518Y007344D03*
X009518Y007338D03*
X009518Y007332D03*
X009518Y007327D03*
X009518Y007321D03*
X009518Y007315D03*
X009518Y007309D03*
X009518Y007303D03*
X009518Y007297D03*
X009518Y007291D03*
X009518Y007285D03*
X009518Y007279D03*
X009518Y007273D03*
X009518Y007267D03*
X009518Y007262D03*
X009518Y007256D03*
X009518Y007250D03*
X009518Y007244D03*
X009518Y007238D03*
X009518Y007232D03*
X009518Y007226D03*
X009518Y007220D03*
X009518Y007214D03*
X009518Y007208D03*
X009518Y007203D03*
X009288Y007203D03*
X009288Y007208D03*
X009288Y007214D03*
X009288Y007220D03*
X009288Y007226D03*
X009288Y007232D03*
X009288Y007238D03*
X009288Y007244D03*
X009288Y007250D03*
X009288Y007256D03*
X008821Y007173D03*
X008821Y007167D03*
X008827Y007143D03*
X008827Y007138D03*
X008833Y007120D03*
X008833Y007114D03*
X008833Y007108D03*
X008839Y007090D03*
X008839Y007084D03*
X008839Y007079D03*
X008845Y007067D03*
X008845Y007061D03*
X008815Y007197D03*
X008573Y007208D03*
X008567Y007179D03*
X008561Y007155D03*
X008561Y007149D03*
X008555Y007126D03*
X008555Y007120D03*
X008550Y007102D03*
X008550Y007096D03*
X008550Y007090D03*
X008544Y007073D03*
X008544Y007067D03*
X008544Y007061D03*
X008083Y007061D03*
X008083Y007067D03*
X008083Y007073D03*
X008083Y007079D03*
X008083Y007084D03*
X008083Y007090D03*
X008083Y007096D03*
X008083Y007102D03*
X008083Y007108D03*
X008083Y007114D03*
X008083Y007120D03*
X008083Y007126D03*
X008083Y007132D03*
X008083Y007138D03*
X008083Y007143D03*
X008083Y007149D03*
X008083Y007155D03*
X008083Y007161D03*
X008083Y007167D03*
X008083Y007173D03*
X008083Y007179D03*
X008083Y007185D03*
X008083Y007191D03*
X008083Y007197D03*
X008083Y007203D03*
X008083Y007208D03*
X008083Y007214D03*
X008083Y007220D03*
X008083Y007226D03*
X008083Y007232D03*
X008083Y007238D03*
X008083Y007244D03*
X008083Y007250D03*
X008083Y007256D03*
X008083Y007262D03*
X008083Y007267D03*
X008083Y007273D03*
X008083Y007279D03*
X008083Y007285D03*
X008083Y007291D03*
X008083Y007297D03*
X008083Y007303D03*
X008083Y007309D03*
X008083Y007315D03*
X008083Y007321D03*
X008083Y007327D03*
X008083Y007332D03*
X008083Y007338D03*
X008083Y007344D03*
X008083Y007350D03*
X008083Y007356D03*
X008083Y007456D03*
X008083Y007462D03*
X008083Y007468D03*
X008083Y007474D03*
X008083Y007480D03*
X008083Y007486D03*
X008083Y007492D03*
X008083Y007498D03*
X008083Y007504D03*
X008083Y007510D03*
X008083Y007516D03*
X008083Y007521D03*
X008083Y007527D03*
X008083Y007533D03*
X008083Y007539D03*
X008083Y007545D03*
X008083Y007551D03*
X008083Y007557D03*
X008083Y007563D03*
X008083Y007569D03*
X008083Y007575D03*
X008083Y007580D03*
X008083Y007586D03*
X008083Y007592D03*
X008083Y007598D03*
X008083Y007604D03*
X008083Y007610D03*
X008083Y007616D03*
X008083Y007622D03*
X008083Y007628D03*
X008083Y007634D03*
X008083Y007640D03*
X008083Y007645D03*
X008083Y007651D03*
X008083Y007657D03*
X008083Y007663D03*
X008083Y007669D03*
X008083Y007675D03*
X007853Y007645D03*
X007847Y007634D03*
X007847Y007628D03*
X007847Y007622D03*
X007847Y007616D03*
X007841Y007604D03*
X007841Y007598D03*
X007841Y007592D03*
X007841Y007586D03*
X007841Y007580D03*
X007841Y007575D03*
X007841Y007569D03*
X007841Y007563D03*
X007841Y007557D03*
X007841Y007551D03*
X007841Y007545D03*
X007841Y007539D03*
X007841Y007533D03*
X007841Y007527D03*
X007847Y007516D03*
X007847Y007510D03*
X007847Y007504D03*
X007847Y007498D03*
X007853Y007486D03*
X007918Y007350D03*
X007912Y007332D03*
X007912Y007327D03*
X007906Y007315D03*
X007906Y007309D03*
X007900Y007297D03*
X007900Y007291D03*
X007894Y007279D03*
X007894Y007273D03*
X007888Y007262D03*
X007888Y007256D03*
X007882Y007244D03*
X007882Y007238D03*
X007876Y007226D03*
X007876Y007220D03*
X007870Y007208D03*
X007870Y007203D03*
X007865Y007191D03*
X007865Y007185D03*
X007859Y007173D03*
X007859Y007167D03*
X007853Y007155D03*
X007853Y007149D03*
X007847Y007132D03*
X007841Y007114D03*
X007835Y007096D03*
X007829Y007079D03*
X007823Y007061D03*
X007351Y007155D03*
X007351Y007161D03*
X007351Y007167D03*
X007351Y007173D03*
X007351Y007179D03*
X007351Y007185D03*
X007351Y007191D03*
X007351Y007197D03*
X007351Y007203D03*
X007351Y007208D03*
X007351Y007214D03*
X007351Y007220D03*
X007351Y007226D03*
X007351Y007232D03*
X007351Y007238D03*
X007351Y007244D03*
X007351Y007250D03*
X007351Y007256D03*
X007351Y007262D03*
X007351Y007267D03*
X007351Y007273D03*
X007351Y007279D03*
X007351Y007285D03*
X007351Y007291D03*
X007351Y007297D03*
X007351Y007303D03*
X007351Y007309D03*
X007351Y007315D03*
X007351Y007321D03*
X007351Y007327D03*
X007351Y007332D03*
X007351Y007338D03*
X007351Y007344D03*
X007351Y007350D03*
X007351Y007356D03*
X007351Y007362D03*
X007351Y007368D03*
X007351Y007374D03*
X007351Y007380D03*
X007351Y007386D03*
X007351Y007391D03*
X007351Y007397D03*
X007351Y007403D03*
X007351Y007409D03*
X007351Y007415D03*
X007351Y007421D03*
X007351Y007427D03*
X007351Y007433D03*
X007351Y007439D03*
X007351Y007445D03*
X007351Y007451D03*
X007351Y007456D03*
X007351Y007462D03*
X007351Y007468D03*
X007351Y007474D03*
X007351Y007480D03*
X007351Y007486D03*
X007351Y007492D03*
X007351Y007498D03*
X007351Y007504D03*
X007351Y007510D03*
X007351Y007516D03*
X007351Y007521D03*
X007351Y007527D03*
X007351Y007533D03*
X007351Y007539D03*
X007351Y007545D03*
X007351Y007551D03*
X007351Y007557D03*
X007351Y007563D03*
X007351Y007569D03*
X007351Y007575D03*
X007351Y007580D03*
X007351Y007586D03*
X007351Y007592D03*
X007351Y007598D03*
X007351Y007604D03*
X007351Y007610D03*
X007351Y007616D03*
X007351Y007622D03*
X007351Y007628D03*
X007351Y007634D03*
X007351Y007640D03*
X007351Y007645D03*
X007351Y007651D03*
X007351Y007657D03*
X007351Y007663D03*
X007351Y007669D03*
X007351Y007675D03*
X007126Y007634D03*
X007126Y007628D03*
X007126Y007622D03*
X007126Y007616D03*
X007126Y007610D03*
X007120Y007592D03*
X007120Y007586D03*
X007120Y007580D03*
X007120Y007575D03*
X007120Y007569D03*
X007120Y007563D03*
X007120Y007557D03*
X007120Y007551D03*
X007120Y007545D03*
X007120Y007539D03*
X007120Y007533D03*
X007120Y007527D03*
X007120Y007521D03*
X007120Y007516D03*
X007120Y007510D03*
X007120Y007504D03*
X007120Y007498D03*
X007120Y007492D03*
X007120Y007486D03*
X007120Y007480D03*
X007120Y007474D03*
X007120Y007468D03*
X007120Y007462D03*
X007120Y007456D03*
X007120Y007451D03*
X007120Y007445D03*
X007120Y007439D03*
X007120Y007433D03*
X007120Y007427D03*
X007120Y007421D03*
X007120Y007415D03*
X007120Y007409D03*
X007120Y007403D03*
X007120Y007397D03*
X007120Y007391D03*
X007120Y007386D03*
X007120Y007380D03*
X007120Y007374D03*
X007120Y007368D03*
X007120Y007362D03*
X007120Y007356D03*
X007120Y007350D03*
X007120Y007344D03*
X007120Y007338D03*
X007120Y007332D03*
X007120Y007327D03*
X007120Y007321D03*
X007120Y007315D03*
X007120Y007309D03*
X007120Y007303D03*
X007120Y007297D03*
X007120Y007291D03*
X007120Y007285D03*
X007120Y007279D03*
X007120Y007273D03*
X007120Y007267D03*
X007120Y007262D03*
X007120Y007256D03*
X007120Y007250D03*
X007126Y007226D03*
X007126Y007220D03*
X007126Y007214D03*
X007126Y007208D03*
X007126Y007203D03*
X007126Y007197D03*
X007132Y007191D03*
X007132Y007185D03*
X006642Y007208D03*
X006642Y007214D03*
X006642Y007220D03*
X006642Y007226D03*
X006642Y007232D03*
X006642Y007238D03*
X006642Y007244D03*
X006642Y007250D03*
X006642Y007256D03*
X006636Y007197D03*
X006400Y007191D03*
X006400Y007185D03*
X006394Y007197D03*
X006394Y007203D03*
X006394Y007208D03*
X006394Y007214D03*
X006394Y007220D03*
X006394Y007226D03*
X006388Y007256D03*
X006388Y007262D03*
X006388Y007267D03*
X006388Y007273D03*
X006394Y007291D03*
X006394Y007297D03*
X006394Y007303D03*
X006394Y007309D03*
X006394Y007315D03*
X006394Y007321D03*
X006394Y007327D03*
X006630Y007527D03*
X006630Y007533D03*
X006630Y007539D03*
X006636Y007545D03*
X006636Y007551D03*
X006636Y007557D03*
X006636Y007563D03*
X006636Y007569D03*
X006636Y007575D03*
X006636Y007580D03*
X006636Y007586D03*
X006636Y007592D03*
X006636Y007598D03*
X006636Y007604D03*
X006636Y007610D03*
X006636Y007616D03*
X006630Y007622D03*
X006630Y007628D03*
X006630Y007634D03*
X006630Y007640D03*
X006512Y007775D03*
X006394Y007628D03*
X006388Y007604D03*
X006388Y007598D03*
X006388Y007592D03*
X006388Y007586D03*
X006388Y007580D03*
X006388Y007575D03*
X006365Y008017D03*
X006365Y008023D03*
X006365Y008029D03*
X006370Y008041D03*
X006370Y008047D03*
X006370Y008053D03*
X006376Y008071D03*
X006376Y008077D03*
X006376Y008082D03*
X006382Y008100D03*
X006382Y008106D03*
X006388Y008130D03*
X006388Y008136D03*
X006394Y008159D03*
X006642Y008136D03*
X006648Y008112D03*
X006648Y008106D03*
X006654Y008082D03*
X006654Y008077D03*
X006660Y008059D03*
X006660Y008053D03*
X006660Y008047D03*
X006660Y008041D03*
X006666Y008029D03*
X006666Y008023D03*
X006666Y008017D03*
X007120Y008153D03*
X007120Y008159D03*
X007120Y008165D03*
X007120Y008171D03*
X007115Y008183D03*
X007115Y008189D03*
X007115Y008195D03*
X007115Y008201D03*
X007115Y008206D03*
X007115Y008212D03*
X007115Y008218D03*
X007115Y008224D03*
X007115Y008230D03*
X007115Y008236D03*
X007115Y008242D03*
X007115Y008248D03*
X007115Y008254D03*
X007115Y008260D03*
X007115Y008266D03*
X007115Y008271D03*
X007115Y008277D03*
X007115Y008283D03*
X007115Y008289D03*
X007115Y008295D03*
X007115Y008301D03*
X007115Y008307D03*
X007115Y008313D03*
X007115Y008319D03*
X007115Y008531D03*
X007115Y008537D03*
X007115Y008543D03*
X007115Y008549D03*
X007115Y008555D03*
X007115Y008561D03*
X007115Y008567D03*
X007120Y008579D03*
X007120Y008584D03*
X007120Y008590D03*
X007120Y008596D03*
X007239Y008732D03*
X007357Y008596D03*
X007357Y008590D03*
X007357Y008584D03*
X007357Y008579D03*
X007357Y008573D03*
X007357Y008567D03*
X007357Y008561D03*
X007357Y008555D03*
X007357Y008549D03*
X007357Y008543D03*
X007357Y008537D03*
X007357Y008531D03*
X007357Y008525D03*
X007357Y008519D03*
X007357Y008514D03*
X007357Y008508D03*
X007357Y008502D03*
X007357Y008496D03*
X007357Y008490D03*
X007357Y008484D03*
X007357Y008478D03*
X007357Y008472D03*
X007357Y008466D03*
X007357Y008460D03*
X007357Y008454D03*
X007357Y008449D03*
X007357Y008443D03*
X007357Y008437D03*
X007357Y008431D03*
X007357Y008425D03*
X007357Y008419D03*
X007357Y008413D03*
X007357Y008407D03*
X007357Y008401D03*
X007357Y008395D03*
X007357Y008390D03*
X007357Y008384D03*
X007357Y008378D03*
X007357Y008372D03*
X007357Y008366D03*
X007357Y008360D03*
X007357Y008354D03*
X007357Y008348D03*
X007357Y008342D03*
X007357Y008336D03*
X007357Y008330D03*
X007357Y008325D03*
X007357Y008319D03*
X007357Y008313D03*
X007357Y008307D03*
X007357Y008301D03*
X007357Y008295D03*
X007357Y008289D03*
X007357Y008283D03*
X007357Y008277D03*
X007357Y008271D03*
X007357Y008266D03*
X007357Y008260D03*
X007357Y008254D03*
X007357Y008248D03*
X007357Y008242D03*
X007357Y008236D03*
X007357Y008230D03*
X007357Y008224D03*
X007357Y008218D03*
X007357Y008212D03*
X007357Y008206D03*
X007357Y008201D03*
X007357Y008195D03*
X007357Y008189D03*
X007357Y008183D03*
X007357Y008177D03*
X007357Y008171D03*
X007357Y008165D03*
X007357Y008159D03*
X007357Y008153D03*
X007853Y008041D03*
X007853Y008035D03*
X007853Y008029D03*
X008107Y008029D03*
X008107Y008023D03*
X008107Y008017D03*
X008107Y008035D03*
X008107Y008041D03*
X008107Y008047D03*
X008107Y008053D03*
X008107Y008059D03*
X008107Y008065D03*
X008107Y008071D03*
X008107Y008077D03*
X008107Y008082D03*
X008107Y008088D03*
X008107Y008094D03*
X008107Y008100D03*
X008107Y008106D03*
X008107Y008112D03*
X008107Y008118D03*
X008107Y008124D03*
X008107Y008130D03*
X008107Y008136D03*
X008107Y008141D03*
X008107Y008147D03*
X008107Y008153D03*
X008107Y008159D03*
X008107Y008165D03*
X008107Y008171D03*
X008107Y008177D03*
X008107Y008183D03*
X008107Y008189D03*
X008107Y008195D03*
X008107Y008201D03*
X008107Y008206D03*
X008107Y008212D03*
X008107Y008218D03*
X008107Y008224D03*
X008107Y008230D03*
X008107Y008236D03*
X008107Y008242D03*
X008107Y008248D03*
X008107Y008254D03*
X008107Y008260D03*
X008107Y008266D03*
X008107Y008271D03*
X008107Y008277D03*
X008107Y008283D03*
X008107Y008289D03*
X008107Y008295D03*
X008107Y008301D03*
X008107Y008307D03*
X008107Y008313D03*
X008107Y008319D03*
X008107Y008325D03*
X008107Y008330D03*
X008107Y008336D03*
X008107Y008342D03*
X008107Y008348D03*
X008107Y008354D03*
X008107Y008360D03*
X008107Y008366D03*
X008107Y008372D03*
X008107Y008378D03*
X008107Y008384D03*
X008107Y008390D03*
X008107Y008395D03*
X008107Y008401D03*
X008107Y008407D03*
X008107Y008413D03*
X008107Y008419D03*
X008107Y008425D03*
X008107Y008431D03*
X007853Y008431D03*
X007853Y008437D03*
X007853Y008443D03*
X007853Y008449D03*
X007853Y008454D03*
X007853Y008460D03*
X007853Y008466D03*
X007853Y008472D03*
X007853Y008478D03*
X007853Y008484D03*
X007853Y008490D03*
X007853Y008496D03*
X007853Y008502D03*
X007853Y008508D03*
X007853Y008514D03*
X007853Y008519D03*
X007853Y008525D03*
X007853Y008531D03*
X007853Y008537D03*
X007853Y008543D03*
X007853Y008549D03*
X007853Y008555D03*
X007853Y008561D03*
X007853Y008567D03*
X007853Y008573D03*
X007853Y008579D03*
X007853Y008584D03*
X007853Y008590D03*
X007853Y008596D03*
X007853Y008602D03*
X007853Y008608D03*
X007853Y008614D03*
X007853Y008620D03*
X007853Y008626D03*
X007853Y008632D03*
X007853Y008638D03*
X007853Y008643D03*
X007853Y008649D03*
X007853Y008655D03*
X007853Y008661D03*
X007853Y008667D03*
X007853Y008673D03*
X007853Y008679D03*
X007853Y008685D03*
X007853Y008691D03*
X007853Y008697D03*
X007853Y008703D03*
X007853Y008708D03*
X007853Y008714D03*
X007853Y008720D03*
X007853Y008726D03*
X007853Y008732D03*
X008107Y008720D03*
X008107Y008714D03*
X007853Y008425D03*
X007853Y008419D03*
X007853Y008413D03*
X007853Y008407D03*
X007853Y008401D03*
X007853Y008395D03*
X007853Y008390D03*
X007853Y008384D03*
X007853Y008378D03*
X007853Y008372D03*
X007853Y008366D03*
X007853Y008360D03*
X007853Y008354D03*
X007853Y008348D03*
X007853Y008342D03*
X007853Y008336D03*
X007853Y008330D03*
X007853Y008325D03*
X007853Y008319D03*
X008603Y008319D03*
X008603Y008325D03*
X008603Y008330D03*
X008603Y008336D03*
X008603Y008342D03*
X008603Y008348D03*
X008603Y008354D03*
X008603Y008360D03*
X008603Y008366D03*
X008603Y008372D03*
X008603Y008378D03*
X008603Y008384D03*
X008603Y008390D03*
X008603Y008395D03*
X008603Y008401D03*
X008603Y008407D03*
X008603Y008413D03*
X008603Y008419D03*
X008603Y008425D03*
X008603Y008431D03*
X008603Y008437D03*
X008603Y008443D03*
X008603Y008449D03*
X008603Y008454D03*
X008603Y008460D03*
X008603Y008466D03*
X008603Y008472D03*
X008603Y008478D03*
X008603Y008484D03*
X008603Y008490D03*
X008603Y008496D03*
X008603Y008502D03*
X008603Y008508D03*
X008603Y008514D03*
X008603Y008519D03*
X008603Y008525D03*
X008603Y008531D03*
X008603Y008537D03*
X008603Y008543D03*
X008603Y008549D03*
X008603Y008555D03*
X008603Y008561D03*
X008603Y008567D03*
X008603Y008573D03*
X008603Y008579D03*
X008603Y008584D03*
X008603Y008590D03*
X008603Y008596D03*
X008721Y008732D03*
X008839Y008596D03*
X008839Y008590D03*
X008839Y008584D03*
X008839Y008579D03*
X008845Y008561D03*
X008845Y008555D03*
X008845Y008549D03*
X008845Y008543D03*
X008845Y008537D03*
X008845Y008531D03*
X008845Y008525D03*
X008845Y008519D03*
X008845Y008514D03*
X008845Y008508D03*
X008845Y008502D03*
X008845Y008496D03*
X008845Y008490D03*
X008845Y008484D03*
X008845Y008478D03*
X008845Y008472D03*
X008845Y008466D03*
X008845Y008460D03*
X008845Y008454D03*
X008845Y008449D03*
X008845Y008443D03*
X008845Y008437D03*
X008845Y008431D03*
X008845Y008425D03*
X008845Y008419D03*
X008845Y008413D03*
X008845Y008407D03*
X008845Y008401D03*
X008845Y008395D03*
X008845Y008390D03*
X008845Y008384D03*
X008845Y008378D03*
X008845Y008372D03*
X008845Y008366D03*
X008845Y008360D03*
X008845Y008354D03*
X008845Y008348D03*
X008845Y008342D03*
X008845Y008336D03*
X008845Y008330D03*
X008845Y008325D03*
X008845Y008319D03*
X008845Y008313D03*
X008845Y008307D03*
X008845Y008301D03*
X008845Y008295D03*
X008845Y008289D03*
X008845Y008283D03*
X008845Y008277D03*
X008845Y008271D03*
X008845Y008266D03*
X008845Y008260D03*
X008845Y008254D03*
X008845Y008248D03*
X008845Y008242D03*
X008845Y008236D03*
X008845Y008230D03*
X008845Y008224D03*
X008845Y008218D03*
X008845Y008212D03*
X008845Y008206D03*
X008845Y008201D03*
X008845Y008195D03*
X008845Y008189D03*
X008839Y008171D03*
X008839Y008165D03*
X008839Y008159D03*
X008839Y008153D03*
X008721Y008017D03*
X008603Y008153D03*
X008603Y008159D03*
X008603Y008165D03*
X008603Y008171D03*
X008603Y008177D03*
X008603Y008183D03*
X008603Y008189D03*
X008603Y008195D03*
X008603Y008201D03*
X008603Y008206D03*
X008603Y008212D03*
X008603Y008218D03*
X008603Y008224D03*
X008603Y008230D03*
X008603Y008236D03*
X008603Y008242D03*
X008603Y008248D03*
X008603Y008254D03*
X008603Y008260D03*
X008603Y008266D03*
X008603Y008271D03*
X008603Y008277D03*
X008603Y008283D03*
X008603Y008289D03*
X008603Y008295D03*
X008603Y008301D03*
X008603Y008307D03*
X008603Y008313D03*
X008691Y007734D03*
X009288Y007628D03*
X009288Y007622D03*
X009288Y007616D03*
X009288Y007610D03*
X009288Y007604D03*
X009288Y007598D03*
X009288Y007592D03*
X009288Y007586D03*
X009288Y007580D03*
X009288Y007575D03*
X009512Y008124D03*
X009512Y008130D03*
X009512Y008136D03*
X009512Y008141D03*
X009512Y008147D03*
X009512Y008153D03*
X009512Y008159D03*
X009512Y008165D03*
X009512Y008171D03*
X009512Y008177D03*
X009512Y008183D03*
X009512Y008189D03*
X009512Y008195D03*
X009512Y008201D03*
X009512Y008206D03*
X009512Y008212D03*
X009512Y008218D03*
X009512Y008224D03*
X009512Y008230D03*
X009512Y008236D03*
X009512Y008242D03*
X009512Y008248D03*
X009512Y008254D03*
X009512Y008260D03*
X009512Y008266D03*
X009512Y008271D03*
X009512Y008277D03*
X009512Y008283D03*
X009512Y008289D03*
X009512Y008295D03*
X009512Y008301D03*
X009512Y008307D03*
X009512Y008313D03*
X009512Y008319D03*
X009512Y008325D03*
X009512Y008330D03*
X009512Y008336D03*
X009512Y008342D03*
X009512Y008348D03*
X009512Y008354D03*
X009512Y008360D03*
X009512Y008366D03*
X009512Y008372D03*
X009512Y008378D03*
X009512Y008384D03*
X009512Y008390D03*
X009512Y008395D03*
X009512Y008401D03*
X009512Y008407D03*
X009512Y008413D03*
X009512Y008419D03*
X009512Y008425D03*
X009512Y008431D03*
X009512Y008437D03*
X009512Y008443D03*
X009512Y008449D03*
X009512Y008454D03*
X009512Y008460D03*
X009512Y008466D03*
X009512Y008472D03*
X009512Y008478D03*
X009512Y008484D03*
X009512Y008490D03*
X009512Y008496D03*
X009512Y008502D03*
X009512Y008508D03*
X009512Y008514D03*
X009512Y008519D03*
X009512Y008525D03*
X009512Y008531D03*
X009512Y008537D03*
X009512Y008543D03*
X009512Y008549D03*
X009512Y008555D03*
X009512Y008561D03*
X009512Y008567D03*
X009512Y008573D03*
X009512Y008579D03*
X009512Y008584D03*
X009512Y008590D03*
X009512Y008596D03*
X009512Y008602D03*
X009512Y008608D03*
X009512Y008614D03*
X009512Y008620D03*
X009512Y008626D03*
X009512Y008632D03*
X009512Y008638D03*
X009512Y008643D03*
X009512Y008649D03*
X009512Y008655D03*
X009512Y008661D03*
X009512Y008667D03*
X009512Y008673D03*
X009512Y008679D03*
X009512Y008685D03*
X009512Y008691D03*
X009512Y008697D03*
X009512Y008703D03*
X009512Y008708D03*
X009512Y008714D03*
X009512Y008720D03*
X009512Y008726D03*
X009512Y008732D03*
X005910Y008720D03*
X005910Y008714D03*
X005910Y008708D03*
X005656Y008708D03*
X005656Y008703D03*
X005656Y008697D03*
X005656Y008691D03*
X005656Y008685D03*
X005656Y008679D03*
X005656Y008673D03*
X005656Y008667D03*
X005656Y008661D03*
X005656Y008655D03*
X005656Y008649D03*
X005656Y008643D03*
X005656Y008638D03*
X005656Y008632D03*
X005656Y008626D03*
X005656Y008620D03*
X005656Y008614D03*
X005656Y008608D03*
X005656Y008602D03*
X005656Y008596D03*
X005656Y008590D03*
X005656Y008584D03*
X005656Y008579D03*
X005656Y008573D03*
X005656Y008567D03*
X005656Y008561D03*
X005656Y008555D03*
X005656Y008549D03*
X005656Y008543D03*
X005656Y008537D03*
X005656Y008531D03*
X005656Y008525D03*
X005656Y008519D03*
X005656Y008514D03*
X005656Y008508D03*
X005656Y008502D03*
X005656Y008496D03*
X005656Y008490D03*
X005656Y008484D03*
X005656Y008478D03*
X005656Y008472D03*
X005656Y008466D03*
X005656Y008460D03*
X005656Y008454D03*
X005656Y008449D03*
X005656Y008443D03*
X005656Y008437D03*
X005656Y008431D03*
X005656Y008425D03*
X005656Y008419D03*
X005656Y008413D03*
X005656Y008407D03*
X005656Y008401D03*
X005656Y008395D03*
X005656Y008390D03*
X005656Y008384D03*
X005656Y008378D03*
X005656Y008372D03*
X005656Y008366D03*
X005656Y008360D03*
X005656Y008354D03*
X005656Y008348D03*
X005656Y008342D03*
X005656Y008336D03*
X005656Y008330D03*
X005656Y008325D03*
X005656Y008319D03*
X005910Y008319D03*
X005910Y008325D03*
X005910Y008330D03*
X005910Y008336D03*
X005910Y008342D03*
X005910Y008348D03*
X005910Y008354D03*
X005910Y008360D03*
X005910Y008366D03*
X005910Y008372D03*
X005910Y008378D03*
X005910Y008384D03*
X005910Y008390D03*
X005910Y008395D03*
X005910Y008401D03*
X005910Y008407D03*
X005910Y008413D03*
X005910Y008419D03*
X005910Y008425D03*
X005910Y008431D03*
X005910Y008313D03*
X005910Y008307D03*
X005910Y008301D03*
X005910Y008295D03*
X005910Y008289D03*
X005910Y008283D03*
X005910Y008277D03*
X005910Y008271D03*
X005910Y008266D03*
X005910Y008260D03*
X005910Y008254D03*
X005910Y008248D03*
X005910Y008242D03*
X005910Y008236D03*
X005910Y008230D03*
X005910Y008224D03*
X005910Y008218D03*
X005910Y008212D03*
X005910Y008206D03*
X005910Y008201D03*
X005910Y008195D03*
X005910Y008189D03*
X005910Y008183D03*
X005910Y008177D03*
X005910Y008171D03*
X005910Y008165D03*
X005910Y008159D03*
X005910Y008153D03*
X005910Y008147D03*
X005910Y008141D03*
X005910Y008136D03*
X005910Y008130D03*
X005910Y008124D03*
X005910Y008118D03*
X005910Y008112D03*
X005910Y008106D03*
X005910Y008100D03*
X005910Y008094D03*
X005910Y008088D03*
X005910Y008082D03*
X005910Y008077D03*
X005910Y008071D03*
X005910Y008065D03*
X005910Y008059D03*
X005910Y008053D03*
X005910Y008047D03*
X005910Y008041D03*
X005910Y008035D03*
X005910Y008029D03*
X005910Y008023D03*
X005910Y008017D03*
X005656Y008029D03*
X005656Y008035D03*
X005656Y008041D03*
X005656Y008714D03*
X005656Y008720D03*
X005656Y008726D03*
X005656Y008732D03*
D18*
X005863Y008460D03*
X005863Y008454D03*
X005863Y008449D03*
X005703Y008301D03*
X005703Y008295D03*
X005703Y008289D03*
X006512Y007752D03*
X006459Y007391D03*
X007304Y007061D03*
X007900Y008289D03*
X007900Y008295D03*
X007900Y008301D03*
X008059Y008449D03*
X008059Y008454D03*
X008059Y008460D03*
X009406Y007752D03*
D19*
X009403Y007769D03*
X009491Y007675D03*
X008694Y007675D03*
X008694Y007669D03*
X008694Y007663D03*
X007867Y008112D03*
X007867Y008118D03*
X007867Y008124D03*
X008092Y008632D03*
X008092Y008638D03*
X008092Y008643D03*
X008629Y008632D03*
X007330Y008632D03*
X006515Y008632D03*
X006515Y008638D03*
X006515Y008626D03*
X006515Y008620D03*
X005895Y008626D03*
X005895Y008632D03*
X005895Y008638D03*
X005671Y008124D03*
X005671Y008118D03*
X005671Y008112D03*
X006604Y007675D03*
X006610Y007498D03*
X006515Y007061D03*
D20*
X011003Y008732D03*
X011547Y008342D03*
X011547Y007067D03*
D21*
X009406Y007067D03*
X009323Y007155D03*
X008691Y007628D03*
X007882Y007456D03*
X007876Y008159D03*
X007876Y008165D03*
X007876Y008171D03*
X008083Y008579D03*
X008083Y008584D03*
X008083Y008590D03*
X006429Y007155D03*
X005679Y008159D03*
X005679Y008165D03*
X005679Y008171D03*
X005886Y008579D03*
X005886Y008584D03*
X005886Y008590D03*
D22*
X005907Y008697D03*
X005907Y008703D03*
X006515Y008691D03*
X006515Y008685D03*
X006515Y008679D03*
X006515Y008673D03*
X007123Y008608D03*
X007123Y008602D03*
X007129Y008614D03*
X007348Y008614D03*
X007354Y008608D03*
X007354Y008602D03*
X007354Y008147D03*
X007354Y008141D03*
X007348Y008136D03*
X007236Y008017D03*
X007123Y008141D03*
X007123Y008147D03*
X007135Y007651D03*
X007129Y007645D03*
X007129Y007640D03*
X007135Y007179D03*
X006639Y007203D03*
X006633Y007191D03*
X006633Y007185D03*
X006403Y007179D03*
X006403Y007173D03*
X006397Y007332D03*
X006397Y007338D03*
X006403Y007344D03*
X006627Y007521D03*
X006627Y007645D03*
X006621Y007651D03*
X006621Y007657D03*
X006397Y007640D03*
X006397Y007634D03*
X006391Y007622D03*
X006391Y007616D03*
X006391Y007610D03*
X005659Y008047D03*
X005659Y008053D03*
X005659Y008059D03*
X007832Y007090D03*
X007832Y007084D03*
X007826Y007073D03*
X007826Y007067D03*
X007838Y007102D03*
X007838Y007108D03*
X007844Y007120D03*
X007844Y007126D03*
X007850Y007138D03*
X007850Y007143D03*
X007856Y007161D03*
X007862Y007179D03*
X007867Y007197D03*
X007873Y007214D03*
X007879Y007232D03*
X007856Y007480D03*
X007850Y007492D03*
X007850Y007640D03*
X007856Y007651D03*
X007856Y008047D03*
X007856Y008053D03*
X007856Y008059D03*
X008606Y008141D03*
X008606Y008147D03*
X008612Y008136D03*
X008836Y008141D03*
X008836Y008147D03*
X008694Y007728D03*
X008694Y007722D03*
X008694Y007716D03*
X009291Y007640D03*
X009291Y007634D03*
X009297Y007645D03*
X009297Y007651D03*
X009509Y007651D03*
X009509Y007657D03*
X009515Y007645D03*
X009515Y007640D03*
X009515Y007634D03*
X009515Y007197D03*
X009515Y007191D03*
X009515Y007185D03*
X009509Y007179D03*
X009509Y007173D03*
X009297Y007179D03*
X009297Y007185D03*
X009291Y007191D03*
X009291Y007197D03*
X008836Y008602D03*
X008836Y008608D03*
X008830Y008614D03*
X008612Y008614D03*
X008606Y008608D03*
X008606Y008602D03*
X008104Y008697D03*
X008104Y008703D03*
X008104Y008708D03*
D23*
X009403Y007746D03*
X010779Y007970D03*
X010779Y007976D03*
X010779Y007982D03*
X010779Y007988D03*
X010779Y007994D03*
X010779Y008000D03*
X010779Y008006D03*
X010779Y008012D03*
X010779Y008017D03*
X012308Y008017D03*
X012308Y008012D03*
X012308Y008006D03*
X012308Y008000D03*
X012308Y007994D03*
X012308Y007988D03*
X012308Y007982D03*
X012308Y007976D03*
X012308Y007970D03*
X012308Y007964D03*
X012308Y007958D03*
X012308Y008023D03*
X012308Y008029D03*
X007295Y007067D03*
D24*
X006512Y007067D03*
X006512Y007764D03*
X007239Y008029D03*
X007882Y008195D03*
X007882Y008201D03*
X007882Y008206D03*
X008077Y008549D03*
X008077Y008555D03*
X008077Y008561D03*
X008721Y008720D03*
X008721Y008029D03*
X008691Y007604D03*
X008691Y007598D03*
X007239Y008720D03*
X006518Y008561D03*
X005880Y008555D03*
X005880Y008549D03*
X005685Y008201D03*
X005685Y008195D03*
D25*
X011000Y008466D03*
X011000Y008472D03*
X011000Y008478D03*
X011000Y008484D03*
X011000Y008490D03*
X011000Y008496D03*
X011000Y008502D03*
X011000Y008508D03*
X011000Y008514D03*
X011000Y008519D03*
X011000Y008525D03*
X011000Y008531D03*
X011000Y008537D03*
X011000Y008543D03*
X011000Y008549D03*
X011000Y008555D03*
X011000Y008561D03*
X011000Y008567D03*
X011000Y008573D03*
X011000Y008579D03*
X011000Y008584D03*
X011000Y008590D03*
X011000Y008596D03*
X011000Y008602D03*
X011000Y008608D03*
X011000Y008614D03*
X011000Y008620D03*
X011000Y008626D03*
X011000Y008632D03*
X011000Y008638D03*
X011000Y008643D03*
X011000Y008649D03*
X011000Y008655D03*
X011000Y008661D03*
X011000Y008667D03*
X011000Y008673D03*
X011000Y008679D03*
X011000Y008685D03*
X011000Y008691D03*
X011000Y008697D03*
X011000Y008703D03*
X011000Y008708D03*
X011000Y008714D03*
X011000Y008720D03*
X011000Y008726D03*
X011544Y008336D03*
X011544Y008330D03*
X011544Y008325D03*
X011544Y008319D03*
X011544Y008313D03*
X011544Y008307D03*
X011544Y008301D03*
X011544Y008295D03*
X011544Y008289D03*
X011544Y008283D03*
X011544Y008277D03*
X011544Y008271D03*
X011544Y008266D03*
X011544Y008260D03*
X011544Y008254D03*
X011544Y008248D03*
X011544Y008242D03*
X011544Y008236D03*
X011544Y008230D03*
X011544Y008224D03*
X011544Y008218D03*
X011544Y008212D03*
X011544Y008206D03*
X011544Y008201D03*
X011544Y008195D03*
X011544Y008189D03*
X011544Y008183D03*
X011544Y008177D03*
X011544Y008171D03*
X011544Y008165D03*
X011544Y008159D03*
X011544Y008153D03*
X011544Y008147D03*
X011544Y008141D03*
X011544Y008136D03*
X011544Y008130D03*
X011544Y008124D03*
X011544Y008118D03*
X011544Y007870D03*
X011544Y007864D03*
X011544Y007858D03*
X011544Y007852D03*
X011544Y007846D03*
X011544Y007840D03*
X011544Y007834D03*
X011544Y007829D03*
X011544Y007823D03*
X011544Y007817D03*
X011544Y007811D03*
X011544Y007805D03*
X011544Y007799D03*
X011544Y007793D03*
X011544Y007787D03*
X011544Y007781D03*
X011544Y007775D03*
X011544Y007769D03*
X011544Y007764D03*
X011544Y007758D03*
X011544Y007752D03*
X011544Y007746D03*
X011544Y007740D03*
X011544Y007734D03*
X011544Y007728D03*
X011544Y007722D03*
X011544Y007716D03*
X011544Y007710D03*
X011544Y007704D03*
X011544Y007699D03*
X011544Y007693D03*
X011544Y007687D03*
X011544Y007681D03*
X011544Y007675D03*
X011544Y007669D03*
X011544Y007663D03*
X011544Y007657D03*
X011544Y007651D03*
X011544Y007645D03*
X011544Y007640D03*
X011544Y007634D03*
X011544Y007628D03*
X011544Y007622D03*
X011544Y007616D03*
X011544Y007610D03*
X011544Y007604D03*
X011544Y007598D03*
X011544Y007592D03*
X011544Y007586D03*
X011544Y007580D03*
X011544Y007575D03*
X011544Y007569D03*
X011544Y007563D03*
X011544Y007557D03*
X011544Y007551D03*
X011544Y007545D03*
X011544Y007539D03*
X011544Y007533D03*
X011544Y007185D03*
X011544Y007179D03*
X011544Y007173D03*
X011544Y007167D03*
X011544Y007161D03*
X011544Y007155D03*
X011544Y007149D03*
X011544Y007143D03*
X011544Y007138D03*
X011544Y007132D03*
X011544Y007126D03*
X011544Y007120D03*
X011544Y007114D03*
X011544Y007108D03*
X011544Y007102D03*
X011544Y007096D03*
X011544Y007090D03*
X011544Y007084D03*
X011544Y007079D03*
X011544Y007073D03*
D26*
X011550Y007191D03*
X011550Y007197D03*
X011550Y007203D03*
X011550Y007208D03*
X011550Y007214D03*
X011550Y007220D03*
X011550Y007226D03*
X011550Y007232D03*
X011550Y007238D03*
X011550Y007244D03*
X011550Y007250D03*
X011550Y007256D03*
X011550Y007262D03*
X011550Y007267D03*
X011550Y007273D03*
X011550Y007279D03*
X011550Y007285D03*
X011550Y007291D03*
X011550Y007297D03*
X011550Y007303D03*
X011550Y007309D03*
X011550Y007315D03*
X011550Y007321D03*
X011550Y007327D03*
X011550Y007332D03*
X011550Y007338D03*
X011550Y007344D03*
X011550Y007350D03*
X011550Y007356D03*
X011550Y007362D03*
X011550Y007368D03*
X011550Y007374D03*
X011550Y007380D03*
X011550Y007386D03*
X011550Y007391D03*
X011550Y007397D03*
X011550Y007403D03*
X011550Y007409D03*
X011550Y007415D03*
X011550Y007421D03*
X011550Y007427D03*
X011550Y007433D03*
X011550Y007439D03*
X011550Y007445D03*
X011550Y007451D03*
X011550Y007456D03*
X011550Y007462D03*
X011550Y007468D03*
X011550Y007474D03*
X011550Y007480D03*
X011550Y007486D03*
X011550Y007492D03*
X011550Y007498D03*
X011550Y007504D03*
X011550Y007510D03*
X011550Y007516D03*
X011550Y007521D03*
X011550Y007527D03*
X011904Y007527D03*
X011904Y007521D03*
X011904Y007516D03*
X011904Y007510D03*
X011904Y007504D03*
X011904Y007498D03*
X011904Y007492D03*
X011904Y007486D03*
X011904Y007480D03*
X011904Y007474D03*
X011904Y007468D03*
X011904Y007462D03*
X011904Y007456D03*
X011904Y007451D03*
X011904Y007445D03*
X011904Y007439D03*
X011904Y007433D03*
X011904Y007427D03*
X011904Y007421D03*
X011904Y007415D03*
X011904Y007409D03*
X011904Y007403D03*
X011904Y007397D03*
X011904Y007391D03*
X011904Y007386D03*
X011904Y007380D03*
X011904Y007374D03*
X011904Y007368D03*
X011904Y007362D03*
X011904Y007356D03*
X011904Y007350D03*
X011904Y007344D03*
X011904Y007338D03*
X011904Y007332D03*
X011904Y007327D03*
X011904Y007321D03*
X011904Y007315D03*
X011904Y007309D03*
X011904Y007303D03*
X011904Y007297D03*
X011904Y007291D03*
X011904Y007285D03*
X011904Y007279D03*
X011904Y007273D03*
X011904Y007267D03*
X011904Y007262D03*
X011904Y007256D03*
X011904Y007250D03*
X011904Y007244D03*
X011904Y007238D03*
X011904Y007232D03*
X011904Y007226D03*
X011904Y007220D03*
X011904Y007214D03*
X011904Y007208D03*
X011904Y007203D03*
X011904Y007197D03*
X011904Y007191D03*
X011189Y007191D03*
X011189Y007197D03*
X011189Y007203D03*
X011189Y007208D03*
X011189Y007214D03*
X011189Y007220D03*
X011189Y007226D03*
X011189Y007232D03*
X011189Y007238D03*
X011189Y007244D03*
X011189Y007250D03*
X011189Y007256D03*
X011189Y007262D03*
X011189Y007267D03*
X011189Y007273D03*
X011189Y007279D03*
X011189Y007285D03*
X011189Y007291D03*
X011189Y007297D03*
X011189Y007303D03*
X011189Y007309D03*
X011189Y007315D03*
X011189Y007321D03*
X011189Y007327D03*
X011189Y007332D03*
X011189Y007338D03*
X011189Y007344D03*
X011189Y007350D03*
X011189Y007356D03*
X011189Y007362D03*
X011189Y007368D03*
X011189Y007374D03*
X011189Y007380D03*
X011189Y007386D03*
X011189Y007391D03*
X011189Y007397D03*
X011189Y007403D03*
X011189Y007409D03*
X011189Y007415D03*
X011189Y007421D03*
X011189Y007427D03*
X011189Y007433D03*
X011189Y007439D03*
X011189Y007445D03*
X011189Y007451D03*
X011189Y007456D03*
X011189Y007462D03*
X011189Y007468D03*
X011189Y007474D03*
X011189Y007480D03*
X011189Y007486D03*
X011189Y007492D03*
X011189Y007498D03*
X011189Y007504D03*
X011189Y007510D03*
X011189Y007516D03*
X011189Y007521D03*
X011189Y007527D03*
X009406Y007073D03*
X008691Y007575D03*
X007888Y008224D03*
X007888Y008230D03*
X007888Y008236D03*
X008071Y008514D03*
X008071Y008519D03*
X008071Y008525D03*
X007315Y007775D03*
X006441Y007380D03*
X005691Y008224D03*
X005691Y008230D03*
X005691Y008236D03*
X005874Y008514D03*
X005874Y008519D03*
X005874Y008525D03*
D27*
X005801Y008425D03*
X005801Y008419D03*
X005795Y008407D03*
X005795Y008401D03*
X005789Y008390D03*
X005783Y008378D03*
X005783Y008372D03*
X005777Y008360D03*
X005777Y008354D03*
X005771Y008342D03*
X005771Y008336D03*
X005765Y008325D03*
X005653Y008023D03*
X005653Y008017D03*
X006367Y008035D03*
X006373Y008059D03*
X006373Y008065D03*
X006379Y008088D03*
X006379Y008094D03*
X006385Y008112D03*
X006385Y008118D03*
X006385Y008124D03*
X006391Y008141D03*
X006391Y008147D03*
X006391Y008153D03*
X006397Y008165D03*
X006421Y008283D03*
X006421Y008289D03*
X006421Y008295D03*
X006427Y008313D03*
X006427Y008319D03*
X006432Y008342D03*
X006438Y008372D03*
X006598Y008348D03*
X006604Y008319D03*
X006610Y008295D03*
X006610Y008289D03*
X006633Y008165D03*
X006639Y008159D03*
X006639Y008153D03*
X006639Y008147D03*
X006639Y008141D03*
X006645Y008130D03*
X006645Y008124D03*
X006645Y008118D03*
X006651Y008100D03*
X006651Y008094D03*
X006651Y008088D03*
X006657Y008071D03*
X006657Y008065D03*
X006663Y008035D03*
X007117Y008177D03*
X007117Y008573D03*
X006515Y008697D03*
X006515Y008703D03*
X006515Y008708D03*
X006515Y008714D03*
X005913Y008726D03*
X005913Y008732D03*
X006391Y007569D03*
X006391Y007285D03*
X006391Y007279D03*
X006391Y007250D03*
X006391Y007244D03*
X006391Y007238D03*
X006391Y007232D03*
X007123Y007232D03*
X007123Y007238D03*
X007123Y007244D03*
X007123Y007598D03*
X007123Y007604D03*
X007844Y007610D03*
X007844Y007521D03*
X007921Y007356D03*
X007915Y007344D03*
X007915Y007338D03*
X007909Y007321D03*
X007903Y007303D03*
X007897Y007285D03*
X007891Y007267D03*
X007885Y007250D03*
X008553Y007114D03*
X008553Y007108D03*
X008558Y007132D03*
X008558Y007138D03*
X008558Y007143D03*
X008564Y007161D03*
X008564Y007167D03*
X008564Y007173D03*
X008570Y007185D03*
X008570Y007191D03*
X008570Y007197D03*
X008570Y007203D03*
X008594Y007315D03*
X008600Y007327D03*
X008600Y007332D03*
X008600Y007338D03*
X008606Y007362D03*
X008606Y007368D03*
X008612Y007391D03*
X008777Y007386D03*
X008783Y007356D03*
X008789Y007332D03*
X008789Y007327D03*
X008812Y007208D03*
X008812Y007203D03*
X008818Y007191D03*
X008818Y007185D03*
X008818Y007179D03*
X008824Y007161D03*
X008824Y007155D03*
X008824Y007149D03*
X008830Y007132D03*
X008830Y007126D03*
X008836Y007102D03*
X008836Y007096D03*
X008842Y007073D03*
X008547Y007079D03*
X008547Y007084D03*
X009291Y007262D03*
X009291Y007569D03*
X009403Y007775D03*
X008842Y008177D03*
X008842Y008183D03*
X008842Y008567D03*
X008842Y008573D03*
X008110Y008726D03*
X008110Y008732D03*
X007997Y008425D03*
X007997Y008419D03*
X007991Y008413D03*
X007991Y008407D03*
X007986Y008395D03*
X007986Y008390D03*
X007980Y008378D03*
X007980Y008372D03*
X007974Y008360D03*
X007974Y008354D03*
X007968Y008342D03*
X007962Y008330D03*
X007962Y008325D03*
X007850Y008023D03*
X007850Y008017D03*
X008694Y007752D03*
X008694Y007746D03*
X008694Y007740D03*
D28*
X008721Y008053D03*
X008721Y008697D03*
X007239Y008697D03*
X007239Y008053D03*
X006512Y007740D03*
X006524Y007439D03*
X006506Y007427D03*
X006500Y007421D03*
X006512Y007090D03*
X007286Y007073D03*
X009406Y007096D03*
X010788Y007929D03*
X010788Y007935D03*
X010788Y008059D03*
X012300Y008059D03*
X012300Y008065D03*
X012300Y007929D03*
X012300Y007923D03*
D29*
X008721Y008035D03*
X008042Y007775D03*
X007894Y008260D03*
X007894Y008266D03*
X007894Y008271D03*
X008065Y008484D03*
X008065Y008490D03*
X008721Y008714D03*
X007239Y008714D03*
X007156Y008407D03*
X007156Y008401D03*
X007156Y008395D03*
X007156Y008390D03*
X007156Y008384D03*
X007156Y008378D03*
X007156Y008372D03*
X007156Y008366D03*
X007156Y008360D03*
X007156Y008354D03*
X007156Y008348D03*
X007156Y008342D03*
X007156Y008336D03*
X007156Y008330D03*
X007156Y008325D03*
X007239Y008035D03*
X006512Y007758D03*
X006512Y007073D03*
X005697Y008260D03*
X005697Y008266D03*
X005868Y008478D03*
X005868Y008484D03*
X005868Y008490D03*
D30*
X005866Y008472D03*
X005866Y008466D03*
X005700Y008283D03*
X005700Y008277D03*
X005700Y008271D03*
X006568Y007468D03*
X007897Y008277D03*
X007897Y008283D03*
X008062Y008466D03*
X008062Y008472D03*
X008062Y008478D03*
X009409Y007079D03*
D31*
X009406Y007102D03*
X008721Y008059D03*
X008721Y008691D03*
X007239Y008691D03*
X007239Y008059D03*
X007280Y007758D03*
X007280Y007079D03*
X006512Y007734D03*
X010794Y007917D03*
X010794Y008077D03*
X012294Y008077D03*
X012294Y007911D03*
D32*
X008056Y008437D03*
X008056Y008443D03*
X007903Y008313D03*
X007903Y008307D03*
X007236Y008041D03*
X006556Y007462D03*
X006468Y007397D03*
X006515Y007079D03*
X005706Y008307D03*
X005706Y008313D03*
X005860Y008437D03*
X005860Y008443D03*
D33*
X006548Y007456D03*
X007298Y007769D03*
X007239Y008708D03*
X008721Y008708D03*
X008721Y008041D03*
X009406Y007084D03*
D34*
X009406Y007108D03*
X008721Y008065D03*
X008006Y007758D03*
X008006Y007386D03*
X008006Y007380D03*
X008006Y007374D03*
X007274Y007084D03*
X006512Y007728D03*
X007239Y008065D03*
X007239Y008685D03*
X008721Y008685D03*
X010800Y008088D03*
X010800Y007905D03*
X012288Y007899D03*
X012288Y008088D03*
D35*
X012305Y008047D03*
X012305Y008041D03*
X012305Y008035D03*
X012305Y007953D03*
X012305Y007947D03*
X010782Y007953D03*
X010782Y007958D03*
X010782Y007964D03*
X010782Y008023D03*
X010782Y008029D03*
X010782Y008035D03*
X009406Y007090D03*
X008721Y008047D03*
X008024Y007769D03*
X007239Y008047D03*
X007239Y008703D03*
X006512Y007746D03*
X006477Y007403D03*
X006512Y007084D03*
X008721Y008703D03*
D36*
X008003Y007752D03*
X008003Y007368D03*
X008003Y007362D03*
X007271Y007090D03*
X007271Y007746D03*
X006515Y007102D03*
X009403Y007722D03*
X010803Y007899D03*
X012285Y008094D03*
D37*
X012279Y008100D03*
X012279Y007888D03*
X010808Y008100D03*
X009403Y007710D03*
X009403Y007120D03*
X007997Y007397D03*
X007997Y007746D03*
X007265Y007734D03*
X007265Y007096D03*
X006515Y007114D03*
X006509Y007716D03*
D38*
X006515Y007096D03*
X007277Y007752D03*
X009403Y007728D03*
X010797Y007911D03*
X010797Y008082D03*
X010797Y007527D03*
X010797Y007521D03*
X010797Y007516D03*
X010797Y007510D03*
X010797Y007504D03*
X010797Y007498D03*
X010797Y007492D03*
X010797Y007486D03*
X010797Y007480D03*
X010797Y007474D03*
X010797Y007468D03*
X010797Y007462D03*
X010797Y007456D03*
X010797Y007451D03*
X010797Y007445D03*
X010797Y007439D03*
X010797Y007433D03*
X010797Y007427D03*
X010797Y007421D03*
X010797Y007415D03*
X010797Y007409D03*
X010797Y007403D03*
X010797Y007397D03*
X010797Y007391D03*
X010797Y007386D03*
X010797Y007380D03*
X010797Y007374D03*
X010797Y007368D03*
X010797Y007362D03*
X010797Y007356D03*
X010797Y007350D03*
X010797Y007344D03*
X010797Y007338D03*
X010797Y007332D03*
X010797Y007327D03*
X010797Y007321D03*
X010797Y007315D03*
X010797Y007309D03*
X010797Y007303D03*
X010797Y007297D03*
X010797Y007291D03*
X010797Y007285D03*
X010797Y007279D03*
X010797Y007273D03*
X010797Y007267D03*
X010797Y007262D03*
X010797Y007256D03*
X010797Y007250D03*
X010797Y007244D03*
X010797Y007238D03*
X010797Y007232D03*
X010797Y007226D03*
X010797Y007220D03*
X010797Y007214D03*
X010797Y007208D03*
X010797Y007203D03*
X010797Y007197D03*
X010797Y007191D03*
X012291Y007905D03*
X012291Y008082D03*
D39*
X010811Y007888D03*
X009406Y007126D03*
X008721Y008077D03*
X008721Y008667D03*
X008721Y008673D03*
X007994Y007740D03*
X007262Y007728D03*
X007239Y008077D03*
X007239Y008673D03*
X006512Y007710D03*
X007262Y007102D03*
D40*
X007259Y007108D03*
X007991Y007403D03*
X007991Y007734D03*
X007259Y007722D03*
X007236Y008082D03*
X007236Y008667D03*
X008724Y008082D03*
X009403Y007704D03*
X010814Y008106D03*
X012273Y008106D03*
X006515Y007120D03*
D41*
X006512Y007108D03*
X006512Y007722D03*
X007268Y007740D03*
X007239Y008071D03*
X007239Y008679D03*
X008721Y008679D03*
X008721Y008071D03*
X009406Y007716D03*
X009406Y007114D03*
X008000Y007391D03*
X010805Y007893D03*
X010805Y008094D03*
X012282Y007893D03*
D42*
X012270Y007882D03*
X010817Y007882D03*
X009406Y007699D03*
X009406Y007138D03*
X009406Y007132D03*
X008691Y007309D03*
X007989Y007409D03*
X007989Y007728D03*
X007256Y007716D03*
X007239Y008088D03*
X007239Y008661D03*
X006512Y007704D03*
X007256Y007120D03*
X007256Y007114D03*
X008721Y008088D03*
X008721Y008661D03*
D43*
X009403Y007693D03*
X009403Y007687D03*
X008694Y007303D03*
X008694Y007297D03*
X008694Y007291D03*
X007986Y007415D03*
X007986Y007722D03*
X007253Y007710D03*
X007253Y007126D03*
X006515Y007126D03*
X006515Y007132D03*
X006509Y007699D03*
X006515Y008248D03*
X006515Y008254D03*
X006515Y008260D03*
X006515Y008266D03*
X012267Y008112D03*
D44*
X010823Y008112D03*
X009412Y008118D03*
X008721Y008100D03*
X008721Y008094D03*
X008721Y008649D03*
X008721Y008655D03*
X007983Y007716D03*
X007983Y007421D03*
X007250Y007699D03*
X007250Y007704D03*
X007239Y008094D03*
X007239Y008100D03*
X007239Y008649D03*
X007239Y008655D03*
X006512Y007693D03*
X007250Y007138D03*
X007250Y007132D03*
X008691Y007285D03*
X009406Y007149D03*
X009406Y007143D03*
D45*
X009403Y007681D03*
X009409Y008017D03*
X009409Y008023D03*
X009409Y008029D03*
X009409Y008035D03*
X009409Y008041D03*
X009409Y008047D03*
X009409Y008053D03*
X009409Y008059D03*
X009409Y008065D03*
X009409Y008071D03*
X009409Y008077D03*
X009409Y008082D03*
X009409Y008088D03*
X009409Y008094D03*
X009409Y008100D03*
X009409Y008106D03*
X009409Y008112D03*
X008694Y007279D03*
X008694Y007273D03*
X008694Y007267D03*
X007980Y007427D03*
X007980Y007433D03*
X007980Y007704D03*
X007980Y007710D03*
X007247Y007693D03*
X007247Y007687D03*
X007247Y007149D03*
X007247Y007143D03*
X006515Y007138D03*
X006509Y007687D03*
X006515Y008218D03*
X006515Y008224D03*
X006515Y008230D03*
X006515Y008236D03*
X006515Y008242D03*
X010826Y007876D03*
X012261Y007876D03*
D46*
X008721Y008106D03*
X008721Y008112D03*
X008721Y008638D03*
X008721Y008643D03*
X007977Y007699D03*
X007977Y007439D03*
X007244Y007681D03*
X007239Y008106D03*
X007239Y008112D03*
X007239Y008638D03*
X007239Y008643D03*
X006512Y007681D03*
X006518Y007149D03*
X006518Y007143D03*
X008691Y007256D03*
X008691Y007262D03*
D47*
X008694Y007634D03*
X008694Y007640D03*
X008694Y007645D03*
X007879Y007675D03*
X007873Y008147D03*
X007873Y008153D03*
X008086Y008596D03*
X008086Y008602D03*
X008086Y008608D03*
X007159Y007675D03*
X006421Y007675D03*
X006427Y007368D03*
X005677Y008141D03*
X005677Y008147D03*
X005677Y008153D03*
X005889Y008596D03*
X005889Y008602D03*
X005889Y008608D03*
X006515Y008608D03*
X006515Y008602D03*
X006515Y008596D03*
X006515Y008590D03*
X009486Y007155D03*
D48*
X009403Y007764D03*
X008694Y007622D03*
X008694Y007616D03*
X008694Y007610D03*
X007879Y008177D03*
X007879Y008183D03*
X007879Y008189D03*
X008080Y008567D03*
X008080Y008573D03*
X006592Y007486D03*
X006432Y007374D03*
X006604Y007155D03*
X007165Y007155D03*
X005682Y008177D03*
X005682Y008183D03*
X005682Y008189D03*
X005883Y008561D03*
X005883Y008567D03*
X005883Y008573D03*
X006515Y008573D03*
X006515Y008579D03*
X006515Y008584D03*
X006515Y008567D03*
D49*
X006515Y008643D03*
X006515Y008649D03*
X006515Y008655D03*
X006515Y008661D03*
X005901Y008661D03*
X005901Y008667D03*
X005901Y008673D03*
X005665Y008088D03*
X005665Y008082D03*
X005665Y008077D03*
X006403Y007657D03*
X006409Y007663D03*
X006616Y007504D03*
X006621Y007167D03*
X006415Y007161D03*
X007141Y007663D03*
X007147Y007669D03*
X007135Y008124D03*
X007862Y008088D03*
X007862Y008082D03*
X007862Y007663D03*
X008694Y007687D03*
X008694Y007693D03*
X008694Y007699D03*
X009303Y007663D03*
X009308Y007669D03*
X009303Y007167D03*
X008098Y008661D03*
X008098Y008667D03*
X008098Y008673D03*
D50*
X008101Y008679D03*
X008101Y008685D03*
X008101Y008691D03*
X008615Y008620D03*
X008827Y008620D03*
X008833Y008136D03*
X008827Y008130D03*
X008615Y008130D03*
X008691Y007710D03*
X008691Y007704D03*
X009300Y007657D03*
X009506Y007663D03*
X009506Y007167D03*
X009300Y007173D03*
X007865Y007468D03*
X007859Y007474D03*
X007859Y007657D03*
X007859Y008065D03*
X007859Y008071D03*
X007859Y008077D03*
X007345Y008130D03*
X007132Y008130D03*
X007126Y008136D03*
X007132Y008620D03*
X007345Y008620D03*
X006518Y008667D03*
X005904Y008679D03*
X005904Y008685D03*
X005904Y008691D03*
X005662Y008071D03*
X005662Y008065D03*
X006400Y007651D03*
X006400Y007645D03*
X006618Y007663D03*
X006624Y007516D03*
X006618Y007510D03*
X006406Y007350D03*
X006412Y007167D03*
X006630Y007173D03*
X006630Y007179D03*
X007138Y007173D03*
X007144Y007167D03*
X007138Y007657D03*
D51*
X006515Y007433D03*
X008015Y007764D03*
X009403Y007734D03*
X010791Y007923D03*
X010791Y008065D03*
X010791Y008071D03*
X012297Y008071D03*
X012297Y007917D03*
X012297Y007527D03*
X012297Y007521D03*
X012297Y007516D03*
X012297Y007510D03*
X012297Y007504D03*
X012297Y007498D03*
X012297Y007492D03*
X012297Y007486D03*
X012297Y007480D03*
X012297Y007474D03*
X012297Y007468D03*
X012297Y007462D03*
X012297Y007456D03*
X012297Y007451D03*
X012297Y007445D03*
X012297Y007439D03*
X012297Y007433D03*
X012297Y007427D03*
X012297Y007421D03*
X012297Y007415D03*
X012297Y007409D03*
X012297Y007403D03*
X012297Y007397D03*
X012297Y007391D03*
X012297Y007386D03*
X012297Y007380D03*
X012297Y007374D03*
X012297Y007368D03*
X012297Y007362D03*
X012297Y007356D03*
X012297Y007350D03*
X012297Y007344D03*
X012297Y007338D03*
X012297Y007332D03*
X012297Y007327D03*
X012297Y007321D03*
X012297Y007315D03*
X012297Y007309D03*
X012297Y007303D03*
X012297Y007297D03*
X012297Y007291D03*
X012297Y007285D03*
X012297Y007279D03*
X012297Y007273D03*
X012297Y007267D03*
X012297Y007262D03*
X012297Y007256D03*
X012297Y007250D03*
X012297Y007244D03*
X012297Y007238D03*
X012297Y007232D03*
X012297Y007226D03*
X012297Y007220D03*
X012297Y007214D03*
X012297Y007208D03*
X012297Y007203D03*
X012297Y007197D03*
X012297Y007191D03*
D52*
X008694Y007214D03*
X008694Y007220D03*
X008694Y007226D03*
X006515Y008171D03*
X006515Y008177D03*
X006515Y008183D03*
X006515Y008189D03*
D53*
X008691Y007232D03*
D54*
X008694Y007238D03*
X008694Y007244D03*
X008694Y007250D03*
X007974Y007445D03*
X007974Y007451D03*
X007974Y007681D03*
X007974Y007687D03*
X007974Y007693D03*
X006515Y008195D03*
X006515Y008201D03*
X006515Y008206D03*
X006515Y008212D03*
D55*
X006518Y008614D03*
X005892Y008614D03*
X005892Y008620D03*
X005674Y008136D03*
X005674Y008130D03*
X006512Y007769D03*
X006601Y007492D03*
X006418Y007362D03*
X007239Y008023D03*
X007333Y008118D03*
X007144Y008118D03*
X007144Y008632D03*
X007239Y008726D03*
X007870Y008141D03*
X007870Y008136D03*
X007870Y008130D03*
X008089Y008614D03*
X008089Y008620D03*
X008089Y008626D03*
X008626Y008118D03*
X008721Y008023D03*
X008815Y008118D03*
X008815Y008632D03*
X008721Y008726D03*
X008691Y007657D03*
X008691Y007651D03*
X009317Y007675D03*
D56*
X009403Y007758D03*
X008694Y007569D03*
X008694Y007563D03*
X007891Y008242D03*
X007891Y008248D03*
X007891Y008254D03*
X008068Y008496D03*
X008068Y008502D03*
X008068Y008508D03*
X006574Y007474D03*
X006450Y007386D03*
X005694Y008242D03*
X005694Y008248D03*
X005694Y008254D03*
X005871Y008496D03*
X005871Y008502D03*
X005871Y008508D03*
X006515Y008519D03*
X006515Y008525D03*
X006515Y008531D03*
D57*
X007289Y007764D03*
X006539Y007451D03*
X006533Y007445D03*
X006491Y007415D03*
X006486Y007409D03*
X009403Y007740D03*
X010785Y007941D03*
X010785Y007947D03*
X010785Y008041D03*
X010785Y008047D03*
X010785Y008053D03*
X012303Y008053D03*
X012303Y007941D03*
X012303Y007935D03*
D58*
X010342Y007456D03*
D59*
X010339Y007462D03*
X010339Y007468D03*
X010339Y007474D03*
X010339Y007480D03*
X010339Y007486D03*
X010339Y007492D03*
X010339Y007498D03*
X010339Y007504D03*
X010339Y007510D03*
X010339Y007516D03*
X010339Y007521D03*
X010339Y007527D03*
X010339Y007533D03*
X010339Y007539D03*
X010339Y007545D03*
X010339Y007551D03*
X010339Y007557D03*
X010339Y007563D03*
X010339Y007569D03*
X010339Y007575D03*
X010339Y007580D03*
X010339Y007586D03*
X010339Y007592D03*
X010339Y007598D03*
X010339Y007604D03*
X010339Y007610D03*
X010339Y007616D03*
X010339Y007622D03*
X010339Y007628D03*
X010339Y007634D03*
X010339Y007640D03*
X010339Y007645D03*
X010339Y007651D03*
X010339Y007657D03*
X010339Y007663D03*
X010339Y007669D03*
X010339Y007675D03*
X010339Y007681D03*
X010339Y007687D03*
X010339Y007693D03*
X010339Y007699D03*
X010339Y007704D03*
X010339Y007710D03*
X010339Y007716D03*
X010339Y007722D03*
X010339Y007728D03*
X010339Y007734D03*
X010339Y007740D03*
X010339Y007746D03*
X010339Y007752D03*
X010339Y007758D03*
X010339Y007764D03*
X010339Y007769D03*
X010339Y007775D03*
X010339Y007781D03*
X010339Y007787D03*
X010339Y007793D03*
X010339Y007799D03*
X010339Y007805D03*
X010339Y007811D03*
X010339Y007817D03*
X010339Y007823D03*
X010339Y007829D03*
X010339Y007834D03*
X010339Y007840D03*
X010339Y007846D03*
X010339Y007852D03*
X010339Y007858D03*
X010339Y007864D03*
X010339Y007870D03*
X010339Y007876D03*
X010339Y007882D03*
X010339Y007888D03*
X010339Y007893D03*
X010339Y007899D03*
X010339Y007905D03*
X010339Y007911D03*
X010339Y007917D03*
X010339Y007923D03*
X010339Y007929D03*
X010339Y007935D03*
X010339Y007941D03*
X010339Y007947D03*
X010339Y007953D03*
X010339Y007958D03*
X010339Y007964D03*
X010339Y007970D03*
X010339Y007976D03*
X010339Y007982D03*
X010339Y007988D03*
X010339Y007994D03*
X010339Y008000D03*
X010339Y008006D03*
X010339Y008012D03*
X010339Y008017D03*
X010339Y008023D03*
X010339Y008029D03*
X010339Y008035D03*
X010339Y008041D03*
X010339Y008047D03*
X010339Y008053D03*
X010339Y008059D03*
X010339Y008065D03*
X010339Y008071D03*
X010339Y008077D03*
X010339Y008082D03*
X010339Y008088D03*
X010339Y008094D03*
X010339Y008100D03*
X010339Y008106D03*
X010339Y008112D03*
X010339Y008118D03*
X010339Y008124D03*
X010339Y008130D03*
X010339Y008136D03*
X010339Y008141D03*
X010339Y008147D03*
X010339Y008153D03*
X010339Y008159D03*
X010339Y008165D03*
X010339Y008171D03*
X010339Y008177D03*
X010339Y008183D03*
X010339Y008189D03*
X010339Y008195D03*
X010339Y008201D03*
X010339Y008206D03*
X010339Y008212D03*
X010339Y008218D03*
X010339Y008224D03*
X010339Y008230D03*
X010339Y008236D03*
X010339Y008242D03*
X010339Y008248D03*
X010339Y008254D03*
X010339Y008260D03*
X010339Y008266D03*
X010339Y008271D03*
X010339Y008277D03*
X010339Y008283D03*
X010339Y008289D03*
X010339Y008295D03*
X010339Y008301D03*
X010339Y008307D03*
X010339Y008313D03*
X010339Y008319D03*
X010339Y008325D03*
X010339Y008330D03*
X010339Y008336D03*
X010339Y008342D03*
X010339Y008348D03*
X010339Y008354D03*
X010339Y008360D03*
X010339Y008366D03*
X010339Y008372D03*
X010339Y008378D03*
X010339Y008384D03*
X010339Y008390D03*
X010339Y008395D03*
X010339Y008401D03*
X010339Y008407D03*
X010339Y008413D03*
X010339Y008419D03*
X010339Y008425D03*
X010339Y008431D03*
X010339Y008437D03*
X010339Y008443D03*
X010339Y008449D03*
X010339Y008454D03*
X010339Y008460D03*
D60*
X008694Y007592D03*
X008694Y007586D03*
X008694Y007580D03*
X007885Y008212D03*
X007885Y008218D03*
X008074Y008531D03*
X008074Y008537D03*
X008074Y008543D03*
X006586Y007480D03*
X005688Y008206D03*
X005688Y008212D03*
X005688Y008218D03*
X005877Y008531D03*
X005877Y008537D03*
X005877Y008543D03*
X006515Y008543D03*
X006515Y008537D03*
X006515Y008549D03*
X006515Y008555D03*
D61*
X008691Y007775D03*
D62*
X009403Y007781D03*
D63*
X006512Y007781D03*
D64*
X011547Y007876D03*
D65*
X011544Y007882D03*
D66*
X011544Y007888D03*
D67*
X011544Y007893D03*
D68*
X011544Y007899D03*
D69*
X011547Y007905D03*
D70*
X011547Y007911D03*
X011547Y008077D03*
D71*
X011544Y007917D03*
D72*
X011544Y007923D03*
D73*
X011547Y007929D03*
X011547Y008065D03*
D74*
X011547Y008053D03*
X011547Y007935D03*
D75*
X011544Y007941D03*
X011544Y008047D03*
D76*
X011547Y008041D03*
X011547Y007953D03*
X011547Y007947D03*
D77*
X011544Y007958D03*
X011544Y008029D03*
X011544Y008035D03*
D78*
X011547Y008023D03*
X011547Y008017D03*
X011547Y007976D03*
X011547Y007970D03*
X011547Y007964D03*
D79*
X011544Y007982D03*
X011544Y007988D03*
X011544Y007994D03*
X011544Y008000D03*
X011544Y008006D03*
X011544Y008012D03*
D80*
X008721Y008012D03*
X008721Y008738D03*
X007239Y008738D03*
X007239Y008012D03*
D81*
X011544Y008059D03*
D82*
X011547Y008071D03*
D83*
X011544Y008082D03*
D84*
X011547Y008088D03*
D85*
X011547Y008094D03*
D86*
X011544Y008100D03*
D87*
X011544Y008106D03*
D88*
X011547Y008112D03*
D89*
X008417Y010976D03*
X008410Y011323D03*
X010294Y012267D03*
X010628Y012261D03*
D90*
X009601Y011896D03*
X009601Y011890D03*
X009223Y012192D03*
X009084Y011978D03*
X008643Y011908D03*
X008643Y011902D03*
X008637Y011915D03*
X008662Y011593D03*
X008656Y011587D03*
X008020Y011612D03*
X007982Y011902D03*
X007982Y011908D03*
X007591Y011902D03*
X007585Y011908D03*
X007585Y011915D03*
X007579Y011921D03*
X007604Y011568D03*
X007598Y011562D03*
X008083Y011260D03*
X008417Y010982D03*
X006974Y011600D03*
X006936Y011890D03*
X006936Y011896D03*
X006464Y011896D03*
X006464Y011890D03*
X006086Y012192D03*
X005947Y011978D03*
D91*
X006420Y011978D03*
X006955Y011965D03*
X007018Y011524D03*
X007365Y011323D03*
X007541Y011499D03*
X007510Y011997D03*
X008064Y011549D03*
X008417Y010989D03*
X009557Y011978D03*
X008322Y012186D03*
D92*
X008023Y011990D03*
X008086Y011530D03*
X007513Y011486D03*
X007368Y011335D03*
X006971Y011990D03*
X006398Y012003D03*
X008414Y010995D03*
X009535Y012003D03*
D93*
X008410Y011367D03*
X008108Y011518D03*
X008417Y011001D03*
X007365Y011348D03*
X006993Y012009D03*
D94*
X007368Y011360D03*
X008414Y011008D03*
D95*
X008417Y011014D03*
X008410Y011386D03*
X009236Y012116D03*
X007289Y012141D03*
X006099Y012116D03*
D96*
X008417Y011020D03*
X010634Y011644D03*
X010634Y011650D03*
X010640Y011663D03*
X010653Y011701D03*
X010634Y011845D03*
X010628Y011858D03*
D97*
X010609Y011902D03*
X010445Y012192D03*
X010451Y012211D03*
X010451Y012217D03*
X008335Y012123D03*
X008410Y011404D03*
X008417Y011027D03*
X007365Y011392D03*
D98*
X008417Y011033D03*
X010432Y012173D03*
X010672Y011814D03*
D99*
X010681Y011808D03*
X010631Y011587D03*
X010398Y011341D03*
X010423Y012160D03*
X008338Y012104D03*
X007299Y012097D03*
X008414Y011039D03*
D100*
X008414Y011045D03*
X010631Y011575D03*
D101*
X010716Y011757D03*
X010710Y011789D03*
X010590Y011953D03*
X008417Y011052D03*
D102*
X008414Y011058D03*
X010398Y011367D03*
X010631Y011556D03*
X010587Y011959D03*
X010398Y012123D03*
D103*
X010577Y011965D03*
X010628Y011549D03*
X008417Y011064D03*
D104*
X008417Y011071D03*
X010628Y011543D03*
D105*
X008414Y011077D03*
D106*
X008414Y011083D03*
X010398Y012097D03*
D107*
X010395Y012085D03*
X008417Y011090D03*
D108*
X008417Y011096D03*
X009343Y012079D03*
X009343Y012085D03*
X010395Y012079D03*
X006206Y012085D03*
D109*
X006199Y012060D03*
X008417Y011102D03*
X009336Y012060D03*
D110*
X009336Y012041D03*
X009336Y012034D03*
X009336Y012028D03*
X010401Y012066D03*
X008417Y011108D03*
X006199Y012028D03*
X006199Y012034D03*
X006199Y012041D03*
X006199Y012047D03*
D111*
X008303Y011417D03*
X008417Y011115D03*
X010439Y011386D03*
D112*
X010436Y011392D03*
X008414Y011121D03*
X008306Y011423D03*
X007254Y011404D03*
D113*
X007261Y011423D03*
X008306Y011430D03*
X008414Y011127D03*
X010423Y011411D03*
X010429Y011404D03*
D114*
X010410Y011436D03*
X010404Y011442D03*
X008414Y011134D03*
X008313Y011442D03*
X008313Y011449D03*
X007267Y011442D03*
X007267Y011436D03*
D115*
X007267Y011449D03*
X008319Y011461D03*
X008414Y011146D03*
X008414Y011140D03*
X010398Y011455D03*
X010398Y011461D03*
D116*
X010398Y011467D03*
X008414Y011153D03*
X008319Y011474D03*
X008237Y012085D03*
X008231Y012091D03*
X007273Y011467D03*
D117*
X007198Y012066D03*
X008243Y012072D03*
X008325Y011493D03*
X008325Y011486D03*
X008414Y011165D03*
X008414Y011159D03*
X010398Y011474D03*
X010398Y011480D03*
D118*
X008404Y011171D03*
X008322Y011480D03*
X008240Y012079D03*
X007195Y012072D03*
X007277Y011480D03*
X007277Y011474D03*
D119*
X007028Y011512D03*
X006965Y011978D03*
X007280Y012179D03*
X008010Y011978D03*
X008634Y011178D03*
X009547Y011990D03*
X010398Y011285D03*
X006410Y011990D03*
D120*
X006977Y011997D03*
X008029Y011997D03*
X008325Y012173D03*
X008174Y011178D03*
X010398Y011291D03*
D121*
X010398Y011279D03*
X009573Y011959D03*
X009106Y012009D03*
X008590Y011971D03*
X008615Y011537D03*
X008640Y011184D03*
X007998Y011953D03*
X007532Y011978D03*
X007525Y011984D03*
X007551Y011505D03*
X007009Y011537D03*
X007003Y011543D03*
X006946Y011946D03*
X006436Y011959D03*
X006429Y011965D03*
X005969Y012009D03*
D122*
X006968Y011984D03*
X007365Y011329D03*
X008077Y011537D03*
X008158Y011184D03*
X008322Y012179D03*
D123*
X008628Y011927D03*
X008634Y011921D03*
X008653Y011581D03*
X008647Y011190D03*
X008086Y011253D03*
X008029Y011600D03*
X008023Y011606D03*
X007595Y011556D03*
X007576Y011927D03*
X007569Y011934D03*
X006933Y011902D03*
X006977Y011593D03*
X006977Y011587D03*
X006984Y011581D03*
X006461Y011902D03*
X006461Y011908D03*
X005951Y011984D03*
X009088Y011984D03*
X009598Y011908D03*
X009598Y011902D03*
D124*
X009122Y012016D03*
X008555Y011997D03*
X008007Y011971D03*
X008070Y011543D03*
X008146Y011190D03*
X008410Y011348D03*
X007529Y011493D03*
X007497Y012003D03*
X005985Y012016D03*
D125*
X005938Y011946D03*
X005938Y011940D03*
X005938Y011934D03*
X005938Y011927D03*
X005938Y011921D03*
X005938Y011915D03*
X005938Y011896D03*
X005938Y011890D03*
X005938Y011883D03*
X005938Y011877D03*
X005938Y011871D03*
X005944Y011820D03*
X005944Y011814D03*
X005951Y011770D03*
X005957Y011726D03*
X005963Y011682D03*
X005963Y011675D03*
X005969Y011631D03*
X005976Y011587D03*
X005982Y011543D03*
X005982Y011537D03*
X005988Y011493D03*
X005995Y011449D03*
X006001Y011404D03*
X006007Y011354D03*
X006499Y011726D03*
X006499Y011732D03*
X006492Y011764D03*
X006492Y011770D03*
X006492Y011776D03*
X006486Y011789D03*
X006486Y011795D03*
X006486Y011801D03*
X006486Y011808D03*
X006486Y011814D03*
X006480Y011827D03*
X006480Y011833D03*
X006442Y012141D03*
X006442Y012148D03*
X006883Y012173D03*
X006883Y012179D03*
X006889Y012135D03*
X006889Y012129D03*
X006895Y012085D03*
X006933Y011852D03*
X006958Y011644D03*
X006958Y011638D03*
X006965Y011625D03*
X006536Y011455D03*
X006549Y011360D03*
X007620Y011606D03*
X007620Y011612D03*
X007626Y011625D03*
X007626Y011631D03*
X007626Y011638D03*
X007632Y011656D03*
X007632Y011663D03*
X007632Y011770D03*
X007632Y011776D03*
X007626Y011801D03*
X007626Y011808D03*
X007626Y011814D03*
X007626Y011820D03*
X007620Y011827D03*
X007620Y011833D03*
X007620Y011839D03*
X007614Y011852D03*
X007941Y012097D03*
X007935Y012135D03*
X007935Y012141D03*
X007929Y012179D03*
X007929Y012186D03*
X008004Y011650D03*
X008010Y011644D03*
X008010Y011638D03*
X008054Y011329D03*
X008054Y011323D03*
X008061Y011310D03*
X008061Y011304D03*
X008067Y011291D03*
X008647Y011197D03*
X008678Y011631D03*
X008678Y011638D03*
X008678Y011644D03*
X008684Y011650D03*
X008684Y011656D03*
X008684Y011663D03*
X008678Y011820D03*
X008678Y011827D03*
X008672Y011839D03*
X008672Y011845D03*
X008666Y011858D03*
X009075Y011871D03*
X009075Y011877D03*
X009075Y011883D03*
X009075Y011890D03*
X009075Y011896D03*
X009075Y011902D03*
X009075Y011908D03*
X009075Y011915D03*
X009075Y011921D03*
X009075Y011927D03*
X009075Y011934D03*
X009075Y011940D03*
X009075Y011946D03*
X009081Y011820D03*
X009088Y011770D03*
X009094Y011726D03*
X009100Y011682D03*
X009106Y011638D03*
X009106Y011631D03*
X009113Y011587D03*
X009119Y011543D03*
X009125Y011499D03*
X009125Y011493D03*
X009132Y011449D03*
X009138Y011404D03*
X009144Y011360D03*
X009144Y011354D03*
X009680Y011411D03*
X009673Y011455D03*
X009686Y011360D03*
X009642Y011688D03*
X009636Y011726D03*
X009636Y011732D03*
X009629Y011764D03*
X009629Y011770D03*
X009629Y011776D03*
X009623Y011795D03*
X009623Y011801D03*
X009623Y011808D03*
X009623Y011814D03*
X009617Y011833D03*
X009579Y012148D03*
X011198Y012362D03*
X011191Y012406D03*
X011185Y012456D03*
X011179Y012501D03*
X011204Y012318D03*
X011210Y012267D03*
X011217Y012223D03*
X011223Y012179D03*
X011229Y012135D03*
X011229Y012129D03*
X011236Y012085D03*
X011242Y012041D03*
X011248Y011997D03*
X011248Y011990D03*
X011254Y011946D03*
X011261Y011902D03*
X011267Y011858D03*
X011267Y011852D03*
X011273Y011808D03*
X011280Y011764D03*
X011286Y011719D03*
X011292Y011669D03*
X011299Y011625D03*
X011305Y011581D03*
X011311Y011530D03*
X011317Y011486D03*
X011324Y011442D03*
X011330Y011392D03*
X011336Y011348D03*
D126*
X008609Y011530D03*
X008571Y011984D03*
X007998Y011959D03*
X007280Y012186D03*
X006952Y011959D03*
X008136Y011197D03*
D127*
X008647Y011203D03*
X007985Y011719D03*
X007985Y011726D03*
X007985Y011732D03*
X007979Y011745D03*
X007979Y011751D03*
X007979Y011757D03*
X007979Y011764D03*
X007979Y011770D03*
X007979Y011776D03*
X010278Y011776D03*
X010278Y011782D03*
X010278Y011707D03*
X010278Y011701D03*
X010606Y012223D03*
D128*
X009569Y011965D03*
X009563Y011971D03*
X009223Y012179D03*
X008580Y011978D03*
X008058Y011556D03*
X008051Y011562D03*
X008127Y011203D03*
X008410Y011341D03*
X007516Y011990D03*
X006949Y011953D03*
X007012Y011530D03*
X006426Y011971D03*
X006086Y012179D03*
D129*
X008647Y011209D03*
X010058Y011978D03*
X010278Y011808D03*
X010278Y011682D03*
X010398Y011266D03*
X010297Y012249D03*
X010618Y012242D03*
D130*
X009576Y011953D03*
X008625Y011543D03*
X008045Y011568D03*
X008114Y011216D03*
X008121Y011209D03*
X007560Y011512D03*
X007995Y011946D03*
X006999Y011549D03*
X006439Y011953D03*
D131*
X008647Y011216D03*
X010039Y011518D03*
X010278Y011669D03*
X010278Y011820D03*
X010039Y011971D03*
X010291Y012274D03*
X010631Y012267D03*
D132*
X010647Y012293D03*
X010288Y012293D03*
X010029Y011524D03*
X008650Y011222D03*
X007365Y011297D03*
D133*
X007566Y011518D03*
X007573Y011524D03*
X008039Y011581D03*
X008102Y011228D03*
X008108Y011222D03*
X008631Y011549D03*
X008637Y011556D03*
X008606Y011953D03*
X007988Y011934D03*
X007988Y011927D03*
X007277Y012192D03*
X006943Y011934D03*
X006943Y011927D03*
X006993Y011562D03*
X006445Y011940D03*
X006086Y012186D03*
X009223Y012186D03*
X009582Y011940D03*
D134*
X009220Y012211D03*
X010014Y011953D03*
X010278Y011833D03*
X010014Y011537D03*
X010284Y012312D03*
X008647Y011228D03*
X006083Y012211D03*
D135*
X008643Y011234D03*
X009991Y011556D03*
X009998Y011549D03*
X010275Y011839D03*
X009991Y011934D03*
X010666Y012324D03*
D136*
X009585Y011934D03*
X009094Y011997D03*
X008615Y011946D03*
X008640Y011562D03*
X008036Y011587D03*
X008099Y011234D03*
X007582Y011537D03*
X007576Y011530D03*
X007557Y011953D03*
X007551Y011959D03*
X007985Y011921D03*
X006940Y011921D03*
X006990Y011568D03*
X006448Y011934D03*
X005957Y011997D03*
D137*
X008643Y011241D03*
X009966Y011593D03*
X010275Y011644D03*
X009973Y011902D03*
X009966Y011896D03*
X010275Y012349D03*
X010678Y012349D03*
X010779Y011379D03*
D138*
X009595Y011915D03*
X009588Y011921D03*
X009588Y011927D03*
X009091Y011990D03*
X008625Y011934D03*
X008618Y011940D03*
X008650Y011575D03*
X008643Y011568D03*
X008410Y011335D03*
X008095Y011241D03*
X008089Y011247D03*
X008032Y011593D03*
X007982Y011915D03*
X007566Y011940D03*
X007560Y011946D03*
X007591Y011549D03*
X007585Y011543D03*
X006987Y011575D03*
X006936Y011908D03*
X006936Y011915D03*
X006458Y011915D03*
X006451Y011921D03*
X006451Y011927D03*
X005954Y011990D03*
D139*
X008640Y011247D03*
X009944Y011638D03*
X009944Y011644D03*
X009938Y011663D03*
X009951Y011625D03*
X009938Y011827D03*
X009944Y011839D03*
X009944Y011845D03*
X009944Y011852D03*
X010272Y012368D03*
X010688Y012368D03*
D140*
X008637Y011253D03*
D141*
X009969Y011587D03*
X009976Y011581D03*
X010398Y011260D03*
X009976Y011908D03*
X010675Y012343D03*
D142*
X008634Y011260D03*
D143*
X008666Y011600D03*
X008653Y011890D03*
X008647Y011896D03*
X008319Y012198D03*
X007979Y011896D03*
X007979Y011890D03*
X008017Y011625D03*
X008017Y011619D03*
X008073Y011272D03*
X008080Y011266D03*
X007607Y011575D03*
X007607Y011581D03*
X007368Y011310D03*
X006971Y011606D03*
X006971Y011612D03*
X006933Y011877D03*
X006933Y011883D03*
X006473Y011871D03*
X006473Y011864D03*
X006473Y011858D03*
X006467Y011877D03*
X006467Y011883D03*
X005944Y011965D03*
X005944Y011971D03*
X007595Y011896D03*
X007601Y011883D03*
X009081Y011965D03*
X009081Y011971D03*
X009604Y011883D03*
X009604Y011877D03*
X009610Y011871D03*
X009610Y011864D03*
X009610Y011858D03*
X010398Y011272D03*
D144*
X009620Y011820D03*
X009620Y011827D03*
X009614Y011839D03*
X009614Y011845D03*
X009614Y011852D03*
X009078Y011953D03*
X009078Y011959D03*
X008669Y011852D03*
X008662Y011864D03*
X008662Y011871D03*
X008656Y011877D03*
X008656Y011883D03*
X008675Y011625D03*
X008675Y011619D03*
X008669Y011612D03*
X008669Y011606D03*
X008014Y011631D03*
X007976Y011871D03*
X007976Y011877D03*
X007976Y011883D03*
X007617Y011845D03*
X007610Y011858D03*
X007610Y011864D03*
X007604Y011871D03*
X007604Y011877D03*
X007598Y011890D03*
X007623Y011619D03*
X007617Y011600D03*
X007617Y011593D03*
X007610Y011587D03*
X008064Y011297D03*
X008070Y011285D03*
X008070Y011279D03*
X006968Y011619D03*
X006962Y011631D03*
X006930Y011858D03*
X006930Y011864D03*
X006930Y011871D03*
X006483Y011820D03*
X006477Y011839D03*
X006477Y011845D03*
X006477Y011852D03*
X005941Y011953D03*
X005941Y011959D03*
X007277Y012198D03*
D145*
X008036Y012003D03*
X009232Y012148D03*
X009510Y012016D03*
X010398Y011297D03*
X006373Y012016D03*
X006095Y012148D03*
D146*
X006095Y012135D03*
X007078Y011486D03*
X007368Y011354D03*
X007286Y012154D03*
X009232Y012135D03*
X010398Y011304D03*
D147*
X010275Y011789D03*
X010300Y012236D03*
X010609Y012230D03*
X008316Y012204D03*
X007365Y011304D03*
D148*
X010398Y011310D03*
D149*
X009689Y011323D03*
X009689Y011329D03*
X009689Y011335D03*
X009689Y011341D03*
X009689Y011348D03*
X009689Y011354D03*
X009683Y011367D03*
X009683Y011373D03*
X009683Y011379D03*
X009683Y011386D03*
X009683Y011392D03*
X009683Y011398D03*
X009683Y011404D03*
X009677Y011417D03*
X009677Y011423D03*
X009677Y011430D03*
X009677Y011436D03*
X009677Y011442D03*
X009677Y011449D03*
X009670Y011461D03*
X009670Y011467D03*
X009670Y011474D03*
X009670Y011480D03*
X009670Y011486D03*
X009670Y011493D03*
X009670Y011499D03*
X009664Y011505D03*
X009664Y011512D03*
X009664Y011518D03*
X009664Y011524D03*
X009664Y011530D03*
X009664Y011537D03*
X009664Y011543D03*
X009664Y011549D03*
X009658Y011556D03*
X009658Y011562D03*
X009658Y011568D03*
X009658Y011575D03*
X009658Y011581D03*
X009658Y011587D03*
X009658Y011593D03*
X009651Y011600D03*
X009651Y011606D03*
X009651Y011612D03*
X009651Y011619D03*
X009651Y011625D03*
X009651Y011631D03*
X009651Y011638D03*
X009645Y011650D03*
X009645Y011656D03*
X009645Y011663D03*
X009645Y011669D03*
X009645Y011675D03*
X009645Y011682D03*
X009639Y011694D03*
X009639Y011701D03*
X009639Y011707D03*
X009639Y011713D03*
X009639Y011719D03*
X009632Y011738D03*
X009632Y011745D03*
X009632Y011751D03*
X009632Y011757D03*
X009626Y011782D03*
X009626Y011789D03*
X009582Y012110D03*
X009582Y012116D03*
X009582Y012123D03*
X009582Y012129D03*
X009582Y012135D03*
X009582Y012141D03*
X009576Y012154D03*
X009576Y012160D03*
X009576Y012167D03*
X009576Y012173D03*
X009576Y012179D03*
X009576Y012186D03*
X009078Y011864D03*
X009078Y011858D03*
X009078Y011852D03*
X009078Y011845D03*
X009078Y011839D03*
X009078Y011833D03*
X009078Y011827D03*
X009084Y011814D03*
X009084Y011808D03*
X009084Y011801D03*
X009084Y011795D03*
X009084Y011789D03*
X009084Y011782D03*
X009084Y011776D03*
X009091Y011764D03*
X009091Y011757D03*
X009091Y011751D03*
X009091Y011745D03*
X009091Y011738D03*
X009091Y011732D03*
X009097Y011719D03*
X009097Y011713D03*
X009097Y011707D03*
X009097Y011701D03*
X009097Y011694D03*
X009097Y011688D03*
X009103Y011675D03*
X009103Y011669D03*
X009103Y011663D03*
X009103Y011656D03*
X009103Y011650D03*
X009103Y011644D03*
X009110Y011625D03*
X009110Y011619D03*
X009110Y011612D03*
X009110Y011606D03*
X009110Y011600D03*
X009110Y011593D03*
X009116Y011581D03*
X009116Y011575D03*
X009116Y011568D03*
X009116Y011562D03*
X009116Y011556D03*
X009116Y011549D03*
X009122Y011537D03*
X009122Y011530D03*
X009122Y011524D03*
X009122Y011518D03*
X009122Y011512D03*
X009122Y011505D03*
X009129Y011486D03*
X009129Y011480D03*
X009129Y011474D03*
X009129Y011467D03*
X009129Y011461D03*
X009129Y011455D03*
X009135Y011442D03*
X009135Y011436D03*
X009135Y011430D03*
X009135Y011423D03*
X009135Y011417D03*
X009135Y011411D03*
X009141Y011398D03*
X009141Y011392D03*
X009141Y011386D03*
X009141Y011379D03*
X009141Y011373D03*
X009141Y011367D03*
X009147Y011348D03*
X009147Y011341D03*
X009147Y011335D03*
X009147Y011329D03*
X009147Y011323D03*
X008688Y011669D03*
X008688Y011675D03*
X008688Y011682D03*
X008688Y011688D03*
X008688Y011694D03*
X008688Y011764D03*
X008688Y011770D03*
X008688Y011776D03*
X008688Y011782D03*
X008688Y011789D03*
X008688Y011795D03*
X008681Y011801D03*
X008681Y011808D03*
X008681Y011814D03*
X008675Y011833D03*
X008410Y011329D03*
X008058Y011316D03*
X008051Y011335D03*
X008051Y011341D03*
X008051Y011348D03*
X008045Y011354D03*
X008045Y011360D03*
X008045Y011367D03*
X008045Y011373D03*
X008039Y011392D03*
X008039Y011398D03*
X008039Y011404D03*
X008001Y011656D03*
X008001Y011663D03*
X007976Y011845D03*
X007976Y011852D03*
X007976Y011858D03*
X007976Y011864D03*
X007938Y012104D03*
X007938Y012110D03*
X007938Y012116D03*
X007938Y012123D03*
X007938Y012129D03*
X007932Y012148D03*
X007932Y012154D03*
X007932Y012160D03*
X007932Y012167D03*
X007932Y012173D03*
X007925Y012192D03*
X007629Y011795D03*
X007629Y011789D03*
X007629Y011782D03*
X007636Y011764D03*
X007636Y011757D03*
X007636Y011751D03*
X007636Y011745D03*
X007636Y011738D03*
X007636Y011732D03*
X007636Y011726D03*
X007636Y011719D03*
X007636Y011713D03*
X007636Y011707D03*
X007636Y011701D03*
X007636Y011694D03*
X007636Y011688D03*
X007636Y011682D03*
X007636Y011675D03*
X007636Y011669D03*
X007629Y011650D03*
X007629Y011644D03*
X006955Y011650D03*
X006955Y011656D03*
X006955Y011663D03*
X006949Y011675D03*
X006930Y011814D03*
X006930Y011820D03*
X006930Y011827D03*
X006930Y011833D03*
X006930Y011839D03*
X006930Y011845D03*
X006899Y012079D03*
X006892Y012091D03*
X006892Y012097D03*
X006892Y012104D03*
X006892Y012110D03*
X006892Y012116D03*
X006892Y012123D03*
X006886Y012141D03*
X006886Y012148D03*
X006886Y012154D03*
X006886Y012160D03*
X006886Y012167D03*
X006880Y012186D03*
X006880Y012192D03*
X006445Y012135D03*
X006445Y012129D03*
X006445Y012123D03*
X006445Y012116D03*
X006445Y012110D03*
X006439Y012154D03*
X006439Y012160D03*
X006439Y012167D03*
X006439Y012173D03*
X006439Y012179D03*
X006439Y012186D03*
X006489Y011782D03*
X006495Y011757D03*
X006495Y011751D03*
X006495Y011745D03*
X006495Y011738D03*
X006502Y011719D03*
X006502Y011713D03*
X006502Y011707D03*
X006502Y011701D03*
X006502Y011694D03*
X006502Y011688D03*
X006508Y011682D03*
X006508Y011675D03*
X006508Y011669D03*
X006508Y011663D03*
X006508Y011656D03*
X006508Y011650D03*
X006508Y011644D03*
X006514Y011638D03*
X006514Y011631D03*
X006514Y011625D03*
X006514Y011619D03*
X006514Y011612D03*
X006514Y011606D03*
X006514Y011600D03*
X006521Y011593D03*
X006521Y011587D03*
X006521Y011581D03*
X006521Y011575D03*
X006521Y011568D03*
X006521Y011562D03*
X006521Y011556D03*
X006521Y011549D03*
X006527Y011543D03*
X006527Y011537D03*
X006527Y011530D03*
X006527Y011524D03*
X006527Y011518D03*
X006527Y011512D03*
X006527Y011505D03*
X006533Y011499D03*
X006533Y011493D03*
X006533Y011486D03*
X006533Y011480D03*
X006533Y011474D03*
X006533Y011467D03*
X006533Y011461D03*
X006540Y011449D03*
X006540Y011442D03*
X006540Y011436D03*
X006540Y011430D03*
X006540Y011423D03*
X006540Y011417D03*
X006540Y011411D03*
X006546Y011404D03*
X006546Y011398D03*
X006546Y011392D03*
X006546Y011386D03*
X006546Y011379D03*
X006546Y011373D03*
X006546Y011367D03*
X006552Y011354D03*
X006552Y011348D03*
X006552Y011341D03*
X006552Y011335D03*
X006552Y011329D03*
X006552Y011323D03*
X006993Y011360D03*
X006993Y011367D03*
X006993Y011373D03*
X006993Y011379D03*
X006993Y011386D03*
X006993Y011392D03*
X006993Y011398D03*
X006999Y011348D03*
X006999Y011341D03*
X006999Y011335D03*
X006999Y011329D03*
X006999Y011323D03*
X006010Y011323D03*
X006010Y011329D03*
X006010Y011335D03*
X006010Y011341D03*
X006010Y011348D03*
X006004Y011360D03*
X006004Y011367D03*
X006004Y011373D03*
X006004Y011379D03*
X006004Y011386D03*
X006004Y011392D03*
X006004Y011398D03*
X005998Y011411D03*
X005998Y011417D03*
X005998Y011423D03*
X005998Y011430D03*
X005998Y011436D03*
X005998Y011442D03*
X005991Y011455D03*
X005991Y011461D03*
X005991Y011467D03*
X005991Y011474D03*
X005991Y011480D03*
X005991Y011486D03*
X005985Y011499D03*
X005985Y011505D03*
X005985Y011512D03*
X005985Y011518D03*
X005985Y011524D03*
X005985Y011530D03*
X005979Y011549D03*
X005979Y011556D03*
X005979Y011562D03*
X005979Y011568D03*
X005979Y011575D03*
X005979Y011581D03*
X005973Y011593D03*
X005973Y011600D03*
X005973Y011606D03*
X005973Y011612D03*
X005973Y011619D03*
X005973Y011625D03*
X005966Y011638D03*
X005966Y011644D03*
X005966Y011650D03*
X005966Y011656D03*
X005966Y011663D03*
X005966Y011669D03*
X005960Y011688D03*
X005960Y011694D03*
X005960Y011701D03*
X005960Y011707D03*
X005960Y011713D03*
X005960Y011719D03*
X005954Y011732D03*
X005954Y011738D03*
X005954Y011745D03*
X005954Y011751D03*
X005954Y011757D03*
X005954Y011764D03*
X005947Y011776D03*
X005947Y011782D03*
X005947Y011789D03*
X005947Y011795D03*
X005947Y011801D03*
X005947Y011808D03*
X005941Y011827D03*
X005941Y011833D03*
X005941Y011839D03*
X005941Y011845D03*
X005941Y011852D03*
X005941Y011858D03*
X005941Y011864D03*
X005935Y011902D03*
X005935Y011908D03*
X006010Y011316D03*
X011239Y012047D03*
X011239Y012053D03*
X011239Y012060D03*
X011239Y012066D03*
X011239Y012072D03*
X011239Y012079D03*
X011232Y012091D03*
X011232Y012097D03*
X011232Y012104D03*
X011232Y012110D03*
X011232Y012116D03*
X011232Y012123D03*
X011226Y012141D03*
X011226Y012148D03*
X011226Y012154D03*
X011226Y012160D03*
X011226Y012167D03*
X011226Y012173D03*
X011220Y012186D03*
X011220Y012192D03*
X011220Y012198D03*
X011220Y012204D03*
X011220Y012211D03*
X011220Y012217D03*
X011214Y012230D03*
X011214Y012236D03*
X011214Y012242D03*
X011214Y012249D03*
X011214Y012255D03*
X011214Y012261D03*
X011207Y012274D03*
X011207Y012280D03*
X011207Y012286D03*
X011207Y012293D03*
X011207Y012299D03*
X011207Y012305D03*
X011207Y012312D03*
X011201Y012324D03*
X011201Y012330D03*
X011201Y012337D03*
X011201Y012343D03*
X011201Y012349D03*
X011201Y012356D03*
X011195Y012368D03*
X011195Y012375D03*
X011195Y012381D03*
X011195Y012387D03*
X011195Y012393D03*
X011195Y012400D03*
X011188Y012412D03*
X011188Y012419D03*
X011188Y012425D03*
X011188Y012431D03*
X011188Y012438D03*
X011188Y012444D03*
X011188Y012450D03*
X011182Y012463D03*
X011182Y012469D03*
X011182Y012475D03*
X011182Y012482D03*
X011182Y012488D03*
X011182Y012494D03*
X011176Y012507D03*
X011176Y012513D03*
X011176Y012519D03*
X011176Y012526D03*
X011245Y012034D03*
X011245Y012028D03*
X011245Y012022D03*
X011245Y012016D03*
X011245Y012009D03*
X011245Y012003D03*
X011251Y011984D03*
X011251Y011978D03*
X011251Y011971D03*
X011251Y011965D03*
X011251Y011959D03*
X011251Y011953D03*
X011258Y011940D03*
X011258Y011934D03*
X011258Y011927D03*
X011258Y011921D03*
X011258Y011915D03*
X011258Y011908D03*
X011264Y011896D03*
X011264Y011890D03*
X011264Y011883D03*
X011264Y011877D03*
X011264Y011871D03*
X011264Y011864D03*
X011270Y011845D03*
X011270Y011839D03*
X011270Y011833D03*
X011270Y011827D03*
X011270Y011820D03*
X011270Y011814D03*
X011277Y011801D03*
X011277Y011795D03*
X011277Y011789D03*
X011277Y011782D03*
X011277Y011776D03*
X011277Y011770D03*
X011283Y011757D03*
X011283Y011751D03*
X011283Y011745D03*
X011283Y011738D03*
X011283Y011732D03*
X011283Y011726D03*
X011289Y011713D03*
X011289Y011707D03*
X011289Y011701D03*
X011289Y011694D03*
X011289Y011688D03*
X011289Y011682D03*
X011289Y011675D03*
X011295Y011663D03*
X011295Y011656D03*
X011295Y011650D03*
X011295Y011644D03*
X011295Y011638D03*
X011295Y011631D03*
X011302Y011619D03*
X011302Y011612D03*
X011302Y011606D03*
X011302Y011600D03*
X011302Y011593D03*
X011302Y011587D03*
X011308Y011575D03*
X011308Y011568D03*
X011308Y011562D03*
X011308Y011556D03*
X011308Y011549D03*
X011308Y011543D03*
X011308Y011537D03*
X011314Y011524D03*
X011314Y011518D03*
X011314Y011512D03*
X011314Y011505D03*
X011314Y011499D03*
X011314Y011493D03*
X011321Y011480D03*
X011321Y011474D03*
X011321Y011467D03*
X011321Y011461D03*
X011321Y011455D03*
X011321Y011449D03*
X011327Y011436D03*
X011327Y011430D03*
X011327Y011423D03*
X011327Y011417D03*
X011327Y011411D03*
X011327Y011404D03*
X011327Y011398D03*
X011333Y011386D03*
X011333Y011379D03*
X011333Y011373D03*
X011333Y011367D03*
X011333Y011360D03*
X011333Y011354D03*
X011340Y011341D03*
X011340Y011335D03*
X011340Y011329D03*
X011340Y011323D03*
X011340Y011316D03*
D150*
X010398Y011316D03*
X009239Y012110D03*
X008332Y012141D03*
X007368Y011373D03*
X006102Y012110D03*
D151*
X006083Y012198D03*
X006436Y012192D03*
X006933Y011808D03*
X006940Y011719D03*
X006946Y011694D03*
X006946Y011688D03*
X006946Y011682D03*
X006952Y011669D03*
X006996Y011354D03*
X007003Y011316D03*
X006555Y011316D03*
X007991Y011694D03*
X007998Y011675D03*
X007998Y011669D03*
X007973Y011827D03*
X007973Y011833D03*
X007973Y011839D03*
X008036Y011411D03*
X008042Y011386D03*
X008042Y011379D03*
X008691Y011701D03*
X008691Y011707D03*
X008691Y011713D03*
X008691Y011719D03*
X008691Y011726D03*
X008691Y011732D03*
X008691Y011738D03*
X008691Y011745D03*
X008691Y011751D03*
X008691Y011757D03*
X009220Y012198D03*
X009573Y012192D03*
X009648Y011644D03*
X009692Y011316D03*
X009151Y011316D03*
X010278Y011719D03*
X010278Y011726D03*
X010278Y011732D03*
X010278Y011738D03*
X010278Y011745D03*
X010278Y011751D03*
X010278Y011757D03*
X010278Y011764D03*
D152*
X010275Y011845D03*
X009954Y011864D03*
X009954Y011871D03*
X009947Y011858D03*
X009947Y011631D03*
X009954Y011619D03*
X010684Y012362D03*
X008410Y011316D03*
D153*
X008042Y011575D03*
X007991Y011940D03*
X008319Y012192D03*
X008596Y011965D03*
X008603Y011959D03*
X009100Y012003D03*
X009579Y011946D03*
X010335Y012223D03*
X007544Y011965D03*
X007538Y011971D03*
X006946Y011940D03*
X006996Y011556D03*
X007368Y011316D03*
X006442Y011946D03*
X005963Y012003D03*
D154*
X007292Y012129D03*
X008407Y011398D03*
X010398Y011323D03*
X010631Y011631D03*
X010631Y011638D03*
X010643Y011833D03*
X010637Y011839D03*
X010631Y011852D03*
X010625Y011864D03*
X010625Y011871D03*
D155*
X010606Y011908D03*
X010662Y011820D03*
X010669Y011713D03*
X010631Y011612D03*
X010398Y011329D03*
X010442Y012186D03*
X010448Y012198D03*
X010448Y012204D03*
X007292Y012116D03*
D156*
X007299Y012110D03*
X008338Y012116D03*
X010398Y011335D03*
X010631Y011600D03*
X010675Y011719D03*
X010599Y011921D03*
D157*
X007462Y012016D03*
X007286Y012167D03*
X006984Y012003D03*
X007059Y011493D03*
X007368Y011341D03*
D158*
X007299Y012091D03*
X010417Y012154D03*
X010593Y011940D03*
X010631Y011581D03*
X010398Y011348D03*
D159*
X010398Y011354D03*
X010631Y011568D03*
X010404Y012135D03*
D160*
X008410Y011354D03*
D161*
X010398Y011360D03*
X010631Y011562D03*
X010713Y011764D03*
X010713Y011782D03*
X010398Y012129D03*
D162*
X009525Y012009D03*
X009229Y012154D03*
X008524Y012009D03*
X008095Y011524D03*
X008410Y011360D03*
X006388Y012009D03*
X006092Y012154D03*
D163*
X006099Y012123D03*
X007365Y011367D03*
X008329Y012148D03*
X009236Y012123D03*
D164*
X009935Y011820D03*
X009935Y011814D03*
X009935Y011808D03*
X009941Y011833D03*
X009935Y011682D03*
X009935Y011675D03*
X009935Y011669D03*
X009941Y011656D03*
X009941Y011650D03*
X010269Y012375D03*
X010691Y012375D03*
X010785Y011373D03*
D165*
X010398Y011373D03*
X010398Y012116D03*
D166*
X008329Y012154D03*
X008051Y012009D03*
X008410Y011373D03*
D167*
X010398Y011379D03*
X010398Y012104D03*
D168*
X009236Y012129D03*
X008410Y011379D03*
X007289Y012148D03*
X007012Y012016D03*
X006099Y012129D03*
D169*
X007368Y011379D03*
X008332Y012135D03*
X010643Y011688D03*
X010643Y011682D03*
X010643Y011675D03*
X010643Y011669D03*
X010637Y011656D03*
X010650Y011694D03*
D170*
X010659Y011707D03*
X010628Y011625D03*
X010621Y011877D03*
X010615Y011883D03*
X010615Y011890D03*
X008335Y012129D03*
X007365Y011386D03*
D171*
X007289Y012135D03*
X008410Y011392D03*
D172*
X007258Y011411D03*
X007258Y011417D03*
X010432Y011398D03*
D173*
X010628Y011606D03*
X010603Y011915D03*
X010439Y012179D03*
X008410Y011411D03*
X007365Y011398D03*
D174*
X007264Y011430D03*
X008310Y011436D03*
X010414Y011430D03*
X010414Y011423D03*
X010420Y011417D03*
D175*
X010401Y011449D03*
X008316Y011455D03*
D176*
X008322Y011467D03*
X007270Y011461D03*
X007270Y011455D03*
D177*
X007204Y012053D03*
X008250Y012060D03*
X008332Y011512D03*
X008332Y011505D03*
X010398Y011486D03*
D178*
X010398Y011493D03*
X010398Y011499D03*
X008262Y012041D03*
X008256Y012047D03*
X007217Y012034D03*
X007217Y012028D03*
X007210Y012041D03*
D179*
X007201Y012060D03*
X008247Y012066D03*
X008329Y011499D03*
D180*
X009229Y012160D03*
X007283Y012173D03*
X007043Y011499D03*
X006092Y012160D03*
D181*
X008269Y012022D03*
X010398Y011505D03*
D182*
X009541Y011997D03*
X009226Y012167D03*
X008540Y012003D03*
X008584Y011518D03*
X008017Y011984D03*
X007481Y012009D03*
X007034Y011505D03*
X006404Y011997D03*
X006089Y012167D03*
D183*
X006203Y012079D03*
X006203Y012072D03*
X006203Y012066D03*
X009340Y012066D03*
X009340Y012072D03*
X010398Y012072D03*
X010580Y011512D03*
D184*
X010278Y011675D03*
X010278Y011814D03*
X010051Y011512D03*
X010291Y012261D03*
X010625Y012255D03*
D185*
X010599Y011518D03*
X009346Y012091D03*
X009346Y012097D03*
X006209Y012097D03*
X006209Y012091D03*
D186*
X006089Y012173D03*
X006417Y011984D03*
X006958Y011971D03*
X007021Y011518D03*
X008004Y011965D03*
X008565Y011990D03*
X008596Y011524D03*
X009226Y012173D03*
X009554Y011984D03*
D187*
X010609Y011524D03*
D188*
X010615Y011530D03*
D189*
X010278Y011656D03*
X010020Y011530D03*
X010020Y011959D03*
X010284Y012299D03*
X010650Y012299D03*
X008313Y012211D03*
X007273Y012211D03*
D190*
X010571Y011971D03*
X010621Y011537D03*
D191*
X010004Y011543D03*
X010004Y011946D03*
X010281Y012318D03*
X010659Y012312D03*
D192*
X010669Y012330D03*
X010278Y012330D03*
X010278Y012337D03*
X009988Y011927D03*
X009988Y011562D03*
D193*
X009985Y011568D03*
X009979Y011575D03*
X009979Y011915D03*
X009985Y011921D03*
X010275Y012343D03*
X010672Y012337D03*
D194*
X010599Y011927D03*
X010681Y011726D03*
X010631Y011593D03*
X008338Y012110D03*
X007299Y012104D03*
D195*
X009957Y011877D03*
X009963Y011883D03*
X009963Y011890D03*
X009957Y011612D03*
X009957Y011606D03*
X009963Y011600D03*
X010272Y012356D03*
X010272Y012362D03*
X010681Y012356D03*
X010940Y012085D03*
D196*
X010612Y011896D03*
X010650Y011827D03*
X010631Y011619D03*
X007292Y012123D03*
D197*
X010001Y011940D03*
X010278Y011650D03*
X010921Y012079D03*
X010662Y012318D03*
X010278Y012324D03*
D198*
X010284Y012286D03*
X010643Y012286D03*
X010902Y012072D03*
X010278Y011827D03*
X010278Y011663D03*
X010032Y011965D03*
D199*
X010275Y011770D03*
X010275Y011713D03*
X010306Y012230D03*
X007976Y011820D03*
X007976Y011814D03*
X007976Y011808D03*
X007976Y011801D03*
X007976Y011795D03*
X007976Y011789D03*
X007976Y011782D03*
X007982Y011738D03*
X007988Y011713D03*
X007988Y011707D03*
X007988Y011701D03*
X007995Y011688D03*
X007995Y011682D03*
X006943Y011701D03*
X006943Y011707D03*
X006943Y011713D03*
X006936Y011726D03*
X006936Y011732D03*
X006936Y011738D03*
X006936Y011745D03*
X006936Y011751D03*
X006936Y011757D03*
X006936Y011764D03*
X006930Y011770D03*
X006930Y011776D03*
X006930Y011782D03*
X006930Y011789D03*
X006930Y011795D03*
X006930Y011801D03*
D200*
X010275Y011801D03*
X010275Y011688D03*
X010615Y012236D03*
D201*
X009932Y011801D03*
X009932Y011795D03*
X009932Y011789D03*
X009932Y011782D03*
X009932Y011776D03*
X009932Y011770D03*
X009925Y011764D03*
X009925Y011757D03*
X009925Y011751D03*
X009925Y011745D03*
X009925Y011738D03*
X009925Y011732D03*
X009925Y011726D03*
X009925Y011719D03*
X009932Y011713D03*
X009932Y011707D03*
X009932Y011701D03*
X009932Y011694D03*
X009932Y011688D03*
D202*
X010278Y011694D03*
X010278Y011795D03*
X010297Y012242D03*
X007273Y012204D03*
D203*
X010426Y012167D03*
X010691Y011732D03*
D204*
X010697Y011738D03*
X010596Y011934D03*
D205*
X010691Y011801D03*
X010703Y011745D03*
X010414Y012148D03*
X008341Y012097D03*
X007302Y012085D03*
D206*
X007302Y012079D03*
X010407Y012141D03*
X010590Y011946D03*
X010703Y011795D03*
X010710Y011751D03*
D207*
X010716Y011770D03*
X010716Y011776D03*
D208*
X010562Y011978D03*
X010398Y012091D03*
X009346Y012104D03*
X006209Y012104D03*
D209*
X010442Y011984D03*
X010454Y012003D03*
X010461Y012009D03*
X010467Y012022D03*
X010473Y012028D03*
X010480Y012034D03*
X010480Y012041D03*
X010486Y012047D03*
X010492Y012053D03*
X010499Y012060D03*
D210*
X010464Y012016D03*
X010451Y011997D03*
X010445Y011990D03*
D211*
X008272Y012016D03*
D212*
X009333Y012022D03*
X006196Y012022D03*
D213*
X007220Y012022D03*
X008266Y012028D03*
X008266Y012034D03*
D214*
X009340Y012047D03*
X009340Y012053D03*
X006203Y012053D03*
D215*
X007207Y012047D03*
X008253Y012053D03*
D216*
X009223Y012204D03*
X010294Y012255D03*
X010621Y012249D03*
X010886Y012066D03*
X006086Y012204D03*
D217*
X010398Y012110D03*
D218*
X009232Y012141D03*
X007286Y012160D03*
X006095Y012141D03*
D219*
X008329Y012160D03*
D220*
X008329Y012167D03*
D221*
X010288Y012280D03*
X010634Y012274D03*
X010640Y012280D03*
D222*
X010653Y012305D03*
X010281Y012305D03*
D223*
X010694Y012381D03*
D224*
X010269Y012381D03*
D225*
X008287Y003090D02*
X008287Y002780D01*
X008390Y002780D02*
X008183Y002780D01*
X008068Y002832D02*
X008016Y002780D01*
X007913Y002780D01*
X007861Y002832D01*
X007861Y002883D01*
X007913Y002935D01*
X008068Y002935D01*
X008068Y002832D01*
X008068Y002935D02*
X007964Y003039D01*
X007861Y003090D01*
X008287Y003090D02*
X008390Y002987D01*
X015083Y002987D02*
X015083Y003039D01*
X015135Y003090D01*
X015238Y003090D01*
X015290Y003039D01*
X015083Y002987D02*
X015290Y002780D01*
X015083Y002780D01*
X001440Y002832D02*
X001388Y002780D01*
X001285Y002780D01*
X001233Y002832D01*
X001233Y002883D01*
X001285Y002935D01*
X001337Y002935D01*
X001285Y002935D02*
X001233Y002987D01*
X001233Y003039D01*
X001285Y003090D01*
X001388Y003090D01*
X001440Y003039D01*
X001118Y003039D02*
X001118Y002832D01*
X000911Y003039D01*
X000911Y002832D01*
X000963Y002780D01*
X001066Y002780D01*
X001118Y002832D01*
X001118Y003039D02*
X001066Y003090D01*
X000963Y003090D01*
X000911Y003039D01*
D226*
X001069Y011660D02*
X001071Y011708D01*
X001077Y011756D01*
X001087Y011803D01*
X001100Y011849D01*
X001118Y011894D01*
X001138Y011938D01*
X001163Y011980D01*
X001191Y012019D01*
X001221Y012056D01*
X001255Y012090D01*
X001292Y012122D01*
X001330Y012151D01*
X001371Y012176D01*
X001414Y012198D01*
X001459Y012216D01*
X001505Y012230D01*
X001552Y012241D01*
X001600Y012248D01*
X001648Y012251D01*
X001696Y012250D01*
X001744Y012245D01*
X001792Y012236D01*
X001838Y012224D01*
X001883Y012207D01*
X001927Y012187D01*
X001969Y012164D01*
X002009Y012137D01*
X002047Y012107D01*
X002082Y012074D01*
X002114Y012038D01*
X002144Y012000D01*
X002170Y011959D01*
X002192Y011916D01*
X002212Y011872D01*
X002227Y011827D01*
X002239Y011780D01*
X002247Y011732D01*
X002251Y011684D01*
X002251Y011636D01*
X002247Y011588D01*
X002239Y011540D01*
X002227Y011493D01*
X002212Y011448D01*
X002192Y011404D01*
X002170Y011361D01*
X002144Y011320D01*
X002114Y011282D01*
X002082Y011246D01*
X002047Y011213D01*
X002009Y011183D01*
X001969Y011156D01*
X001927Y011133D01*
X001883Y011113D01*
X001838Y011096D01*
X001792Y011084D01*
X001744Y011075D01*
X001696Y011070D01*
X001648Y011069D01*
X001600Y011072D01*
X001552Y011079D01*
X001505Y011090D01*
X001459Y011104D01*
X001414Y011122D01*
X001371Y011144D01*
X001330Y011169D01*
X001292Y011198D01*
X001255Y011230D01*
X001221Y011264D01*
X001191Y011301D01*
X001163Y011340D01*
X001138Y011382D01*
X001118Y011426D01*
X001100Y011471D01*
X001087Y011517D01*
X001077Y011564D01*
X001071Y011612D01*
X001069Y011660D01*
X014069Y011660D02*
X014071Y011708D01*
X014077Y011756D01*
X014087Y011803D01*
X014100Y011849D01*
X014118Y011894D01*
X014138Y011938D01*
X014163Y011980D01*
X014191Y012019D01*
X014221Y012056D01*
X014255Y012090D01*
X014292Y012122D01*
X014330Y012151D01*
X014371Y012176D01*
X014414Y012198D01*
X014459Y012216D01*
X014505Y012230D01*
X014552Y012241D01*
X014600Y012248D01*
X014648Y012251D01*
X014696Y012250D01*
X014744Y012245D01*
X014792Y012236D01*
X014838Y012224D01*
X014883Y012207D01*
X014927Y012187D01*
X014969Y012164D01*
X015009Y012137D01*
X015047Y012107D01*
X015082Y012074D01*
X015114Y012038D01*
X015144Y012000D01*
X015170Y011959D01*
X015192Y011916D01*
X015212Y011872D01*
X015227Y011827D01*
X015239Y011780D01*
X015247Y011732D01*
X015251Y011684D01*
X015251Y011636D01*
X015247Y011588D01*
X015239Y011540D01*
X015227Y011493D01*
X015212Y011448D01*
X015192Y011404D01*
X015170Y011361D01*
X015144Y011320D01*
X015114Y011282D01*
X015082Y011246D01*
X015047Y011213D01*
X015009Y011183D01*
X014969Y011156D01*
X014927Y011133D01*
X014883Y011113D01*
X014838Y011096D01*
X014792Y011084D01*
X014744Y011075D01*
X014696Y011070D01*
X014648Y011069D01*
X014600Y011072D01*
X014552Y011079D01*
X014505Y011090D01*
X014459Y011104D01*
X014414Y011122D01*
X014371Y011144D01*
X014330Y011169D01*
X014292Y011198D01*
X014255Y011230D01*
X014221Y011264D01*
X014191Y011301D01*
X014163Y011340D01*
X014138Y011382D01*
X014118Y011426D01*
X014100Y011471D01*
X014087Y011517D01*
X014077Y011564D01*
X014071Y011612D01*
X014069Y011660D01*
D227*
X005960Y005010D02*
X004610Y005010D01*
X004610Y004310D01*
X003110Y004310D01*
X003110Y005010D01*
X004610Y005010D01*
X004610Y004310D02*
X005960Y004310D01*
X005960Y005010D01*
M02*
