G75*
G70*
%OFA0B0*%
%FSLAX24Y24*%
%IPPOS*%
%LPD*%
%AMOC8*
5,1,8,0,0,1.08239X$1,22.5*
%
%ADD10C,0.0100*%
%ADD11C,0.0000*%
%ADD12R,0.0350X0.0240*%
D10*
X000278Y001364D02*
X000278Y011956D01*
X000280Y012023D01*
X000286Y012090D01*
X000295Y012157D01*
X000308Y012223D01*
X000325Y012288D01*
X000345Y012352D01*
X000369Y012415D01*
X000397Y012477D01*
X000428Y012536D01*
X000462Y012594D01*
X000499Y012650D01*
X000540Y012704D01*
X000583Y012756D01*
X000629Y012805D01*
X000678Y012851D01*
X000730Y012894D01*
X000784Y012935D01*
X000840Y012972D01*
X000898Y013006D01*
X000957Y013037D01*
X001019Y013065D01*
X001082Y013089D01*
X001146Y013109D01*
X001211Y013126D01*
X001277Y013139D01*
X001344Y013148D01*
X001411Y013154D01*
X001478Y013156D01*
X015022Y013156D01*
X015089Y013154D01*
X015156Y013148D01*
X015223Y013139D01*
X015289Y013126D01*
X015354Y013109D01*
X015418Y013089D01*
X015481Y013065D01*
X015543Y013037D01*
X015602Y013006D01*
X015660Y012972D01*
X015716Y012935D01*
X015770Y012894D01*
X015822Y012851D01*
X015871Y012805D01*
X015917Y012756D01*
X015960Y012704D01*
X016001Y012650D01*
X016038Y012594D01*
X016072Y012536D01*
X016103Y012477D01*
X016131Y012415D01*
X016155Y012352D01*
X016175Y012288D01*
X016192Y012223D01*
X016205Y012157D01*
X016214Y012090D01*
X016220Y012023D01*
X016222Y011956D01*
X016222Y001364D01*
X016220Y001297D01*
X016214Y001230D01*
X016205Y001163D01*
X016192Y001097D01*
X016175Y001032D01*
X016155Y000968D01*
X016131Y000905D01*
X016103Y000843D01*
X016072Y000784D01*
X016038Y000726D01*
X016001Y000670D01*
X015960Y000616D01*
X015917Y000564D01*
X015871Y000515D01*
X015822Y000469D01*
X015770Y000426D01*
X015716Y000385D01*
X015660Y000348D01*
X015602Y000314D01*
X015543Y000283D01*
X015481Y000255D01*
X015418Y000231D01*
X015354Y000211D01*
X015289Y000194D01*
X015223Y000181D01*
X015156Y000172D01*
X015089Y000166D01*
X015022Y000164D01*
X001478Y000164D01*
X001411Y000166D01*
X001344Y000172D01*
X001277Y000181D01*
X001211Y000194D01*
X001146Y000211D01*
X001082Y000231D01*
X001019Y000255D01*
X000957Y000283D01*
X000898Y000314D01*
X000840Y000348D01*
X000784Y000385D01*
X000730Y000426D01*
X000678Y000469D01*
X000629Y000515D01*
X000583Y000564D01*
X000540Y000616D01*
X000499Y000670D01*
X000462Y000726D01*
X000428Y000784D01*
X000397Y000843D01*
X000369Y000905D01*
X000345Y000968D01*
X000325Y001032D01*
X000308Y001097D01*
X000295Y001163D01*
X000286Y001230D01*
X000280Y001297D01*
X000278Y001364D01*
D11*
X001159Y011660D02*
X001161Y011708D01*
X001167Y011756D01*
X001177Y011803D01*
X001190Y011849D01*
X001208Y011894D01*
X001228Y011938D01*
X001253Y011980D01*
X001281Y012019D01*
X001311Y012056D01*
X001345Y012090D01*
X001382Y012122D01*
X001420Y012151D01*
X001461Y012176D01*
X001504Y012198D01*
X001549Y012216D01*
X001595Y012230D01*
X001642Y012241D01*
X001690Y012248D01*
X001738Y012251D01*
X001786Y012250D01*
X001834Y012245D01*
X001882Y012236D01*
X001928Y012224D01*
X001973Y012207D01*
X002017Y012187D01*
X002059Y012164D01*
X002099Y012137D01*
X002137Y012107D01*
X002172Y012074D01*
X002204Y012038D01*
X002234Y012000D01*
X002260Y011959D01*
X002282Y011916D01*
X002302Y011872D01*
X002317Y011827D01*
X002329Y011780D01*
X002337Y011732D01*
X002341Y011684D01*
X002341Y011636D01*
X002337Y011588D01*
X002329Y011540D01*
X002317Y011493D01*
X002302Y011448D01*
X002282Y011404D01*
X002260Y011361D01*
X002234Y011320D01*
X002204Y011282D01*
X002172Y011246D01*
X002137Y011213D01*
X002099Y011183D01*
X002059Y011156D01*
X002017Y011133D01*
X001973Y011113D01*
X001928Y011096D01*
X001882Y011084D01*
X001834Y011075D01*
X001786Y011070D01*
X001738Y011069D01*
X001690Y011072D01*
X001642Y011079D01*
X001595Y011090D01*
X001549Y011104D01*
X001504Y011122D01*
X001461Y011144D01*
X001420Y011169D01*
X001382Y011198D01*
X001345Y011230D01*
X001311Y011264D01*
X001281Y011301D01*
X001253Y011340D01*
X001228Y011382D01*
X001208Y011426D01*
X001190Y011471D01*
X001177Y011517D01*
X001167Y011564D01*
X001161Y011612D01*
X001159Y011660D01*
X014159Y011660D02*
X014161Y011708D01*
X014167Y011756D01*
X014177Y011803D01*
X014190Y011849D01*
X014208Y011894D01*
X014228Y011938D01*
X014253Y011980D01*
X014281Y012019D01*
X014311Y012056D01*
X014345Y012090D01*
X014382Y012122D01*
X014420Y012151D01*
X014461Y012176D01*
X014504Y012198D01*
X014549Y012216D01*
X014595Y012230D01*
X014642Y012241D01*
X014690Y012248D01*
X014738Y012251D01*
X014786Y012250D01*
X014834Y012245D01*
X014882Y012236D01*
X014928Y012224D01*
X014973Y012207D01*
X015017Y012187D01*
X015059Y012164D01*
X015099Y012137D01*
X015137Y012107D01*
X015172Y012074D01*
X015204Y012038D01*
X015234Y012000D01*
X015260Y011959D01*
X015282Y011916D01*
X015302Y011872D01*
X015317Y011827D01*
X015329Y011780D01*
X015337Y011732D01*
X015341Y011684D01*
X015341Y011636D01*
X015337Y011588D01*
X015329Y011540D01*
X015317Y011493D01*
X015302Y011448D01*
X015282Y011404D01*
X015260Y011361D01*
X015234Y011320D01*
X015204Y011282D01*
X015172Y011246D01*
X015137Y011213D01*
X015099Y011183D01*
X015059Y011156D01*
X015017Y011133D01*
X014973Y011113D01*
X014928Y011096D01*
X014882Y011084D01*
X014834Y011075D01*
X014786Y011070D01*
X014738Y011069D01*
X014690Y011072D01*
X014642Y011079D01*
X014595Y011090D01*
X014549Y011104D01*
X014504Y011122D01*
X014461Y011144D01*
X014420Y011169D01*
X014382Y011198D01*
X014345Y011230D01*
X014311Y011264D01*
X014281Y011301D01*
X014253Y011340D01*
X014228Y011382D01*
X014208Y011426D01*
X014190Y011471D01*
X014177Y011517D01*
X014167Y011564D01*
X014161Y011612D01*
X014159Y011660D01*
D12*
X005750Y004810D03*
X005750Y004510D03*
X005000Y004510D03*
X005000Y004810D03*
M02*
