%
M48
M72
T01C0.0100
T02C0.1181
%
T01
X4250Y12410
X5500Y12410
X6750Y10910
X7750Y12410
X9000Y12410
X9000Y10910
X11250Y11910
X12300Y10410
X12200Y9910
X12950Y10460
X14200Y9610
X13700Y8560
X13000Y7960
X13250Y7560
X12550Y8410
X12000Y6910
X13000Y6160
X13250Y6410
X13750Y6260
X15500Y7410
X15650Y9060
X11400Y10160
X9050Y8660
X8300Y7660
X8250Y6960
X8000Y6160
X7500Y5410
X7000Y5660
X7000Y4910
X7250Y4160
X6250Y4160
X6450Y2860
X7500Y2910
X8000Y2910
X9050Y3760
X9800Y2860
X12250Y2660
X13250Y2660
X13750Y2910
X14500Y2910
X15250Y2660
X15750Y2910
X15700Y4410
X15650Y5760
X14000Y4410
X12500Y4410
X9500Y6910
X5400Y6910
X5400Y5660
X4500Y5410
X4000Y5660
X3500Y6760
X3250Y7160
X3250Y7910
X2250Y8410
X1000Y7410
X750Y8910
X3950Y8910
X4500Y8660
X5350Y9410
X2500Y5660
X750Y5660
X750Y2910
X1250Y2660
X2000Y2910
X2750Y2910
X3250Y2660
X4250Y2660
X5250Y2910
T02
X1750Y11660
X14750Y11660
M30
