G75*
G70*
%OFA0B0*%
%FSLAX24Y24*%
%IPPOS*%
%LPD*%
%AMOC8*
5,1,8,0,0,1.08239X$1,22.5*
%
%ADD10C,0.0080*%
%ADD11C,0.0050*%
%ADD12C,0.0100*%
%ADD13C,0.0040*%
%ADD14C,0.0000*%
%ADD15C,0.0059*%
%ADD16R,0.0089X0.0006*%
%ADD17R,0.0094X0.0006*%
%ADD18R,0.0130X0.0006*%
%ADD19R,0.0106X0.0006*%
%ADD20R,0.0201X0.0006*%
%ADD21R,0.0136X0.0006*%
%ADD22R,0.1742X0.0006*%
%ADD23R,0.0154X0.0006*%
%ADD24R,0.0112X0.0006*%
%ADD25R,0.0219X0.0006*%
%ADD26R,0.0165X0.0006*%
%ADD27R,0.1748X0.0006*%
%ADD28R,0.0177X0.0006*%
%ADD29R,0.0100X0.0006*%
%ADD30R,0.0236X0.0006*%
%ADD31R,0.0189X0.0006*%
%ADD32R,0.0195X0.0006*%
%ADD33R,0.0248X0.0006*%
%ADD34R,0.0207X0.0006*%
%ADD35R,0.0213X0.0006*%
%ADD36R,0.0260X0.0006*%
%ADD37R,0.0224X0.0006*%
%ADD38R,0.0266X0.0006*%
%ADD39R,0.0278X0.0006*%
%ADD40R,0.0254X0.0006*%
%ADD41R,0.0283X0.0006*%
%ADD42R,0.0289X0.0006*%
%ADD43R,0.0272X0.0006*%
%ADD44R,0.0295X0.0006*%
%ADD45R,0.0301X0.0006*%
%ADD46R,0.0307X0.0006*%
%ADD47R,0.0313X0.0006*%
%ADD48R,0.0319X0.0006*%
%ADD49R,0.0148X0.0006*%
%ADD50R,0.0159X0.0006*%
%ADD51R,0.0124X0.0006*%
%ADD52R,0.0118X0.0006*%
%ADD53R,0.0242X0.0006*%
%ADD54R,0.0337X0.0006*%
%ADD55R,0.0331X0.0006*%
%ADD56R,0.0325X0.0006*%
%ADD57R,0.0142X0.0006*%
%ADD58R,0.0183X0.0006*%
%ADD59R,0.0230X0.0006*%
%ADD60R,0.0419X0.0006*%
%ADD61R,0.0425X0.0006*%
%ADD62R,0.0171X0.0006*%
%ADD63R,0.0083X0.0006*%
%ADD64R,0.0041X0.0006*%
%ADD65R,0.0047X0.0006*%
%ADD66R,0.1022X0.0006*%
%ADD67R,0.0980X0.0006*%
%ADD68R,0.0957X0.0006*%
%ADD69R,0.0933X0.0006*%
%ADD70R,0.0921X0.0006*%
%ADD71R,0.0904X0.0006*%
%ADD72R,0.0892X0.0006*%
%ADD73R,0.0886X0.0006*%
%ADD74R,0.0874X0.0006*%
%ADD75R,0.0868X0.0006*%
%ADD76R,0.0856X0.0006*%
%ADD77R,0.0850X0.0006*%
%ADD78R,0.0844X0.0006*%
%ADD79R,0.0839X0.0006*%
%ADD80R,0.0833X0.0006*%
%ADD81R,0.0827X0.0006*%
%ADD82R,0.0071X0.0006*%
%ADD83R,0.0862X0.0006*%
%ADD84R,0.0880X0.0006*%
%ADD85R,0.0898X0.0006*%
%ADD86R,0.0915X0.0006*%
%ADD87R,0.0927X0.0006*%
%ADD88R,0.0945X0.0006*%
%ADD89R,0.0969X0.0006*%
%ADD90R,0.0998X0.0006*%
D10*
X003350Y004310D02*
X003350Y005010D01*
X004750Y005010D01*
X004750Y004310D01*
X003350Y004310D01*
X004750Y004310D02*
X005300Y004310D01*
X005300Y005010D01*
X005350Y005010D01*
X005350Y004310D01*
X005300Y004310D01*
X005350Y004310D02*
X005450Y004310D01*
X005450Y005010D01*
X006000Y005010D01*
X006000Y004310D01*
X005450Y004310D01*
X005400Y004360D02*
X005400Y005010D01*
X005450Y005010D01*
X005400Y005010D02*
X005350Y005010D01*
X005300Y005010D02*
X004750Y005010D01*
X005252Y007200D02*
X005462Y007200D01*
X005532Y007270D01*
X005532Y007410D01*
X005462Y007480D01*
X005252Y007480D01*
X005252Y007620D02*
X005252Y007200D01*
X005705Y007480D02*
X005775Y007480D01*
X005915Y007340D01*
X005915Y007200D02*
X005915Y007480D01*
X006096Y007410D02*
X006096Y007200D01*
X006306Y007200D01*
X006376Y007270D01*
X006306Y007340D01*
X006096Y007340D01*
X006096Y007410D02*
X006166Y007480D01*
X006306Y007480D01*
X006556Y007550D02*
X006626Y007620D01*
X006766Y007620D01*
X006836Y007550D01*
X006836Y007270D01*
X006766Y007200D01*
X006626Y007200D01*
X006556Y007270D01*
X007470Y007480D02*
X007540Y007480D01*
X007680Y007340D01*
X007680Y007200D02*
X007680Y007480D01*
X007860Y007410D02*
X007860Y007340D01*
X008141Y007340D01*
X008141Y007270D02*
X008141Y007410D01*
X008071Y007480D01*
X007931Y007480D01*
X007860Y007410D01*
X007931Y007200D02*
X008071Y007200D01*
X008141Y007270D01*
X008308Y007200D02*
X008378Y007270D01*
X008378Y007550D01*
X008448Y007480D02*
X008308Y007480D01*
X008614Y007480D02*
X008755Y007480D01*
X008685Y007550D02*
X008685Y007270D01*
X008614Y007200D01*
X008921Y007200D02*
X009062Y007200D01*
X008991Y007200D02*
X008991Y007480D01*
X009062Y007480D01*
X008991Y007620D02*
X008991Y007690D01*
X009242Y007410D02*
X009242Y007200D01*
X009382Y007200D02*
X009382Y007410D01*
X009312Y007480D01*
X009242Y007410D01*
X009382Y007410D02*
X009452Y007480D01*
X009522Y007480D01*
X009522Y007200D01*
X009702Y007200D02*
X009982Y007200D01*
X009982Y007620D01*
X009702Y007620D01*
X009842Y007410D02*
X009982Y007410D01*
X010623Y007410D02*
X010693Y007340D01*
X010903Y007340D01*
X010903Y007200D02*
X010903Y007620D01*
X010693Y007620D01*
X010623Y007550D01*
X010623Y007410D01*
X010763Y007340D02*
X010623Y007200D01*
X011070Y007200D02*
X011210Y007200D01*
X011140Y007200D02*
X011140Y007620D01*
X011210Y007620D02*
X011070Y007620D01*
D11*
X011125Y006785D02*
X011225Y006785D01*
X011175Y006785D02*
X011175Y006485D01*
X011225Y006485D02*
X011125Y006485D01*
X011010Y006485D02*
X010810Y006685D01*
X010810Y006735D01*
X010860Y006785D01*
X010960Y006785D01*
X011010Y006735D01*
X011010Y006485D02*
X010810Y006485D01*
X010688Y006535D02*
X010638Y006485D01*
X010538Y006485D01*
X010488Y006535D01*
X010688Y006535D02*
X010688Y006735D01*
X010638Y006785D01*
X010538Y006785D01*
X010488Y006735D01*
X010043Y006685D02*
X010043Y006485D01*
X010043Y006635D02*
X009843Y006635D01*
X009843Y006685D02*
X009843Y006485D01*
X009721Y006485D02*
X009571Y006485D01*
X009521Y006535D01*
X009521Y006735D01*
X009571Y006785D01*
X009721Y006785D01*
X009721Y006485D01*
X009843Y006685D02*
X009943Y006785D01*
X010043Y006685D01*
X009399Y006785D02*
X009399Y006485D01*
X009249Y006485D01*
X009199Y006535D01*
X009199Y006735D01*
X009249Y006785D01*
X009399Y006785D01*
X009077Y006785D02*
X009077Y006485D01*
X009077Y006585D02*
X008926Y006585D01*
X008876Y006635D01*
X008876Y006735D01*
X008926Y006785D01*
X009077Y006785D01*
X008976Y006585D02*
X008876Y006485D01*
X008754Y006485D02*
X008754Y006535D01*
X008704Y006535D01*
X008704Y006485D01*
X008754Y006485D01*
X008754Y006635D02*
X008754Y006685D01*
X008704Y006685D01*
X008704Y006635D01*
X008754Y006635D01*
X008271Y006535D02*
X008071Y006735D01*
X008071Y006535D01*
X008121Y006485D01*
X008221Y006485D01*
X008271Y006535D01*
X008271Y006735D01*
X008221Y006785D01*
X008121Y006785D01*
X008071Y006735D01*
X007949Y006685D02*
X007748Y006485D01*
X007626Y006635D02*
X007426Y006635D01*
X007304Y006635D02*
X007104Y006635D01*
X007154Y006485D02*
X007154Y006785D01*
X007304Y006635D01*
X007476Y006485D02*
X007476Y006785D01*
X007626Y006635D01*
X007748Y006685D02*
X007949Y006485D01*
X007960Y005985D02*
X007910Y005935D01*
X007910Y005885D01*
X007960Y005835D01*
X008060Y005835D01*
X008110Y005885D01*
X008110Y005935D01*
X008060Y005985D01*
X007960Y005985D01*
X007960Y005835D02*
X007910Y005785D01*
X007910Y005735D01*
X007960Y005685D01*
X008060Y005685D01*
X008110Y005735D01*
X008110Y005785D01*
X008060Y005835D01*
X008232Y005685D02*
X008432Y005685D01*
X008332Y005685D02*
X008332Y005985D01*
X008432Y005885D01*
X008554Y005935D02*
X008554Y005735D01*
X008604Y005685D01*
X008704Y005685D01*
X008754Y005735D01*
X008554Y005935D01*
X008604Y005985D01*
X008704Y005985D01*
X008754Y005935D01*
X008754Y005735D01*
X008876Y005685D02*
X009077Y005685D01*
X008876Y005885D01*
X008876Y005935D01*
X008926Y005985D01*
X009026Y005985D01*
X009077Y005935D01*
X009514Y005735D02*
X009514Y005685D01*
X009564Y005685D01*
X009564Y005735D01*
X009514Y005735D01*
X009514Y005685D02*
X009614Y005585D01*
X009736Y005685D02*
X009936Y005685D01*
X009836Y005685D02*
X009836Y005985D01*
X009936Y005885D01*
X010380Y005885D02*
X010480Y005685D01*
X010580Y005885D01*
X010703Y005835D02*
X010753Y005885D01*
X010853Y005885D01*
X010903Y005835D01*
X010903Y005735D01*
X010853Y005685D01*
X010753Y005685D01*
X010703Y005735D01*
X010703Y005835D01*
X011025Y005685D02*
X011025Y005985D01*
X011225Y005985D02*
X011025Y005685D01*
X011225Y005685D02*
X011225Y005985D01*
X006000Y005010D02*
X006000Y004310D01*
X005500Y004310D01*
X005500Y005010D01*
X006000Y005010D01*
X005250Y005010D02*
X005250Y004310D01*
X004750Y004310D01*
X004750Y005010D01*
X005250Y005010D01*
X004625Y004785D02*
X004625Y004535D01*
X004575Y004485D01*
X004475Y004485D01*
X004425Y004535D01*
X004425Y004785D01*
X004303Y004685D02*
X004203Y004785D01*
X004103Y004685D01*
X004103Y004485D01*
X003980Y004485D02*
X003980Y004785D01*
X003830Y004785D01*
X003780Y004735D01*
X003780Y004635D01*
X003830Y004585D01*
X003980Y004585D01*
X003880Y004585D02*
X003780Y004485D01*
X003558Y004485D02*
X003558Y004785D01*
X003658Y004785D02*
X003458Y004785D01*
X004103Y004635D02*
X004303Y004635D01*
X004303Y004685D02*
X004303Y004485D01*
D12*
X000278Y001364D02*
X000278Y011956D01*
X000280Y012023D01*
X000286Y012090D01*
X000295Y012157D01*
X000308Y012223D01*
X000325Y012288D01*
X000345Y012352D01*
X000369Y012415D01*
X000397Y012477D01*
X000428Y012536D01*
X000462Y012594D01*
X000499Y012650D01*
X000540Y012704D01*
X000583Y012756D01*
X000629Y012805D01*
X000678Y012851D01*
X000730Y012894D01*
X000784Y012935D01*
X000840Y012972D01*
X000898Y013006D01*
X000957Y013037D01*
X001019Y013065D01*
X001082Y013089D01*
X001146Y013109D01*
X001211Y013126D01*
X001277Y013139D01*
X001344Y013148D01*
X001411Y013154D01*
X001478Y013156D01*
X015022Y013156D01*
X015089Y013154D01*
X015156Y013148D01*
X015223Y013139D01*
X015289Y013126D01*
X015354Y013109D01*
X015418Y013089D01*
X015481Y013065D01*
X015543Y013037D01*
X015602Y013006D01*
X015660Y012972D01*
X015716Y012935D01*
X015770Y012894D01*
X015822Y012851D01*
X015871Y012805D01*
X015917Y012756D01*
X015960Y012704D01*
X016001Y012650D01*
X016038Y012594D01*
X016072Y012536D01*
X016103Y012477D01*
X016131Y012415D01*
X016155Y012352D01*
X016175Y012288D01*
X016192Y012223D01*
X016205Y012157D01*
X016214Y012090D01*
X016220Y012023D01*
X016222Y011956D01*
X016222Y001364D01*
X016220Y001297D01*
X016214Y001230D01*
X016205Y001163D01*
X016192Y001097D01*
X016175Y001032D01*
X016155Y000968D01*
X016131Y000905D01*
X016103Y000843D01*
X016072Y000784D01*
X016038Y000726D01*
X016001Y000670D01*
X015960Y000616D01*
X015917Y000564D01*
X015871Y000515D01*
X015822Y000469D01*
X015770Y000426D01*
X015716Y000385D01*
X015660Y000348D01*
X015602Y000314D01*
X015543Y000283D01*
X015481Y000255D01*
X015418Y000231D01*
X015354Y000211D01*
X015289Y000194D01*
X015223Y000181D01*
X015156Y000172D01*
X015089Y000166D01*
X015022Y000164D01*
X001478Y000164D01*
X001411Y000166D01*
X001344Y000172D01*
X001277Y000181D01*
X001211Y000194D01*
X001146Y000211D01*
X001082Y000231D01*
X001019Y000255D01*
X000957Y000283D01*
X000898Y000314D01*
X000840Y000348D01*
X000784Y000385D01*
X000730Y000426D01*
X000678Y000469D01*
X000629Y000515D01*
X000583Y000564D01*
X000540Y000616D01*
X000499Y000670D01*
X000462Y000726D01*
X000428Y000784D01*
X000397Y000843D01*
X000369Y000905D01*
X000345Y000968D01*
X000325Y001032D01*
X000308Y001097D01*
X000295Y001163D01*
X000286Y001230D01*
X000280Y001297D01*
X000278Y001364D01*
X000309Y003707D02*
X016191Y003707D01*
D13*
X015380Y003039D02*
X015328Y003090D01*
X015225Y003090D01*
X015173Y003039D01*
X015173Y002987D01*
X015380Y002780D01*
X015173Y002780D01*
X008480Y002780D02*
X008273Y002780D01*
X008377Y002780D02*
X008377Y003090D01*
X008480Y002987D01*
X008158Y002935D02*
X008158Y002832D01*
X008106Y002780D01*
X008003Y002780D01*
X007951Y002832D01*
X007951Y002883D01*
X008003Y002935D01*
X008158Y002935D01*
X008054Y003039D01*
X007951Y003090D01*
X001530Y003039D02*
X001478Y003090D01*
X001375Y003090D01*
X001323Y003039D01*
X001323Y002987D01*
X001375Y002935D01*
X001323Y002883D01*
X001323Y002832D01*
X001375Y002780D01*
X001478Y002780D01*
X001530Y002832D01*
X001427Y002935D02*
X001375Y002935D01*
X001208Y002832D02*
X001156Y002780D01*
X001053Y002780D01*
X001001Y002832D01*
X001001Y003039D01*
X001208Y002832D01*
X001208Y003039D01*
X001156Y003090D01*
X001053Y003090D01*
X001001Y003039D01*
D14*
X001159Y011660D02*
X001161Y011708D01*
X001167Y011756D01*
X001177Y011803D01*
X001190Y011849D01*
X001208Y011894D01*
X001228Y011938D01*
X001253Y011980D01*
X001281Y012019D01*
X001311Y012056D01*
X001345Y012090D01*
X001382Y012122D01*
X001420Y012151D01*
X001461Y012176D01*
X001504Y012198D01*
X001549Y012216D01*
X001595Y012230D01*
X001642Y012241D01*
X001690Y012248D01*
X001738Y012251D01*
X001786Y012250D01*
X001834Y012245D01*
X001882Y012236D01*
X001928Y012224D01*
X001973Y012207D01*
X002017Y012187D01*
X002059Y012164D01*
X002099Y012137D01*
X002137Y012107D01*
X002172Y012074D01*
X002204Y012038D01*
X002234Y012000D01*
X002260Y011959D01*
X002282Y011916D01*
X002302Y011872D01*
X002317Y011827D01*
X002329Y011780D01*
X002337Y011732D01*
X002341Y011684D01*
X002341Y011636D01*
X002337Y011588D01*
X002329Y011540D01*
X002317Y011493D01*
X002302Y011448D01*
X002282Y011404D01*
X002260Y011361D01*
X002234Y011320D01*
X002204Y011282D01*
X002172Y011246D01*
X002137Y011213D01*
X002099Y011183D01*
X002059Y011156D01*
X002017Y011133D01*
X001973Y011113D01*
X001928Y011096D01*
X001882Y011084D01*
X001834Y011075D01*
X001786Y011070D01*
X001738Y011069D01*
X001690Y011072D01*
X001642Y011079D01*
X001595Y011090D01*
X001549Y011104D01*
X001504Y011122D01*
X001461Y011144D01*
X001420Y011169D01*
X001382Y011198D01*
X001345Y011230D01*
X001311Y011264D01*
X001281Y011301D01*
X001253Y011340D01*
X001228Y011382D01*
X001208Y011426D01*
X001190Y011471D01*
X001177Y011517D01*
X001167Y011564D01*
X001161Y011612D01*
X001159Y011660D01*
X014159Y011660D02*
X014161Y011708D01*
X014167Y011756D01*
X014177Y011803D01*
X014190Y011849D01*
X014208Y011894D01*
X014228Y011938D01*
X014253Y011980D01*
X014281Y012019D01*
X014311Y012056D01*
X014345Y012090D01*
X014382Y012122D01*
X014420Y012151D01*
X014461Y012176D01*
X014504Y012198D01*
X014549Y012216D01*
X014595Y012230D01*
X014642Y012241D01*
X014690Y012248D01*
X014738Y012251D01*
X014786Y012250D01*
X014834Y012245D01*
X014882Y012236D01*
X014928Y012224D01*
X014973Y012207D01*
X015017Y012187D01*
X015059Y012164D01*
X015099Y012137D01*
X015137Y012107D01*
X015172Y012074D01*
X015204Y012038D01*
X015234Y012000D01*
X015260Y011959D01*
X015282Y011916D01*
X015302Y011872D01*
X015317Y011827D01*
X015329Y011780D01*
X015337Y011732D01*
X015341Y011684D01*
X015341Y011636D01*
X015337Y011588D01*
X015329Y011540D01*
X015317Y011493D01*
X015302Y011448D01*
X015282Y011404D01*
X015260Y011361D01*
X015234Y011320D01*
X015204Y011282D01*
X015172Y011246D01*
X015137Y011213D01*
X015099Y011183D01*
X015059Y011156D01*
X015017Y011133D01*
X014973Y011113D01*
X014928Y011096D01*
X014882Y011084D01*
X014834Y011075D01*
X014786Y011070D01*
X014738Y011069D01*
X014690Y011072D01*
X014642Y011079D01*
X014595Y011090D01*
X014549Y011104D01*
X014504Y011122D01*
X014461Y011144D01*
X014420Y011169D01*
X014382Y011198D01*
X014345Y011230D01*
X014311Y011264D01*
X014281Y011301D01*
X014253Y011340D01*
X014228Y011382D01*
X014208Y011426D01*
X014190Y011471D01*
X014177Y011517D01*
X014167Y011564D01*
X014161Y011612D01*
X014159Y011660D01*
D15*
X015028Y005196D02*
X015172Y005196D01*
X015191Y005006D01*
X015255Y004985D01*
X015315Y004954D01*
X015464Y005075D01*
X015565Y004974D01*
X015444Y004825D01*
X015475Y004765D01*
X015496Y004701D01*
X015686Y004682D01*
X015686Y004538D01*
X015496Y004519D01*
X015475Y004455D01*
X015444Y004395D01*
X015565Y004246D01*
X015464Y004145D01*
X015315Y004266D01*
X015255Y004235D01*
X015171Y004439D01*
X015208Y004461D01*
X015240Y004490D01*
X015264Y004526D01*
X015279Y004567D01*
X015285Y004610D01*
X015279Y004654D01*
X015264Y004695D01*
X015239Y004732D01*
X015206Y004761D01*
X015167Y004782D01*
X015124Y004793D01*
X015080Y004793D01*
X015037Y004783D01*
X014998Y004763D01*
X014964Y004735D01*
X014938Y004699D01*
X014922Y004658D01*
X014916Y004614D01*
X014920Y004570D01*
X014935Y004528D01*
X014959Y004491D01*
X014991Y004461D01*
X015029Y004439D01*
X014945Y004235D01*
X014885Y004266D01*
X014736Y004145D01*
X014635Y004246D01*
X014756Y004395D01*
X014725Y004455D01*
X014704Y004519D01*
X014514Y004538D01*
X014514Y004682D01*
X014704Y004701D01*
X014725Y004765D01*
X014756Y004825D01*
X014635Y004974D01*
X014736Y005075D01*
X014885Y004954D01*
X014945Y004985D01*
X015009Y005006D01*
X015028Y005196D01*
X015025Y005164D02*
X015175Y005164D01*
X015181Y005106D02*
X015019Y005106D01*
X015013Y005048D02*
X015187Y005048D01*
X015237Y004991D02*
X014963Y004991D01*
X014840Y004991D02*
X014652Y004991D01*
X014667Y004933D02*
X015533Y004933D01*
X015548Y004991D02*
X015360Y004991D01*
X015431Y005048D02*
X015490Y005048D01*
X015486Y004876D02*
X014714Y004876D01*
X014752Y004818D02*
X015448Y004818D01*
X015477Y004761D02*
X015206Y004761D01*
X015258Y004703D02*
X015495Y004703D01*
X015686Y004646D02*
X015280Y004646D01*
X015282Y004588D02*
X015686Y004588D01*
X015612Y004530D02*
X015266Y004530D01*
X015222Y004473D02*
X015481Y004473D01*
X015455Y004415D02*
X015181Y004415D01*
X015204Y004358D02*
X015475Y004358D01*
X015521Y004300D02*
X015228Y004300D01*
X015252Y004243D02*
X015271Y004243D01*
X015343Y004243D02*
X015562Y004243D01*
X015504Y004185D02*
X015414Y004185D01*
X014996Y004358D02*
X014725Y004358D01*
X014745Y004415D02*
X015019Y004415D01*
X014978Y004473D02*
X014719Y004473D01*
X014588Y004530D02*
X014934Y004530D01*
X014918Y004588D02*
X014514Y004588D01*
X014514Y004646D02*
X014920Y004646D01*
X014941Y004703D02*
X014705Y004703D01*
X014723Y004761D02*
X014994Y004761D01*
X014769Y005048D02*
X014710Y005048D01*
X014679Y004300D02*
X014972Y004300D01*
X014948Y004243D02*
X014929Y004243D01*
X014857Y004243D02*
X014638Y004243D01*
X014696Y004185D02*
X014786Y004185D01*
D16*
X008293Y008355D03*
X007649Y008768D03*
X007643Y008798D03*
X007643Y008804D03*
X007637Y008821D03*
X007637Y008827D03*
X007637Y008833D03*
X007631Y008845D03*
X007631Y008851D03*
X007631Y008857D03*
X007537Y008857D03*
X007531Y008833D03*
X007531Y008827D03*
X007525Y008804D03*
X007519Y008774D03*
X007584Y009069D03*
X005476Y009707D03*
X005470Y009731D03*
X005470Y009737D03*
X005464Y009760D03*
X005464Y009766D03*
X005458Y009784D03*
X005458Y009790D03*
X005458Y009796D03*
X005452Y009814D03*
X005358Y009814D03*
X005358Y009808D03*
X005352Y009790D03*
X005352Y009784D03*
X005346Y009760D03*
X005346Y009754D03*
X005340Y009731D03*
X005405Y010026D03*
X005405Y010032D03*
D17*
X005408Y010020D03*
X005455Y009808D03*
X005455Y009802D03*
X005461Y009778D03*
X005461Y009772D03*
X005467Y009754D03*
X005467Y009749D03*
X005467Y009743D03*
X005473Y009725D03*
X005473Y009719D03*
X005473Y009713D03*
X005479Y009701D03*
X005479Y009695D03*
X005479Y009690D03*
X005479Y009684D03*
X005479Y009678D03*
X005485Y009672D03*
X005485Y009666D03*
X005485Y009660D03*
X005485Y009654D03*
X005491Y009642D03*
X005491Y009636D03*
X005491Y009630D03*
X005491Y009625D03*
X005497Y009613D03*
X005497Y009607D03*
X005497Y009601D03*
X005503Y009583D03*
X005503Y009577D03*
X005503Y009571D03*
X005319Y009625D03*
X005319Y009630D03*
X005319Y009636D03*
X005325Y009648D03*
X005325Y009654D03*
X005325Y009660D03*
X005325Y009666D03*
X005331Y009678D03*
X005331Y009684D03*
X005331Y009690D03*
X005331Y009695D03*
X005337Y009701D03*
X005337Y009707D03*
X005337Y009713D03*
X005337Y009719D03*
X005337Y009725D03*
X005343Y009737D03*
X005343Y009743D03*
X005343Y009749D03*
X005349Y009766D03*
X005349Y009772D03*
X005349Y009778D03*
X005355Y009796D03*
X005355Y009802D03*
X005314Y009607D03*
X005314Y009601D03*
X005308Y009577D03*
X005308Y009571D03*
X004694Y009731D03*
X004688Y009713D03*
X004682Y009695D03*
X004676Y009684D03*
X004670Y009666D03*
X004664Y009648D03*
X004658Y009630D03*
X004652Y009619D03*
X005402Y008355D03*
X006849Y009619D03*
X006855Y009636D03*
X006861Y009648D03*
X006867Y009666D03*
X006873Y009684D03*
X006879Y009701D03*
X006890Y009731D03*
X007581Y009064D03*
X007581Y009058D03*
X007534Y008851D03*
X007534Y008845D03*
X007534Y008839D03*
X007528Y008821D03*
X007528Y008816D03*
X007528Y008810D03*
X007522Y008798D03*
X007522Y008792D03*
X007522Y008786D03*
X007522Y008780D03*
X007516Y008768D03*
X007516Y008762D03*
X007516Y008756D03*
X007516Y008751D03*
X007510Y008745D03*
X007510Y008739D03*
X007510Y008733D03*
X007510Y008727D03*
X007510Y008721D03*
X007505Y008715D03*
X007505Y008709D03*
X007505Y008703D03*
X007505Y008697D03*
X007499Y008686D03*
X007499Y008680D03*
X007499Y008674D03*
X007493Y008656D03*
X007493Y008650D03*
X007493Y008644D03*
X007487Y008621D03*
X007670Y008662D03*
X007670Y008668D03*
X007670Y008674D03*
X007670Y008680D03*
X007664Y008691D03*
X007664Y008697D03*
X007664Y008703D03*
X007664Y008709D03*
X007658Y008715D03*
X007658Y008721D03*
X007658Y008727D03*
X007658Y008733D03*
X007658Y008739D03*
X007652Y008745D03*
X007652Y008751D03*
X007652Y008756D03*
X007652Y008762D03*
X007646Y008774D03*
X007646Y008780D03*
X007646Y008786D03*
X007646Y008792D03*
X007640Y008810D03*
X007640Y008816D03*
X007634Y008839D03*
X007676Y008650D03*
X007676Y008644D03*
X007676Y008638D03*
X007682Y008621D03*
X007682Y008615D03*
D18*
X007581Y008981D03*
X007510Y009424D03*
X007711Y009424D03*
X007711Y009926D03*
X007510Y009926D03*
X006985Y009949D03*
X006985Y009955D03*
X006755Y009406D03*
X006755Y009400D03*
X006755Y009394D03*
X006760Y008969D03*
X006760Y008762D03*
X006040Y008461D03*
X005508Y008461D03*
X005302Y008656D03*
X005302Y008969D03*
X005503Y008969D03*
X006229Y009424D03*
X006229Y009926D03*
X006028Y009926D03*
X004788Y009943D03*
X004788Y009949D03*
X004788Y009955D03*
X004558Y009406D03*
X004558Y009400D03*
X004558Y009394D03*
X008201Y008461D03*
X008296Y008361D03*
X008390Y008461D03*
X008390Y008969D03*
D19*
X008408Y008928D03*
X008408Y008922D03*
X008408Y008916D03*
X008408Y008910D03*
X008408Y008904D03*
X008408Y008898D03*
X008408Y008892D03*
X008408Y008886D03*
X008408Y008880D03*
X008408Y008875D03*
X008408Y008869D03*
X008408Y008863D03*
X008408Y008857D03*
X008408Y008851D03*
X008408Y008845D03*
X008408Y008839D03*
X008408Y008833D03*
X008408Y008827D03*
X008408Y008821D03*
X008408Y008816D03*
X008408Y008810D03*
X008408Y008804D03*
X008408Y008798D03*
X008408Y008792D03*
X008408Y008786D03*
X008408Y008780D03*
X008408Y008774D03*
X008408Y008768D03*
X008408Y008762D03*
X008408Y008756D03*
X008408Y008751D03*
X008408Y008745D03*
X008408Y008739D03*
X008408Y008733D03*
X008408Y008727D03*
X008408Y008721D03*
X008408Y008715D03*
X008408Y008709D03*
X008408Y008703D03*
X008408Y008697D03*
X008408Y008691D03*
X008408Y008686D03*
X008408Y008680D03*
X008408Y008674D03*
X008408Y008668D03*
X008408Y008662D03*
X008408Y008656D03*
X008408Y008650D03*
X008408Y008644D03*
X008408Y008638D03*
X008408Y008632D03*
X008408Y008627D03*
X008408Y008621D03*
X008408Y008615D03*
X008408Y008609D03*
X008408Y008603D03*
X008408Y008597D03*
X008408Y008591D03*
X008408Y008585D03*
X008408Y008579D03*
X008408Y008573D03*
X008408Y008567D03*
X008408Y008562D03*
X008408Y008556D03*
X008408Y008550D03*
X008408Y008544D03*
X008408Y008538D03*
X008408Y008532D03*
X008408Y008526D03*
X008408Y008520D03*
X008408Y008514D03*
X008408Y008508D03*
X008408Y008503D03*
X008178Y008503D03*
X008178Y008508D03*
X008178Y008514D03*
X008178Y008520D03*
X008178Y008526D03*
X008178Y008532D03*
X008178Y008538D03*
X008178Y008544D03*
X008178Y008550D03*
X008178Y008556D03*
X008178Y008875D03*
X008178Y008880D03*
X008178Y008886D03*
X008178Y008892D03*
X008178Y008898D03*
X008178Y008904D03*
X008178Y008910D03*
X008178Y008916D03*
X008178Y008922D03*
X008178Y008928D03*
X007581Y009034D03*
X007611Y009317D03*
X007729Y009453D03*
X007729Y009459D03*
X007729Y009465D03*
X007729Y009471D03*
X007735Y009489D03*
X007735Y009495D03*
X007735Y009501D03*
X007735Y009506D03*
X007735Y009512D03*
X007735Y009518D03*
X007735Y009524D03*
X007735Y009530D03*
X007735Y009536D03*
X007735Y009542D03*
X007735Y009548D03*
X007735Y009554D03*
X007735Y009560D03*
X007735Y009566D03*
X007735Y009571D03*
X007735Y009577D03*
X007735Y009583D03*
X007735Y009589D03*
X007735Y009595D03*
X007735Y009601D03*
X007735Y009607D03*
X007735Y009613D03*
X007735Y009619D03*
X007735Y009625D03*
X007735Y009630D03*
X007735Y009636D03*
X007735Y009642D03*
X007735Y009648D03*
X007735Y009654D03*
X007735Y009660D03*
X007735Y009666D03*
X007735Y009672D03*
X007735Y009678D03*
X007735Y009684D03*
X007735Y009690D03*
X007735Y009695D03*
X007735Y009701D03*
X007735Y009707D03*
X007735Y009713D03*
X007735Y009719D03*
X007735Y009725D03*
X007735Y009731D03*
X007735Y009737D03*
X007735Y009743D03*
X007735Y009749D03*
X007735Y009754D03*
X007735Y009760D03*
X007735Y009766D03*
X007735Y009772D03*
X007735Y009778D03*
X007735Y009784D03*
X007735Y009790D03*
X007735Y009796D03*
X007735Y009802D03*
X007735Y009808D03*
X007735Y009814D03*
X007735Y009819D03*
X007735Y009825D03*
X007735Y009831D03*
X007735Y009837D03*
X007735Y009843D03*
X007735Y009849D03*
X007735Y009855D03*
X007735Y009861D03*
X007729Y009879D03*
X007729Y009884D03*
X007729Y009890D03*
X007729Y009896D03*
X007611Y010032D03*
X007493Y009896D03*
X007493Y009890D03*
X007493Y009884D03*
X007493Y009879D03*
X007493Y009873D03*
X007493Y009867D03*
X007493Y009861D03*
X007493Y009855D03*
X007493Y009849D03*
X007493Y009843D03*
X007493Y009837D03*
X007493Y009831D03*
X007493Y009825D03*
X007493Y009819D03*
X007493Y009814D03*
X007493Y009808D03*
X007493Y009802D03*
X007493Y009796D03*
X007493Y009790D03*
X007493Y009784D03*
X007493Y009778D03*
X007493Y009772D03*
X007493Y009766D03*
X007493Y009760D03*
X007493Y009754D03*
X007493Y009749D03*
X007493Y009743D03*
X007493Y009737D03*
X007493Y009731D03*
X007493Y009725D03*
X007493Y009719D03*
X007493Y009713D03*
X007493Y009707D03*
X007493Y009701D03*
X007493Y009695D03*
X007493Y009690D03*
X007493Y009684D03*
X007493Y009678D03*
X007493Y009672D03*
X007493Y009666D03*
X007493Y009660D03*
X007493Y009654D03*
X007493Y009648D03*
X007493Y009642D03*
X007493Y009636D03*
X007493Y009630D03*
X007493Y009625D03*
X007493Y009619D03*
X007493Y009613D03*
X007493Y009607D03*
X007493Y009601D03*
X007493Y009595D03*
X007493Y009589D03*
X007493Y009583D03*
X007493Y009577D03*
X007493Y009571D03*
X007493Y009566D03*
X007493Y009560D03*
X007493Y009554D03*
X007493Y009548D03*
X007493Y009542D03*
X007493Y009536D03*
X007493Y009530D03*
X007493Y009524D03*
X007493Y009518D03*
X007493Y009512D03*
X007493Y009506D03*
X007493Y009501D03*
X007493Y009495D03*
X007493Y009489D03*
X007493Y009483D03*
X007493Y009477D03*
X007493Y009471D03*
X007493Y009465D03*
X007493Y009459D03*
X007493Y009453D03*
X006997Y009453D03*
X006997Y009447D03*
X006997Y009441D03*
X006997Y009436D03*
X006997Y009430D03*
X006997Y009424D03*
X006997Y009418D03*
X006997Y009412D03*
X006997Y009406D03*
X006997Y009400D03*
X006997Y009394D03*
X006997Y009388D03*
X006997Y009382D03*
X006997Y009377D03*
X006997Y009371D03*
X006997Y009365D03*
X006997Y009359D03*
X006997Y009353D03*
X006997Y009347D03*
X006997Y009341D03*
X006997Y009335D03*
X006997Y009329D03*
X006997Y009323D03*
X006997Y009317D03*
X006997Y009459D03*
X006997Y009465D03*
X006997Y009471D03*
X006997Y009477D03*
X006997Y009483D03*
X006997Y009489D03*
X006997Y009495D03*
X006997Y009501D03*
X006997Y009506D03*
X006997Y009512D03*
X006997Y009518D03*
X006997Y009524D03*
X006997Y009530D03*
X006997Y009536D03*
X006997Y009542D03*
X006997Y009548D03*
X006997Y009554D03*
X006997Y009560D03*
X006997Y009566D03*
X006997Y009571D03*
X006997Y009577D03*
X006997Y009583D03*
X006997Y009589D03*
X006997Y009595D03*
X006997Y009601D03*
X006997Y009607D03*
X006997Y009613D03*
X006997Y009619D03*
X006997Y009625D03*
X006997Y009630D03*
X006997Y009636D03*
X006997Y009642D03*
X006997Y009648D03*
X006997Y009654D03*
X006997Y009660D03*
X006997Y009666D03*
X006997Y009672D03*
X006997Y009678D03*
X006997Y009684D03*
X006997Y009690D03*
X006997Y009695D03*
X006997Y009701D03*
X006997Y009707D03*
X006997Y009713D03*
X006997Y009719D03*
X006997Y009725D03*
X006997Y009731D03*
X006743Y009731D03*
X006743Y009737D03*
X006743Y009743D03*
X006743Y009749D03*
X006743Y009754D03*
X006743Y009760D03*
X006743Y009766D03*
X006743Y009772D03*
X006743Y009778D03*
X006743Y009784D03*
X006743Y009790D03*
X006743Y009796D03*
X006743Y009802D03*
X006743Y009808D03*
X006743Y009814D03*
X006743Y009819D03*
X006743Y009825D03*
X006743Y009831D03*
X006743Y009837D03*
X006743Y009843D03*
X006743Y009849D03*
X006743Y009855D03*
X006743Y009861D03*
X006743Y009867D03*
X006743Y009873D03*
X006743Y009879D03*
X006743Y009884D03*
X006743Y009890D03*
X006743Y009896D03*
X006743Y009902D03*
X006743Y009908D03*
X006743Y009914D03*
X006743Y009920D03*
X006743Y009926D03*
X006743Y009932D03*
X006743Y009938D03*
X006743Y009943D03*
X006743Y009949D03*
X006743Y009955D03*
X006743Y009961D03*
X006743Y009967D03*
X006743Y009973D03*
X006743Y009979D03*
X006743Y009985D03*
X006743Y009991D03*
X006743Y009997D03*
X006743Y010003D03*
X006743Y010008D03*
X006743Y010014D03*
X006743Y010020D03*
X006743Y010026D03*
X006743Y010032D03*
X006997Y010020D03*
X006997Y010014D03*
X006743Y009725D03*
X006743Y009719D03*
X006743Y009713D03*
X006743Y009707D03*
X006743Y009701D03*
X006743Y009695D03*
X006743Y009690D03*
X006743Y009684D03*
X006743Y009678D03*
X006743Y009672D03*
X006743Y009666D03*
X006743Y009660D03*
X006743Y009654D03*
X006743Y009648D03*
X006743Y009642D03*
X006743Y009636D03*
X006743Y009630D03*
X006743Y009625D03*
X006743Y009619D03*
X006743Y009341D03*
X006743Y009335D03*
X006743Y009329D03*
X006743Y008945D03*
X006737Y008934D03*
X006737Y008928D03*
X006737Y008922D03*
X006737Y008916D03*
X006731Y008904D03*
X006731Y008898D03*
X006731Y008892D03*
X006731Y008886D03*
X006731Y008880D03*
X006731Y008875D03*
X006731Y008869D03*
X006731Y008863D03*
X006731Y008857D03*
X006731Y008851D03*
X006731Y008845D03*
X006731Y008839D03*
X006731Y008833D03*
X006731Y008827D03*
X006737Y008816D03*
X006737Y008810D03*
X006737Y008804D03*
X006737Y008798D03*
X006743Y008786D03*
X006808Y008650D03*
X006802Y008632D03*
X006802Y008627D03*
X006796Y008615D03*
X006796Y008609D03*
X006790Y008597D03*
X006790Y008591D03*
X006784Y008579D03*
X006784Y008573D03*
X006778Y008562D03*
X006778Y008556D03*
X006772Y008544D03*
X006772Y008538D03*
X006766Y008526D03*
X006766Y008520D03*
X006760Y008508D03*
X006760Y008503D03*
X006755Y008491D03*
X006755Y008485D03*
X006749Y008473D03*
X006749Y008467D03*
X006743Y008455D03*
X006743Y008449D03*
X006737Y008432D03*
X006731Y008414D03*
X006725Y008396D03*
X006719Y008379D03*
X006713Y008361D03*
X006973Y008361D03*
X006973Y008367D03*
X006973Y008373D03*
X006973Y008379D03*
X006973Y008384D03*
X006973Y008390D03*
X006973Y008396D03*
X006973Y008402D03*
X006973Y008408D03*
X006973Y008414D03*
X006973Y008420D03*
X006973Y008426D03*
X006973Y008432D03*
X006973Y008438D03*
X006973Y008443D03*
X006973Y008449D03*
X006973Y008455D03*
X006973Y008461D03*
X006973Y008467D03*
X006973Y008473D03*
X006973Y008479D03*
X006973Y008485D03*
X006973Y008491D03*
X006973Y008497D03*
X006973Y008503D03*
X006973Y008508D03*
X006973Y008514D03*
X006973Y008520D03*
X006973Y008526D03*
X006973Y008532D03*
X006973Y008538D03*
X006973Y008544D03*
X006973Y008550D03*
X006973Y008556D03*
X006973Y008562D03*
X006973Y008567D03*
X006973Y008573D03*
X006973Y008579D03*
X006973Y008585D03*
X006973Y008591D03*
X006973Y008597D03*
X006973Y008603D03*
X006973Y008609D03*
X006973Y008615D03*
X006973Y008621D03*
X006973Y008627D03*
X006973Y008632D03*
X006973Y008638D03*
X006973Y008644D03*
X006973Y008650D03*
X006973Y008656D03*
X006973Y008756D03*
X006973Y008762D03*
X006973Y008768D03*
X006973Y008774D03*
X006973Y008780D03*
X006973Y008786D03*
X006973Y008792D03*
X006973Y008798D03*
X006973Y008804D03*
X006973Y008810D03*
X006973Y008816D03*
X006973Y008821D03*
X006973Y008827D03*
X006973Y008833D03*
X006973Y008839D03*
X006973Y008845D03*
X006973Y008851D03*
X006973Y008857D03*
X006973Y008863D03*
X006973Y008869D03*
X006973Y008875D03*
X006973Y008880D03*
X006973Y008886D03*
X006973Y008892D03*
X006973Y008898D03*
X006973Y008904D03*
X006973Y008910D03*
X006973Y008916D03*
X006973Y008922D03*
X006973Y008928D03*
X006973Y008934D03*
X006973Y008940D03*
X006973Y008945D03*
X006973Y008951D03*
X006973Y008957D03*
X006973Y008963D03*
X006973Y008969D03*
X006973Y008975D03*
X007463Y008508D03*
X007457Y008479D03*
X007451Y008455D03*
X007451Y008449D03*
X007445Y008426D03*
X007445Y008420D03*
X007440Y008402D03*
X007440Y008396D03*
X007440Y008390D03*
X007434Y008373D03*
X007434Y008367D03*
X007434Y008361D03*
X007711Y008467D03*
X007711Y008473D03*
X007705Y008497D03*
X007717Y008443D03*
X007717Y008438D03*
X007723Y008420D03*
X007723Y008414D03*
X007723Y008408D03*
X007729Y008390D03*
X007729Y008384D03*
X007729Y008379D03*
X007735Y008367D03*
X007735Y008361D03*
X008402Y009424D03*
X008402Y009430D03*
X008402Y009436D03*
X008402Y009441D03*
X008402Y009447D03*
X008402Y009453D03*
X008402Y009459D03*
X008402Y009465D03*
X008402Y009471D03*
X008402Y009477D03*
X008402Y009483D03*
X008402Y009489D03*
X008402Y009495D03*
X008402Y009501D03*
X008402Y009506D03*
X008402Y009512D03*
X008402Y009518D03*
X008402Y009524D03*
X008402Y009530D03*
X008402Y009536D03*
X008402Y009542D03*
X008402Y009548D03*
X008402Y009554D03*
X008402Y009560D03*
X008402Y009566D03*
X008402Y009571D03*
X008402Y009577D03*
X008402Y009583D03*
X008402Y009589D03*
X008402Y009595D03*
X008402Y009601D03*
X008402Y009607D03*
X008402Y009613D03*
X008402Y009619D03*
X008402Y009625D03*
X008402Y009630D03*
X008402Y009636D03*
X008402Y009642D03*
X008402Y009648D03*
X008402Y009654D03*
X008402Y009660D03*
X008402Y009666D03*
X008402Y009672D03*
X008402Y009678D03*
X008402Y009684D03*
X008402Y009690D03*
X008402Y009695D03*
X008402Y009701D03*
X008402Y009707D03*
X008402Y009713D03*
X008402Y009719D03*
X008402Y009725D03*
X008402Y009731D03*
X008402Y009737D03*
X008402Y009743D03*
X008402Y009749D03*
X008402Y009754D03*
X008402Y009760D03*
X008402Y009766D03*
X008402Y009772D03*
X008402Y009778D03*
X008402Y009784D03*
X008402Y009790D03*
X008402Y009796D03*
X008402Y009802D03*
X008402Y009808D03*
X008402Y009814D03*
X008402Y009819D03*
X008402Y009825D03*
X008402Y009831D03*
X008402Y009837D03*
X008402Y009843D03*
X008402Y009849D03*
X008402Y009855D03*
X008402Y009861D03*
X008402Y009867D03*
X008402Y009873D03*
X008402Y009879D03*
X008402Y009884D03*
X008402Y009890D03*
X008402Y009896D03*
X008402Y009902D03*
X008402Y009908D03*
X008402Y009914D03*
X008402Y009920D03*
X008402Y009926D03*
X008402Y009932D03*
X008402Y009938D03*
X008402Y009943D03*
X008402Y009949D03*
X008402Y009955D03*
X008402Y009961D03*
X008402Y009967D03*
X008402Y009973D03*
X008402Y009979D03*
X008402Y009985D03*
X008402Y009991D03*
X008402Y009997D03*
X008402Y010003D03*
X008402Y010008D03*
X008402Y010014D03*
X008402Y010020D03*
X008402Y010026D03*
X008402Y010032D03*
X006247Y009896D03*
X006247Y009890D03*
X006247Y009884D03*
X006247Y009879D03*
X006247Y009873D03*
X006247Y009867D03*
X006247Y009861D03*
X006247Y009855D03*
X006247Y009849D03*
X006247Y009843D03*
X006247Y009837D03*
X006247Y009831D03*
X006247Y009825D03*
X006247Y009819D03*
X006247Y009814D03*
X006247Y009808D03*
X006247Y009802D03*
X006247Y009796D03*
X006247Y009790D03*
X006247Y009784D03*
X006247Y009778D03*
X006247Y009772D03*
X006247Y009766D03*
X006247Y009760D03*
X006247Y009754D03*
X006247Y009749D03*
X006247Y009743D03*
X006247Y009737D03*
X006247Y009731D03*
X006247Y009725D03*
X006247Y009719D03*
X006247Y009713D03*
X006247Y009707D03*
X006247Y009701D03*
X006247Y009695D03*
X006247Y009690D03*
X006247Y009684D03*
X006247Y009678D03*
X006247Y009672D03*
X006247Y009666D03*
X006247Y009660D03*
X006247Y009654D03*
X006247Y009648D03*
X006247Y009642D03*
X006247Y009636D03*
X006247Y009630D03*
X006247Y009625D03*
X006247Y009619D03*
X006247Y009613D03*
X006247Y009607D03*
X006247Y009601D03*
X006247Y009595D03*
X006247Y009589D03*
X006247Y009583D03*
X006247Y009577D03*
X006247Y009571D03*
X006247Y009566D03*
X006247Y009560D03*
X006247Y009554D03*
X006247Y009548D03*
X006247Y009542D03*
X006247Y009536D03*
X006247Y009530D03*
X006247Y009524D03*
X006247Y009518D03*
X006247Y009512D03*
X006247Y009506D03*
X006247Y009501D03*
X006247Y009495D03*
X006247Y009489D03*
X006247Y009483D03*
X006247Y009477D03*
X006247Y009471D03*
X006247Y009465D03*
X006247Y009459D03*
X006247Y009453D03*
X006010Y009453D03*
X006010Y009459D03*
X006010Y009465D03*
X006010Y009471D03*
X006005Y009483D03*
X006005Y009489D03*
X006005Y009495D03*
X006005Y009501D03*
X006005Y009506D03*
X006005Y009512D03*
X006005Y009518D03*
X006005Y009524D03*
X006005Y009530D03*
X006005Y009536D03*
X006005Y009542D03*
X006005Y009548D03*
X006005Y009554D03*
X006005Y009560D03*
X006005Y009566D03*
X006005Y009571D03*
X006005Y009577D03*
X006005Y009583D03*
X006005Y009589D03*
X006005Y009595D03*
X006005Y009601D03*
X006005Y009607D03*
X006005Y009613D03*
X006005Y009619D03*
X006005Y009831D03*
X006005Y009837D03*
X006005Y009843D03*
X006005Y009849D03*
X006005Y009855D03*
X006005Y009861D03*
X006005Y009867D03*
X006010Y009879D03*
X006010Y009884D03*
X006010Y009890D03*
X006010Y009896D03*
X006129Y010032D03*
X005532Y009436D03*
X005538Y009412D03*
X005538Y009406D03*
X005544Y009382D03*
X005544Y009377D03*
X005550Y009359D03*
X005550Y009353D03*
X005550Y009347D03*
X005550Y009341D03*
X005556Y009329D03*
X005556Y009323D03*
X005556Y009317D03*
X005266Y009371D03*
X005266Y009377D03*
X005266Y009382D03*
X005272Y009400D03*
X005272Y009406D03*
X005278Y009430D03*
X005278Y009436D03*
X005284Y009459D03*
X005260Y009353D03*
X005260Y009347D03*
X005260Y009341D03*
X005255Y009329D03*
X005255Y009323D03*
X005255Y009317D03*
X005402Y009075D03*
X005520Y008940D03*
X005520Y008934D03*
X005520Y008928D03*
X005520Y008922D03*
X005526Y008916D03*
X005526Y008910D03*
X005526Y008904D03*
X005526Y008898D03*
X005526Y008892D03*
X005526Y008886D03*
X005526Y008880D03*
X005526Y008875D03*
X005526Y008869D03*
X005526Y008863D03*
X005526Y008857D03*
X005526Y008851D03*
X005526Y008845D03*
X005520Y008839D03*
X005520Y008833D03*
X005520Y008827D03*
X005278Y008875D03*
X005278Y008880D03*
X005278Y008886D03*
X005278Y008892D03*
X005278Y008898D03*
X005278Y008904D03*
X005284Y008928D03*
X005284Y008627D03*
X005284Y008621D03*
X005284Y008615D03*
X005284Y008609D03*
X005284Y008603D03*
X005284Y008597D03*
X005284Y008591D03*
X005278Y008573D03*
X005278Y008567D03*
X005278Y008562D03*
X005278Y008556D03*
X005284Y008526D03*
X005284Y008520D03*
X005284Y008514D03*
X005284Y008508D03*
X005284Y008503D03*
X005284Y008497D03*
X005290Y008491D03*
X005290Y008485D03*
X005526Y008497D03*
X005532Y008508D03*
X005532Y008514D03*
X005532Y008520D03*
X005532Y008526D03*
X005532Y008532D03*
X005532Y008538D03*
X005532Y008544D03*
X005532Y008550D03*
X005532Y008556D03*
X006010Y008556D03*
X006010Y008562D03*
X006010Y008567D03*
X006010Y008573D03*
X006010Y008579D03*
X006010Y008585D03*
X006010Y008591D03*
X006010Y008597D03*
X006010Y008603D03*
X006010Y008609D03*
X006010Y008615D03*
X006010Y008621D03*
X006010Y008627D03*
X006010Y008632D03*
X006010Y008638D03*
X006010Y008644D03*
X006010Y008650D03*
X006010Y008656D03*
X006010Y008662D03*
X006010Y008668D03*
X006010Y008674D03*
X006010Y008680D03*
X006010Y008686D03*
X006010Y008691D03*
X006010Y008697D03*
X006010Y008703D03*
X006010Y008709D03*
X006010Y008715D03*
X006010Y008721D03*
X006010Y008727D03*
X006010Y008733D03*
X006010Y008739D03*
X006010Y008745D03*
X006010Y008751D03*
X006010Y008756D03*
X006010Y008762D03*
X006010Y008768D03*
X006010Y008774D03*
X006010Y008780D03*
X006010Y008786D03*
X006010Y008792D03*
X006010Y008798D03*
X006010Y008804D03*
X006010Y008810D03*
X006010Y008816D03*
X006010Y008821D03*
X006010Y008827D03*
X006010Y008833D03*
X006010Y008839D03*
X006010Y008845D03*
X006010Y008851D03*
X006010Y008857D03*
X006010Y008863D03*
X006010Y008869D03*
X006010Y008875D03*
X006010Y008880D03*
X006010Y008886D03*
X006010Y008892D03*
X006016Y008910D03*
X006016Y008916D03*
X006016Y008922D03*
X006016Y008928D03*
X006016Y008934D03*
X006241Y008934D03*
X006241Y008940D03*
X006241Y008945D03*
X006241Y008951D03*
X006241Y008957D03*
X006241Y008963D03*
X006241Y008969D03*
X006241Y008975D03*
X006241Y008928D03*
X006241Y008922D03*
X006241Y008916D03*
X006241Y008910D03*
X006241Y008904D03*
X006241Y008898D03*
X006241Y008892D03*
X006241Y008886D03*
X006241Y008880D03*
X006241Y008875D03*
X006241Y008869D03*
X006241Y008863D03*
X006241Y008857D03*
X006241Y008851D03*
X006241Y008845D03*
X006241Y008839D03*
X006241Y008833D03*
X006241Y008827D03*
X006241Y008821D03*
X006241Y008816D03*
X006241Y008810D03*
X006241Y008804D03*
X006241Y008798D03*
X006241Y008792D03*
X006241Y008786D03*
X006241Y008780D03*
X006241Y008774D03*
X006241Y008768D03*
X006241Y008762D03*
X006241Y008756D03*
X006241Y008751D03*
X006241Y008745D03*
X006241Y008739D03*
X006241Y008733D03*
X006241Y008727D03*
X006241Y008721D03*
X006241Y008715D03*
X006241Y008709D03*
X006241Y008703D03*
X006241Y008697D03*
X006241Y008691D03*
X006241Y008686D03*
X006241Y008680D03*
X006241Y008674D03*
X006241Y008668D03*
X006241Y008662D03*
X006241Y008656D03*
X006241Y008650D03*
X006241Y008644D03*
X006241Y008638D03*
X006241Y008632D03*
X006241Y008627D03*
X006241Y008621D03*
X006241Y008615D03*
X006241Y008609D03*
X006241Y008603D03*
X006241Y008597D03*
X006241Y008591D03*
X006241Y008585D03*
X006241Y008579D03*
X006241Y008573D03*
X006241Y008567D03*
X006241Y008562D03*
X006241Y008556D03*
X006241Y008550D03*
X006241Y008544D03*
X006241Y008538D03*
X006241Y008532D03*
X006241Y008526D03*
X006241Y008520D03*
X006241Y008514D03*
X006241Y008508D03*
X006241Y008503D03*
X006241Y008497D03*
X006241Y008491D03*
X006241Y008485D03*
X006241Y008479D03*
X006241Y008473D03*
X006241Y008467D03*
X006241Y008461D03*
X006241Y008455D03*
X006022Y008485D03*
X006022Y008491D03*
X006016Y008497D03*
X006016Y008503D03*
X006016Y008508D03*
X006016Y008514D03*
X006016Y008520D03*
X006016Y008526D03*
X006010Y008550D03*
X004800Y009317D03*
X004800Y009323D03*
X004800Y009329D03*
X004800Y009335D03*
X004800Y009341D03*
X004800Y009347D03*
X004800Y009353D03*
X004800Y009359D03*
X004800Y009365D03*
X004800Y009371D03*
X004800Y009377D03*
X004800Y009382D03*
X004800Y009388D03*
X004800Y009394D03*
X004800Y009400D03*
X004800Y009406D03*
X004800Y009412D03*
X004800Y009418D03*
X004800Y009424D03*
X004800Y009430D03*
X004800Y009436D03*
X004800Y009441D03*
X004800Y009447D03*
X004800Y009453D03*
X004800Y009459D03*
X004800Y009465D03*
X004800Y009471D03*
X004800Y009477D03*
X004800Y009483D03*
X004800Y009489D03*
X004800Y009495D03*
X004800Y009501D03*
X004800Y009506D03*
X004800Y009512D03*
X004800Y009518D03*
X004800Y009524D03*
X004800Y009530D03*
X004800Y009536D03*
X004800Y009542D03*
X004800Y009548D03*
X004800Y009554D03*
X004800Y009560D03*
X004800Y009566D03*
X004800Y009571D03*
X004800Y009577D03*
X004800Y009583D03*
X004800Y009589D03*
X004800Y009595D03*
X004800Y009601D03*
X004800Y009607D03*
X004800Y009613D03*
X004800Y009619D03*
X004800Y009625D03*
X004800Y009630D03*
X004800Y009636D03*
X004800Y009642D03*
X004800Y009648D03*
X004800Y009654D03*
X004800Y009660D03*
X004800Y009666D03*
X004800Y009672D03*
X004800Y009678D03*
X004800Y009684D03*
X004800Y009690D03*
X004800Y009695D03*
X004800Y009701D03*
X004800Y009707D03*
X004800Y009713D03*
X004800Y009719D03*
X004800Y009725D03*
X004800Y009731D03*
X004546Y009731D03*
X004546Y009737D03*
X004546Y009743D03*
X004546Y009749D03*
X004546Y009754D03*
X004546Y009760D03*
X004546Y009766D03*
X004546Y009772D03*
X004546Y009778D03*
X004546Y009784D03*
X004546Y009790D03*
X004546Y009796D03*
X004546Y009802D03*
X004546Y009808D03*
X004546Y009814D03*
X004546Y009819D03*
X004546Y009825D03*
X004546Y009831D03*
X004546Y009837D03*
X004546Y009843D03*
X004546Y009849D03*
X004546Y009855D03*
X004546Y009861D03*
X004546Y009867D03*
X004546Y009873D03*
X004546Y009879D03*
X004546Y009884D03*
X004546Y009890D03*
X004546Y009896D03*
X004546Y009902D03*
X004546Y009908D03*
X004546Y009914D03*
X004546Y009920D03*
X004546Y009926D03*
X004546Y009932D03*
X004546Y009938D03*
X004546Y009943D03*
X004546Y009949D03*
X004546Y009955D03*
X004546Y009961D03*
X004546Y009967D03*
X004546Y009973D03*
X004546Y009979D03*
X004546Y009985D03*
X004546Y009991D03*
X004546Y009997D03*
X004546Y010003D03*
X004546Y010008D03*
X004546Y010014D03*
X004546Y010020D03*
X004546Y010026D03*
X004546Y010032D03*
X004800Y010020D03*
X004800Y010014D03*
X004800Y010008D03*
X004546Y009725D03*
X004546Y009719D03*
X004546Y009713D03*
X004546Y009707D03*
X004546Y009701D03*
X004546Y009695D03*
X004546Y009690D03*
X004546Y009684D03*
X004546Y009678D03*
X004546Y009672D03*
X004546Y009666D03*
X004546Y009660D03*
X004546Y009654D03*
X004546Y009648D03*
X004546Y009642D03*
X004546Y009636D03*
X004546Y009630D03*
X004546Y009625D03*
X004546Y009619D03*
X004546Y009341D03*
X004546Y009335D03*
X004546Y009329D03*
D20*
X004593Y009589D03*
X004593Y009595D03*
X004593Y009601D03*
X004753Y009749D03*
X004753Y009754D03*
X004753Y009760D03*
X005402Y009052D03*
X005349Y008691D03*
X006194Y008361D03*
X006790Y009589D03*
X006790Y009595D03*
X006790Y009601D03*
X006949Y009749D03*
X006949Y009754D03*
X006949Y009760D03*
X008296Y009052D03*
D21*
X008293Y009069D03*
X008381Y008975D03*
X007584Y008975D03*
X007584Y008969D03*
X007584Y008963D03*
X006757Y009412D03*
X006757Y009418D03*
X006757Y009424D03*
X006982Y009932D03*
X006982Y009938D03*
X006982Y009943D03*
X007519Y009932D03*
X006220Y009932D03*
X005405Y009932D03*
X005405Y009938D03*
X005405Y009926D03*
X005405Y009920D03*
X004785Y009926D03*
X004785Y009932D03*
X004785Y009938D03*
X004561Y009424D03*
X004561Y009418D03*
X004561Y009412D03*
X005494Y008975D03*
X005500Y008798D03*
X005405Y008361D03*
D22*
X009893Y010032D03*
X010437Y009642D03*
X010437Y008367D03*
D23*
X008296Y008367D03*
X008213Y008455D03*
X007581Y008928D03*
X006772Y008756D03*
X006766Y009459D03*
X006766Y009465D03*
X006766Y009471D03*
X006973Y009879D03*
X006973Y009884D03*
X006973Y009890D03*
X005319Y008455D03*
X004569Y009459D03*
X004569Y009465D03*
X004569Y009471D03*
X004776Y009879D03*
X004776Y009884D03*
X004776Y009890D03*
D24*
X004797Y009997D03*
X004797Y010003D03*
X005405Y009991D03*
X005405Y009985D03*
X005405Y009979D03*
X005405Y009973D03*
X006013Y009908D03*
X006013Y009902D03*
X006019Y009914D03*
X006238Y009914D03*
X006244Y009908D03*
X006244Y009902D03*
X006244Y009447D03*
X006244Y009441D03*
X006238Y009436D03*
X006126Y009317D03*
X006013Y009441D03*
X006013Y009447D03*
X006025Y008951D03*
X006019Y008945D03*
X006019Y008940D03*
X006025Y008479D03*
X005529Y008503D03*
X005523Y008491D03*
X005523Y008485D03*
X005293Y008479D03*
X005293Y008473D03*
X005287Y008632D03*
X005287Y008638D03*
X005293Y008644D03*
X005281Y008910D03*
X005281Y008916D03*
X005281Y008922D03*
X005287Y008934D03*
X005287Y008940D03*
X005511Y008951D03*
X005511Y008957D03*
X005517Y008945D03*
X005517Y008821D03*
X004549Y009347D03*
X004549Y009353D03*
X004549Y009359D03*
X006728Y008408D03*
X006728Y008402D03*
X006722Y008390D03*
X006722Y008384D03*
X006716Y008373D03*
X006716Y008367D03*
X006734Y008420D03*
X006734Y008426D03*
X006740Y008438D03*
X006740Y008443D03*
X006746Y008461D03*
X006752Y008479D03*
X006757Y008497D03*
X006763Y008514D03*
X006769Y008532D03*
X006746Y008780D03*
X006740Y008792D03*
X006740Y008940D03*
X006746Y008951D03*
X006746Y009347D03*
X006746Y009353D03*
X006746Y009359D03*
X007496Y009441D03*
X007496Y009447D03*
X007502Y009436D03*
X007726Y009441D03*
X007726Y009447D03*
X007584Y009028D03*
X007584Y009022D03*
X007584Y009016D03*
X008181Y008940D03*
X008181Y008934D03*
X008187Y008945D03*
X008187Y008951D03*
X008399Y008951D03*
X008399Y008957D03*
X008405Y008945D03*
X008405Y008940D03*
X008405Y008934D03*
X008405Y008497D03*
X008405Y008491D03*
X008405Y008485D03*
X008399Y008479D03*
X008399Y008473D03*
X008187Y008479D03*
X008187Y008485D03*
X008181Y008491D03*
X008181Y008497D03*
X007726Y009902D03*
X007726Y009908D03*
X007720Y009914D03*
X007502Y009914D03*
X007496Y009908D03*
X007496Y009902D03*
X006994Y009997D03*
X006994Y010003D03*
X006994Y010008D03*
D25*
X008293Y009046D03*
X009669Y009270D03*
X009669Y009276D03*
X009669Y009282D03*
X009669Y009288D03*
X009669Y009294D03*
X009669Y009300D03*
X009669Y009306D03*
X009669Y009312D03*
X009669Y009317D03*
X011198Y009317D03*
X011198Y009312D03*
X011198Y009306D03*
X011198Y009300D03*
X011198Y009294D03*
X011198Y009288D03*
X011198Y009282D03*
X011198Y009276D03*
X011198Y009270D03*
X011198Y009264D03*
X011198Y009258D03*
X011198Y009323D03*
X011198Y009329D03*
X006185Y008367D03*
D26*
X005402Y008367D03*
X005402Y009064D03*
X006129Y009329D03*
X006772Y009495D03*
X006772Y009501D03*
X006772Y009506D03*
X006967Y009849D03*
X006967Y009855D03*
X006967Y009861D03*
X007611Y010020D03*
X007611Y009329D03*
X007581Y008904D03*
X007581Y008898D03*
X006129Y010020D03*
X005408Y009861D03*
X004770Y009855D03*
X004770Y009849D03*
X004575Y009501D03*
X004575Y009495D03*
D27*
X009890Y009766D03*
X009890Y009772D03*
X009890Y009778D03*
X009890Y009784D03*
X009890Y009790D03*
X009890Y009796D03*
X009890Y009802D03*
X009890Y009808D03*
X009890Y009814D03*
X009890Y009819D03*
X009890Y009825D03*
X009890Y009831D03*
X009890Y009837D03*
X009890Y009843D03*
X009890Y009849D03*
X009890Y009855D03*
X009890Y009861D03*
X009890Y009867D03*
X009890Y009873D03*
X009890Y009879D03*
X009890Y009884D03*
X009890Y009890D03*
X009890Y009896D03*
X009890Y009902D03*
X009890Y009908D03*
X009890Y009914D03*
X009890Y009920D03*
X009890Y009926D03*
X009890Y009932D03*
X009890Y009938D03*
X009890Y009943D03*
X009890Y009949D03*
X009890Y009955D03*
X009890Y009961D03*
X009890Y009967D03*
X009890Y009973D03*
X009890Y009979D03*
X009890Y009985D03*
X009890Y009991D03*
X009890Y009997D03*
X009890Y010003D03*
X009890Y010008D03*
X009890Y010014D03*
X009890Y010020D03*
X009890Y010026D03*
X010434Y009636D03*
X010434Y009630D03*
X010434Y009625D03*
X010434Y009619D03*
X010434Y009613D03*
X010434Y009607D03*
X010434Y009601D03*
X010434Y009595D03*
X010434Y009589D03*
X010434Y009583D03*
X010434Y009577D03*
X010434Y009571D03*
X010434Y009566D03*
X010434Y009560D03*
X010434Y009554D03*
X010434Y009548D03*
X010434Y009542D03*
X010434Y009536D03*
X010434Y009530D03*
X010434Y009524D03*
X010434Y009518D03*
X010434Y009512D03*
X010434Y009506D03*
X010434Y009501D03*
X010434Y009495D03*
X010434Y009489D03*
X010434Y009483D03*
X010434Y009477D03*
X010434Y009471D03*
X010434Y009465D03*
X010434Y009459D03*
X010434Y009453D03*
X010434Y009447D03*
X010434Y009441D03*
X010434Y009436D03*
X010434Y009430D03*
X010434Y009424D03*
X010434Y009418D03*
X010434Y009170D03*
X010434Y009164D03*
X010434Y009158D03*
X010434Y009152D03*
X010434Y009146D03*
X010434Y009140D03*
X010434Y009134D03*
X010434Y009129D03*
X010434Y009123D03*
X010434Y009117D03*
X010434Y009111D03*
X010434Y009105D03*
X010434Y009099D03*
X010434Y009093D03*
X010434Y009087D03*
X010434Y009081D03*
X010434Y009075D03*
X010434Y009069D03*
X010434Y009064D03*
X010434Y009058D03*
X010434Y009052D03*
X010434Y009046D03*
X010434Y009040D03*
X010434Y009034D03*
X010434Y009028D03*
X010434Y009022D03*
X010434Y009016D03*
X010434Y009010D03*
X010434Y009004D03*
X010434Y008999D03*
X010434Y008993D03*
X010434Y008987D03*
X010434Y008981D03*
X010434Y008975D03*
X010434Y008969D03*
X010434Y008963D03*
X010434Y008957D03*
X010434Y008951D03*
X010434Y008945D03*
X010434Y008940D03*
X010434Y008934D03*
X010434Y008928D03*
X010434Y008922D03*
X010434Y008916D03*
X010434Y008910D03*
X010434Y008904D03*
X010434Y008898D03*
X010434Y008892D03*
X010434Y008886D03*
X010434Y008880D03*
X010434Y008875D03*
X010434Y008869D03*
X010434Y008863D03*
X010434Y008857D03*
X010434Y008851D03*
X010434Y008845D03*
X010434Y008839D03*
X010434Y008833D03*
X010434Y008485D03*
X010434Y008479D03*
X010434Y008473D03*
X010434Y008467D03*
X010434Y008461D03*
X010434Y008455D03*
X010434Y008449D03*
X010434Y008443D03*
X010434Y008438D03*
X010434Y008432D03*
X010434Y008426D03*
X010434Y008420D03*
X010434Y008414D03*
X010434Y008408D03*
X010434Y008402D03*
X010434Y008396D03*
X010434Y008390D03*
X010434Y008384D03*
X010434Y008379D03*
X010434Y008373D03*
D28*
X010440Y008491D03*
X010440Y008497D03*
X010440Y008503D03*
X010440Y008508D03*
X010440Y008514D03*
X010440Y008520D03*
X010440Y008526D03*
X010440Y008532D03*
X010440Y008538D03*
X010440Y008544D03*
X010440Y008550D03*
X010440Y008556D03*
X010440Y008562D03*
X010440Y008567D03*
X010440Y008573D03*
X010440Y008579D03*
X010440Y008585D03*
X010440Y008591D03*
X010440Y008597D03*
X010440Y008603D03*
X010440Y008609D03*
X010440Y008615D03*
X010440Y008621D03*
X010440Y008627D03*
X010440Y008632D03*
X010440Y008638D03*
X010440Y008644D03*
X010440Y008650D03*
X010440Y008656D03*
X010440Y008662D03*
X010440Y008668D03*
X010440Y008674D03*
X010440Y008680D03*
X010440Y008686D03*
X010440Y008691D03*
X010440Y008697D03*
X010440Y008703D03*
X010440Y008709D03*
X010440Y008715D03*
X010440Y008721D03*
X010440Y008727D03*
X010440Y008733D03*
X010440Y008739D03*
X010440Y008745D03*
X010440Y008751D03*
X010440Y008756D03*
X010440Y008762D03*
X010440Y008768D03*
X010440Y008774D03*
X010440Y008780D03*
X010440Y008786D03*
X010440Y008792D03*
X010440Y008798D03*
X010440Y008804D03*
X010440Y008810D03*
X010440Y008816D03*
X010440Y008821D03*
X010440Y008827D03*
X010794Y008827D03*
X010794Y008821D03*
X010794Y008816D03*
X010794Y008810D03*
X010794Y008804D03*
X010794Y008798D03*
X010794Y008792D03*
X010794Y008786D03*
X010794Y008780D03*
X010794Y008774D03*
X010794Y008768D03*
X010794Y008762D03*
X010794Y008756D03*
X010794Y008751D03*
X010794Y008745D03*
X010794Y008739D03*
X010794Y008733D03*
X010794Y008727D03*
X010794Y008721D03*
X010794Y008715D03*
X010794Y008709D03*
X010794Y008703D03*
X010794Y008697D03*
X010794Y008691D03*
X010794Y008686D03*
X010794Y008680D03*
X010794Y008674D03*
X010794Y008668D03*
X010794Y008662D03*
X010794Y008656D03*
X010794Y008650D03*
X010794Y008644D03*
X010794Y008638D03*
X010794Y008632D03*
X010794Y008627D03*
X010794Y008621D03*
X010794Y008615D03*
X010794Y008609D03*
X010794Y008603D03*
X010794Y008597D03*
X010794Y008591D03*
X010794Y008585D03*
X010794Y008579D03*
X010794Y008573D03*
X010794Y008567D03*
X010794Y008562D03*
X010794Y008556D03*
X010794Y008550D03*
X010794Y008544D03*
X010794Y008538D03*
X010794Y008532D03*
X010794Y008526D03*
X010794Y008520D03*
X010794Y008514D03*
X010794Y008508D03*
X010794Y008503D03*
X010794Y008497D03*
X010794Y008491D03*
X010079Y008491D03*
X010079Y008497D03*
X010079Y008503D03*
X010079Y008508D03*
X010079Y008514D03*
X010079Y008520D03*
X010079Y008526D03*
X010079Y008532D03*
X010079Y008538D03*
X010079Y008544D03*
X010079Y008550D03*
X010079Y008556D03*
X010079Y008562D03*
X010079Y008567D03*
X010079Y008573D03*
X010079Y008579D03*
X010079Y008585D03*
X010079Y008591D03*
X010079Y008597D03*
X010079Y008603D03*
X010079Y008609D03*
X010079Y008615D03*
X010079Y008621D03*
X010079Y008627D03*
X010079Y008632D03*
X010079Y008638D03*
X010079Y008644D03*
X010079Y008650D03*
X010079Y008656D03*
X010079Y008662D03*
X010079Y008668D03*
X010079Y008674D03*
X010079Y008680D03*
X010079Y008686D03*
X010079Y008691D03*
X010079Y008697D03*
X010079Y008703D03*
X010079Y008709D03*
X010079Y008715D03*
X010079Y008721D03*
X010079Y008727D03*
X010079Y008733D03*
X010079Y008739D03*
X010079Y008745D03*
X010079Y008751D03*
X010079Y008756D03*
X010079Y008762D03*
X010079Y008768D03*
X010079Y008774D03*
X010079Y008780D03*
X010079Y008786D03*
X010079Y008792D03*
X010079Y008798D03*
X010079Y008804D03*
X010079Y008810D03*
X010079Y008816D03*
X010079Y008821D03*
X010079Y008827D03*
X008296Y008373D03*
X007581Y008875D03*
X006778Y009524D03*
X006778Y009530D03*
X006778Y009536D03*
X006961Y009814D03*
X006961Y009819D03*
X006961Y009825D03*
X006205Y009075D03*
X005331Y008680D03*
X004581Y009524D03*
X004581Y009530D03*
X004581Y009536D03*
X004764Y009814D03*
X004764Y009819D03*
X004764Y009825D03*
D29*
X004691Y009725D03*
X004691Y009719D03*
X004685Y009707D03*
X004685Y009701D03*
X004679Y009690D03*
X004673Y009678D03*
X004673Y009672D03*
X004667Y009660D03*
X004667Y009654D03*
X004661Y009642D03*
X004661Y009636D03*
X004655Y009625D03*
X004543Y009323D03*
X004543Y009317D03*
X005257Y009335D03*
X005263Y009359D03*
X005263Y009365D03*
X005269Y009388D03*
X005269Y009394D03*
X005275Y009412D03*
X005275Y009418D03*
X005275Y009424D03*
X005281Y009441D03*
X005281Y009447D03*
X005281Y009453D03*
X005287Y009465D03*
X005311Y009583D03*
X005311Y009589D03*
X005311Y009595D03*
X005317Y009613D03*
X005317Y009619D03*
X005322Y009642D03*
X005328Y009672D03*
X005488Y009648D03*
X005494Y009619D03*
X005500Y009595D03*
X005500Y009589D03*
X005523Y009465D03*
X005529Y009459D03*
X005529Y009453D03*
X005529Y009447D03*
X005529Y009441D03*
X005535Y009430D03*
X005535Y009424D03*
X005535Y009418D03*
X005541Y009400D03*
X005541Y009394D03*
X005541Y009388D03*
X005547Y009371D03*
X005547Y009365D03*
X005553Y009335D03*
X006007Y009477D03*
X006007Y009873D03*
X005405Y009997D03*
X005405Y010003D03*
X005405Y010008D03*
X005405Y010014D03*
X004803Y010026D03*
X004803Y010032D03*
X005281Y008869D03*
X005281Y008585D03*
X005281Y008579D03*
X005281Y008550D03*
X005281Y008544D03*
X005281Y008538D03*
X005281Y008532D03*
X006013Y008532D03*
X006013Y008538D03*
X006013Y008544D03*
X006013Y008898D03*
X006013Y008904D03*
X006734Y008910D03*
X006734Y008821D03*
X006811Y008656D03*
X006805Y008644D03*
X006805Y008638D03*
X006799Y008621D03*
X006793Y008603D03*
X006787Y008585D03*
X006781Y008567D03*
X006775Y008550D03*
X007443Y008414D03*
X007443Y008408D03*
X007448Y008432D03*
X007448Y008438D03*
X007448Y008443D03*
X007454Y008461D03*
X007454Y008467D03*
X007454Y008473D03*
X007460Y008485D03*
X007460Y008491D03*
X007460Y008497D03*
X007460Y008503D03*
X007484Y008615D03*
X007490Y008627D03*
X007490Y008632D03*
X007490Y008638D03*
X007496Y008662D03*
X007496Y008668D03*
X007502Y008691D03*
X007667Y008686D03*
X007673Y008656D03*
X007679Y008632D03*
X007679Y008627D03*
X007702Y008508D03*
X007702Y008503D03*
X007708Y008491D03*
X007708Y008485D03*
X007708Y008479D03*
X007714Y008461D03*
X007714Y008455D03*
X007714Y008449D03*
X007720Y008432D03*
X007720Y008426D03*
X007726Y008402D03*
X007726Y008396D03*
X007732Y008373D03*
X007437Y008379D03*
X007437Y008384D03*
X008181Y008562D03*
X008181Y008869D03*
X008293Y009075D03*
X007732Y009477D03*
X007732Y009483D03*
X007732Y009867D03*
X007732Y009873D03*
X007000Y010026D03*
X007000Y010032D03*
X006887Y009725D03*
X006887Y009719D03*
X006881Y009713D03*
X006881Y009707D03*
X006876Y009695D03*
X006876Y009690D03*
X006870Y009678D03*
X006870Y009672D03*
X006864Y009660D03*
X006864Y009654D03*
X006858Y009642D03*
X006852Y009630D03*
X006852Y009625D03*
X006740Y009323D03*
X006740Y009317D03*
X007584Y009052D03*
X007584Y009046D03*
X007584Y009040D03*
D30*
X007611Y009353D03*
X007611Y009997D03*
X006129Y009997D03*
X006129Y009353D03*
X005402Y009040D03*
X005414Y008739D03*
X005396Y008727D03*
X005390Y008721D03*
X005402Y008390D03*
X006176Y008373D03*
X008296Y008396D03*
X009678Y009229D03*
X009678Y009235D03*
X009678Y009359D03*
X011190Y009359D03*
X011190Y009365D03*
X011190Y009229D03*
X011190Y009223D03*
D31*
X007611Y009335D03*
X006932Y009075D03*
X006784Y009560D03*
X006784Y009566D03*
X006784Y009571D03*
X006955Y009784D03*
X006955Y009790D03*
X007611Y010014D03*
X006129Y010014D03*
X006046Y009707D03*
X006046Y009701D03*
X006046Y009695D03*
X006046Y009690D03*
X006046Y009684D03*
X006046Y009678D03*
X006046Y009672D03*
X006046Y009666D03*
X006046Y009660D03*
X006046Y009654D03*
X006046Y009648D03*
X006046Y009642D03*
X006046Y009636D03*
X006046Y009630D03*
X006046Y009625D03*
X006129Y009335D03*
X005402Y009058D03*
X005402Y008373D03*
X004587Y009560D03*
X004587Y009566D03*
X004758Y009778D03*
X004758Y009784D03*
X004758Y009790D03*
D32*
X004756Y009772D03*
X004756Y009766D03*
X004590Y009583D03*
X004590Y009577D03*
X004590Y009571D03*
X005458Y008768D03*
X006787Y009577D03*
X006787Y009583D03*
X006952Y009766D03*
X006952Y009772D03*
X006952Y009778D03*
X008299Y008379D03*
D33*
X008296Y008402D03*
X007611Y009359D03*
X007611Y009991D03*
X006129Y009991D03*
X006129Y009359D03*
X006170Y009058D03*
X006170Y008379D03*
X005402Y009034D03*
X009684Y009217D03*
X009684Y009377D03*
X011184Y009377D03*
X011184Y009211D03*
D34*
X006946Y009737D03*
X006946Y009743D03*
X006793Y009613D03*
X006793Y009607D03*
X006126Y009341D03*
X005446Y008762D03*
X005358Y008697D03*
X005405Y008379D03*
X004596Y009607D03*
X004596Y009613D03*
X004750Y009737D03*
X004750Y009743D03*
D35*
X005438Y008756D03*
X006188Y009069D03*
X006129Y010008D03*
X007611Y010008D03*
X007611Y009341D03*
X008296Y008384D03*
D36*
X008296Y008408D03*
X007611Y009365D03*
X007611Y009985D03*
X006896Y009058D03*
X006896Y008686D03*
X006896Y008680D03*
X006896Y008674D03*
X006164Y008384D03*
X005402Y009028D03*
X006129Y009365D03*
X006129Y009985D03*
X009690Y009388D03*
X009690Y009205D03*
X011178Y009199D03*
X011178Y009388D03*
D37*
X011195Y009347D03*
X011195Y009341D03*
X011195Y009335D03*
X011195Y009253D03*
X011195Y009247D03*
X009672Y009253D03*
X009672Y009258D03*
X009672Y009264D03*
X009672Y009323D03*
X009672Y009329D03*
X009672Y009335D03*
X008296Y008390D03*
X007611Y009347D03*
X006914Y009069D03*
X006129Y009347D03*
X006129Y010003D03*
X005402Y009046D03*
X005367Y008703D03*
X005402Y008384D03*
X007611Y010003D03*
D38*
X006893Y009052D03*
X006893Y008668D03*
X006893Y008662D03*
X006161Y008390D03*
X006161Y009046D03*
X005405Y008402D03*
X008293Y009022D03*
X009693Y009199D03*
X011175Y009394D03*
D39*
X011169Y009400D03*
X011169Y009188D03*
X009698Y009400D03*
X008293Y009010D03*
X008293Y008420D03*
X006887Y008697D03*
X006887Y009046D03*
X006155Y009034D03*
X006155Y008396D03*
X005405Y008414D03*
X005399Y009016D03*
D40*
X005405Y008396D03*
X006167Y009052D03*
X008293Y009028D03*
X009687Y009211D03*
X009687Y009382D03*
X009687Y008827D03*
X009687Y008821D03*
X009687Y008816D03*
X009687Y008810D03*
X009687Y008804D03*
X009687Y008798D03*
X009687Y008792D03*
X009687Y008786D03*
X009687Y008780D03*
X009687Y008774D03*
X009687Y008768D03*
X009687Y008762D03*
X009687Y008756D03*
X009687Y008751D03*
X009687Y008745D03*
X009687Y008739D03*
X009687Y008733D03*
X009687Y008727D03*
X009687Y008721D03*
X009687Y008715D03*
X009687Y008709D03*
X009687Y008703D03*
X009687Y008697D03*
X009687Y008691D03*
X009687Y008686D03*
X009687Y008680D03*
X009687Y008674D03*
X009687Y008668D03*
X009687Y008662D03*
X009687Y008656D03*
X009687Y008650D03*
X009687Y008644D03*
X009687Y008638D03*
X009687Y008632D03*
X009687Y008627D03*
X009687Y008621D03*
X009687Y008615D03*
X009687Y008609D03*
X009687Y008603D03*
X009687Y008597D03*
X009687Y008591D03*
X009687Y008585D03*
X009687Y008579D03*
X009687Y008573D03*
X009687Y008567D03*
X009687Y008562D03*
X009687Y008556D03*
X009687Y008550D03*
X009687Y008544D03*
X009687Y008538D03*
X009687Y008532D03*
X009687Y008526D03*
X009687Y008520D03*
X009687Y008514D03*
X009687Y008508D03*
X009687Y008503D03*
X009687Y008497D03*
X009687Y008491D03*
X011181Y009205D03*
X011181Y009382D03*
D41*
X009701Y009188D03*
X008296Y008426D03*
X007611Y009377D03*
X007611Y009967D03*
X007611Y009973D03*
X006884Y009040D03*
X006152Y009028D03*
X006129Y009377D03*
X006129Y009973D03*
X005402Y009010D03*
X006152Y008402D03*
D42*
X006149Y008408D03*
X006149Y009022D03*
X006126Y009382D03*
X006126Y009967D03*
X006881Y009034D03*
X006881Y008703D03*
X007614Y009382D03*
X008293Y009004D03*
X009704Y009406D03*
X011163Y009406D03*
X005405Y008420D03*
D43*
X005402Y008408D03*
X005402Y009022D03*
X006158Y009040D03*
X006129Y009371D03*
X006129Y009979D03*
X007611Y009979D03*
X007611Y009371D03*
X008296Y009016D03*
X008296Y008414D03*
X006890Y008691D03*
X009695Y009193D03*
X009695Y009394D03*
X011172Y009193D03*
D44*
X011160Y009182D03*
X009707Y009182D03*
X008296Y008999D03*
X008296Y008438D03*
X008296Y008432D03*
X007581Y008609D03*
X006879Y008709D03*
X006879Y009028D03*
X006146Y009016D03*
X006129Y009388D03*
X006129Y009961D03*
X005402Y009004D03*
X006146Y008420D03*
X006146Y008414D03*
X007611Y009388D03*
X007611Y009961D03*
D45*
X008293Y008993D03*
X008293Y008987D03*
X007584Y008603D03*
X007584Y008597D03*
X007584Y008591D03*
X006876Y008715D03*
X006876Y009022D03*
X006143Y009010D03*
X006143Y008426D03*
X005405Y008426D03*
X005405Y008432D03*
X005399Y008999D03*
X005405Y009548D03*
X005405Y009554D03*
X005405Y009560D03*
X005405Y009566D03*
X011157Y009412D03*
D46*
X009713Y009412D03*
X008302Y009418D03*
X007611Y009400D03*
X007611Y009394D03*
X007611Y009949D03*
X007611Y009955D03*
X006873Y009016D03*
X006873Y008721D03*
X006140Y008999D03*
X006140Y009004D03*
X006129Y009394D03*
X006129Y009400D03*
X006129Y009949D03*
X006129Y009955D03*
X005402Y008993D03*
X006140Y008438D03*
X006140Y008432D03*
X007581Y008585D03*
X008296Y008449D03*
X008296Y008443D03*
D47*
X008293Y008981D03*
X008299Y009317D03*
X008299Y009323D03*
X008299Y009329D03*
X008299Y009335D03*
X008299Y009341D03*
X008299Y009347D03*
X008299Y009353D03*
X008299Y009359D03*
X008299Y009365D03*
X008299Y009371D03*
X008299Y009377D03*
X008299Y009382D03*
X008299Y009388D03*
X008299Y009394D03*
X008299Y009400D03*
X008299Y009406D03*
X008299Y009412D03*
X007584Y008579D03*
X007584Y008573D03*
X007584Y008567D03*
X006870Y008727D03*
X006870Y008733D03*
X006870Y009004D03*
X006870Y009010D03*
X006137Y008993D03*
X006137Y008987D03*
X006137Y008449D03*
X006137Y008443D03*
X005405Y008438D03*
X005399Y008987D03*
X005405Y009518D03*
X005405Y009524D03*
X005405Y009530D03*
X005405Y009536D03*
X005405Y009542D03*
X009716Y009176D03*
X011151Y009176D03*
D48*
X007611Y009406D03*
X007611Y009412D03*
X007611Y009938D03*
X007611Y009943D03*
X006867Y008999D03*
X006867Y008739D03*
X006134Y008981D03*
X006129Y009406D03*
X006129Y009412D03*
X006129Y009938D03*
X006129Y009943D03*
X005402Y008981D03*
X005408Y008449D03*
X005408Y008443D03*
X007581Y008556D03*
X007581Y008562D03*
D49*
X007584Y008934D03*
X007584Y008940D03*
X007584Y008945D03*
X006769Y008975D03*
X006763Y009447D03*
X006763Y009453D03*
X006976Y009896D03*
X006976Y009902D03*
X006976Y009908D03*
X006049Y008975D03*
X005311Y008975D03*
X005317Y008668D03*
X004567Y009441D03*
X004567Y009447D03*
X004567Y009453D03*
X004779Y009896D03*
X004779Y009902D03*
X004779Y009908D03*
X005405Y009908D03*
X005405Y009902D03*
X005405Y009896D03*
X005405Y009890D03*
X008376Y008455D03*
D50*
X008293Y009064D03*
X007584Y008922D03*
X007584Y008916D03*
X007584Y008910D03*
X006769Y009477D03*
X006769Y009483D03*
X006769Y009489D03*
X006970Y009867D03*
X006970Y009873D03*
X005482Y008786D03*
X005322Y008674D03*
X005494Y008455D03*
X006055Y008455D03*
X004572Y009477D03*
X004572Y009483D03*
X004572Y009489D03*
X004773Y009861D03*
X004773Y009867D03*
X004773Y009873D03*
X005405Y009873D03*
X005405Y009879D03*
X005405Y009884D03*
X005405Y009867D03*
D51*
X005405Y009943D03*
X005405Y009949D03*
X005405Y009955D03*
X005405Y009961D03*
X004791Y009961D03*
X004791Y009967D03*
X004791Y009973D03*
X004555Y009388D03*
X004555Y009382D03*
X004555Y009377D03*
X005293Y008957D03*
X005299Y008963D03*
X005506Y008804D03*
X005511Y008467D03*
X005305Y008461D03*
X006031Y008963D03*
X006037Y008969D03*
X006025Y009424D03*
X006752Y009388D03*
X006752Y009382D03*
X006752Y008963D03*
X007584Y008987D03*
X007584Y008993D03*
X007584Y008999D03*
X008193Y008963D03*
X008198Y008969D03*
X008193Y008467D03*
X006988Y009961D03*
X006988Y009967D03*
X006988Y009973D03*
D52*
X006991Y009979D03*
X006991Y009985D03*
X006991Y009991D03*
X007505Y009920D03*
X007717Y009920D03*
X007723Y009436D03*
X007717Y009430D03*
X007505Y009430D03*
X007581Y009010D03*
X007581Y009004D03*
X008190Y008957D03*
X008396Y008963D03*
X008396Y008467D03*
X008190Y008473D03*
X006755Y008768D03*
X006749Y008774D03*
X006749Y008957D03*
X006749Y009365D03*
X006749Y009371D03*
X006749Y009377D03*
X006235Y009430D03*
X006022Y009430D03*
X006016Y009436D03*
X006028Y008957D03*
X005508Y008963D03*
X005514Y008816D03*
X005508Y008810D03*
X005290Y008945D03*
X005290Y008951D03*
X005296Y008650D03*
X005302Y008467D03*
X005520Y008473D03*
X005520Y008479D03*
X006028Y008473D03*
X006034Y008467D03*
X004552Y009365D03*
X004552Y009371D03*
X004794Y009979D03*
X004794Y009985D03*
X004794Y009991D03*
X005408Y009967D03*
X006022Y009920D03*
X006235Y009920D03*
D53*
X006905Y009064D03*
X008293Y009034D03*
X009681Y009223D03*
X009681Y009365D03*
X009681Y009371D03*
X011187Y009371D03*
X011187Y009217D03*
X011187Y008827D03*
X011187Y008821D03*
X011187Y008816D03*
X011187Y008810D03*
X011187Y008804D03*
X011187Y008798D03*
X011187Y008792D03*
X011187Y008786D03*
X011187Y008780D03*
X011187Y008774D03*
X011187Y008768D03*
X011187Y008762D03*
X011187Y008756D03*
X011187Y008751D03*
X011187Y008745D03*
X011187Y008739D03*
X011187Y008733D03*
X011187Y008727D03*
X011187Y008721D03*
X011187Y008715D03*
X011187Y008709D03*
X011187Y008703D03*
X011187Y008697D03*
X011187Y008691D03*
X011187Y008686D03*
X011187Y008680D03*
X011187Y008674D03*
X011187Y008668D03*
X011187Y008662D03*
X011187Y008656D03*
X011187Y008650D03*
X011187Y008644D03*
X011187Y008638D03*
X011187Y008632D03*
X011187Y008627D03*
X011187Y008621D03*
X011187Y008615D03*
X011187Y008609D03*
X011187Y008603D03*
X011187Y008597D03*
X011187Y008591D03*
X011187Y008585D03*
X011187Y008579D03*
X011187Y008573D03*
X011187Y008567D03*
X011187Y008562D03*
X011187Y008556D03*
X011187Y008550D03*
X011187Y008544D03*
X011187Y008538D03*
X011187Y008532D03*
X011187Y008526D03*
X011187Y008520D03*
X011187Y008514D03*
X011187Y008508D03*
X011187Y008503D03*
X011187Y008497D03*
X011187Y008491D03*
X005405Y008733D03*
D54*
X005405Y009471D03*
X005405Y009477D03*
X005405Y009483D03*
X005405Y009489D03*
X007584Y008526D03*
X007584Y008520D03*
X007584Y008514D03*
D55*
X007581Y008532D03*
D56*
X007584Y008538D03*
X007584Y008544D03*
X007584Y008550D03*
X006864Y008745D03*
X006864Y008751D03*
X006864Y008981D03*
X006864Y008987D03*
X006864Y008993D03*
X005405Y009495D03*
X005405Y009501D03*
X005405Y009506D03*
X005405Y009512D03*
D57*
X005408Y009914D03*
X004782Y009914D03*
X004782Y009920D03*
X004564Y009436D03*
X004564Y009430D03*
X005402Y009069D03*
X005491Y008792D03*
X005308Y008662D03*
X006129Y009323D03*
X006223Y009418D03*
X006034Y009418D03*
X006034Y009932D03*
X006129Y010026D03*
X006760Y009441D03*
X006760Y009436D03*
X006760Y009430D03*
X006979Y009914D03*
X006979Y009920D03*
X006979Y009926D03*
X007611Y010026D03*
X007705Y009932D03*
X007705Y009418D03*
X007611Y009323D03*
X007516Y009418D03*
X007581Y008957D03*
X007581Y008951D03*
X008207Y008975D03*
D58*
X008293Y009058D03*
X007584Y008869D03*
X007584Y008863D03*
X006781Y009542D03*
X006781Y009548D03*
X006781Y009554D03*
X006958Y009796D03*
X006958Y009802D03*
X006958Y009808D03*
X005464Y008774D03*
X005340Y008686D03*
X004584Y009542D03*
X004584Y009548D03*
X004584Y009554D03*
X004761Y009796D03*
X004761Y009802D03*
X004761Y009808D03*
X005405Y009819D03*
X005405Y009825D03*
X005405Y009831D03*
D59*
X006179Y009064D03*
X005429Y008751D03*
X005423Y008745D03*
X005381Y008715D03*
X005376Y008709D03*
X008293Y009040D03*
X009675Y009241D03*
X009675Y009247D03*
X009675Y009341D03*
X009675Y009347D03*
X009675Y009353D03*
X011193Y009353D03*
X011193Y009241D03*
X011193Y009235D03*
D60*
X009232Y008756D03*
D61*
X009229Y008762D03*
X009229Y008768D03*
X009229Y008774D03*
X009229Y008780D03*
X009229Y008786D03*
X009229Y008792D03*
X009229Y008798D03*
X009229Y008804D03*
X009229Y008810D03*
X009229Y008816D03*
X009229Y008821D03*
X009229Y008827D03*
X009229Y008833D03*
X009229Y008839D03*
X009229Y008845D03*
X009229Y008851D03*
X009229Y008857D03*
X009229Y008863D03*
X009229Y008869D03*
X009229Y008875D03*
X009229Y008880D03*
X009229Y008886D03*
X009229Y008892D03*
X009229Y008898D03*
X009229Y008904D03*
X009229Y008910D03*
X009229Y008916D03*
X009229Y008922D03*
X009229Y008928D03*
X009229Y008934D03*
X009229Y008940D03*
X009229Y008945D03*
X009229Y008951D03*
X009229Y008957D03*
X009229Y008963D03*
X009229Y008969D03*
X009229Y008975D03*
X009229Y008981D03*
X009229Y008987D03*
X009229Y008993D03*
X009229Y008999D03*
X009229Y009004D03*
X009229Y009010D03*
X009229Y009016D03*
X009229Y009022D03*
X009229Y009028D03*
X009229Y009034D03*
X009229Y009040D03*
X009229Y009046D03*
X009229Y009052D03*
X009229Y009058D03*
X009229Y009064D03*
X009229Y009069D03*
X009229Y009075D03*
X009229Y009081D03*
X009229Y009087D03*
X009229Y009093D03*
X009229Y009099D03*
X009229Y009105D03*
X009229Y009111D03*
X009229Y009117D03*
X009229Y009123D03*
X009229Y009129D03*
X009229Y009134D03*
X009229Y009140D03*
X009229Y009146D03*
X009229Y009152D03*
X009229Y009158D03*
X009229Y009164D03*
X009229Y009170D03*
X009229Y009176D03*
X009229Y009182D03*
X009229Y009188D03*
X009229Y009193D03*
X009229Y009199D03*
X009229Y009205D03*
X009229Y009211D03*
X009229Y009217D03*
X009229Y009223D03*
X009229Y009229D03*
X009229Y009235D03*
X009229Y009241D03*
X009229Y009247D03*
X009229Y009253D03*
X009229Y009258D03*
X009229Y009264D03*
X009229Y009270D03*
X009229Y009276D03*
X009229Y009282D03*
X009229Y009288D03*
X009229Y009294D03*
X009229Y009300D03*
X009229Y009306D03*
X009229Y009312D03*
X009229Y009317D03*
X009229Y009323D03*
X009229Y009329D03*
X009229Y009335D03*
X009229Y009341D03*
X009229Y009347D03*
X009229Y009353D03*
X009229Y009359D03*
X009229Y009365D03*
X009229Y009371D03*
X009229Y009377D03*
X009229Y009382D03*
X009229Y009388D03*
X009229Y009394D03*
X009229Y009400D03*
X009229Y009406D03*
X009229Y009412D03*
X009229Y009418D03*
X009229Y009424D03*
X009229Y009430D03*
X009229Y009436D03*
X009229Y009441D03*
X009229Y009447D03*
X009229Y009453D03*
X009229Y009459D03*
X009229Y009465D03*
X009229Y009471D03*
X009229Y009477D03*
X009229Y009483D03*
X009229Y009489D03*
X009229Y009495D03*
X009229Y009501D03*
X009229Y009506D03*
X009229Y009512D03*
X009229Y009518D03*
X009229Y009524D03*
X009229Y009530D03*
X009229Y009536D03*
X009229Y009542D03*
X009229Y009548D03*
X009229Y009554D03*
X009229Y009560D03*
X009229Y009566D03*
X009229Y009571D03*
X009229Y009577D03*
X009229Y009583D03*
X009229Y009589D03*
X009229Y009595D03*
X009229Y009601D03*
X009229Y009607D03*
X009229Y009613D03*
X009229Y009619D03*
X009229Y009625D03*
X009229Y009630D03*
X009229Y009636D03*
X009229Y009642D03*
X009229Y009648D03*
X009229Y009654D03*
X009229Y009660D03*
X009229Y009666D03*
X009229Y009672D03*
X009229Y009678D03*
X009229Y009684D03*
X009229Y009690D03*
X009229Y009695D03*
X009229Y009701D03*
X009229Y009707D03*
X009229Y009713D03*
X009229Y009719D03*
X009229Y009725D03*
X009229Y009731D03*
X009229Y009737D03*
X009229Y009743D03*
X009229Y009749D03*
X009229Y009754D03*
X009229Y009760D03*
D62*
X007584Y008892D03*
X007584Y008886D03*
X007584Y008880D03*
X006775Y009512D03*
X006775Y009518D03*
X006964Y009831D03*
X006964Y009837D03*
X006964Y009843D03*
X005476Y008780D03*
X004578Y009506D03*
X004578Y009512D03*
X004578Y009518D03*
X004767Y009831D03*
X004767Y009837D03*
X004767Y009843D03*
X005405Y009843D03*
X005405Y009837D03*
X005405Y009849D03*
X005405Y009855D03*
D63*
X007581Y009075D03*
D64*
X008293Y009081D03*
D65*
X005402Y009081D03*
D66*
X010437Y009176D03*
D67*
X010434Y009182D03*
D68*
X010434Y009188D03*
D69*
X010434Y009193D03*
D70*
X010434Y009199D03*
D71*
X010437Y009205D03*
D72*
X010437Y009211D03*
X010437Y009377D03*
D73*
X010434Y009217D03*
D74*
X010434Y009223D03*
D75*
X010437Y009229D03*
X010437Y009365D03*
D76*
X010437Y009353D03*
X010437Y009235D03*
D77*
X010434Y009241D03*
X010434Y009347D03*
D78*
X010437Y009341D03*
X010437Y009253D03*
X010437Y009247D03*
D79*
X010434Y009258D03*
X010434Y009329D03*
X010434Y009335D03*
D80*
X010437Y009323D03*
X010437Y009317D03*
X010437Y009276D03*
X010437Y009270D03*
X010437Y009264D03*
D81*
X010434Y009282D03*
X010434Y009288D03*
X010434Y009294D03*
X010434Y009300D03*
X010434Y009306D03*
X010434Y009312D03*
D82*
X007611Y009312D03*
X007611Y010038D03*
X006129Y010038D03*
X006129Y009312D03*
D83*
X010434Y009359D03*
D84*
X010437Y009371D03*
D85*
X010434Y009382D03*
D86*
X010437Y009388D03*
D87*
X010437Y009394D03*
D88*
X010434Y009400D03*
D89*
X010434Y009406D03*
D90*
X010437Y009412D03*
M02*
