G75*
G70*
%OFA0B0*%
%FSLAX24Y24*%
%IPPOS*%
%LPD*%
%AMOC8*
5,1,8,0,0,1.08239X$1,22.5*
%
%ADD10C,0.0100*%
%ADD11R,0.0787X0.2362*%
%ADD12R,0.0394X0.2362*%
%ADD13C,0.0000*%
%ADD14R,0.0472X0.0197*%
%ADD15R,0.0709X0.0315*%
%ADD16R,0.0394X0.0591*%
%ADD17R,0.0591X0.0394*%
%ADD18R,0.0400X0.0450*%
%ADD19C,0.0088*%
%ADD20R,0.0354X0.0551*%
%ADD21C,0.0120*%
%ADD22C,0.0220*%
%ADD23C,0.0060*%
%ADD24C,0.0240*%
D10*
X000278Y001364D02*
X000278Y011956D01*
X000280Y012023D01*
X000286Y012090D01*
X000295Y012157D01*
X000308Y012223D01*
X000325Y012288D01*
X000345Y012352D01*
X000369Y012415D01*
X000397Y012477D01*
X000428Y012536D01*
X000462Y012594D01*
X000499Y012650D01*
X000540Y012704D01*
X000583Y012756D01*
X000629Y012805D01*
X000678Y012851D01*
X000730Y012894D01*
X000784Y012935D01*
X000840Y012972D01*
X000898Y013006D01*
X000957Y013037D01*
X001019Y013065D01*
X001082Y013089D01*
X001146Y013109D01*
X001211Y013126D01*
X001277Y013139D01*
X001344Y013148D01*
X001411Y013154D01*
X001478Y013156D01*
X015022Y013156D01*
X015089Y013154D01*
X015156Y013148D01*
X015223Y013139D01*
X015289Y013126D01*
X015354Y013109D01*
X015418Y013089D01*
X015481Y013065D01*
X015543Y013037D01*
X015602Y013006D01*
X015660Y012972D01*
X015716Y012935D01*
X015770Y012894D01*
X015822Y012851D01*
X015871Y012805D01*
X015917Y012756D01*
X015960Y012704D01*
X016001Y012650D01*
X016038Y012594D01*
X016072Y012536D01*
X016103Y012477D01*
X016131Y012415D01*
X016155Y012352D01*
X016175Y012288D01*
X016192Y012223D01*
X016205Y012157D01*
X016214Y012090D01*
X016220Y012023D01*
X016222Y011956D01*
X016222Y001364D01*
X016220Y001297D01*
X016214Y001230D01*
X016205Y001163D01*
X016192Y001097D01*
X016175Y001032D01*
X016155Y000968D01*
X016131Y000905D01*
X016103Y000843D01*
X016072Y000784D01*
X016038Y000726D01*
X016001Y000670D01*
X015960Y000616D01*
X015917Y000564D01*
X015871Y000515D01*
X015822Y000469D01*
X015770Y000426D01*
X015716Y000385D01*
X015660Y000348D01*
X015602Y000314D01*
X015543Y000283D01*
X015481Y000255D01*
X015418Y000231D01*
X015354Y000211D01*
X015289Y000194D01*
X015223Y000181D01*
X015156Y000172D01*
X015089Y000166D01*
X015022Y000164D01*
X001478Y000164D01*
X001411Y000166D01*
X001344Y000172D01*
X001277Y000181D01*
X001211Y000194D01*
X001146Y000211D01*
X001082Y000231D01*
X001019Y000255D01*
X000957Y000283D01*
X000898Y000314D01*
X000840Y000348D01*
X000784Y000385D01*
X000730Y000426D01*
X000678Y000469D01*
X000629Y000515D01*
X000583Y000564D01*
X000540Y000616D01*
X000499Y000670D01*
X000462Y000726D01*
X000428Y000784D01*
X000397Y000843D01*
X000369Y000905D01*
X000345Y000968D01*
X000325Y001032D01*
X000308Y001097D01*
X000295Y001163D01*
X000286Y001230D01*
X000280Y001297D01*
X000278Y001364D01*
X004225Y007160D02*
X004225Y007460D01*
X004225Y007160D02*
X003775Y007160D01*
X003775Y007460D01*
X004225Y007460D01*
X004225Y007259D02*
X003775Y007259D01*
X003775Y007358D02*
X004225Y007358D01*
X004225Y007457D02*
X003775Y007457D01*
X004225Y007860D02*
X004225Y008160D01*
X004225Y007860D02*
X003775Y007860D01*
X003775Y008160D01*
X004225Y008160D01*
X004225Y007959D02*
X003775Y007959D01*
X003775Y008058D02*
X004225Y008058D01*
X004225Y008157D02*
X003775Y008157D01*
X004225Y010410D02*
X004225Y010710D01*
X004225Y010410D02*
X003775Y010410D01*
X003775Y010710D01*
X004225Y010710D01*
X004225Y010509D02*
X003775Y010509D01*
X003775Y010608D02*
X004225Y010608D01*
X004225Y010707D02*
X003775Y010707D01*
X004225Y011110D02*
X004225Y011410D01*
X004225Y011110D02*
X003775Y011110D01*
X003775Y011410D01*
X004225Y011410D01*
X004225Y011209D02*
X003775Y011209D01*
X003775Y011308D02*
X004225Y011308D01*
X004225Y011407D02*
X003775Y011407D01*
D11*
X004250Y001348D03*
X003250Y001348D03*
X002250Y001348D03*
X001250Y001348D03*
X005250Y001348D03*
X006250Y001348D03*
X007250Y001348D03*
X008250Y001348D03*
X009250Y001348D03*
X010250Y001348D03*
X011250Y001348D03*
X012250Y001348D03*
X013250Y001348D03*
X014250Y001348D03*
X015250Y001348D03*
D12*
X016045Y001348D03*
X000455Y001348D03*
D13*
X001159Y011660D02*
X001161Y011708D01*
X001167Y011756D01*
X001177Y011803D01*
X001190Y011849D01*
X001208Y011894D01*
X001228Y011938D01*
X001253Y011980D01*
X001281Y012019D01*
X001311Y012056D01*
X001345Y012090D01*
X001382Y012122D01*
X001420Y012151D01*
X001461Y012176D01*
X001504Y012198D01*
X001549Y012216D01*
X001595Y012230D01*
X001642Y012241D01*
X001690Y012248D01*
X001738Y012251D01*
X001786Y012250D01*
X001834Y012245D01*
X001882Y012236D01*
X001928Y012224D01*
X001973Y012207D01*
X002017Y012187D01*
X002059Y012164D01*
X002099Y012137D01*
X002137Y012107D01*
X002172Y012074D01*
X002204Y012038D01*
X002234Y012000D01*
X002260Y011959D01*
X002282Y011916D01*
X002302Y011872D01*
X002317Y011827D01*
X002329Y011780D01*
X002337Y011732D01*
X002341Y011684D01*
X002341Y011636D01*
X002337Y011588D01*
X002329Y011540D01*
X002317Y011493D01*
X002302Y011448D01*
X002282Y011404D01*
X002260Y011361D01*
X002234Y011320D01*
X002204Y011282D01*
X002172Y011246D01*
X002137Y011213D01*
X002099Y011183D01*
X002059Y011156D01*
X002017Y011133D01*
X001973Y011113D01*
X001928Y011096D01*
X001882Y011084D01*
X001834Y011075D01*
X001786Y011070D01*
X001738Y011069D01*
X001690Y011072D01*
X001642Y011079D01*
X001595Y011090D01*
X001549Y011104D01*
X001504Y011122D01*
X001461Y011144D01*
X001420Y011169D01*
X001382Y011198D01*
X001345Y011230D01*
X001311Y011264D01*
X001281Y011301D01*
X001253Y011340D01*
X001228Y011382D01*
X001208Y011426D01*
X001190Y011471D01*
X001177Y011517D01*
X001167Y011564D01*
X001161Y011612D01*
X001159Y011660D01*
X014159Y011660D02*
X014161Y011708D01*
X014167Y011756D01*
X014177Y011803D01*
X014190Y011849D01*
X014208Y011894D01*
X014228Y011938D01*
X014253Y011980D01*
X014281Y012019D01*
X014311Y012056D01*
X014345Y012090D01*
X014382Y012122D01*
X014420Y012151D01*
X014461Y012176D01*
X014504Y012198D01*
X014549Y012216D01*
X014595Y012230D01*
X014642Y012241D01*
X014690Y012248D01*
X014738Y012251D01*
X014786Y012250D01*
X014834Y012245D01*
X014882Y012236D01*
X014928Y012224D01*
X014973Y012207D01*
X015017Y012187D01*
X015059Y012164D01*
X015099Y012137D01*
X015137Y012107D01*
X015172Y012074D01*
X015204Y012038D01*
X015234Y012000D01*
X015260Y011959D01*
X015282Y011916D01*
X015302Y011872D01*
X015317Y011827D01*
X015329Y011780D01*
X015337Y011732D01*
X015341Y011684D01*
X015341Y011636D01*
X015337Y011588D01*
X015329Y011540D01*
X015317Y011493D01*
X015302Y011448D01*
X015282Y011404D01*
X015260Y011361D01*
X015234Y011320D01*
X015204Y011282D01*
X015172Y011246D01*
X015137Y011213D01*
X015099Y011183D01*
X015059Y011156D01*
X015017Y011133D01*
X014973Y011113D01*
X014928Y011096D01*
X014882Y011084D01*
X014834Y011075D01*
X014786Y011070D01*
X014738Y011069D01*
X014690Y011072D01*
X014642Y011079D01*
X014595Y011090D01*
X014549Y011104D01*
X014504Y011122D01*
X014461Y011144D01*
X014420Y011169D01*
X014382Y011198D01*
X014345Y011230D01*
X014311Y011264D01*
X014281Y011301D01*
X014253Y011340D01*
X014228Y011382D01*
X014208Y011426D01*
X014190Y011471D01*
X014177Y011517D01*
X014167Y011564D01*
X014161Y011612D01*
X014159Y011660D01*
D14*
X014000Y007951D03*
X014000Y007557D03*
X014000Y007163D03*
X014000Y006769D03*
X002500Y006769D03*
X002500Y007163D03*
X002500Y007557D03*
X002500Y007951D03*
D15*
X000925Y008423D03*
X000925Y006297D03*
X015575Y006297D03*
X015575Y008423D03*
D16*
X012219Y009329D03*
X011431Y009329D03*
X010644Y009329D03*
X009856Y009329D03*
X009069Y009329D03*
X008281Y009329D03*
X008281Y005391D03*
X009069Y005391D03*
X009856Y005391D03*
X010644Y005391D03*
X011431Y005391D03*
X012219Y005391D03*
D17*
X007297Y006179D03*
X007297Y006966D03*
X007297Y007754D03*
X007297Y008541D03*
D18*
X004874Y009810D03*
X004126Y009810D03*
X004500Y009010D03*
X004126Y006560D03*
X004874Y006560D03*
X004500Y005760D03*
D19*
X005131Y007229D02*
X005131Y007491D01*
X005131Y007229D02*
X004869Y007229D01*
X004869Y007491D01*
X005131Y007491D01*
X005131Y007316D02*
X004869Y007316D01*
X004869Y007403D02*
X005131Y007403D01*
X005131Y007490D02*
X004869Y007490D01*
X005131Y007829D02*
X005131Y008091D01*
X005131Y007829D02*
X004869Y007829D01*
X004869Y008091D01*
X005131Y008091D01*
X005131Y007916D02*
X004869Y007916D01*
X004869Y008003D02*
X005131Y008003D01*
X005131Y008090D02*
X004869Y008090D01*
X005619Y008091D02*
X005619Y007829D01*
X005619Y008091D02*
X005881Y008091D01*
X005881Y007829D01*
X005619Y007829D01*
X005619Y007916D02*
X005881Y007916D01*
X005881Y008003D02*
X005619Y008003D01*
X005619Y008090D02*
X005881Y008090D01*
X005619Y007491D02*
X005619Y007229D01*
X005619Y007491D02*
X005881Y007491D01*
X005881Y007229D01*
X005619Y007229D01*
X005619Y007316D02*
X005881Y007316D01*
X005881Y007403D02*
X005619Y007403D01*
X005619Y007490D02*
X005881Y007490D01*
X005619Y010479D02*
X005619Y010741D01*
X005881Y010741D01*
X005881Y010479D01*
X005619Y010479D01*
X005619Y010566D02*
X005881Y010566D01*
X005881Y010653D02*
X005619Y010653D01*
X005619Y010740D02*
X005881Y010740D01*
X005619Y011079D02*
X005619Y011341D01*
X005881Y011341D01*
X005881Y011079D01*
X005619Y011079D01*
X005619Y011166D02*
X005881Y011166D01*
X005881Y011253D02*
X005619Y011253D01*
X005619Y011340D02*
X005881Y011340D01*
X005131Y011341D02*
X005131Y011079D01*
X004869Y011079D01*
X004869Y011341D01*
X005131Y011341D01*
X005131Y011166D02*
X004869Y011166D01*
X004869Y011253D02*
X005131Y011253D01*
X005131Y011340D02*
X004869Y011340D01*
X005131Y010741D02*
X005131Y010479D01*
X004869Y010479D01*
X004869Y010741D01*
X005131Y010741D01*
X005131Y010566D02*
X004869Y010566D01*
X004869Y010653D02*
X005131Y010653D01*
X005131Y010740D02*
X004869Y010740D01*
D20*
X005969Y012410D03*
X007031Y012410D03*
X009469Y012410D03*
X010531Y012410D03*
D21*
X010531Y012291D01*
X010125Y011885D01*
X010050Y011810D01*
X009900Y011660D01*
X004450Y011660D01*
X004050Y011260D01*
X004000Y011260D01*
X003500Y011560D02*
X003850Y011910D01*
X006650Y011910D01*
X007031Y012291D01*
X007031Y012410D01*
X006674Y012467D02*
X006306Y012467D01*
X006306Y012439D02*
X006306Y012707D01*
X006295Y012747D01*
X006274Y012784D01*
X006244Y012814D01*
X006207Y012835D01*
X006167Y012846D01*
X005997Y012846D01*
X005997Y012439D01*
X005940Y012439D01*
X005940Y012846D01*
X005770Y012846D01*
X005730Y012835D01*
X005693Y012814D01*
X005663Y012784D01*
X005642Y012747D01*
X005631Y012707D01*
X005631Y012439D01*
X005940Y012439D01*
X005940Y012381D01*
X005631Y012381D01*
X005631Y012150D01*
X003802Y012150D01*
X003714Y012113D01*
X003647Y012046D01*
X003297Y011696D01*
X003260Y011608D01*
X003260Y008362D01*
X003297Y008274D01*
X003364Y008207D01*
X003545Y008026D01*
X003545Y007765D01*
X003650Y007660D01*
X003545Y007555D01*
X003545Y007065D01*
X003561Y007049D01*
X003558Y007050D01*
X003518Y007050D01*
X003540Y007102D01*
X003540Y007218D01*
X003496Y007324D01*
X003414Y007406D01*
X003308Y007450D01*
X003192Y007450D01*
X003086Y007406D01*
X003080Y007400D01*
X002916Y007400D01*
X002916Y007730D01*
X002874Y007772D01*
X002885Y007790D01*
X002896Y007831D01*
X002896Y007951D01*
X002896Y008070D01*
X002885Y008111D01*
X002864Y008147D01*
X002834Y008177D01*
X002798Y008198D01*
X002757Y008209D01*
X002500Y008209D01*
X002243Y008209D01*
X002202Y008198D01*
X002166Y008177D01*
X002136Y008147D01*
X002115Y008111D01*
X002104Y008070D01*
X002104Y007951D01*
X002500Y007951D01*
X002500Y008209D01*
X002500Y007951D01*
X002500Y007951D01*
X002500Y007951D01*
X002896Y007951D01*
X002500Y007951D01*
X002500Y007951D01*
X002104Y007951D01*
X002104Y007857D01*
X001987Y007857D01*
X001877Y007811D01*
X001580Y007514D01*
X001496Y007430D01*
X001450Y007320D01*
X001450Y003784D01*
X000996Y003330D01*
X000950Y003220D01*
X000950Y002709D01*
X000782Y002709D01*
X000754Y002681D01*
X000726Y002709D01*
X000508Y002709D01*
X000508Y005991D01*
X000509Y005990D01*
X000550Y005980D01*
X000906Y005980D01*
X000906Y006278D01*
X000944Y006278D01*
X000944Y005980D01*
X001301Y005980D01*
X001341Y005990D01*
X001378Y006011D01*
X001408Y006041D01*
X001429Y006078D01*
X001440Y006118D01*
X001440Y006278D01*
X000944Y006278D01*
X000944Y006316D01*
X000906Y006316D01*
X000906Y006614D01*
X000550Y006614D01*
X000509Y006604D01*
X000508Y006603D01*
X000508Y008117D01*
X000509Y008116D01*
X000550Y008106D01*
X000906Y008106D01*
X000906Y008404D01*
X000944Y008404D01*
X000944Y008106D01*
X001301Y008106D01*
X001341Y008116D01*
X001378Y008137D01*
X001408Y008167D01*
X001429Y008204D01*
X001440Y008244D01*
X001440Y008404D01*
X000944Y008404D01*
X000944Y008442D01*
X000906Y008442D01*
X000906Y008740D01*
X000550Y008740D01*
X000509Y008730D01*
X000508Y008729D01*
X000508Y011956D01*
X000516Y012083D01*
X000581Y012327D01*
X000708Y012547D01*
X000887Y012726D01*
X001106Y012852D01*
X001351Y012918D01*
X001478Y012926D01*
X015022Y012926D01*
X015149Y012918D01*
X015394Y012852D01*
X015613Y012726D01*
X015792Y012547D01*
X015919Y012327D01*
X015984Y012083D01*
X015992Y011956D01*
X015992Y008729D01*
X015991Y008730D01*
X015950Y008740D01*
X015594Y008740D01*
X015594Y008442D01*
X015556Y008442D01*
X015556Y008740D01*
X015199Y008740D01*
X015159Y008730D01*
X015122Y008709D01*
X015092Y008679D01*
X015071Y008642D01*
X015060Y008602D01*
X015060Y008442D01*
X015556Y008442D01*
X015556Y008404D01*
X015594Y008404D01*
X015594Y008106D01*
X015950Y008106D01*
X015991Y008116D01*
X015992Y008117D01*
X015992Y006603D01*
X015991Y006604D01*
X015950Y006614D01*
X015594Y006614D01*
X015594Y006316D01*
X015556Y006316D01*
X015556Y006614D01*
X015199Y006614D01*
X015159Y006604D01*
X015122Y006583D01*
X015092Y006553D01*
X015071Y006516D01*
X015060Y006476D01*
X015060Y006316D01*
X015556Y006316D01*
X015556Y006278D01*
X015594Y006278D01*
X015594Y005980D01*
X015950Y005980D01*
X015991Y005990D01*
X015992Y005991D01*
X015992Y002709D01*
X015774Y002709D01*
X015746Y002681D01*
X015718Y002709D01*
X015550Y002709D01*
X015550Y003220D01*
X015504Y003330D01*
X015420Y003414D01*
X015050Y003784D01*
X015050Y006970D01*
X015004Y007080D01*
X014667Y007417D01*
X014557Y007463D01*
X014416Y007463D01*
X014416Y007730D01*
X014392Y007754D01*
X014416Y007778D01*
X014416Y008124D01*
X014311Y008229D01*
X013689Y008229D01*
X013660Y008200D01*
X013170Y008200D01*
X013164Y008206D01*
X013058Y008250D01*
X012942Y008250D01*
X012836Y008206D01*
X012754Y008124D01*
X012710Y008018D01*
X012710Y007902D01*
X012754Y007796D01*
X012836Y007714D01*
X012942Y007670D01*
X012982Y007670D01*
X012960Y007618D01*
X012960Y007502D01*
X013004Y007396D01*
X013086Y007314D01*
X013192Y007270D01*
X013308Y007270D01*
X013414Y007314D01*
X013420Y007320D01*
X013584Y007320D01*
X013584Y006990D01*
X013626Y006948D01*
X013615Y006930D01*
X013604Y006889D01*
X013604Y006769D01*
X013604Y006650D01*
X013615Y006609D01*
X013636Y006573D01*
X013666Y006543D01*
X013702Y006522D01*
X013743Y006511D01*
X014000Y006511D01*
X014257Y006511D01*
X014298Y006522D01*
X014334Y006543D01*
X014364Y006573D01*
X014385Y006609D01*
X014396Y006650D01*
X014396Y006769D01*
X014000Y006769D01*
X014000Y006511D01*
X014000Y006769D01*
X014000Y006769D01*
X014000Y006769D01*
X013604Y006769D01*
X014000Y006769D01*
X014000Y006769D01*
X014396Y006769D01*
X014396Y006840D01*
X014450Y006786D01*
X014450Y004234D01*
X014276Y004060D01*
X011689Y004060D01*
X012422Y004793D01*
X012459Y004881D01*
X012459Y004916D01*
X012490Y004916D01*
X012595Y005022D01*
X012595Y005761D01*
X012490Y005867D01*
X011947Y005867D01*
X011842Y005761D01*
X011842Y005022D01*
X011907Y004956D01*
X011351Y004400D01*
X009829Y004400D01*
X010060Y004630D01*
X010096Y004719D01*
X010096Y004916D01*
X010128Y004916D01*
X010233Y005022D01*
X010233Y005761D01*
X010128Y005867D01*
X009585Y005867D01*
X009479Y005761D01*
X009479Y005022D01*
X009585Y004916D01*
X009616Y004916D01*
X009616Y004866D01*
X009401Y004650D01*
X006849Y004650D01*
X006490Y005009D01*
X006490Y010758D01*
X006453Y010846D01*
X006105Y011194D01*
X006105Y011420D01*
X009948Y011420D01*
X010036Y011457D01*
X010253Y011674D01*
X010328Y011749D01*
X010534Y011954D01*
X010783Y011954D01*
X010889Y012060D01*
X010889Y012760D01*
X010783Y012866D01*
X010280Y012866D01*
X010174Y012760D01*
X010174Y012274D01*
X009989Y012088D01*
X009914Y012013D01*
X009801Y011900D01*
X006979Y011900D01*
X007034Y011954D01*
X007283Y011954D01*
X007389Y012060D01*
X007389Y012760D01*
X007283Y012866D01*
X006780Y012866D01*
X006674Y012760D01*
X006674Y012274D01*
X006551Y012150D01*
X006306Y012150D01*
X006306Y012381D01*
X005997Y012381D01*
X005997Y012439D01*
X006306Y012439D01*
X006306Y012348D02*
X006674Y012348D01*
X006630Y012230D02*
X006306Y012230D01*
X005997Y012467D02*
X005940Y012467D01*
X005940Y012585D02*
X005997Y012585D01*
X005997Y012704D02*
X005940Y012704D01*
X005940Y012822D02*
X005997Y012822D01*
X006229Y012822D02*
X006736Y012822D01*
X006674Y012704D02*
X006306Y012704D01*
X006306Y012585D02*
X006674Y012585D01*
X007327Y012822D02*
X009208Y012822D01*
X009193Y012814D02*
X009163Y012784D01*
X009142Y012747D01*
X009131Y012707D01*
X009131Y012439D01*
X009440Y012439D01*
X009440Y012846D01*
X009270Y012846D01*
X009230Y012835D01*
X009193Y012814D01*
X009131Y012704D02*
X007389Y012704D01*
X007389Y012585D02*
X009131Y012585D01*
X009131Y012467D02*
X007389Y012467D01*
X007389Y012348D02*
X009131Y012348D01*
X009131Y012381D02*
X009131Y012113D01*
X009142Y012073D01*
X009163Y012036D01*
X009193Y012006D01*
X009230Y011985D01*
X009270Y011974D01*
X009440Y011974D01*
X009440Y012381D01*
X009497Y012381D01*
X009497Y011974D01*
X009667Y011974D01*
X009707Y011985D01*
X009744Y012006D01*
X009774Y012036D01*
X009795Y012073D01*
X009806Y012113D01*
X009806Y012381D01*
X009497Y012381D01*
X009497Y012439D01*
X009440Y012439D01*
X009440Y012381D01*
X009131Y012381D01*
X009131Y012230D02*
X007389Y012230D01*
X007389Y012111D02*
X009132Y012111D01*
X009217Y011993D02*
X007321Y011993D01*
X006255Y011045D02*
X014276Y011045D01*
X014314Y011007D02*
X014097Y011224D01*
X013979Y011507D01*
X013979Y011813D01*
X014097Y012096D01*
X014314Y012313D01*
X014597Y012431D01*
X014903Y012431D01*
X015186Y012313D01*
X015403Y012096D01*
X015521Y011813D01*
X015521Y011507D01*
X015403Y011224D01*
X015186Y011007D01*
X014903Y010889D01*
X014597Y010889D01*
X014314Y011007D01*
X014508Y010926D02*
X006373Y010926D01*
X006469Y010808D02*
X015992Y010808D01*
X015992Y010926D02*
X014992Y010926D01*
X015224Y011045D02*
X015992Y011045D01*
X015992Y011163D02*
X015343Y011163D01*
X015427Y011282D02*
X015992Y011282D01*
X015992Y011400D02*
X015476Y011400D01*
X015521Y011519D02*
X015992Y011519D01*
X015992Y011637D02*
X015521Y011637D01*
X015521Y011756D02*
X015992Y011756D01*
X015992Y011874D02*
X015495Y011874D01*
X015446Y011993D02*
X015990Y011993D01*
X015977Y012111D02*
X015389Y012111D01*
X015270Y012230D02*
X015945Y012230D01*
X015907Y012348D02*
X015103Y012348D01*
X015446Y012822D02*
X010827Y012822D01*
X010889Y012704D02*
X015635Y012704D01*
X015754Y012585D02*
X010889Y012585D01*
X010889Y012467D02*
X015838Y012467D01*
X014397Y012348D02*
X010889Y012348D01*
X010889Y012230D02*
X014230Y012230D01*
X014111Y012111D02*
X010889Y012111D01*
X010821Y011993D02*
X014054Y011993D01*
X014005Y011874D02*
X010453Y011874D01*
X010335Y011756D02*
X013979Y011756D01*
X013979Y011637D02*
X010216Y011637D01*
X010098Y011519D02*
X013979Y011519D01*
X014024Y011400D02*
X006105Y011400D01*
X006105Y011282D02*
X014073Y011282D01*
X014157Y011163D02*
X006136Y011163D01*
X005750Y011210D02*
X006250Y010710D01*
X006250Y007960D01*
X005750Y007960D01*
X005000Y007960D01*
X004645Y007964D02*
X004455Y007964D01*
X004455Y008082D02*
X004645Y008082D01*
X004645Y008184D02*
X004645Y007736D01*
X004721Y007660D01*
X004645Y007584D01*
X004645Y007136D01*
X004760Y007021D01*
X004760Y006965D01*
X004599Y006965D01*
X004500Y006866D01*
X004401Y006965D01*
X004355Y006965D01*
X004455Y007065D01*
X004455Y007555D01*
X004350Y007660D01*
X004455Y007765D01*
X004455Y008255D01*
X004320Y008390D01*
X003859Y008390D01*
X003740Y008509D01*
X003740Y010180D01*
X003760Y010180D01*
X003760Y010124D01*
X003746Y010110D01*
X003746Y009510D01*
X003851Y009405D01*
X004215Y009405D01*
X004120Y009310D01*
X004120Y008710D01*
X004200Y008630D01*
X004200Y008600D01*
X004246Y008490D01*
X004330Y008406D01*
X004440Y008360D01*
X004560Y008360D01*
X004670Y008406D01*
X004754Y008490D01*
X004800Y008600D01*
X004800Y008630D01*
X004880Y008710D01*
X004880Y009310D01*
X004785Y009405D01*
X005149Y009405D01*
X005254Y009510D01*
X005254Y010110D01*
X005190Y010174D01*
X005190Y010255D01*
X005224Y010255D01*
X005355Y010386D01*
X005355Y010834D01*
X005279Y010910D01*
X005339Y010970D01*
X005411Y010970D01*
X005485Y010896D01*
X005456Y010866D01*
X005429Y010820D01*
X005415Y010768D01*
X005415Y010638D01*
X005722Y010638D01*
X005722Y010582D01*
X005778Y010582D01*
X005778Y010275D01*
X005908Y010275D01*
X005960Y010289D01*
X006006Y010316D01*
X006010Y010319D01*
X006010Y008279D01*
X005974Y008315D01*
X005526Y008315D01*
X005411Y008200D01*
X005339Y008200D01*
X005224Y008315D01*
X004776Y008315D01*
X004645Y008184D01*
X004662Y008201D02*
X004455Y008201D01*
X004391Y008319D02*
X006010Y008319D01*
X006010Y008438D02*
X004702Y008438D01*
X004782Y008556D02*
X006010Y008556D01*
X006010Y008675D02*
X004844Y008675D01*
X004880Y008793D02*
X006010Y008793D01*
X006010Y008912D02*
X004880Y008912D01*
X004880Y009030D02*
X006010Y009030D01*
X006010Y009149D02*
X004880Y009149D01*
X004880Y009267D02*
X006010Y009267D01*
X006010Y009386D02*
X004804Y009386D01*
X005248Y009504D02*
X006010Y009504D01*
X006010Y009623D02*
X005254Y009623D01*
X005254Y009741D02*
X006010Y009741D01*
X006010Y009860D02*
X005254Y009860D01*
X005254Y009978D02*
X006010Y009978D01*
X006010Y010097D02*
X005254Y010097D01*
X005190Y010215D02*
X006010Y010215D01*
X005778Y010334D02*
X005722Y010334D01*
X005722Y010275D02*
X005722Y010582D01*
X005415Y010582D01*
X005415Y010452D01*
X005355Y010452D01*
X005415Y010452D02*
X005429Y010400D01*
X005456Y010354D01*
X005494Y010316D01*
X005540Y010289D01*
X005592Y010275D01*
X005722Y010275D01*
X005722Y010452D02*
X005778Y010452D01*
X005778Y010571D02*
X005722Y010571D01*
X005415Y010571D02*
X005355Y010571D01*
X005355Y010689D02*
X005415Y010689D01*
X005426Y010808D02*
X005355Y010808D01*
X005295Y010926D02*
X005455Y010926D01*
X005750Y011210D02*
X005000Y011210D01*
X005000Y010610D02*
X004950Y010610D01*
X004950Y009886D01*
X004874Y009810D01*
X005302Y010334D02*
X005476Y010334D01*
X006490Y010334D02*
X011163Y010334D01*
X011154Y010324D02*
X011236Y010406D01*
X011342Y010450D01*
X011458Y010450D01*
X011564Y010406D01*
X011646Y010324D01*
X011690Y010218D01*
X011690Y010102D01*
X011646Y009996D01*
X011640Y009990D01*
X011640Y009804D01*
X011703Y009804D01*
X011808Y009698D01*
X011808Y008959D01*
X011703Y008853D01*
X011160Y008853D01*
X011054Y008959D01*
X011054Y009698D01*
X011160Y009804D01*
X011160Y009804D01*
X011160Y009990D01*
X011154Y009996D01*
X011110Y010102D01*
X011110Y010218D01*
X011154Y010324D01*
X011110Y010215D02*
X009068Y010215D01*
X009070Y010214D02*
X008960Y010260D01*
X008390Y010260D01*
X008280Y010214D01*
X008112Y010046D01*
X008027Y009961D01*
X007981Y009851D01*
X007981Y009775D01*
X007905Y009698D01*
X007905Y008959D01*
X008010Y008853D01*
X008553Y008853D01*
X008658Y008959D01*
X008658Y009660D01*
X008692Y009660D01*
X008692Y008959D01*
X008769Y008882D01*
X008769Y008765D01*
X008750Y008720D01*
X008750Y008600D01*
X008796Y008490D01*
X008880Y008406D01*
X008990Y008360D01*
X009110Y008360D01*
X009220Y008406D01*
X009323Y008509D01*
X009369Y008619D01*
X009369Y008882D01*
X009446Y008959D01*
X009446Y009698D01*
X009369Y009775D01*
X009369Y009851D01*
X009323Y009961D01*
X009154Y010130D01*
X009070Y010214D01*
X009188Y010097D02*
X011112Y010097D01*
X011160Y009978D02*
X009306Y009978D01*
X009365Y009860D02*
X011160Y009860D01*
X011097Y009741D02*
X010950Y009741D01*
X010939Y009752D02*
X010902Y009773D01*
X010862Y009784D01*
X010682Y009784D01*
X010682Y009367D01*
X010605Y009367D01*
X010605Y009290D01*
X010287Y009290D01*
X010287Y009012D01*
X010298Y008971D01*
X010319Y008935D01*
X010349Y008905D01*
X010385Y008884D01*
X010426Y008873D01*
X010605Y008873D01*
X010605Y009290D01*
X010682Y009290D01*
X010682Y008873D01*
X010862Y008873D01*
X010902Y008884D01*
X010939Y008905D01*
X010969Y008935D01*
X010990Y008971D01*
X011001Y009012D01*
X011001Y009290D01*
X010682Y009290D01*
X010682Y009367D01*
X011001Y009367D01*
X011001Y009645D01*
X010990Y009686D01*
X010969Y009722D01*
X010939Y009752D01*
X011001Y009623D02*
X011054Y009623D01*
X011054Y009504D02*
X011001Y009504D01*
X011001Y009386D02*
X011054Y009386D01*
X011054Y009267D02*
X011001Y009267D01*
X011001Y009149D02*
X011054Y009149D01*
X011054Y009030D02*
X011001Y009030D01*
X010945Y008912D02*
X011101Y008912D01*
X010682Y008912D02*
X010605Y008912D01*
X010605Y009030D02*
X010682Y009030D01*
X010682Y009149D02*
X010605Y009149D01*
X010605Y009267D02*
X010682Y009267D01*
X010682Y009386D02*
X010605Y009386D01*
X010605Y009367D02*
X010605Y009784D01*
X010426Y009784D01*
X010385Y009773D01*
X010349Y009752D01*
X010319Y009722D01*
X010298Y009686D01*
X010287Y009645D01*
X010287Y009367D01*
X010605Y009367D01*
X010605Y009504D02*
X010682Y009504D01*
X010682Y009623D02*
X010605Y009623D01*
X010605Y009741D02*
X010682Y009741D01*
X010338Y009741D02*
X010190Y009741D01*
X010233Y009698D02*
X010128Y009804D01*
X009585Y009804D01*
X009479Y009698D01*
X009479Y008959D01*
X009585Y008853D01*
X010128Y008853D01*
X010233Y008959D01*
X010233Y009698D01*
X010233Y009623D02*
X010287Y009623D01*
X010287Y009504D02*
X010233Y009504D01*
X010233Y009386D02*
X010287Y009386D01*
X010287Y009267D02*
X010233Y009267D01*
X010233Y009149D02*
X010287Y009149D01*
X010287Y009030D02*
X010233Y009030D01*
X010186Y008912D02*
X010342Y008912D01*
X009527Y008912D02*
X009399Y008912D01*
X009369Y008793D02*
X015992Y008793D01*
X015992Y008912D02*
X012548Y008912D01*
X012595Y008959D02*
X012490Y008853D01*
X011947Y008853D01*
X011842Y008959D01*
X011842Y009698D01*
X011935Y009792D01*
X011910Y009852D01*
X011910Y009968D01*
X011954Y010074D01*
X012036Y010156D01*
X012142Y010200D01*
X012258Y010200D01*
X012364Y010156D01*
X012446Y010074D01*
X012490Y009968D01*
X012490Y009852D01*
X012470Y009804D01*
X012490Y009804D01*
X012595Y009698D01*
X012595Y008959D01*
X012595Y009030D02*
X015992Y009030D01*
X015992Y009149D02*
X012595Y009149D01*
X012595Y009267D02*
X015992Y009267D01*
X015992Y009386D02*
X012595Y009386D01*
X012595Y009504D02*
X015992Y009504D01*
X015992Y009623D02*
X012595Y009623D01*
X012553Y009741D02*
X015992Y009741D01*
X015992Y009860D02*
X012490Y009860D01*
X012486Y009978D02*
X015992Y009978D01*
X015992Y010097D02*
X012424Y010097D01*
X012200Y009910D02*
X012200Y009347D01*
X012219Y009329D01*
X011842Y009386D02*
X011808Y009386D01*
X011808Y009504D02*
X011842Y009504D01*
X011842Y009623D02*
X011808Y009623D01*
X011765Y009741D02*
X011884Y009741D01*
X011910Y009860D02*
X011640Y009860D01*
X011640Y009978D02*
X011914Y009978D01*
X011976Y010097D02*
X011688Y010097D01*
X011690Y010215D02*
X015992Y010215D01*
X015992Y010334D02*
X011637Y010334D01*
X011400Y010160D02*
X011400Y009360D01*
X011431Y009329D01*
X011808Y009267D02*
X011842Y009267D01*
X011842Y009149D02*
X011808Y009149D01*
X011808Y009030D02*
X011842Y009030D01*
X011889Y008912D02*
X011761Y008912D01*
X012737Y008082D02*
X007716Y008082D01*
X007667Y008131D02*
X007773Y008025D01*
X007773Y007482D01*
X007667Y007377D01*
X006927Y007377D01*
X006822Y007482D01*
X006822Y008025D01*
X006927Y008131D01*
X007667Y008131D01*
X007667Y008164D02*
X007773Y008270D01*
X007773Y008813D01*
X007667Y008918D01*
X006927Y008918D01*
X006822Y008813D01*
X006822Y008270D01*
X006927Y008164D01*
X007667Y008164D01*
X007703Y008201D02*
X012830Y008201D01*
X012710Y007964D02*
X007773Y007964D01*
X007773Y007845D02*
X012734Y007845D01*
X012823Y007727D02*
X007773Y007727D01*
X007773Y007608D02*
X012960Y007608D01*
X012965Y007490D02*
X007773Y007490D01*
X007667Y007343D02*
X006927Y007343D01*
X006822Y007238D01*
X006822Y006695D01*
X006927Y006589D01*
X007667Y006589D01*
X007773Y006695D01*
X007773Y006720D01*
X008080Y006720D01*
X008086Y006714D01*
X008192Y006670D01*
X008308Y006670D01*
X008414Y006714D01*
X008496Y006796D01*
X008540Y006902D01*
X008540Y007018D01*
X008496Y007124D01*
X008414Y007206D01*
X008308Y007250D01*
X008192Y007250D01*
X008086Y007206D01*
X008080Y007200D01*
X007773Y007200D01*
X007773Y007238D01*
X007667Y007343D01*
X007758Y007253D02*
X013584Y007253D01*
X013584Y007134D02*
X008486Y007134D01*
X008540Y007016D02*
X013584Y007016D01*
X013606Y006897D02*
X008538Y006897D01*
X008479Y006779D02*
X013604Y006779D01*
X013604Y006660D02*
X013404Y006660D01*
X013414Y006656D02*
X013308Y006700D01*
X013192Y006700D01*
X013086Y006656D01*
X013080Y006650D01*
X010952Y006650D01*
X010864Y006613D01*
X010797Y006546D01*
X010440Y006190D01*
X010404Y006101D01*
X010404Y005867D01*
X010372Y005867D01*
X010267Y005761D01*
X010267Y005022D01*
X010372Y004916D01*
X010915Y004916D01*
X011021Y005022D01*
X011021Y005761D01*
X010915Y005867D01*
X010884Y005867D01*
X010884Y005954D01*
X011099Y006170D01*
X011321Y006170D01*
X011228Y006077D01*
X011191Y005989D01*
X011191Y005867D01*
X011160Y005867D01*
X011054Y005761D01*
X011054Y005022D01*
X011160Y004916D01*
X011703Y004916D01*
X011808Y005022D01*
X011808Y005761D01*
X011703Y005867D01*
X011696Y005867D01*
X011749Y005920D01*
X012830Y005920D01*
X012836Y005914D01*
X012942Y005870D01*
X013058Y005870D01*
X013164Y005914D01*
X013246Y005996D01*
X013290Y006102D01*
X013290Y006120D01*
X013308Y006120D01*
X013414Y006164D01*
X013496Y006246D01*
X013540Y006352D01*
X013540Y006468D01*
X013496Y006574D01*
X013414Y006656D01*
X013509Y006541D02*
X013668Y006541D01*
X013540Y006423D02*
X014450Y006423D01*
X014450Y006304D02*
X013520Y006304D01*
X013436Y006186D02*
X014450Y006186D01*
X014450Y006067D02*
X013276Y006067D01*
X013199Y005949D02*
X014450Y005949D01*
X014450Y005830D02*
X012526Y005830D01*
X012595Y005712D02*
X014450Y005712D01*
X014450Y005593D02*
X012595Y005593D01*
X012595Y005475D02*
X014450Y005475D01*
X014450Y005356D02*
X012595Y005356D01*
X012595Y005238D02*
X014450Y005238D01*
X014450Y005119D02*
X012595Y005119D01*
X012575Y005001D02*
X014450Y005001D01*
X014450Y004882D02*
X012459Y004882D01*
X012393Y004764D02*
X014450Y004764D01*
X014450Y004645D02*
X012275Y004645D01*
X012156Y004527D02*
X014450Y004527D01*
X014450Y004408D02*
X012038Y004408D01*
X011919Y004290D02*
X014450Y004290D01*
X014387Y004171D02*
X011801Y004171D01*
X011450Y004160D02*
X007250Y004160D01*
X006960Y004170D02*
X006960Y004102D01*
X006978Y004060D01*
X004974Y004060D01*
X004800Y004234D01*
X004800Y005380D01*
X004880Y005460D01*
X004880Y006060D01*
X004785Y006155D01*
X005149Y006155D01*
X005254Y006260D01*
X005254Y006860D01*
X005240Y006874D01*
X005240Y007021D01*
X005355Y007136D01*
X005355Y007584D01*
X005279Y007660D01*
X005339Y007720D01*
X005411Y007720D01*
X005485Y007646D01*
X005456Y007616D01*
X005429Y007570D01*
X005415Y007518D01*
X005415Y007388D01*
X005722Y007388D01*
X005722Y007332D01*
X005778Y007332D01*
X005778Y007025D01*
X005908Y007025D01*
X005960Y007039D01*
X006006Y007066D01*
X006010Y007069D01*
X006010Y004862D01*
X006047Y004774D01*
X006114Y004707D01*
X006614Y004207D01*
X006702Y004170D01*
X006960Y004170D01*
X006699Y004171D02*
X004863Y004171D01*
X004800Y004290D02*
X006531Y004290D01*
X006412Y004408D02*
X004800Y004408D01*
X004800Y004527D02*
X006294Y004527D01*
X006175Y004645D02*
X004800Y004645D01*
X004800Y004764D02*
X006057Y004764D01*
X006010Y004882D02*
X004800Y004882D01*
X004800Y005001D02*
X006010Y005001D01*
X006010Y005119D02*
X004800Y005119D01*
X004800Y005238D02*
X006010Y005238D01*
X006010Y005356D02*
X004800Y005356D01*
X004880Y005475D02*
X006010Y005475D01*
X006010Y005593D02*
X004880Y005593D01*
X004880Y005712D02*
X006010Y005712D01*
X006010Y005830D02*
X004880Y005830D01*
X004880Y005949D02*
X006010Y005949D01*
X006010Y006067D02*
X004872Y006067D01*
X005180Y006186D02*
X006010Y006186D01*
X006010Y006304D02*
X005254Y006304D01*
X005254Y006423D02*
X006010Y006423D01*
X006010Y006541D02*
X005254Y006541D01*
X005254Y006660D02*
X006010Y006660D01*
X006010Y006779D02*
X005254Y006779D01*
X005240Y006897D02*
X006010Y006897D01*
X006010Y007016D02*
X005240Y007016D01*
X005353Y007134D02*
X005438Y007134D01*
X005429Y007150D02*
X005456Y007104D01*
X005494Y007066D01*
X005540Y007039D01*
X005592Y007025D01*
X005722Y007025D01*
X005722Y007332D01*
X005415Y007332D01*
X005415Y007202D01*
X005429Y007150D01*
X005415Y007253D02*
X005355Y007253D01*
X005355Y007371D02*
X005722Y007371D01*
X005722Y007253D02*
X005778Y007253D01*
X005778Y007134D02*
X005722Y007134D01*
X005415Y007490D02*
X005355Y007490D01*
X005331Y007608D02*
X005451Y007608D01*
X005000Y007360D02*
X005000Y006686D01*
X004874Y006560D01*
X004531Y006897D02*
X004469Y006897D01*
X004406Y007016D02*
X004760Y007016D01*
X004647Y007134D02*
X004455Y007134D01*
X004455Y007253D02*
X004645Y007253D01*
X004645Y007371D02*
X004455Y007371D01*
X004455Y007490D02*
X004645Y007490D01*
X004669Y007608D02*
X004402Y007608D01*
X004417Y007727D02*
X004655Y007727D01*
X004645Y007845D02*
X004455Y007845D01*
X004000Y008010D02*
X003900Y008010D01*
X003500Y008410D01*
X003500Y011560D01*
X003272Y011637D02*
X002521Y011637D01*
X002521Y011519D02*
X003260Y011519D01*
X003260Y011400D02*
X002476Y011400D01*
X002521Y011507D02*
X002403Y011224D01*
X002186Y011007D01*
X001903Y010889D01*
X001597Y010889D01*
X001314Y011007D01*
X001097Y011224D01*
X000979Y011507D01*
X000979Y011813D01*
X001097Y012096D01*
X001314Y012313D01*
X001597Y012431D01*
X001903Y012431D01*
X002186Y012313D01*
X002403Y012096D01*
X002521Y011813D01*
X002521Y011507D01*
X002427Y011282D02*
X003260Y011282D01*
X003260Y011163D02*
X002343Y011163D01*
X002224Y011045D02*
X003260Y011045D01*
X003260Y010926D02*
X001992Y010926D01*
X001508Y010926D02*
X000508Y010926D01*
X000508Y010808D02*
X003260Y010808D01*
X003260Y010689D02*
X000508Y010689D01*
X000508Y010571D02*
X003260Y010571D01*
X003260Y010452D02*
X000508Y010452D01*
X000508Y010334D02*
X003260Y010334D01*
X003260Y010215D02*
X000508Y010215D01*
X000508Y010097D02*
X003260Y010097D01*
X003260Y009978D02*
X000508Y009978D01*
X000508Y009860D02*
X003260Y009860D01*
X003260Y009741D02*
X000508Y009741D01*
X000508Y009623D02*
X003260Y009623D01*
X003260Y009504D02*
X000508Y009504D01*
X000508Y009386D02*
X003260Y009386D01*
X003260Y009267D02*
X000508Y009267D01*
X000508Y009149D02*
X003260Y009149D01*
X003260Y009030D02*
X000508Y009030D01*
X000508Y008912D02*
X003260Y008912D01*
X003260Y008793D02*
X000508Y008793D01*
X000906Y008675D02*
X000944Y008675D01*
X000944Y008740D02*
X000944Y008442D01*
X001440Y008442D01*
X001440Y008602D01*
X001429Y008642D01*
X001408Y008679D01*
X001378Y008709D01*
X001341Y008730D01*
X001301Y008740D01*
X000944Y008740D01*
X000944Y008556D02*
X000906Y008556D01*
X000944Y008438D02*
X003260Y008438D01*
X003260Y008556D02*
X001440Y008556D01*
X001410Y008675D02*
X003260Y008675D01*
X003278Y008319D02*
X001440Y008319D01*
X001427Y008201D02*
X002211Y008201D01*
X002107Y008082D02*
X000508Y008082D01*
X000508Y007964D02*
X002104Y007964D01*
X001959Y007845D02*
X000508Y007845D01*
X000508Y007727D02*
X001792Y007727D01*
X001674Y007608D02*
X000508Y007608D01*
X000508Y007490D02*
X001555Y007490D01*
X001471Y007371D02*
X000508Y007371D01*
X000508Y007253D02*
X001450Y007253D01*
X001450Y007134D02*
X000508Y007134D01*
X000508Y007016D02*
X001450Y007016D01*
X001450Y006897D02*
X000508Y006897D01*
X000508Y006779D02*
X001450Y006779D01*
X001450Y006660D02*
X000508Y006660D01*
X000906Y006541D02*
X000944Y006541D01*
X000944Y006614D02*
X000944Y006316D01*
X001440Y006316D01*
X001440Y006476D01*
X001429Y006516D01*
X001408Y006553D01*
X001378Y006583D01*
X001341Y006604D01*
X001301Y006614D01*
X000944Y006614D01*
X000944Y006423D02*
X000906Y006423D01*
X000944Y006304D02*
X001450Y006304D01*
X001440Y006186D02*
X001450Y006186D01*
X001450Y006067D02*
X001423Y006067D01*
X001450Y005949D02*
X000508Y005949D01*
X000508Y005830D02*
X001450Y005830D01*
X001450Y005712D02*
X000508Y005712D01*
X000508Y005593D02*
X001450Y005593D01*
X001450Y005475D02*
X000508Y005475D01*
X000508Y005356D02*
X001450Y005356D01*
X001450Y005238D02*
X000508Y005238D01*
X000508Y005119D02*
X001450Y005119D01*
X001450Y005001D02*
X000508Y005001D01*
X000508Y004882D02*
X001450Y004882D01*
X001450Y004764D02*
X000508Y004764D01*
X000508Y004645D02*
X001450Y004645D01*
X001450Y004527D02*
X000508Y004527D01*
X000508Y004408D02*
X001450Y004408D01*
X001450Y004290D02*
X000508Y004290D01*
X000508Y004171D02*
X001450Y004171D01*
X001450Y004053D02*
X000508Y004053D01*
X000508Y003934D02*
X001450Y003934D01*
X001450Y003816D02*
X000508Y003816D01*
X000508Y003697D02*
X001363Y003697D01*
X001245Y003579D02*
X000508Y003579D01*
X000508Y003460D02*
X001126Y003460D01*
X001008Y003342D02*
X000508Y003342D01*
X000508Y003223D02*
X000952Y003223D01*
X000950Y003105D02*
X000508Y003105D01*
X000508Y002986D02*
X000950Y002986D01*
X000950Y002868D02*
X000508Y002868D01*
X000508Y002749D02*
X000950Y002749D01*
X001550Y002749D02*
X002973Y002749D01*
X002960Y002718D02*
X002960Y002709D01*
X002782Y002709D01*
X002734Y002662D01*
X002705Y002678D01*
X002665Y002689D01*
X002310Y002689D01*
X002310Y001408D01*
X002190Y001408D01*
X002190Y002689D01*
X001835Y002689D01*
X001795Y002678D01*
X001766Y002662D01*
X001718Y002709D01*
X001550Y002709D01*
X001550Y003036D01*
X001920Y003406D01*
X001974Y003460D01*
X003361Y003460D01*
X003114Y003213D01*
X003047Y003146D01*
X003010Y003058D01*
X003010Y002830D01*
X003004Y002824D01*
X002960Y002718D01*
X003010Y002868D02*
X001550Y002868D01*
X001550Y002986D02*
X003010Y002986D01*
X003030Y003105D02*
X001619Y003105D01*
X001738Y003223D02*
X003124Y003223D01*
X003243Y003342D02*
X001856Y003342D01*
X001920Y003406D02*
X001920Y003406D01*
X002224Y004060D02*
X002050Y004234D01*
X002050Y007136D01*
X002084Y007170D01*
X002084Y006990D01*
X002108Y006966D01*
X002084Y006942D01*
X002084Y006596D01*
X002189Y006491D01*
X002811Y006491D01*
X002849Y006529D01*
X003320Y006529D01*
X003336Y006514D01*
X003442Y006470D01*
X003558Y006470D01*
X003664Y006514D01*
X003746Y006596D01*
X003746Y006260D01*
X003851Y006155D01*
X004215Y006155D01*
X004120Y006060D01*
X004120Y005460D01*
X004200Y005380D01*
X004200Y004234D01*
X004026Y004060D01*
X002224Y004060D01*
X002113Y004171D02*
X004137Y004171D01*
X004200Y004290D02*
X002050Y004290D01*
X002050Y004408D02*
X004200Y004408D01*
X004200Y004527D02*
X002050Y004527D01*
X002050Y004645D02*
X004200Y004645D01*
X004200Y004764D02*
X002050Y004764D01*
X002050Y004882D02*
X004200Y004882D01*
X004200Y005001D02*
X002050Y005001D01*
X002050Y005119D02*
X004200Y005119D01*
X004200Y005238D02*
X002050Y005238D01*
X002050Y005356D02*
X004200Y005356D01*
X004120Y005475D02*
X002050Y005475D01*
X002050Y005593D02*
X004120Y005593D01*
X004120Y005712D02*
X002050Y005712D01*
X002050Y005830D02*
X004120Y005830D01*
X004120Y005949D02*
X002050Y005949D01*
X002050Y006067D02*
X004128Y006067D01*
X003820Y006186D02*
X002050Y006186D01*
X002050Y006304D02*
X003746Y006304D01*
X003746Y006423D02*
X002050Y006423D01*
X002050Y006541D02*
X002139Y006541D01*
X002084Y006660D02*
X002050Y006660D01*
X002050Y006779D02*
X002084Y006779D01*
X002084Y006897D02*
X002050Y006897D01*
X002050Y007016D02*
X002084Y007016D01*
X002084Y007134D02*
X002050Y007134D01*
X002500Y007163D02*
X002503Y007160D01*
X003250Y007160D01*
X003449Y007371D02*
X003545Y007371D01*
X003545Y007253D02*
X003526Y007253D01*
X003540Y007134D02*
X003545Y007134D01*
X003545Y007490D02*
X002916Y007490D01*
X002916Y007608D02*
X003598Y007608D01*
X003583Y007727D02*
X002916Y007727D01*
X002896Y007845D02*
X003545Y007845D01*
X003545Y007964D02*
X002896Y007964D01*
X002893Y008082D02*
X003489Y008082D01*
X003370Y008201D02*
X002789Y008201D01*
X002500Y008201D02*
X002500Y008201D01*
X002500Y008082D02*
X002500Y008082D01*
X002500Y007964D02*
X002500Y007964D01*
X003740Y008556D02*
X004218Y008556D01*
X004156Y008675D02*
X003740Y008675D01*
X003740Y008793D02*
X004120Y008793D01*
X004120Y008912D02*
X003740Y008912D01*
X003740Y009030D02*
X004120Y009030D01*
X004120Y009149D02*
X003740Y009149D01*
X003740Y009267D02*
X004120Y009267D01*
X004196Y009386D02*
X003740Y009386D01*
X003740Y009504D02*
X003752Y009504D01*
X003740Y009623D02*
X003746Y009623D01*
X003740Y009741D02*
X003746Y009741D01*
X003740Y009860D02*
X003746Y009860D01*
X003740Y009978D02*
X003746Y009978D01*
X003740Y010097D02*
X003746Y010097D01*
X004050Y009810D02*
X004000Y009760D01*
X004000Y010560D01*
X004050Y009810D02*
X004126Y009810D01*
X004298Y008438D02*
X003812Y008438D01*
X004000Y007310D02*
X004000Y006686D01*
X004126Y006560D01*
X003746Y006541D02*
X003692Y006541D01*
X003746Y006596D02*
X003746Y006596D01*
X003500Y006760D02*
X003491Y006769D01*
X002500Y006769D01*
X001450Y006541D02*
X001414Y006541D01*
X001440Y006423D02*
X001450Y006423D01*
X000944Y006186D02*
X000906Y006186D01*
X000906Y006067D02*
X000944Y006067D01*
X000906Y008201D02*
X000944Y008201D01*
X000944Y008319D02*
X000906Y008319D01*
X001276Y011045D02*
X000508Y011045D01*
X000508Y011163D02*
X001157Y011163D01*
X001073Y011282D02*
X000508Y011282D01*
X000508Y011400D02*
X001024Y011400D01*
X000979Y011519D02*
X000508Y011519D01*
X000508Y011637D02*
X000979Y011637D01*
X000979Y011756D02*
X000508Y011756D01*
X000508Y011874D02*
X001005Y011874D01*
X001054Y011993D02*
X000510Y011993D01*
X000523Y012111D02*
X001111Y012111D01*
X001230Y012230D02*
X000555Y012230D01*
X000593Y012348D02*
X001397Y012348D01*
X001054Y012822D02*
X005708Y012822D01*
X005631Y012704D02*
X000865Y012704D01*
X000746Y012585D02*
X005631Y012585D01*
X005631Y012467D02*
X000662Y012467D01*
X002103Y012348D02*
X005631Y012348D01*
X005631Y012230D02*
X002270Y012230D01*
X002389Y012111D02*
X003712Y012111D01*
X003593Y011993D02*
X002446Y011993D01*
X002495Y011874D02*
X003475Y011874D01*
X003356Y011756D02*
X002521Y011756D01*
X006490Y010689D02*
X015992Y010689D01*
X015992Y010571D02*
X006490Y010571D01*
X006490Y010452D02*
X015992Y010452D01*
X015594Y008675D02*
X015556Y008675D01*
X015556Y008556D02*
X015594Y008556D01*
X015556Y008438D02*
X009252Y008438D01*
X009343Y008556D02*
X015060Y008556D01*
X015090Y008675D02*
X009369Y008675D01*
X009446Y009030D02*
X009479Y009030D01*
X009479Y009149D02*
X009446Y009149D01*
X009446Y009267D02*
X009479Y009267D01*
X009479Y009386D02*
X009446Y009386D01*
X009446Y009504D02*
X009479Y009504D01*
X009479Y009623D02*
X009446Y009623D01*
X009403Y009741D02*
X009522Y009741D01*
X008692Y009623D02*
X008658Y009623D01*
X008658Y009504D02*
X008692Y009504D01*
X008692Y009386D02*
X008658Y009386D01*
X008658Y009267D02*
X008692Y009267D01*
X008692Y009149D02*
X008658Y009149D01*
X008658Y009030D02*
X008692Y009030D01*
X008739Y008912D02*
X008611Y008912D01*
X008769Y008793D02*
X007773Y008793D01*
X007773Y008675D02*
X008750Y008675D01*
X008768Y008556D02*
X007773Y008556D01*
X007773Y008438D02*
X008848Y008438D01*
X007952Y008912D02*
X007674Y008912D01*
X007905Y009030D02*
X006490Y009030D01*
X006490Y008912D02*
X006921Y008912D01*
X006822Y008793D02*
X006490Y008793D01*
X006490Y008675D02*
X006822Y008675D01*
X006822Y008556D02*
X006490Y008556D01*
X006490Y008438D02*
X006822Y008438D01*
X006822Y008319D02*
X006490Y008319D01*
X006490Y008201D02*
X006891Y008201D01*
X006879Y008082D02*
X006490Y008082D01*
X006490Y007964D02*
X006822Y007964D01*
X006822Y007845D02*
X006490Y007845D01*
X006490Y007727D02*
X006822Y007727D01*
X006822Y007608D02*
X006490Y007608D01*
X006490Y007490D02*
X006822Y007490D01*
X006837Y007253D02*
X006490Y007253D01*
X006490Y007371D02*
X013029Y007371D01*
X013250Y007560D02*
X013997Y007560D01*
X014000Y007557D01*
X014000Y007951D02*
X013991Y007960D01*
X013000Y007960D01*
X013170Y008201D02*
X013661Y008201D01*
X014339Y008201D02*
X015073Y008201D01*
X015071Y008204D02*
X015092Y008167D01*
X015122Y008137D01*
X015159Y008116D01*
X015199Y008106D01*
X015556Y008106D01*
X015556Y008404D01*
X015060Y008404D01*
X015060Y008244D01*
X015071Y008204D01*
X015060Y008319D02*
X007773Y008319D01*
X007905Y009149D02*
X006490Y009149D01*
X006490Y009267D02*
X007905Y009267D01*
X007905Y009386D02*
X006490Y009386D01*
X006490Y009504D02*
X007905Y009504D01*
X007905Y009623D02*
X006490Y009623D01*
X006490Y009741D02*
X007947Y009741D01*
X007985Y009860D02*
X006490Y009860D01*
X006490Y009978D02*
X008044Y009978D01*
X008162Y010097D02*
X006490Y010097D01*
X006490Y010215D02*
X008282Y010215D01*
X009440Y011993D02*
X009497Y011993D01*
X009497Y012111D02*
X009440Y012111D01*
X009440Y012230D02*
X009497Y012230D01*
X009497Y012348D02*
X009440Y012348D01*
X009497Y012439D02*
X009806Y012439D01*
X009806Y012707D01*
X009795Y012747D01*
X009774Y012784D01*
X009744Y012814D01*
X009707Y012835D01*
X009667Y012846D01*
X009497Y012846D01*
X009497Y012439D01*
X009497Y012467D02*
X009440Y012467D01*
X009440Y012585D02*
X009497Y012585D01*
X009497Y012704D02*
X009440Y012704D01*
X009440Y012822D02*
X009497Y012822D01*
X009729Y012822D02*
X010236Y012822D01*
X010174Y012704D02*
X009806Y012704D01*
X009806Y012585D02*
X010174Y012585D01*
X010174Y012467D02*
X009806Y012467D01*
X009806Y012348D02*
X010174Y012348D01*
X010130Y012230D02*
X009806Y012230D01*
X009805Y012111D02*
X010012Y012111D01*
X009893Y011993D02*
X009720Y011993D01*
X005412Y008201D02*
X005338Y008201D01*
X006250Y007960D02*
X006250Y004910D01*
X006750Y004410D01*
X009500Y004410D01*
X009856Y004766D01*
X009856Y005391D01*
X010233Y005356D02*
X010267Y005356D01*
X010267Y005238D02*
X010233Y005238D01*
X010233Y005119D02*
X010267Y005119D01*
X010288Y005001D02*
X010212Y005001D01*
X010096Y004882D02*
X011833Y004882D01*
X011862Y005001D02*
X011787Y005001D01*
X011808Y005119D02*
X011842Y005119D01*
X011842Y005238D02*
X011808Y005238D01*
X011808Y005356D02*
X011842Y005356D01*
X011842Y005475D02*
X011808Y005475D01*
X011808Y005593D02*
X011842Y005593D01*
X011842Y005712D02*
X011808Y005712D01*
X011739Y005830D02*
X011911Y005830D01*
X011650Y006160D02*
X013000Y006160D01*
X013250Y006410D02*
X011000Y006410D01*
X010644Y006054D01*
X010644Y005391D01*
X010267Y005475D02*
X010233Y005475D01*
X010233Y005593D02*
X010267Y005593D01*
X010267Y005712D02*
X010233Y005712D01*
X010164Y005830D02*
X010336Y005830D01*
X010404Y005949D02*
X008199Y005949D01*
X008164Y005914D02*
X008246Y005996D01*
X008290Y006102D01*
X008290Y006218D01*
X008246Y006324D01*
X008164Y006406D01*
X008058Y006450D01*
X007942Y006450D01*
X007836Y006406D01*
X007830Y006400D01*
X007773Y006400D01*
X007773Y006450D01*
X007667Y006556D01*
X006927Y006556D01*
X006822Y006450D01*
X006822Y005907D01*
X006927Y005802D01*
X007667Y005802D01*
X007773Y005907D01*
X007773Y005920D01*
X007830Y005920D01*
X007836Y005914D01*
X007942Y005870D01*
X008058Y005870D01*
X008164Y005914D01*
X008010Y005867D02*
X007905Y005761D01*
X007905Y005631D01*
X007689Y005631D01*
X007664Y005656D01*
X007558Y005700D01*
X007442Y005700D01*
X007336Y005656D01*
X007254Y005574D01*
X007210Y005468D01*
X007210Y005352D01*
X007254Y005246D01*
X007336Y005164D01*
X007442Y005120D01*
X007558Y005120D01*
X007634Y005151D01*
X007905Y005151D01*
X007905Y005022D01*
X008010Y004916D01*
X008553Y004916D01*
X008658Y005022D01*
X008658Y005761D01*
X008553Y005867D01*
X008010Y005867D01*
X007974Y005830D02*
X007696Y005830D01*
X007905Y005712D02*
X006490Y005712D01*
X006490Y005830D02*
X006899Y005830D01*
X006822Y005949D02*
X006490Y005949D01*
X006490Y006067D02*
X006822Y006067D01*
X006822Y006186D02*
X006490Y006186D01*
X006490Y006304D02*
X006822Y006304D01*
X006822Y006423D02*
X006490Y006423D01*
X006490Y006541D02*
X006913Y006541D01*
X006857Y006660D02*
X006490Y006660D01*
X006490Y006779D02*
X006822Y006779D01*
X006822Y006897D02*
X006490Y006897D01*
X006490Y007016D02*
X006822Y007016D01*
X006822Y007134D02*
X006490Y007134D01*
X007297Y006966D02*
X007304Y006960D01*
X008250Y006960D01*
X007738Y006660D02*
X013096Y006660D01*
X014000Y006660D02*
X014000Y006660D01*
X014000Y006541D02*
X014000Y006541D01*
X014332Y006541D02*
X014450Y006541D01*
X014450Y006660D02*
X014396Y006660D01*
X014396Y006779D02*
X014450Y006779D01*
X015050Y006779D02*
X015992Y006779D01*
X015992Y006897D02*
X015050Y006897D01*
X015031Y007016D02*
X015992Y007016D01*
X015992Y007134D02*
X014950Y007134D01*
X014832Y007253D02*
X015992Y007253D01*
X015992Y007371D02*
X014713Y007371D01*
X014416Y007490D02*
X015992Y007490D01*
X015992Y007608D02*
X014416Y007608D01*
X014416Y007727D02*
X015992Y007727D01*
X015992Y007845D02*
X014416Y007845D01*
X014416Y007964D02*
X015992Y007964D01*
X015992Y008082D02*
X014416Y008082D01*
X015556Y008201D02*
X015594Y008201D01*
X015594Y008319D02*
X015556Y008319D01*
X015992Y006660D02*
X015050Y006660D01*
X015050Y006541D02*
X015086Y006541D01*
X015060Y006423D02*
X015050Y006423D01*
X015050Y006304D02*
X015556Y006304D01*
X015556Y006278D02*
X015060Y006278D01*
X015060Y006118D01*
X015071Y006078D01*
X015092Y006041D01*
X015122Y006011D01*
X015159Y005990D01*
X015199Y005980D01*
X015556Y005980D01*
X015556Y006278D01*
X015556Y006186D02*
X015594Y006186D01*
X015594Y006067D02*
X015556Y006067D01*
X015556Y006423D02*
X015594Y006423D01*
X015594Y006541D02*
X015556Y006541D01*
X015060Y006186D02*
X015050Y006186D01*
X015050Y006067D02*
X015077Y006067D01*
X015050Y005949D02*
X015992Y005949D01*
X015992Y005830D02*
X015050Y005830D01*
X015050Y005712D02*
X015992Y005712D01*
X015992Y005593D02*
X015050Y005593D01*
X015050Y005475D02*
X015992Y005475D01*
X015992Y005356D02*
X015050Y005356D01*
X015050Y005238D02*
X015992Y005238D01*
X015992Y005119D02*
X015050Y005119D01*
X015050Y005001D02*
X015992Y005001D01*
X015992Y004882D02*
X015050Y004882D01*
X015050Y004764D02*
X015992Y004764D01*
X015992Y004645D02*
X015050Y004645D01*
X015050Y004527D02*
X015992Y004527D01*
X015992Y004408D02*
X015050Y004408D01*
X015050Y004290D02*
X015992Y004290D01*
X015992Y004171D02*
X015050Y004171D01*
X015050Y004053D02*
X015992Y004053D01*
X015992Y003934D02*
X015050Y003934D01*
X015050Y003816D02*
X015992Y003816D01*
X015992Y003697D02*
X015137Y003697D01*
X015255Y003579D02*
X015992Y003579D01*
X015992Y003460D02*
X015374Y003460D01*
X015492Y003342D02*
X015992Y003342D01*
X015992Y003223D02*
X015548Y003223D01*
X015550Y003105D02*
X015992Y003105D01*
X015992Y002986D02*
X015550Y002986D01*
X015550Y002868D02*
X015992Y002868D01*
X015992Y002749D02*
X015550Y002749D01*
X014950Y002749D02*
X013527Y002749D01*
X013540Y002718D02*
X013496Y002824D01*
X013490Y002830D01*
X013490Y003058D01*
X013453Y003146D01*
X013139Y003460D01*
X014526Y003460D01*
X014950Y003036D01*
X014950Y002709D01*
X014782Y002709D01*
X014734Y002662D01*
X014705Y002678D01*
X014665Y002689D01*
X014310Y002689D01*
X014310Y001408D01*
X014190Y001408D01*
X014190Y002689D01*
X013835Y002689D01*
X013795Y002678D01*
X013766Y002662D01*
X013718Y002709D01*
X013540Y002709D01*
X013540Y002718D01*
X013490Y002868D02*
X014950Y002868D01*
X014950Y002986D02*
X013490Y002986D01*
X013470Y003105D02*
X014881Y003105D01*
X014762Y003223D02*
X013376Y003223D01*
X013257Y003342D02*
X014644Y003342D01*
X014310Y002631D02*
X014190Y002631D01*
X014190Y002512D02*
X014310Y002512D01*
X014310Y002394D02*
X014190Y002394D01*
X014190Y002275D02*
X014310Y002275D01*
X014310Y002157D02*
X014190Y002157D01*
X014190Y002038D02*
X014310Y002038D01*
X014310Y001920D02*
X014190Y001920D01*
X014190Y001801D02*
X014310Y001801D01*
X014310Y001683D02*
X014190Y001683D01*
X014190Y001564D02*
X014310Y001564D01*
X014310Y001446D02*
X014190Y001446D01*
X013250Y001348D02*
X013250Y002660D01*
X013250Y003010D01*
X012850Y003410D01*
X003650Y003410D01*
X003250Y003010D01*
X003250Y002660D01*
X003250Y001348D01*
X002310Y001446D02*
X002190Y001446D01*
X002190Y001564D02*
X002310Y001564D01*
X002310Y001683D02*
X002190Y001683D01*
X002190Y001801D02*
X002310Y001801D01*
X002310Y001920D02*
X002190Y001920D01*
X002190Y002038D02*
X002310Y002038D01*
X002310Y002157D02*
X002190Y002157D01*
X002190Y002275D02*
X002310Y002275D01*
X002310Y002394D02*
X002190Y002394D01*
X002190Y002512D02*
X002310Y002512D01*
X002310Y002631D02*
X002190Y002631D01*
X004250Y002660D02*
X004250Y001348D01*
X005250Y001348D02*
X005250Y002910D01*
X005540Y002920D02*
X007210Y002920D01*
X007210Y002852D01*
X007254Y002746D01*
X007260Y002740D01*
X007260Y002709D01*
X006782Y002709D01*
X006750Y002678D01*
X006718Y002709D01*
X005782Y002709D01*
X005750Y002678D01*
X005718Y002709D01*
X005490Y002709D01*
X005490Y002740D01*
X005496Y002746D01*
X005540Y002852D01*
X005540Y002920D01*
X005540Y002868D02*
X007210Y002868D01*
X007253Y002749D02*
X005497Y002749D01*
X004500Y003160D02*
X004250Y002910D01*
X004250Y002660D01*
X004500Y003160D02*
X012000Y003160D01*
X012250Y002910D01*
X012250Y002660D01*
X012250Y001348D01*
X011960Y002709D02*
X011782Y002709D01*
X011750Y002678D01*
X011718Y002709D01*
X010782Y002709D01*
X010750Y002678D01*
X010718Y002709D01*
X009782Y002709D01*
X009750Y002678D01*
X009718Y002709D01*
X008782Y002709D01*
X008750Y002678D01*
X008718Y002709D01*
X008240Y002709D01*
X008240Y002740D01*
X008246Y002746D01*
X008290Y002852D01*
X008290Y002920D01*
X011901Y002920D01*
X012002Y002819D01*
X011960Y002718D01*
X011960Y002709D01*
X011973Y002749D02*
X008247Y002749D01*
X008290Y002868D02*
X011953Y002868D01*
X011450Y004160D02*
X012219Y004929D01*
X012219Y005391D01*
X011715Y004764D02*
X010096Y004764D01*
X010066Y004645D02*
X011596Y004645D01*
X011478Y004527D02*
X009956Y004527D01*
X009838Y004408D02*
X011359Y004408D01*
X011075Y005001D02*
X011000Y005001D01*
X011021Y005119D02*
X011054Y005119D01*
X011054Y005238D02*
X011021Y005238D01*
X011021Y005356D02*
X011054Y005356D01*
X011054Y005475D02*
X011021Y005475D01*
X011021Y005593D02*
X011054Y005593D01*
X011054Y005712D02*
X011021Y005712D01*
X010951Y005830D02*
X011123Y005830D01*
X011191Y005949D02*
X010884Y005949D01*
X010997Y006067D02*
X011224Y006067D01*
X011431Y005941D02*
X011650Y006160D01*
X011431Y005941D02*
X011431Y005391D01*
X010404Y006067D02*
X008276Y006067D01*
X008290Y006186D02*
X010439Y006186D01*
X010555Y006304D02*
X008254Y006304D01*
X008123Y006423D02*
X010674Y006423D01*
X010792Y006541D02*
X007681Y006541D01*
X007773Y006423D02*
X007877Y006423D01*
X008000Y006160D02*
X007316Y006160D01*
X007297Y006179D01*
X007273Y005593D02*
X006490Y005593D01*
X006490Y005475D02*
X007213Y005475D01*
X007210Y005356D02*
X006490Y005356D01*
X006490Y005238D02*
X007262Y005238D01*
X007500Y005410D02*
X007519Y005391D01*
X008281Y005391D01*
X008658Y005356D02*
X008692Y005356D01*
X008692Y005238D02*
X008658Y005238D01*
X008658Y005119D02*
X008692Y005119D01*
X008692Y005022D02*
X008797Y004916D01*
X009340Y004916D01*
X009446Y005022D01*
X009446Y005761D01*
X009340Y005867D01*
X008797Y005867D01*
X008692Y005761D01*
X008692Y005022D01*
X008713Y005001D02*
X008638Y005001D01*
X008658Y005475D02*
X008692Y005475D01*
X008692Y005593D02*
X008658Y005593D01*
X008658Y005712D02*
X008692Y005712D01*
X008761Y005830D02*
X008589Y005830D01*
X009377Y005830D02*
X009549Y005830D01*
X009479Y005712D02*
X009446Y005712D01*
X009446Y005593D02*
X009479Y005593D01*
X009479Y005475D02*
X009446Y005475D01*
X009446Y005356D02*
X009479Y005356D01*
X009479Y005238D02*
X009446Y005238D01*
X009446Y005119D02*
X009479Y005119D01*
X009500Y005001D02*
X009425Y005001D01*
X009616Y004882D02*
X006617Y004882D01*
X006735Y004764D02*
X009515Y004764D01*
X007925Y005001D02*
X006498Y005001D01*
X006490Y005119D02*
X007905Y005119D01*
X008000Y002910D02*
X008000Y001598D01*
X008250Y001348D01*
X007500Y001598D02*
X007250Y001348D01*
X007500Y001598D02*
X007500Y002910D01*
D22*
X007500Y002910D03*
X008000Y002910D03*
X009050Y003760D03*
X009800Y002860D03*
X012250Y002660D03*
X013250Y002660D03*
X013750Y002910D03*
X014500Y002910D03*
X015250Y002660D03*
X015750Y002910D03*
X015700Y004410D03*
X015650Y005760D03*
X014000Y004410D03*
X012500Y004410D03*
X013000Y006160D03*
X013250Y006410D03*
X013750Y006260D03*
X013250Y007560D03*
X013000Y007960D03*
X012550Y008410D03*
X013700Y008560D03*
X014200Y009610D03*
X012950Y010460D03*
X012300Y010410D03*
X012200Y009910D03*
X011400Y010160D03*
X011250Y011910D03*
X009000Y012410D03*
X007750Y012410D03*
X006750Y010910D03*
X005500Y012410D03*
X004250Y012410D03*
X005350Y009410D03*
X004500Y008660D03*
X003950Y008910D03*
X003250Y007910D03*
X003250Y007160D03*
X003500Y006760D03*
X004000Y005660D03*
X004500Y005410D03*
X005400Y005660D03*
X005400Y006910D03*
X007000Y005660D03*
X007500Y005410D03*
X007000Y004910D03*
X007250Y004160D03*
X006250Y004160D03*
X006450Y002860D03*
X005250Y002910D03*
X004250Y002660D03*
X003250Y002660D03*
X002750Y002910D03*
X002000Y002910D03*
X001250Y002660D03*
X000750Y002910D03*
X000750Y005660D03*
X002500Y005660D03*
X001000Y007410D03*
X002250Y008410D03*
X000750Y008910D03*
X008000Y006160D03*
X008250Y006960D03*
X008300Y007660D03*
X009050Y008660D03*
X009500Y006910D03*
X012000Y006910D03*
X015500Y007410D03*
X015650Y009060D03*
X009000Y010910D03*
D23*
X008281Y009591D02*
X008281Y009329D01*
D24*
X008281Y009591D02*
X008281Y009791D01*
X008450Y009960D01*
X008900Y009960D01*
X009069Y009791D01*
X009069Y009329D01*
X009069Y008679D01*
X009050Y008660D01*
X004500Y008660D02*
X004500Y009010D01*
X002500Y007557D02*
X002047Y007557D01*
X001750Y007260D01*
X001750Y004110D01*
X002100Y003760D01*
X004150Y003760D01*
X004500Y004110D01*
X004850Y003760D01*
X009050Y003760D01*
X014400Y003760D01*
X014700Y004060D01*
X014650Y003760D02*
X014400Y003760D01*
X014650Y003760D02*
X014750Y003660D01*
X014750Y006910D01*
X014497Y007163D01*
X014000Y007163D01*
X014750Y003660D02*
X015250Y003160D01*
X015250Y002660D01*
X015250Y001348D01*
X004850Y003760D02*
X004550Y003760D01*
X004500Y003810D01*
X004500Y004110D01*
X004500Y005410D01*
X004500Y005760D01*
X004550Y003760D02*
X004150Y003760D01*
X002100Y003760D02*
X001850Y003760D01*
X001750Y003660D01*
X001750Y004110D01*
X001750Y003660D02*
X001250Y003160D01*
X001250Y002660D01*
X001250Y001348D01*
M02*
