G75*
G70*
%OFA0B0*%
%FSLAX24Y24*%
%IPPOS*%
%LPD*%
%AMOC8*
5,1,8,0,0,1.08239X$1,22.5*
%
%ADD10C,0.0100*%
%ADD11C,0.0040*%
%ADD12C,0.0000*%
%ADD13C,0.0050*%
%ADD14R,0.0151X0.0006*%
%ADD15R,0.0239X0.0006*%
%ADD16R,0.0302X0.0006*%
%ADD17R,0.0346X0.0006*%
%ADD18R,0.0391X0.0006*%
%ADD19R,0.0422X0.0006*%
%ADD20R,0.0454X0.0006*%
%ADD21R,0.0479X0.0006*%
%ADD22R,0.0504X0.0006*%
%ADD23R,0.0529X0.0006*%
%ADD24R,0.0548X0.0006*%
%ADD25R,0.0573X0.0006*%
%ADD26R,0.0592X0.0006*%
%ADD27R,0.0611X0.0006*%
%ADD28R,0.0630X0.0006*%
%ADD29R,0.0643X0.0006*%
%ADD30R,0.0661X0.0006*%
%ADD31R,0.0674X0.0006*%
%ADD32R,0.0693X0.0006*%
%ADD33R,0.0706X0.0006*%
%ADD34R,0.0718X0.0006*%
%ADD35R,0.0731X0.0006*%
%ADD36R,0.0743X0.0006*%
%ADD37R,0.0750X0.0006*%
%ADD38R,0.0762X0.0006*%
%ADD39R,0.0775X0.0006*%
%ADD40R,0.0787X0.0006*%
%ADD41R,0.0800X0.0006*%
%ADD42R,0.0813X0.0006*%
%ADD43R,0.0806X0.0006*%
%ADD44R,0.0321X0.0006*%
%ADD45R,0.0359X0.0006*%
%ADD46R,0.0283X0.0006*%
%ADD47R,0.0328X0.0006*%
%ADD48R,0.0246X0.0006*%
%ADD49R,0.0315X0.0006*%
%ADD50R,0.0220X0.0006*%
%ADD51R,0.0296X0.0006*%
%ADD52R,0.0195X0.0006*%
%ADD53R,0.0290X0.0006*%
%ADD54R,0.0170X0.0006*%
%ADD55R,0.0277X0.0006*%
%ADD56R,0.0145X0.0006*%
%ADD57R,0.0126X0.0006*%
%ADD58R,0.0265X0.0006*%
%ADD59R,0.0107X0.0006*%
%ADD60R,0.0088X0.0006*%
%ADD61R,0.0258X0.0006*%
%ADD62R,0.0063X0.0006*%
%ADD63R,0.0252X0.0006*%
%ADD64R,0.0044X0.0006*%
%ADD65R,0.0025X0.0006*%
%ADD66R,0.0069X0.0006*%
%ADD67R,0.0006X0.0006*%
%ADD68R,0.0233X0.0006*%
%ADD69R,0.0227X0.0006*%
%ADD70R,0.0384X0.0006*%
%ADD71R,0.0409X0.0006*%
%ADD72R,0.0189X0.0006*%
%ADD73R,0.0435X0.0006*%
%ADD74R,0.0214X0.0006*%
%ADD75R,0.0460X0.0006*%
%ADD76R,0.0208X0.0006*%
%ADD77R,0.0050X0.0006*%
%ADD78R,0.0271X0.0006*%
%ADD79R,0.0485X0.0006*%
%ADD80R,0.0510X0.0006*%
%ADD81R,0.0523X0.0006*%
%ADD82R,0.0372X0.0006*%
%ADD83R,0.0561X0.0006*%
%ADD84R,0.0586X0.0006*%
%ADD85R,0.0340X0.0006*%
%ADD86R,0.0598X0.0006*%
%ADD87R,0.0365X0.0006*%
%ADD88R,0.0441X0.0006*%
%ADD89R,0.0038X0.0006*%
%ADD90R,0.0624X0.0006*%
%ADD91R,0.0416X0.0006*%
%ADD92R,0.0649X0.0006*%
%ADD93R,0.0428X0.0006*%
%ADD94R,0.0472X0.0006*%
%ADD95R,0.0491X0.0006*%
%ADD96R,0.0466X0.0006*%
%ADD97R,0.0756X0.0006*%
%ADD98R,0.0517X0.0006*%
%ADD99R,0.0769X0.0006*%
%ADD100R,0.0781X0.0006*%
%ADD101R,0.0794X0.0006*%
%ADD102R,0.0825X0.0006*%
%ADD103R,0.0838X0.0006*%
%ADD104R,0.0819X0.0006*%
%ADD105R,0.0353X0.0006*%
%ADD106R,0.0850X0.0006*%
%ADD107R,0.0334X0.0006*%
%ADD108R,0.0712X0.0006*%
%ADD109R,0.0157X0.0006*%
%ADD110R,0.0699X0.0006*%
%ADD111R,0.0309X0.0006*%
%ADD112R,0.0680X0.0006*%
%ADD113R,0.0668X0.0006*%
%ADD114R,0.0120X0.0006*%
%ADD115R,0.0655X0.0006*%
%ADD116R,0.0101X0.0006*%
%ADD117R,0.0082X0.0006*%
%ADD118R,0.0076X0.0006*%
%ADD119R,0.0535X0.0006*%
%ADD120R,0.0057X0.0006*%
%ADD121R,0.0498X0.0006*%
%ADD122R,0.0094X0.0006*%
%ADD123R,0.0132X0.0006*%
%ADD124R,0.0202X0.0006*%
%ADD125R,0.0176X0.0006*%
%ADD126R,0.0031X0.0006*%
%ADD127R,0.0183X0.0006*%
%ADD128R,0.0542X0.0006*%
%ADD129R,0.0554X0.0006*%
%ADD130R,0.0567X0.0006*%
%ADD131R,0.0580X0.0006*%
%ADD132R,0.0605X0.0006*%
%ADD133R,0.0687X0.0006*%
%ADD134R,0.0939X0.0006*%
%ADD135R,0.0932X0.0006*%
%ADD136R,0.0857X0.0006*%
%ADD137R,0.0737X0.0006*%
%ADD138R,0.0844X0.0006*%
%ADD139R,0.0724X0.0006*%
%ADD140R,0.0831X0.0006*%
%ADD141R,0.0164X0.0006*%
%ADD142R,0.0636X0.0006*%
%ADD143R,0.0397X0.0006*%
%ADD144R,0.0403X0.0006*%
%ADD145R,0.0378X0.0006*%
%ADD146R,0.0139X0.0006*%
%ADD147R,0.0113X0.0006*%
%ADD148R,0.0019X0.0006*%
%ADD149R,0.0013X0.0006*%
D10*
X000278Y001364D02*
X000278Y011956D01*
X000280Y012023D01*
X000286Y012090D01*
X000295Y012157D01*
X000308Y012223D01*
X000325Y012288D01*
X000345Y012352D01*
X000369Y012415D01*
X000397Y012477D01*
X000428Y012536D01*
X000462Y012594D01*
X000499Y012650D01*
X000540Y012704D01*
X000583Y012756D01*
X000629Y012805D01*
X000678Y012851D01*
X000730Y012894D01*
X000784Y012935D01*
X000840Y012972D01*
X000898Y013006D01*
X000957Y013037D01*
X001019Y013065D01*
X001082Y013089D01*
X001146Y013109D01*
X001211Y013126D01*
X001277Y013139D01*
X001344Y013148D01*
X001411Y013154D01*
X001478Y013156D01*
X015022Y013156D01*
X015089Y013154D01*
X015156Y013148D01*
X015223Y013139D01*
X015289Y013126D01*
X015354Y013109D01*
X015418Y013089D01*
X015481Y013065D01*
X015543Y013037D01*
X015602Y013006D01*
X015660Y012972D01*
X015716Y012935D01*
X015770Y012894D01*
X015822Y012851D01*
X015871Y012805D01*
X015917Y012756D01*
X015960Y012704D01*
X016001Y012650D01*
X016038Y012594D01*
X016072Y012536D01*
X016103Y012477D01*
X016131Y012415D01*
X016155Y012352D01*
X016175Y012288D01*
X016192Y012223D01*
X016205Y012157D01*
X016214Y012090D01*
X016220Y012023D01*
X016222Y011956D01*
X016222Y001364D01*
X016220Y001297D01*
X016214Y001230D01*
X016205Y001163D01*
X016192Y001097D01*
X016175Y001032D01*
X016155Y000968D01*
X016131Y000905D01*
X016103Y000843D01*
X016072Y000784D01*
X016038Y000726D01*
X016001Y000670D01*
X015960Y000616D01*
X015917Y000564D01*
X015871Y000515D01*
X015822Y000469D01*
X015770Y000426D01*
X015716Y000385D01*
X015660Y000348D01*
X015602Y000314D01*
X015543Y000283D01*
X015481Y000255D01*
X015418Y000231D01*
X015354Y000211D01*
X015289Y000194D01*
X015223Y000181D01*
X015156Y000172D01*
X015089Y000166D01*
X015022Y000164D01*
X001478Y000164D01*
X001411Y000166D01*
X001344Y000172D01*
X001277Y000181D01*
X001211Y000194D01*
X001146Y000211D01*
X001082Y000231D01*
X001019Y000255D01*
X000957Y000283D01*
X000898Y000314D01*
X000840Y000348D01*
X000784Y000385D01*
X000730Y000426D01*
X000678Y000469D01*
X000629Y000515D01*
X000583Y000564D01*
X000540Y000616D01*
X000499Y000670D01*
X000462Y000726D01*
X000428Y000784D01*
X000397Y000843D01*
X000369Y000905D01*
X000345Y000968D01*
X000325Y001032D01*
X000308Y001097D01*
X000295Y001163D01*
X000286Y001230D01*
X000280Y001297D01*
X000278Y001364D01*
X000309Y003707D02*
X016191Y003707D01*
D11*
X015273Y003090D02*
X015273Y002780D01*
X015170Y002780D02*
X015377Y002780D01*
X015170Y002987D02*
X015273Y003090D01*
X008499Y003090D02*
X008292Y003090D01*
X008292Y002935D01*
X008396Y002987D01*
X008447Y002987D01*
X008499Y002935D01*
X008499Y002832D01*
X008447Y002780D01*
X008344Y002780D01*
X008292Y002832D01*
X008177Y002780D02*
X007970Y002780D01*
X008073Y002780D02*
X008073Y003090D01*
X007970Y002987D01*
X001549Y003039D02*
X001549Y002832D01*
X001497Y002780D01*
X001394Y002780D01*
X001342Y002832D01*
X001394Y002935D02*
X001549Y002935D01*
X001549Y003039D02*
X001497Y003090D01*
X001394Y003090D01*
X001342Y003039D01*
X001342Y002987D01*
X001394Y002935D01*
X001227Y002987D02*
X001227Y003039D01*
X001175Y003090D01*
X001072Y003090D01*
X001020Y003039D01*
X001227Y002987D02*
X001020Y002780D01*
X001227Y002780D01*
D12*
X001159Y011660D02*
X001161Y011708D01*
X001167Y011756D01*
X001177Y011803D01*
X001190Y011849D01*
X001208Y011894D01*
X001228Y011938D01*
X001253Y011980D01*
X001281Y012019D01*
X001311Y012056D01*
X001345Y012090D01*
X001382Y012122D01*
X001420Y012151D01*
X001461Y012176D01*
X001504Y012198D01*
X001549Y012216D01*
X001595Y012230D01*
X001642Y012241D01*
X001690Y012248D01*
X001738Y012251D01*
X001786Y012250D01*
X001834Y012245D01*
X001882Y012236D01*
X001928Y012224D01*
X001973Y012207D01*
X002017Y012187D01*
X002059Y012164D01*
X002099Y012137D01*
X002137Y012107D01*
X002172Y012074D01*
X002204Y012038D01*
X002234Y012000D01*
X002260Y011959D01*
X002282Y011916D01*
X002302Y011872D01*
X002317Y011827D01*
X002329Y011780D01*
X002337Y011732D01*
X002341Y011684D01*
X002341Y011636D01*
X002337Y011588D01*
X002329Y011540D01*
X002317Y011493D01*
X002302Y011448D01*
X002282Y011404D01*
X002260Y011361D01*
X002234Y011320D01*
X002204Y011282D01*
X002172Y011246D01*
X002137Y011213D01*
X002099Y011183D01*
X002059Y011156D01*
X002017Y011133D01*
X001973Y011113D01*
X001928Y011096D01*
X001882Y011084D01*
X001834Y011075D01*
X001786Y011070D01*
X001738Y011069D01*
X001690Y011072D01*
X001642Y011079D01*
X001595Y011090D01*
X001549Y011104D01*
X001504Y011122D01*
X001461Y011144D01*
X001420Y011169D01*
X001382Y011198D01*
X001345Y011230D01*
X001311Y011264D01*
X001281Y011301D01*
X001253Y011340D01*
X001228Y011382D01*
X001208Y011426D01*
X001190Y011471D01*
X001177Y011517D01*
X001167Y011564D01*
X001161Y011612D01*
X001159Y011660D01*
X014159Y011660D02*
X014161Y011708D01*
X014167Y011756D01*
X014177Y011803D01*
X014190Y011849D01*
X014208Y011894D01*
X014228Y011938D01*
X014253Y011980D01*
X014281Y012019D01*
X014311Y012056D01*
X014345Y012090D01*
X014382Y012122D01*
X014420Y012151D01*
X014461Y012176D01*
X014504Y012198D01*
X014549Y012216D01*
X014595Y012230D01*
X014642Y012241D01*
X014690Y012248D01*
X014738Y012251D01*
X014786Y012250D01*
X014834Y012245D01*
X014882Y012236D01*
X014928Y012224D01*
X014973Y012207D01*
X015017Y012187D01*
X015059Y012164D01*
X015099Y012137D01*
X015137Y012107D01*
X015172Y012074D01*
X015204Y012038D01*
X015234Y012000D01*
X015260Y011959D01*
X015282Y011916D01*
X015302Y011872D01*
X015317Y011827D01*
X015329Y011780D01*
X015337Y011732D01*
X015341Y011684D01*
X015341Y011636D01*
X015337Y011588D01*
X015329Y011540D01*
X015317Y011493D01*
X015302Y011448D01*
X015282Y011404D01*
X015260Y011361D01*
X015234Y011320D01*
X015204Y011282D01*
X015172Y011246D01*
X015137Y011213D01*
X015099Y011183D01*
X015059Y011156D01*
X015017Y011133D01*
X014973Y011113D01*
X014928Y011096D01*
X014882Y011084D01*
X014834Y011075D01*
X014786Y011070D01*
X014738Y011069D01*
X014690Y011072D01*
X014642Y011079D01*
X014595Y011090D01*
X014549Y011104D01*
X014504Y011122D01*
X014461Y011144D01*
X014420Y011169D01*
X014382Y011198D01*
X014345Y011230D01*
X014311Y011264D01*
X014281Y011301D01*
X014253Y011340D01*
X014228Y011382D01*
X014208Y011426D01*
X014190Y011471D01*
X014177Y011517D01*
X014167Y011564D01*
X014161Y011612D01*
X014159Y011660D01*
D13*
X012809Y009329D02*
X012809Y005391D01*
X007297Y005391D01*
X007297Y009329D01*
X012809Y009329D01*
X014000Y008541D02*
X014984Y008541D01*
X014000Y008541D02*
X014000Y008147D01*
X014000Y006573D02*
X014000Y006179D01*
X014984Y006179D01*
X010591Y012174D02*
X009409Y012174D01*
X009409Y012646D01*
X010591Y012646D01*
X010591Y012174D01*
X010250Y012185D02*
X010250Y012635D01*
X010250Y012660D02*
X009750Y012660D01*
X010000Y013160D01*
X010250Y012660D01*
X009750Y012660D01*
X010000Y013160D01*
X010250Y012660D01*
X010243Y012674D02*
X009757Y012674D01*
X009781Y012723D02*
X010219Y012723D01*
X010194Y012771D02*
X009806Y012771D01*
X009830Y012820D02*
X010170Y012820D01*
X010146Y012868D02*
X009854Y012868D01*
X009878Y012917D02*
X010122Y012917D01*
X010097Y012965D02*
X009903Y012965D01*
X009927Y013014D02*
X010073Y013014D01*
X010049Y013062D02*
X009951Y013062D01*
X009975Y013111D02*
X010025Y013111D01*
X010000Y013159D02*
X010000Y013159D01*
X007091Y012646D02*
X007091Y012174D01*
X005909Y012174D01*
X005909Y012646D01*
X007091Y012646D01*
X006750Y012635D02*
X006750Y012185D01*
X006000Y011460D02*
X005500Y011460D01*
X005500Y010360D01*
X006000Y010360D01*
X006000Y011460D01*
X005250Y011460D02*
X005250Y010360D01*
X004750Y010360D01*
X004750Y011460D01*
X005250Y011460D01*
X004350Y011560D02*
X004350Y010260D01*
X003650Y010260D01*
X003650Y011560D01*
X004350Y011560D01*
X004425Y009660D02*
X004575Y009660D01*
X005075Y009510D02*
X005075Y009160D01*
X004775Y009160D01*
X004225Y009160D02*
X003925Y009160D01*
X003925Y009510D01*
X002500Y008541D02*
X002500Y008147D01*
X002500Y008541D02*
X001516Y008541D01*
X003650Y008310D02*
X003650Y007010D01*
X004350Y007010D01*
X004350Y008310D01*
X003650Y008310D01*
X004750Y008210D02*
X005250Y008210D01*
X005250Y007110D01*
X004750Y007110D01*
X004750Y008210D01*
X005500Y008210D02*
X006000Y008210D01*
X006000Y007110D01*
X005500Y007110D01*
X005500Y008210D01*
X004575Y006410D02*
X004425Y006410D01*
X003925Y006260D02*
X003925Y005910D01*
X004225Y005910D01*
X004775Y005910D02*
X005075Y005910D01*
X005075Y006260D01*
X002500Y006179D02*
X001516Y006179D01*
X002500Y006179D02*
X002500Y006573D01*
D14*
X002166Y005267D03*
X001832Y005261D03*
X004050Y004323D03*
X004043Y003976D03*
D15*
X004043Y003982D03*
X004377Y004260D03*
X004440Y004612D03*
X004856Y004568D03*
X004862Y004562D03*
X004869Y004902D03*
X004875Y004908D03*
X004875Y004915D03*
X004881Y004921D03*
X004478Y004908D03*
X004478Y004902D03*
X003823Y004915D03*
X003817Y004908D03*
X003817Y004902D03*
X003798Y004593D03*
X003804Y004587D03*
X003376Y004978D03*
X003237Y005192D03*
X002859Y004896D03*
X002859Y004890D03*
X005486Y004600D03*
X005524Y004890D03*
X005524Y004896D03*
X005996Y004896D03*
X005996Y004890D03*
X006374Y005192D03*
X006513Y004978D03*
D16*
X006040Y004978D03*
X005505Y004965D03*
X005442Y004524D03*
X005095Y004323D03*
X004919Y004499D03*
X004950Y004997D03*
X004396Y004549D03*
X004043Y003989D03*
X002903Y004978D03*
X004138Y005186D03*
D17*
X004437Y004990D03*
X004374Y004530D03*
X004947Y004486D03*
X005092Y004335D03*
X005489Y004990D03*
X006062Y005003D03*
X004046Y003995D03*
X002925Y005003D03*
D18*
X004050Y004367D03*
X004352Y004518D03*
X004043Y004001D03*
X005095Y004348D03*
X005467Y005009D03*
D19*
X005092Y004360D03*
X004046Y004008D03*
D20*
X004043Y004014D03*
X004050Y004386D03*
X003224Y005116D03*
X005171Y005141D03*
X006361Y005116D03*
D21*
X004043Y004020D03*
X001826Y004644D03*
X001826Y004650D03*
X001820Y004663D03*
X001807Y004701D03*
X001826Y004845D03*
X001832Y004858D03*
D22*
X001851Y004902D03*
X002015Y005192D03*
X002009Y005211D03*
X002009Y005217D03*
X004050Y004404D03*
X004043Y004027D03*
X005095Y004392D03*
X004125Y005123D03*
D23*
X004043Y004033D03*
X002028Y005173D03*
X001788Y004814D03*
D24*
X001779Y004808D03*
X001829Y004587D03*
X002062Y004341D03*
X002037Y005160D03*
X004046Y004039D03*
X004122Y005104D03*
X005161Y005097D03*
D25*
X004046Y004045D03*
X001829Y004575D03*
D26*
X001744Y004757D03*
X001750Y004789D03*
X001870Y004953D03*
X004043Y004052D03*
D27*
X004046Y004058D03*
X002062Y004367D03*
X001829Y004556D03*
X001873Y004959D03*
X002062Y005123D03*
D28*
X001883Y004965D03*
X001832Y004549D03*
X004043Y004064D03*
D29*
X004043Y004071D03*
X001832Y004543D03*
D30*
X004046Y004077D03*
D31*
X004046Y004083D03*
X002062Y005097D03*
D32*
X002065Y005085D03*
X004043Y004090D03*
D33*
X004043Y004096D03*
X003117Y005079D03*
X003117Y005085D03*
X002065Y005079D03*
X006254Y005085D03*
D34*
X006261Y005060D03*
X004043Y004102D03*
X003124Y005060D03*
D35*
X003124Y005041D03*
X003124Y005034D03*
X003124Y005028D03*
X004043Y004108D03*
X002059Y005066D03*
X006261Y005047D03*
X006261Y005041D03*
X006261Y005034D03*
X006261Y005028D03*
D36*
X004157Y004417D03*
X004043Y004115D03*
X002021Y004386D03*
D37*
X002024Y004392D03*
X004046Y004121D03*
X004154Y004423D03*
X005206Y004404D03*
D38*
X005199Y004423D03*
X004154Y004430D03*
X004046Y004127D03*
X002037Y004411D03*
X002031Y004404D03*
D39*
X002050Y004436D03*
X002056Y004442D03*
X004046Y004134D03*
X004147Y004442D03*
X004147Y004449D03*
X005193Y004442D03*
X005193Y004436D03*
D40*
X005193Y004449D03*
X004141Y004461D03*
X004046Y004146D03*
X004046Y004140D03*
X002062Y004455D03*
X002062Y004461D03*
D41*
X002062Y004467D03*
X004046Y004153D03*
X004141Y004474D03*
X004223Y005085D03*
X004229Y005091D03*
X005187Y004467D03*
D42*
X005262Y005066D03*
X004217Y005072D03*
X004135Y004493D03*
X004135Y004486D03*
X004046Y004165D03*
X004046Y004159D03*
X002062Y004474D03*
X002062Y004480D03*
D43*
X004056Y004171D03*
X004138Y004480D03*
X004220Y005079D03*
X005183Y004480D03*
X005183Y004474D03*
X005265Y005072D03*
D44*
X005180Y005179D03*
X005495Y004978D03*
X005432Y004512D03*
X006050Y004990D03*
X004450Y004978D03*
X003826Y004178D03*
X002913Y004990D03*
X002062Y004285D03*
D45*
X002062Y004291D03*
X004135Y005173D03*
X004431Y004997D03*
X004286Y004178D03*
X005483Y004997D03*
D46*
X005514Y004946D03*
X005457Y004543D03*
X005451Y004537D03*
X004935Y004984D03*
X004928Y004978D03*
X004462Y004953D03*
X004909Y004505D03*
X003845Y004537D03*
X003820Y004184D03*
X003870Y004971D03*
X003354Y005009D03*
X002887Y004959D03*
X002062Y004279D03*
X006024Y004959D03*
X006031Y004965D03*
X006491Y005009D03*
D47*
X005492Y004984D03*
X005095Y004329D03*
X004383Y004537D03*
X004302Y004184D03*
X004138Y005179D03*
D48*
X003832Y004927D03*
X003826Y004921D03*
X003807Y004581D03*
X003813Y004190D03*
X004374Y004253D03*
X004431Y004600D03*
X004437Y004606D03*
X004865Y004556D03*
X004884Y004927D03*
X004891Y004934D03*
X005527Y004902D03*
X005483Y004593D03*
X005483Y004587D03*
X005476Y004581D03*
X005999Y004902D03*
X005999Y004908D03*
X006509Y004984D03*
X003372Y004984D03*
X002862Y004908D03*
X002862Y004902D03*
D49*
X003338Y005016D03*
X003905Y004997D03*
X004390Y004543D03*
X004050Y004348D03*
X004314Y004190D03*
X004931Y004493D03*
X004963Y005003D03*
X004453Y004971D03*
X006475Y005016D03*
D50*
X006522Y004946D03*
X006522Y004940D03*
X006522Y004934D03*
X006522Y004927D03*
X006522Y004921D03*
X006522Y004915D03*
X006522Y004896D03*
X006522Y004890D03*
X006522Y004883D03*
X006522Y004877D03*
X006522Y004871D03*
X006516Y004820D03*
X006516Y004814D03*
X006509Y004770D03*
X006503Y004726D03*
X006497Y004682D03*
X006497Y004675D03*
X006491Y004631D03*
X006484Y004587D03*
X006478Y004543D03*
X006478Y004537D03*
X006472Y004493D03*
X006465Y004449D03*
X006459Y004404D03*
X006453Y004354D03*
X005924Y004455D03*
X005911Y004360D03*
X005961Y004726D03*
X005961Y004732D03*
X005968Y004764D03*
X005968Y004770D03*
X005968Y004776D03*
X005974Y004789D03*
X005974Y004795D03*
X005974Y004801D03*
X005974Y004808D03*
X005974Y004814D03*
X005980Y004827D03*
X005980Y004833D03*
X006018Y005141D03*
X006018Y005148D03*
X005577Y005173D03*
X005577Y005179D03*
X005571Y005135D03*
X005571Y005129D03*
X005565Y005085D03*
X005527Y004852D03*
X005502Y004644D03*
X005502Y004638D03*
X005495Y004625D03*
X004840Y004612D03*
X004840Y004606D03*
X004834Y004625D03*
X004834Y004631D03*
X004834Y004638D03*
X004828Y004656D03*
X004828Y004663D03*
X004828Y004770D03*
X004828Y004776D03*
X004834Y004801D03*
X004834Y004808D03*
X004834Y004814D03*
X004834Y004820D03*
X004840Y004827D03*
X004840Y004833D03*
X004840Y004839D03*
X004846Y004852D03*
X004519Y005097D03*
X004525Y005135D03*
X004525Y005141D03*
X004531Y005179D03*
X004531Y005186D03*
X004456Y004650D03*
X004450Y004644D03*
X004450Y004638D03*
X004406Y004329D03*
X004406Y004323D03*
X004399Y004310D03*
X004399Y004304D03*
X004393Y004291D03*
X003813Y004197D03*
X003782Y004631D03*
X003782Y004638D03*
X003782Y004644D03*
X003776Y004650D03*
X003776Y004656D03*
X003776Y004663D03*
X003782Y004820D03*
X003782Y004827D03*
X003788Y004839D03*
X003788Y004845D03*
X003794Y004858D03*
X003385Y004871D03*
X003385Y004877D03*
X003385Y004883D03*
X003385Y004890D03*
X003385Y004896D03*
X003385Y004902D03*
X003385Y004908D03*
X003385Y004915D03*
X003385Y004921D03*
X003385Y004927D03*
X003385Y004934D03*
X003385Y004940D03*
X003385Y004946D03*
X003379Y004820D03*
X003372Y004770D03*
X003366Y004726D03*
X003360Y004682D03*
X003354Y004638D03*
X003354Y004631D03*
X003347Y004587D03*
X003341Y004543D03*
X003335Y004499D03*
X003335Y004493D03*
X003328Y004449D03*
X003322Y004404D03*
X003316Y004360D03*
X003316Y004354D03*
X002818Y004688D03*
X002824Y004726D03*
X002824Y004732D03*
X002831Y004764D03*
X002831Y004770D03*
X002831Y004776D03*
X002837Y004795D03*
X002837Y004801D03*
X002837Y004808D03*
X002837Y004814D03*
X002843Y004833D03*
X002881Y005148D03*
X002787Y004455D03*
X002780Y004411D03*
X002774Y004360D03*
X001155Y004581D03*
X001161Y004625D03*
X001168Y004669D03*
X001174Y004719D03*
X001180Y004764D03*
X001187Y004808D03*
X001193Y004852D03*
X001193Y004858D03*
X001199Y004902D03*
X001206Y004946D03*
X001212Y004990D03*
X001212Y004997D03*
X001218Y005041D03*
X001224Y005085D03*
X001231Y005129D03*
X001231Y005135D03*
X001237Y005179D03*
X001243Y005223D03*
X001250Y005267D03*
X001256Y005318D03*
X001262Y005362D03*
X001269Y005406D03*
X001275Y005456D03*
X001281Y005501D03*
X001149Y004530D03*
X001143Y004486D03*
X001136Y004442D03*
X001130Y004392D03*
X001124Y004348D03*
D51*
X003851Y004530D03*
X003889Y004984D03*
X004462Y004959D03*
X005180Y005186D03*
X005508Y004959D03*
X004324Y004197D03*
D52*
X003813Y004203D03*
X004475Y004719D03*
X004475Y004726D03*
X004475Y004732D03*
X004481Y004745D03*
X004481Y004751D03*
X004481Y004757D03*
X004481Y004764D03*
X004481Y004770D03*
X004481Y004776D03*
X002182Y004776D03*
X002182Y004782D03*
X002182Y004707D03*
X002182Y004701D03*
X001854Y005223D03*
D53*
X002891Y004965D03*
X002897Y004971D03*
X003237Y005179D03*
X003880Y004978D03*
X004402Y004556D03*
X004409Y004562D03*
X004333Y004203D03*
X004050Y004341D03*
X004944Y004990D03*
X005511Y004953D03*
X005448Y004530D03*
X006034Y004971D03*
X006374Y005179D03*
D54*
X003813Y004209D03*
X002402Y004978D03*
X002182Y004808D03*
X002182Y004682D03*
X002062Y004266D03*
X002163Y005249D03*
X001842Y005242D03*
D55*
X002884Y004953D03*
X003835Y004543D03*
X004415Y004568D03*
X004346Y004216D03*
X004339Y004209D03*
X004900Y004512D03*
X004465Y004946D03*
X005461Y004549D03*
X006021Y004953D03*
D56*
X003813Y004216D03*
X002421Y004518D03*
X002182Y004669D03*
X002182Y004820D03*
X002421Y004971D03*
X002169Y005274D03*
X001829Y005267D03*
D57*
X001813Y005293D03*
X002172Y005293D03*
X002431Y004524D03*
X003810Y004222D03*
X005095Y004297D03*
D58*
X004894Y004518D03*
X004887Y004524D03*
X004421Y004581D03*
X004358Y004228D03*
X004352Y004222D03*
X003829Y004549D03*
X003823Y004556D03*
X003854Y004953D03*
X004472Y004934D03*
X004472Y004927D03*
X005183Y005192D03*
X005517Y004934D03*
X005517Y004927D03*
X005467Y004562D03*
X006015Y004940D03*
X006374Y005186D03*
X003237Y005186D03*
X002878Y004940D03*
D59*
X003240Y005211D03*
X002446Y004953D03*
X002182Y004833D03*
X002446Y004537D03*
X002176Y005312D03*
X003813Y004228D03*
X006377Y005211D03*
D60*
X003817Y004234D03*
X002469Y004556D03*
X002462Y004549D03*
X002185Y004839D03*
X002469Y004934D03*
X001794Y005324D03*
D61*
X002875Y004934D03*
X003366Y004997D03*
X003845Y004946D03*
X003820Y004562D03*
X004424Y004587D03*
X004361Y004234D03*
X004878Y004537D03*
X004884Y004530D03*
X004903Y004953D03*
X004909Y004959D03*
X004475Y004921D03*
X005520Y004921D03*
X005470Y004568D03*
X006012Y004934D03*
X006503Y004997D03*
D62*
X003817Y004241D03*
X002494Y004593D03*
X002185Y004644D03*
X002487Y004902D03*
X002494Y004896D03*
X002185Y005349D03*
X001782Y005349D03*
X001681Y004379D03*
D63*
X002865Y004915D03*
X002872Y004921D03*
X002872Y004927D03*
X003369Y004990D03*
X003835Y004934D03*
X003842Y004940D03*
X003810Y004575D03*
X003817Y004568D03*
X004050Y004335D03*
X004365Y004241D03*
X004371Y004247D03*
X004428Y004593D03*
X004478Y004915D03*
X004894Y004940D03*
X004900Y004946D03*
X004869Y004549D03*
X004875Y004543D03*
X005473Y004575D03*
X005524Y004908D03*
X005524Y004915D03*
X006002Y004915D03*
X006009Y004921D03*
X006009Y004927D03*
X006506Y004990D03*
D64*
X003820Y004247D03*
X002516Y004638D03*
X002516Y004644D03*
X002522Y004663D03*
X002509Y004625D03*
X002522Y004827D03*
X002516Y004839D03*
X002516Y004845D03*
X002516Y004852D03*
X002188Y005368D03*
X001772Y005368D03*
D65*
X003823Y004253D03*
D66*
X002491Y004587D03*
X002484Y004581D03*
X002484Y004908D03*
X002062Y004260D03*
X001785Y005343D03*
D67*
X003826Y004260D03*
D68*
X003794Y004600D03*
X003807Y004890D03*
X003813Y004896D03*
X004141Y005198D03*
X004481Y004896D03*
X004481Y004890D03*
X004443Y004625D03*
X004443Y004619D03*
X004853Y004581D03*
X004853Y004575D03*
X004859Y004883D03*
X004865Y004896D03*
X005527Y004883D03*
X005527Y004877D03*
X005489Y004612D03*
X005489Y004606D03*
X005092Y004310D03*
X004387Y004272D03*
X004380Y004266D03*
X003379Y004965D03*
X003379Y004971D03*
X002856Y004883D03*
X002856Y004877D03*
X002850Y004871D03*
X002850Y004864D03*
X002850Y004858D03*
X002062Y004272D03*
X005987Y004858D03*
X005987Y004864D03*
X005987Y004871D03*
X005993Y004877D03*
X005993Y004883D03*
X006516Y004965D03*
X006516Y004971D03*
D69*
X006519Y004959D03*
X006519Y004953D03*
X005983Y004852D03*
X005983Y004845D03*
X005983Y004839D03*
X005977Y004820D03*
X005530Y004858D03*
X005530Y004864D03*
X005530Y004871D03*
X005498Y004631D03*
X005492Y004619D03*
X004850Y004587D03*
X004843Y004593D03*
X004843Y004600D03*
X004837Y004619D03*
X004843Y004845D03*
X004850Y004858D03*
X004850Y004864D03*
X004856Y004871D03*
X004856Y004877D03*
X004862Y004890D03*
X004484Y004883D03*
X004484Y004877D03*
X004484Y004871D03*
X004446Y004631D03*
X004396Y004297D03*
X004390Y004285D03*
X004390Y004279D03*
X003791Y004606D03*
X003791Y004612D03*
X003785Y004619D03*
X003785Y004625D03*
X003791Y004852D03*
X003798Y004864D03*
X003798Y004871D03*
X003804Y004877D03*
X003804Y004883D03*
X003382Y004953D03*
X003382Y004959D03*
X002846Y004852D03*
X002846Y004845D03*
X002846Y004839D03*
X002840Y004827D03*
X002840Y004820D03*
X005183Y005198D03*
D70*
X004424Y005003D03*
X003228Y005148D03*
X002950Y005016D03*
X002062Y004297D03*
X006087Y005016D03*
X006365Y005148D03*
D71*
X006365Y005135D03*
X005382Y004486D03*
X005092Y004354D03*
X005174Y005154D03*
X003228Y005135D03*
X002062Y004304D03*
D72*
X002185Y004789D03*
X002160Y005236D03*
X001851Y005230D03*
X004144Y005204D03*
X005095Y004304D03*
D73*
X002062Y004310D03*
D74*
X002771Y004323D03*
X002771Y004329D03*
X002771Y004335D03*
X002771Y004341D03*
X002771Y004348D03*
X002771Y004354D03*
X002777Y004367D03*
X002777Y004373D03*
X002777Y004379D03*
X002777Y004386D03*
X002777Y004392D03*
X002777Y004398D03*
X002777Y004404D03*
X002783Y004417D03*
X002783Y004423D03*
X002783Y004430D03*
X002783Y004436D03*
X002783Y004442D03*
X002783Y004449D03*
X002790Y004461D03*
X002790Y004467D03*
X002790Y004474D03*
X002790Y004480D03*
X002790Y004486D03*
X002790Y004493D03*
X002790Y004499D03*
X002796Y004505D03*
X002796Y004512D03*
X002796Y004518D03*
X002796Y004524D03*
X002796Y004530D03*
X002796Y004537D03*
X002796Y004543D03*
X002796Y004549D03*
X002802Y004556D03*
X002802Y004562D03*
X002802Y004568D03*
X002802Y004575D03*
X002802Y004581D03*
X002802Y004587D03*
X002802Y004593D03*
X002809Y004600D03*
X002809Y004606D03*
X002809Y004612D03*
X002809Y004619D03*
X002809Y004625D03*
X002809Y004631D03*
X002809Y004638D03*
X002815Y004650D03*
X002815Y004656D03*
X002815Y004663D03*
X002815Y004669D03*
X002815Y004675D03*
X002815Y004682D03*
X002821Y004694D03*
X002821Y004701D03*
X002821Y004707D03*
X002821Y004713D03*
X002821Y004719D03*
X002828Y004738D03*
X002828Y004745D03*
X002828Y004751D03*
X002828Y004757D03*
X002834Y004782D03*
X002834Y004789D03*
X002878Y005110D03*
X002878Y005116D03*
X002878Y005123D03*
X002878Y005129D03*
X002878Y005135D03*
X002878Y005141D03*
X002884Y005154D03*
X002884Y005160D03*
X002884Y005167D03*
X002884Y005173D03*
X002884Y005179D03*
X002884Y005186D03*
X003382Y004864D03*
X003382Y004858D03*
X003382Y004852D03*
X003382Y004845D03*
X003382Y004839D03*
X003382Y004833D03*
X003382Y004827D03*
X003376Y004814D03*
X003376Y004808D03*
X003376Y004801D03*
X003376Y004795D03*
X003376Y004789D03*
X003376Y004782D03*
X003376Y004776D03*
X003369Y004764D03*
X003369Y004757D03*
X003369Y004751D03*
X003369Y004745D03*
X003369Y004738D03*
X003369Y004732D03*
X003363Y004719D03*
X003363Y004713D03*
X003363Y004707D03*
X003363Y004701D03*
X003363Y004694D03*
X003363Y004688D03*
X003357Y004675D03*
X003357Y004669D03*
X003357Y004663D03*
X003357Y004656D03*
X003357Y004650D03*
X003357Y004644D03*
X003350Y004625D03*
X003350Y004619D03*
X003350Y004612D03*
X003350Y004606D03*
X003350Y004600D03*
X003350Y004593D03*
X003344Y004581D03*
X003344Y004575D03*
X003344Y004568D03*
X003344Y004562D03*
X003344Y004556D03*
X003344Y004549D03*
X003338Y004537D03*
X003338Y004530D03*
X003338Y004524D03*
X003338Y004518D03*
X003338Y004512D03*
X003338Y004505D03*
X003331Y004486D03*
X003331Y004480D03*
X003331Y004474D03*
X003331Y004467D03*
X003331Y004461D03*
X003331Y004455D03*
X003325Y004442D03*
X003325Y004436D03*
X003325Y004430D03*
X003325Y004423D03*
X003325Y004417D03*
X003325Y004411D03*
X003319Y004398D03*
X003319Y004392D03*
X003319Y004386D03*
X003319Y004379D03*
X003319Y004373D03*
X003319Y004367D03*
X003313Y004348D03*
X003313Y004341D03*
X003313Y004335D03*
X003313Y004329D03*
X003313Y004323D03*
X003772Y004669D03*
X003772Y004675D03*
X003772Y004682D03*
X003772Y004688D03*
X003772Y004694D03*
X003772Y004764D03*
X003772Y004770D03*
X003772Y004776D03*
X003772Y004782D03*
X003772Y004789D03*
X003772Y004795D03*
X003779Y004801D03*
X003779Y004808D03*
X003779Y004814D03*
X003785Y004833D03*
X004421Y004404D03*
X004421Y004398D03*
X004421Y004392D03*
X004415Y004373D03*
X004415Y004367D03*
X004415Y004360D03*
X004415Y004354D03*
X004409Y004348D03*
X004409Y004341D03*
X004409Y004335D03*
X004402Y004316D03*
X004050Y004329D03*
X004459Y004656D03*
X004459Y004663D03*
X004484Y004845D03*
X004484Y004852D03*
X004484Y004858D03*
X004484Y004864D03*
X004522Y005104D03*
X004522Y005110D03*
X004522Y005116D03*
X004522Y005123D03*
X004522Y005129D03*
X004528Y005148D03*
X004528Y005154D03*
X004528Y005160D03*
X004528Y005167D03*
X004528Y005173D03*
X004535Y005192D03*
X004831Y004795D03*
X004831Y004789D03*
X004831Y004782D03*
X004824Y004764D03*
X004824Y004757D03*
X004824Y004751D03*
X004824Y004745D03*
X004824Y004738D03*
X004824Y004732D03*
X004824Y004726D03*
X004824Y004719D03*
X004824Y004713D03*
X004824Y004707D03*
X004824Y004701D03*
X004824Y004694D03*
X004824Y004688D03*
X004824Y004682D03*
X004824Y004675D03*
X004824Y004669D03*
X004831Y004650D03*
X004831Y004644D03*
X005505Y004650D03*
X005505Y004656D03*
X005505Y004663D03*
X005511Y004675D03*
X005530Y004814D03*
X005530Y004820D03*
X005530Y004827D03*
X005530Y004833D03*
X005530Y004839D03*
X005530Y004845D03*
X005561Y005079D03*
X005568Y005091D03*
X005568Y005097D03*
X005568Y005104D03*
X005568Y005110D03*
X005568Y005116D03*
X005568Y005123D03*
X005574Y005141D03*
X005574Y005148D03*
X005574Y005154D03*
X005574Y005160D03*
X005574Y005167D03*
X005580Y005186D03*
X005580Y005192D03*
X006015Y005135D03*
X006015Y005129D03*
X006015Y005123D03*
X006015Y005116D03*
X006015Y005110D03*
X006021Y005154D03*
X006021Y005160D03*
X006021Y005167D03*
X006021Y005173D03*
X006021Y005179D03*
X006021Y005186D03*
X005971Y004782D03*
X005965Y004757D03*
X005965Y004751D03*
X005965Y004745D03*
X005965Y004738D03*
X005958Y004719D03*
X005958Y004713D03*
X005958Y004707D03*
X005958Y004701D03*
X005958Y004694D03*
X005958Y004688D03*
X005952Y004682D03*
X005952Y004675D03*
X005952Y004669D03*
X005952Y004663D03*
X005952Y004656D03*
X005952Y004650D03*
X005952Y004644D03*
X005946Y004638D03*
X005946Y004631D03*
X005946Y004625D03*
X005946Y004619D03*
X005946Y004612D03*
X005946Y004606D03*
X005946Y004600D03*
X005939Y004593D03*
X005939Y004587D03*
X005939Y004581D03*
X005939Y004575D03*
X005939Y004568D03*
X005939Y004562D03*
X005939Y004556D03*
X005939Y004549D03*
X005933Y004543D03*
X005933Y004537D03*
X005933Y004530D03*
X005933Y004524D03*
X005933Y004518D03*
X005933Y004512D03*
X005933Y004505D03*
X005927Y004499D03*
X005927Y004493D03*
X005927Y004486D03*
X005927Y004480D03*
X005927Y004474D03*
X005927Y004467D03*
X005927Y004461D03*
X005920Y004449D03*
X005920Y004442D03*
X005920Y004436D03*
X005920Y004430D03*
X005920Y004423D03*
X005920Y004417D03*
X005920Y004411D03*
X005914Y004404D03*
X005914Y004398D03*
X005914Y004392D03*
X005914Y004386D03*
X005914Y004379D03*
X005914Y004373D03*
X005914Y004367D03*
X005908Y004354D03*
X005908Y004348D03*
X005908Y004341D03*
X005908Y004335D03*
X005908Y004329D03*
X005908Y004323D03*
X005467Y004360D03*
X005467Y004367D03*
X005467Y004373D03*
X005467Y004379D03*
X005467Y004386D03*
X005467Y004392D03*
X005467Y004398D03*
X005461Y004348D03*
X005461Y004341D03*
X005461Y004335D03*
X005461Y004329D03*
X005461Y004323D03*
X006450Y004323D03*
X006450Y004329D03*
X006450Y004335D03*
X006450Y004341D03*
X006450Y004348D03*
X006456Y004360D03*
X006456Y004367D03*
X006456Y004373D03*
X006456Y004379D03*
X006456Y004386D03*
X006456Y004392D03*
X006456Y004398D03*
X006462Y004411D03*
X006462Y004417D03*
X006462Y004423D03*
X006462Y004430D03*
X006462Y004436D03*
X006462Y004442D03*
X006469Y004455D03*
X006469Y004461D03*
X006469Y004467D03*
X006469Y004474D03*
X006469Y004480D03*
X006469Y004486D03*
X006475Y004499D03*
X006475Y004505D03*
X006475Y004512D03*
X006475Y004518D03*
X006475Y004524D03*
X006475Y004530D03*
X006481Y004549D03*
X006481Y004556D03*
X006481Y004562D03*
X006481Y004568D03*
X006481Y004575D03*
X006481Y004581D03*
X006487Y004593D03*
X006487Y004600D03*
X006487Y004606D03*
X006487Y004612D03*
X006487Y004619D03*
X006487Y004625D03*
X006494Y004638D03*
X006494Y004644D03*
X006494Y004650D03*
X006494Y004656D03*
X006494Y004663D03*
X006494Y004669D03*
X006500Y004688D03*
X006500Y004694D03*
X006500Y004701D03*
X006500Y004707D03*
X006500Y004713D03*
X006500Y004719D03*
X006506Y004732D03*
X006506Y004738D03*
X006506Y004745D03*
X006506Y004751D03*
X006506Y004757D03*
X006506Y004764D03*
X006513Y004776D03*
X006513Y004782D03*
X006513Y004789D03*
X006513Y004795D03*
X006513Y004801D03*
X006513Y004808D03*
X006519Y004827D03*
X006519Y004833D03*
X006519Y004839D03*
X006519Y004845D03*
X006519Y004852D03*
X006519Y004858D03*
X006519Y004864D03*
X006525Y004902D03*
X006525Y004908D03*
X006450Y004316D03*
X001221Y005047D03*
X001221Y005053D03*
X001221Y005060D03*
X001221Y005066D03*
X001221Y005072D03*
X001221Y005079D03*
X001228Y005091D03*
X001228Y005097D03*
X001228Y005104D03*
X001228Y005110D03*
X001228Y005116D03*
X001228Y005123D03*
X001234Y005141D03*
X001234Y005148D03*
X001234Y005154D03*
X001234Y005160D03*
X001234Y005167D03*
X001234Y005173D03*
X001240Y005186D03*
X001240Y005192D03*
X001240Y005198D03*
X001240Y005204D03*
X001240Y005211D03*
X001240Y005217D03*
X001246Y005230D03*
X001246Y005236D03*
X001246Y005242D03*
X001246Y005249D03*
X001246Y005255D03*
X001246Y005261D03*
X001253Y005274D03*
X001253Y005280D03*
X001253Y005286D03*
X001253Y005293D03*
X001253Y005299D03*
X001253Y005305D03*
X001253Y005312D03*
X001259Y005324D03*
X001259Y005330D03*
X001259Y005337D03*
X001259Y005343D03*
X001259Y005349D03*
X001259Y005356D03*
X001265Y005368D03*
X001265Y005375D03*
X001265Y005381D03*
X001265Y005387D03*
X001265Y005393D03*
X001265Y005400D03*
X001272Y005412D03*
X001272Y005419D03*
X001272Y005425D03*
X001272Y005431D03*
X001272Y005438D03*
X001272Y005444D03*
X001272Y005450D03*
X001278Y005463D03*
X001278Y005469D03*
X001278Y005475D03*
X001278Y005482D03*
X001278Y005488D03*
X001278Y005494D03*
X001284Y005507D03*
X001284Y005513D03*
X001284Y005519D03*
X001284Y005526D03*
X001215Y005034D03*
X001215Y005028D03*
X001215Y005022D03*
X001215Y005016D03*
X001215Y005009D03*
X001215Y005003D03*
X001209Y004984D03*
X001209Y004978D03*
X001209Y004971D03*
X001209Y004965D03*
X001209Y004959D03*
X001209Y004953D03*
X001202Y004940D03*
X001202Y004934D03*
X001202Y004927D03*
X001202Y004921D03*
X001202Y004915D03*
X001202Y004908D03*
X001196Y004896D03*
X001196Y004890D03*
X001196Y004883D03*
X001196Y004877D03*
X001196Y004871D03*
X001196Y004864D03*
X001190Y004845D03*
X001190Y004839D03*
X001190Y004833D03*
X001190Y004827D03*
X001190Y004820D03*
X001190Y004814D03*
X001183Y004801D03*
X001183Y004795D03*
X001183Y004789D03*
X001183Y004782D03*
X001183Y004776D03*
X001183Y004770D03*
X001177Y004757D03*
X001177Y004751D03*
X001177Y004745D03*
X001177Y004738D03*
X001177Y004732D03*
X001177Y004726D03*
X001171Y004713D03*
X001171Y004707D03*
X001171Y004701D03*
X001171Y004694D03*
X001171Y004688D03*
X001171Y004682D03*
X001171Y004675D03*
X001165Y004663D03*
X001165Y004656D03*
X001165Y004650D03*
X001165Y004644D03*
X001165Y004638D03*
X001165Y004631D03*
X001158Y004619D03*
X001158Y004612D03*
X001158Y004606D03*
X001158Y004600D03*
X001158Y004593D03*
X001158Y004587D03*
X001152Y004575D03*
X001152Y004568D03*
X001152Y004562D03*
X001152Y004556D03*
X001152Y004549D03*
X001152Y004543D03*
X001152Y004537D03*
X001146Y004524D03*
X001146Y004518D03*
X001146Y004512D03*
X001146Y004505D03*
X001146Y004499D03*
X001146Y004493D03*
X001139Y004480D03*
X001139Y004474D03*
X001139Y004467D03*
X001139Y004461D03*
X001139Y004455D03*
X001139Y004449D03*
X001133Y004436D03*
X001133Y004430D03*
X001133Y004423D03*
X001133Y004417D03*
X001133Y004411D03*
X001133Y004404D03*
X001133Y004398D03*
X001127Y004386D03*
X001127Y004379D03*
X001127Y004373D03*
X001127Y004367D03*
X001127Y004360D03*
X001127Y004354D03*
X001120Y004341D03*
X001120Y004335D03*
X001120Y004329D03*
X001120Y004323D03*
X001120Y004316D03*
D75*
X002062Y004316D03*
X003221Y005110D03*
X004128Y005141D03*
X005092Y004373D03*
X006358Y005110D03*
D76*
X006377Y005198D03*
X006024Y005192D03*
X005527Y004808D03*
X005520Y004719D03*
X005514Y004694D03*
X005514Y004688D03*
X005514Y004682D03*
X005508Y004669D03*
X005464Y004354D03*
X005457Y004316D03*
X005905Y004316D03*
X004462Y004669D03*
X004462Y004675D03*
X004469Y004694D03*
X004487Y004827D03*
X004487Y004833D03*
X004487Y004839D03*
X004424Y004411D03*
X004418Y004386D03*
X004418Y004379D03*
X003769Y004701D03*
X003769Y004707D03*
X003769Y004713D03*
X003769Y004719D03*
X003769Y004726D03*
X003769Y004732D03*
X003769Y004738D03*
X003769Y004745D03*
X003769Y004751D03*
X003769Y004757D03*
X003240Y005198D03*
X002887Y005192D03*
X002812Y004644D03*
X002768Y004316D03*
X002182Y004719D03*
X002182Y004726D03*
X002182Y004732D03*
X002182Y004738D03*
X002182Y004745D03*
X002182Y004751D03*
X002182Y004757D03*
X002182Y004764D03*
X003309Y004316D03*
D77*
X004050Y004316D03*
X002513Y004631D03*
X002506Y004619D03*
X002513Y004858D03*
X002506Y004864D03*
X002506Y004871D03*
X002185Y004845D03*
X001776Y005362D03*
D78*
X002125Y005223D03*
X002881Y004946D03*
X003360Y005003D03*
X003857Y004959D03*
X003864Y004965D03*
X004141Y005192D03*
X004469Y004940D03*
X004916Y004965D03*
X004922Y004971D03*
X004418Y004575D03*
X005092Y004316D03*
X005464Y004556D03*
X005514Y004940D03*
X006018Y004946D03*
X006497Y005003D03*
D79*
X005168Y005129D03*
X004053Y004398D03*
X002062Y004323D03*
X001829Y004631D03*
X001829Y004638D03*
X001817Y004833D03*
X001823Y004839D03*
X001829Y004852D03*
X001835Y004864D03*
X001835Y004871D03*
D80*
X001854Y004908D03*
X001798Y004820D03*
X001791Y004713D03*
X001829Y004612D03*
X002062Y004329D03*
X002018Y005186D03*
X002012Y005198D03*
X002012Y005204D03*
X005168Y005116D03*
D81*
X005161Y005110D03*
X004122Y005116D03*
X002062Y004335D03*
X001829Y004600D03*
X001785Y004719D03*
X001861Y004921D03*
D82*
X004998Y005016D03*
X005174Y005167D03*
X005476Y005003D03*
X005401Y004493D03*
X005092Y004341D03*
D83*
X005161Y005091D03*
X002043Y005154D03*
X001867Y004940D03*
X001829Y004581D03*
X002062Y004348D03*
D84*
X002062Y004354D03*
X001829Y004568D03*
X002056Y005135D03*
D85*
X004050Y004354D03*
D86*
X002062Y004360D03*
X001829Y004562D03*
X001747Y004764D03*
X001747Y004782D03*
X002062Y005129D03*
D87*
X002935Y005009D03*
X003231Y005154D03*
X003936Y005009D03*
X004365Y004524D03*
X004050Y004360D03*
X006072Y005009D03*
X006368Y005154D03*
D88*
X006361Y005123D03*
X005095Y004367D03*
X004131Y005148D03*
X003224Y005123D03*
D89*
X002525Y004820D03*
X002525Y004814D03*
X002525Y004808D03*
X002519Y004833D03*
X002525Y004682D03*
X002525Y004675D03*
X002525Y004669D03*
X002519Y004656D03*
X002519Y004650D03*
X002191Y005375D03*
X001769Y005375D03*
X001675Y004373D03*
D90*
X002062Y004373D03*
X002062Y005116D03*
D91*
X004050Y004373D03*
X004409Y005009D03*
X004131Y005154D03*
D92*
X002062Y005104D03*
X002062Y004379D03*
D93*
X003224Y005129D03*
X004050Y004379D03*
X005171Y005148D03*
X005448Y005016D03*
X006361Y005129D03*
D94*
X005092Y004379D03*
X004128Y005135D03*
X001817Y004688D03*
X001817Y004682D03*
X001817Y004675D03*
X001817Y004669D03*
X001823Y004656D03*
X001810Y004694D03*
D95*
X001801Y004707D03*
X001832Y004625D03*
X001839Y004877D03*
X001845Y004883D03*
X001845Y004890D03*
X004125Y005129D03*
X005095Y004386D03*
D96*
X005171Y005135D03*
X004050Y004392D03*
D97*
X005202Y004411D03*
X005202Y004417D03*
X002028Y004398D03*
D98*
X001832Y004606D03*
X001857Y004915D03*
X002021Y005179D03*
X004050Y004411D03*
X005095Y004398D03*
D99*
X005196Y004430D03*
X004150Y004436D03*
X002046Y004430D03*
X002046Y004423D03*
X002040Y004417D03*
D100*
X002059Y004449D03*
X004144Y004455D03*
D101*
X004138Y004467D03*
X005190Y004461D03*
X005190Y004455D03*
D102*
X005256Y005053D03*
X004210Y005060D03*
X004128Y004512D03*
X004128Y004505D03*
X002062Y004486D03*
D103*
X002062Y004493D03*
X002062Y004499D03*
X004198Y005041D03*
X004204Y005047D03*
X005243Y005034D03*
X005243Y005028D03*
X005250Y005041D03*
D104*
X005259Y005060D03*
X004213Y005066D03*
X004131Y004499D03*
D105*
X003231Y005160D03*
X005177Y005173D03*
X005417Y004499D03*
X006368Y005160D03*
D106*
X004191Y005022D03*
X002062Y004505D03*
D107*
X002919Y004997D03*
X003234Y005167D03*
X003920Y005003D03*
X003876Y004518D03*
X004443Y004984D03*
X004979Y005009D03*
X005426Y004505D03*
X006056Y004997D03*
X006371Y005167D03*
D108*
X006257Y005079D03*
X006257Y005072D03*
X006257Y005066D03*
X003120Y005066D03*
X003120Y005072D03*
X002062Y005072D03*
X001880Y004512D03*
D109*
X002182Y004675D03*
X002182Y004814D03*
X002409Y004512D03*
X002169Y005261D03*
X001835Y005255D03*
D110*
X001861Y004518D03*
X003114Y005091D03*
X003114Y005097D03*
X006251Y005097D03*
X006251Y005091D03*
D111*
X006371Y005173D03*
X006043Y004984D03*
X005502Y004971D03*
X005439Y004518D03*
X004456Y004965D03*
X003895Y004990D03*
X003864Y004524D03*
X003234Y005173D03*
X002906Y004984D03*
D112*
X001851Y004524D03*
D113*
X001845Y004530D03*
D114*
X002182Y004656D03*
X002440Y004530D03*
X002440Y004959D03*
X002176Y005299D03*
X001810Y005299D03*
X004147Y005211D03*
X005187Y005211D03*
D115*
X001889Y004971D03*
X001839Y004537D03*
D116*
X002456Y004543D03*
X002456Y004946D03*
X002179Y005318D03*
X001801Y005312D03*
D117*
X001791Y005330D03*
X002182Y005330D03*
X002182Y005337D03*
X002472Y004927D03*
X002472Y004562D03*
D118*
X002475Y004568D03*
X002481Y004575D03*
X002481Y004915D03*
X002475Y004921D03*
X002185Y005343D03*
X001788Y005337D03*
D119*
X001861Y004927D03*
X001779Y004726D03*
X001829Y004593D03*
X004122Y005110D03*
X005161Y005104D03*
D120*
X002503Y004877D03*
X002497Y004883D03*
X002497Y004890D03*
X002503Y004612D03*
X002503Y004606D03*
X002497Y004600D03*
X002188Y005356D03*
X002188Y005362D03*
X001779Y005356D03*
X001520Y005085D03*
D121*
X001848Y004896D03*
X001810Y004827D03*
X001829Y004619D03*
X005168Y005123D03*
D122*
X002459Y004940D03*
X002182Y004650D03*
X001539Y005079D03*
X001798Y005318D03*
X002182Y005324D03*
D123*
X002176Y005286D03*
X001817Y005286D03*
X001558Y005072D03*
X002182Y004827D03*
X002182Y004663D03*
X002428Y004965D03*
D124*
X002185Y004770D03*
X002185Y004713D03*
X002154Y005230D03*
X004484Y004820D03*
X004484Y004814D03*
X004484Y004808D03*
X004484Y004801D03*
X004484Y004795D03*
X004484Y004789D03*
X004484Y004782D03*
X004478Y004738D03*
X004472Y004713D03*
X004472Y004707D03*
X004472Y004701D03*
X004465Y004688D03*
X004465Y004682D03*
X005517Y004701D03*
X005517Y004707D03*
X005517Y004713D03*
X005524Y004726D03*
X005524Y004732D03*
X005524Y004738D03*
X005524Y004745D03*
X005524Y004751D03*
X005524Y004757D03*
X005524Y004764D03*
X005530Y004770D03*
X005530Y004776D03*
X005530Y004782D03*
X005530Y004789D03*
X005530Y004795D03*
X005530Y004801D03*
D125*
X002185Y004801D03*
X002185Y004688D03*
X001845Y005236D03*
D126*
X002528Y004801D03*
X002528Y004795D03*
X002528Y004789D03*
X002528Y004782D03*
X002528Y004776D03*
X002528Y004770D03*
X002535Y004764D03*
X002535Y004757D03*
X002535Y004751D03*
X002535Y004745D03*
X002535Y004738D03*
X002535Y004732D03*
X002535Y004726D03*
X002535Y004719D03*
X002528Y004713D03*
X002528Y004707D03*
X002528Y004701D03*
X002528Y004694D03*
X002528Y004688D03*
D127*
X002182Y004694D03*
X002182Y004795D03*
X002163Y005242D03*
X005187Y005204D03*
D128*
X002034Y005167D03*
X001769Y004732D03*
D129*
X001763Y004738D03*
X001864Y004934D03*
D130*
X001769Y004801D03*
X001757Y004745D03*
X002046Y005148D03*
X004119Y005097D03*
X005158Y005085D03*
D131*
X005158Y005079D03*
X002053Y005141D03*
X001870Y004946D03*
X001757Y004795D03*
X001750Y004751D03*
D132*
X001744Y004770D03*
X001744Y004776D03*
D133*
X001898Y004978D03*
X002062Y005091D03*
X003114Y005104D03*
X006251Y005104D03*
D134*
X002018Y004984D03*
X002006Y005003D03*
X001999Y005009D03*
X001993Y005022D03*
X001987Y005028D03*
X001980Y005034D03*
X001980Y005041D03*
X001974Y005047D03*
X001968Y005053D03*
X001961Y005060D03*
D135*
X001996Y005016D03*
X002009Y004997D03*
X002015Y004990D03*
D136*
X004188Y005016D03*
D137*
X003127Y005022D03*
X006264Y005022D03*
D138*
X005240Y005022D03*
X004194Y005028D03*
X004194Y005034D03*
D139*
X003120Y005047D03*
X003120Y005053D03*
X006257Y005053D03*
D140*
X005253Y005047D03*
X004207Y005053D03*
D141*
X003237Y005204D03*
X002166Y005255D03*
X001839Y005249D03*
X001574Y005066D03*
X006374Y005204D03*
D142*
X002062Y005110D03*
D143*
X003228Y005141D03*
X005174Y005160D03*
X006365Y005141D03*
D144*
X004131Y005160D03*
D145*
X004131Y005167D03*
D146*
X002172Y005280D03*
X001826Y005274D03*
X001820Y005280D03*
D147*
X001807Y005305D03*
X002179Y005305D03*
D148*
X001766Y005381D03*
D149*
X002191Y005381D03*
M02*
