G75*
G70*
%OFA0B0*%
%FSLAX24Y24*%
%IPPOS*%
%LPD*%
%AMOC8*
5,1,8,0,0,1.08239X$1,22.5*
%
%ADD10R,1.9505X0.0033*%
%ADD11R,2.0103X0.0033*%
%ADD12R,2.0435X0.0033*%
%ADD13R,2.0668X0.0033*%
%ADD14R,0.0532X0.0033*%
%ADD15R,0.0432X0.0033*%
%ADD16R,0.0399X0.0033*%
%ADD17R,0.0366X0.0033*%
%ADD18R,0.0332X0.0033*%
%ADD19R,0.0299X0.0033*%
%ADD20R,0.0266X0.0033*%
%ADD21R,0.0233X0.0033*%
%ADD22R,0.0199X0.0033*%
%ADD23R,0.0166X0.0033*%
%ADD24R,0.0133X0.0033*%
%ADD25R,0.0100X0.0033*%
%ADD26R,1.0733X0.0033*%
%ADD27R,1.1032X0.0033*%
%ADD28R,1.1231X0.0033*%
%ADD29R,1.1397X0.0033*%
%ADD30R,0.0498X0.0033*%
%ADD31R,0.0465X0.0033*%
%ADD32R,0.4552X0.0033*%
%ADD33R,0.4353X0.0033*%
%ADD34R,0.4154X0.0033*%
%ADD35R,0.4087X0.0033*%
%ADD36R,0.3888X0.0033*%
%ADD37R,0.3655X0.0033*%
%ADD38R,0.3423X0.0033*%
%ADD39R,1.9685X0.0033*%
%ADD40R,2.0151X0.0033*%
%ADD41R,2.0483X0.0033*%
%ADD42R,2.0683X0.0033*%
%ADD43R,2.0882X0.0033*%
%ADD44R,2.1082X0.0033*%
%ADD45R,2.1215X0.0033*%
%ADD46R,2.1348X0.0033*%
%ADD47R,2.1481X0.0033*%
%ADD48R,2.1614X0.0033*%
%ADD49R,2.1747X0.0033*%
%ADD50R,2.1847X0.0033*%
%ADD51R,2.1946X0.0033*%
%ADD52R,2.2013X0.0033*%
%ADD53R,2.2113X0.0033*%
%ADD54R,2.2212X0.0033*%
%ADD55R,0.0931X0.0033*%
%ADD56R,1.9585X0.0033*%
%ADD57R,0.0831X0.0033*%
%ADD58R,1.9319X0.0033*%
%ADD59R,0.0865X0.0033*%
%ADD60R,0.0765X0.0033*%
%ADD61R,1.9120X0.0033*%
%ADD62R,0.0798X0.0033*%
%ADD63R,0.0732X0.0033*%
%ADD64R,1.8954X0.0033*%
%ADD65R,0.0698X0.0033*%
%ADD66R,1.8821X0.0033*%
%ADD67R,0.0665X0.0033*%
%ADD68R,1.8721X0.0033*%
%ADD69R,0.0698X0.0033*%
%ADD70R,1.8621X0.0033*%
%ADD71R,0.0632X0.0033*%
%ADD72R,1.8521X0.0033*%
%ADD73R,0.0632X0.0033*%
%ADD74R,1.8455X0.0033*%
%ADD75R,0.0632X0.0033*%
%ADD76R,0.8180X0.0033*%
%ADD77R,0.0599X0.0033*%
%ADD78R,0.7914X0.0033*%
%ADD79R,0.0599X0.0033*%
%ADD80R,0.7781X0.0033*%
%ADD81R,0.0599X0.0033*%
%ADD82R,0.7648X0.0033*%
%ADD83R,0.7581X0.0033*%
%ADD84R,0.0565X0.0033*%
%ADD85R,0.7482X0.0033*%
%ADD86R,0.0565X0.0033*%
%ADD87R,0.7415X0.0033*%
%ADD88R,0.7349X0.0033*%
%ADD89R,0.7315X0.0033*%
%ADD90R,0.7249X0.0033*%
%ADD91R,0.0599X0.0033*%
%ADD92R,0.7182X0.0033*%
%ADD93R,0.0565X0.0033*%
%ADD94R,0.7116X0.0033*%
%ADD95R,0.7049X0.0033*%
%ADD96R,0.7016X0.0033*%
%ADD97R,0.6950X0.0033*%
%ADD98R,0.0565X0.0033*%
%ADD99R,0.6883X0.0033*%
%ADD100R,0.6817X0.0033*%
%ADD101R,0.6783X0.0033*%
%ADD102R,0.6717X0.0033*%
%ADD103R,0.6650X0.0033*%
%ADD104R,0.6584X0.0033*%
%ADD105R,0.6517X0.0033*%
%ADD106R,0.6451X0.0033*%
%ADD107R,0.6384X0.0033*%
%ADD108R,0.6285X0.0033*%
%ADD109R,0.0632X0.0033*%
%ADD110R,0.6152X0.0033*%
%ADD111R,0.6019X0.0033*%
%ADD112R,0.5852X0.0033*%
%ADD113R,0.5553X0.0033*%
%ADD114R,0.0665X0.0033*%
%ADD115R,0.0732X0.0033*%
%ADD116R,0.0732X0.0033*%
%ADD117R,0.0765X0.0033*%
%ADD118R,0.0798X0.0033*%
%ADD119R,0.0765X0.0033*%
%ADD120R,0.0831X0.0033*%
%ADD121R,0.0865X0.0033*%
%ADD122R,0.0100X0.0033*%
%ADD123R,0.0133X0.0033*%
%ADD124R,0.2028X0.0033*%
%ADD125R,0.0266X0.0033*%
%ADD126R,0.0133X0.0033*%
%ADD127R,0.0299X0.0033*%
%ADD128R,0.0266X0.0033*%
%ADD129R,0.2028X0.0033*%
%ADD130R,0.0299X0.0033*%
%ADD131R,0.0333X0.0033*%
%ADD132R,0.0366X0.0033*%
%ADD133R,0.0133X0.0033*%
%ADD134R,0.0166X0.0033*%
%ADD135R,0.0100X0.0033*%
%ADD136R,0.0233X0.0033*%
%ADD137R,0.0233X0.0033*%
%ADD138R,0.0200X0.0033*%
%ADD139R,0.0200X0.0033*%
%ADD140R,0.0100X0.0033*%
%ADD141R,0.0100X0.0033*%
%ADD142R,0.0399X0.0033*%
%ADD143R,0.0266X0.0033*%
%ADD144R,0.0200X0.0033*%
%ADD145R,0.0200X0.0033*%
%ADD146R,0.0333X0.0033*%
%ADD147R,0.0266X0.0033*%
%ADD148R,0.0399X0.0033*%
%ADD149R,0.0466X0.0033*%
%ADD150R,0.0466X0.0033*%
%ADD151R,0.0233X0.0033*%
%ADD152R,0.0133X0.0033*%
%ADD153R,0.0166X0.0033*%
%ADD154R,0.1131X0.0033*%
%ADD155R,0.1031X0.0033*%
%ADD156R,0.0998X0.0033*%
%ADD157R,0.0964X0.0033*%
%ADD158R,0.1097X0.0033*%
%ADD159R,0.0366X0.0033*%
%ADD160R,0.0399X0.0033*%
%ADD161R,0.0233X0.0033*%
%ADD162R,0.1995X0.0033*%
%ADD163R,0.1995X0.0033*%
%ADD164R,0.0865X0.0033*%
%ADD165R,0.0865X0.0033*%
%ADD166R,0.0898X0.0033*%
%ADD167R,0.0898X0.0033*%
%ADD168R,0.0898X0.0033*%
%ADD169R,0.0898X0.0033*%
%ADD170R,0.0931X0.0033*%
%ADD171R,0.0931X0.0033*%
%ADD172R,0.0931X0.0033*%
%ADD173R,0.0964X0.0033*%
%ADD174R,0.0964X0.0033*%
%ADD175R,0.0964X0.0033*%
%ADD176R,0.0067X0.0033*%
%ADD177R,0.0033X0.0033*%
%ADD178R,0.0432X0.0033*%
%ADD179R,0.0432X0.0033*%
%ADD180R,0.0499X0.0033*%
%ADD181R,0.0532X0.0033*%
%ADD182R,0.0998X0.0033*%
%ADD183R,0.1031X0.0033*%
%ADD184R,0.1097X0.0033*%
%ADD185R,0.1064X0.0033*%
%ADD186R,0.1097X0.0033*%
%ADD187R,0.1164X0.0033*%
%ADD188R,0.1230X0.0033*%
%ADD189R,0.1197X0.0033*%
%ADD190R,0.1264X0.0033*%
%ADD191R,0.1230X0.0033*%
%ADD192R,0.1297X0.0033*%
%ADD193R,0.1363X0.0033*%
%ADD194R,0.1330X0.0033*%
%ADD195R,0.1397X0.0033*%
%ADD196R,0.1430X0.0033*%
%ADD197R,0.1430X0.0033*%
%ADD198R,0.1397X0.0033*%
%ADD199R,0.1264X0.0033*%
%ADD200R,0.1197X0.0033*%
%ADD201R,0.1164X0.0033*%
%ADD202R,0.1031X0.0033*%
%ADD203R,0.0765X0.0033*%
%ADD204R,0.0532X0.0033*%
%ADD205R,0.0499X0.0033*%
%ADD206R,0.0067X0.0033*%
%ADD207R,0.1097X0.0033*%
%ADD208R,0.1496X0.0033*%
%ADD209R,0.1463X0.0033*%
%ADD210R,0.1530X0.0033*%
%ADD211R,0.1563X0.0033*%
%ADD212R,0.1596X0.0033*%
%ADD213R,0.1629X0.0033*%
%ADD214R,0.1596X0.0033*%
%ADD215R,0.1663X0.0033*%
%ADD216R,0.1629X0.0033*%
%ADD217R,0.1696X0.0033*%
%ADD218R,0.1729X0.0033*%
%ADD219R,0.1762X0.0033*%
%ADD220R,0.1796X0.0033*%
%ADD221R,0.1762X0.0033*%
%ADD222R,0.1829X0.0033*%
%ADD223R,0.1796X0.0033*%
%ADD224R,0.1862X0.0033*%
%ADD225R,0.1895X0.0033*%
%ADD226R,0.1895X0.0033*%
%ADD227R,0.1929X0.0033*%
%ADD228R,0.1962X0.0033*%
%ADD229R,0.1962X0.0033*%
%ADD230R,0.1929X0.0033*%
%ADD231R,0.1064X0.0033*%
%ADD232R,0.0698X0.0033*%
%ADD233R,0.0399X0.0033*%
%ADD234R,0.0067X0.0033*%
%ADD235R,0.0033X0.0033*%
%ADD236R,1.1372X0.0033*%
%ADD237R,1.1705X0.0033*%
%ADD238R,1.1904X0.0033*%
%ADD239R,1.2104X0.0033*%
%ADD240R,1.2237X0.0033*%
%ADD241R,1.2370X0.0033*%
%ADD242R,1.2503X0.0033*%
%ADD243R,1.2602X0.0033*%
%ADD244R,1.2702X0.0033*%
%ADD245R,1.2802X0.0033*%
%ADD246R,1.2869X0.0033*%
%ADD247R,1.2968X0.0033*%
%ADD248R,1.3035X0.0033*%
%ADD249R,1.3101X0.0033*%
%ADD250R,1.3168X0.0033*%
%ADD251R,1.3234X0.0033*%
%ADD252R,1.3301X0.0033*%
%ADD253R,1.3334X0.0033*%
%ADD254R,1.3401X0.0033*%
%ADD255R,1.3434X0.0033*%
%ADD256R,1.3500X0.0033*%
%ADD257R,1.3534X0.0033*%
%ADD258R,1.3567X0.0033*%
%ADD259R,1.3633X0.0033*%
%ADD260R,1.3667X0.0033*%
%ADD261R,0.1131X0.0033*%
%ADD262R,0.1031X0.0033*%
%ADD263R,0.0698X0.0033*%
%ADD264R,0.0732X0.0033*%
%ADD265R,0.0798X0.0033*%
%ADD266R,0.4090X0.0033*%
%ADD267R,0.4123X0.0033*%
%ADD268R,0.4156X0.0033*%
%ADD269R,0.4190X0.0033*%
%ADD270R,0.4223X0.0033*%
%ADD271R,0.4323X0.0033*%
%ADD272R,0.4489X0.0033*%
%ADD273R,0.4456X0.0033*%
%ADD274R,0.1197X0.0033*%
%ADD275R,0.5886X0.0033*%
%ADD276R,0.5919X0.0033*%
%ADD277R,0.5852X0.0033*%
%ADD278R,0.5786X0.0033*%
%ADD279R,0.5819X0.0033*%
%ADD280R,0.5753X0.0033*%
%ADD281R,0.5686X0.0033*%
%ADD282R,0.5719X0.0033*%
%ADD283R,0.5653X0.0033*%
%ADD284R,0.5586X0.0033*%
%ADD285R,0.5520X0.0033*%
%ADD286R,0.5453X0.0033*%
%ADD287R,0.5487X0.0033*%
%ADD288R,0.5420X0.0033*%
%ADD289R,0.5387X0.0033*%
%ADD290R,0.5354X0.0033*%
%ADD291R,0.5254X0.0033*%
%ADD292R,0.5154X0.0033*%
%ADD293R,0.5187X0.0033*%
%ADD294R,0.5054X0.0033*%
%ADD295R,0.5088X0.0033*%
%ADD296R,0.4955X0.0033*%
%ADD297R,0.4988X0.0033*%
%ADD298R,0.4855X0.0033*%
%ADD299R,0.4755X0.0033*%
%ADD300R,0.4722X0.0033*%
%ADD301R,0.4589X0.0033*%
%ADD302R,0.4556X0.0033*%
%ADD303R,0.4356X0.0033*%
%ADD304R,0.4057X0.0033*%
%ADD305R,0.4090X0.0033*%
%ADD306C,0.0000*%
%ADD307C,0.0160*%
%ADD308C,0.0050*%
%ADD309C,0.0100*%
D10*
X015248Y002160D03*
D11*
X015248Y002193D03*
D12*
X015248Y002226D03*
D13*
X015231Y002260D03*
D14*
X005063Y002293D03*
X025399Y002293D03*
D15*
X025549Y002326D03*
X004947Y002326D03*
X024053Y048813D03*
D16*
X028257Y048779D03*
X006625Y048813D03*
X002239Y048779D03*
X004831Y002359D03*
D17*
X025648Y002359D03*
X025748Y002393D03*
X020830Y043994D03*
X023920Y048779D03*
X028340Y048746D03*
D18*
X028423Y048713D03*
X009649Y043994D03*
X006725Y048779D03*
X002139Y048746D03*
X004665Y002426D03*
X004731Y002393D03*
X025831Y002426D03*
D19*
X025881Y002459D03*
X004582Y002459D03*
X004515Y002492D03*
X009566Y044028D03*
X002056Y048713D03*
X001990Y048680D03*
X020897Y044028D03*
X023854Y048746D03*
D20*
X023771Y048713D03*
X023704Y048680D03*
X023605Y048613D03*
X020980Y044061D03*
X028489Y048680D03*
X028556Y048646D03*
X028622Y048613D03*
X009516Y044061D03*
X009450Y044094D03*
X006858Y048713D03*
X006791Y048746D03*
X001940Y048646D03*
X001873Y048613D03*
X004299Y002625D03*
X004399Y002559D03*
X004465Y002526D03*
X025964Y002492D03*
X026030Y002526D03*
X026130Y002592D03*
D21*
X026080Y002559D03*
X026180Y002625D03*
X026246Y002658D03*
X026280Y002692D03*
X026313Y002725D03*
X004349Y002592D03*
X004249Y002658D03*
X004216Y002692D03*
X004116Y002758D03*
X004083Y002791D03*
X009400Y044127D03*
X006941Y048646D03*
X006908Y048680D03*
X001824Y048580D03*
X001757Y048547D03*
X001724Y048514D03*
X001624Y048447D03*
X001591Y048414D03*
X001558Y048381D03*
X021030Y044094D03*
X021096Y044127D03*
X021129Y044161D03*
X023522Y048547D03*
X023555Y048580D03*
X023655Y048646D03*
X028672Y048580D03*
X028705Y048547D03*
X028772Y048514D03*
X028805Y048480D03*
D22*
X028855Y048447D03*
X028888Y048414D03*
X028921Y048381D03*
X028955Y048347D03*
X023472Y048514D03*
X023439Y048480D03*
X023405Y048447D03*
X023372Y048414D03*
X023339Y048381D03*
X023306Y048347D03*
X021279Y044294D03*
X021246Y044260D03*
X021212Y044227D03*
X021179Y044194D03*
X009350Y044161D03*
X009317Y044194D03*
X009283Y044227D03*
X009250Y044260D03*
X009217Y044294D03*
X009184Y044327D03*
X009150Y044360D03*
X007157Y048447D03*
X007124Y048480D03*
X007090Y048514D03*
X007057Y048547D03*
X007024Y048580D03*
X006991Y048613D03*
X001674Y048480D03*
X001508Y048347D03*
X001475Y048314D03*
X001441Y048281D03*
X001342Y048148D03*
X003767Y003124D03*
X003867Y002991D03*
X003900Y002957D03*
X003934Y002924D03*
X003967Y002891D03*
X004000Y002858D03*
X004033Y002825D03*
X004166Y002725D03*
X026363Y002758D03*
X026396Y002791D03*
X026429Y002825D03*
X026462Y002858D03*
X026496Y002891D03*
X026529Y002924D03*
X026562Y002957D03*
X026595Y002991D03*
X026629Y003024D03*
X026662Y003057D03*
X026695Y003090D03*
D23*
X026712Y003124D03*
X026745Y003157D03*
X026778Y003190D03*
X026778Y003223D03*
X026811Y003257D03*
X026845Y003290D03*
X026845Y003323D03*
X026878Y003356D03*
X026911Y003423D03*
X026944Y003489D03*
X026977Y003556D03*
X027011Y003622D03*
X027044Y003689D03*
X027443Y026815D03*
X027509Y026982D03*
X027576Y027148D03*
X027609Y027214D03*
X027642Y027281D03*
X027675Y027347D03*
X027709Y027414D03*
X027742Y027480D03*
X027775Y027546D03*
X027808Y027613D03*
X027841Y027679D03*
X027875Y027746D03*
X027908Y027812D03*
X027941Y027879D03*
X027974Y027945D03*
X028008Y028012D03*
X028041Y028078D03*
X028074Y028145D03*
X028107Y028211D03*
X028140Y028277D03*
X028174Y028344D03*
X028207Y028410D03*
X028240Y028477D03*
X028273Y028543D03*
X028307Y028610D03*
X028340Y028676D03*
X028373Y028743D03*
X028406Y028809D03*
X028440Y028876D03*
X028473Y028942D03*
X028506Y029009D03*
X028539Y029075D03*
X028572Y029141D03*
X029104Y030171D03*
X029137Y030238D03*
X029237Y030471D03*
X029270Y030537D03*
X021295Y044327D03*
X021329Y044360D03*
X021362Y044393D03*
X021395Y044460D03*
X021428Y044493D03*
X021561Y044792D03*
X021594Y044858D03*
X021628Y044925D03*
X021661Y044991D03*
X021694Y045058D03*
X021727Y045124D03*
X021827Y045357D03*
X021860Y045423D03*
X021894Y045490D03*
X021927Y045556D03*
X021960Y045623D03*
X021993Y045689D03*
X022126Y045988D03*
X022159Y046055D03*
X022193Y046121D03*
X022226Y046188D03*
X022259Y046254D03*
X022292Y046320D03*
X022392Y046553D03*
X022425Y046620D03*
X022458Y046686D03*
X022492Y046752D03*
X022525Y046819D03*
X022558Y046885D03*
X022658Y047118D03*
X022691Y047184D03*
X022724Y047251D03*
X022757Y047317D03*
X022791Y047384D03*
X022824Y047450D03*
X022957Y047749D03*
X022990Y047816D03*
X023023Y047882D03*
X023057Y047949D03*
X023090Y048015D03*
X023123Y048082D03*
X023156Y048148D03*
X023189Y048181D03*
X023189Y048214D03*
X023223Y048248D03*
X023256Y048281D03*
X023289Y048314D03*
X029137Y048148D03*
X029171Y048115D03*
X029204Y048082D03*
X029204Y048048D03*
X029237Y048015D03*
X029270Y047982D03*
X029303Y047915D03*
X029337Y047849D03*
X029370Y047783D03*
X029403Y047716D03*
X009134Y044393D03*
X009101Y044426D03*
X009067Y044493D03*
X008968Y044692D03*
X008934Y044759D03*
X008901Y044825D03*
X008868Y044892D03*
X008835Y044958D03*
X008802Y045025D03*
X008702Y045257D03*
X008669Y045324D03*
X008635Y045390D03*
X008602Y045457D03*
X008569Y045523D03*
X008536Y045589D03*
X008503Y045656D03*
X008403Y045889D03*
X008370Y045955D03*
X008336Y046021D03*
X008303Y046088D03*
X008270Y046154D03*
X008237Y046221D03*
X008137Y046453D03*
X008104Y046520D03*
X008071Y046586D03*
X008037Y046653D03*
X008004Y046719D03*
X007971Y046786D03*
X007838Y047085D03*
X007805Y047151D03*
X007771Y047218D03*
X007738Y047284D03*
X007705Y047351D03*
X007672Y047417D03*
X007572Y047650D03*
X007539Y047716D03*
X007506Y047783D03*
X007472Y047849D03*
X007439Y047915D03*
X007406Y047982D03*
X007306Y048214D03*
X007273Y048281D03*
X007240Y048314D03*
X007207Y048381D03*
X007173Y048414D03*
X001425Y048248D03*
X001392Y048214D03*
X001358Y048181D03*
X001325Y048115D03*
X001292Y048082D03*
X001259Y048048D03*
X001226Y047982D03*
X001192Y047949D03*
X001159Y047882D03*
X001126Y047816D03*
X001093Y047749D03*
X001059Y047683D03*
X001159Y030670D03*
X001226Y030504D03*
X001259Y030437D03*
X001491Y029972D03*
X001525Y029906D03*
X001558Y029839D03*
X001591Y029773D03*
X001624Y029706D03*
X001657Y029640D03*
X001691Y029573D03*
X001724Y029507D03*
X001757Y029440D03*
X001790Y029374D03*
X001824Y029308D03*
X001857Y029241D03*
X001890Y029175D03*
X001923Y029108D03*
X001957Y029042D03*
X001990Y028975D03*
X002023Y028909D03*
X002056Y028842D03*
X002089Y028776D03*
X002123Y028709D03*
X002156Y028643D03*
X002189Y028577D03*
X002222Y028510D03*
X002256Y028444D03*
X002289Y028377D03*
X002322Y028311D03*
X002355Y028244D03*
X002389Y028178D03*
X002422Y028111D03*
X002455Y028045D03*
X002488Y027978D03*
X002521Y027912D03*
X002555Y027846D03*
X002588Y027779D03*
X002621Y027713D03*
X002654Y027646D03*
X002688Y027580D03*
X002721Y027513D03*
X002754Y027447D03*
X002787Y027380D03*
X002820Y027314D03*
X002854Y027247D03*
X002887Y027181D03*
X002920Y027114D03*
X002987Y026948D03*
X003452Y003655D03*
X003485Y003589D03*
X003518Y003522D03*
X003551Y003456D03*
X003585Y003389D03*
X003618Y003323D03*
X003651Y003290D03*
X003684Y003257D03*
X003684Y003223D03*
X003718Y003190D03*
X003751Y003157D03*
X003784Y003090D03*
X003817Y003057D03*
X003851Y003024D03*
D24*
X003369Y003855D03*
X003369Y003888D03*
X003369Y003921D03*
X003336Y003954D03*
X003336Y003988D03*
X003336Y004021D03*
X003336Y004054D03*
X003302Y004120D03*
X003302Y004154D03*
X003302Y004187D03*
X003302Y004220D03*
X003269Y004353D03*
X003269Y004386D03*
X003269Y004420D03*
X003269Y004453D03*
X003269Y004486D03*
X003269Y004519D03*
X003269Y004552D03*
X003269Y004586D03*
X003269Y004619D03*
X003269Y004652D03*
X003269Y004685D03*
X003269Y004719D03*
X003269Y004752D03*
X003269Y004785D03*
X003269Y004818D03*
X003269Y004851D03*
X003269Y004885D03*
X003269Y004918D03*
X003269Y004951D03*
X003269Y004984D03*
X003269Y005018D03*
X003269Y005051D03*
X003269Y005084D03*
X003269Y005117D03*
X003269Y005151D03*
X003269Y005184D03*
X003269Y005217D03*
X003269Y005250D03*
X003269Y005283D03*
X003269Y005317D03*
X003269Y005350D03*
X003269Y005383D03*
X003269Y005416D03*
X003269Y005450D03*
X003269Y005483D03*
X003269Y005516D03*
X003269Y005549D03*
X003269Y005583D03*
X003269Y005616D03*
X003269Y005649D03*
X003269Y005682D03*
X003269Y005715D03*
X003269Y005749D03*
X003269Y005782D03*
X003269Y005815D03*
X003269Y005848D03*
X003269Y005882D03*
X003269Y005915D03*
X003269Y005948D03*
X003269Y005981D03*
X003269Y006014D03*
X003269Y006048D03*
X003269Y006081D03*
X003269Y006114D03*
X003269Y006147D03*
X003269Y006181D03*
X003269Y006214D03*
X003269Y006247D03*
X003269Y006280D03*
X003269Y006314D03*
X003269Y006347D03*
X003269Y006380D03*
X003269Y006413D03*
X003269Y006446D03*
X003269Y006480D03*
X003269Y006513D03*
X003269Y006546D03*
X003269Y006579D03*
X003269Y006613D03*
X003269Y006646D03*
X003269Y006679D03*
X003269Y006712D03*
X003269Y006746D03*
X003269Y006779D03*
X003269Y006812D03*
X003269Y006845D03*
X003269Y006878D03*
X003269Y006912D03*
X003269Y006945D03*
X003269Y006978D03*
X003269Y007011D03*
X003269Y007045D03*
X003269Y007078D03*
X003269Y007111D03*
X003269Y007144D03*
X003269Y007177D03*
X003269Y007211D03*
X003269Y007244D03*
X003269Y007277D03*
X003269Y007310D03*
X003269Y007344D03*
X003269Y007377D03*
X003269Y007410D03*
X003269Y007443D03*
X003269Y007477D03*
X003269Y007510D03*
X003269Y007543D03*
X003269Y007576D03*
X003269Y007609D03*
X003269Y007643D03*
X003269Y007676D03*
X003269Y007709D03*
X003269Y007742D03*
X003269Y007776D03*
X003269Y007809D03*
X003269Y007842D03*
X003269Y007875D03*
X003269Y007909D03*
X003269Y007942D03*
X003269Y007975D03*
X003269Y008008D03*
X003269Y008041D03*
X003269Y008075D03*
X003269Y008108D03*
X003269Y008141D03*
X003269Y008174D03*
X003269Y008208D03*
X003269Y008241D03*
X003269Y008274D03*
X003269Y008307D03*
X003269Y008340D03*
X003269Y008374D03*
X003269Y008407D03*
X003269Y008440D03*
X003269Y008473D03*
X003269Y008507D03*
X003269Y008540D03*
X003269Y008573D03*
X003269Y008606D03*
X003269Y008640D03*
X003269Y008673D03*
X003269Y008706D03*
X003269Y008739D03*
X003269Y008772D03*
X003269Y008806D03*
X003269Y008839D03*
X003269Y008872D03*
X003269Y008905D03*
X003269Y008939D03*
X003269Y008972D03*
X003269Y009005D03*
X003269Y009038D03*
X003269Y009071D03*
X003269Y009105D03*
X003269Y009138D03*
X003269Y009171D03*
X003269Y009204D03*
X003269Y009238D03*
X003269Y009271D03*
X003269Y009304D03*
X003269Y009337D03*
X003269Y009371D03*
X003269Y009404D03*
X003269Y009437D03*
X003269Y009470D03*
X003269Y009503D03*
X003269Y009537D03*
X003269Y009570D03*
X003269Y009603D03*
X003269Y009636D03*
X003269Y009670D03*
X003269Y009703D03*
X003269Y009736D03*
X003269Y009769D03*
X003269Y009803D03*
X003269Y009836D03*
X003269Y009869D03*
X003269Y009902D03*
X003269Y009935D03*
X003269Y009969D03*
X003269Y010002D03*
X003269Y010035D03*
X003269Y010068D03*
X003269Y010102D03*
X003269Y010135D03*
X003269Y010168D03*
X003269Y010201D03*
X003269Y010234D03*
X003269Y010268D03*
X003269Y010301D03*
X003269Y010334D03*
X003269Y010367D03*
X003269Y010401D03*
X003269Y010434D03*
X003269Y010467D03*
X003269Y010500D03*
X003269Y010534D03*
X003269Y010567D03*
X003269Y010600D03*
X003269Y010633D03*
X003269Y010666D03*
X003269Y010700D03*
X003269Y010733D03*
X003269Y010766D03*
X003269Y010799D03*
X003269Y010833D03*
X003269Y010866D03*
X003269Y010899D03*
X003269Y010932D03*
X003269Y010966D03*
X003269Y010999D03*
X003269Y011032D03*
X003269Y011065D03*
X003269Y011098D03*
X003269Y011132D03*
X003269Y011165D03*
X003269Y011198D03*
X003269Y011231D03*
X003269Y011265D03*
X003269Y011298D03*
X003269Y011331D03*
X003269Y011364D03*
X003269Y011397D03*
X003269Y011431D03*
X003269Y011464D03*
X003269Y011497D03*
X003269Y011530D03*
X003269Y011564D03*
X003269Y011597D03*
X003269Y011630D03*
X003269Y011663D03*
X003269Y011697D03*
X003269Y011730D03*
X003269Y011763D03*
X003269Y011796D03*
X003269Y011829D03*
X003269Y011863D03*
X003269Y011896D03*
X003269Y011929D03*
X003269Y011962D03*
X003269Y011996D03*
X003269Y012029D03*
X003269Y012062D03*
X003269Y012095D03*
X003269Y012129D03*
X003269Y012162D03*
X003269Y012195D03*
X003269Y012228D03*
X003269Y012261D03*
X003269Y012295D03*
X003269Y012328D03*
X003269Y012361D03*
X003269Y012394D03*
X003269Y012428D03*
X003269Y012461D03*
X003269Y012494D03*
X003269Y012527D03*
X003269Y012560D03*
X003269Y012594D03*
X003269Y012627D03*
X003269Y012660D03*
X003269Y012693D03*
X003269Y012727D03*
X003269Y012760D03*
X003269Y012793D03*
X003269Y012826D03*
X003269Y012860D03*
X003269Y012893D03*
X003269Y012926D03*
X003269Y012959D03*
X003269Y012992D03*
X003269Y013026D03*
X003269Y013059D03*
X003269Y013092D03*
X003269Y013125D03*
X003269Y013159D03*
X003269Y013192D03*
X003269Y013225D03*
X003269Y013258D03*
X003269Y013291D03*
X003269Y013325D03*
X003269Y013358D03*
X003269Y013391D03*
X003269Y013424D03*
X003269Y013458D03*
X003269Y013491D03*
X003269Y013524D03*
X003269Y013557D03*
X003269Y013591D03*
X003269Y013624D03*
X003269Y013657D03*
X003269Y013690D03*
X003269Y013723D03*
X003269Y013757D03*
X003269Y013790D03*
X003269Y013823D03*
X003269Y013856D03*
X003269Y013890D03*
X003269Y013923D03*
X003269Y013956D03*
X003269Y013989D03*
X003269Y014023D03*
X003269Y014056D03*
X003269Y014089D03*
X003269Y014122D03*
X003269Y014155D03*
X003269Y014189D03*
X003269Y014222D03*
X003269Y014255D03*
X003269Y014288D03*
X003269Y014322D03*
X003269Y014355D03*
X003269Y014388D03*
X003269Y014421D03*
X003269Y014454D03*
X003269Y014488D03*
X003269Y014521D03*
X003269Y014554D03*
X003269Y014587D03*
X003269Y014621D03*
X003269Y014654D03*
X003269Y014687D03*
X003269Y014720D03*
X003269Y014754D03*
X003269Y014787D03*
X003269Y014820D03*
X003269Y014853D03*
X003269Y014886D03*
X003269Y014920D03*
X003269Y014953D03*
X003269Y014986D03*
X003269Y015019D03*
X003269Y015053D03*
X003269Y015086D03*
X003269Y015119D03*
X003269Y015152D03*
X003269Y015186D03*
X003269Y015219D03*
X003269Y015252D03*
X003269Y015285D03*
X003269Y015318D03*
X003269Y015352D03*
X003269Y015385D03*
X003269Y015418D03*
X003269Y015451D03*
X003269Y015485D03*
X003269Y015518D03*
X003269Y015551D03*
X003269Y015584D03*
X003269Y015617D03*
X003269Y015651D03*
X003269Y015684D03*
X003269Y015717D03*
X003269Y015750D03*
X003269Y015784D03*
X003269Y015817D03*
X003269Y015850D03*
X003269Y015883D03*
X003269Y015917D03*
X003269Y015950D03*
X003269Y015983D03*
X003269Y016016D03*
X003269Y016049D03*
X003269Y016083D03*
X003269Y016116D03*
X003269Y016149D03*
X003269Y016182D03*
X003269Y016216D03*
X003269Y016249D03*
X003269Y016282D03*
X003269Y016315D03*
X003269Y016349D03*
X003269Y016382D03*
X003269Y016415D03*
X003269Y016448D03*
X003269Y016481D03*
X003269Y016515D03*
X003269Y016548D03*
X003269Y016581D03*
X003269Y016614D03*
X003269Y016648D03*
X003269Y016681D03*
X003269Y016714D03*
X003269Y016747D03*
X003269Y016780D03*
X003269Y016814D03*
X003269Y016847D03*
X003269Y016880D03*
X003269Y016913D03*
X003269Y016947D03*
X003269Y016980D03*
X003269Y017013D03*
X003269Y017046D03*
X003269Y017080D03*
X003269Y017113D03*
X003269Y017146D03*
X003269Y017179D03*
X003269Y017212D03*
X003269Y017246D03*
X003269Y017279D03*
X003269Y017312D03*
X003269Y017345D03*
X003269Y017379D03*
X003269Y017412D03*
X003269Y017445D03*
X003269Y017478D03*
X003269Y017511D03*
X003269Y017545D03*
X003269Y017578D03*
X003269Y017611D03*
X003269Y017644D03*
X003269Y017678D03*
X003269Y017711D03*
X003269Y017744D03*
X003269Y017777D03*
X003269Y017811D03*
X003269Y017844D03*
X003269Y017877D03*
X003269Y017910D03*
X003269Y017943D03*
X003269Y017977D03*
X003269Y018010D03*
X003269Y018043D03*
X003269Y018076D03*
X003269Y018110D03*
X003269Y018143D03*
X003269Y018176D03*
X003269Y018209D03*
X003269Y018243D03*
X003269Y018276D03*
X003269Y018309D03*
X003269Y018342D03*
X003269Y018375D03*
X003269Y018409D03*
X003269Y018442D03*
X003269Y018475D03*
X003269Y018508D03*
X003269Y018542D03*
X003269Y018575D03*
X003269Y018608D03*
X003269Y018641D03*
X003269Y018674D03*
X003269Y018708D03*
X003269Y018741D03*
X003269Y018774D03*
X003269Y018807D03*
X003269Y018841D03*
X003269Y018874D03*
X003269Y018907D03*
X003269Y018940D03*
X003269Y018974D03*
X003269Y019007D03*
X003269Y019040D03*
X003269Y019073D03*
X003269Y019106D03*
X003269Y019140D03*
X003269Y019173D03*
X003269Y019206D03*
X003269Y019239D03*
X003269Y019273D03*
X003269Y019306D03*
X003269Y019339D03*
X003269Y019372D03*
X003269Y019406D03*
X003269Y019439D03*
X003269Y019472D03*
X003269Y019505D03*
X003269Y019538D03*
X003269Y019572D03*
X003269Y019605D03*
X003269Y019638D03*
X003269Y019671D03*
X003269Y019705D03*
X003269Y019738D03*
X003269Y019771D03*
X003269Y019804D03*
X003269Y019837D03*
X003269Y019871D03*
X003269Y019904D03*
X003269Y019937D03*
X003269Y019970D03*
X003269Y020004D03*
X003269Y020037D03*
X003269Y020070D03*
X003269Y020103D03*
X003269Y020137D03*
X003269Y020170D03*
X003269Y020203D03*
X003269Y020236D03*
X003269Y020269D03*
X003269Y020303D03*
X003269Y020336D03*
X003269Y020369D03*
X003269Y020402D03*
X003269Y020436D03*
X003269Y020469D03*
X003269Y020502D03*
X003269Y020535D03*
X003269Y020569D03*
X003269Y020602D03*
X003269Y020635D03*
X003269Y020668D03*
X003269Y020701D03*
X003269Y020735D03*
X003269Y020768D03*
X003269Y020801D03*
X003269Y020834D03*
X003269Y020868D03*
X003269Y020901D03*
X003269Y020934D03*
X003269Y020967D03*
X003269Y021000D03*
X003269Y021034D03*
X003269Y021067D03*
X003269Y021100D03*
X003269Y021133D03*
X003269Y021167D03*
X003269Y021200D03*
X003269Y021233D03*
X003269Y021266D03*
X003269Y021300D03*
X003269Y021333D03*
X003269Y021366D03*
X003269Y021399D03*
X003269Y021432D03*
X003269Y021466D03*
X003269Y021499D03*
X003269Y021532D03*
X003269Y021565D03*
X003269Y021599D03*
X003269Y021632D03*
X003269Y021665D03*
X003269Y021698D03*
X003269Y021731D03*
X003269Y021765D03*
X003269Y021798D03*
X003269Y021831D03*
X003269Y021864D03*
X003269Y021898D03*
X003269Y021931D03*
X003269Y021964D03*
X003269Y021997D03*
X003269Y022031D03*
X003269Y022064D03*
X003269Y022097D03*
X003269Y022130D03*
X003269Y022163D03*
X003269Y022197D03*
X003269Y022230D03*
X003269Y022263D03*
X003269Y022296D03*
X003269Y022330D03*
X003269Y022363D03*
X003269Y022396D03*
X003269Y022429D03*
X003269Y022463D03*
X003269Y022496D03*
X003269Y022529D03*
X003269Y022562D03*
X003269Y022595D03*
X003269Y022629D03*
X003269Y022662D03*
X003269Y022695D03*
X003269Y022728D03*
X003269Y022762D03*
X003269Y022795D03*
X003269Y022828D03*
X003269Y022861D03*
X003269Y022894D03*
X003269Y022928D03*
X003269Y022961D03*
X003269Y022994D03*
X003269Y023027D03*
X003269Y023061D03*
X003269Y023094D03*
X003269Y023127D03*
X003269Y023160D03*
X003269Y023194D03*
X003269Y023227D03*
X003269Y023260D03*
X003269Y023293D03*
X003269Y023326D03*
X003269Y023360D03*
X003269Y023393D03*
X003269Y023426D03*
X003269Y023459D03*
X003269Y023493D03*
X003269Y023526D03*
X003269Y023559D03*
X003269Y023592D03*
X003269Y023626D03*
X003269Y023659D03*
X003269Y023692D03*
X003269Y023725D03*
X003269Y023758D03*
X003269Y023792D03*
X003269Y023825D03*
X003269Y023858D03*
X003269Y023891D03*
X003269Y023925D03*
X003269Y023958D03*
X003269Y023991D03*
X003269Y024024D03*
X003269Y024057D03*
X003269Y024091D03*
X003269Y024124D03*
X003269Y024157D03*
X003269Y024190D03*
X003269Y024224D03*
X003269Y024257D03*
X003269Y024290D03*
X003269Y024323D03*
X003269Y024357D03*
X003269Y024390D03*
X003269Y024423D03*
X003269Y024456D03*
X003269Y024489D03*
X003269Y024523D03*
X003269Y024556D03*
X003269Y024589D03*
X003269Y024622D03*
X003269Y024656D03*
X003269Y024689D03*
X003269Y024722D03*
X003269Y024755D03*
X003269Y024789D03*
X003269Y024822D03*
X003269Y024855D03*
X003269Y024888D03*
X003269Y024921D03*
X003269Y024955D03*
X003269Y024988D03*
X003269Y025021D03*
X003269Y025054D03*
X003269Y025088D03*
X003269Y025121D03*
X003269Y025154D03*
X003269Y025187D03*
X003269Y025220D03*
X003269Y025254D03*
X003269Y025287D03*
X003269Y025320D03*
X003269Y025353D03*
X003269Y025387D03*
X003269Y025420D03*
X003269Y025453D03*
X003269Y025486D03*
X003269Y025520D03*
X003269Y025553D03*
X003269Y025586D03*
X003269Y025619D03*
X003269Y025652D03*
X003269Y025686D03*
X003269Y025719D03*
X003236Y025918D03*
X003236Y025951D03*
X003236Y025985D03*
X003236Y026018D03*
X003236Y026051D03*
X003203Y026151D03*
X003203Y026184D03*
X003203Y026217D03*
X003203Y026251D03*
X003169Y026317D03*
X003169Y026350D03*
X003169Y026383D03*
X003169Y026417D03*
X003136Y026450D03*
X003136Y026483D03*
X003136Y026516D03*
X003136Y026550D03*
X003103Y026583D03*
X003103Y026616D03*
X003103Y026649D03*
X003070Y026683D03*
X003070Y026716D03*
X003070Y026749D03*
X003036Y026782D03*
X003036Y026815D03*
X003036Y026849D03*
X003003Y026882D03*
X003003Y026915D03*
X002970Y026982D03*
X002970Y027015D03*
X002937Y027048D03*
X002937Y027081D03*
X002904Y027148D03*
X002870Y027214D03*
X002837Y027281D03*
X002804Y027347D03*
X002771Y027414D03*
X002737Y027480D03*
X002704Y027546D03*
X002671Y027613D03*
X002638Y027679D03*
X002604Y027746D03*
X002571Y027812D03*
X002538Y027879D03*
X002505Y027945D03*
X002472Y028012D03*
X002438Y028078D03*
X002405Y028145D03*
X002372Y028211D03*
X002339Y028277D03*
X002305Y028344D03*
X002272Y028410D03*
X002239Y028477D03*
X002206Y028543D03*
X002173Y028610D03*
X002139Y028676D03*
X002106Y028743D03*
X002073Y028809D03*
X002040Y028876D03*
X002006Y028942D03*
X001973Y029009D03*
X001940Y029075D03*
X001907Y029141D03*
X001873Y029208D03*
X001840Y029274D03*
X001807Y029341D03*
X001774Y029407D03*
X001741Y029474D03*
X001707Y029540D03*
X001674Y029607D03*
X001641Y029673D03*
X001608Y029740D03*
X001574Y029806D03*
X001541Y029872D03*
X001508Y029939D03*
X001475Y030005D03*
X001441Y030039D03*
X001441Y030072D03*
X001408Y030105D03*
X001408Y030138D03*
X001375Y030171D03*
X001375Y030205D03*
X001342Y030238D03*
X001342Y030271D03*
X001309Y030304D03*
X001309Y030338D03*
X001275Y030371D03*
X001275Y030404D03*
X001242Y030471D03*
X001209Y030537D03*
X001209Y030570D03*
X001176Y030603D03*
X001176Y030637D03*
X001142Y030703D03*
X001142Y030736D03*
X001109Y030770D03*
X001109Y030803D03*
X001109Y030836D03*
X001076Y030869D03*
X001076Y030903D03*
X001076Y030936D03*
X001076Y030969D03*
X001043Y031002D03*
X001043Y031035D03*
X001043Y031069D03*
X001010Y031135D03*
X001010Y031168D03*
X001010Y031202D03*
X000976Y031301D03*
X000976Y031334D03*
X000976Y031368D03*
X000976Y031401D03*
X000943Y031501D03*
X000943Y031534D03*
X000943Y031567D03*
X000943Y031600D03*
X000943Y031634D03*
X000910Y031833D03*
X000910Y031866D03*
X000910Y031899D03*
X000910Y031933D03*
X000910Y031966D03*
X000910Y031999D03*
X000910Y032032D03*
X000910Y032066D03*
X000910Y032099D03*
X000910Y032132D03*
X000910Y032165D03*
X000910Y032198D03*
X000910Y032232D03*
X000910Y032265D03*
X000910Y032298D03*
X000910Y032331D03*
X000910Y032365D03*
X000910Y032398D03*
X000910Y032431D03*
X000910Y032464D03*
X000910Y032497D03*
X000910Y032531D03*
X000910Y032564D03*
X000910Y032597D03*
X000910Y032630D03*
X000910Y032664D03*
X000910Y032697D03*
X000910Y032730D03*
X000910Y032763D03*
X000910Y032797D03*
X000910Y032830D03*
X000910Y032863D03*
X000910Y032896D03*
X000910Y032929D03*
X000910Y032963D03*
X000910Y032996D03*
X000910Y033029D03*
X000910Y033062D03*
X000910Y033096D03*
X000910Y033129D03*
X000910Y033162D03*
X000910Y033195D03*
X000910Y033229D03*
X000910Y033262D03*
X000910Y033295D03*
X000910Y033328D03*
X000910Y033361D03*
X000910Y033395D03*
X000910Y033428D03*
X000910Y033461D03*
X000910Y033494D03*
X000910Y033528D03*
X000910Y033561D03*
X000910Y033594D03*
X000910Y033627D03*
X000910Y033660D03*
X000910Y033694D03*
X000910Y033727D03*
X000910Y033760D03*
X000910Y033793D03*
X000910Y033827D03*
X000910Y033860D03*
X000910Y033893D03*
X000910Y033926D03*
X000910Y033960D03*
X000910Y033993D03*
X000910Y034026D03*
X000910Y034059D03*
X000910Y034092D03*
X000910Y034126D03*
X000910Y034159D03*
X000910Y034192D03*
X000910Y034225D03*
X000910Y034259D03*
X000910Y034292D03*
X000910Y034325D03*
X000910Y034358D03*
X000910Y034391D03*
X000910Y034425D03*
X000910Y034458D03*
X000910Y034491D03*
X000910Y034524D03*
X000910Y034558D03*
X000910Y034591D03*
X000910Y034624D03*
X000910Y034657D03*
X000910Y034691D03*
X000910Y034724D03*
X000910Y034757D03*
X000910Y034790D03*
X000910Y034823D03*
X000910Y034857D03*
X000910Y034890D03*
X000910Y034923D03*
X000910Y034956D03*
X000910Y034990D03*
X000910Y035023D03*
X000910Y035056D03*
X000910Y035089D03*
X000910Y035123D03*
X000910Y035156D03*
X000910Y035189D03*
X000910Y035222D03*
X000910Y035255D03*
X000910Y035289D03*
X000910Y035322D03*
X000910Y035355D03*
X000910Y035388D03*
X000910Y035422D03*
X000910Y035455D03*
X000910Y035488D03*
X000910Y035521D03*
X000910Y035554D03*
X000910Y035588D03*
X000910Y035621D03*
X000910Y035654D03*
X000910Y035687D03*
X000910Y035721D03*
X000910Y035754D03*
X000910Y035787D03*
X000910Y035820D03*
X000910Y035854D03*
X000910Y035887D03*
X000910Y035920D03*
X000910Y035953D03*
X000910Y035986D03*
X000910Y036020D03*
X000910Y036053D03*
X000910Y036086D03*
X000910Y036119D03*
X000910Y036153D03*
X000910Y036186D03*
X000910Y036219D03*
X000910Y036252D03*
X000910Y036286D03*
X000910Y036319D03*
X000910Y036352D03*
X000910Y036385D03*
X000910Y036418D03*
X000910Y036452D03*
X000910Y036485D03*
X000910Y036518D03*
X000910Y036551D03*
X000910Y036585D03*
X000910Y036618D03*
X000910Y036651D03*
X000910Y036684D03*
X000910Y036717D03*
X000910Y036751D03*
X000910Y036784D03*
X000910Y036817D03*
X000910Y036850D03*
X000910Y036884D03*
X000910Y036917D03*
X000910Y036950D03*
X000910Y036983D03*
X000910Y037017D03*
X000910Y037050D03*
X000910Y037083D03*
X000910Y037116D03*
X000910Y037149D03*
X000910Y037183D03*
X000910Y037216D03*
X000910Y037249D03*
X000910Y037282D03*
X000910Y037316D03*
X000910Y037349D03*
X000910Y037382D03*
X000910Y037415D03*
X000910Y037449D03*
X000910Y037482D03*
X000910Y037515D03*
X000910Y037548D03*
X000910Y037581D03*
X000910Y037615D03*
X000910Y037648D03*
X000910Y037681D03*
X000910Y037714D03*
X000910Y037748D03*
X000910Y037781D03*
X000910Y037814D03*
X000910Y037847D03*
X000910Y037880D03*
X000910Y037914D03*
X000910Y037947D03*
X000910Y037980D03*
X000910Y038013D03*
X000910Y038047D03*
X000910Y038080D03*
X000910Y038113D03*
X000910Y038146D03*
X000910Y038180D03*
X000910Y038213D03*
X000910Y038246D03*
X000910Y038279D03*
X000910Y038312D03*
X000910Y038346D03*
X000910Y038379D03*
X000910Y038412D03*
X000910Y038445D03*
X000910Y038479D03*
X000910Y038512D03*
X000910Y038545D03*
X000910Y038578D03*
X000910Y038611D03*
X000910Y038645D03*
X000910Y038678D03*
X000910Y038711D03*
X000910Y038744D03*
X000910Y038778D03*
X000910Y038811D03*
X000910Y038844D03*
X000910Y038877D03*
X000910Y038911D03*
X000910Y038944D03*
X000910Y038977D03*
X000910Y039010D03*
X000910Y039043D03*
X000910Y039077D03*
X000910Y039110D03*
X000910Y039143D03*
X000910Y039176D03*
X000910Y039210D03*
X000910Y039243D03*
X000910Y039276D03*
X000910Y039309D03*
X000910Y039343D03*
X000910Y039376D03*
X000910Y039409D03*
X000910Y039442D03*
X000910Y039475D03*
X000910Y039509D03*
X000910Y039542D03*
X000910Y039575D03*
X000910Y039608D03*
X000910Y039642D03*
X000910Y039675D03*
X000910Y039708D03*
X000910Y039741D03*
X000910Y039774D03*
X000910Y039808D03*
X000910Y039841D03*
X000910Y039874D03*
X000910Y039907D03*
X000910Y039941D03*
X000910Y039974D03*
X000910Y040007D03*
X000910Y040040D03*
X000910Y040074D03*
X000910Y040107D03*
X000910Y040140D03*
X000910Y040173D03*
X000910Y040206D03*
X000910Y040240D03*
X000910Y040273D03*
X000910Y040306D03*
X000910Y040339D03*
X000910Y040373D03*
X000910Y040406D03*
X000910Y040439D03*
X000910Y040472D03*
X000910Y040506D03*
X000910Y040539D03*
X000910Y040572D03*
X000910Y040605D03*
X000910Y040638D03*
X000910Y040672D03*
X000910Y040705D03*
X000910Y040738D03*
X000910Y040771D03*
X000910Y040805D03*
X000910Y040838D03*
X000910Y040871D03*
X000910Y040904D03*
X000910Y040937D03*
X000910Y040971D03*
X000910Y041004D03*
X000910Y041037D03*
X000910Y041070D03*
X000910Y041104D03*
X000910Y041137D03*
X000910Y041170D03*
X000910Y041203D03*
X000910Y041237D03*
X000910Y041270D03*
X000910Y041303D03*
X000910Y041336D03*
X000910Y041369D03*
X000910Y041403D03*
X000910Y041436D03*
X000910Y041469D03*
X000910Y041502D03*
X000910Y041536D03*
X000910Y041569D03*
X000910Y041602D03*
X000910Y041635D03*
X000910Y041669D03*
X000910Y041702D03*
X000910Y041735D03*
X000910Y041768D03*
X000910Y041801D03*
X000910Y041835D03*
X000910Y041868D03*
X000910Y041901D03*
X000910Y041934D03*
X000910Y041968D03*
X000910Y042001D03*
X000910Y042034D03*
X000910Y042067D03*
X000910Y042100D03*
X000910Y042134D03*
X000910Y042167D03*
X000910Y042200D03*
X000910Y042233D03*
X000910Y042267D03*
X000910Y042300D03*
X000910Y042333D03*
X000910Y042366D03*
X000910Y042400D03*
X000910Y042433D03*
X000910Y042466D03*
X000910Y042499D03*
X000910Y042532D03*
X000910Y042566D03*
X000910Y042599D03*
X000910Y042632D03*
X000910Y042665D03*
X000910Y042699D03*
X000910Y042732D03*
X000910Y042765D03*
X000910Y042798D03*
X000910Y042831D03*
X000910Y042865D03*
X000910Y042898D03*
X000910Y042931D03*
X000910Y042964D03*
X000910Y042998D03*
X000910Y043031D03*
X000910Y043064D03*
X000910Y043097D03*
X000910Y043131D03*
X000910Y043164D03*
X000910Y043197D03*
X000910Y043230D03*
X000910Y043263D03*
X000910Y043297D03*
X000910Y043330D03*
X000910Y043363D03*
X000910Y043396D03*
X000910Y043430D03*
X000910Y043463D03*
X000910Y043496D03*
X000910Y043529D03*
X000910Y043563D03*
X000910Y043596D03*
X000910Y043629D03*
X000910Y043662D03*
X000910Y043695D03*
X000910Y043729D03*
X000910Y043762D03*
X000910Y043795D03*
X000910Y043828D03*
X000910Y043862D03*
X000910Y043895D03*
X000910Y043928D03*
X000910Y043961D03*
X000910Y043994D03*
X000910Y044028D03*
X000910Y044061D03*
X000910Y044094D03*
X000910Y044127D03*
X000910Y044161D03*
X000910Y044194D03*
X000910Y044227D03*
X000910Y044260D03*
X000910Y044294D03*
X000910Y044327D03*
X000910Y044360D03*
X000910Y044393D03*
X000910Y044426D03*
X000910Y044460D03*
X000910Y044493D03*
X000910Y044526D03*
X000910Y044559D03*
X000910Y044593D03*
X000910Y044626D03*
X000910Y044659D03*
X000910Y044692D03*
X000910Y044726D03*
X000910Y044759D03*
X000910Y044792D03*
X000910Y044825D03*
X000910Y044858D03*
X000910Y044892D03*
X000910Y044925D03*
X000910Y044958D03*
X000910Y044991D03*
X000910Y045025D03*
X000910Y045058D03*
X000910Y045091D03*
X000910Y045124D03*
X000910Y045157D03*
X000910Y045191D03*
X000910Y045224D03*
X000910Y045257D03*
X000910Y045290D03*
X000910Y045324D03*
X000910Y045357D03*
X000910Y045390D03*
X000910Y045423D03*
X000910Y045457D03*
X000910Y045490D03*
X000910Y045523D03*
X000910Y045556D03*
X000910Y045589D03*
X000910Y045623D03*
X000910Y045656D03*
X000910Y045689D03*
X000910Y045722D03*
X000910Y045756D03*
X000910Y045789D03*
X000910Y045822D03*
X000910Y045855D03*
X000910Y045889D03*
X000910Y045922D03*
X000910Y045955D03*
X000910Y045988D03*
X000910Y046021D03*
X000910Y046055D03*
X000910Y046088D03*
X000910Y046121D03*
X000910Y046154D03*
X000910Y046188D03*
X000910Y046221D03*
X000910Y046254D03*
X000910Y046287D03*
X000910Y046320D03*
X000910Y046354D03*
X000910Y046387D03*
X000910Y046420D03*
X000910Y046453D03*
X000910Y046487D03*
X000910Y046520D03*
X000910Y046553D03*
X000910Y046586D03*
X000910Y046620D03*
X000910Y046653D03*
X000910Y046686D03*
X000910Y046719D03*
X000910Y046752D03*
X000910Y046786D03*
X000910Y046819D03*
X000910Y046852D03*
X000910Y046885D03*
X000910Y046919D03*
X000910Y046952D03*
X000910Y046985D03*
X000910Y047018D03*
X000910Y047051D03*
X000910Y047085D03*
X000943Y047218D03*
X000943Y047251D03*
X000943Y047284D03*
X000943Y047317D03*
X000976Y047384D03*
X000976Y047417D03*
X000976Y047450D03*
X000976Y047483D03*
X001010Y047517D03*
X001010Y047550D03*
X001010Y047583D03*
X001043Y047616D03*
X001043Y047650D03*
X001076Y047716D03*
X001109Y047783D03*
X001142Y047849D03*
X001176Y047915D03*
X001242Y048015D03*
X007223Y048347D03*
X007290Y048248D03*
X007323Y048181D03*
X007323Y048148D03*
X007356Y048115D03*
X007356Y048082D03*
X007389Y048048D03*
X007389Y048015D03*
X007423Y047949D03*
X007456Y047882D03*
X007489Y047816D03*
X007522Y047749D03*
X007556Y047683D03*
X007589Y047616D03*
X007589Y047583D03*
X007622Y047550D03*
X007622Y047517D03*
X007655Y047483D03*
X007655Y047450D03*
X007688Y047384D03*
X007722Y047317D03*
X007755Y047251D03*
X007788Y047184D03*
X007821Y047118D03*
X007855Y047051D03*
X007855Y047018D03*
X007888Y046985D03*
X007888Y046952D03*
X007921Y046919D03*
X007921Y046885D03*
X007954Y046852D03*
X007954Y046819D03*
X007987Y046752D03*
X008021Y046686D03*
X008054Y046620D03*
X008087Y046553D03*
X008120Y046487D03*
X008154Y046420D03*
X008154Y046387D03*
X008187Y046354D03*
X008187Y046320D03*
X008220Y046287D03*
X008220Y046254D03*
X008253Y046188D03*
X008287Y046121D03*
X008320Y046055D03*
X008353Y045988D03*
X008386Y045922D03*
X008419Y045855D03*
X008419Y045822D03*
X008453Y045789D03*
X008453Y045756D03*
X008486Y045722D03*
X008486Y045689D03*
X008519Y045623D03*
X008552Y045556D03*
X008586Y045490D03*
X008619Y045423D03*
X008652Y045357D03*
X008685Y045290D03*
X008719Y045224D03*
X008719Y045191D03*
X008752Y045157D03*
X008752Y045124D03*
X008785Y045091D03*
X008785Y045058D03*
X008818Y044991D03*
X008851Y044925D03*
X008885Y044858D03*
X008918Y044792D03*
X008951Y044726D03*
X008984Y044659D03*
X008984Y044626D03*
X009018Y044593D03*
X009018Y044559D03*
X009051Y044526D03*
X009084Y044460D03*
X021379Y044426D03*
X021445Y044526D03*
X021445Y044559D03*
X021478Y044593D03*
X021478Y044626D03*
X021511Y044659D03*
X021511Y044692D03*
X021545Y044726D03*
X021545Y044759D03*
X021578Y044825D03*
X021611Y044892D03*
X021644Y044958D03*
X021678Y045025D03*
X021711Y045091D03*
X021744Y045157D03*
X021744Y045191D03*
X021777Y045224D03*
X021777Y045257D03*
X021810Y045290D03*
X021810Y045324D03*
X021844Y045390D03*
X021877Y045457D03*
X021910Y045523D03*
X021943Y045589D03*
X021977Y045656D03*
X022010Y045722D03*
X022010Y045756D03*
X022043Y045789D03*
X022043Y045822D03*
X022076Y045855D03*
X022076Y045889D03*
X022110Y045922D03*
X022110Y045955D03*
X022143Y046021D03*
X022176Y046088D03*
X022209Y046154D03*
X022242Y046221D03*
X022276Y046287D03*
X022309Y046354D03*
X022309Y046387D03*
X022342Y046420D03*
X022342Y046453D03*
X022375Y046487D03*
X022375Y046520D03*
X022409Y046586D03*
X022442Y046653D03*
X022475Y046719D03*
X022508Y046786D03*
X022541Y046852D03*
X022575Y046919D03*
X022575Y046952D03*
X022608Y046985D03*
X022608Y047018D03*
X022641Y047051D03*
X022641Y047085D03*
X022674Y047151D03*
X022708Y047218D03*
X022741Y047284D03*
X022774Y047351D03*
X022807Y047417D03*
X022841Y047483D03*
X022841Y047517D03*
X022874Y047550D03*
X022874Y047583D03*
X022907Y047616D03*
X022907Y047650D03*
X022940Y047683D03*
X022940Y047716D03*
X022973Y047783D03*
X023007Y047849D03*
X023040Y047915D03*
X023073Y047982D03*
X023106Y048048D03*
X023140Y048115D03*
X029287Y047949D03*
X029320Y047882D03*
X029353Y047816D03*
X029387Y047749D03*
X029420Y047683D03*
X029420Y047650D03*
X029453Y047616D03*
X029453Y047583D03*
X029453Y047550D03*
X029486Y047517D03*
X029486Y047483D03*
X029486Y047450D03*
X029519Y047417D03*
X029519Y047384D03*
X029519Y047351D03*
X029519Y047317D03*
X029553Y047251D03*
X029553Y047218D03*
X029553Y047184D03*
X029553Y047151D03*
X029553Y047118D03*
X029553Y031800D03*
X029553Y031766D03*
X029553Y031733D03*
X029553Y031700D03*
X029553Y031667D03*
X029553Y031634D03*
X029553Y031600D03*
X029519Y031467D03*
X029519Y031434D03*
X029519Y031401D03*
X029519Y031368D03*
X029486Y031301D03*
X029486Y031268D03*
X029486Y031235D03*
X029486Y031202D03*
X029453Y031135D03*
X029453Y031102D03*
X029453Y031069D03*
X029420Y031002D03*
X029420Y030969D03*
X029420Y030936D03*
X029387Y030903D03*
X029387Y030869D03*
X029387Y030836D03*
X029353Y030803D03*
X029353Y030770D03*
X029353Y030736D03*
X029320Y030703D03*
X029320Y030670D03*
X029320Y030637D03*
X029287Y030603D03*
X029287Y030570D03*
X029254Y030504D03*
X029220Y030437D03*
X029220Y030404D03*
X029187Y030371D03*
X029187Y030338D03*
X029154Y030304D03*
X029154Y030271D03*
X029121Y030205D03*
X029087Y030138D03*
X029054Y030105D03*
X029054Y030072D03*
X029021Y030039D03*
X029021Y030005D03*
X028988Y029972D03*
X028988Y029939D03*
X028955Y029906D03*
X028955Y029872D03*
X028921Y029839D03*
X028921Y029806D03*
X028888Y029773D03*
X028888Y029740D03*
X028855Y029706D03*
X028855Y029673D03*
X028822Y029640D03*
X028822Y029607D03*
X028788Y029573D03*
X028788Y029540D03*
X028755Y029507D03*
X028755Y029474D03*
X028722Y029440D03*
X028722Y029407D03*
X028689Y029374D03*
X028689Y029341D03*
X028656Y029308D03*
X028656Y029274D03*
X028622Y029241D03*
X028622Y029208D03*
X028589Y029175D03*
X028556Y029108D03*
X028523Y029042D03*
X028489Y028975D03*
X028456Y028909D03*
X028423Y028842D03*
X028390Y028776D03*
X028356Y028709D03*
X028323Y028643D03*
X028290Y028577D03*
X028257Y028510D03*
X028224Y028444D03*
X028190Y028377D03*
X028157Y028311D03*
X028124Y028244D03*
X028091Y028178D03*
X028057Y028111D03*
X028024Y028045D03*
X027991Y027978D03*
X027958Y027912D03*
X027924Y027846D03*
X027891Y027779D03*
X027858Y027713D03*
X027825Y027646D03*
X027792Y027580D03*
X027758Y027513D03*
X027725Y027447D03*
X027692Y027380D03*
X027659Y027314D03*
X027625Y027247D03*
X027592Y027181D03*
X027559Y027114D03*
X027559Y027081D03*
X027526Y027048D03*
X027526Y027015D03*
X027493Y026948D03*
X027493Y026915D03*
X027459Y026882D03*
X027459Y026849D03*
X027426Y026782D03*
X027426Y026749D03*
X027393Y026716D03*
X027393Y026683D03*
X027393Y026649D03*
X027393Y026616D03*
X027360Y026583D03*
X027360Y026550D03*
X027360Y026516D03*
X027326Y026483D03*
X027326Y026450D03*
X027326Y026417D03*
X027326Y026383D03*
X027293Y026317D03*
X027293Y026284D03*
X027293Y026251D03*
X027293Y026217D03*
X027260Y026151D03*
X027260Y026118D03*
X027260Y026084D03*
X027260Y026051D03*
X027260Y026018D03*
X027227Y025918D03*
X027227Y025885D03*
X027227Y025852D03*
X027227Y025819D03*
X027227Y025785D03*
X027227Y025752D03*
X027227Y025719D03*
X027227Y025686D03*
X027193Y004320D03*
X027193Y004287D03*
X027193Y004253D03*
X027193Y004220D03*
X027193Y004187D03*
X027160Y004120D03*
X027160Y004087D03*
X027160Y004054D03*
X027160Y004021D03*
X027127Y003988D03*
X027127Y003954D03*
X027127Y003921D03*
X027127Y003888D03*
X027094Y003855D03*
X027094Y003821D03*
X027094Y003788D03*
X027061Y003755D03*
X027061Y003722D03*
X027027Y003655D03*
X026994Y003589D03*
X026961Y003522D03*
X026928Y003456D03*
X026894Y003389D03*
X003601Y003356D03*
X003568Y003423D03*
X003535Y003489D03*
X003502Y003556D03*
X003468Y003622D03*
X003435Y003689D03*
X003435Y003722D03*
X003402Y003755D03*
X003402Y003788D03*
X003402Y003821D03*
D25*
X003319Y004087D03*
X003286Y004253D03*
X003286Y004287D03*
X003286Y004320D03*
X003252Y025752D03*
X003252Y025785D03*
X003252Y025819D03*
X003252Y025852D03*
X003252Y025885D03*
X003219Y026084D03*
X003219Y026118D03*
X003186Y026284D03*
X001026Y031102D03*
X000993Y031235D03*
X000993Y031268D03*
X000960Y031434D03*
X000960Y031467D03*
X000926Y031667D03*
X000926Y031700D03*
X000926Y031733D03*
X000926Y031766D03*
X000926Y031800D03*
X000926Y047118D03*
X000926Y047151D03*
X000926Y047184D03*
X000960Y047351D03*
X027310Y026350D03*
X027277Y026184D03*
X027243Y025985D03*
X027243Y025951D03*
X027210Y025652D03*
X027210Y025619D03*
X027210Y025586D03*
X027210Y025553D03*
X027210Y025520D03*
X027210Y025486D03*
X027210Y025453D03*
X027210Y025420D03*
X027210Y025387D03*
X027210Y025353D03*
X027210Y025320D03*
X027210Y025287D03*
X027210Y025254D03*
X027210Y025220D03*
X027210Y025187D03*
X027210Y025154D03*
X027210Y025121D03*
X027210Y025088D03*
X027210Y025054D03*
X027210Y025021D03*
X027210Y024988D03*
X027210Y024955D03*
X027210Y024921D03*
X027210Y024888D03*
X027210Y024855D03*
X027210Y024822D03*
X027210Y024789D03*
X027210Y024755D03*
X027210Y024722D03*
X027210Y024689D03*
X027210Y024656D03*
X027210Y024622D03*
X027210Y024589D03*
X027210Y024556D03*
X027210Y024523D03*
X027210Y024489D03*
X027210Y024456D03*
X027210Y024423D03*
X027210Y024390D03*
X027210Y024357D03*
X027210Y024323D03*
X027210Y024290D03*
X027210Y024257D03*
X027210Y024224D03*
X027210Y024190D03*
X027210Y024157D03*
X027210Y024124D03*
X027210Y024091D03*
X027210Y024057D03*
X027210Y024024D03*
X027210Y023991D03*
X027210Y023958D03*
X027210Y023925D03*
X027210Y023891D03*
X027210Y023858D03*
X027210Y023825D03*
X027210Y023792D03*
X027210Y023758D03*
X027210Y023725D03*
X027210Y023692D03*
X027210Y023659D03*
X027210Y023626D03*
X027210Y023592D03*
X027210Y023559D03*
X027210Y023526D03*
X027210Y023493D03*
X027210Y023459D03*
X027210Y023426D03*
X027210Y023393D03*
X027210Y023360D03*
X027210Y023326D03*
X027210Y023293D03*
X027210Y023260D03*
X027210Y023227D03*
X027210Y023194D03*
X027210Y023160D03*
X027210Y023127D03*
X027210Y023094D03*
X027210Y023061D03*
X027210Y023027D03*
X027210Y022994D03*
X027210Y022961D03*
X027210Y022928D03*
X027210Y022894D03*
X027210Y022861D03*
X027210Y022828D03*
X027210Y022795D03*
X027210Y022762D03*
X027210Y022728D03*
X027210Y022695D03*
X027210Y022662D03*
X027210Y022629D03*
X027210Y022595D03*
X027210Y022562D03*
X027210Y022529D03*
X027210Y022496D03*
X027210Y022463D03*
X027210Y022429D03*
X027210Y022396D03*
X027210Y022363D03*
X027210Y022330D03*
X027210Y022296D03*
X027210Y022263D03*
X027210Y022230D03*
X027210Y022197D03*
X027210Y022163D03*
X027210Y022130D03*
X027210Y022097D03*
X027210Y022064D03*
X027210Y022031D03*
X027210Y021997D03*
X027210Y021964D03*
X027210Y021931D03*
X027210Y021898D03*
X027210Y021864D03*
X027210Y021831D03*
X027210Y021798D03*
X027210Y021765D03*
X027210Y021731D03*
X027210Y021698D03*
X027210Y021665D03*
X027210Y021632D03*
X027210Y021599D03*
X027210Y021565D03*
X027210Y021532D03*
X027210Y021499D03*
X027210Y021466D03*
X027210Y021432D03*
X027210Y021399D03*
X027210Y021366D03*
X027210Y021333D03*
X027210Y021300D03*
X027210Y021266D03*
X027210Y021233D03*
X027210Y021200D03*
X027210Y021167D03*
X027210Y021133D03*
X027210Y021100D03*
X027210Y021067D03*
X027210Y021034D03*
X027210Y021000D03*
X027210Y020967D03*
X027210Y020934D03*
X027210Y020901D03*
X027210Y020868D03*
X027210Y020834D03*
X027210Y020801D03*
X027210Y020768D03*
X027210Y020735D03*
X027210Y020701D03*
X027210Y020668D03*
X027210Y020635D03*
X027210Y020602D03*
X027210Y020569D03*
X027210Y020535D03*
X027210Y020502D03*
X027210Y020469D03*
X027210Y020436D03*
X027210Y020402D03*
X027210Y020369D03*
X027210Y020336D03*
X027210Y020303D03*
X027210Y020269D03*
X027210Y020236D03*
X027210Y020203D03*
X027210Y020170D03*
X027210Y020137D03*
X027210Y020103D03*
X027210Y020070D03*
X027210Y020037D03*
X027210Y020004D03*
X027210Y019970D03*
X027210Y019937D03*
X027210Y019904D03*
X027210Y019871D03*
X027210Y019837D03*
X027210Y019804D03*
X027210Y019771D03*
X027210Y019738D03*
X027210Y019705D03*
X027210Y019671D03*
X027210Y019638D03*
X027210Y019605D03*
X027210Y019572D03*
X027210Y019538D03*
X027210Y019505D03*
X027210Y019472D03*
X027210Y019439D03*
X027210Y019406D03*
X027210Y019372D03*
X027210Y019339D03*
X027210Y019306D03*
X027210Y019273D03*
X027210Y019239D03*
X027210Y019206D03*
X027210Y019173D03*
X027210Y019140D03*
X027210Y019106D03*
X027210Y019073D03*
X027210Y019040D03*
X027210Y019007D03*
X027210Y018974D03*
X027210Y018940D03*
X027210Y018907D03*
X027210Y018874D03*
X027210Y018841D03*
X027210Y018807D03*
X027210Y018774D03*
X027210Y018741D03*
X027210Y018708D03*
X027210Y018674D03*
X027210Y018641D03*
X027210Y018608D03*
X027210Y018575D03*
X027210Y018542D03*
X027210Y018508D03*
X027210Y018475D03*
X027210Y018442D03*
X027210Y018409D03*
X027210Y018375D03*
X027210Y018342D03*
X027210Y018309D03*
X027210Y018276D03*
X027210Y018243D03*
X027210Y018209D03*
X027210Y018176D03*
X027210Y018143D03*
X027210Y018110D03*
X027210Y018076D03*
X027210Y018043D03*
X027210Y018010D03*
X027210Y017977D03*
X027210Y017943D03*
X027210Y017910D03*
X027210Y017877D03*
X027210Y017844D03*
X027210Y017811D03*
X027210Y017777D03*
X027210Y017744D03*
X027210Y017711D03*
X027210Y017678D03*
X027210Y017644D03*
X027210Y017611D03*
X027210Y017578D03*
X027210Y017545D03*
X027210Y017511D03*
X027210Y017478D03*
X027210Y017445D03*
X027210Y017412D03*
X027210Y017379D03*
X027210Y017345D03*
X027210Y017312D03*
X027210Y017279D03*
X027210Y017246D03*
X027210Y017212D03*
X027210Y017179D03*
X027210Y017146D03*
X027210Y017113D03*
X027210Y017080D03*
X027210Y017046D03*
X027210Y017013D03*
X027210Y016980D03*
X027210Y016947D03*
X027210Y016913D03*
X027210Y016880D03*
X027210Y016847D03*
X027210Y016814D03*
X027210Y016780D03*
X027210Y016747D03*
X027210Y016714D03*
X027210Y016681D03*
X027210Y016648D03*
X027210Y016614D03*
X027210Y016581D03*
X027210Y016548D03*
X027210Y016515D03*
X027210Y016481D03*
X027210Y016448D03*
X027210Y016415D03*
X027210Y016382D03*
X027210Y016349D03*
X027210Y016315D03*
X027210Y016282D03*
X027210Y016249D03*
X027210Y016216D03*
X027210Y016182D03*
X027210Y016149D03*
X027210Y016116D03*
X027210Y016083D03*
X027210Y016049D03*
X027210Y016016D03*
X027210Y015983D03*
X027210Y015950D03*
X027210Y015917D03*
X027210Y015883D03*
X027210Y015850D03*
X027210Y015817D03*
X027210Y015784D03*
X027210Y015750D03*
X027210Y015717D03*
X027210Y015684D03*
X027210Y015651D03*
X027210Y015617D03*
X027210Y015584D03*
X027210Y015551D03*
X027210Y015518D03*
X027210Y015485D03*
X027210Y015451D03*
X027210Y015418D03*
X027210Y015385D03*
X027210Y015352D03*
X027210Y015318D03*
X027210Y015285D03*
X027210Y015252D03*
X027210Y015219D03*
X027210Y015186D03*
X027210Y015152D03*
X027210Y015119D03*
X027210Y015086D03*
X027210Y015053D03*
X027210Y015019D03*
X027210Y014986D03*
X027210Y014953D03*
X027210Y014920D03*
X027210Y014886D03*
X027210Y014853D03*
X027210Y014820D03*
X027210Y014787D03*
X027210Y014754D03*
X027210Y014720D03*
X027210Y014687D03*
X027210Y014654D03*
X027210Y014621D03*
X027210Y014587D03*
X027210Y014554D03*
X027210Y014521D03*
X027210Y014488D03*
X027210Y014454D03*
X027210Y014421D03*
X027210Y014388D03*
X027210Y014355D03*
X027210Y014322D03*
X027210Y014288D03*
X027210Y014255D03*
X027210Y014222D03*
X027210Y014189D03*
X027210Y014155D03*
X027210Y014122D03*
X027210Y014089D03*
X027210Y014056D03*
X027210Y014023D03*
X027210Y013989D03*
X027210Y013956D03*
X027210Y013923D03*
X027210Y013890D03*
X027210Y013856D03*
X027210Y013823D03*
X027210Y013790D03*
X027210Y013757D03*
X027210Y013723D03*
X027210Y013690D03*
X027210Y013657D03*
X027210Y013624D03*
X027210Y013591D03*
X027210Y013557D03*
X027210Y013524D03*
X027210Y013491D03*
X027210Y013458D03*
X027210Y013424D03*
X027210Y013391D03*
X027210Y013358D03*
X027210Y013325D03*
X027210Y013291D03*
X027210Y013258D03*
X027210Y013225D03*
X027210Y013192D03*
X027210Y013159D03*
X027210Y013125D03*
X027210Y013092D03*
X027210Y013059D03*
X027210Y013026D03*
X027210Y012992D03*
X027210Y012959D03*
X027210Y012926D03*
X027210Y012893D03*
X027210Y012860D03*
X027210Y012826D03*
X027210Y012793D03*
X027210Y012760D03*
X027210Y012727D03*
X027210Y012693D03*
X027210Y012660D03*
X027210Y012627D03*
X027210Y012594D03*
X027210Y012560D03*
X027210Y012527D03*
X027210Y012494D03*
X027210Y012461D03*
X027210Y012428D03*
X027210Y012394D03*
X027210Y012361D03*
X027210Y012328D03*
X027210Y012295D03*
X027210Y012261D03*
X027210Y012228D03*
X027210Y012195D03*
X027210Y012162D03*
X027210Y012129D03*
X027210Y012095D03*
X027210Y012062D03*
X027210Y012029D03*
X027210Y011996D03*
X027210Y011962D03*
X027210Y011929D03*
X027210Y011896D03*
X027210Y011863D03*
X027210Y011829D03*
X027210Y011796D03*
X027210Y011763D03*
X027210Y011730D03*
X027210Y011697D03*
X027210Y011663D03*
X027210Y011630D03*
X027210Y011597D03*
X027210Y011564D03*
X027210Y011530D03*
X027210Y011497D03*
X027210Y011464D03*
X027210Y011431D03*
X027210Y011397D03*
X027210Y011364D03*
X027210Y011331D03*
X027210Y011298D03*
X027210Y011265D03*
X027210Y011231D03*
X027210Y011198D03*
X027210Y011165D03*
X027210Y011132D03*
X027210Y011098D03*
X027210Y011065D03*
X027210Y011032D03*
X027210Y010999D03*
X027210Y010966D03*
X027210Y010932D03*
X027210Y010899D03*
X027210Y010866D03*
X027210Y010833D03*
X027210Y010799D03*
X027210Y010766D03*
X027210Y010733D03*
X027210Y010700D03*
X027210Y010666D03*
X027210Y010633D03*
X027210Y010600D03*
X027210Y010567D03*
X027210Y010534D03*
X027210Y010500D03*
X027210Y010467D03*
X027210Y010434D03*
X027210Y010401D03*
X027210Y010367D03*
X027210Y010334D03*
X027210Y010301D03*
X027210Y010268D03*
X027210Y010234D03*
X027210Y010201D03*
X027210Y010168D03*
X027210Y010135D03*
X027210Y010102D03*
X027210Y010068D03*
X027210Y010035D03*
X027210Y010002D03*
X027210Y009969D03*
X027210Y009935D03*
X027210Y009902D03*
X027210Y009869D03*
X027210Y009836D03*
X027210Y009803D03*
X027210Y009769D03*
X027210Y009736D03*
X027210Y009703D03*
X027210Y009670D03*
X027210Y009636D03*
X027210Y009603D03*
X027210Y009570D03*
X027210Y009537D03*
X027210Y009503D03*
X027210Y009470D03*
X027210Y009437D03*
X027210Y009404D03*
X027210Y009371D03*
X027210Y009337D03*
X027210Y009304D03*
X027210Y009271D03*
X027210Y009238D03*
X027210Y009204D03*
X027210Y009171D03*
X027210Y009138D03*
X027210Y009105D03*
X027210Y009071D03*
X027210Y009038D03*
X027210Y009005D03*
X027210Y008972D03*
X027210Y008939D03*
X027210Y008905D03*
X027210Y008872D03*
X027210Y008839D03*
X027210Y008806D03*
X027210Y008772D03*
X027210Y008739D03*
X027210Y008706D03*
X027210Y008673D03*
X027210Y008640D03*
X027210Y008606D03*
X027210Y008573D03*
X027210Y008540D03*
X027210Y008507D03*
X027210Y008473D03*
X027210Y008440D03*
X027210Y008407D03*
X027210Y008374D03*
X027210Y008340D03*
X027210Y008307D03*
X027210Y008274D03*
X027210Y008241D03*
X027210Y008208D03*
X027210Y008174D03*
X027210Y008141D03*
X027210Y008108D03*
X027210Y008075D03*
X027210Y008041D03*
X027210Y008008D03*
X027210Y007975D03*
X027210Y007942D03*
X027210Y007909D03*
X027210Y007875D03*
X027210Y007842D03*
X027210Y007809D03*
X027210Y007776D03*
X027210Y007742D03*
X027210Y007709D03*
X027210Y007676D03*
X027210Y007643D03*
X027210Y007609D03*
X027210Y007576D03*
X027210Y007543D03*
X027210Y007510D03*
X027210Y007477D03*
X027210Y007443D03*
X027210Y007410D03*
X027210Y007377D03*
X027210Y007344D03*
X027210Y007310D03*
X027210Y007277D03*
X027210Y007244D03*
X027210Y007211D03*
X027210Y007177D03*
X027210Y007144D03*
X027210Y007111D03*
X027210Y007078D03*
X027210Y007045D03*
X027210Y007011D03*
X027210Y006978D03*
X027210Y006945D03*
X027210Y006912D03*
X027210Y006878D03*
X027210Y006845D03*
X027210Y006812D03*
X027210Y006779D03*
X027210Y006746D03*
X027210Y006712D03*
X027210Y006679D03*
X027210Y006646D03*
X027210Y006613D03*
X027210Y006579D03*
X027210Y006546D03*
X027210Y006513D03*
X027210Y006480D03*
X027210Y006446D03*
X027210Y006413D03*
X027210Y006380D03*
X027210Y006347D03*
X027210Y006314D03*
X027210Y006280D03*
X027210Y006247D03*
X027210Y006214D03*
X027210Y006181D03*
X027210Y006147D03*
X027210Y006114D03*
X027210Y006081D03*
X027210Y006048D03*
X027210Y006014D03*
X027210Y005981D03*
X027210Y005948D03*
X027210Y005915D03*
X027210Y005882D03*
X027210Y005848D03*
X027210Y005815D03*
X027210Y005782D03*
X027210Y005749D03*
X027210Y005715D03*
X027210Y005682D03*
X027210Y005649D03*
X027210Y005616D03*
X027210Y005583D03*
X027210Y005549D03*
X027210Y005516D03*
X027210Y005483D03*
X027210Y005450D03*
X027210Y005416D03*
X027210Y005383D03*
X027210Y005350D03*
X027210Y005317D03*
X027210Y005283D03*
X027210Y005250D03*
X027210Y005217D03*
X027210Y005184D03*
X027210Y005151D03*
X027210Y005117D03*
X027210Y005084D03*
X027210Y005051D03*
X027210Y005018D03*
X027210Y004984D03*
X027210Y004951D03*
X027210Y004918D03*
X027210Y004885D03*
X027210Y004851D03*
X027210Y004818D03*
X027210Y004785D03*
X027210Y004752D03*
X027210Y004719D03*
X027210Y004685D03*
X027210Y004652D03*
X027210Y004619D03*
X027210Y004586D03*
X027210Y004552D03*
X027210Y004519D03*
X027210Y004486D03*
X027210Y004453D03*
X027210Y004420D03*
X027210Y004386D03*
X027210Y004353D03*
X027177Y004154D03*
X029436Y031035D03*
X029470Y031168D03*
X029503Y031334D03*
X029536Y031501D03*
X029536Y031534D03*
X029536Y031567D03*
X029569Y031833D03*
X029569Y031866D03*
X029569Y031899D03*
X029569Y031933D03*
X029569Y031966D03*
X029569Y031999D03*
X029569Y032032D03*
X029569Y032066D03*
X029569Y032099D03*
X029569Y032132D03*
X029569Y032165D03*
X029569Y032198D03*
X029569Y032232D03*
X029569Y032265D03*
X029569Y032298D03*
X029569Y032331D03*
X029569Y032365D03*
X029569Y032398D03*
X029569Y032431D03*
X029569Y032464D03*
X029569Y032497D03*
X029569Y032531D03*
X029569Y032564D03*
X029569Y032597D03*
X029569Y032630D03*
X029569Y032664D03*
X029569Y032697D03*
X029569Y032730D03*
X029569Y032763D03*
X029569Y032797D03*
X029569Y032830D03*
X029569Y032863D03*
X029569Y032896D03*
X029569Y032929D03*
X029569Y032963D03*
X029569Y032996D03*
X029569Y033029D03*
X029569Y033062D03*
X029569Y033096D03*
X029569Y033129D03*
X029569Y033162D03*
X029569Y033195D03*
X029569Y033229D03*
X029569Y033262D03*
X029569Y033295D03*
X029569Y033328D03*
X029569Y033361D03*
X029569Y033395D03*
X029569Y033428D03*
X029569Y033461D03*
X029569Y033494D03*
X029569Y033528D03*
X029569Y033561D03*
X029569Y033594D03*
X029569Y033627D03*
X029569Y033660D03*
X029569Y033694D03*
X029569Y033727D03*
X029569Y033760D03*
X029569Y033793D03*
X029569Y033827D03*
X029569Y033860D03*
X029569Y033893D03*
X029569Y033926D03*
X029569Y033960D03*
X029569Y033993D03*
X029569Y034026D03*
X029569Y034059D03*
X029569Y034092D03*
X029569Y034126D03*
X029569Y034159D03*
X029569Y034192D03*
X029569Y034225D03*
X029569Y034259D03*
X029569Y034292D03*
X029569Y034325D03*
X029569Y034358D03*
X029569Y034391D03*
X029569Y034425D03*
X029569Y034458D03*
X029569Y034491D03*
X029569Y034524D03*
X029569Y034558D03*
X029569Y034591D03*
X029569Y034624D03*
X029569Y034657D03*
X029569Y034691D03*
X029569Y034724D03*
X029569Y034757D03*
X029569Y034790D03*
X029569Y034823D03*
X029569Y034857D03*
X029569Y034890D03*
X029569Y034923D03*
X029569Y034956D03*
X029569Y034990D03*
X029569Y035023D03*
X029569Y035056D03*
X029569Y035089D03*
X029569Y035123D03*
X029569Y035156D03*
X029569Y035189D03*
X029569Y035222D03*
X029569Y035255D03*
X029569Y035289D03*
X029569Y035322D03*
X029569Y035355D03*
X029569Y035388D03*
X029569Y035422D03*
X029569Y035455D03*
X029569Y035488D03*
X029569Y035521D03*
X029569Y035554D03*
X029569Y035588D03*
X029569Y035621D03*
X029569Y035654D03*
X029569Y035687D03*
X029569Y035721D03*
X029569Y035754D03*
X029569Y035787D03*
X029569Y035820D03*
X029569Y035854D03*
X029569Y035887D03*
X029569Y035920D03*
X029569Y035953D03*
X029569Y035986D03*
X029569Y036020D03*
X029569Y036053D03*
X029569Y036086D03*
X029569Y036119D03*
X029569Y036153D03*
X029569Y036186D03*
X029569Y036219D03*
X029569Y036252D03*
X029569Y036286D03*
X029569Y036319D03*
X029569Y036352D03*
X029569Y036385D03*
X029569Y036418D03*
X029569Y036452D03*
X029569Y036485D03*
X029569Y036518D03*
X029569Y036551D03*
X029569Y036585D03*
X029569Y036618D03*
X029569Y036651D03*
X029569Y036684D03*
X029569Y036717D03*
X029569Y036751D03*
X029569Y036784D03*
X029569Y036817D03*
X029569Y036850D03*
X029569Y036884D03*
X029569Y036917D03*
X029569Y036950D03*
X029569Y036983D03*
X029569Y037017D03*
X029569Y037050D03*
X029569Y037083D03*
X029569Y037116D03*
X029569Y037149D03*
X029569Y037183D03*
X029569Y037216D03*
X029569Y037249D03*
X029569Y037282D03*
X029569Y037316D03*
X029569Y037349D03*
X029569Y037382D03*
X029569Y037415D03*
X029569Y037449D03*
X029569Y037482D03*
X029569Y037515D03*
X029569Y037548D03*
X029569Y037581D03*
X029569Y037615D03*
X029569Y037648D03*
X029569Y037681D03*
X029569Y037714D03*
X029569Y037748D03*
X029569Y037781D03*
X029569Y037814D03*
X029569Y037847D03*
X029569Y037880D03*
X029569Y037914D03*
X029569Y037947D03*
X029569Y037980D03*
X029569Y038013D03*
X029569Y038047D03*
X029569Y038080D03*
X029569Y038113D03*
X029569Y038146D03*
X029569Y038180D03*
X029569Y038213D03*
X029569Y038246D03*
X029569Y038279D03*
X029569Y038312D03*
X029569Y038346D03*
X029569Y038379D03*
X029569Y038412D03*
X029569Y038445D03*
X029569Y038479D03*
X029569Y038512D03*
X029569Y038545D03*
X029569Y038578D03*
X029569Y038611D03*
X029569Y038645D03*
X029569Y038678D03*
X029569Y038711D03*
X029569Y038744D03*
X029569Y038778D03*
X029569Y038811D03*
X029569Y038844D03*
X029569Y038877D03*
X029569Y038911D03*
X029569Y038944D03*
X029569Y038977D03*
X029569Y039010D03*
X029569Y039043D03*
X029569Y039077D03*
X029569Y039110D03*
X029569Y039143D03*
X029569Y039176D03*
X029569Y039210D03*
X029569Y039243D03*
X029569Y039276D03*
X029569Y039309D03*
X029569Y039343D03*
X029569Y039376D03*
X029569Y039409D03*
X029569Y039442D03*
X029569Y039475D03*
X029569Y039509D03*
X029569Y039542D03*
X029569Y039575D03*
X029569Y039608D03*
X029569Y039642D03*
X029569Y039675D03*
X029569Y039708D03*
X029569Y039741D03*
X029569Y039774D03*
X029569Y039808D03*
X029569Y039841D03*
X029569Y039874D03*
X029569Y039907D03*
X029569Y039941D03*
X029569Y039974D03*
X029569Y040007D03*
X029569Y040040D03*
X029569Y040074D03*
X029569Y040107D03*
X029569Y040140D03*
X029569Y040173D03*
X029569Y040206D03*
X029569Y040240D03*
X029569Y040273D03*
X029569Y040306D03*
X029569Y040339D03*
X029569Y040373D03*
X029569Y040406D03*
X029569Y040439D03*
X029569Y040472D03*
X029569Y040506D03*
X029569Y040539D03*
X029569Y040572D03*
X029569Y040605D03*
X029569Y040638D03*
X029569Y040672D03*
X029569Y040705D03*
X029569Y040738D03*
X029569Y040771D03*
X029569Y040805D03*
X029569Y040838D03*
X029569Y040871D03*
X029569Y040904D03*
X029569Y040937D03*
X029569Y040971D03*
X029569Y041004D03*
X029569Y041037D03*
X029569Y041070D03*
X029569Y041104D03*
X029569Y041137D03*
X029569Y041170D03*
X029569Y041203D03*
X029569Y041237D03*
X029569Y041270D03*
X029569Y041303D03*
X029569Y041336D03*
X029569Y041369D03*
X029569Y041403D03*
X029569Y041436D03*
X029569Y041469D03*
X029569Y041502D03*
X029569Y041536D03*
X029569Y041569D03*
X029569Y041602D03*
X029569Y041635D03*
X029569Y041669D03*
X029569Y041702D03*
X029569Y041735D03*
X029569Y041768D03*
X029569Y041801D03*
X029569Y041835D03*
X029569Y041868D03*
X029569Y041901D03*
X029569Y041934D03*
X029569Y041968D03*
X029569Y042001D03*
X029569Y042034D03*
X029569Y042067D03*
X029569Y042100D03*
X029569Y042134D03*
X029569Y042167D03*
X029569Y042200D03*
X029569Y042233D03*
X029569Y042267D03*
X029569Y042300D03*
X029569Y042333D03*
X029569Y042366D03*
X029569Y042400D03*
X029569Y042433D03*
X029569Y042466D03*
X029569Y042499D03*
X029569Y042532D03*
X029569Y042566D03*
X029569Y042599D03*
X029569Y042632D03*
X029569Y042665D03*
X029569Y042699D03*
X029569Y042732D03*
X029569Y042765D03*
X029569Y042798D03*
X029569Y042831D03*
X029569Y042865D03*
X029569Y042898D03*
X029569Y042931D03*
X029569Y042964D03*
X029569Y042998D03*
X029569Y043031D03*
X029569Y043064D03*
X029569Y043097D03*
X029569Y043131D03*
X029569Y043164D03*
X029569Y043197D03*
X029569Y043230D03*
X029569Y043263D03*
X029569Y043297D03*
X029569Y043330D03*
X029569Y043363D03*
X029569Y043396D03*
X029569Y043430D03*
X029569Y043463D03*
X029569Y043496D03*
X029569Y043529D03*
X029569Y043563D03*
X029569Y043596D03*
X029569Y043629D03*
X029569Y043662D03*
X029569Y043695D03*
X029569Y043729D03*
X029569Y043762D03*
X029569Y043795D03*
X029569Y043828D03*
X029569Y043862D03*
X029569Y043895D03*
X029569Y043928D03*
X029569Y043961D03*
X029569Y043994D03*
X029569Y044028D03*
X029569Y044061D03*
X029569Y044094D03*
X029569Y044127D03*
X029569Y044161D03*
X029569Y044194D03*
X029569Y044227D03*
X029569Y044260D03*
X029569Y044294D03*
X029569Y044327D03*
X029569Y044360D03*
X029569Y044393D03*
X029569Y044426D03*
X029569Y044460D03*
X029569Y044493D03*
X029569Y044526D03*
X029569Y044559D03*
X029569Y044593D03*
X029569Y044626D03*
X029569Y044659D03*
X029569Y044692D03*
X029569Y044726D03*
X029569Y044759D03*
X029569Y044792D03*
X029569Y044825D03*
X029569Y044858D03*
X029569Y044892D03*
X029569Y044925D03*
X029569Y044958D03*
X029569Y044991D03*
X029569Y045025D03*
X029569Y045058D03*
X029569Y045091D03*
X029569Y045124D03*
X029569Y045157D03*
X029569Y045191D03*
X029569Y045224D03*
X029569Y045257D03*
X029569Y045290D03*
X029569Y045324D03*
X029569Y045357D03*
X029569Y045390D03*
X029569Y045423D03*
X029569Y045457D03*
X029569Y045490D03*
X029569Y045523D03*
X029569Y045556D03*
X029569Y045589D03*
X029569Y045623D03*
X029569Y045656D03*
X029569Y045689D03*
X029569Y045722D03*
X029569Y045756D03*
X029569Y045789D03*
X029569Y045822D03*
X029569Y045855D03*
X029569Y045889D03*
X029569Y045922D03*
X029569Y045955D03*
X029569Y045988D03*
X029569Y046021D03*
X029569Y046055D03*
X029569Y046088D03*
X029569Y046121D03*
X029569Y046154D03*
X029569Y046188D03*
X029569Y046221D03*
X029569Y046254D03*
X029569Y046287D03*
X029569Y046320D03*
X029569Y046354D03*
X029569Y046387D03*
X029569Y046420D03*
X029569Y046453D03*
X029569Y046487D03*
X029569Y046520D03*
X029569Y046553D03*
X029569Y046586D03*
X029569Y046620D03*
X029569Y046653D03*
X029569Y046686D03*
X029569Y046719D03*
X029569Y046752D03*
X029569Y046786D03*
X029569Y046819D03*
X029569Y046852D03*
X029569Y046885D03*
X029569Y046919D03*
X029569Y046952D03*
X029569Y046985D03*
X029569Y047018D03*
X029569Y047051D03*
X029569Y047085D03*
X029536Y047284D03*
D26*
X015248Y043862D03*
D27*
X015231Y043895D03*
D28*
X015231Y043928D03*
D29*
X015248Y043961D03*
D30*
X002355Y048813D03*
D31*
X028124Y048813D03*
D32*
X004482Y048846D03*
D33*
X004482Y048879D03*
X026080Y048846D03*
D34*
X026080Y048879D03*
D35*
X004515Y048912D03*
D36*
X026080Y048912D03*
D37*
X004532Y048946D03*
D38*
X026047Y048946D03*
D39*
X015241Y002160D03*
D40*
X015241Y002193D03*
D41*
X015241Y002227D03*
D42*
X015241Y002260D03*
D43*
X015241Y002293D03*
D44*
X015241Y002326D03*
D45*
X015241Y002360D03*
D46*
X015241Y002393D03*
D47*
X015241Y002426D03*
D48*
X015241Y002459D03*
D49*
X015241Y002493D03*
D50*
X015258Y002526D03*
D51*
X015241Y002559D03*
D52*
X015241Y002592D03*
D53*
X015258Y002626D03*
D54*
X015241Y002659D03*
D55*
X004568Y002692D03*
X003404Y026966D03*
X003304Y027199D03*
X003304Y027232D03*
X003271Y027298D03*
X003238Y027332D03*
X003238Y027365D03*
X003138Y027565D03*
X003105Y027631D03*
X003071Y027698D03*
X002971Y027897D03*
X002938Y027964D03*
X002905Y028030D03*
X002805Y028230D03*
X002772Y028296D03*
X002739Y028363D03*
X002639Y028562D03*
X002606Y028629D03*
X002572Y028695D03*
X002473Y028895D03*
X002439Y028961D03*
X002406Y029028D03*
X002306Y029227D03*
X002273Y029294D03*
X002240Y029360D03*
X002140Y029560D03*
X002107Y029626D03*
X002074Y029693D03*
X001974Y029859D03*
X001974Y029892D03*
X001907Y029992D03*
X001808Y030191D03*
X001741Y030324D03*
X001741Y030358D03*
X001641Y030524D03*
X001641Y030557D03*
X001608Y030624D03*
X002439Y041464D03*
X007394Y047017D03*
X007427Y046950D03*
X007427Y046917D03*
X007461Y046851D03*
X007560Y046684D03*
X007560Y046651D03*
X007594Y046618D03*
X007594Y046585D03*
X007627Y046518D03*
X007727Y046319D03*
X007727Y046285D03*
X007760Y046252D03*
X007793Y046186D03*
X007793Y046152D03*
X007893Y045986D03*
X007893Y045953D03*
X007959Y045820D03*
X008059Y045620D03*
X008059Y045587D03*
X008092Y045521D03*
X008126Y045487D03*
X008126Y045454D03*
X008225Y045255D03*
X008259Y045188D03*
X008259Y045155D03*
X008292Y045122D03*
X008292Y045088D03*
X008392Y044922D03*
X008425Y044856D03*
X008425Y044822D03*
X008458Y044789D03*
X008458Y044756D03*
X008558Y044523D03*
X008591Y044490D03*
X008591Y044457D03*
X008624Y044423D03*
X007294Y047250D03*
X007261Y047283D03*
X007261Y047316D03*
X007228Y047349D03*
X007128Y047582D03*
X007095Y047649D03*
X021759Y044190D03*
X021859Y044357D03*
X021892Y044423D03*
X021892Y044457D03*
X021925Y044523D03*
X022025Y044756D03*
X022058Y044789D03*
X022058Y044822D03*
X022091Y044856D03*
X022191Y045088D03*
X022224Y045155D03*
X022258Y045255D03*
X022357Y045421D03*
X022357Y045454D03*
X022391Y045487D03*
X022391Y045521D03*
X022424Y045587D03*
X022524Y045787D03*
X022524Y045820D03*
X022557Y045853D03*
X022590Y045920D03*
X022590Y045953D03*
X022690Y046119D03*
X022690Y046152D03*
X022723Y046186D03*
X022756Y046252D03*
X022756Y046285D03*
X022856Y046485D03*
X022856Y046518D03*
X022889Y046585D03*
X022923Y046618D03*
X022923Y046651D03*
X023022Y046817D03*
X023022Y046851D03*
X023056Y046917D03*
X023089Y046984D03*
X023089Y047017D03*
X023189Y047183D03*
X023222Y047250D03*
X023222Y047283D03*
X023255Y047316D03*
X023255Y047349D03*
X023388Y047615D03*
X023388Y047649D03*
X023421Y047682D03*
X028077Y041464D03*
X026514Y031854D03*
X028343Y029526D03*
X028409Y029659D03*
X028509Y029859D03*
X028576Y029992D03*
X028675Y030191D03*
X028742Y030324D03*
X028842Y030524D03*
X028842Y030557D03*
X028875Y030624D03*
X028908Y030690D03*
X028243Y029327D03*
X028176Y029194D03*
X028077Y028994D03*
X028010Y028861D03*
X027910Y028662D03*
X027844Y028529D03*
X027744Y028329D03*
X027678Y028196D03*
X027578Y027997D03*
X027511Y027864D03*
X027412Y027664D03*
X027345Y027531D03*
X027245Y027332D03*
X027245Y027298D03*
X027212Y027232D03*
X027179Y027199D03*
X027179Y027165D03*
X025915Y002692D03*
D56*
X015258Y002692D03*
D57*
X004484Y002725D03*
X003686Y004421D03*
X003686Y004454D03*
X003686Y004521D03*
X003686Y004554D03*
X003686Y004587D03*
X003686Y004621D03*
X003686Y004687D03*
X003686Y004720D03*
X003686Y004754D03*
X003686Y004787D03*
X003686Y004853D03*
X003686Y004887D03*
X003686Y004920D03*
X003686Y004953D03*
X003686Y005020D03*
X003686Y005053D03*
X003686Y005086D03*
X003686Y005119D03*
X003686Y005186D03*
X003686Y005219D03*
X003686Y005252D03*
X003686Y005286D03*
X003686Y005352D03*
X003686Y005385D03*
X003686Y005419D03*
X003686Y005452D03*
X003686Y005518D03*
X003686Y005552D03*
X003686Y005585D03*
X003686Y005618D03*
X003686Y005685D03*
X003686Y005718D03*
X003686Y005751D03*
X003686Y005784D03*
X003686Y005851D03*
X003686Y005884D03*
X003686Y005917D03*
X003686Y005951D03*
X003686Y006017D03*
X003686Y006050D03*
X003686Y006084D03*
X003686Y006117D03*
X003686Y006183D03*
X003686Y006217D03*
X003686Y006250D03*
X003686Y006283D03*
X003686Y006350D03*
X003686Y006383D03*
X003686Y006416D03*
X003686Y006450D03*
X003686Y006516D03*
X003686Y006549D03*
X003686Y006583D03*
X003686Y006616D03*
X003686Y006682D03*
X003686Y006716D03*
X003686Y006749D03*
X003686Y006782D03*
X003686Y006849D03*
X003686Y006882D03*
X003686Y006915D03*
X003686Y006948D03*
X003686Y007015D03*
X003686Y007048D03*
X003686Y007081D03*
X003686Y007115D03*
X003686Y007181D03*
X003686Y007214D03*
X003686Y007248D03*
X003686Y007281D03*
X003686Y007347D03*
X003686Y007381D03*
X003686Y007414D03*
X003686Y007447D03*
X003686Y007514D03*
X003686Y007547D03*
X003686Y007580D03*
X003686Y007613D03*
X003686Y007680D03*
X003686Y007713D03*
X003686Y007746D03*
X003686Y007780D03*
X003686Y007846D03*
X003686Y007879D03*
X003686Y007913D03*
X003686Y007946D03*
X003686Y008012D03*
X003686Y008046D03*
X003686Y008079D03*
X003686Y008112D03*
X003686Y008179D03*
X003686Y008212D03*
X003686Y008245D03*
X003686Y008278D03*
X003686Y008345D03*
X003686Y008378D03*
X003686Y008411D03*
X003686Y008445D03*
X003686Y008511D03*
X003686Y008544D03*
X003686Y008578D03*
X003686Y008611D03*
X003686Y008677D03*
X003686Y008711D03*
X003686Y008744D03*
X003686Y008777D03*
X003686Y008844D03*
X003686Y008877D03*
X003686Y008910D03*
X003686Y008943D03*
X003686Y009010D03*
X003686Y009043D03*
X003686Y009076D03*
X003686Y009110D03*
X003686Y009176D03*
X003686Y009209D03*
X003686Y009243D03*
X003686Y009276D03*
X003686Y009342D03*
X003686Y009376D03*
X003686Y009409D03*
X003686Y009442D03*
X003686Y009509D03*
X003686Y009542D03*
X003686Y009575D03*
X003686Y009608D03*
X003686Y009675D03*
X003686Y009708D03*
X003686Y009741D03*
X003686Y009775D03*
X003686Y009841D03*
X003686Y009874D03*
X003686Y009908D03*
X003686Y009941D03*
X003686Y010007D03*
X003686Y010041D03*
X003686Y010074D03*
X003686Y010107D03*
X003686Y010174D03*
X003686Y010207D03*
X003686Y010240D03*
X003686Y010273D03*
X003686Y010340D03*
X003686Y010373D03*
X003686Y010406D03*
X003686Y010440D03*
X003686Y010506D03*
X003686Y010539D03*
X003686Y010573D03*
X003686Y010606D03*
X003686Y010673D03*
X003686Y010706D03*
X003686Y010739D03*
X003686Y010772D03*
X003686Y010839D03*
X003686Y010872D03*
X003686Y010905D03*
X003686Y010939D03*
X003686Y011005D03*
X003686Y011038D03*
X003686Y011072D03*
X003686Y011105D03*
X003686Y011171D03*
X003686Y011205D03*
X003686Y011238D03*
X003686Y011271D03*
X003686Y011338D03*
X003686Y011371D03*
X003686Y011404D03*
X003686Y011437D03*
X003686Y011504D03*
X003686Y011537D03*
X003686Y011570D03*
X003686Y011604D03*
X003686Y011670D03*
X003686Y011703D03*
X003686Y011737D03*
X003686Y011770D03*
X003686Y011836D03*
X003686Y011870D03*
X003686Y011903D03*
X003686Y011936D03*
X003686Y012003D03*
X003686Y012036D03*
X003686Y012069D03*
X003686Y012102D03*
X003686Y012169D03*
X003686Y012202D03*
X003686Y012235D03*
X003686Y012269D03*
X003686Y012335D03*
X003686Y012368D03*
X003686Y012402D03*
X003686Y012435D03*
X003686Y012501D03*
X003686Y012535D03*
X003686Y012568D03*
X003686Y012601D03*
X003686Y012668D03*
X003686Y012701D03*
X003686Y012734D03*
X003686Y012767D03*
X003686Y012834D03*
X003686Y012867D03*
X003686Y012900D03*
X003686Y012934D03*
X003686Y013000D03*
X003686Y013033D03*
X003686Y013067D03*
X003686Y013100D03*
X003686Y013166D03*
X003686Y013200D03*
X003686Y013233D03*
X003686Y013266D03*
X003686Y013333D03*
X003686Y013366D03*
X003686Y013399D03*
X003686Y013432D03*
X003686Y013499D03*
X003686Y013532D03*
X003686Y013565D03*
X003686Y013599D03*
X003686Y013665D03*
X003686Y013698D03*
X003686Y013732D03*
X003686Y013765D03*
X003686Y013831D03*
X003686Y013865D03*
X003686Y013898D03*
X003686Y013931D03*
X003686Y013998D03*
X003686Y014031D03*
X003686Y014064D03*
X003686Y014097D03*
X003686Y014164D03*
X003686Y014197D03*
X003686Y014230D03*
X003686Y014264D03*
X003686Y014330D03*
X003686Y014363D03*
X003686Y014397D03*
X003686Y014430D03*
X003686Y014496D03*
X003686Y014530D03*
X003686Y014563D03*
X003686Y014596D03*
X003686Y014663D03*
X003686Y014696D03*
X003686Y014729D03*
X003686Y014762D03*
X003686Y014829D03*
X003686Y014862D03*
X003686Y014896D03*
X003686Y014929D03*
X003686Y014995D03*
X003686Y015029D03*
X003686Y015062D03*
X003686Y015095D03*
X003686Y015162D03*
X003686Y015195D03*
X003686Y015228D03*
X003686Y015261D03*
X003686Y015328D03*
X003686Y015361D03*
X003686Y015394D03*
X003686Y015428D03*
X003686Y015494D03*
X003686Y015527D03*
X003686Y015561D03*
X003686Y015594D03*
X003686Y015660D03*
X003686Y015694D03*
X003686Y015727D03*
X003686Y015760D03*
X003686Y015827D03*
X003686Y015860D03*
X003686Y015893D03*
X003686Y015926D03*
X003686Y015993D03*
X003686Y016026D03*
X003686Y016059D03*
X003686Y016093D03*
X003686Y016159D03*
X003686Y016192D03*
X003686Y016226D03*
X003686Y016259D03*
X003686Y016325D03*
X003686Y016359D03*
X003686Y016392D03*
X003686Y016425D03*
X003686Y016492D03*
X003686Y016525D03*
X003686Y016558D03*
X003686Y016591D03*
X003686Y016658D03*
X003686Y016691D03*
X003686Y016724D03*
X003686Y016758D03*
X003686Y016824D03*
X003686Y016857D03*
X003686Y016891D03*
X003686Y016924D03*
X003686Y016990D03*
X003686Y017024D03*
X003686Y017057D03*
X003686Y017090D03*
X003686Y017157D03*
X003686Y017190D03*
X003686Y017223D03*
X003686Y017256D03*
X003686Y017323D03*
X003686Y017356D03*
X003686Y017389D03*
X003686Y017423D03*
X003686Y017489D03*
X003686Y017522D03*
X003686Y017556D03*
X003686Y017589D03*
X003686Y017655D03*
X003686Y017689D03*
X003686Y017722D03*
X003686Y017755D03*
X003686Y017822D03*
X003686Y017855D03*
X003686Y017888D03*
X003686Y017921D03*
X003686Y017988D03*
X003686Y018021D03*
X003686Y018054D03*
X003686Y018088D03*
X003686Y018154D03*
X003686Y018187D03*
X003686Y018221D03*
X003686Y018254D03*
X003686Y018320D03*
X003686Y018354D03*
X003686Y018387D03*
X003686Y018420D03*
X003686Y018487D03*
X003686Y018520D03*
X003686Y018553D03*
X003686Y018586D03*
X003686Y018653D03*
X003686Y018686D03*
X003686Y018719D03*
X003686Y018753D03*
X003686Y018819D03*
X003686Y018852D03*
X003686Y018886D03*
X003686Y018919D03*
X003686Y018985D03*
X003686Y019019D03*
X003686Y019052D03*
X003686Y019085D03*
X003686Y019152D03*
X003686Y019185D03*
X003686Y019218D03*
X003686Y019252D03*
X003686Y019318D03*
X003686Y019351D03*
X003686Y019385D03*
X003686Y019418D03*
X003686Y019484D03*
X003686Y019518D03*
X003686Y019551D03*
X003686Y019584D03*
X003686Y019651D03*
X003686Y019684D03*
X003686Y019717D03*
X003686Y019750D03*
X003686Y019817D03*
X003686Y019850D03*
X003686Y019883D03*
X003686Y019917D03*
X003686Y019983D03*
X003686Y020016D03*
X003686Y020050D03*
X003686Y020083D03*
X003686Y020149D03*
X003686Y020183D03*
X003686Y020216D03*
X003686Y020249D03*
X003686Y020316D03*
X003686Y020349D03*
X003686Y020382D03*
X003686Y020415D03*
X003686Y020482D03*
X003686Y020515D03*
X003686Y020548D03*
X003686Y020582D03*
X003686Y020648D03*
X003686Y020681D03*
X003686Y020715D03*
X003686Y020748D03*
X003686Y020814D03*
X003686Y020848D03*
X003686Y020881D03*
X003686Y020914D03*
X003686Y020981D03*
X003686Y021014D03*
X003686Y021047D03*
X003686Y021080D03*
X003686Y021147D03*
X003686Y021180D03*
X003686Y021213D03*
X003686Y021247D03*
X003686Y021313D03*
X003686Y021346D03*
X003686Y021380D03*
X003686Y021413D03*
X003686Y021479D03*
X003686Y021513D03*
X003686Y021546D03*
X003686Y021579D03*
X003686Y021646D03*
X003686Y021679D03*
X003686Y021712D03*
X003686Y021745D03*
X003686Y021812D03*
X003686Y021845D03*
X003686Y021878D03*
X003686Y021912D03*
X003686Y021978D03*
X003686Y022011D03*
X003686Y022045D03*
X003686Y022078D03*
X003686Y022144D03*
X003686Y022178D03*
X003686Y022211D03*
X003686Y022244D03*
X003686Y022311D03*
X003686Y022344D03*
X003686Y022377D03*
X003686Y022410D03*
X003686Y022477D03*
X003686Y022510D03*
X003686Y022543D03*
X003686Y022577D03*
X003686Y022643D03*
X003686Y022676D03*
X003686Y022710D03*
X003686Y022743D03*
X003686Y022809D03*
X003686Y022843D03*
X003686Y022876D03*
X003686Y022909D03*
X003686Y022976D03*
X003686Y023009D03*
X003686Y023042D03*
X003686Y023075D03*
X003686Y023142D03*
X003686Y023175D03*
X003686Y023208D03*
X003686Y023242D03*
X003686Y023308D03*
X003686Y023342D03*
X003686Y023375D03*
X003686Y023408D03*
X003686Y023475D03*
X003686Y023508D03*
X003686Y023541D03*
X003686Y023574D03*
X003686Y023641D03*
X003686Y023674D03*
X003686Y023707D03*
X003686Y023741D03*
X003686Y023807D03*
X003686Y023840D03*
X003686Y023874D03*
X003686Y023907D03*
X003686Y023973D03*
X003686Y024007D03*
X003686Y024040D03*
X003686Y024073D03*
X003686Y024140D03*
X003686Y024173D03*
X003686Y024206D03*
X003686Y024239D03*
X003686Y024306D03*
X003686Y024339D03*
X003686Y024372D03*
X003686Y024406D03*
X003686Y024472D03*
X003686Y024505D03*
X003686Y024539D03*
X003686Y024572D03*
X003686Y024638D03*
X003686Y024672D03*
X003686Y024705D03*
X003686Y024738D03*
X003686Y024805D03*
X003686Y024838D03*
X003686Y024871D03*
X003686Y024904D03*
X003686Y024971D03*
X003686Y025004D03*
X003686Y025037D03*
X003686Y025071D03*
X003686Y025137D03*
X003686Y025170D03*
X003686Y025204D03*
X003686Y025237D03*
X003686Y025303D03*
X003686Y025337D03*
X003686Y025370D03*
X003686Y025403D03*
X003686Y025470D03*
X003686Y025503D03*
X003686Y025536D03*
X003686Y025569D03*
X003686Y025636D03*
X003686Y025669D03*
X003686Y025702D03*
X003686Y025736D03*
X003653Y025835D03*
X003653Y025869D03*
X003653Y025902D03*
X003653Y025968D03*
X003653Y026002D03*
X003620Y026135D03*
X003620Y026168D03*
X003620Y026201D03*
X003587Y026334D03*
X001392Y031322D03*
X001392Y031355D03*
X001359Y031488D03*
X001359Y031521D03*
X001359Y031555D03*
X001326Y031721D03*
X001326Y031788D03*
X001326Y031821D03*
X001326Y031854D03*
X001326Y031887D03*
X001326Y031954D03*
X001326Y031987D03*
X001326Y032020D03*
X001326Y032054D03*
X001326Y032120D03*
X001326Y032153D03*
X001326Y032187D03*
X001326Y032220D03*
X001326Y032286D03*
X001326Y032320D03*
X001326Y032353D03*
X001326Y032386D03*
X001326Y032453D03*
X001326Y032486D03*
X001326Y032519D03*
X001326Y032552D03*
X001326Y032619D03*
X001326Y032652D03*
X001326Y032685D03*
X001326Y032719D03*
X001326Y032785D03*
X001326Y032818D03*
X001326Y032852D03*
X001326Y032885D03*
X001326Y032951D03*
X001326Y032985D03*
X001326Y033018D03*
X001326Y033051D03*
X001326Y033118D03*
X001326Y033151D03*
X001326Y033184D03*
X001326Y033217D03*
X001326Y033284D03*
X001326Y033317D03*
X001326Y033350D03*
X001326Y033384D03*
X001326Y033450D03*
X001326Y033483D03*
X001326Y033517D03*
X001326Y033550D03*
X001326Y033616D03*
X001326Y033650D03*
X001326Y033683D03*
X001326Y033716D03*
X001326Y033783D03*
X001326Y033816D03*
X004052Y032685D03*
X001326Y041298D03*
X001326Y041331D03*
X001326Y041364D03*
X001326Y041431D03*
X001326Y041464D03*
X001326Y041497D03*
X001326Y041530D03*
X001326Y041597D03*
X001326Y041630D03*
X001326Y041663D03*
X001326Y041697D03*
X001326Y041763D03*
X001326Y041796D03*
X001326Y041830D03*
X001326Y041863D03*
X001326Y041929D03*
X001326Y041963D03*
X001326Y041996D03*
X001326Y042029D03*
X001326Y042096D03*
X001326Y042129D03*
X001326Y042162D03*
X001326Y042195D03*
X001326Y042262D03*
X001326Y042295D03*
X001326Y042328D03*
X001326Y042362D03*
X001326Y042428D03*
X001326Y042461D03*
X001326Y042495D03*
X001326Y042528D03*
X001326Y042594D03*
X001326Y042628D03*
X001326Y042661D03*
X001326Y042694D03*
X001326Y042761D03*
X001326Y042794D03*
X001326Y042827D03*
X001326Y042860D03*
X001326Y042927D03*
X001326Y042960D03*
X001326Y042993D03*
X001326Y043027D03*
X001326Y043093D03*
X001326Y043126D03*
X001326Y043160D03*
X001326Y043193D03*
X001326Y043259D03*
X001326Y043293D03*
X001326Y043326D03*
X001326Y043359D03*
X001326Y043426D03*
X001326Y043459D03*
X001326Y043492D03*
X001326Y043525D03*
X001326Y043592D03*
X001326Y043625D03*
X001326Y043658D03*
X001326Y043692D03*
X001326Y043758D03*
X001326Y043791D03*
X001326Y043825D03*
X001326Y043858D03*
X001326Y043924D03*
X001326Y043958D03*
X001326Y043991D03*
X001326Y044024D03*
X001326Y044091D03*
X001326Y044124D03*
X001326Y044157D03*
X001326Y044190D03*
X001326Y044257D03*
X001326Y044290D03*
X001326Y044323D03*
X001326Y044357D03*
X001326Y044423D03*
X001326Y044457D03*
X001326Y044490D03*
X001326Y044523D03*
X001326Y044590D03*
X001326Y044623D03*
X001326Y044656D03*
X001326Y044689D03*
X001326Y044756D03*
X001326Y044789D03*
X001326Y044822D03*
X001326Y044856D03*
X001326Y044922D03*
X001326Y044955D03*
X001326Y044989D03*
X001326Y045022D03*
X001326Y045088D03*
X001326Y045122D03*
X001326Y045155D03*
X001326Y045188D03*
X001326Y045255D03*
X001326Y045288D03*
X001326Y045321D03*
X001326Y045354D03*
X001326Y045421D03*
X001326Y045454D03*
X001326Y045487D03*
X001326Y045521D03*
X001326Y045587D03*
X001326Y045620D03*
X001326Y045654D03*
X001326Y045687D03*
X001326Y045753D03*
X001326Y045787D03*
X001326Y045820D03*
X001326Y045853D03*
X001326Y045920D03*
X001326Y045953D03*
X001326Y045986D03*
X001326Y046019D03*
X001326Y046086D03*
X001326Y046119D03*
X001326Y046152D03*
X001658Y048014D03*
X026464Y032685D03*
X026464Y031788D03*
X029124Y031488D03*
X029124Y031455D03*
X029157Y031621D03*
X029157Y031654D03*
X029157Y031688D03*
X029157Y031721D03*
X029157Y031788D03*
X029157Y031821D03*
X029157Y031854D03*
X029157Y031887D03*
X029157Y031954D03*
X029157Y031987D03*
X029157Y032020D03*
X029157Y032054D03*
X029157Y032120D03*
X029157Y032153D03*
X029157Y032187D03*
X029157Y032220D03*
X029157Y032286D03*
X029157Y032320D03*
X029157Y032353D03*
X029157Y032386D03*
X029157Y032453D03*
X029157Y032486D03*
X029157Y032519D03*
X029157Y032552D03*
X029157Y032619D03*
X029157Y032652D03*
X029157Y032685D03*
X029157Y032719D03*
X029157Y032785D03*
X029157Y032818D03*
X029157Y032852D03*
X029157Y032885D03*
X029157Y032951D03*
X029157Y032985D03*
X029157Y033018D03*
X029157Y033051D03*
X029157Y033118D03*
X029157Y033151D03*
X029157Y033184D03*
X029157Y033217D03*
X029157Y033284D03*
X029157Y033317D03*
X029157Y033350D03*
X029157Y033384D03*
X029157Y033450D03*
X029157Y033483D03*
X029157Y033517D03*
X029157Y033550D03*
X029157Y033616D03*
X029157Y033650D03*
X029157Y033683D03*
X029157Y033716D03*
X029157Y033783D03*
X029157Y033816D03*
X029157Y033849D03*
X029157Y033882D03*
X029157Y041331D03*
X029157Y041364D03*
X029157Y041431D03*
X029157Y041464D03*
X029157Y041497D03*
X029157Y041530D03*
X029157Y041597D03*
X029157Y041630D03*
X029157Y041663D03*
X029157Y041697D03*
X029157Y041763D03*
X029157Y041796D03*
X029157Y041830D03*
X029157Y041863D03*
X029157Y041929D03*
X029157Y041963D03*
X029157Y041996D03*
X029157Y042029D03*
X029157Y042096D03*
X029157Y042129D03*
X029157Y042162D03*
X029157Y042195D03*
X029157Y042262D03*
X029157Y042295D03*
X029157Y042328D03*
X029157Y042362D03*
X029157Y042428D03*
X029157Y042461D03*
X029157Y042495D03*
X029157Y042528D03*
X029157Y042594D03*
X029157Y042628D03*
X029157Y042661D03*
X029157Y042694D03*
X029157Y042761D03*
X029157Y042794D03*
X029157Y042827D03*
X029157Y042860D03*
X029157Y042927D03*
X029157Y042960D03*
X029157Y042993D03*
X029157Y043027D03*
X029157Y043093D03*
X029157Y043126D03*
X029157Y043160D03*
X029157Y043193D03*
X029157Y043259D03*
X029157Y043293D03*
X029157Y043326D03*
X029157Y043359D03*
X029157Y043426D03*
X029157Y043459D03*
X029157Y043492D03*
X029157Y043525D03*
X029157Y043592D03*
X029157Y043625D03*
X029157Y043658D03*
X029157Y043692D03*
X029157Y043758D03*
X029157Y043791D03*
X029157Y043825D03*
X029157Y043858D03*
X029157Y043924D03*
X029157Y043958D03*
X029157Y043991D03*
X029157Y044024D03*
X029157Y044091D03*
X029157Y044124D03*
X029157Y044157D03*
X029157Y044190D03*
X029157Y044257D03*
X029157Y044290D03*
X029157Y044323D03*
X029157Y044357D03*
X029157Y044423D03*
X029157Y044457D03*
X029157Y044490D03*
X029157Y044523D03*
X029157Y044590D03*
X029157Y044623D03*
X029157Y044656D03*
X029157Y044689D03*
X029157Y044756D03*
X029157Y044789D03*
X029157Y044822D03*
X029157Y044856D03*
X029157Y044922D03*
X029157Y044955D03*
X029157Y044989D03*
X029157Y045022D03*
X029157Y045088D03*
X029157Y045122D03*
X029157Y045155D03*
X029157Y045188D03*
X029157Y045255D03*
X029157Y045288D03*
X029157Y045321D03*
X029157Y045354D03*
X029157Y045421D03*
X029157Y045454D03*
X029157Y045487D03*
X029157Y045521D03*
X029157Y045587D03*
X029157Y045620D03*
X029157Y045654D03*
X029157Y045687D03*
X029157Y045753D03*
X029157Y045787D03*
X029157Y045820D03*
X029157Y045853D03*
X029157Y045920D03*
X029157Y045953D03*
X029157Y045986D03*
X029157Y046019D03*
X029157Y046086D03*
X029157Y046119D03*
X028027Y041530D03*
X026896Y026301D03*
X026863Y026135D03*
X026863Y026068D03*
X026863Y026035D03*
X026830Y025902D03*
X026830Y025869D03*
X026830Y025835D03*
X026830Y025802D03*
X026830Y025736D03*
X026830Y025702D03*
X026830Y025669D03*
X026830Y025636D03*
X026830Y025569D03*
X026830Y025536D03*
X026830Y025503D03*
X026830Y025470D03*
X026830Y025403D03*
X026830Y025370D03*
X026830Y025337D03*
X026830Y025303D03*
X026830Y025237D03*
X026830Y025204D03*
X026830Y025170D03*
X026830Y025137D03*
X026830Y025071D03*
X026830Y025037D03*
X026830Y025004D03*
X026830Y024971D03*
X026830Y024904D03*
X026830Y024871D03*
X026830Y024838D03*
X026830Y024805D03*
X026830Y024738D03*
X026830Y024705D03*
X026830Y024672D03*
X026830Y024638D03*
X026830Y024572D03*
X026830Y024539D03*
X026830Y024505D03*
X026830Y024472D03*
X026830Y024406D03*
X026830Y024372D03*
X026830Y024339D03*
X026830Y024306D03*
X026830Y024239D03*
X026830Y024206D03*
X026830Y024173D03*
X026830Y024140D03*
X026830Y024073D03*
X026830Y024040D03*
X026830Y024007D03*
X026830Y023973D03*
X026830Y023907D03*
X026830Y023874D03*
X026830Y023840D03*
X026830Y023807D03*
X026830Y023741D03*
X026830Y023707D03*
X026830Y023674D03*
X026830Y023641D03*
X026830Y023574D03*
X026830Y023541D03*
X026830Y023508D03*
X026830Y023475D03*
X026830Y023408D03*
X026830Y023375D03*
X026830Y023342D03*
X026830Y023308D03*
X026830Y023242D03*
X026830Y023208D03*
X026830Y023175D03*
X026830Y023142D03*
X026830Y023075D03*
X026830Y023042D03*
X026830Y023009D03*
X026830Y022976D03*
X026830Y022909D03*
X026830Y022876D03*
X026830Y022843D03*
X026830Y022809D03*
X026830Y022743D03*
X026830Y022710D03*
X026830Y022676D03*
X026830Y022643D03*
X026830Y022577D03*
X026830Y022543D03*
X026830Y022510D03*
X026830Y022477D03*
X026830Y022410D03*
X026830Y022377D03*
X026830Y022344D03*
X026830Y022311D03*
X026830Y022244D03*
X026830Y022211D03*
X026830Y022178D03*
X026830Y022144D03*
X026830Y022078D03*
X026830Y022045D03*
X026830Y022011D03*
X026830Y021978D03*
X026830Y021912D03*
X026830Y021878D03*
X026830Y021845D03*
X026830Y021812D03*
X026830Y021745D03*
X026830Y021712D03*
X026830Y021679D03*
X026830Y021646D03*
X026830Y021579D03*
X026830Y021546D03*
X026830Y021513D03*
X026830Y021479D03*
X026830Y021413D03*
X026830Y021380D03*
X026830Y021346D03*
X026830Y021313D03*
X026830Y021247D03*
X026830Y021213D03*
X026830Y021180D03*
X026830Y021147D03*
X026830Y021080D03*
X026830Y021047D03*
X026830Y021014D03*
X026830Y020981D03*
X026830Y020914D03*
X026830Y020881D03*
X026830Y020848D03*
X026830Y020814D03*
X026830Y020748D03*
X026830Y020715D03*
X026830Y020681D03*
X026830Y020648D03*
X026830Y020582D03*
X026830Y020548D03*
X026830Y020515D03*
X026830Y020482D03*
X026830Y020415D03*
X026830Y020382D03*
X026830Y020349D03*
X026830Y020316D03*
X026830Y020249D03*
X026830Y020216D03*
X026830Y020183D03*
X026830Y020149D03*
X026830Y020083D03*
X026830Y020050D03*
X026830Y020016D03*
X026830Y019983D03*
X026830Y019917D03*
X026830Y019883D03*
X026830Y019850D03*
X026830Y019817D03*
X026830Y019750D03*
X026830Y019717D03*
X026830Y019684D03*
X026830Y019651D03*
X026830Y019584D03*
X026830Y019551D03*
X026830Y019518D03*
X026830Y019484D03*
X026830Y019418D03*
X026830Y019385D03*
X026830Y019351D03*
X026830Y019318D03*
X026830Y019252D03*
X026830Y019218D03*
X026830Y019185D03*
X026830Y019152D03*
X026830Y019085D03*
X026830Y019052D03*
X026830Y019019D03*
X026830Y018985D03*
X026830Y018919D03*
X026830Y018886D03*
X026830Y018852D03*
X026830Y018819D03*
X026830Y018753D03*
X026830Y018719D03*
X026830Y018686D03*
X026830Y018653D03*
X026830Y018586D03*
X026830Y018553D03*
X026830Y018520D03*
X026830Y018487D03*
X026830Y018420D03*
X026830Y018387D03*
X026830Y018354D03*
X026830Y018320D03*
X026830Y018254D03*
X026830Y018221D03*
X026830Y018187D03*
X026830Y018154D03*
X026830Y018088D03*
X026830Y018054D03*
X026830Y018021D03*
X026830Y017988D03*
X026830Y017921D03*
X026830Y017888D03*
X026830Y017855D03*
X026830Y017822D03*
X026830Y017755D03*
X026830Y017722D03*
X026830Y017689D03*
X026830Y017655D03*
X026830Y017589D03*
X026830Y017556D03*
X026830Y017522D03*
X026830Y017489D03*
X026830Y017423D03*
X026830Y017389D03*
X026830Y017356D03*
X026830Y017323D03*
X026830Y017256D03*
X026830Y017223D03*
X026830Y017190D03*
X026830Y017157D03*
X026830Y017090D03*
X026830Y017057D03*
X026830Y017024D03*
X026830Y016990D03*
X026830Y016924D03*
X026830Y016891D03*
X026830Y016857D03*
X026830Y016824D03*
X026830Y016758D03*
X026830Y016724D03*
X026830Y016691D03*
X026830Y016658D03*
X026830Y016591D03*
X026830Y016558D03*
X026830Y016525D03*
X026830Y016492D03*
X026830Y016425D03*
X026830Y016392D03*
X026830Y016359D03*
X026830Y016325D03*
X026830Y016259D03*
X026830Y016226D03*
X026830Y016192D03*
X026830Y016159D03*
X026830Y016093D03*
X026830Y016059D03*
X026830Y016026D03*
X026830Y015993D03*
X026830Y015926D03*
X026830Y015893D03*
X026830Y015860D03*
X026830Y015827D03*
X026830Y015760D03*
X026830Y015727D03*
X026830Y015694D03*
X026830Y015660D03*
X026830Y015594D03*
X026830Y015561D03*
X026830Y015527D03*
X026830Y015494D03*
X026830Y015428D03*
X026830Y015394D03*
X026830Y015361D03*
X026830Y015328D03*
X026830Y015261D03*
X026830Y015228D03*
X026830Y015195D03*
X026830Y015162D03*
X026830Y015095D03*
X026830Y015062D03*
X026830Y015029D03*
X026830Y014995D03*
X026830Y014929D03*
X026830Y014896D03*
X026830Y014862D03*
X026830Y014829D03*
X026830Y014762D03*
X026830Y014729D03*
X026830Y014696D03*
X026830Y014663D03*
X026830Y014596D03*
X026830Y014563D03*
X026830Y014530D03*
X026830Y014496D03*
X026830Y014430D03*
X026830Y014397D03*
X026830Y014363D03*
X026830Y014330D03*
X026830Y014264D03*
X026830Y014230D03*
X026830Y014197D03*
X026830Y014164D03*
X026830Y014097D03*
X026830Y014064D03*
X026830Y014031D03*
X026830Y013998D03*
X026830Y013931D03*
X026830Y013898D03*
X026830Y013865D03*
X026830Y013831D03*
X026830Y013765D03*
X026830Y013732D03*
X026830Y013698D03*
X026830Y013665D03*
X026830Y013599D03*
X026830Y013565D03*
X026830Y013532D03*
X026830Y013499D03*
X026830Y013432D03*
X026830Y013399D03*
X026830Y013366D03*
X026830Y013333D03*
X026830Y013266D03*
X026830Y013233D03*
X026830Y013200D03*
X026830Y013166D03*
X026830Y013100D03*
X026830Y013067D03*
X026830Y013033D03*
X026830Y013000D03*
X026830Y012934D03*
X026830Y012900D03*
X026830Y012867D03*
X026830Y012834D03*
X026830Y012767D03*
X026830Y012734D03*
X026830Y012701D03*
X026830Y012668D03*
X026830Y012601D03*
X026830Y012568D03*
X026830Y012535D03*
X026830Y012501D03*
X026830Y012435D03*
X026830Y012402D03*
X026830Y012368D03*
X026830Y012335D03*
X026830Y012269D03*
X026830Y012235D03*
X026830Y012202D03*
X026830Y012169D03*
X026830Y012102D03*
X026830Y012069D03*
X026830Y012036D03*
X026830Y012003D03*
X026830Y011936D03*
X026830Y011903D03*
X026830Y011870D03*
X026830Y011836D03*
X026830Y011770D03*
X026830Y011737D03*
X026830Y011703D03*
X026830Y011670D03*
X026830Y011604D03*
X026830Y011570D03*
X026830Y011537D03*
X026830Y011504D03*
X026830Y011437D03*
X026830Y011404D03*
X026830Y011371D03*
X026830Y011338D03*
X026830Y011271D03*
X026830Y011238D03*
X026830Y011205D03*
X026830Y011171D03*
X026830Y011105D03*
X026830Y011072D03*
X026830Y011038D03*
X026830Y011005D03*
X026830Y010939D03*
X026830Y010905D03*
X026830Y010872D03*
X026830Y010839D03*
X026830Y010772D03*
X026830Y010739D03*
X026830Y010706D03*
X026830Y010673D03*
X026830Y010606D03*
X026830Y010573D03*
X026830Y010539D03*
X026830Y010506D03*
X026830Y010440D03*
X026830Y010406D03*
X026830Y010373D03*
X026830Y010340D03*
X026830Y010273D03*
X026830Y010240D03*
X026830Y010207D03*
X026830Y010174D03*
X026830Y010107D03*
X026830Y010074D03*
X026830Y010041D03*
X026830Y010007D03*
X026830Y009941D03*
X026830Y009908D03*
X026830Y009874D03*
X026830Y009841D03*
X026830Y009775D03*
X026830Y009741D03*
X026830Y009708D03*
X026830Y009675D03*
X026830Y009608D03*
X026830Y009575D03*
X026830Y009542D03*
X026830Y009509D03*
X026830Y009442D03*
X026830Y009409D03*
X026830Y009376D03*
X026830Y009342D03*
X026830Y009276D03*
X026830Y009243D03*
X026830Y009209D03*
X026830Y009176D03*
X026830Y009110D03*
X026830Y009076D03*
X026830Y009043D03*
X026830Y009010D03*
X026830Y008943D03*
X026830Y008910D03*
X026830Y008877D03*
X026830Y008844D03*
X026830Y008777D03*
X026830Y008744D03*
X026830Y008711D03*
X026830Y008677D03*
X026830Y008611D03*
X026830Y008578D03*
X026830Y008544D03*
X026830Y008511D03*
X026830Y008445D03*
X026830Y008411D03*
X026830Y008378D03*
X026830Y008345D03*
X026830Y008278D03*
X026830Y008245D03*
X026830Y008212D03*
X026830Y008179D03*
X026830Y008112D03*
X026830Y008079D03*
X026830Y008046D03*
X026830Y008012D03*
X026830Y007946D03*
X026830Y007913D03*
X026830Y007879D03*
X026830Y007846D03*
X026830Y007780D03*
X026830Y007746D03*
X026830Y007713D03*
X026830Y007680D03*
X026830Y007613D03*
X026830Y007580D03*
X026830Y007547D03*
X026830Y007514D03*
X026830Y007447D03*
X026830Y007414D03*
X026830Y007381D03*
X026830Y007347D03*
X026830Y007281D03*
X026830Y007248D03*
X026830Y007214D03*
X026830Y007181D03*
X026830Y007115D03*
X026830Y007081D03*
X026830Y007048D03*
X026830Y007015D03*
X026830Y006948D03*
X026830Y006915D03*
X026830Y006882D03*
X026830Y006849D03*
X026830Y006782D03*
X026830Y006749D03*
X026830Y006716D03*
X026830Y006682D03*
X026830Y006616D03*
X026830Y006583D03*
X026830Y006549D03*
X026830Y006516D03*
X026830Y006450D03*
X026830Y006416D03*
X026830Y006383D03*
X026830Y006350D03*
X026830Y006283D03*
X026830Y006250D03*
X026830Y006217D03*
X026830Y006183D03*
X026830Y006117D03*
X026830Y006084D03*
X026830Y006050D03*
X026830Y006017D03*
X026830Y005951D03*
X026830Y005917D03*
X026830Y005884D03*
X026830Y005851D03*
X026830Y005784D03*
X026830Y005751D03*
X026830Y005718D03*
X026830Y005685D03*
X026830Y005618D03*
X026830Y005585D03*
X026830Y005552D03*
X026830Y005518D03*
X026830Y005452D03*
X026830Y005419D03*
X026830Y005385D03*
X026830Y005352D03*
X026830Y005286D03*
X026830Y005252D03*
X026830Y005219D03*
X026830Y005186D03*
X026830Y005119D03*
X026830Y005086D03*
X026830Y005053D03*
X026830Y005020D03*
X026830Y004953D03*
X026830Y004920D03*
X026830Y004887D03*
X026830Y004853D03*
X026830Y004787D03*
X026830Y004754D03*
X026830Y004720D03*
X026830Y004687D03*
X026830Y004621D03*
X026830Y004587D03*
X026830Y004554D03*
X026830Y004521D03*
D58*
X015258Y002725D03*
D59*
X026015Y002725D03*
X026813Y004421D03*
X026813Y004454D03*
X026846Y025968D03*
X026846Y026002D03*
X026913Y026334D03*
X026913Y026367D03*
X026913Y026401D03*
X026946Y026467D03*
X026946Y026500D03*
X026946Y026534D03*
X026979Y026633D03*
X027013Y026733D03*
X028975Y030856D03*
X029008Y030956D03*
X029074Y031156D03*
X029074Y031189D03*
X029074Y031222D03*
X029108Y031289D03*
X029108Y031322D03*
X029108Y031355D03*
X029108Y031388D03*
X029141Y031521D03*
X029141Y031555D03*
X029141Y033949D03*
X026481Y032652D03*
X004036Y031788D03*
X001475Y031023D03*
X001475Y030989D03*
X001508Y030890D03*
X001409Y031189D03*
X001409Y031222D03*
X001409Y031289D03*
X001375Y031388D03*
X001375Y031455D03*
X001342Y031621D03*
X001342Y031654D03*
X001342Y031688D03*
X001342Y033849D03*
X001342Y033882D03*
X001342Y033949D03*
X003504Y026700D03*
X003504Y026667D03*
X003504Y026633D03*
X003537Y026567D03*
X003537Y026534D03*
X003537Y026500D03*
X003570Y026467D03*
X003570Y026401D03*
X003570Y026367D03*
X003637Y026068D03*
X003637Y026035D03*
X003670Y025802D03*
X002473Y041530D03*
D60*
X001592Y047948D03*
X004085Y031721D03*
X004418Y002759D03*
X029191Y046186D03*
D61*
X015258Y002759D03*
D62*
X026082Y002759D03*
X026813Y004355D03*
X026813Y004388D03*
X004069Y032719D03*
X001309Y046186D03*
X003670Y004388D03*
X003670Y004355D03*
X029174Y046152D03*
X028842Y048014D03*
D63*
X028941Y047915D03*
X002539Y041630D03*
X004368Y002792D03*
X026148Y002792D03*
D64*
X015241Y002792D03*
D65*
X004318Y002825D03*
X003653Y003989D03*
X003653Y004155D03*
X026198Y002825D03*
D66*
X015241Y002825D03*
D67*
X004268Y002858D03*
X004235Y002892D03*
X003670Y003856D03*
X003670Y003889D03*
X003670Y003922D03*
X003670Y003956D03*
X004135Y032818D03*
X002572Y041697D03*
X001242Y046352D03*
X001442Y047782D03*
X001475Y047815D03*
X026381Y031654D03*
X027944Y041663D03*
X029241Y046352D03*
X029074Y047748D03*
X029041Y047782D03*
X026846Y004055D03*
X026846Y004022D03*
X026846Y003956D03*
X026314Y002925D03*
X026281Y002892D03*
D68*
X015258Y002858D03*
D69*
X026231Y002858D03*
X026398Y031688D03*
X026398Y032785D03*
X029224Y046285D03*
X029224Y046319D03*
X029024Y047815D03*
X028991Y047848D03*
X004119Y032785D03*
X004119Y031654D03*
X002556Y041663D03*
X001259Y046319D03*
X001492Y047848D03*
X003653Y004122D03*
X003653Y004089D03*
X003653Y004055D03*
X003653Y004022D03*
D70*
X015241Y002892D03*
D71*
X004185Y002925D03*
X003686Y003756D03*
X003686Y003789D03*
X026797Y003789D03*
X026797Y003756D03*
X026797Y003723D03*
X029124Y047649D03*
X029124Y047682D03*
X001359Y047649D03*
D72*
X015258Y002925D03*
D73*
X026331Y002958D03*
X026830Y003856D03*
X026830Y003889D03*
X026830Y003922D03*
X026364Y031621D03*
X026364Y032818D03*
X027927Y041697D03*
X029257Y046418D03*
X029257Y046452D03*
X029157Y047615D03*
X004152Y032852D03*
X004152Y031621D03*
X001226Y046418D03*
X001226Y046452D03*
X001226Y046485D03*
X001326Y047582D03*
X001392Y047682D03*
X001425Y047748D03*
X004052Y003058D03*
X004085Y003025D03*
X004152Y002958D03*
D74*
X015258Y002958D03*
D75*
X004119Y002991D03*
X003720Y003656D03*
X026830Y003823D03*
X029091Y047715D03*
X001392Y047715D03*
D76*
X015241Y002991D03*
D77*
X026381Y002991D03*
X026514Y003158D03*
X026713Y003490D03*
X003969Y003158D03*
X002606Y041730D03*
X001309Y047549D03*
X027910Y041730D03*
X029174Y047549D03*
D78*
X015241Y003025D03*
D79*
X026414Y003025D03*
X026547Y003191D03*
X026680Y003424D03*
X026747Y003557D03*
X026747Y003590D03*
X026348Y032852D03*
X029207Y047516D03*
X029174Y047582D03*
X003736Y003623D03*
X003736Y003590D03*
X003770Y003523D03*
X003803Y003457D03*
X003903Y003257D03*
X003936Y003224D03*
X001276Y047482D03*
D80*
X015241Y003058D03*
D81*
X004036Y003091D03*
X004002Y003124D03*
X003836Y003390D03*
X003703Y003690D03*
X003703Y003723D03*
X026447Y003058D03*
X026481Y003091D03*
X026614Y003291D03*
X026647Y003357D03*
X026780Y003623D03*
X026780Y003690D03*
X029274Y046485D03*
X029274Y046518D03*
X001342Y047615D03*
X001209Y046585D03*
X001209Y046518D03*
D82*
X015241Y003091D03*
D83*
X015241Y003124D03*
D84*
X026497Y003124D03*
X026597Y003257D03*
X026664Y003390D03*
X026331Y032885D03*
X029290Y046585D03*
X029290Y046618D03*
X029290Y046651D03*
X029290Y047250D03*
X029257Y047349D03*
X004185Y032885D03*
X004185Y031555D03*
X001193Y046618D03*
X001193Y046651D03*
X001193Y046684D03*
X001193Y047150D03*
X001226Y047316D03*
X001226Y047349D03*
X003819Y003424D03*
X003853Y003357D03*
X003886Y003291D03*
D85*
X015258Y003158D03*
D86*
X003952Y003191D03*
X003753Y003557D03*
X026564Y003224D03*
X026697Y003457D03*
X026730Y003523D03*
X027894Y041763D03*
X029224Y047416D03*
X029224Y047449D03*
X029224Y047482D03*
X002622Y041763D03*
X001259Y047416D03*
X001259Y047449D03*
X001292Y047516D03*
D87*
X015258Y003191D03*
D88*
X015258Y003224D03*
D89*
X015241Y003257D03*
D90*
X015241Y003291D03*
D91*
X003869Y003324D03*
X004169Y031588D03*
X001209Y046551D03*
X026780Y003656D03*
D92*
X015241Y003324D03*
D93*
X026630Y003324D03*
X026331Y031588D03*
X029290Y046551D03*
X029290Y047216D03*
X029257Y047383D03*
X001193Y046718D03*
D94*
X015241Y003357D03*
D95*
X015241Y003390D03*
D96*
X015258Y003424D03*
D97*
X015258Y003457D03*
D98*
X003786Y003490D03*
X001259Y047383D03*
D99*
X015258Y003490D03*
D100*
X015258Y003523D03*
D101*
X015241Y003557D03*
D102*
X015241Y003590D03*
D103*
X015241Y003623D03*
D104*
X015241Y003656D03*
D105*
X015241Y003690D03*
D106*
X015241Y003723D03*
D107*
X015241Y003756D03*
D108*
X015258Y003789D03*
D109*
X003686Y003823D03*
D110*
X015258Y003823D03*
D111*
X015258Y003856D03*
D112*
X015241Y003889D03*
D113*
X015258Y003922D03*
X004418Y048447D03*
D114*
X001242Y046385D03*
X026846Y003989D03*
X029241Y046385D03*
D115*
X029207Y046252D03*
X004102Y031688D03*
X001276Y046252D03*
X001276Y046285D03*
X026846Y004222D03*
X026846Y004188D03*
X026846Y004122D03*
X026846Y004089D03*
D116*
X026846Y004155D03*
X026414Y032752D03*
D117*
X026431Y032719D03*
X026431Y031721D03*
X027994Y041597D03*
X028925Y047948D03*
X002523Y041597D03*
X001558Y047915D03*
X003653Y004288D03*
X003653Y004255D03*
X003653Y004222D03*
X003653Y004188D03*
X026830Y004255D03*
X026830Y004288D03*
D118*
X026447Y031754D03*
X028010Y041564D03*
X003670Y004321D03*
X002506Y041564D03*
D119*
X026830Y004321D03*
D120*
X026830Y004654D03*
X026830Y004820D03*
X026830Y004986D03*
X026830Y005153D03*
X026830Y005319D03*
X026830Y005485D03*
X026830Y005651D03*
X026830Y005818D03*
X026830Y005984D03*
X026830Y006150D03*
X026830Y006316D03*
X026830Y006483D03*
X026830Y006649D03*
X026830Y006815D03*
X026830Y006982D03*
X026830Y007148D03*
X026830Y007314D03*
X026830Y007480D03*
X026830Y007647D03*
X026830Y007813D03*
X026830Y007979D03*
X026830Y008145D03*
X026830Y008312D03*
X026830Y008478D03*
X026830Y008644D03*
X026830Y008810D03*
X026830Y008977D03*
X026830Y009143D03*
X026830Y009309D03*
X026830Y009475D03*
X026830Y009642D03*
X026830Y009808D03*
X026830Y009974D03*
X026830Y010140D03*
X026830Y010307D03*
X026830Y010473D03*
X026830Y010639D03*
X026830Y010806D03*
X026830Y010972D03*
X026830Y011138D03*
X026830Y011304D03*
X026830Y011471D03*
X026830Y011637D03*
X026830Y011803D03*
X026830Y011969D03*
X026830Y012136D03*
X026830Y012302D03*
X026830Y012468D03*
X026830Y012634D03*
X026830Y012801D03*
X026830Y012967D03*
X026830Y013133D03*
X026830Y013299D03*
X026830Y013466D03*
X026830Y013632D03*
X026830Y013798D03*
X026830Y013964D03*
X026830Y014131D03*
X026830Y014297D03*
X026830Y014463D03*
X026830Y014629D03*
X026830Y014796D03*
X026830Y014962D03*
X026830Y015128D03*
X026830Y015295D03*
X026830Y015461D03*
X026830Y015627D03*
X026830Y015793D03*
X026830Y015960D03*
X026830Y016126D03*
X026830Y016292D03*
X026830Y016458D03*
X026830Y016625D03*
X026830Y016791D03*
X026830Y016957D03*
X026830Y017123D03*
X026830Y017290D03*
X026830Y017456D03*
X026830Y017622D03*
X026830Y017788D03*
X026830Y017955D03*
X026830Y018121D03*
X026830Y018287D03*
X026830Y018453D03*
X026830Y018620D03*
X026830Y018786D03*
X026830Y018952D03*
X026830Y019119D03*
X026830Y019285D03*
X026830Y019451D03*
X026830Y019617D03*
X026830Y019784D03*
X026830Y019950D03*
X026830Y020116D03*
X026830Y020282D03*
X026830Y020449D03*
X026830Y020615D03*
X026830Y020781D03*
X026830Y020947D03*
X026830Y021114D03*
X026830Y021280D03*
X026830Y021446D03*
X026830Y021612D03*
X026830Y021779D03*
X026830Y021945D03*
X026830Y022111D03*
X026830Y022277D03*
X026830Y022444D03*
X026830Y022610D03*
X026830Y022776D03*
X026830Y022942D03*
X026830Y023109D03*
X026830Y023275D03*
X026830Y023441D03*
X026830Y023608D03*
X026830Y023774D03*
X026830Y023940D03*
X026830Y024106D03*
X026830Y024273D03*
X026830Y024439D03*
X026830Y024605D03*
X026830Y024771D03*
X026830Y024938D03*
X026830Y025104D03*
X026830Y025270D03*
X026830Y025436D03*
X026830Y025603D03*
X026830Y025769D03*
X026863Y026101D03*
X026896Y026268D03*
X026930Y026434D03*
X029091Y031255D03*
X029124Y031422D03*
X029157Y031588D03*
X029157Y031754D03*
X029157Y031921D03*
X029157Y032087D03*
X029157Y032253D03*
X029157Y032419D03*
X029157Y032586D03*
X029157Y032752D03*
X029157Y032918D03*
X029157Y033084D03*
X029157Y033251D03*
X029157Y033417D03*
X029157Y033583D03*
X029157Y033749D03*
X029157Y041397D03*
X029157Y041564D03*
X029157Y041730D03*
X029157Y041896D03*
X029157Y042062D03*
X029157Y042229D03*
X029157Y042395D03*
X029157Y042561D03*
X029157Y042727D03*
X029157Y042894D03*
X029157Y043060D03*
X029157Y043226D03*
X029157Y043392D03*
X029157Y043559D03*
X029157Y043725D03*
X029157Y043891D03*
X029157Y044057D03*
X029157Y044224D03*
X029157Y044390D03*
X029157Y044556D03*
X029157Y044723D03*
X029157Y044889D03*
X029157Y045055D03*
X029157Y045221D03*
X029157Y045388D03*
X029157Y045554D03*
X029157Y045720D03*
X029157Y045886D03*
X029157Y046053D03*
X004052Y031754D03*
X001359Y031588D03*
X001326Y031754D03*
X001326Y031921D03*
X001326Y032087D03*
X001326Y032253D03*
X001326Y032419D03*
X001326Y032586D03*
X001326Y032752D03*
X001326Y032918D03*
X001326Y033084D03*
X001326Y033251D03*
X001326Y033417D03*
X001326Y033583D03*
X001326Y033749D03*
X003653Y025935D03*
X003686Y025603D03*
X003686Y025436D03*
X003686Y025270D03*
X003686Y025104D03*
X003686Y024938D03*
X003686Y024771D03*
X003686Y024605D03*
X003686Y024439D03*
X003686Y024273D03*
X003686Y024106D03*
X003686Y023940D03*
X003686Y023774D03*
X003686Y023608D03*
X003686Y023441D03*
X003686Y023275D03*
X003686Y023109D03*
X003686Y022942D03*
X003686Y022776D03*
X003686Y022610D03*
X003686Y022444D03*
X003686Y022277D03*
X003686Y022111D03*
X003686Y021945D03*
X003686Y021779D03*
X003686Y021612D03*
X003686Y021446D03*
X003686Y021280D03*
X003686Y021114D03*
X003686Y020947D03*
X003686Y020781D03*
X003686Y020615D03*
X003686Y020449D03*
X003686Y020282D03*
X003686Y020116D03*
X003686Y019950D03*
X003686Y019784D03*
X003686Y019617D03*
X003686Y019451D03*
X003686Y019285D03*
X003686Y019119D03*
X003686Y018952D03*
X003686Y018786D03*
X003686Y018620D03*
X003686Y018453D03*
X003686Y018287D03*
X003686Y018121D03*
X003686Y017955D03*
X003686Y017788D03*
X003686Y017622D03*
X003686Y017456D03*
X003686Y017290D03*
X003686Y017123D03*
X003686Y016957D03*
X003686Y016791D03*
X003686Y016625D03*
X003686Y016458D03*
X003686Y016292D03*
X003686Y016126D03*
X003686Y015960D03*
X003686Y015793D03*
X003686Y015627D03*
X003686Y015461D03*
X003686Y015295D03*
X003686Y015128D03*
X003686Y014962D03*
X003686Y014796D03*
X003686Y014629D03*
X003686Y014463D03*
X003686Y014297D03*
X003686Y014131D03*
X003686Y013964D03*
X003686Y013798D03*
X003686Y013632D03*
X003686Y013466D03*
X003686Y013299D03*
X003686Y013133D03*
X003686Y012967D03*
X003686Y012801D03*
X003686Y012634D03*
X003686Y012468D03*
X003686Y012302D03*
X003686Y012136D03*
X003686Y011969D03*
X003686Y011803D03*
X003686Y011637D03*
X003686Y011471D03*
X003686Y011304D03*
X003686Y011138D03*
X003686Y010972D03*
X003686Y010806D03*
X003686Y010639D03*
X003686Y010473D03*
X003686Y010307D03*
X003686Y010140D03*
X003686Y009974D03*
X003686Y009808D03*
X003686Y009642D03*
X003686Y009475D03*
X003686Y009309D03*
X003686Y009143D03*
X003686Y008977D03*
X003686Y008810D03*
X003686Y008644D03*
X003686Y008478D03*
X003686Y008312D03*
X003686Y008145D03*
X003686Y007979D03*
X003686Y007813D03*
X003686Y007647D03*
X003686Y007480D03*
X003686Y007314D03*
X003686Y007148D03*
X003686Y006982D03*
X003686Y006815D03*
X003686Y006649D03*
X003686Y006483D03*
X003686Y006316D03*
X003686Y006150D03*
X003686Y005984D03*
X003686Y005818D03*
X003686Y005651D03*
X003686Y005485D03*
X003686Y005319D03*
X003686Y005153D03*
X003686Y004986D03*
X003686Y004820D03*
X003686Y004654D03*
X003686Y004488D03*
X001326Y041397D03*
X001326Y041564D03*
X001326Y041730D03*
X001326Y041896D03*
X001326Y042062D03*
X001326Y042229D03*
X001326Y042395D03*
X001326Y042561D03*
X001326Y042727D03*
X001326Y042894D03*
X001326Y043060D03*
X001326Y043226D03*
X001326Y043392D03*
X001326Y043559D03*
X001326Y043725D03*
X001326Y043891D03*
X001326Y044057D03*
X001326Y044224D03*
X001326Y044390D03*
X001326Y044556D03*
X001326Y044723D03*
X001326Y044889D03*
X001326Y045055D03*
X001326Y045221D03*
X001326Y045388D03*
X001326Y045554D03*
X001326Y045720D03*
X001326Y045886D03*
X001326Y046053D03*
D121*
X001708Y048048D03*
X001342Y033916D03*
X001375Y031422D03*
X001409Y031255D03*
X003470Y026766D03*
X003537Y026600D03*
X003570Y026434D03*
X003637Y026101D03*
X003670Y025769D03*
X026813Y004488D03*
X026846Y025935D03*
X026979Y026600D03*
X029141Y033916D03*
X028808Y048048D03*
D122*
X027661Y042129D03*
X026098Y033217D03*
X026098Y031222D03*
X019115Y007713D03*
X019115Y007680D03*
X019115Y007613D03*
X019115Y007580D03*
X019115Y007547D03*
X019115Y007514D03*
X019115Y007447D03*
X019115Y007414D03*
X019115Y007381D03*
X019115Y007347D03*
X018816Y007281D03*
X018816Y007248D03*
X018816Y007214D03*
X018816Y007181D03*
X018816Y007115D03*
X018816Y007081D03*
X018816Y007048D03*
X018816Y007015D03*
X018816Y006948D03*
X018816Y006915D03*
X019115Y006915D03*
X018284Y006948D03*
X017985Y007048D03*
X017952Y006915D03*
X018018Y007214D03*
X018018Y007248D03*
X018184Y007414D03*
X018118Y007713D03*
X017153Y007547D03*
X017153Y007514D03*
X017153Y007447D03*
X017153Y007414D03*
X017153Y007381D03*
X017153Y007347D03*
X017153Y007281D03*
X017153Y007248D03*
X017153Y007214D03*
X017153Y007181D03*
X017153Y007115D03*
X017153Y007081D03*
X017153Y006450D03*
X017153Y006416D03*
X017153Y006383D03*
X017153Y006350D03*
X017153Y006283D03*
X017153Y006250D03*
X017153Y006217D03*
X017153Y006183D03*
X017153Y006117D03*
X017153Y006084D03*
X017153Y006050D03*
X017153Y006017D03*
X017153Y005951D03*
X017153Y005917D03*
X016522Y006084D03*
X016289Y006915D03*
X016289Y006948D03*
X016289Y007015D03*
X016289Y007048D03*
X016289Y007081D03*
X016289Y007115D03*
X016289Y007181D03*
X016289Y007214D03*
X016289Y007248D03*
X016289Y007281D03*
X016289Y007713D03*
X015624Y006616D03*
X015690Y006283D03*
X015690Y006250D03*
X015690Y006217D03*
X015524Y006217D03*
X015524Y006250D03*
X015524Y006183D03*
X015458Y005884D03*
X014793Y005784D03*
X014660Y006017D03*
X014660Y006050D03*
X014660Y006084D03*
X014660Y006117D03*
X014660Y006183D03*
X014660Y006217D03*
X014660Y006250D03*
X014660Y006283D03*
X014660Y006350D03*
X014660Y006383D03*
X014660Y006416D03*
X017985Y006416D03*
X017985Y006383D03*
X017985Y006017D03*
X002855Y042162D03*
D123*
X002838Y042129D03*
X004401Y033217D03*
X014676Y007713D03*
X014676Y007680D03*
X014676Y007613D03*
X014676Y007580D03*
X014676Y007547D03*
X014676Y007514D03*
X014676Y007447D03*
X014676Y007414D03*
X014676Y007381D03*
X014676Y007347D03*
X014676Y007281D03*
X014676Y007248D03*
X014676Y007214D03*
X014676Y007181D03*
X014676Y007115D03*
X014676Y007081D03*
X014676Y007048D03*
X014676Y007015D03*
X014676Y006450D03*
X014676Y005951D03*
X015441Y005851D03*
X015474Y005917D03*
X015474Y005951D03*
X015507Y006084D03*
X015507Y006117D03*
X015541Y006283D03*
X015707Y006183D03*
X015707Y006084D03*
X015774Y005884D03*
X015774Y005851D03*
X016306Y005851D03*
X016306Y005884D03*
X016306Y005917D03*
X016306Y005951D03*
X016306Y006017D03*
X016306Y006050D03*
X016306Y006084D03*
X016306Y006117D03*
X016306Y006283D03*
X016306Y006350D03*
X016306Y006383D03*
X016306Y006416D03*
X016306Y006450D03*
X016605Y006383D03*
X016605Y006350D03*
X016505Y006117D03*
X016538Y006050D03*
X016538Y006017D03*
X016605Y005851D03*
X015607Y006516D03*
X015607Y006549D03*
X015607Y006583D03*
X015707Y007048D03*
X015441Y007048D03*
X015441Y007081D03*
X015441Y007115D03*
X015441Y007181D03*
X015441Y007214D03*
X015441Y007248D03*
X015441Y007281D03*
X015441Y007347D03*
X015441Y007381D03*
X015441Y007414D03*
X015441Y007447D03*
X015441Y007514D03*
X015441Y007547D03*
X015707Y007547D03*
X015707Y007580D03*
X016306Y007613D03*
X016306Y007680D03*
X017170Y007580D03*
X017436Y007547D03*
X017436Y007514D03*
X017436Y007214D03*
X017436Y007181D03*
X017436Y007115D03*
X017436Y007081D03*
X017436Y007048D03*
X017170Y007048D03*
X017968Y007015D03*
X017968Y006948D03*
X018267Y007015D03*
X018267Y007048D03*
X018301Y006915D03*
X018134Y006616D03*
X018001Y006450D03*
X018001Y006350D03*
X018267Y006383D03*
X018267Y006416D03*
X018267Y006450D03*
X018267Y006084D03*
X018267Y006050D03*
X018267Y006017D03*
X018267Y005951D03*
X018134Y005784D03*
X018001Y005917D03*
X018001Y005951D03*
X018035Y007281D03*
X018201Y007347D03*
X018201Y007381D03*
X018134Y007680D03*
X018833Y007680D03*
X018833Y007713D03*
X019099Y006948D03*
X027678Y042096D03*
D124*
X012332Y007148D03*
X012332Y006649D03*
X012332Y006483D03*
X012332Y005818D03*
D125*
X013213Y006815D03*
X011451Y006815D03*
X011451Y006316D03*
X011451Y006150D03*
X011451Y005984D03*
X014776Y005818D03*
D126*
X014676Y006483D03*
X014676Y007148D03*
X014676Y007314D03*
X014676Y007480D03*
X014676Y007647D03*
X015441Y007480D03*
X015441Y007314D03*
X015441Y007148D03*
X016306Y007647D03*
X016439Y007314D03*
X016306Y006483D03*
X016306Y006316D03*
X016306Y005984D03*
X016306Y005818D03*
X016605Y005818D03*
X015774Y005818D03*
X015441Y005818D03*
X015507Y006150D03*
X015707Y006150D03*
X017436Y007148D03*
X017968Y006982D03*
X018035Y007314D03*
X018134Y007647D03*
X018833Y007647D03*
X018966Y007314D03*
X019099Y006982D03*
X018267Y005984D03*
X018001Y006316D03*
X026115Y031255D03*
D127*
X026198Y033084D03*
X013196Y006316D03*
X013196Y006150D03*
X013196Y005984D03*
X017253Y005818D03*
X004318Y033084D03*
D128*
X018134Y005818D03*
D129*
X012332Y005851D03*
X012332Y005884D03*
X012332Y005917D03*
X012332Y006350D03*
X012332Y006383D03*
X012332Y006416D03*
X012332Y006450D03*
X012332Y006516D03*
X012332Y006549D03*
X012332Y006583D03*
X012332Y006616D03*
X012332Y006682D03*
X012332Y006716D03*
X012332Y007015D03*
X012332Y007048D03*
X012332Y007081D03*
X012332Y007115D03*
X012332Y007181D03*
X012332Y007214D03*
X012332Y007248D03*
D130*
X013196Y006948D03*
X013196Y006782D03*
X013196Y006283D03*
X013196Y006250D03*
X013196Y006217D03*
X013196Y006183D03*
X013196Y006117D03*
X013196Y006084D03*
X013196Y006050D03*
X013196Y006017D03*
X014793Y005851D03*
X014793Y006583D03*
X015591Y007680D03*
X017286Y007680D03*
X017286Y006948D03*
X018118Y006217D03*
X011467Y005951D03*
X011467Y006782D03*
X011467Y006948D03*
X004318Y031355D03*
X002755Y041996D03*
X026198Y031388D03*
X027761Y041963D03*
D131*
X027777Y041929D03*
X026215Y033051D03*
X018134Y006549D03*
X018134Y005851D03*
X017270Y005851D03*
X017270Y006549D03*
X017270Y006583D03*
X015574Y006948D03*
X014809Y006549D03*
X013180Y006749D03*
X013180Y005951D03*
X011484Y006749D03*
X004302Y031388D03*
X002739Y041963D03*
D132*
X002722Y041929D03*
X004285Y033051D03*
X015591Y007613D03*
X014793Y006948D03*
X014793Y006915D03*
X014793Y006516D03*
X014793Y005884D03*
X015624Y006017D03*
X015624Y006050D03*
X016422Y006183D03*
X016422Y006549D03*
X016422Y006583D03*
X017286Y006516D03*
X017286Y005884D03*
X018118Y005884D03*
X018118Y006516D03*
X018118Y007115D03*
X018118Y007181D03*
X017286Y007613D03*
X026231Y033018D03*
D133*
X018234Y007214D03*
X017403Y006450D03*
X017403Y005951D03*
X017403Y005917D03*
X016572Y005917D03*
X016572Y005884D03*
X016572Y005951D03*
X016572Y006283D03*
X016572Y006450D03*
X016572Y006915D03*
X016572Y006948D03*
X015740Y005951D03*
X014909Y005951D03*
X014909Y005917D03*
X014909Y006450D03*
D134*
X014793Y006616D03*
X014693Y005917D03*
X015690Y007015D03*
X015458Y007580D03*
X016322Y007580D03*
X016322Y007547D03*
X016555Y007081D03*
X016555Y007048D03*
X016555Y007015D03*
X017187Y007015D03*
X017386Y007015D03*
X017419Y007580D03*
X017286Y007713D03*
X018118Y007613D03*
X018118Y007580D03*
X018118Y007547D03*
X018849Y007547D03*
X018849Y007580D03*
X018849Y007613D03*
X019082Y007081D03*
X019082Y007048D03*
X019082Y007015D03*
X018251Y006117D03*
X018251Y005917D03*
X016555Y006250D03*
X016322Y006250D03*
X026131Y031289D03*
X026131Y033184D03*
X004385Y033184D03*
X002822Y042096D03*
D135*
X004418Y031222D03*
X015724Y007514D03*
X015724Y007447D03*
X015724Y007414D03*
X015724Y007381D03*
X015724Y007347D03*
X015724Y007281D03*
X015724Y007248D03*
X015724Y007214D03*
X015724Y007181D03*
X015724Y007115D03*
X015724Y007081D03*
X016588Y007347D03*
X016588Y007381D03*
X016588Y007414D03*
X016588Y007447D03*
X016588Y007514D03*
X016588Y007547D03*
X016588Y007580D03*
X016588Y007613D03*
X016588Y007680D03*
X016588Y007713D03*
X016588Y006416D03*
X015724Y006117D03*
X015757Y005917D03*
X014926Y006017D03*
X014926Y006383D03*
X014926Y006416D03*
X017419Y006416D03*
X017419Y006383D03*
X017419Y006350D03*
X017419Y006283D03*
X017419Y006250D03*
X017419Y006217D03*
X017419Y006183D03*
X017419Y006117D03*
X017419Y006084D03*
X017419Y006050D03*
X017419Y006017D03*
X018051Y007347D03*
X018051Y007381D03*
X018051Y007414D03*
X018218Y007281D03*
X018218Y007248D03*
D136*
X018883Y007381D03*
X018883Y007414D03*
X019049Y007281D03*
X019049Y007248D03*
X019049Y007214D03*
X017386Y007248D03*
X017386Y007281D03*
X017386Y007347D03*
X015591Y006915D03*
X012731Y005951D03*
X011900Y005951D03*
X002789Y042029D03*
X027728Y042029D03*
D137*
X026165Y033118D03*
X026165Y031322D03*
X018118Y007447D03*
X017286Y006915D03*
X016522Y007181D03*
X016522Y007214D03*
X016522Y007248D03*
X016355Y007347D03*
X016355Y007381D03*
X016355Y007414D03*
X016355Y006616D03*
X015624Y006350D03*
X012332Y005951D03*
X004351Y031322D03*
X004351Y033151D03*
D138*
X019065Y007148D03*
X018234Y006150D03*
X012748Y006150D03*
X012748Y005984D03*
X012748Y006316D03*
X011916Y006316D03*
X011916Y006150D03*
X011916Y005984D03*
X027711Y042062D03*
D139*
X018866Y007480D03*
X016538Y007148D03*
X016339Y007480D03*
X012315Y006316D03*
X012315Y006150D03*
X012315Y005984D03*
X002805Y042062D03*
D140*
X017153Y007480D03*
X017153Y007314D03*
X017153Y007148D03*
X017153Y006483D03*
X017153Y006316D03*
X017153Y006150D03*
X017153Y005984D03*
X017985Y005984D03*
X018284Y006982D03*
X018816Y006982D03*
X018816Y007148D03*
X018816Y007314D03*
X019115Y007314D03*
X019115Y007480D03*
X019115Y007647D03*
X016289Y007314D03*
X016289Y007148D03*
X016289Y006982D03*
X014660Y006316D03*
X014660Y006150D03*
X014660Y005984D03*
D141*
X014926Y005984D03*
X015724Y007148D03*
X015724Y007314D03*
X015724Y007480D03*
X016588Y007480D03*
X016588Y007314D03*
X016588Y007647D03*
X016588Y006316D03*
X016555Y005984D03*
X017419Y005984D03*
X017419Y006150D03*
X017419Y006316D03*
X018218Y007314D03*
X004418Y033251D03*
D142*
X015607Y005984D03*
D143*
X018101Y006250D03*
X018899Y007347D03*
X013213Y006915D03*
X013213Y006882D03*
X013213Y006849D03*
X011451Y006849D03*
X011451Y006882D03*
X011451Y006915D03*
X011451Y006283D03*
X011451Y006250D03*
X011451Y006217D03*
X011451Y006183D03*
X011451Y006117D03*
X011451Y006084D03*
X011451Y006050D03*
X011451Y006017D03*
X026181Y031355D03*
X027744Y041996D03*
D144*
X015574Y007713D03*
X012748Y006283D03*
X012748Y006250D03*
X012748Y006217D03*
X012748Y006183D03*
X012748Y006117D03*
X012748Y006084D03*
X012748Y006050D03*
X012748Y006017D03*
X011916Y006017D03*
X011916Y006050D03*
X011916Y006084D03*
X011916Y006117D03*
X011916Y006183D03*
X011916Y006217D03*
X011916Y006250D03*
X011916Y006283D03*
X019065Y007115D03*
X019065Y007181D03*
D145*
X018866Y007447D03*
X018866Y007514D03*
X018134Y007514D03*
X018035Y006283D03*
X017203Y006616D03*
X016538Y007115D03*
X016339Y007447D03*
X016339Y007514D03*
X015474Y007015D03*
X015607Y006450D03*
X015607Y006416D03*
X015607Y006383D03*
X012315Y006283D03*
X012315Y006250D03*
X012315Y006217D03*
X012315Y006183D03*
X012315Y006117D03*
X012315Y006084D03*
X012315Y006050D03*
X012315Y006017D03*
X004368Y031289D03*
X026148Y033151D03*
D146*
X015574Y007647D03*
X016405Y006150D03*
X013180Y006982D03*
X011484Y006982D03*
D147*
X016505Y007281D03*
X018134Y006583D03*
X018168Y006183D03*
X004335Y033118D03*
D148*
X004268Y033018D03*
X016439Y006516D03*
X016439Y006217D03*
X026248Y031455D03*
D149*
X026281Y032951D03*
X027844Y041830D03*
X013712Y007381D03*
X013712Y007347D03*
X013712Y007281D03*
X013712Y007248D03*
X013712Y007214D03*
X013712Y007181D03*
X013712Y007115D03*
X013712Y007081D03*
X013712Y007048D03*
X013712Y007015D03*
X013712Y006948D03*
X013712Y006915D03*
X013712Y006882D03*
X013712Y006849D03*
X013712Y006782D03*
X013712Y006749D03*
X013712Y006716D03*
X013712Y006682D03*
X013712Y006616D03*
X013712Y006583D03*
X013712Y006549D03*
X013712Y006516D03*
X013712Y006450D03*
X013712Y006416D03*
X013712Y006383D03*
X013712Y006350D03*
X013712Y006283D03*
X013712Y006250D03*
X004235Y031488D03*
X002672Y041863D03*
D150*
X013712Y007314D03*
X013712Y007148D03*
X013712Y006982D03*
X013712Y006815D03*
X013712Y006649D03*
X013712Y006483D03*
X013712Y006316D03*
D151*
X015624Y006316D03*
X018118Y007480D03*
D152*
X017403Y006483D03*
X016572Y006483D03*
X016572Y006982D03*
X014909Y006483D03*
D153*
X015624Y006483D03*
X018018Y006483D03*
X018251Y006483D03*
X004385Y031255D03*
D154*
X003903Y031987D03*
X001475Y034281D03*
X002340Y041298D03*
X023687Y048014D03*
X029008Y034281D03*
X026614Y032453D03*
X012315Y006749D03*
D155*
X012332Y006782D03*
X012332Y006948D03*
X028127Y041364D03*
X028625Y048147D03*
X021642Y044024D03*
X001858Y048147D03*
D156*
X006962Y047881D03*
X021659Y044057D03*
X028110Y041397D03*
X012315Y006815D03*
D157*
X012332Y006849D03*
X012332Y006882D03*
X012332Y006915D03*
X003188Y027465D03*
X003021Y027797D03*
X002855Y028130D03*
X002689Y028462D03*
X002523Y028795D03*
X002356Y029127D03*
X002190Y029460D03*
X008508Y044656D03*
X007677Y046418D03*
X007012Y047815D03*
X022474Y045687D03*
X023305Y047449D03*
X023471Y047782D03*
D158*
X012332Y006982D03*
D159*
X014793Y006982D03*
X015591Y006982D03*
X017286Y006982D03*
X017286Y007647D03*
X018118Y007148D03*
X026231Y031422D03*
X004285Y031422D03*
D160*
X018134Y007081D03*
D161*
X017386Y007314D03*
D162*
X012947Y007414D03*
X012947Y007447D03*
X012947Y007514D03*
X012947Y007547D03*
X012947Y007580D03*
X012947Y007613D03*
X012947Y007680D03*
X012947Y007713D03*
X001907Y035445D03*
X001907Y035478D03*
X001907Y035512D03*
X001907Y035545D03*
X001907Y035611D03*
X001907Y035645D03*
X001907Y035678D03*
X001907Y035711D03*
X001907Y035778D03*
X001907Y035811D03*
X001907Y035844D03*
X001907Y035877D03*
X001907Y035944D03*
X001907Y035977D03*
X001907Y036011D03*
X001907Y036044D03*
X001907Y036110D03*
X001907Y036144D03*
X001907Y036177D03*
X001907Y036210D03*
X001907Y036277D03*
X001907Y036310D03*
X001907Y036343D03*
X001907Y036376D03*
X001907Y036443D03*
X001907Y036476D03*
X001907Y036509D03*
X001907Y036543D03*
X001907Y036609D03*
X001907Y036642D03*
X001907Y036676D03*
X001907Y036709D03*
X001907Y036775D03*
X001907Y036809D03*
X001907Y036842D03*
X001907Y036875D03*
X001907Y036942D03*
X001907Y036975D03*
X001907Y037008D03*
X001907Y037041D03*
X001907Y037108D03*
X001907Y037141D03*
X001907Y037174D03*
X001907Y037208D03*
X001907Y037274D03*
X001907Y037307D03*
X001907Y037341D03*
X001907Y037374D03*
X001907Y037440D03*
X001907Y037474D03*
X001907Y037507D03*
X001907Y037540D03*
X001907Y037607D03*
X001907Y037640D03*
X001907Y037673D03*
X001907Y037706D03*
X001907Y037773D03*
X001907Y037806D03*
X001907Y037839D03*
X001907Y037873D03*
X001907Y037939D03*
X001907Y037972D03*
X001907Y038006D03*
X001907Y038039D03*
X001907Y038105D03*
X001907Y038139D03*
X001907Y038172D03*
X001907Y038205D03*
X001907Y038272D03*
X001907Y038305D03*
X001907Y038338D03*
X001907Y038371D03*
X001907Y038438D03*
X001907Y038471D03*
X001907Y038504D03*
X001907Y038538D03*
X001907Y038604D03*
X001907Y038637D03*
X001907Y038671D03*
X001907Y038704D03*
X001907Y038770D03*
X001907Y038804D03*
X001907Y038837D03*
X001907Y038870D03*
X001907Y038937D03*
X001907Y038970D03*
X001907Y039003D03*
X001907Y039036D03*
X001907Y039103D03*
X001907Y039136D03*
X001907Y039169D03*
X001907Y039203D03*
X001907Y039269D03*
X001907Y039302D03*
X001907Y039336D03*
X001907Y039369D03*
X001907Y039435D03*
X001907Y039469D03*
X001907Y039502D03*
X001907Y039535D03*
X001907Y039602D03*
X001907Y039635D03*
X001907Y039668D03*
X001907Y039701D03*
X001907Y039768D03*
X001907Y039801D03*
X001907Y039834D03*
X001907Y039868D03*
X001907Y039934D03*
X001907Y039967D03*
X001907Y040001D03*
X001907Y040034D03*
X001907Y040100D03*
X001907Y040134D03*
X001907Y040167D03*
X001907Y040200D03*
X001907Y040267D03*
X001907Y040300D03*
X001907Y040333D03*
X001907Y040367D03*
X001907Y040433D03*
X001907Y040466D03*
X001907Y040500D03*
X001907Y040533D03*
X001907Y040599D03*
X001907Y040633D03*
X001907Y040666D03*
X001907Y040699D03*
X001907Y040766D03*
X001907Y040799D03*
X001907Y040832D03*
X001907Y040865D03*
X001907Y040932D03*
X001907Y040965D03*
X001907Y040998D03*
X001907Y041032D03*
X001907Y041098D03*
X001907Y041131D03*
X001907Y041165D03*
X001907Y041198D03*
X001907Y041264D03*
D163*
X001907Y041231D03*
X001907Y041065D03*
X001907Y040899D03*
X001907Y040732D03*
X001907Y040566D03*
X001907Y040400D03*
X001907Y040234D03*
X001907Y040067D03*
X001907Y039901D03*
X001907Y039735D03*
X001907Y039568D03*
X001907Y039402D03*
X001907Y039236D03*
X001907Y039070D03*
X001907Y038903D03*
X001907Y038737D03*
X001907Y038571D03*
X001907Y038405D03*
X001907Y038238D03*
X001907Y038072D03*
X001907Y037906D03*
X001907Y037740D03*
X001907Y037573D03*
X001907Y037407D03*
X001907Y037241D03*
X001907Y037075D03*
X001907Y036908D03*
X001907Y036742D03*
X001907Y036576D03*
X001907Y036410D03*
X001907Y036243D03*
X001907Y036077D03*
X001907Y035911D03*
X001907Y035744D03*
X001907Y035578D03*
X001907Y035412D03*
X012947Y007647D03*
X012947Y007480D03*
D164*
X003603Y026234D03*
X003603Y026301D03*
X001442Y031122D03*
X001442Y031156D03*
X026880Y026234D03*
X026880Y026201D03*
X026880Y026168D03*
X027046Y026833D03*
X029041Y031056D03*
X028043Y041497D03*
D165*
X029041Y031089D03*
X003603Y026268D03*
X001442Y031089D03*
D166*
X001492Y030956D03*
X001525Y030856D03*
X001525Y030823D03*
X001558Y030790D03*
X001558Y030723D03*
X001359Y033982D03*
X001359Y034015D03*
X004019Y032652D03*
X004019Y031821D03*
X003321Y027165D03*
X003387Y027032D03*
X003387Y026999D03*
X003487Y026733D03*
X026497Y031821D03*
X026497Y032619D03*
X028958Y030823D03*
X028958Y030790D03*
X028925Y030723D03*
X028991Y030890D03*
X029124Y033982D03*
X029124Y034015D03*
X027162Y027132D03*
X027129Y027066D03*
X027129Y027032D03*
X027096Y026999D03*
X027096Y026966D03*
X026996Y026700D03*
X026996Y026667D03*
X026963Y026567D03*
X028758Y048081D03*
D167*
X027029Y026766D03*
X003420Y026933D03*
X001625Y030590D03*
D168*
X001592Y030657D03*
X001592Y030690D03*
X001459Y031056D03*
X003420Y026899D03*
X003454Y026866D03*
X003454Y026833D03*
X003454Y026800D03*
X002456Y041497D03*
X001758Y048081D03*
X027063Y026899D03*
X027063Y026866D03*
X027029Y026800D03*
X028891Y030657D03*
X029024Y030989D03*
X029024Y031023D03*
X029058Y031122D03*
D169*
X028991Y030923D03*
X027096Y026933D03*
X003354Y027099D03*
X001558Y030757D03*
X001492Y030923D03*
D170*
X001675Y030491D03*
X001675Y030457D03*
X001708Y030391D03*
X001841Y030125D03*
X001874Y030058D03*
X002007Y029826D03*
X002007Y029792D03*
X002173Y029493D03*
X002340Y029161D03*
X002506Y028828D03*
X002672Y028496D03*
X002838Y028163D03*
X003005Y027831D03*
X003171Y027498D03*
X003337Y027132D03*
X003371Y027066D03*
X004002Y032619D03*
X001375Y034049D03*
X008525Y044590D03*
X008525Y044623D03*
X008491Y044689D03*
X008358Y044955D03*
X008358Y044989D03*
X008325Y045022D03*
X008192Y045321D03*
X008192Y045354D03*
X008159Y045421D03*
X008026Y045654D03*
X008026Y045687D03*
X007993Y045753D03*
X007860Y046019D03*
X007826Y046086D03*
X007826Y046119D03*
X007693Y046352D03*
X007660Y046452D03*
X007527Y046751D03*
X007494Y046784D03*
X007494Y046817D03*
X007361Y047083D03*
X007361Y047117D03*
X007328Y047150D03*
X007328Y047183D03*
X007194Y047416D03*
X007194Y047449D03*
X007161Y047482D03*
X007161Y047516D03*
X007028Y047782D03*
X008658Y044357D03*
X008658Y044323D03*
X008691Y044290D03*
X008691Y044257D03*
X021792Y044257D03*
X021825Y044290D03*
X021825Y044323D03*
X021958Y044590D03*
X021958Y044623D03*
X021992Y044656D03*
X021992Y044689D03*
X022125Y044922D03*
X022125Y044955D03*
X022158Y044989D03*
X022158Y045022D03*
X022291Y045288D03*
X022291Y045321D03*
X022324Y045354D03*
X022457Y045620D03*
X022457Y045654D03*
X022623Y045986D03*
X022623Y046019D03*
X022657Y046086D03*
X022790Y046352D03*
X022823Y046418D03*
X022823Y046452D03*
X022956Y046684D03*
X022989Y046751D03*
X022989Y046784D03*
X023122Y047083D03*
X023155Y047117D03*
X023155Y047150D03*
X023288Y047416D03*
X023322Y047482D03*
X023455Y047748D03*
X023488Y047815D03*
X029108Y034049D03*
X028808Y030457D03*
X028775Y030391D03*
X028642Y030125D03*
X028609Y030058D03*
X028476Y029792D03*
X028443Y029726D03*
X028309Y029460D03*
X028276Y029393D03*
X028143Y029127D03*
X028110Y029061D03*
X027977Y028795D03*
X027944Y028728D03*
X027811Y028462D03*
X027777Y028396D03*
X027644Y028130D03*
X027611Y028063D03*
X027478Y027797D03*
X027445Y027731D03*
X027312Y027465D03*
X027279Y027398D03*
D171*
X027146Y027099D03*
X028941Y030757D03*
X029108Y034082D03*
X022324Y045388D03*
X022490Y045720D03*
X022657Y046053D03*
X022956Y046718D03*
X023122Y047050D03*
X023288Y047383D03*
X008325Y045055D03*
X008159Y045388D03*
X007993Y045720D03*
X007860Y046053D03*
X007693Y046385D03*
X007527Y046718D03*
X001708Y030424D03*
X002040Y029759D03*
X002207Y029427D03*
X002373Y029094D03*
X002539Y028762D03*
X002705Y028429D03*
X002872Y028097D03*
X003038Y027764D03*
X003204Y027431D03*
D172*
X003271Y027265D03*
X001941Y029925D03*
X001774Y030258D03*
X008724Y044224D03*
X008624Y044390D03*
X008558Y044556D03*
X008392Y044889D03*
X008092Y045554D03*
X007926Y045886D03*
X007760Y046219D03*
X007627Y046551D03*
X007461Y046884D03*
X007294Y047216D03*
X007228Y047383D03*
X007128Y047549D03*
X007061Y047715D03*
X021859Y044390D03*
X022025Y044723D03*
X022091Y044889D03*
X022191Y045055D03*
X022258Y045221D03*
X022424Y045554D03*
X022557Y045886D03*
X022723Y046219D03*
X022889Y046551D03*
X023189Y047216D03*
X023355Y047549D03*
X023421Y047715D03*
X028875Y030590D03*
X028709Y030258D03*
X028542Y029925D03*
X028376Y029593D03*
X028210Y029260D03*
X028043Y028928D03*
X027877Y028595D03*
X027711Y028263D03*
X027545Y027930D03*
X027378Y027598D03*
X027212Y027265D03*
D173*
X027262Y027365D03*
X027329Y027498D03*
X027362Y027565D03*
X027395Y027631D03*
X027428Y027698D03*
X027495Y027831D03*
X027528Y027897D03*
X027561Y027964D03*
X027595Y028030D03*
X027661Y028163D03*
X027694Y028230D03*
X027728Y028296D03*
X027761Y028363D03*
X027827Y028496D03*
X027861Y028562D03*
X027894Y028629D03*
X027927Y028695D03*
X027994Y028828D03*
X028027Y028895D03*
X028060Y028961D03*
X028093Y029028D03*
X028160Y029161D03*
X028193Y029227D03*
X028226Y029294D03*
X028260Y029360D03*
X028326Y029493D03*
X028359Y029560D03*
X028393Y029626D03*
X028426Y029693D03*
X028492Y029826D03*
X028526Y029892D03*
X028559Y029959D03*
X028592Y030025D03*
X028659Y030158D03*
X028692Y030225D03*
X028725Y030291D03*
X028758Y030358D03*
X028825Y030491D03*
X026531Y031887D03*
X029091Y034115D03*
X028093Y041431D03*
X028692Y048114D03*
X023505Y047848D03*
X023372Y047582D03*
X023338Y047516D03*
X023072Y046950D03*
X022773Y046319D03*
X022507Y045753D03*
X022241Y045188D03*
X022208Y045122D03*
X021908Y044490D03*
X021742Y044157D03*
X021709Y044124D03*
X008774Y044157D03*
X008741Y044190D03*
X008209Y045288D03*
X007976Y045787D03*
X007943Y045853D03*
X007909Y045920D03*
X007643Y046485D03*
X007411Y046984D03*
X007111Y047615D03*
X007078Y047682D03*
X007045Y047748D03*
X006978Y047848D03*
X002423Y041431D03*
X001791Y048114D03*
X001392Y034115D03*
X003986Y031854D03*
X002223Y029393D03*
X002257Y029327D03*
X002323Y029194D03*
X002390Y029061D03*
X002423Y028994D03*
X002489Y028861D03*
X002556Y028728D03*
X002589Y028662D03*
X002656Y028529D03*
X002722Y028396D03*
X002755Y028329D03*
X002822Y028196D03*
X002888Y028063D03*
X002922Y027997D03*
X002988Y027864D03*
X003055Y027731D03*
X003088Y027664D03*
X003154Y027531D03*
X003221Y027398D03*
X002157Y029526D03*
X002090Y029659D03*
X002057Y029726D03*
X001924Y029959D03*
X001891Y030025D03*
X001824Y030158D03*
X001791Y030225D03*
X001758Y030291D03*
D174*
X001858Y030092D03*
X022806Y046385D03*
X028792Y030424D03*
X028625Y030092D03*
X028459Y029759D03*
X028293Y029427D03*
X028127Y029094D03*
X027960Y028762D03*
X027794Y028429D03*
X027628Y028097D03*
X027462Y027764D03*
X027295Y027431D03*
D175*
X026531Y032586D03*
X021775Y044224D03*
X021942Y044556D03*
X023039Y046884D03*
X023538Y047881D03*
X008475Y044723D03*
X008242Y045221D03*
X007377Y047050D03*
X001392Y034082D03*
X003986Y032586D03*
X002124Y029593D03*
X002290Y029260D03*
X002456Y028928D03*
X002622Y028595D03*
X002789Y028263D03*
X002955Y027930D03*
X003121Y027598D03*
D176*
X004435Y031189D03*
D177*
X004451Y033284D03*
X002888Y042195D03*
X026065Y033284D03*
X026065Y031189D03*
D178*
X004252Y031455D03*
X004252Y032985D03*
D179*
X026265Y032985D03*
X026265Y031488D03*
X027827Y041863D03*
D180*
X027861Y041796D03*
X029324Y046917D03*
X029324Y046950D03*
X026298Y031521D03*
X004218Y031521D03*
X004218Y032951D03*
X002656Y041830D03*
D181*
X002639Y041796D03*
X001176Y046751D03*
X001176Y046784D03*
X001176Y046817D03*
X001176Y046851D03*
X001176Y046917D03*
X001176Y046950D03*
X001176Y046984D03*
X001176Y047017D03*
X001176Y047083D03*
X001176Y047117D03*
X001209Y047183D03*
X001209Y047250D03*
X001209Y047283D03*
X026314Y031555D03*
X029307Y046684D03*
X029307Y046751D03*
X029307Y046784D03*
X029307Y046817D03*
X029307Y046851D03*
X029307Y046984D03*
X029307Y047017D03*
X029307Y047083D03*
X029307Y047117D03*
X029307Y047150D03*
X029307Y047183D03*
X029274Y047283D03*
X029274Y047316D03*
D182*
X023554Y047915D03*
X021692Y044091D03*
X026547Y032552D03*
X029074Y034148D03*
X008791Y044124D03*
X006928Y047915D03*
X001409Y034148D03*
X003969Y031887D03*
D183*
X003952Y031921D03*
X002390Y041397D03*
X026564Y031921D03*
D184*
X003919Y031954D03*
X003919Y032486D03*
D185*
X003936Y032519D03*
X001442Y034215D03*
X008890Y043991D03*
X026580Y031954D03*
X029041Y034215D03*
D186*
X026597Y032486D03*
X026597Y031987D03*
X021609Y043991D03*
X023638Y047981D03*
X002356Y041331D03*
D187*
X001957Y048181D03*
X006812Y048014D03*
X008973Y043924D03*
X003886Y032453D03*
X003886Y032020D03*
X001492Y034315D03*
X026630Y032020D03*
X028991Y034315D03*
D188*
X028958Y034381D03*
X026664Y032386D03*
X003853Y032386D03*
X003853Y032054D03*
X001525Y034381D03*
D189*
X001508Y034348D03*
X021526Y043924D03*
X026647Y032054D03*
X028975Y034348D03*
D190*
X028941Y034414D03*
X021460Y043891D03*
X009023Y043891D03*
X001542Y034414D03*
X003836Y032087D03*
D191*
X026664Y032087D03*
D192*
X026697Y032120D03*
X026697Y032320D03*
X028925Y034448D03*
X003819Y032353D03*
X003819Y032120D03*
X001558Y034448D03*
D193*
X001592Y034514D03*
X003786Y032286D03*
X003786Y032153D03*
X026730Y032187D03*
X026730Y032286D03*
X028891Y034514D03*
D194*
X028908Y034481D03*
X026713Y032153D03*
X003803Y032320D03*
X001575Y034481D03*
D195*
X001608Y034547D03*
X003770Y032187D03*
X026747Y032220D03*
X028875Y034547D03*
D196*
X003753Y032220D03*
D197*
X003753Y032253D03*
X001625Y034581D03*
X028858Y034581D03*
D198*
X026747Y032253D03*
D199*
X026680Y032353D03*
D200*
X003869Y032419D03*
D201*
X026630Y032419D03*
D202*
X026564Y032519D03*
X029058Y034182D03*
X023604Y047948D03*
X008807Y044091D03*
X006912Y047948D03*
X001425Y034182D03*
X003952Y032552D03*
D203*
X004085Y032752D03*
X001292Y046219D03*
X029191Y046219D03*
D204*
X029307Y046718D03*
X029307Y046884D03*
X029307Y047050D03*
X004202Y032918D03*
X001176Y046884D03*
X001176Y047050D03*
X001209Y047216D03*
D205*
X026298Y032918D03*
D206*
X026082Y033251D03*
D207*
X029024Y034248D03*
X001459Y034248D03*
D208*
X001658Y034614D03*
X028825Y034647D03*
D209*
X028842Y034614D03*
D210*
X028808Y034680D03*
X001675Y034647D03*
D211*
X001691Y034680D03*
X028792Y034714D03*
D212*
X001708Y034714D03*
D213*
X001725Y034747D03*
D214*
X028775Y034747D03*
D215*
X028742Y034813D03*
X001741Y034780D03*
D216*
X028758Y034780D03*
D217*
X028725Y034847D03*
X001758Y034813D03*
D218*
X001774Y034847D03*
X028709Y034880D03*
D219*
X001791Y034880D03*
D220*
X001808Y034913D03*
D221*
X028692Y034913D03*
D222*
X028659Y034980D03*
X028659Y035013D03*
X001824Y034980D03*
X001824Y034946D03*
D223*
X028675Y034946D03*
D224*
X028642Y035046D03*
X001841Y035046D03*
X001841Y035013D03*
D225*
X001858Y035079D03*
X028625Y035079D03*
D226*
X028625Y035113D03*
X028625Y035146D03*
X001858Y035113D03*
D227*
X001874Y035146D03*
X001874Y035179D03*
X028609Y035179D03*
X028609Y035212D03*
D228*
X028592Y035279D03*
X028592Y035312D03*
X028592Y035345D03*
X028592Y035379D03*
X028592Y035445D03*
X028592Y035478D03*
X028592Y035512D03*
X028592Y035545D03*
X028592Y035611D03*
X028592Y035645D03*
X028592Y035678D03*
X028592Y035711D03*
X028592Y035778D03*
X028592Y035811D03*
X028592Y035844D03*
X028592Y035877D03*
X028592Y035944D03*
X028592Y035977D03*
X028592Y036011D03*
X028592Y036044D03*
X028592Y036110D03*
X028592Y036144D03*
X028592Y036177D03*
X028592Y036210D03*
X028592Y036277D03*
X028592Y036310D03*
X028592Y036343D03*
X028592Y036376D03*
X028592Y036443D03*
X028592Y036476D03*
X028592Y036509D03*
X028592Y036543D03*
X028592Y036609D03*
X028592Y036642D03*
X028592Y036676D03*
X028592Y036709D03*
X028592Y036775D03*
X028592Y036809D03*
X028592Y036842D03*
X028592Y036875D03*
X028592Y036942D03*
X028592Y036975D03*
X028592Y037008D03*
X028592Y037041D03*
X028592Y037108D03*
X028592Y037141D03*
X028592Y037174D03*
X028592Y037208D03*
X028592Y037274D03*
X028592Y037307D03*
X028592Y037341D03*
X028592Y037374D03*
X028592Y037440D03*
X028592Y037474D03*
X028592Y037507D03*
X028592Y037540D03*
X028592Y037607D03*
X028592Y037640D03*
X028592Y037673D03*
X028592Y037706D03*
X028592Y037773D03*
X028592Y037806D03*
X028592Y037839D03*
X028592Y037873D03*
X028592Y037939D03*
X028592Y037972D03*
X028592Y038006D03*
X028592Y038039D03*
X028592Y038105D03*
X028592Y038139D03*
X028592Y038172D03*
X028592Y038205D03*
X028592Y038272D03*
X028592Y038305D03*
X028592Y038338D03*
X028592Y038371D03*
X028592Y038438D03*
X028592Y038471D03*
X028592Y038504D03*
X028592Y038538D03*
X028592Y038604D03*
X028592Y038637D03*
X028592Y038671D03*
X028592Y038704D03*
X028592Y038770D03*
X028592Y038804D03*
X028592Y038837D03*
X028592Y038870D03*
X028592Y038937D03*
X028592Y038970D03*
X028592Y039003D03*
X028592Y039036D03*
X028592Y039103D03*
X028592Y039136D03*
X028592Y039169D03*
X028592Y039203D03*
X028592Y039269D03*
X028592Y039302D03*
X028592Y039336D03*
X028592Y039369D03*
X028592Y039435D03*
X028592Y039469D03*
X028592Y039502D03*
X028592Y039535D03*
X028592Y039602D03*
X028592Y039635D03*
X028592Y039668D03*
X028592Y039701D03*
X028592Y039768D03*
X028592Y039801D03*
X028592Y039834D03*
X028592Y039868D03*
X028592Y039934D03*
X028592Y039967D03*
X028592Y040001D03*
X028592Y040034D03*
X028592Y040100D03*
X028592Y040134D03*
X028592Y040167D03*
X028592Y040200D03*
X028592Y040267D03*
X028592Y040300D03*
X028592Y040333D03*
X028592Y040367D03*
X028592Y040433D03*
X028592Y040466D03*
X028592Y040500D03*
X028592Y040533D03*
X028592Y040599D03*
X028592Y040633D03*
X028592Y040666D03*
X028592Y040699D03*
X028592Y040766D03*
X028592Y040799D03*
X028592Y040832D03*
X028592Y040865D03*
X028592Y040932D03*
X028592Y040965D03*
X028592Y040998D03*
X028592Y041032D03*
X028592Y041098D03*
X028592Y041131D03*
X028592Y041165D03*
X028592Y041198D03*
X028592Y041264D03*
X028592Y041298D03*
X001891Y035379D03*
X001891Y035345D03*
X001891Y035312D03*
X001891Y035279D03*
X001891Y035212D03*
D229*
X001891Y035246D03*
X028592Y035412D03*
X028592Y035578D03*
X028592Y035744D03*
X028592Y035911D03*
X028592Y036077D03*
X028592Y036243D03*
X028592Y036410D03*
X028592Y036576D03*
X028592Y036742D03*
X028592Y036908D03*
X028592Y037075D03*
X028592Y037241D03*
X028592Y037407D03*
X028592Y037573D03*
X028592Y037740D03*
X028592Y037906D03*
X028592Y038072D03*
X028592Y038238D03*
X028592Y038405D03*
X028592Y038571D03*
X028592Y038737D03*
X028592Y038903D03*
X028592Y039070D03*
X028592Y039236D03*
X028592Y039402D03*
X028592Y039568D03*
X028592Y039735D03*
X028592Y039901D03*
X028592Y040067D03*
X028592Y040234D03*
X028592Y040400D03*
X028592Y040566D03*
X028592Y040732D03*
X028592Y040899D03*
X028592Y041065D03*
X028592Y041231D03*
D230*
X028609Y035246D03*
D231*
X028143Y041331D03*
X008857Y044024D03*
X006862Y047981D03*
X002373Y041364D03*
D232*
X027960Y041630D03*
D233*
X027811Y041896D03*
X002705Y041896D03*
D234*
X027644Y042162D03*
D235*
X027628Y042195D03*
D236*
X015241Y043060D03*
D237*
X015241Y043093D03*
D238*
X015241Y043126D03*
D239*
X015241Y043160D03*
D240*
X015241Y043193D03*
D241*
X015241Y043226D03*
D242*
X015241Y043259D03*
D243*
X015258Y043293D03*
D244*
X015241Y043326D03*
D245*
X015258Y043359D03*
D246*
X015258Y043392D03*
D247*
X015241Y043426D03*
D248*
X015241Y043459D03*
D249*
X015241Y043492D03*
D250*
X015241Y043525D03*
D251*
X015241Y043559D03*
D252*
X015241Y043592D03*
D253*
X015258Y043625D03*
D254*
X015258Y043658D03*
D255*
X015241Y043692D03*
D256*
X015241Y043725D03*
D257*
X015258Y043758D03*
D258*
X015241Y043791D03*
D259*
X015241Y043825D03*
D260*
X015258Y043858D03*
D261*
X021559Y043958D03*
X008924Y043958D03*
D262*
X008840Y044057D03*
D263*
X001525Y047881D03*
D264*
X028975Y047881D03*
D265*
X028875Y047981D03*
X001608Y047981D03*
D266*
X005316Y048048D03*
D267*
X025184Y048048D03*
D268*
X005283Y048081D03*
D269*
X025217Y048081D03*
D270*
X025267Y048114D03*
X005216Y048114D03*
D271*
X005166Y048147D03*
X025317Y048147D03*
D272*
X005083Y048181D03*
D273*
X025417Y048181D03*
D274*
X028542Y048181D03*
D275*
X004351Y048214D03*
D276*
X026148Y048214D03*
D277*
X026148Y048247D03*
X004368Y048247D03*
D278*
X004368Y048280D03*
D279*
X026131Y048280D03*
D280*
X026131Y048314D03*
X004385Y048314D03*
D281*
X004385Y048347D03*
D282*
X026115Y048347D03*
D283*
X026115Y048380D03*
X004401Y048380D03*
D284*
X004401Y048413D03*
X026082Y048413D03*
D285*
X026082Y048447D03*
D286*
X004435Y048480D03*
D287*
X026065Y048480D03*
D288*
X004451Y048513D03*
D289*
X026048Y048513D03*
D290*
X026032Y048546D03*
X004451Y048546D03*
D291*
X004468Y048580D03*
X026015Y048580D03*
D292*
X004484Y048613D03*
D293*
X026015Y048613D03*
D294*
X004501Y048646D03*
D295*
X025998Y048646D03*
D296*
X004518Y048680D03*
D297*
X025982Y048680D03*
D298*
X025949Y048713D03*
X004534Y048713D03*
D299*
X004551Y048746D03*
D300*
X025949Y048746D03*
D301*
X004568Y048779D03*
D302*
X025932Y048779D03*
D303*
X025899Y048813D03*
X004584Y048813D03*
D304*
X004634Y048846D03*
D305*
X025865Y048846D03*
D306*
X028787Y038691D02*
X028789Y038718D01*
X028795Y038744D01*
X028804Y038769D01*
X028817Y038792D01*
X028833Y038813D01*
X028852Y038832D01*
X028873Y038848D01*
X028896Y038861D01*
X028921Y038870D01*
X028947Y038876D01*
X028974Y038878D01*
X029001Y038876D01*
X029027Y038870D01*
X029052Y038861D01*
X029075Y038848D01*
X029096Y038832D01*
X029115Y038813D01*
X029131Y038792D01*
X029144Y038769D01*
X029153Y038744D01*
X029159Y038718D01*
X029161Y038691D01*
X029159Y038664D01*
X029153Y038638D01*
X029144Y038613D01*
X029131Y038590D01*
X029115Y038569D01*
X029096Y038550D01*
X029075Y038534D01*
X029052Y038521D01*
X029027Y038512D01*
X029001Y038506D01*
X028974Y038504D01*
X028947Y038506D01*
X028921Y038512D01*
X028896Y038521D01*
X028873Y038534D01*
X028852Y038550D01*
X028833Y038569D01*
X028817Y038590D01*
X028804Y038613D01*
X028795Y038638D01*
X028789Y038664D01*
X028787Y038691D01*
X028787Y037786D02*
X028789Y037813D01*
X028795Y037839D01*
X028804Y037864D01*
X028817Y037887D01*
X028833Y037908D01*
X028852Y037927D01*
X028873Y037943D01*
X028896Y037956D01*
X028921Y037965D01*
X028947Y037971D01*
X028974Y037973D01*
X029001Y037971D01*
X029027Y037965D01*
X029052Y037956D01*
X029075Y037943D01*
X029096Y037927D01*
X029115Y037908D01*
X029131Y037887D01*
X029144Y037864D01*
X029153Y037839D01*
X029159Y037813D01*
X029161Y037786D01*
X029159Y037759D01*
X029153Y037733D01*
X029144Y037708D01*
X029131Y037685D01*
X029115Y037664D01*
X029096Y037645D01*
X029075Y037629D01*
X029052Y037616D01*
X029027Y037607D01*
X029001Y037601D01*
X028974Y037599D01*
X028947Y037601D01*
X028921Y037607D01*
X028896Y037616D01*
X028873Y037629D01*
X028852Y037645D01*
X028833Y037664D01*
X028817Y037685D01*
X028804Y037708D01*
X028795Y037733D01*
X028789Y037759D01*
X028787Y037786D01*
X016292Y004727D02*
X016294Y004748D01*
X016300Y004768D01*
X016309Y004788D01*
X016321Y004805D01*
X016336Y004819D01*
X016354Y004831D01*
X016374Y004839D01*
X016394Y004844D01*
X016415Y004845D01*
X016436Y004842D01*
X016456Y004836D01*
X016475Y004825D01*
X016492Y004812D01*
X016505Y004796D01*
X016516Y004778D01*
X016524Y004758D01*
X016528Y004738D01*
X016528Y004716D01*
X016524Y004696D01*
X016516Y004676D01*
X016505Y004658D01*
X016492Y004642D01*
X016475Y004629D01*
X016456Y004618D01*
X016436Y004612D01*
X016415Y004609D01*
X016394Y004610D01*
X016374Y004615D01*
X016354Y004623D01*
X016336Y004635D01*
X016321Y004649D01*
X016309Y004666D01*
X016300Y004686D01*
X016294Y004706D01*
X016292Y004727D01*
X014016Y004727D02*
X014018Y004748D01*
X014024Y004768D01*
X014033Y004788D01*
X014045Y004805D01*
X014060Y004819D01*
X014078Y004831D01*
X014098Y004839D01*
X014118Y004844D01*
X014139Y004845D01*
X014160Y004842D01*
X014180Y004836D01*
X014199Y004825D01*
X014216Y004812D01*
X014229Y004796D01*
X014240Y004778D01*
X014248Y004758D01*
X014252Y004738D01*
X014252Y004716D01*
X014248Y004696D01*
X014240Y004676D01*
X014229Y004658D01*
X014216Y004642D01*
X014199Y004629D01*
X014180Y004618D01*
X014160Y004612D01*
X014139Y004609D01*
X014118Y004610D01*
X014098Y004615D01*
X014078Y004623D01*
X014060Y004635D01*
X014045Y004649D01*
X014033Y004666D01*
X014024Y004686D01*
X014018Y004706D01*
X014016Y004727D01*
X001322Y037786D02*
X001324Y037813D01*
X001330Y037839D01*
X001339Y037864D01*
X001352Y037887D01*
X001368Y037908D01*
X001387Y037927D01*
X001408Y037943D01*
X001431Y037956D01*
X001456Y037965D01*
X001482Y037971D01*
X001509Y037973D01*
X001536Y037971D01*
X001562Y037965D01*
X001587Y037956D01*
X001610Y037943D01*
X001631Y037927D01*
X001650Y037908D01*
X001666Y037887D01*
X001679Y037864D01*
X001688Y037839D01*
X001694Y037813D01*
X001696Y037786D01*
X001694Y037759D01*
X001688Y037733D01*
X001679Y037708D01*
X001666Y037685D01*
X001650Y037664D01*
X001631Y037645D01*
X001610Y037629D01*
X001587Y037616D01*
X001562Y037607D01*
X001536Y037601D01*
X001509Y037599D01*
X001482Y037601D01*
X001456Y037607D01*
X001431Y037616D01*
X001408Y037629D01*
X001387Y037645D01*
X001368Y037664D01*
X001352Y037685D01*
X001339Y037708D01*
X001330Y037733D01*
X001324Y037759D01*
X001322Y037786D01*
X001322Y038691D02*
X001324Y038718D01*
X001330Y038744D01*
X001339Y038769D01*
X001352Y038792D01*
X001368Y038813D01*
X001387Y038832D01*
X001408Y038848D01*
X001431Y038861D01*
X001456Y038870D01*
X001482Y038876D01*
X001509Y038878D01*
X001536Y038876D01*
X001562Y038870D01*
X001587Y038861D01*
X001610Y038848D01*
X001631Y038832D01*
X001650Y038813D01*
X001666Y038792D01*
X001679Y038769D01*
X001688Y038744D01*
X001694Y038718D01*
X001696Y038691D01*
X001694Y038664D01*
X001688Y038638D01*
X001679Y038613D01*
X001666Y038590D01*
X001650Y038569D01*
X001631Y038550D01*
X001610Y038534D01*
X001587Y038521D01*
X001562Y038512D01*
X001536Y038506D01*
X001509Y038504D01*
X001482Y038506D01*
X001456Y038512D01*
X001431Y038521D01*
X001408Y038534D01*
X001387Y038550D01*
X001368Y038569D01*
X001352Y038590D01*
X001339Y038613D01*
X001330Y038638D01*
X001324Y038664D01*
X001322Y038691D01*
D307*
X006431Y039240D02*
X006431Y032940D01*
X024069Y032940D01*
X024069Y039240D01*
X006431Y039240D01*
D308*
X023250Y030840D02*
X024000Y030590D01*
X024000Y031090D01*
X023250Y030840D01*
X023299Y030824D02*
X024000Y030824D01*
X024000Y030872D02*
X023346Y030872D01*
X023445Y030775D02*
X024000Y030775D01*
X024000Y030727D02*
X023590Y030727D01*
X023736Y030678D02*
X024000Y030678D01*
X024000Y030630D02*
X023881Y030630D01*
X024000Y030921D02*
X023492Y030921D01*
X023637Y030969D02*
X024000Y030969D01*
X024000Y031018D02*
X023783Y031018D01*
X023928Y031066D02*
X024000Y031066D01*
D309*
X024140Y027729D02*
X020440Y027729D01*
X020440Y010091D01*
X024140Y010091D01*
X024140Y027729D01*
X024790Y026160D02*
X024290Y025910D01*
X024790Y025660D01*
X024790Y026160D01*
X024790Y026096D02*
X024661Y026096D01*
X024790Y025997D02*
X024464Y025997D01*
X024313Y025899D02*
X024790Y025899D01*
X024790Y025800D02*
X024510Y025800D01*
X024707Y025702D02*
X024790Y025702D01*
X017750Y025702D02*
X017667Y025702D01*
X017750Y025660D02*
X017750Y026160D01*
X017250Y025910D01*
X017750Y025660D01*
X017750Y025800D02*
X017470Y025800D01*
X017424Y025997D02*
X017750Y025997D01*
X017750Y025899D02*
X017273Y025899D01*
X017621Y026096D02*
X017750Y026096D01*
X017100Y027729D02*
X013400Y027729D01*
X013400Y010091D01*
X017100Y010091D01*
X017100Y027729D01*
X010700Y026160D02*
X010700Y025660D01*
X010200Y025910D01*
X010700Y026160D01*
X010700Y026096D02*
X010571Y026096D01*
X010700Y025997D02*
X010374Y025997D01*
X010223Y025899D02*
X010700Y025899D01*
X010700Y025800D02*
X010420Y025800D01*
X010617Y025702D02*
X010700Y025702D01*
X010050Y027729D02*
X006350Y027729D01*
X006350Y010091D01*
X010050Y010091D01*
X010050Y027729D01*
M02*
