%
M48
M72
T01C0.0100
T02C0.0236
T03C0.0374
T04C0.0394
T05C0.1299
%
T01
X9210Y41160
X9660Y39160
X10560Y36110
X9210Y31560
X7410Y31060
X7310Y27310
X10010Y27660
X12360Y29360
X16310Y37110
X16760Y39710
X19110Y41460
X23260Y6510
X21960Y4360
X19910Y6260
X18860Y6410
X17610Y6410
X16217Y5706
X14860Y6160
X14360Y5710
X14860Y7160
X14860Y8410
X16110Y7660
X18610Y3910
X8860Y8910
X10110Y10610
X11910Y12860
X13110Y10610
X5210Y10160
X7260Y10710
X6060Y13460
X5810Y15960
X6360Y16910
X6110Y17910
X5860Y18910
X5610Y19910
X5360Y20910
X5110Y21910
X3910Y22560
X4310Y26960
X4010Y31160
X4160Y33010
X5410Y35860
X4810Y39510
X2260Y36710
X3960Y18210
X3860Y13860
X19010Y12860
X21960Y10510
X25110Y9810
X25610Y12510
X26560Y16210
X26460Y19410
X25110Y20910
X24860Y19910
X24610Y18910
X24360Y17910
X24110Y16910
X25360Y21910
X25610Y22910
X25860Y23910
X26610Y23160
X26460Y26460
X25910Y29810
X27160Y33260
X28710Y31710
X28910Y35610
X28160Y39910
X26510Y40360
X23810Y39160
X23360Y36960
X21310Y36960
X23910Y33060
X23510Y30860
X21260Y31710
X20210Y27010
X23060Y26960
X25560Y35610
T02
X13579Y4943
X14134Y4727
X13579Y3290
X16410Y4727
X16965Y4943
X16965Y3290
T03
X1509Y38691
X1509Y37786
X28974Y38691
X28974Y37786
T04
X9250Y32840
X10250Y32840
X11250Y32840
X12250Y32840
X13250Y32840
X14250Y32840
X15250Y32840
X16250Y32840
X17250Y32840
X18250Y32840
X19250Y32840
X20250Y32840
X21250Y32840
X22250Y32840
X22250Y30840
X21250Y30840
X20250Y30840
X19250Y30840
X18250Y30840
X17250Y30840
X16250Y30840
X15250Y30840
X14250Y30840
X13250Y30840
X12250Y30840
X11250Y30840
X10250Y30840
X9250Y30840
X8250Y30840
X8250Y32840
X9200Y25910
X9200Y24910
X9200Y23910
X9200Y22910
X9200Y21910
X9200Y20910
X9200Y19910
X9200Y18910
X9200Y17910
X9200Y16910
X9200Y15910
X9200Y14910
X9200Y13910
X9200Y12910
X9200Y11910
X7200Y11910
X7200Y12910
X7200Y13910
X7200Y14910
X7200Y15910
X7200Y16910
X7200Y17910
X7200Y18910
X7200Y19910
X7200Y20910
X7200Y21910
X7200Y22910
X7200Y23910
X7200Y24910
X7200Y25910
X14250Y25910
X14250Y24910
X14250Y23910
X14250Y22910
X14250Y21910
X14250Y20910
X14250Y19910
X14250Y18910
X14250Y17910
X14250Y16910
X14250Y15910
X14250Y14910
X14250Y13910
X14250Y12910
X14250Y11910
X16250Y11910
X16250Y12910
X16250Y13910
X16250Y14910
X16250Y15910
X16250Y16910
X16250Y17910
X16250Y18910
X16250Y19910
X16250Y20910
X16250Y21910
X16250Y22910
X16250Y23910
X16250Y24910
X16250Y25910
X21290Y25910
X21290Y24910
X21290Y23910
X21290Y22910
X21290Y21910
X21290Y20910
X21290Y19910
X21290Y18910
X21290Y17910
X21290Y16910
X21290Y15910
X21290Y14910
X21290Y13910
X21290Y12910
X21290Y11910
X23290Y11910
X23290Y12910
X23290Y13910
X23290Y14910
X23290Y15910
X23290Y16910
X23290Y17910
X23290Y18910
X23290Y19910
X23290Y20910
X23290Y21910
X23290Y22910
X23290Y23910
X23290Y24910
X23290Y25910
T05
X2689Y46967
X5266Y3972
X25234Y3972
X27794Y46967
M30
