G75*
G70*
%OFA0B0*%
%FSLAX24Y24*%
%IPPOS*%
%LPD*%
%AMOC8*
5,1,8,0,0,1.08239X$1,22.5*
%
%ADD10R,1.9505X0.0033*%
%ADD11R,2.0103X0.0033*%
%ADD12R,2.0435X0.0033*%
%ADD13R,2.0668X0.0033*%
%ADD14R,0.0532X0.0033*%
%ADD15R,0.0432X0.0033*%
%ADD16R,0.0399X0.0033*%
%ADD17R,0.0366X0.0033*%
%ADD18R,0.0332X0.0033*%
%ADD19R,0.0299X0.0033*%
%ADD20R,0.0266X0.0033*%
%ADD21R,0.0233X0.0033*%
%ADD22R,0.0199X0.0033*%
%ADD23R,0.0166X0.0033*%
%ADD24R,0.0133X0.0033*%
%ADD25R,0.0100X0.0033*%
%ADD26R,1.0733X0.0033*%
%ADD27R,1.1032X0.0033*%
%ADD28R,1.1231X0.0033*%
%ADD29R,1.1397X0.0033*%
%ADD30R,0.0498X0.0033*%
%ADD31R,0.0465X0.0033*%
%ADD32R,0.4552X0.0033*%
%ADD33R,0.4353X0.0033*%
%ADD34R,0.4154X0.0033*%
%ADD35R,0.4087X0.0033*%
%ADD36R,0.3888X0.0033*%
%ADD37R,0.3655X0.0033*%
%ADD38R,0.3423X0.0033*%
%ADD39R,0.5154X0.0033*%
%ADD40R,0.5121X0.0033*%
%ADD41R,0.5221X0.0033*%
%ADD42R,0.5287X0.0033*%
%ADD43R,0.5254X0.0033*%
%ADD44R,0.5320X0.0033*%
%ADD45R,0.5320X0.0033*%
%ADD46R,0.5354X0.0033*%
%ADD47R,0.5354X0.0033*%
%ADD48R,0.5354X0.0033*%
%ADD49R,0.5387X0.0033*%
%ADD50R,0.5420X0.0033*%
%ADD51R,0.5420X0.0033*%
%ADD52R,0.5420X0.0033*%
%ADD53R,0.5453X0.0033*%
%ADD54R,0.5487X0.0033*%
%ADD55R,0.5520X0.0033*%
%ADD56R,0.5553X0.0033*%
%ADD57R,0.5586X0.0033*%
%ADD58R,0.5620X0.0033*%
%ADD59R,0.5653X0.0033*%
%ADD60R,0.5719X0.0033*%
%ADD61R,0.5686X0.0033*%
%ADD62R,0.5786X0.0033*%
%ADD63R,0.5753X0.0033*%
%ADD64R,0.5852X0.0033*%
%ADD65R,0.6019X0.0033*%
%ADD66R,1.7491X0.0033*%
%ADD67R,1.7491X0.0033*%
%ADD68R,1.7524X0.0033*%
%ADD69R,1.7524X0.0033*%
%ADD70R,1.7557X0.0033*%
%ADD71R,1.7590X0.0033*%
%ADD72R,1.7624X0.0033*%
%ADD73R,1.7657X0.0033*%
%ADD74R,1.7690X0.0033*%
%ADD75R,1.7723X0.0033*%
%ADD76R,0.0033X0.0033*%
%ADD77R,0.0033X0.0033*%
%ADD78R,1.7757X0.0033*%
%ADD79R,1.7790X0.0033*%
%ADD80R,0.0067X0.0033*%
%ADD81R,1.7856X0.0033*%
%ADD82R,0.0100X0.0033*%
%ADD83R,1.7890X0.0033*%
%ADD84R,1.7923X0.0033*%
%ADD85R,0.0133X0.0033*%
%ADD86R,0.0133X0.0033*%
%ADD87R,1.7989X0.0033*%
%ADD88R,0.0166X0.0033*%
%ADD89R,0.0166X0.0033*%
%ADD90R,1.8023X0.0033*%
%ADD91R,0.0200X0.0033*%
%ADD92R,1.8089X0.0033*%
%ADD93R,1.8156X0.0033*%
%ADD94R,0.0233X0.0033*%
%ADD95R,1.8189X0.0033*%
%ADD96R,0.0266X0.0033*%
%ADD97R,0.0266X0.0033*%
%ADD98R,1.8255X0.0033*%
%ADD99R,0.0299X0.0033*%
%ADD100R,0.0299X0.0033*%
%ADD101R,1.8322X0.0033*%
%ADD102R,0.0333X0.0033*%
%ADD103R,0.0366X0.0033*%
%ADD104R,1.8422X0.0033*%
%ADD105R,0.0399X0.0033*%
%ADD106R,1.8488X0.0033*%
%ADD107R,0.0432X0.0033*%
%ADD108R,1.8588X0.0033*%
%ADD109R,0.0466X0.0033*%
%ADD110R,0.0499X0.0033*%
%ADD111R,1.8688X0.0033*%
%ADD112R,0.0532X0.0033*%
%ADD113R,1.8787X0.0033*%
%ADD114R,0.0565X0.0033*%
%ADD115R,0.0599X0.0033*%
%ADD116R,1.8920X0.0033*%
%ADD117R,0.0632X0.0033*%
%ADD118R,0.0665X0.0033*%
%ADD119R,1.9053X0.0033*%
%ADD120R,0.0698X0.0033*%
%ADD121R,0.0765X0.0033*%
%ADD122R,1.9220X0.0033*%
%ADD123R,0.0865X0.0033*%
%ADD124R,1.9486X0.0033*%
%ADD125R,0.0898X0.0033*%
%ADD126R,2.2312X0.0033*%
%ADD127R,2.2312X0.0033*%
%ADD128R,1.1206X0.0033*%
%ADD129R,1.0807X0.0033*%
%ADD130R,1.1139X0.0033*%
%ADD131R,1.0707X0.0033*%
%ADD132R,1.1073X0.0033*%
%ADD133R,1.0641X0.0033*%
%ADD134R,1.1040X0.0033*%
%ADD135R,1.0607X0.0033*%
%ADD136R,1.1006X0.0033*%
%ADD137R,1.0574X0.0033*%
%ADD138R,1.0973X0.0033*%
%ADD139R,1.0541X0.0033*%
%ADD140R,1.0541X0.0033*%
%ADD141R,1.1106X0.0033*%
%ADD142R,1.0508X0.0033*%
%ADD143R,1.1605X0.0033*%
%ADD144R,0.9211X0.0033*%
%ADD145R,0.2062X0.0033*%
%ADD146R,1.0474X0.0033*%
%ADD147R,0.8346X0.0033*%
%ADD148R,0.0599X0.0033*%
%ADD149R,0.0399X0.0033*%
%ADD150R,0.0366X0.0033*%
%ADD151R,0.0565X0.0033*%
%ADD152R,0.0200X0.0033*%
%ADD153R,0.0432X0.0033*%
%ADD154R,0.0266X0.0033*%
%ADD155R,0.8446X0.0033*%
%ADD156R,0.8346X0.0033*%
%ADD157R,0.0100X0.0033*%
%ADD158R,0.8413X0.0033*%
%ADD159R,0.0432X0.0033*%
%ADD160R,0.0033X0.0033*%
%ADD161R,0.0366X0.0033*%
%ADD162R,0.0266X0.0033*%
%ADD163R,0.0233X0.0033*%
%ADD164R,0.0333X0.0033*%
%ADD165R,0.8413X0.0033*%
%ADD166R,0.0200X0.0033*%
%ADD167R,0.8379X0.0033*%
%ADD168R,0.8379X0.0033*%
%ADD169R,0.0100X0.0033*%
%ADD170R,0.0466X0.0033*%
%ADD171R,0.0499X0.0033*%
%ADD172R,0.0200X0.0033*%
%ADD173R,0.8446X0.0033*%
%ADD174R,0.0432X0.0033*%
%ADD175R,0.0067X0.0033*%
%ADD176R,0.0100X0.0033*%
%ADD177R,0.0532X0.0033*%
%ADD178R,0.8513X0.0033*%
%ADD179R,1.2736X0.0033*%
%ADD180R,0.8479X0.0033*%
%ADD181R,1.2769X0.0033*%
%ADD182R,0.8479X0.0033*%
%ADD183R,1.2769X0.0033*%
%ADD184R,1.3633X0.0033*%
%ADD185R,1.3600X0.0033*%
%ADD186R,1.3600X0.0033*%
%ADD187R,0.5254X0.0033*%
%ADD188R,0.2727X0.0033*%
%ADD189R,0.0898X0.0033*%
%ADD190R,0.3491X0.0033*%
%ADD191R,0.8878X0.0033*%
%ADD192R,0.5187X0.0033*%
%ADD193R,0.0698X0.0033*%
%ADD194R,0.0798X0.0033*%
%ADD195R,0.0599X0.0033*%
%ADD196R,0.0665X0.0033*%
%ADD197R,0.0632X0.0033*%
%ADD198R,0.5354X0.0033*%
%ADD199R,0.5121X0.0033*%
%ADD200R,0.5088X0.0033*%
%ADD201R,0.5054X0.0033*%
%ADD202R,0.0732X0.0033*%
%ADD203R,0.5021X0.0033*%
%ADD204R,0.5021X0.0033*%
%ADD205R,0.0366X0.0033*%
%ADD206R,0.0765X0.0033*%
%ADD207R,0.0532X0.0033*%
%ADD208R,0.5154X0.0033*%
%ADD209R,0.0831X0.0033*%
%ADD210R,0.5520X0.0033*%
%ADD211R,0.5487X0.0033*%
%ADD212R,0.0698X0.0033*%
%ADD213R,0.0865X0.0033*%
%ADD214R,0.0698X0.0033*%
%ADD215R,0.5088X0.0033*%
%ADD216R,0.0865X0.0033*%
%ADD217R,0.0931X0.0033*%
%ADD218R,0.0798X0.0033*%
%ADD219R,0.5054X0.0033*%
%ADD220R,0.0732X0.0033*%
%ADD221R,0.0599X0.0033*%
%ADD222R,0.0765X0.0033*%
%ADD223R,0.5254X0.0033*%
%ADD224R,0.0931X0.0033*%
%ADD225R,0.1064X0.0033*%
%ADD226R,0.0998X0.0033*%
%ADD227R,0.1031X0.0033*%
%ADD228R,0.2893X0.0033*%
%ADD229R,0.1064X0.0033*%
%ADD230R,0.3691X0.0033*%
%ADD231R,0.8978X0.0033*%
%ADD232R,0.6085X0.0033*%
%ADD233R,0.5886X0.0033*%
%ADD234R,0.5686X0.0033*%
%ADD235R,0.5586X0.0033*%
%ADD236R,0.5520X0.0033*%
%ADD237R,0.5221X0.0033*%
%ADD238R,0.4988X0.0033*%
%ADD239R,0.4955X0.0033*%
%ADD240R,0.4988X0.0033*%
%ADD241R,0.4921X0.0033*%
%ADD242R,0.4888X0.0033*%
%ADD243R,0.4855X0.0033*%
%ADD244R,0.4822X0.0033*%
%ADD245R,0.4855X0.0033*%
%ADD246R,0.4822X0.0033*%
%ADD247R,0.4788X0.0033*%
%ADD248R,0.4755X0.0033*%
%ADD249R,0.4722X0.0033*%
%ADD250R,0.4722X0.0033*%
%ADD251R,1.0109X0.0033*%
%ADD252R,0.4689X0.0033*%
%ADD253R,1.0375X0.0033*%
%ADD254R,0.4655X0.0033*%
%ADD255R,1.0574X0.0033*%
%ADD256R,0.4622X0.0033*%
%ADD257R,1.0840X0.0033*%
%ADD258R,0.4589X0.0033*%
%ADD259R,1.0940X0.0033*%
%ADD260R,0.4622X0.0033*%
%ADD261R,0.4589X0.0033*%
%ADD262R,0.4556X0.0033*%
%ADD263R,1.1206X0.0033*%
%ADD264R,0.4522X0.0033*%
%ADD265R,1.1272X0.0033*%
%ADD266R,0.4522X0.0033*%
%ADD267R,1.1339X0.0033*%
%ADD268R,0.4489X0.0033*%
%ADD269R,1.1405X0.0033*%
%ADD270R,1.1439X0.0033*%
%ADD271R,0.4456X0.0033*%
%ADD272R,1.1505X0.0033*%
%ADD273R,1.1538X0.0033*%
%ADD274R,0.4423X0.0033*%
%ADD275R,1.1605X0.0033*%
%ADD276R,0.4456X0.0033*%
%ADD277R,0.4423X0.0033*%
%ADD278R,1.1638X0.0033*%
%ADD279R,0.4389X0.0033*%
%ADD280R,1.1671X0.0033*%
%ADD281R,1.1705X0.0033*%
%ADD282R,0.4356X0.0033*%
%ADD283R,1.1738X0.0033*%
%ADD284R,0.4356X0.0033*%
%ADD285R,1.1771X0.0033*%
%ADD286R,0.4323X0.0033*%
%ADD287R,1.1804X0.0033*%
%ADD288R,1.1838X0.0033*%
%ADD289R,0.4290X0.0033*%
%ADD290R,1.1871X0.0033*%
%ADD291R,1.1904X0.0033*%
%ADD292R,0.4256X0.0033*%
%ADD293R,1.1937X0.0033*%
%ADD294R,0.4290X0.0033*%
%ADD295R,0.4256X0.0033*%
%ADD296R,1.1971X0.0033*%
%ADD297R,0.4223X0.0033*%
%ADD298R,1.2004X0.0033*%
%ADD299R,1.2037X0.0033*%
%ADD300R,0.4190X0.0033*%
%ADD301R,1.2070X0.0033*%
%ADD302R,0.4190X0.0033*%
%ADD303R,1.2104X0.0033*%
%ADD304R,0.4156X0.0033*%
%ADD305R,1.2137X0.0033*%
%ADD306R,1.2170X0.0033*%
%ADD307R,0.4123X0.0033*%
%ADD308R,1.2203X0.0033*%
%ADD309R,1.2237X0.0033*%
%ADD310R,0.4090X0.0033*%
%ADD311R,1.2270X0.0033*%
%ADD312R,0.4123X0.0033*%
%ADD313R,0.4090X0.0033*%
%ADD314R,1.2303X0.0033*%
%ADD315R,0.4057X0.0033*%
%ADD316R,1.2336X0.0033*%
%ADD317R,1.2370X0.0033*%
%ADD318R,0.4023X0.0033*%
%ADD319R,1.2403X0.0033*%
%ADD320R,0.4023X0.0033*%
%ADD321R,1.2436X0.0033*%
%ADD322R,0.3990X0.0033*%
%ADD323R,1.2469X0.0033*%
%ADD324R,1.2503X0.0033*%
%ADD325R,0.3957X0.0033*%
%ADD326R,1.2536X0.0033*%
%ADD327R,1.2569X0.0033*%
%ADD328R,0.3924X0.0033*%
%ADD329R,1.2602X0.0033*%
%ADD330R,0.3957X0.0033*%
%ADD331R,0.3924X0.0033*%
%ADD332R,1.2636X0.0033*%
%ADD333R,0.3890X0.0033*%
%ADD334R,1.2669X0.0033*%
%ADD335R,1.2702X0.0033*%
%ADD336R,0.3857X0.0033*%
%ADD337R,0.3857X0.0033*%
%ADD338R,0.3824X0.0033*%
%ADD339R,1.2802X0.0033*%
%ADD340R,1.2835X0.0033*%
%ADD341R,0.3791X0.0033*%
%ADD342R,1.2869X0.0033*%
%ADD343R,1.2902X0.0033*%
%ADD344R,0.3757X0.0033*%
%ADD345R,1.2935X0.0033*%
%ADD346R,0.3791X0.0033*%
%ADD347R,0.3757X0.0033*%
%ADD348R,1.2968X0.0033*%
%ADD349R,0.3724X0.0033*%
%ADD350R,1.3002X0.0033*%
%ADD351R,1.3035X0.0033*%
%ADD352R,0.3691X0.0033*%
%ADD353R,1.3068X0.0033*%
%ADD354R,0.3691X0.0033*%
%ADD355R,1.3101X0.0033*%
%ADD356R,0.3658X0.0033*%
%ADD357R,1.3135X0.0033*%
%ADD358R,1.3168X0.0033*%
%ADD359R,0.3624X0.0033*%
%ADD360R,1.3201X0.0033*%
%ADD361R,1.3234X0.0033*%
%ADD362R,0.3591X0.0033*%
%ADD363R,1.3268X0.0033*%
%ADD364R,0.3624X0.0033*%
%ADD365R,0.3591X0.0033*%
%ADD366R,1.3301X0.0033*%
%ADD367R,0.3558X0.0033*%
%ADD368R,1.3334X0.0033*%
%ADD369R,1.3367X0.0033*%
%ADD370R,0.3525X0.0033*%
%ADD371R,1.3401X0.0033*%
%ADD372R,0.3525X0.0033*%
%ADD373R,1.3434X0.0033*%
%ADD374R,1.3467X0.0033*%
%ADD375R,1.3500X0.0033*%
%ADD376R,0.3458X0.0033*%
%ADD377R,1.3534X0.0033*%
%ADD378R,1.3567X0.0033*%
%ADD379R,0.3425X0.0033*%
%ADD380R,0.3458X0.0033*%
%ADD381R,0.3425X0.0033*%
%ADD382R,0.3392X0.0033*%
%ADD383R,1.3667X0.0033*%
%ADD384R,1.3700X0.0033*%
%ADD385R,0.3358X0.0033*%
%ADD386R,1.3733X0.0033*%
%ADD387R,0.3358X0.0033*%
%ADD388R,1.3766X0.0033*%
%ADD389R,0.3325X0.0033*%
%ADD390R,1.3800X0.0033*%
%ADD391R,1.3833X0.0033*%
%ADD392R,0.3292X0.0033*%
%ADD393R,1.3866X0.0033*%
%ADD394R,1.3899X0.0033*%
%ADD395R,0.3259X0.0033*%
%ADD396R,1.3933X0.0033*%
%ADD397R,0.3292X0.0033*%
%ADD398R,0.3259X0.0033*%
%ADD399R,1.3966X0.0033*%
%ADD400R,0.3225X0.0033*%
%ADD401R,1.3999X0.0033*%
%ADD402R,1.4032X0.0033*%
%ADD403R,0.3192X0.0033*%
%ADD404R,1.4066X0.0033*%
%ADD405R,0.3192X0.0033*%
%ADD406R,1.4099X0.0033*%
%ADD407R,0.3159X0.0033*%
%ADD408R,1.4132X0.0033*%
%ADD409R,1.4165X0.0033*%
%ADD410R,0.3126X0.0033*%
%ADD411R,1.4199X0.0033*%
%ADD412R,1.4232X0.0033*%
%ADD413R,0.3092X0.0033*%
%ADD414R,1.4265X0.0033*%
%ADD415R,0.3126X0.0033*%
%ADD416R,0.3092X0.0033*%
%ADD417R,1.4298X0.0033*%
%ADD418R,0.3059X0.0033*%
%ADD419R,1.4332X0.0033*%
%ADD420R,1.4365X0.0033*%
%ADD421R,0.3026X0.0033*%
%ADD422R,1.4398X0.0033*%
%ADD423R,0.3026X0.0033*%
%ADD424R,1.4431X0.0033*%
%ADD425R,0.2993X0.0033*%
%ADD426R,1.4465X0.0033*%
%ADD427R,1.4498X0.0033*%
%ADD428R,0.2959X0.0033*%
%ADD429R,1.4531X0.0033*%
%ADD430R,1.4564X0.0033*%
%ADD431R,0.2926X0.0033*%
%ADD432R,1.4598X0.0033*%
%ADD433R,0.2959X0.0033*%
%ADD434R,0.2926X0.0033*%
%ADD435R,1.4631X0.0033*%
%ADD436R,0.2893X0.0033*%
%ADD437R,1.4664X0.0033*%
%ADD438R,1.4697X0.0033*%
%ADD439R,0.2860X0.0033*%
%ADD440R,1.4731X0.0033*%
%ADD441R,0.2860X0.0033*%
%ADD442R,1.4764X0.0033*%
%ADD443R,0.2826X0.0033*%
%ADD444R,1.4797X0.0033*%
%ADD445R,1.4830X0.0033*%
%ADD446R,0.2793X0.0033*%
%ADD447R,1.4864X0.0033*%
%ADD448R,0.2760X0.0033*%
%ADD449R,1.4897X0.0033*%
%ADD450R,0.2760X0.0033*%
%ADD451R,1.4930X0.0033*%
%ADD452R,1.4963X0.0033*%
%ADD453R,0.2693X0.0033*%
%ADD454R,1.4997X0.0033*%
%ADD455R,0.2660X0.0033*%
%ADD456R,1.5030X0.0033*%
%ADD457R,0.2627X0.0033*%
%ADD458R,1.5063X0.0033*%
%ADD459R,0.2594X0.0033*%
%ADD460R,1.5096X0.0033*%
%ADD461R,0.2527X0.0033*%
%ADD462R,1.5130X0.0033*%
%ADD463R,0.2560X0.0033*%
%ADD464R,0.2494X0.0033*%
%ADD465R,1.5163X0.0033*%
%ADD466R,0.2427X0.0033*%
%ADD467R,1.5196X0.0033*%
%ADD468R,0.2461X0.0033*%
%ADD469R,0.2361X0.0033*%
%ADD470R,1.5229X0.0033*%
%ADD471R,0.2394X0.0033*%
%ADD472R,0.2294X0.0033*%
%ADD473R,1.5296X0.0033*%
%ADD474R,0.2195X0.0033*%
%ADD475R,1.5329X0.0033*%
%ADD476R,0.2028X0.0033*%
%ADD477R,1.5362X0.0033*%
%ADD478R,1.5429X0.0033*%
%ADD479R,1.5462X0.0033*%
%ADD480R,1.5529X0.0033*%
%ADD481R,1.5595X0.0033*%
%ADD482R,1.5628X0.0033*%
%ADD483R,1.5695X0.0033*%
%ADD484R,1.5761X0.0033*%
%ADD485R,1.5828X0.0033*%
%ADD486R,1.5894X0.0033*%
%ADD487R,1.5961X0.0033*%
%ADD488R,1.6027X0.0033*%
%ADD489R,1.6127X0.0033*%
%ADD490R,1.6194X0.0033*%
%ADD491R,1.6293X0.0033*%
%ADD492R,1.6393X0.0033*%
%ADD493R,1.6493X0.0033*%
%ADD494R,1.6593X0.0033*%
%ADD495R,1.6692X0.0033*%
%ADD496R,1.6825X0.0033*%
%ADD497R,1.6959X0.0033*%
%ADD498R,1.7125X0.0033*%
%ADD499R,1.7291X0.0033*%
%ADD500R,1.8222X0.0033*%
%ADD501R,2.2345X0.0033*%
%ADD502R,2.2345X0.0033*%
%ADD503R,2.2379X0.0033*%
%ADD504R,2.2412X0.0033*%
%ADD505R,2.2412X0.0033*%
%ADD506R,2.2445X0.0033*%
%ADD507R,2.2445X0.0033*%
%ADD508R,2.2478X0.0033*%
%ADD509R,2.2512X0.0033*%
%ADD510R,2.2512X0.0033*%
%ADD511R,2.2545X0.0033*%
%ADD512R,2.2578X0.0033*%
%ADD513R,2.2578X0.0033*%
%ADD514R,2.2611X0.0033*%
%ADD515R,2.2645X0.0033*%
%ADD516R,2.2678X0.0033*%
%ADD517R,2.2678X0.0033*%
%ADD518R,2.2711X0.0033*%
%ADD519R,2.2744X0.0033*%
%ADD520R,2.2778X0.0033*%
%ADD521R,2.2778X0.0033*%
%ADD522R,2.2811X0.0033*%
%ADD523R,2.2844X0.0033*%
%ADD524R,2.2877X0.0033*%
%ADD525R,2.2911X0.0033*%
%ADD526R,2.2944X0.0033*%
%ADD527R,2.2977X0.0033*%
%ADD528R,2.3010X0.0033*%
%ADD529R,2.3044X0.0033*%
%ADD530R,2.3077X0.0033*%
%ADD531R,2.3110X0.0033*%
%ADD532R,2.3143X0.0033*%
%ADD533R,2.3177X0.0033*%
%ADD534R,2.3210X0.0033*%
%ADD535R,2.3243X0.0033*%
%ADD536R,2.3276X0.0033*%
%ADD537R,2.3310X0.0033*%
%ADD538R,2.3343X0.0033*%
%ADD539R,2.3376X0.0033*%
%ADD540R,2.3409X0.0033*%
%ADD541R,2.3443X0.0033*%
%ADD542R,2.3476X0.0033*%
%ADD543R,2.3509X0.0033*%
%ADD544R,2.3542X0.0033*%
%ADD545R,2.3576X0.0033*%
%ADD546R,2.3609X0.0033*%
%ADD547R,2.3642X0.0033*%
%ADD548R,2.3675X0.0033*%
%ADD549R,2.3709X0.0033*%
%ADD550R,2.3742X0.0033*%
%ADD551R,2.3775X0.0033*%
%ADD552R,2.3808X0.0033*%
%ADD553R,2.3842X0.0033*%
%ADD554R,2.3875X0.0033*%
%ADD555R,2.3908X0.0033*%
%ADD556R,2.3941X0.0033*%
%ADD557R,2.3975X0.0033*%
%ADD558R,2.4008X0.0033*%
%ADD559R,2.4041X0.0033*%
%ADD560R,2.4074X0.0033*%
%ADD561R,2.4108X0.0033*%
%ADD562R,2.4141X0.0033*%
%ADD563R,2.4174X0.0033*%
%ADD564R,2.4207X0.0033*%
%ADD565R,2.4241X0.0033*%
%ADD566R,2.4274X0.0033*%
%ADD567R,2.4307X0.0033*%
%ADD568R,2.4340X0.0033*%
%ADD569R,2.4374X0.0033*%
%ADD570R,2.4407X0.0033*%
%ADD571R,2.4440X0.0033*%
%ADD572R,2.4473X0.0033*%
%ADD573R,2.4507X0.0033*%
%ADD574R,2.4540X0.0033*%
%ADD575R,2.4573X0.0033*%
%ADD576R,2.4606X0.0033*%
%ADD577R,2.4640X0.0033*%
%ADD578R,2.4673X0.0033*%
%ADD579R,2.4706X0.0033*%
%ADD580R,2.4739X0.0033*%
%ADD581R,2.4773X0.0033*%
%ADD582R,2.4806X0.0033*%
%ADD583R,2.4839X0.0033*%
%ADD584R,2.4872X0.0033*%
%ADD585R,2.4906X0.0033*%
%ADD586R,2.4939X0.0033*%
%ADD587R,2.4972X0.0033*%
%ADD588R,2.5005X0.0033*%
%ADD589R,2.5039X0.0033*%
%ADD590R,2.5072X0.0033*%
%ADD591R,2.5105X0.0033*%
%ADD592R,2.5138X0.0033*%
%ADD593R,2.5172X0.0033*%
%ADD594R,2.5205X0.0033*%
%ADD595R,2.5238X0.0033*%
%ADD596R,2.5271X0.0033*%
%ADD597R,2.5305X0.0033*%
%ADD598R,2.5338X0.0033*%
%ADD599R,2.5371X0.0033*%
%ADD600R,2.5405X0.0033*%
%ADD601R,2.5438X0.0033*%
%ADD602R,2.5471X0.0033*%
%ADD603R,2.5504X0.0033*%
%ADD604R,2.5538X0.0033*%
%ADD605R,2.5571X0.0033*%
%ADD606R,2.5604X0.0033*%
%ADD607R,2.5637X0.0033*%
%ADD608R,2.5671X0.0033*%
%ADD609R,2.5737X0.0033*%
%ADD610R,2.5804X0.0033*%
%ADD611R,2.5870X0.0033*%
%ADD612R,2.5870X0.0033*%
%ADD613R,2.5937X0.0033*%
%ADD614R,2.5970X0.0033*%
%ADD615R,2.6003X0.0033*%
%ADD616R,2.6036X0.0033*%
%ADD617R,2.6070X0.0033*%
%ADD618R,2.6103X0.0033*%
%ADD619R,2.6136X0.0033*%
%ADD620R,2.6169X0.0033*%
%ADD621R,2.6203X0.0033*%
%ADD622R,2.6236X0.0033*%
%ADD623R,2.6269X0.0033*%
%ADD624R,2.6302X0.0033*%
%ADD625R,2.6336X0.0033*%
%ADD626R,2.6369X0.0033*%
%ADD627R,2.6402X0.0033*%
%ADD628R,2.6435X0.0033*%
%ADD629R,2.6469X0.0033*%
%ADD630R,2.6502X0.0033*%
%ADD631R,2.6535X0.0033*%
%ADD632R,2.6568X0.0033*%
%ADD633R,2.6602X0.0033*%
%ADD634R,2.6635X0.0033*%
%ADD635R,2.6668X0.0033*%
%ADD636R,2.6701X0.0033*%
%ADD637R,2.6735X0.0033*%
%ADD638R,2.6768X0.0033*%
%ADD639R,2.6768X0.0033*%
%ADD640R,2.6801X0.0033*%
%ADD641R,2.6834X0.0033*%
%ADD642R,2.6834X0.0033*%
%ADD643R,2.6868X0.0033*%
%ADD644R,2.6901X0.0033*%
%ADD645R,2.6901X0.0033*%
%ADD646R,2.6934X0.0033*%
%ADD647R,2.6967X0.0033*%
%ADD648R,2.6967X0.0033*%
%ADD649R,2.7001X0.0033*%
%ADD650R,2.7001X0.0033*%
%ADD651R,1.3301X0.0033*%
%ADD652R,1.3002X0.0033*%
%ADD653R,1.2669X0.0033*%
%ADD654R,1.2569X0.0033*%
%ADD655R,1.2469X0.0033*%
%ADD656R,1.2270X0.0033*%
%ADD657R,1.2170X0.0033*%
%ADD658R,1.2104X0.0033*%
%ADD659R,1.2037X0.0033*%
%ADD660R,1.1937X0.0033*%
%ADD661R,0.1230X0.0033*%
%ADD662R,0.1530X0.0033*%
%ADD663R,1.1738X0.0033*%
%ADD664R,0.1762X0.0033*%
%ADD665R,1.1638X0.0033*%
%ADD666R,0.1962X0.0033*%
%ADD667R,1.1572X0.0033*%
%ADD668R,0.2161X0.0033*%
%ADD669R,0.2328X0.0033*%
%ADD670R,1.1372X0.0033*%
%ADD671R,1.1339X0.0033*%
%ADD672R,1.1272X0.0033*%
%ADD673R,1.1173X0.0033*%
%ADD674R,1.0973X0.0033*%
%ADD675R,1.0907X0.0033*%
%ADD676R,0.3325X0.0033*%
%ADD677R,1.0807X0.0033*%
%ADD678R,1.0774X0.0033*%
%ADD679R,0.3525X0.0033*%
%ADD680R,1.0740X0.0033*%
%ADD681R,1.0674X0.0033*%
%ADD682R,0.2228X0.0033*%
%ADD683R,0.2195X0.0033*%
%ADD684R,1.0408X0.0033*%
%ADD685R,1.0341X0.0033*%
%ADD686R,1.0275X0.0033*%
%ADD687R,0.1397X0.0033*%
%ADD688R,1.0208X0.0033*%
%ADD689R,0.1264X0.0033*%
%ADD690R,1.0242X0.0033*%
%ADD691R,1.0142X0.0033*%
%ADD692R,1.0175X0.0033*%
%ADD693R,1.0075X0.0033*%
%ADD694R,0.0865X0.0033*%
%ADD695R,0.1131X0.0033*%
%ADD696R,1.0109X0.0033*%
%ADD697R,1.0042X0.0033*%
%ADD698R,0.1097X0.0033*%
%ADD699R,0.9976X0.0033*%
%ADD700R,0.1031X0.0033*%
%ADD701R,0.9909X0.0033*%
%ADD702R,0.0998X0.0033*%
%ADD703R,0.0964X0.0033*%
%ADD704R,0.9942X0.0033*%
%ADD705R,0.9843X0.0033*%
%ADD706R,0.9876X0.0033*%
%ADD707R,0.9776X0.0033*%
%ADD708R,0.9809X0.0033*%
%ADD709R,0.1197X0.0033*%
%ADD710R,0.1164X0.0033*%
%ADD711R,0.9743X0.0033*%
%ADD712R,0.9710X0.0033*%
%ADD713R,0.1264X0.0033*%
%ADD714R,0.9643X0.0033*%
%ADD715R,0.1297X0.0033*%
%ADD716R,0.1230X0.0033*%
%ADD717R,0.9676X0.0033*%
%ADD718R,0.9643X0.0033*%
%ADD719R,0.1363X0.0033*%
%ADD720R,0.9610X0.0033*%
%ADD721R,0.9577X0.0033*%
%ADD722R,0.1430X0.0033*%
%ADD723R,0.9543X0.0033*%
%ADD724R,0.1496X0.0033*%
%ADD725R,0.1563X0.0033*%
%ADD726R,0.9510X0.0033*%
%ADD727R,0.9477X0.0033*%
%ADD728R,0.1629X0.0033*%
%ADD729R,0.9510X0.0033*%
%ADD730R,0.9477X0.0033*%
%ADD731R,0.1696X0.0033*%
%ADD732R,0.9444X0.0033*%
%ADD733R,0.1729X0.0033*%
%ADD734R,0.1796X0.0033*%
%ADD735R,0.1264X0.0033*%
%ADD736R,0.9410X0.0033*%
%ADD737R,0.1895X0.0033*%
%ADD738R,0.9377X0.0033*%
%ADD739R,0.9344X0.0033*%
%ADD740R,0.1929X0.0033*%
%ADD741R,0.0831X0.0033*%
%ADD742R,0.9377X0.0033*%
%ADD743R,0.9344X0.0033*%
%ADD744R,0.1995X0.0033*%
%ADD745R,0.9311X0.0033*%
%ADD746R,0.2028X0.0033*%
%ADD747R,0.2095X0.0033*%
%ADD748R,0.9277X0.0033*%
%ADD749R,0.9277X0.0033*%
%ADD750R,0.0931X0.0033*%
%ADD751R,0.9311X0.0033*%
%ADD752R,0.1929X0.0033*%
%ADD753R,0.2294X0.0033*%
%ADD754R,0.9244X0.0033*%
%ADD755R,0.2261X0.0033*%
%ADD756R,0.1929X0.0033*%
%ADD757R,0.9211X0.0033*%
%ADD758R,0.2228X0.0033*%
%ADD759R,0.1962X0.0033*%
%ADD760R,0.2195X0.0033*%
%ADD761R,0.9178X0.0033*%
%ADD762R,0.9144X0.0033*%
%ADD763R,0.9144X0.0033*%
%ADD764R,0.2161X0.0033*%
%ADD765R,0.9178X0.0033*%
%ADD766R,0.2128X0.0033*%
%ADD767R,0.9111X0.0033*%
%ADD768R,0.9111X0.0033*%
%ADD769R,0.1995X0.0033*%
%ADD770R,0.2128X0.0033*%
%ADD771R,0.9078X0.0033*%
%ADD772R,0.9045X0.0033*%
%ADD773R,0.2028X0.0033*%
%ADD774R,0.9078X0.0033*%
%ADD775R,0.9045X0.0033*%
%ADD776R,0.2062X0.0033*%
%ADD777R,0.9011X0.0033*%
%ADD778R,0.0964X0.0033*%
%ADD779R,0.9011X0.0033*%
%ADD780R,0.8978X0.0033*%
%ADD781R,0.2261X0.0033*%
%ADD782R,0.0765X0.0033*%
%ADD783R,0.1031X0.0033*%
%ADD784R,0.1097X0.0033*%
%ADD785R,0.1097X0.0033*%
%ADD786R,0.1330X0.0033*%
%ADD787R,0.1430X0.0033*%
%ADD788R,0.1530X0.0033*%
%ADD789R,0.1031X0.0033*%
%ADD790R,0.1663X0.0033*%
%ADD791R,0.1829X0.0033*%
%ADD792R,0.1197X0.0033*%
%ADD793R,0.1796X0.0033*%
%ADD794R,0.1097X0.0033*%
%ADD795R,0.1762X0.0033*%
%ADD796R,0.1696X0.0033*%
%ADD797R,0.1197X0.0033*%
%ADD798R,0.1629X0.0033*%
%ADD799R,0.1596X0.0033*%
%ADD800R,0.2028X0.0033*%
%ADD801R,0.1862X0.0033*%
%ADD802R,0.1496X0.0033*%
%ADD803R,0.1762X0.0033*%
%ADD804R,0.1463X0.0033*%
%ADD805R,0.1596X0.0033*%
%ADD806R,0.9244X0.0033*%
%ADD807R,0.1430X0.0033*%
%ADD808R,0.1563X0.0033*%
%ADD809R,0.1530X0.0033*%
%ADD810R,0.1463X0.0033*%
%ADD811R,0.1297X0.0033*%
%ADD812R,0.9410X0.0033*%
%ADD813R,0.0033X0.0033*%
%ADD814R,0.9444X0.0033*%
%ADD815R,0.1131X0.0033*%
%ADD816R,0.9543X0.0033*%
%ADD817R,0.9577X0.0033*%
%ADD818R,0.0931X0.0033*%
%ADD819R,0.9676X0.0033*%
%ADD820R,0.9776X0.0033*%
%ADD821R,0.1596X0.0033*%
%ADD822R,0.1596X0.0033*%
%ADD823R,0.9909X0.0033*%
%ADD824R,0.9909X0.0033*%
%ADD825R,0.1895X0.0033*%
%ADD826R,0.9942X0.0033*%
%ADD827R,1.0009X0.0033*%
%ADD828R,0.3591X0.0033*%
%ADD829R,1.0075X0.0033*%
%ADD830R,0.3491X0.0033*%
%ADD831R,1.0208X0.0033*%
%ADD832R,0.3192X0.0033*%
%ADD833R,1.0242X0.0033*%
%ADD834R,1.0275X0.0033*%
%ADD835R,1.0308X0.0033*%
%ADD836R,0.2860X0.0033*%
%ADD837R,1.0341X0.0033*%
%ADD838R,0.2594X0.0033*%
%ADD839R,1.0441X0.0033*%
%ADD840R,1.0508X0.0033*%
%ADD841R,0.2261X0.0033*%
%ADD842R,1.0674X0.0033*%
%ADD843R,0.1696X0.0033*%
%ADD844R,1.0774X0.0033*%
%ADD845R,1.0873X0.0033*%
%ADD846R,1.0907X0.0033*%
%ADD847R,1.0940X0.0033*%
%ADD848R,1.1006X0.0033*%
%ADD849R,1.1139X0.0033*%
%ADD850R,1.1173X0.0033*%
%ADD851R,1.1239X0.0033*%
%ADD852R,1.1705X0.0033*%
%ADD853R,1.1738X0.0033*%
%ADD854R,1.1904X0.0033*%
%ADD855R,2.4706X0.0033*%
%ADD856R,1.1339X0.0033*%
%ADD857R,1.1306X0.0033*%
%ADD858R,1.1306X0.0033*%
%ADD859R,1.1239X0.0033*%
%ADD860R,1.1671X0.0033*%
%ADD861R,1.1538X0.0033*%
%ADD862R,1.1671X0.0033*%
%ADD863R,1.1372X0.0033*%
%ADD864R,1.2336X0.0033*%
%ADD865R,0.7847X0.0033*%
%ADD866R,0.7814X0.0033*%
%ADD867R,0.7681X0.0033*%
%ADD868R,0.7681X0.0033*%
%ADD869R,0.7581X0.0033*%
%ADD870R,0.7482X0.0033*%
%ADD871R,0.7415X0.0033*%
%ADD872R,0.7349X0.0033*%
%ADD873R,0.7349X0.0033*%
%ADD874R,0.7282X0.0033*%
%ADD875R,0.7249X0.0033*%
%ADD876R,0.7216X0.0033*%
%ADD877R,0.7182X0.0033*%
%ADD878R,0.7182X0.0033*%
%ADD879R,0.7149X0.0033*%
%ADD880R,0.7116X0.0033*%
%ADD881R,0.7116X0.0033*%
%ADD882R,0.7083X0.0033*%
%ADD883R,0.7049X0.0033*%
%ADD884R,0.7016X0.0033*%
%ADD885R,0.7016X0.0033*%
%ADD886R,0.6983X0.0033*%
%ADD887R,0.6950X0.0033*%
%ADD888R,0.6916X0.0033*%
%ADD889R,0.6883X0.0033*%
%ADD890R,0.6850X0.0033*%
%ADD891R,0.6850X0.0033*%
%ADD892R,0.6817X0.0033*%
%ADD893R,0.6783X0.0033*%
%ADD894R,0.6783X0.0033*%
%ADD895R,0.6750X0.0033*%
%ADD896R,0.6717X0.0033*%
%ADD897R,0.6684X0.0033*%
%ADD898R,0.6684X0.0033*%
%ADD899R,0.6684X0.0033*%
%ADD900R,0.6650X0.0033*%
%ADD901R,0.6650X0.0033*%
%ADD902R,0.6617X0.0033*%
%ADD903R,0.6584X0.0033*%
%ADD904R,0.6584X0.0033*%
%ADD905R,0.6551X0.0033*%
%ADD906R,0.6517X0.0033*%
%ADD907R,0.6517X0.0033*%
%ADD908R,0.6517X0.0033*%
%ADD909R,0.6517X0.0033*%
%ADD910R,0.6484X0.0033*%
%ADD911R,0.6451X0.0033*%
%ADD912R,0.6451X0.0033*%
%ADD913R,0.6418X0.0033*%
%ADD914R,0.6418X0.0033*%
%ADD915R,0.6384X0.0033*%
%ADD916R,0.6351X0.0033*%
%ADD917R,0.6351X0.0033*%
%ADD918R,0.6351X0.0033*%
%ADD919R,0.6351X0.0033*%
%ADD920R,0.6318X0.0033*%
%ADD921R,0.6285X0.0033*%
%ADD922R,0.6285X0.0033*%
%ADD923R,0.6251X0.0033*%
%ADD924R,0.6251X0.0033*%
%ADD925R,0.6218X0.0033*%
%ADD926R,0.6218X0.0033*%
%ADD927R,0.6185X0.0033*%
%ADD928R,0.6185X0.0033*%
%ADD929R,0.6185X0.0033*%
%ADD930R,0.6152X0.0033*%
%ADD931R,0.6118X0.0033*%
%ADD932R,0.6118X0.0033*%
%ADD933R,0.6085X0.0033*%
%ADD934R,0.6052X0.0033*%
%ADD935R,0.6052X0.0033*%
%ADD936R,0.6019X0.0033*%
%ADD937R,0.6019X0.0033*%
%ADD938R,0.5985X0.0033*%
%ADD939R,0.5985X0.0033*%
%ADD940R,0.5952X0.0033*%
%ADD941R,0.5952X0.0033*%
%ADD942R,0.5919X0.0033*%
%ADD943R,0.5886X0.0033*%
%ADD944R,0.5852X0.0033*%
%ADD945R,0.5819X0.0033*%
%ADD946R,0.4556X0.0033*%
%ADD947R,0.4522X0.0033*%
%ADD948R,0.4423X0.0033*%
%ADD949R,0.3924X0.0033*%
%ADD950R,0.3857X0.0033*%
%ADD951R,0.3824X0.0033*%
%ADD952R,0.3757X0.0033*%
%ADD953R,0.3691X0.0033*%
%ADD954R,0.3425X0.0033*%
%ADD955R,0.3358X0.0033*%
%ADD956R,0.3159X0.0033*%
%ADD957R,0.3092X0.0033*%
%ADD958R,0.3059X0.0033*%
%ADD959R,0.3026X0.0033*%
%ADD960R,0.2993X0.0033*%
%ADD961R,0.2926X0.0033*%
%ADD962R,0.3026X0.0033*%
%ADD963C,0.0050*%
%ADD964C,0.0000*%
D10*
X015248Y002160D03*
D11*
X015248Y002193D03*
D12*
X015248Y002226D03*
D13*
X015231Y002260D03*
D14*
X005063Y002293D03*
X025399Y002293D03*
D15*
X025549Y002326D03*
X004947Y002326D03*
X024053Y048813D03*
D16*
X028257Y048779D03*
X006625Y048813D03*
X002239Y048779D03*
X004831Y002359D03*
D17*
X025648Y002359D03*
X025748Y002393D03*
X020830Y043994D03*
X023920Y048779D03*
X028340Y048746D03*
D18*
X028423Y048713D03*
X009649Y043994D03*
X006725Y048779D03*
X002139Y048746D03*
X004665Y002426D03*
X004731Y002393D03*
X025831Y002426D03*
D19*
X025881Y002459D03*
X004582Y002459D03*
X004515Y002492D03*
X009566Y044028D03*
X002056Y048713D03*
X001990Y048680D03*
X020897Y044028D03*
X023854Y048746D03*
D20*
X023771Y048713D03*
X023704Y048680D03*
X023605Y048613D03*
X020980Y044061D03*
X028489Y048680D03*
X028556Y048646D03*
X028622Y048613D03*
X009516Y044061D03*
X009450Y044094D03*
X006858Y048713D03*
X006791Y048746D03*
X001940Y048646D03*
X001873Y048613D03*
X004299Y002625D03*
X004399Y002559D03*
X004465Y002526D03*
X025964Y002492D03*
X026030Y002526D03*
X026130Y002592D03*
D21*
X026080Y002559D03*
X026180Y002625D03*
X026246Y002658D03*
X026280Y002692D03*
X026313Y002725D03*
X004349Y002592D03*
X004249Y002658D03*
X004216Y002692D03*
X004116Y002758D03*
X004083Y002791D03*
X009400Y044127D03*
X006941Y048646D03*
X006908Y048680D03*
X001824Y048580D03*
X001757Y048547D03*
X001724Y048514D03*
X001624Y048447D03*
X001591Y048414D03*
X001558Y048381D03*
X021030Y044094D03*
X021096Y044127D03*
X021129Y044161D03*
X023522Y048547D03*
X023555Y048580D03*
X023655Y048646D03*
X028672Y048580D03*
X028705Y048547D03*
X028772Y048514D03*
X028805Y048480D03*
D22*
X028855Y048447D03*
X028888Y048414D03*
X028921Y048381D03*
X028955Y048347D03*
X023472Y048514D03*
X023439Y048480D03*
X023405Y048447D03*
X023372Y048414D03*
X023339Y048381D03*
X023306Y048347D03*
X021279Y044294D03*
X021246Y044260D03*
X021212Y044227D03*
X021179Y044194D03*
X009350Y044161D03*
X009317Y044194D03*
X009283Y044227D03*
X009250Y044260D03*
X009217Y044294D03*
X009184Y044327D03*
X009150Y044360D03*
X007157Y048447D03*
X007124Y048480D03*
X007090Y048514D03*
X007057Y048547D03*
X007024Y048580D03*
X006991Y048613D03*
X001674Y048480D03*
X001508Y048347D03*
X001475Y048314D03*
X001441Y048281D03*
X001342Y048148D03*
X003767Y003124D03*
X003867Y002991D03*
X003900Y002957D03*
X003934Y002924D03*
X003967Y002891D03*
X004000Y002858D03*
X004033Y002825D03*
X004166Y002725D03*
X026363Y002758D03*
X026396Y002791D03*
X026429Y002825D03*
X026462Y002858D03*
X026496Y002891D03*
X026529Y002924D03*
X026562Y002957D03*
X026595Y002991D03*
X026629Y003024D03*
X026662Y003057D03*
X026695Y003090D03*
D23*
X026712Y003124D03*
X026745Y003157D03*
X026778Y003190D03*
X026778Y003223D03*
X026811Y003257D03*
X026845Y003290D03*
X026845Y003323D03*
X026878Y003356D03*
X026911Y003423D03*
X026944Y003489D03*
X026977Y003556D03*
X027011Y003622D03*
X027044Y003689D03*
X027443Y026815D03*
X027509Y026982D03*
X027576Y027148D03*
X027609Y027214D03*
X027642Y027281D03*
X027675Y027347D03*
X027709Y027414D03*
X027742Y027480D03*
X027775Y027546D03*
X027808Y027613D03*
X027841Y027679D03*
X027875Y027746D03*
X027908Y027812D03*
X027941Y027879D03*
X027974Y027945D03*
X028008Y028012D03*
X028041Y028078D03*
X028074Y028145D03*
X028107Y028211D03*
X028140Y028277D03*
X028174Y028344D03*
X028207Y028410D03*
X028240Y028477D03*
X028273Y028543D03*
X028307Y028610D03*
X028340Y028676D03*
X028373Y028743D03*
X028406Y028809D03*
X028440Y028876D03*
X028473Y028942D03*
X028506Y029009D03*
X028539Y029075D03*
X028572Y029141D03*
X029104Y030171D03*
X029137Y030238D03*
X029237Y030471D03*
X029270Y030537D03*
X021295Y044327D03*
X021329Y044360D03*
X021362Y044393D03*
X021395Y044460D03*
X021428Y044493D03*
X021561Y044792D03*
X021594Y044858D03*
X021628Y044925D03*
X021661Y044991D03*
X021694Y045058D03*
X021727Y045124D03*
X021827Y045357D03*
X021860Y045423D03*
X021894Y045490D03*
X021927Y045556D03*
X021960Y045623D03*
X021993Y045689D03*
X022126Y045988D03*
X022159Y046055D03*
X022193Y046121D03*
X022226Y046188D03*
X022259Y046254D03*
X022292Y046320D03*
X022392Y046553D03*
X022425Y046620D03*
X022458Y046686D03*
X022492Y046752D03*
X022525Y046819D03*
X022558Y046885D03*
X022658Y047118D03*
X022691Y047184D03*
X022724Y047251D03*
X022757Y047317D03*
X022791Y047384D03*
X022824Y047450D03*
X022957Y047749D03*
X022990Y047816D03*
X023023Y047882D03*
X023057Y047949D03*
X023090Y048015D03*
X023123Y048082D03*
X023156Y048148D03*
X023189Y048181D03*
X023189Y048214D03*
X023223Y048248D03*
X023256Y048281D03*
X023289Y048314D03*
X029137Y048148D03*
X029171Y048115D03*
X029204Y048082D03*
X029204Y048048D03*
X029237Y048015D03*
X029270Y047982D03*
X029303Y047915D03*
X029337Y047849D03*
X029370Y047783D03*
X029403Y047716D03*
X009134Y044393D03*
X009101Y044426D03*
X009067Y044493D03*
X008968Y044692D03*
X008934Y044759D03*
X008901Y044825D03*
X008868Y044892D03*
X008835Y044958D03*
X008802Y045025D03*
X008702Y045257D03*
X008669Y045324D03*
X008635Y045390D03*
X008602Y045457D03*
X008569Y045523D03*
X008536Y045589D03*
X008503Y045656D03*
X008403Y045889D03*
X008370Y045955D03*
X008336Y046021D03*
X008303Y046088D03*
X008270Y046154D03*
X008237Y046221D03*
X008137Y046453D03*
X008104Y046520D03*
X008071Y046586D03*
X008037Y046653D03*
X008004Y046719D03*
X007971Y046786D03*
X007838Y047085D03*
X007805Y047151D03*
X007771Y047218D03*
X007738Y047284D03*
X007705Y047351D03*
X007672Y047417D03*
X007572Y047650D03*
X007539Y047716D03*
X007506Y047783D03*
X007472Y047849D03*
X007439Y047915D03*
X007406Y047982D03*
X007306Y048214D03*
X007273Y048281D03*
X007240Y048314D03*
X007207Y048381D03*
X007173Y048414D03*
X001425Y048248D03*
X001392Y048214D03*
X001358Y048181D03*
X001325Y048115D03*
X001292Y048082D03*
X001259Y048048D03*
X001226Y047982D03*
X001192Y047949D03*
X001159Y047882D03*
X001126Y047816D03*
X001093Y047749D03*
X001059Y047683D03*
X001159Y030670D03*
X001226Y030504D03*
X001259Y030437D03*
X001491Y029972D03*
X001525Y029906D03*
X001558Y029839D03*
X001591Y029773D03*
X001624Y029706D03*
X001657Y029640D03*
X001691Y029573D03*
X001724Y029507D03*
X001757Y029440D03*
X001790Y029374D03*
X001824Y029308D03*
X001857Y029241D03*
X001890Y029175D03*
X001923Y029108D03*
X001957Y029042D03*
X001990Y028975D03*
X002023Y028909D03*
X002056Y028842D03*
X002089Y028776D03*
X002123Y028709D03*
X002156Y028643D03*
X002189Y028577D03*
X002222Y028510D03*
X002256Y028444D03*
X002289Y028377D03*
X002322Y028311D03*
X002355Y028244D03*
X002389Y028178D03*
X002422Y028111D03*
X002455Y028045D03*
X002488Y027978D03*
X002521Y027912D03*
X002555Y027846D03*
X002588Y027779D03*
X002621Y027713D03*
X002654Y027646D03*
X002688Y027580D03*
X002721Y027513D03*
X002754Y027447D03*
X002787Y027380D03*
X002820Y027314D03*
X002854Y027247D03*
X002887Y027181D03*
X002920Y027114D03*
X002987Y026948D03*
X003452Y003655D03*
X003485Y003589D03*
X003518Y003522D03*
X003551Y003456D03*
X003585Y003389D03*
X003618Y003323D03*
X003651Y003290D03*
X003684Y003257D03*
X003684Y003223D03*
X003718Y003190D03*
X003751Y003157D03*
X003784Y003090D03*
X003817Y003057D03*
X003851Y003024D03*
D24*
X003369Y003855D03*
X003369Y003888D03*
X003369Y003921D03*
X003336Y003954D03*
X003336Y003988D03*
X003336Y004021D03*
X003336Y004054D03*
X003302Y004120D03*
X003302Y004154D03*
X003302Y004187D03*
X003302Y004220D03*
X003269Y004353D03*
X003269Y004386D03*
X003269Y004420D03*
X003269Y004453D03*
X003269Y004486D03*
X003269Y004519D03*
X003269Y004552D03*
X003269Y004586D03*
X003269Y004619D03*
X003269Y004652D03*
X003269Y004685D03*
X003269Y004719D03*
X003269Y004752D03*
X003269Y004785D03*
X003269Y004818D03*
X003269Y004851D03*
X003269Y004885D03*
X003269Y004918D03*
X003269Y004951D03*
X003269Y004984D03*
X003269Y005018D03*
X003269Y005051D03*
X003269Y005084D03*
X003269Y005117D03*
X003269Y005151D03*
X003269Y005184D03*
X003269Y005217D03*
X003269Y005250D03*
X003269Y005283D03*
X003269Y005317D03*
X003269Y005350D03*
X003269Y005383D03*
X003269Y005416D03*
X003269Y005450D03*
X003269Y005483D03*
X003269Y005516D03*
X003269Y005549D03*
X003269Y005583D03*
X003269Y005616D03*
X003269Y005649D03*
X003269Y005682D03*
X003269Y005715D03*
X003269Y005749D03*
X003269Y005782D03*
X003269Y005815D03*
X003269Y005848D03*
X003269Y005882D03*
X003269Y005915D03*
X003269Y005948D03*
X003269Y005981D03*
X003269Y006014D03*
X003269Y006048D03*
X003269Y006081D03*
X003269Y006114D03*
X003269Y006147D03*
X003269Y006181D03*
X003269Y006214D03*
X003269Y006247D03*
X003269Y006280D03*
X003269Y006314D03*
X003269Y006347D03*
X003269Y006380D03*
X003269Y006413D03*
X003269Y006446D03*
X003269Y006480D03*
X003269Y006513D03*
X003269Y006546D03*
X003269Y006579D03*
X003269Y006613D03*
X003269Y006646D03*
X003269Y006679D03*
X003269Y006712D03*
X003269Y006746D03*
X003269Y006779D03*
X003269Y006812D03*
X003269Y006845D03*
X003269Y006878D03*
X003269Y006912D03*
X003269Y006945D03*
X003269Y006978D03*
X003269Y007011D03*
X003269Y007045D03*
X003269Y007078D03*
X003269Y007111D03*
X003269Y007144D03*
X003269Y007177D03*
X003269Y007211D03*
X003269Y007244D03*
X003269Y007277D03*
X003269Y007310D03*
X003269Y007344D03*
X003269Y007377D03*
X003269Y007410D03*
X003269Y007443D03*
X003269Y007477D03*
X003269Y007510D03*
X003269Y007543D03*
X003269Y007576D03*
X003269Y007609D03*
X003269Y007643D03*
X003269Y007676D03*
X003269Y007709D03*
X003269Y007742D03*
X003269Y007776D03*
X003269Y007809D03*
X003269Y007842D03*
X003269Y007875D03*
X003269Y007909D03*
X003269Y007942D03*
X003269Y007975D03*
X003269Y008008D03*
X003269Y008041D03*
X003269Y008075D03*
X003269Y008108D03*
X003269Y008141D03*
X003269Y008174D03*
X003269Y008208D03*
X003269Y008241D03*
X003269Y008274D03*
X003269Y008307D03*
X003269Y008340D03*
X003269Y008374D03*
X003269Y008407D03*
X003269Y008440D03*
X003269Y008473D03*
X003269Y008507D03*
X003269Y008540D03*
X003269Y008573D03*
X003269Y008606D03*
X003269Y008640D03*
X003269Y008673D03*
X003269Y008706D03*
X003269Y008739D03*
X003269Y008772D03*
X003269Y008806D03*
X003269Y008839D03*
X003269Y008872D03*
X003269Y008905D03*
X003269Y008939D03*
X003269Y008972D03*
X003269Y009005D03*
X003269Y009038D03*
X003269Y009071D03*
X003269Y009105D03*
X003269Y009138D03*
X003269Y009171D03*
X003269Y009204D03*
X003269Y009238D03*
X003269Y009271D03*
X003269Y009304D03*
X003269Y009337D03*
X003269Y009371D03*
X003269Y009404D03*
X003269Y009437D03*
X003269Y009470D03*
X003269Y009503D03*
X003269Y009537D03*
X003269Y009570D03*
X003269Y009603D03*
X003269Y009636D03*
X003269Y009670D03*
X003269Y009703D03*
X003269Y009736D03*
X003269Y009769D03*
X003269Y009803D03*
X003269Y009836D03*
X003269Y009869D03*
X003269Y009902D03*
X003269Y009935D03*
X003269Y009969D03*
X003269Y010002D03*
X003269Y010035D03*
X003269Y010068D03*
X003269Y010102D03*
X003269Y010135D03*
X003269Y010168D03*
X003269Y010201D03*
X003269Y010234D03*
X003269Y010268D03*
X003269Y010301D03*
X003269Y010334D03*
X003269Y010367D03*
X003269Y010401D03*
X003269Y010434D03*
X003269Y010467D03*
X003269Y010500D03*
X003269Y010534D03*
X003269Y010567D03*
X003269Y010600D03*
X003269Y010633D03*
X003269Y010666D03*
X003269Y010700D03*
X003269Y010733D03*
X003269Y010766D03*
X003269Y010799D03*
X003269Y010833D03*
X003269Y010866D03*
X003269Y010899D03*
X003269Y010932D03*
X003269Y010966D03*
X003269Y010999D03*
X003269Y011032D03*
X003269Y011065D03*
X003269Y011098D03*
X003269Y011132D03*
X003269Y011165D03*
X003269Y011198D03*
X003269Y011231D03*
X003269Y011265D03*
X003269Y011298D03*
X003269Y011331D03*
X003269Y011364D03*
X003269Y011397D03*
X003269Y011431D03*
X003269Y011464D03*
X003269Y011497D03*
X003269Y011530D03*
X003269Y011564D03*
X003269Y011597D03*
X003269Y011630D03*
X003269Y011663D03*
X003269Y011697D03*
X003269Y011730D03*
X003269Y011763D03*
X003269Y011796D03*
X003269Y011829D03*
X003269Y011863D03*
X003269Y011896D03*
X003269Y011929D03*
X003269Y011962D03*
X003269Y011996D03*
X003269Y012029D03*
X003269Y012062D03*
X003269Y012095D03*
X003269Y012129D03*
X003269Y012162D03*
X003269Y012195D03*
X003269Y012228D03*
X003269Y012261D03*
X003269Y012295D03*
X003269Y012328D03*
X003269Y012361D03*
X003269Y012394D03*
X003269Y012428D03*
X003269Y012461D03*
X003269Y012494D03*
X003269Y012527D03*
X003269Y012560D03*
X003269Y012594D03*
X003269Y012627D03*
X003269Y012660D03*
X003269Y012693D03*
X003269Y012727D03*
X003269Y012760D03*
X003269Y012793D03*
X003269Y012826D03*
X003269Y012860D03*
X003269Y012893D03*
X003269Y012926D03*
X003269Y012959D03*
X003269Y012992D03*
X003269Y013026D03*
X003269Y013059D03*
X003269Y013092D03*
X003269Y013125D03*
X003269Y013159D03*
X003269Y013192D03*
X003269Y013225D03*
X003269Y013258D03*
X003269Y013291D03*
X003269Y013325D03*
X003269Y013358D03*
X003269Y013391D03*
X003269Y013424D03*
X003269Y013458D03*
X003269Y013491D03*
X003269Y013524D03*
X003269Y013557D03*
X003269Y013591D03*
X003269Y013624D03*
X003269Y013657D03*
X003269Y013690D03*
X003269Y013723D03*
X003269Y013757D03*
X003269Y013790D03*
X003269Y013823D03*
X003269Y013856D03*
X003269Y013890D03*
X003269Y013923D03*
X003269Y013956D03*
X003269Y013989D03*
X003269Y014023D03*
X003269Y014056D03*
X003269Y014089D03*
X003269Y014122D03*
X003269Y014155D03*
X003269Y014189D03*
X003269Y014222D03*
X003269Y014255D03*
X003269Y014288D03*
X003269Y014322D03*
X003269Y014355D03*
X003269Y014388D03*
X003269Y014421D03*
X003269Y014454D03*
X003269Y014488D03*
X003269Y014521D03*
X003269Y014554D03*
X003269Y014587D03*
X003269Y014621D03*
X003269Y014654D03*
X003269Y014687D03*
X003269Y014720D03*
X003269Y014754D03*
X003269Y014787D03*
X003269Y014820D03*
X003269Y014853D03*
X003269Y014886D03*
X003269Y014920D03*
X003269Y014953D03*
X003269Y014986D03*
X003269Y015019D03*
X003269Y015053D03*
X003269Y015086D03*
X003269Y015119D03*
X003269Y015152D03*
X003269Y015186D03*
X003269Y015219D03*
X003269Y015252D03*
X003269Y015285D03*
X003269Y015318D03*
X003269Y015352D03*
X003269Y015385D03*
X003269Y015418D03*
X003269Y015451D03*
X003269Y015485D03*
X003269Y015518D03*
X003269Y015551D03*
X003269Y015584D03*
X003269Y015617D03*
X003269Y015651D03*
X003269Y015684D03*
X003269Y015717D03*
X003269Y015750D03*
X003269Y015784D03*
X003269Y015817D03*
X003269Y015850D03*
X003269Y015883D03*
X003269Y015917D03*
X003269Y015950D03*
X003269Y015983D03*
X003269Y016016D03*
X003269Y016049D03*
X003269Y016083D03*
X003269Y016116D03*
X003269Y016149D03*
X003269Y016182D03*
X003269Y016216D03*
X003269Y016249D03*
X003269Y016282D03*
X003269Y016315D03*
X003269Y016349D03*
X003269Y016382D03*
X003269Y016415D03*
X003269Y016448D03*
X003269Y016481D03*
X003269Y016515D03*
X003269Y016548D03*
X003269Y016581D03*
X003269Y016614D03*
X003269Y016648D03*
X003269Y016681D03*
X003269Y016714D03*
X003269Y016747D03*
X003269Y016780D03*
X003269Y016814D03*
X003269Y016847D03*
X003269Y016880D03*
X003269Y016913D03*
X003269Y016947D03*
X003269Y016980D03*
X003269Y017013D03*
X003269Y017046D03*
X003269Y017080D03*
X003269Y017113D03*
X003269Y017146D03*
X003269Y017179D03*
X003269Y017212D03*
X003269Y017246D03*
X003269Y017279D03*
X003269Y017312D03*
X003269Y017345D03*
X003269Y017379D03*
X003269Y017412D03*
X003269Y017445D03*
X003269Y017478D03*
X003269Y017511D03*
X003269Y017545D03*
X003269Y017578D03*
X003269Y017611D03*
X003269Y017644D03*
X003269Y017678D03*
X003269Y017711D03*
X003269Y017744D03*
X003269Y017777D03*
X003269Y017811D03*
X003269Y017844D03*
X003269Y017877D03*
X003269Y017910D03*
X003269Y017943D03*
X003269Y017977D03*
X003269Y018010D03*
X003269Y018043D03*
X003269Y018076D03*
X003269Y018110D03*
X003269Y018143D03*
X003269Y018176D03*
X003269Y018209D03*
X003269Y018243D03*
X003269Y018276D03*
X003269Y018309D03*
X003269Y018342D03*
X003269Y018375D03*
X003269Y018409D03*
X003269Y018442D03*
X003269Y018475D03*
X003269Y018508D03*
X003269Y018542D03*
X003269Y018575D03*
X003269Y018608D03*
X003269Y018641D03*
X003269Y018674D03*
X003269Y018708D03*
X003269Y018741D03*
X003269Y018774D03*
X003269Y018807D03*
X003269Y018841D03*
X003269Y018874D03*
X003269Y018907D03*
X003269Y018940D03*
X003269Y018974D03*
X003269Y019007D03*
X003269Y019040D03*
X003269Y019073D03*
X003269Y019106D03*
X003269Y019140D03*
X003269Y019173D03*
X003269Y019206D03*
X003269Y019239D03*
X003269Y019273D03*
X003269Y019306D03*
X003269Y019339D03*
X003269Y019372D03*
X003269Y019406D03*
X003269Y019439D03*
X003269Y019472D03*
X003269Y019505D03*
X003269Y019538D03*
X003269Y019572D03*
X003269Y019605D03*
X003269Y019638D03*
X003269Y019671D03*
X003269Y019705D03*
X003269Y019738D03*
X003269Y019771D03*
X003269Y019804D03*
X003269Y019837D03*
X003269Y019871D03*
X003269Y019904D03*
X003269Y019937D03*
X003269Y019970D03*
X003269Y020004D03*
X003269Y020037D03*
X003269Y020070D03*
X003269Y020103D03*
X003269Y020137D03*
X003269Y020170D03*
X003269Y020203D03*
X003269Y020236D03*
X003269Y020269D03*
X003269Y020303D03*
X003269Y020336D03*
X003269Y020369D03*
X003269Y020402D03*
X003269Y020436D03*
X003269Y020469D03*
X003269Y020502D03*
X003269Y020535D03*
X003269Y020569D03*
X003269Y020602D03*
X003269Y020635D03*
X003269Y020668D03*
X003269Y020701D03*
X003269Y020735D03*
X003269Y020768D03*
X003269Y020801D03*
X003269Y020834D03*
X003269Y020868D03*
X003269Y020901D03*
X003269Y020934D03*
X003269Y020967D03*
X003269Y021000D03*
X003269Y021034D03*
X003269Y021067D03*
X003269Y021100D03*
X003269Y021133D03*
X003269Y021167D03*
X003269Y021200D03*
X003269Y021233D03*
X003269Y021266D03*
X003269Y021300D03*
X003269Y021333D03*
X003269Y021366D03*
X003269Y021399D03*
X003269Y021432D03*
X003269Y021466D03*
X003269Y021499D03*
X003269Y021532D03*
X003269Y021565D03*
X003269Y021599D03*
X003269Y021632D03*
X003269Y021665D03*
X003269Y021698D03*
X003269Y021731D03*
X003269Y021765D03*
X003269Y021798D03*
X003269Y021831D03*
X003269Y021864D03*
X003269Y021898D03*
X003269Y021931D03*
X003269Y021964D03*
X003269Y021997D03*
X003269Y022031D03*
X003269Y022064D03*
X003269Y022097D03*
X003269Y022130D03*
X003269Y022163D03*
X003269Y022197D03*
X003269Y022230D03*
X003269Y022263D03*
X003269Y022296D03*
X003269Y022330D03*
X003269Y022363D03*
X003269Y022396D03*
X003269Y022429D03*
X003269Y022463D03*
X003269Y022496D03*
X003269Y022529D03*
X003269Y022562D03*
X003269Y022595D03*
X003269Y022629D03*
X003269Y022662D03*
X003269Y022695D03*
X003269Y022728D03*
X003269Y022762D03*
X003269Y022795D03*
X003269Y022828D03*
X003269Y022861D03*
X003269Y022894D03*
X003269Y022928D03*
X003269Y022961D03*
X003269Y022994D03*
X003269Y023027D03*
X003269Y023061D03*
X003269Y023094D03*
X003269Y023127D03*
X003269Y023160D03*
X003269Y023194D03*
X003269Y023227D03*
X003269Y023260D03*
X003269Y023293D03*
X003269Y023326D03*
X003269Y023360D03*
X003269Y023393D03*
X003269Y023426D03*
X003269Y023459D03*
X003269Y023493D03*
X003269Y023526D03*
X003269Y023559D03*
X003269Y023592D03*
X003269Y023626D03*
X003269Y023659D03*
X003269Y023692D03*
X003269Y023725D03*
X003269Y023758D03*
X003269Y023792D03*
X003269Y023825D03*
X003269Y023858D03*
X003269Y023891D03*
X003269Y023925D03*
X003269Y023958D03*
X003269Y023991D03*
X003269Y024024D03*
X003269Y024057D03*
X003269Y024091D03*
X003269Y024124D03*
X003269Y024157D03*
X003269Y024190D03*
X003269Y024224D03*
X003269Y024257D03*
X003269Y024290D03*
X003269Y024323D03*
X003269Y024357D03*
X003269Y024390D03*
X003269Y024423D03*
X003269Y024456D03*
X003269Y024489D03*
X003269Y024523D03*
X003269Y024556D03*
X003269Y024589D03*
X003269Y024622D03*
X003269Y024656D03*
X003269Y024689D03*
X003269Y024722D03*
X003269Y024755D03*
X003269Y024789D03*
X003269Y024822D03*
X003269Y024855D03*
X003269Y024888D03*
X003269Y024921D03*
X003269Y024955D03*
X003269Y024988D03*
X003269Y025021D03*
X003269Y025054D03*
X003269Y025088D03*
X003269Y025121D03*
X003269Y025154D03*
X003269Y025187D03*
X003269Y025220D03*
X003269Y025254D03*
X003269Y025287D03*
X003269Y025320D03*
X003269Y025353D03*
X003269Y025387D03*
X003269Y025420D03*
X003269Y025453D03*
X003269Y025486D03*
X003269Y025520D03*
X003269Y025553D03*
X003269Y025586D03*
X003269Y025619D03*
X003269Y025652D03*
X003269Y025686D03*
X003269Y025719D03*
X003236Y025918D03*
X003236Y025951D03*
X003236Y025985D03*
X003236Y026018D03*
X003236Y026051D03*
X003203Y026151D03*
X003203Y026184D03*
X003203Y026217D03*
X003203Y026251D03*
X003169Y026317D03*
X003169Y026350D03*
X003169Y026383D03*
X003169Y026417D03*
X003136Y026450D03*
X003136Y026483D03*
X003136Y026516D03*
X003136Y026550D03*
X003103Y026583D03*
X003103Y026616D03*
X003103Y026649D03*
X003070Y026683D03*
X003070Y026716D03*
X003070Y026749D03*
X003036Y026782D03*
X003036Y026815D03*
X003036Y026849D03*
X003003Y026882D03*
X003003Y026915D03*
X002970Y026982D03*
X002970Y027015D03*
X002937Y027048D03*
X002937Y027081D03*
X002904Y027148D03*
X002870Y027214D03*
X002837Y027281D03*
X002804Y027347D03*
X002771Y027414D03*
X002737Y027480D03*
X002704Y027546D03*
X002671Y027613D03*
X002638Y027679D03*
X002604Y027746D03*
X002571Y027812D03*
X002538Y027879D03*
X002505Y027945D03*
X002472Y028012D03*
X002438Y028078D03*
X002405Y028145D03*
X002372Y028211D03*
X002339Y028277D03*
X002305Y028344D03*
X002272Y028410D03*
X002239Y028477D03*
X002206Y028543D03*
X002173Y028610D03*
X002139Y028676D03*
X002106Y028743D03*
X002073Y028809D03*
X002040Y028876D03*
X002006Y028942D03*
X001973Y029009D03*
X001940Y029075D03*
X001907Y029141D03*
X001873Y029208D03*
X001840Y029274D03*
X001807Y029341D03*
X001774Y029407D03*
X001741Y029474D03*
X001707Y029540D03*
X001674Y029607D03*
X001641Y029673D03*
X001608Y029740D03*
X001574Y029806D03*
X001541Y029872D03*
X001508Y029939D03*
X001475Y030005D03*
X001441Y030039D03*
X001441Y030072D03*
X001408Y030105D03*
X001408Y030138D03*
X001375Y030171D03*
X001375Y030205D03*
X001342Y030238D03*
X001342Y030271D03*
X001309Y030304D03*
X001309Y030338D03*
X001275Y030371D03*
X001275Y030404D03*
X001242Y030471D03*
X001209Y030537D03*
X001209Y030570D03*
X001176Y030603D03*
X001176Y030637D03*
X001142Y030703D03*
X001142Y030736D03*
X001109Y030770D03*
X001109Y030803D03*
X001109Y030836D03*
X001076Y030869D03*
X001076Y030903D03*
X001076Y030936D03*
X001076Y030969D03*
X001043Y031002D03*
X001043Y031035D03*
X001043Y031069D03*
X001010Y031135D03*
X001010Y031168D03*
X001010Y031202D03*
X000976Y031301D03*
X000976Y031334D03*
X000976Y031368D03*
X000976Y031401D03*
X000943Y031501D03*
X000943Y031534D03*
X000943Y031567D03*
X000943Y031600D03*
X000943Y031634D03*
X000910Y031833D03*
X000910Y031866D03*
X000910Y031899D03*
X000910Y031933D03*
X000910Y031966D03*
X000910Y031999D03*
X000910Y032032D03*
X000910Y032066D03*
X000910Y032099D03*
X000910Y032132D03*
X000910Y032165D03*
X000910Y032198D03*
X000910Y032232D03*
X000910Y032265D03*
X000910Y032298D03*
X000910Y032331D03*
X000910Y032365D03*
X000910Y032398D03*
X000910Y032431D03*
X000910Y032464D03*
X000910Y032497D03*
X000910Y032531D03*
X000910Y032564D03*
X000910Y032597D03*
X000910Y032630D03*
X000910Y032664D03*
X000910Y032697D03*
X000910Y032730D03*
X000910Y032763D03*
X000910Y032797D03*
X000910Y032830D03*
X000910Y032863D03*
X000910Y032896D03*
X000910Y032929D03*
X000910Y032963D03*
X000910Y032996D03*
X000910Y033029D03*
X000910Y033062D03*
X000910Y033096D03*
X000910Y033129D03*
X000910Y033162D03*
X000910Y033195D03*
X000910Y033229D03*
X000910Y033262D03*
X000910Y033295D03*
X000910Y033328D03*
X000910Y033361D03*
X000910Y033395D03*
X000910Y033428D03*
X000910Y033461D03*
X000910Y033494D03*
X000910Y033528D03*
X000910Y033561D03*
X000910Y033594D03*
X000910Y033627D03*
X000910Y033660D03*
X000910Y033694D03*
X000910Y033727D03*
X000910Y033760D03*
X000910Y033793D03*
X000910Y033827D03*
X000910Y033860D03*
X000910Y033893D03*
X000910Y033926D03*
X000910Y033960D03*
X000910Y033993D03*
X000910Y034026D03*
X000910Y034059D03*
X000910Y034092D03*
X000910Y034126D03*
X000910Y034159D03*
X000910Y034192D03*
X000910Y034225D03*
X000910Y034259D03*
X000910Y034292D03*
X000910Y034325D03*
X000910Y034358D03*
X000910Y034391D03*
X000910Y034425D03*
X000910Y034458D03*
X000910Y034491D03*
X000910Y034524D03*
X000910Y034558D03*
X000910Y034591D03*
X000910Y034624D03*
X000910Y034657D03*
X000910Y034691D03*
X000910Y034724D03*
X000910Y034757D03*
X000910Y034790D03*
X000910Y034823D03*
X000910Y034857D03*
X000910Y034890D03*
X000910Y034923D03*
X000910Y034956D03*
X000910Y034990D03*
X000910Y035023D03*
X000910Y035056D03*
X000910Y035089D03*
X000910Y035123D03*
X000910Y035156D03*
X000910Y035189D03*
X000910Y035222D03*
X000910Y035255D03*
X000910Y035289D03*
X000910Y035322D03*
X000910Y035355D03*
X000910Y035388D03*
X000910Y035422D03*
X000910Y035455D03*
X000910Y035488D03*
X000910Y035521D03*
X000910Y035554D03*
X000910Y035588D03*
X000910Y035621D03*
X000910Y035654D03*
X000910Y035687D03*
X000910Y035721D03*
X000910Y035754D03*
X000910Y035787D03*
X000910Y035820D03*
X000910Y035854D03*
X000910Y035887D03*
X000910Y035920D03*
X000910Y035953D03*
X000910Y035986D03*
X000910Y036020D03*
X000910Y036053D03*
X000910Y036086D03*
X000910Y036119D03*
X000910Y036153D03*
X000910Y036186D03*
X000910Y036219D03*
X000910Y036252D03*
X000910Y036286D03*
X000910Y036319D03*
X000910Y036352D03*
X000910Y036385D03*
X000910Y036418D03*
X000910Y036452D03*
X000910Y036485D03*
X000910Y036518D03*
X000910Y036551D03*
X000910Y036585D03*
X000910Y036618D03*
X000910Y036651D03*
X000910Y036684D03*
X000910Y036717D03*
X000910Y036751D03*
X000910Y036784D03*
X000910Y036817D03*
X000910Y036850D03*
X000910Y036884D03*
X000910Y036917D03*
X000910Y036950D03*
X000910Y036983D03*
X000910Y037017D03*
X000910Y037050D03*
X000910Y037083D03*
X000910Y037116D03*
X000910Y037149D03*
X000910Y037183D03*
X000910Y037216D03*
X000910Y037249D03*
X000910Y037282D03*
X000910Y037316D03*
X000910Y037349D03*
X000910Y037382D03*
X000910Y037415D03*
X000910Y037449D03*
X000910Y037482D03*
X000910Y037515D03*
X000910Y037548D03*
X000910Y037581D03*
X000910Y037615D03*
X000910Y037648D03*
X000910Y037681D03*
X000910Y037714D03*
X000910Y037748D03*
X000910Y037781D03*
X000910Y037814D03*
X000910Y037847D03*
X000910Y037880D03*
X000910Y037914D03*
X000910Y037947D03*
X000910Y037980D03*
X000910Y038013D03*
X000910Y038047D03*
X000910Y038080D03*
X000910Y038113D03*
X000910Y038146D03*
X000910Y038180D03*
X000910Y038213D03*
X000910Y038246D03*
X000910Y038279D03*
X000910Y038312D03*
X000910Y038346D03*
X000910Y038379D03*
X000910Y038412D03*
X000910Y038445D03*
X000910Y038479D03*
X000910Y038512D03*
X000910Y038545D03*
X000910Y038578D03*
X000910Y038611D03*
X000910Y038645D03*
X000910Y038678D03*
X000910Y038711D03*
X000910Y038744D03*
X000910Y038778D03*
X000910Y038811D03*
X000910Y038844D03*
X000910Y038877D03*
X000910Y038911D03*
X000910Y038944D03*
X000910Y038977D03*
X000910Y039010D03*
X000910Y039043D03*
X000910Y039077D03*
X000910Y039110D03*
X000910Y039143D03*
X000910Y039176D03*
X000910Y039210D03*
X000910Y039243D03*
X000910Y039276D03*
X000910Y039309D03*
X000910Y039343D03*
X000910Y039376D03*
X000910Y039409D03*
X000910Y039442D03*
X000910Y039475D03*
X000910Y039509D03*
X000910Y039542D03*
X000910Y039575D03*
X000910Y039608D03*
X000910Y039642D03*
X000910Y039675D03*
X000910Y039708D03*
X000910Y039741D03*
X000910Y039774D03*
X000910Y039808D03*
X000910Y039841D03*
X000910Y039874D03*
X000910Y039907D03*
X000910Y039941D03*
X000910Y039974D03*
X000910Y040007D03*
X000910Y040040D03*
X000910Y040074D03*
X000910Y040107D03*
X000910Y040140D03*
X000910Y040173D03*
X000910Y040206D03*
X000910Y040240D03*
X000910Y040273D03*
X000910Y040306D03*
X000910Y040339D03*
X000910Y040373D03*
X000910Y040406D03*
X000910Y040439D03*
X000910Y040472D03*
X000910Y040506D03*
X000910Y040539D03*
X000910Y040572D03*
X000910Y040605D03*
X000910Y040638D03*
X000910Y040672D03*
X000910Y040705D03*
X000910Y040738D03*
X000910Y040771D03*
X000910Y040805D03*
X000910Y040838D03*
X000910Y040871D03*
X000910Y040904D03*
X000910Y040937D03*
X000910Y040971D03*
X000910Y041004D03*
X000910Y041037D03*
X000910Y041070D03*
X000910Y041104D03*
X000910Y041137D03*
X000910Y041170D03*
X000910Y041203D03*
X000910Y041237D03*
X000910Y041270D03*
X000910Y041303D03*
X000910Y041336D03*
X000910Y041369D03*
X000910Y041403D03*
X000910Y041436D03*
X000910Y041469D03*
X000910Y041502D03*
X000910Y041536D03*
X000910Y041569D03*
X000910Y041602D03*
X000910Y041635D03*
X000910Y041669D03*
X000910Y041702D03*
X000910Y041735D03*
X000910Y041768D03*
X000910Y041801D03*
X000910Y041835D03*
X000910Y041868D03*
X000910Y041901D03*
X000910Y041934D03*
X000910Y041968D03*
X000910Y042001D03*
X000910Y042034D03*
X000910Y042067D03*
X000910Y042100D03*
X000910Y042134D03*
X000910Y042167D03*
X000910Y042200D03*
X000910Y042233D03*
X000910Y042267D03*
X000910Y042300D03*
X000910Y042333D03*
X000910Y042366D03*
X000910Y042400D03*
X000910Y042433D03*
X000910Y042466D03*
X000910Y042499D03*
X000910Y042532D03*
X000910Y042566D03*
X000910Y042599D03*
X000910Y042632D03*
X000910Y042665D03*
X000910Y042699D03*
X000910Y042732D03*
X000910Y042765D03*
X000910Y042798D03*
X000910Y042831D03*
X000910Y042865D03*
X000910Y042898D03*
X000910Y042931D03*
X000910Y042964D03*
X000910Y042998D03*
X000910Y043031D03*
X000910Y043064D03*
X000910Y043097D03*
X000910Y043131D03*
X000910Y043164D03*
X000910Y043197D03*
X000910Y043230D03*
X000910Y043263D03*
X000910Y043297D03*
X000910Y043330D03*
X000910Y043363D03*
X000910Y043396D03*
X000910Y043430D03*
X000910Y043463D03*
X000910Y043496D03*
X000910Y043529D03*
X000910Y043563D03*
X000910Y043596D03*
X000910Y043629D03*
X000910Y043662D03*
X000910Y043695D03*
X000910Y043729D03*
X000910Y043762D03*
X000910Y043795D03*
X000910Y043828D03*
X000910Y043862D03*
X000910Y043895D03*
X000910Y043928D03*
X000910Y043961D03*
X000910Y043994D03*
X000910Y044028D03*
X000910Y044061D03*
X000910Y044094D03*
X000910Y044127D03*
X000910Y044161D03*
X000910Y044194D03*
X000910Y044227D03*
X000910Y044260D03*
X000910Y044294D03*
X000910Y044327D03*
X000910Y044360D03*
X000910Y044393D03*
X000910Y044426D03*
X000910Y044460D03*
X000910Y044493D03*
X000910Y044526D03*
X000910Y044559D03*
X000910Y044593D03*
X000910Y044626D03*
X000910Y044659D03*
X000910Y044692D03*
X000910Y044726D03*
X000910Y044759D03*
X000910Y044792D03*
X000910Y044825D03*
X000910Y044858D03*
X000910Y044892D03*
X000910Y044925D03*
X000910Y044958D03*
X000910Y044991D03*
X000910Y045025D03*
X000910Y045058D03*
X000910Y045091D03*
X000910Y045124D03*
X000910Y045157D03*
X000910Y045191D03*
X000910Y045224D03*
X000910Y045257D03*
X000910Y045290D03*
X000910Y045324D03*
X000910Y045357D03*
X000910Y045390D03*
X000910Y045423D03*
X000910Y045457D03*
X000910Y045490D03*
X000910Y045523D03*
X000910Y045556D03*
X000910Y045589D03*
X000910Y045623D03*
X000910Y045656D03*
X000910Y045689D03*
X000910Y045722D03*
X000910Y045756D03*
X000910Y045789D03*
X000910Y045822D03*
X000910Y045855D03*
X000910Y045889D03*
X000910Y045922D03*
X000910Y045955D03*
X000910Y045988D03*
X000910Y046021D03*
X000910Y046055D03*
X000910Y046088D03*
X000910Y046121D03*
X000910Y046154D03*
X000910Y046188D03*
X000910Y046221D03*
X000910Y046254D03*
X000910Y046287D03*
X000910Y046320D03*
X000910Y046354D03*
X000910Y046387D03*
X000910Y046420D03*
X000910Y046453D03*
X000910Y046487D03*
X000910Y046520D03*
X000910Y046553D03*
X000910Y046586D03*
X000910Y046620D03*
X000910Y046653D03*
X000910Y046686D03*
X000910Y046719D03*
X000910Y046752D03*
X000910Y046786D03*
X000910Y046819D03*
X000910Y046852D03*
X000910Y046885D03*
X000910Y046919D03*
X000910Y046952D03*
X000910Y046985D03*
X000910Y047018D03*
X000910Y047051D03*
X000910Y047085D03*
X000943Y047218D03*
X000943Y047251D03*
X000943Y047284D03*
X000943Y047317D03*
X000976Y047384D03*
X000976Y047417D03*
X000976Y047450D03*
X000976Y047483D03*
X001010Y047517D03*
X001010Y047550D03*
X001010Y047583D03*
X001043Y047616D03*
X001043Y047650D03*
X001076Y047716D03*
X001109Y047783D03*
X001142Y047849D03*
X001176Y047915D03*
X001242Y048015D03*
X007223Y048347D03*
X007290Y048248D03*
X007323Y048181D03*
X007323Y048148D03*
X007356Y048115D03*
X007356Y048082D03*
X007389Y048048D03*
X007389Y048015D03*
X007423Y047949D03*
X007456Y047882D03*
X007489Y047816D03*
X007522Y047749D03*
X007556Y047683D03*
X007589Y047616D03*
X007589Y047583D03*
X007622Y047550D03*
X007622Y047517D03*
X007655Y047483D03*
X007655Y047450D03*
X007688Y047384D03*
X007722Y047317D03*
X007755Y047251D03*
X007788Y047184D03*
X007821Y047118D03*
X007855Y047051D03*
X007855Y047018D03*
X007888Y046985D03*
X007888Y046952D03*
X007921Y046919D03*
X007921Y046885D03*
X007954Y046852D03*
X007954Y046819D03*
X007987Y046752D03*
X008021Y046686D03*
X008054Y046620D03*
X008087Y046553D03*
X008120Y046487D03*
X008154Y046420D03*
X008154Y046387D03*
X008187Y046354D03*
X008187Y046320D03*
X008220Y046287D03*
X008220Y046254D03*
X008253Y046188D03*
X008287Y046121D03*
X008320Y046055D03*
X008353Y045988D03*
X008386Y045922D03*
X008419Y045855D03*
X008419Y045822D03*
X008453Y045789D03*
X008453Y045756D03*
X008486Y045722D03*
X008486Y045689D03*
X008519Y045623D03*
X008552Y045556D03*
X008586Y045490D03*
X008619Y045423D03*
X008652Y045357D03*
X008685Y045290D03*
X008719Y045224D03*
X008719Y045191D03*
X008752Y045157D03*
X008752Y045124D03*
X008785Y045091D03*
X008785Y045058D03*
X008818Y044991D03*
X008851Y044925D03*
X008885Y044858D03*
X008918Y044792D03*
X008951Y044726D03*
X008984Y044659D03*
X008984Y044626D03*
X009018Y044593D03*
X009018Y044559D03*
X009051Y044526D03*
X009084Y044460D03*
X021379Y044426D03*
X021445Y044526D03*
X021445Y044559D03*
X021478Y044593D03*
X021478Y044626D03*
X021511Y044659D03*
X021511Y044692D03*
X021545Y044726D03*
X021545Y044759D03*
X021578Y044825D03*
X021611Y044892D03*
X021644Y044958D03*
X021678Y045025D03*
X021711Y045091D03*
X021744Y045157D03*
X021744Y045191D03*
X021777Y045224D03*
X021777Y045257D03*
X021810Y045290D03*
X021810Y045324D03*
X021844Y045390D03*
X021877Y045457D03*
X021910Y045523D03*
X021943Y045589D03*
X021977Y045656D03*
X022010Y045722D03*
X022010Y045756D03*
X022043Y045789D03*
X022043Y045822D03*
X022076Y045855D03*
X022076Y045889D03*
X022110Y045922D03*
X022110Y045955D03*
X022143Y046021D03*
X022176Y046088D03*
X022209Y046154D03*
X022242Y046221D03*
X022276Y046287D03*
X022309Y046354D03*
X022309Y046387D03*
X022342Y046420D03*
X022342Y046453D03*
X022375Y046487D03*
X022375Y046520D03*
X022409Y046586D03*
X022442Y046653D03*
X022475Y046719D03*
X022508Y046786D03*
X022541Y046852D03*
X022575Y046919D03*
X022575Y046952D03*
X022608Y046985D03*
X022608Y047018D03*
X022641Y047051D03*
X022641Y047085D03*
X022674Y047151D03*
X022708Y047218D03*
X022741Y047284D03*
X022774Y047351D03*
X022807Y047417D03*
X022841Y047483D03*
X022841Y047517D03*
X022874Y047550D03*
X022874Y047583D03*
X022907Y047616D03*
X022907Y047650D03*
X022940Y047683D03*
X022940Y047716D03*
X022973Y047783D03*
X023007Y047849D03*
X023040Y047915D03*
X023073Y047982D03*
X023106Y048048D03*
X023140Y048115D03*
X029287Y047949D03*
X029320Y047882D03*
X029353Y047816D03*
X029387Y047749D03*
X029420Y047683D03*
X029420Y047650D03*
X029453Y047616D03*
X029453Y047583D03*
X029453Y047550D03*
X029486Y047517D03*
X029486Y047483D03*
X029486Y047450D03*
X029519Y047417D03*
X029519Y047384D03*
X029519Y047351D03*
X029519Y047317D03*
X029553Y047251D03*
X029553Y047218D03*
X029553Y047184D03*
X029553Y047151D03*
X029553Y047118D03*
X029553Y031800D03*
X029553Y031766D03*
X029553Y031733D03*
X029553Y031700D03*
X029553Y031667D03*
X029553Y031634D03*
X029553Y031600D03*
X029519Y031467D03*
X029519Y031434D03*
X029519Y031401D03*
X029519Y031368D03*
X029486Y031301D03*
X029486Y031268D03*
X029486Y031235D03*
X029486Y031202D03*
X029453Y031135D03*
X029453Y031102D03*
X029453Y031069D03*
X029420Y031002D03*
X029420Y030969D03*
X029420Y030936D03*
X029387Y030903D03*
X029387Y030869D03*
X029387Y030836D03*
X029353Y030803D03*
X029353Y030770D03*
X029353Y030736D03*
X029320Y030703D03*
X029320Y030670D03*
X029320Y030637D03*
X029287Y030603D03*
X029287Y030570D03*
X029254Y030504D03*
X029220Y030437D03*
X029220Y030404D03*
X029187Y030371D03*
X029187Y030338D03*
X029154Y030304D03*
X029154Y030271D03*
X029121Y030205D03*
X029087Y030138D03*
X029054Y030105D03*
X029054Y030072D03*
X029021Y030039D03*
X029021Y030005D03*
X028988Y029972D03*
X028988Y029939D03*
X028955Y029906D03*
X028955Y029872D03*
X028921Y029839D03*
X028921Y029806D03*
X028888Y029773D03*
X028888Y029740D03*
X028855Y029706D03*
X028855Y029673D03*
X028822Y029640D03*
X028822Y029607D03*
X028788Y029573D03*
X028788Y029540D03*
X028755Y029507D03*
X028755Y029474D03*
X028722Y029440D03*
X028722Y029407D03*
X028689Y029374D03*
X028689Y029341D03*
X028656Y029308D03*
X028656Y029274D03*
X028622Y029241D03*
X028622Y029208D03*
X028589Y029175D03*
X028556Y029108D03*
X028523Y029042D03*
X028489Y028975D03*
X028456Y028909D03*
X028423Y028842D03*
X028390Y028776D03*
X028356Y028709D03*
X028323Y028643D03*
X028290Y028577D03*
X028257Y028510D03*
X028224Y028444D03*
X028190Y028377D03*
X028157Y028311D03*
X028124Y028244D03*
X028091Y028178D03*
X028057Y028111D03*
X028024Y028045D03*
X027991Y027978D03*
X027958Y027912D03*
X027924Y027846D03*
X027891Y027779D03*
X027858Y027713D03*
X027825Y027646D03*
X027792Y027580D03*
X027758Y027513D03*
X027725Y027447D03*
X027692Y027380D03*
X027659Y027314D03*
X027625Y027247D03*
X027592Y027181D03*
X027559Y027114D03*
X027559Y027081D03*
X027526Y027048D03*
X027526Y027015D03*
X027493Y026948D03*
X027493Y026915D03*
X027459Y026882D03*
X027459Y026849D03*
X027426Y026782D03*
X027426Y026749D03*
X027393Y026716D03*
X027393Y026683D03*
X027393Y026649D03*
X027393Y026616D03*
X027360Y026583D03*
X027360Y026550D03*
X027360Y026516D03*
X027326Y026483D03*
X027326Y026450D03*
X027326Y026417D03*
X027326Y026383D03*
X027293Y026317D03*
X027293Y026284D03*
X027293Y026251D03*
X027293Y026217D03*
X027260Y026151D03*
X027260Y026118D03*
X027260Y026084D03*
X027260Y026051D03*
X027260Y026018D03*
X027227Y025918D03*
X027227Y025885D03*
X027227Y025852D03*
X027227Y025819D03*
X027227Y025785D03*
X027227Y025752D03*
X027227Y025719D03*
X027227Y025686D03*
X027193Y004320D03*
X027193Y004287D03*
X027193Y004253D03*
X027193Y004220D03*
X027193Y004187D03*
X027160Y004120D03*
X027160Y004087D03*
X027160Y004054D03*
X027160Y004021D03*
X027127Y003988D03*
X027127Y003954D03*
X027127Y003921D03*
X027127Y003888D03*
X027094Y003855D03*
X027094Y003821D03*
X027094Y003788D03*
X027061Y003755D03*
X027061Y003722D03*
X027027Y003655D03*
X026994Y003589D03*
X026961Y003522D03*
X026928Y003456D03*
X026894Y003389D03*
X003601Y003356D03*
X003568Y003423D03*
X003535Y003489D03*
X003502Y003556D03*
X003468Y003622D03*
X003435Y003689D03*
X003435Y003722D03*
X003402Y003755D03*
X003402Y003788D03*
X003402Y003821D03*
D25*
X003319Y004087D03*
X003286Y004253D03*
X003286Y004287D03*
X003286Y004320D03*
X003252Y025752D03*
X003252Y025785D03*
X003252Y025819D03*
X003252Y025852D03*
X003252Y025885D03*
X003219Y026084D03*
X003219Y026118D03*
X003186Y026284D03*
X001026Y031102D03*
X000993Y031235D03*
X000993Y031268D03*
X000960Y031434D03*
X000960Y031467D03*
X000926Y031667D03*
X000926Y031700D03*
X000926Y031733D03*
X000926Y031766D03*
X000926Y031800D03*
X000926Y047118D03*
X000926Y047151D03*
X000926Y047184D03*
X000960Y047351D03*
X027310Y026350D03*
X027277Y026184D03*
X027243Y025985D03*
X027243Y025951D03*
X027210Y025652D03*
X027210Y025619D03*
X027210Y025586D03*
X027210Y025553D03*
X027210Y025520D03*
X027210Y025486D03*
X027210Y025453D03*
X027210Y025420D03*
X027210Y025387D03*
X027210Y025353D03*
X027210Y025320D03*
X027210Y025287D03*
X027210Y025254D03*
X027210Y025220D03*
X027210Y025187D03*
X027210Y025154D03*
X027210Y025121D03*
X027210Y025088D03*
X027210Y025054D03*
X027210Y025021D03*
X027210Y024988D03*
X027210Y024955D03*
X027210Y024921D03*
X027210Y024888D03*
X027210Y024855D03*
X027210Y024822D03*
X027210Y024789D03*
X027210Y024755D03*
X027210Y024722D03*
X027210Y024689D03*
X027210Y024656D03*
X027210Y024622D03*
X027210Y024589D03*
X027210Y024556D03*
X027210Y024523D03*
X027210Y024489D03*
X027210Y024456D03*
X027210Y024423D03*
X027210Y024390D03*
X027210Y024357D03*
X027210Y024323D03*
X027210Y024290D03*
X027210Y024257D03*
X027210Y024224D03*
X027210Y024190D03*
X027210Y024157D03*
X027210Y024124D03*
X027210Y024091D03*
X027210Y024057D03*
X027210Y024024D03*
X027210Y023991D03*
X027210Y023958D03*
X027210Y023925D03*
X027210Y023891D03*
X027210Y023858D03*
X027210Y023825D03*
X027210Y023792D03*
X027210Y023758D03*
X027210Y023725D03*
X027210Y023692D03*
X027210Y023659D03*
X027210Y023626D03*
X027210Y023592D03*
X027210Y023559D03*
X027210Y023526D03*
X027210Y023493D03*
X027210Y023459D03*
X027210Y023426D03*
X027210Y023393D03*
X027210Y023360D03*
X027210Y023326D03*
X027210Y023293D03*
X027210Y023260D03*
X027210Y023227D03*
X027210Y023194D03*
X027210Y023160D03*
X027210Y023127D03*
X027210Y023094D03*
X027210Y023061D03*
X027210Y023027D03*
X027210Y022994D03*
X027210Y022961D03*
X027210Y022928D03*
X027210Y022894D03*
X027210Y022861D03*
X027210Y022828D03*
X027210Y022795D03*
X027210Y022762D03*
X027210Y022728D03*
X027210Y022695D03*
X027210Y022662D03*
X027210Y022629D03*
X027210Y022595D03*
X027210Y022562D03*
X027210Y022529D03*
X027210Y022496D03*
X027210Y022463D03*
X027210Y022429D03*
X027210Y022396D03*
X027210Y022363D03*
X027210Y022330D03*
X027210Y022296D03*
X027210Y022263D03*
X027210Y022230D03*
X027210Y022197D03*
X027210Y022163D03*
X027210Y022130D03*
X027210Y022097D03*
X027210Y022064D03*
X027210Y022031D03*
X027210Y021997D03*
X027210Y021964D03*
X027210Y021931D03*
X027210Y021898D03*
X027210Y021864D03*
X027210Y021831D03*
X027210Y021798D03*
X027210Y021765D03*
X027210Y021731D03*
X027210Y021698D03*
X027210Y021665D03*
X027210Y021632D03*
X027210Y021599D03*
X027210Y021565D03*
X027210Y021532D03*
X027210Y021499D03*
X027210Y021466D03*
X027210Y021432D03*
X027210Y021399D03*
X027210Y021366D03*
X027210Y021333D03*
X027210Y021300D03*
X027210Y021266D03*
X027210Y021233D03*
X027210Y021200D03*
X027210Y021167D03*
X027210Y021133D03*
X027210Y021100D03*
X027210Y021067D03*
X027210Y021034D03*
X027210Y021000D03*
X027210Y020967D03*
X027210Y020934D03*
X027210Y020901D03*
X027210Y020868D03*
X027210Y020834D03*
X027210Y020801D03*
X027210Y020768D03*
X027210Y020735D03*
X027210Y020701D03*
X027210Y020668D03*
X027210Y020635D03*
X027210Y020602D03*
X027210Y020569D03*
X027210Y020535D03*
X027210Y020502D03*
X027210Y020469D03*
X027210Y020436D03*
X027210Y020402D03*
X027210Y020369D03*
X027210Y020336D03*
X027210Y020303D03*
X027210Y020269D03*
X027210Y020236D03*
X027210Y020203D03*
X027210Y020170D03*
X027210Y020137D03*
X027210Y020103D03*
X027210Y020070D03*
X027210Y020037D03*
X027210Y020004D03*
X027210Y019970D03*
X027210Y019937D03*
X027210Y019904D03*
X027210Y019871D03*
X027210Y019837D03*
X027210Y019804D03*
X027210Y019771D03*
X027210Y019738D03*
X027210Y019705D03*
X027210Y019671D03*
X027210Y019638D03*
X027210Y019605D03*
X027210Y019572D03*
X027210Y019538D03*
X027210Y019505D03*
X027210Y019472D03*
X027210Y019439D03*
X027210Y019406D03*
X027210Y019372D03*
X027210Y019339D03*
X027210Y019306D03*
X027210Y019273D03*
X027210Y019239D03*
X027210Y019206D03*
X027210Y019173D03*
X027210Y019140D03*
X027210Y019106D03*
X027210Y019073D03*
X027210Y019040D03*
X027210Y019007D03*
X027210Y018974D03*
X027210Y018940D03*
X027210Y018907D03*
X027210Y018874D03*
X027210Y018841D03*
X027210Y018807D03*
X027210Y018774D03*
X027210Y018741D03*
X027210Y018708D03*
X027210Y018674D03*
X027210Y018641D03*
X027210Y018608D03*
X027210Y018575D03*
X027210Y018542D03*
X027210Y018508D03*
X027210Y018475D03*
X027210Y018442D03*
X027210Y018409D03*
X027210Y018375D03*
X027210Y018342D03*
X027210Y018309D03*
X027210Y018276D03*
X027210Y018243D03*
X027210Y018209D03*
X027210Y018176D03*
X027210Y018143D03*
X027210Y018110D03*
X027210Y018076D03*
X027210Y018043D03*
X027210Y018010D03*
X027210Y017977D03*
X027210Y017943D03*
X027210Y017910D03*
X027210Y017877D03*
X027210Y017844D03*
X027210Y017811D03*
X027210Y017777D03*
X027210Y017744D03*
X027210Y017711D03*
X027210Y017678D03*
X027210Y017644D03*
X027210Y017611D03*
X027210Y017578D03*
X027210Y017545D03*
X027210Y017511D03*
X027210Y017478D03*
X027210Y017445D03*
X027210Y017412D03*
X027210Y017379D03*
X027210Y017345D03*
X027210Y017312D03*
X027210Y017279D03*
X027210Y017246D03*
X027210Y017212D03*
X027210Y017179D03*
X027210Y017146D03*
X027210Y017113D03*
X027210Y017080D03*
X027210Y017046D03*
X027210Y017013D03*
X027210Y016980D03*
X027210Y016947D03*
X027210Y016913D03*
X027210Y016880D03*
X027210Y016847D03*
X027210Y016814D03*
X027210Y016780D03*
X027210Y016747D03*
X027210Y016714D03*
X027210Y016681D03*
X027210Y016648D03*
X027210Y016614D03*
X027210Y016581D03*
X027210Y016548D03*
X027210Y016515D03*
X027210Y016481D03*
X027210Y016448D03*
X027210Y016415D03*
X027210Y016382D03*
X027210Y016349D03*
X027210Y016315D03*
X027210Y016282D03*
X027210Y016249D03*
X027210Y016216D03*
X027210Y016182D03*
X027210Y016149D03*
X027210Y016116D03*
X027210Y016083D03*
X027210Y016049D03*
X027210Y016016D03*
X027210Y015983D03*
X027210Y015950D03*
X027210Y015917D03*
X027210Y015883D03*
X027210Y015850D03*
X027210Y015817D03*
X027210Y015784D03*
X027210Y015750D03*
X027210Y015717D03*
X027210Y015684D03*
X027210Y015651D03*
X027210Y015617D03*
X027210Y015584D03*
X027210Y015551D03*
X027210Y015518D03*
X027210Y015485D03*
X027210Y015451D03*
X027210Y015418D03*
X027210Y015385D03*
X027210Y015352D03*
X027210Y015318D03*
X027210Y015285D03*
X027210Y015252D03*
X027210Y015219D03*
X027210Y015186D03*
X027210Y015152D03*
X027210Y015119D03*
X027210Y015086D03*
X027210Y015053D03*
X027210Y015019D03*
X027210Y014986D03*
X027210Y014953D03*
X027210Y014920D03*
X027210Y014886D03*
X027210Y014853D03*
X027210Y014820D03*
X027210Y014787D03*
X027210Y014754D03*
X027210Y014720D03*
X027210Y014687D03*
X027210Y014654D03*
X027210Y014621D03*
X027210Y014587D03*
X027210Y014554D03*
X027210Y014521D03*
X027210Y014488D03*
X027210Y014454D03*
X027210Y014421D03*
X027210Y014388D03*
X027210Y014355D03*
X027210Y014322D03*
X027210Y014288D03*
X027210Y014255D03*
X027210Y014222D03*
X027210Y014189D03*
X027210Y014155D03*
X027210Y014122D03*
X027210Y014089D03*
X027210Y014056D03*
X027210Y014023D03*
X027210Y013989D03*
X027210Y013956D03*
X027210Y013923D03*
X027210Y013890D03*
X027210Y013856D03*
X027210Y013823D03*
X027210Y013790D03*
X027210Y013757D03*
X027210Y013723D03*
X027210Y013690D03*
X027210Y013657D03*
X027210Y013624D03*
X027210Y013591D03*
X027210Y013557D03*
X027210Y013524D03*
X027210Y013491D03*
X027210Y013458D03*
X027210Y013424D03*
X027210Y013391D03*
X027210Y013358D03*
X027210Y013325D03*
X027210Y013291D03*
X027210Y013258D03*
X027210Y013225D03*
X027210Y013192D03*
X027210Y013159D03*
X027210Y013125D03*
X027210Y013092D03*
X027210Y013059D03*
X027210Y013026D03*
X027210Y012992D03*
X027210Y012959D03*
X027210Y012926D03*
X027210Y012893D03*
X027210Y012860D03*
X027210Y012826D03*
X027210Y012793D03*
X027210Y012760D03*
X027210Y012727D03*
X027210Y012693D03*
X027210Y012660D03*
X027210Y012627D03*
X027210Y012594D03*
X027210Y012560D03*
X027210Y012527D03*
X027210Y012494D03*
X027210Y012461D03*
X027210Y012428D03*
X027210Y012394D03*
X027210Y012361D03*
X027210Y012328D03*
X027210Y012295D03*
X027210Y012261D03*
X027210Y012228D03*
X027210Y012195D03*
X027210Y012162D03*
X027210Y012129D03*
X027210Y012095D03*
X027210Y012062D03*
X027210Y012029D03*
X027210Y011996D03*
X027210Y011962D03*
X027210Y011929D03*
X027210Y011896D03*
X027210Y011863D03*
X027210Y011829D03*
X027210Y011796D03*
X027210Y011763D03*
X027210Y011730D03*
X027210Y011697D03*
X027210Y011663D03*
X027210Y011630D03*
X027210Y011597D03*
X027210Y011564D03*
X027210Y011530D03*
X027210Y011497D03*
X027210Y011464D03*
X027210Y011431D03*
X027210Y011397D03*
X027210Y011364D03*
X027210Y011331D03*
X027210Y011298D03*
X027210Y011265D03*
X027210Y011231D03*
X027210Y011198D03*
X027210Y011165D03*
X027210Y011132D03*
X027210Y011098D03*
X027210Y011065D03*
X027210Y011032D03*
X027210Y010999D03*
X027210Y010966D03*
X027210Y010932D03*
X027210Y010899D03*
X027210Y010866D03*
X027210Y010833D03*
X027210Y010799D03*
X027210Y010766D03*
X027210Y010733D03*
X027210Y010700D03*
X027210Y010666D03*
X027210Y010633D03*
X027210Y010600D03*
X027210Y010567D03*
X027210Y010534D03*
X027210Y010500D03*
X027210Y010467D03*
X027210Y010434D03*
X027210Y010401D03*
X027210Y010367D03*
X027210Y010334D03*
X027210Y010301D03*
X027210Y010268D03*
X027210Y010234D03*
X027210Y010201D03*
X027210Y010168D03*
X027210Y010135D03*
X027210Y010102D03*
X027210Y010068D03*
X027210Y010035D03*
X027210Y010002D03*
X027210Y009969D03*
X027210Y009935D03*
X027210Y009902D03*
X027210Y009869D03*
X027210Y009836D03*
X027210Y009803D03*
X027210Y009769D03*
X027210Y009736D03*
X027210Y009703D03*
X027210Y009670D03*
X027210Y009636D03*
X027210Y009603D03*
X027210Y009570D03*
X027210Y009537D03*
X027210Y009503D03*
X027210Y009470D03*
X027210Y009437D03*
X027210Y009404D03*
X027210Y009371D03*
X027210Y009337D03*
X027210Y009304D03*
X027210Y009271D03*
X027210Y009238D03*
X027210Y009204D03*
X027210Y009171D03*
X027210Y009138D03*
X027210Y009105D03*
X027210Y009071D03*
X027210Y009038D03*
X027210Y009005D03*
X027210Y008972D03*
X027210Y008939D03*
X027210Y008905D03*
X027210Y008872D03*
X027210Y008839D03*
X027210Y008806D03*
X027210Y008772D03*
X027210Y008739D03*
X027210Y008706D03*
X027210Y008673D03*
X027210Y008640D03*
X027210Y008606D03*
X027210Y008573D03*
X027210Y008540D03*
X027210Y008507D03*
X027210Y008473D03*
X027210Y008440D03*
X027210Y008407D03*
X027210Y008374D03*
X027210Y008340D03*
X027210Y008307D03*
X027210Y008274D03*
X027210Y008241D03*
X027210Y008208D03*
X027210Y008174D03*
X027210Y008141D03*
X027210Y008108D03*
X027210Y008075D03*
X027210Y008041D03*
X027210Y008008D03*
X027210Y007975D03*
X027210Y007942D03*
X027210Y007909D03*
X027210Y007875D03*
X027210Y007842D03*
X027210Y007809D03*
X027210Y007776D03*
X027210Y007742D03*
X027210Y007709D03*
X027210Y007676D03*
X027210Y007643D03*
X027210Y007609D03*
X027210Y007576D03*
X027210Y007543D03*
X027210Y007510D03*
X027210Y007477D03*
X027210Y007443D03*
X027210Y007410D03*
X027210Y007377D03*
X027210Y007344D03*
X027210Y007310D03*
X027210Y007277D03*
X027210Y007244D03*
X027210Y007211D03*
X027210Y007177D03*
X027210Y007144D03*
X027210Y007111D03*
X027210Y007078D03*
X027210Y007045D03*
X027210Y007011D03*
X027210Y006978D03*
X027210Y006945D03*
X027210Y006912D03*
X027210Y006878D03*
X027210Y006845D03*
X027210Y006812D03*
X027210Y006779D03*
X027210Y006746D03*
X027210Y006712D03*
X027210Y006679D03*
X027210Y006646D03*
X027210Y006613D03*
X027210Y006579D03*
X027210Y006546D03*
X027210Y006513D03*
X027210Y006480D03*
X027210Y006446D03*
X027210Y006413D03*
X027210Y006380D03*
X027210Y006347D03*
X027210Y006314D03*
X027210Y006280D03*
X027210Y006247D03*
X027210Y006214D03*
X027210Y006181D03*
X027210Y006147D03*
X027210Y006114D03*
X027210Y006081D03*
X027210Y006048D03*
X027210Y006014D03*
X027210Y005981D03*
X027210Y005948D03*
X027210Y005915D03*
X027210Y005882D03*
X027210Y005848D03*
X027210Y005815D03*
X027210Y005782D03*
X027210Y005749D03*
X027210Y005715D03*
X027210Y005682D03*
X027210Y005649D03*
X027210Y005616D03*
X027210Y005583D03*
X027210Y005549D03*
X027210Y005516D03*
X027210Y005483D03*
X027210Y005450D03*
X027210Y005416D03*
X027210Y005383D03*
X027210Y005350D03*
X027210Y005317D03*
X027210Y005283D03*
X027210Y005250D03*
X027210Y005217D03*
X027210Y005184D03*
X027210Y005151D03*
X027210Y005117D03*
X027210Y005084D03*
X027210Y005051D03*
X027210Y005018D03*
X027210Y004984D03*
X027210Y004951D03*
X027210Y004918D03*
X027210Y004885D03*
X027210Y004851D03*
X027210Y004818D03*
X027210Y004785D03*
X027210Y004752D03*
X027210Y004719D03*
X027210Y004685D03*
X027210Y004652D03*
X027210Y004619D03*
X027210Y004586D03*
X027210Y004552D03*
X027210Y004519D03*
X027210Y004486D03*
X027210Y004453D03*
X027210Y004420D03*
X027210Y004386D03*
X027210Y004353D03*
X027177Y004154D03*
X029436Y031035D03*
X029470Y031168D03*
X029503Y031334D03*
X029536Y031501D03*
X029536Y031534D03*
X029536Y031567D03*
X029569Y031833D03*
X029569Y031866D03*
X029569Y031899D03*
X029569Y031933D03*
X029569Y031966D03*
X029569Y031999D03*
X029569Y032032D03*
X029569Y032066D03*
X029569Y032099D03*
X029569Y032132D03*
X029569Y032165D03*
X029569Y032198D03*
X029569Y032232D03*
X029569Y032265D03*
X029569Y032298D03*
X029569Y032331D03*
X029569Y032365D03*
X029569Y032398D03*
X029569Y032431D03*
X029569Y032464D03*
X029569Y032497D03*
X029569Y032531D03*
X029569Y032564D03*
X029569Y032597D03*
X029569Y032630D03*
X029569Y032664D03*
X029569Y032697D03*
X029569Y032730D03*
X029569Y032763D03*
X029569Y032797D03*
X029569Y032830D03*
X029569Y032863D03*
X029569Y032896D03*
X029569Y032929D03*
X029569Y032963D03*
X029569Y032996D03*
X029569Y033029D03*
X029569Y033062D03*
X029569Y033096D03*
X029569Y033129D03*
X029569Y033162D03*
X029569Y033195D03*
X029569Y033229D03*
X029569Y033262D03*
X029569Y033295D03*
X029569Y033328D03*
X029569Y033361D03*
X029569Y033395D03*
X029569Y033428D03*
X029569Y033461D03*
X029569Y033494D03*
X029569Y033528D03*
X029569Y033561D03*
X029569Y033594D03*
X029569Y033627D03*
X029569Y033660D03*
X029569Y033694D03*
X029569Y033727D03*
X029569Y033760D03*
X029569Y033793D03*
X029569Y033827D03*
X029569Y033860D03*
X029569Y033893D03*
X029569Y033926D03*
X029569Y033960D03*
X029569Y033993D03*
X029569Y034026D03*
X029569Y034059D03*
X029569Y034092D03*
X029569Y034126D03*
X029569Y034159D03*
X029569Y034192D03*
X029569Y034225D03*
X029569Y034259D03*
X029569Y034292D03*
X029569Y034325D03*
X029569Y034358D03*
X029569Y034391D03*
X029569Y034425D03*
X029569Y034458D03*
X029569Y034491D03*
X029569Y034524D03*
X029569Y034558D03*
X029569Y034591D03*
X029569Y034624D03*
X029569Y034657D03*
X029569Y034691D03*
X029569Y034724D03*
X029569Y034757D03*
X029569Y034790D03*
X029569Y034823D03*
X029569Y034857D03*
X029569Y034890D03*
X029569Y034923D03*
X029569Y034956D03*
X029569Y034990D03*
X029569Y035023D03*
X029569Y035056D03*
X029569Y035089D03*
X029569Y035123D03*
X029569Y035156D03*
X029569Y035189D03*
X029569Y035222D03*
X029569Y035255D03*
X029569Y035289D03*
X029569Y035322D03*
X029569Y035355D03*
X029569Y035388D03*
X029569Y035422D03*
X029569Y035455D03*
X029569Y035488D03*
X029569Y035521D03*
X029569Y035554D03*
X029569Y035588D03*
X029569Y035621D03*
X029569Y035654D03*
X029569Y035687D03*
X029569Y035721D03*
X029569Y035754D03*
X029569Y035787D03*
X029569Y035820D03*
X029569Y035854D03*
X029569Y035887D03*
X029569Y035920D03*
X029569Y035953D03*
X029569Y035986D03*
X029569Y036020D03*
X029569Y036053D03*
X029569Y036086D03*
X029569Y036119D03*
X029569Y036153D03*
X029569Y036186D03*
X029569Y036219D03*
X029569Y036252D03*
X029569Y036286D03*
X029569Y036319D03*
X029569Y036352D03*
X029569Y036385D03*
X029569Y036418D03*
X029569Y036452D03*
X029569Y036485D03*
X029569Y036518D03*
X029569Y036551D03*
X029569Y036585D03*
X029569Y036618D03*
X029569Y036651D03*
X029569Y036684D03*
X029569Y036717D03*
X029569Y036751D03*
X029569Y036784D03*
X029569Y036817D03*
X029569Y036850D03*
X029569Y036884D03*
X029569Y036917D03*
X029569Y036950D03*
X029569Y036983D03*
X029569Y037017D03*
X029569Y037050D03*
X029569Y037083D03*
X029569Y037116D03*
X029569Y037149D03*
X029569Y037183D03*
X029569Y037216D03*
X029569Y037249D03*
X029569Y037282D03*
X029569Y037316D03*
X029569Y037349D03*
X029569Y037382D03*
X029569Y037415D03*
X029569Y037449D03*
X029569Y037482D03*
X029569Y037515D03*
X029569Y037548D03*
X029569Y037581D03*
X029569Y037615D03*
X029569Y037648D03*
X029569Y037681D03*
X029569Y037714D03*
X029569Y037748D03*
X029569Y037781D03*
X029569Y037814D03*
X029569Y037847D03*
X029569Y037880D03*
X029569Y037914D03*
X029569Y037947D03*
X029569Y037980D03*
X029569Y038013D03*
X029569Y038047D03*
X029569Y038080D03*
X029569Y038113D03*
X029569Y038146D03*
X029569Y038180D03*
X029569Y038213D03*
X029569Y038246D03*
X029569Y038279D03*
X029569Y038312D03*
X029569Y038346D03*
X029569Y038379D03*
X029569Y038412D03*
X029569Y038445D03*
X029569Y038479D03*
X029569Y038512D03*
X029569Y038545D03*
X029569Y038578D03*
X029569Y038611D03*
X029569Y038645D03*
X029569Y038678D03*
X029569Y038711D03*
X029569Y038744D03*
X029569Y038778D03*
X029569Y038811D03*
X029569Y038844D03*
X029569Y038877D03*
X029569Y038911D03*
X029569Y038944D03*
X029569Y038977D03*
X029569Y039010D03*
X029569Y039043D03*
X029569Y039077D03*
X029569Y039110D03*
X029569Y039143D03*
X029569Y039176D03*
X029569Y039210D03*
X029569Y039243D03*
X029569Y039276D03*
X029569Y039309D03*
X029569Y039343D03*
X029569Y039376D03*
X029569Y039409D03*
X029569Y039442D03*
X029569Y039475D03*
X029569Y039509D03*
X029569Y039542D03*
X029569Y039575D03*
X029569Y039608D03*
X029569Y039642D03*
X029569Y039675D03*
X029569Y039708D03*
X029569Y039741D03*
X029569Y039774D03*
X029569Y039808D03*
X029569Y039841D03*
X029569Y039874D03*
X029569Y039907D03*
X029569Y039941D03*
X029569Y039974D03*
X029569Y040007D03*
X029569Y040040D03*
X029569Y040074D03*
X029569Y040107D03*
X029569Y040140D03*
X029569Y040173D03*
X029569Y040206D03*
X029569Y040240D03*
X029569Y040273D03*
X029569Y040306D03*
X029569Y040339D03*
X029569Y040373D03*
X029569Y040406D03*
X029569Y040439D03*
X029569Y040472D03*
X029569Y040506D03*
X029569Y040539D03*
X029569Y040572D03*
X029569Y040605D03*
X029569Y040638D03*
X029569Y040672D03*
X029569Y040705D03*
X029569Y040738D03*
X029569Y040771D03*
X029569Y040805D03*
X029569Y040838D03*
X029569Y040871D03*
X029569Y040904D03*
X029569Y040937D03*
X029569Y040971D03*
X029569Y041004D03*
X029569Y041037D03*
X029569Y041070D03*
X029569Y041104D03*
X029569Y041137D03*
X029569Y041170D03*
X029569Y041203D03*
X029569Y041237D03*
X029569Y041270D03*
X029569Y041303D03*
X029569Y041336D03*
X029569Y041369D03*
X029569Y041403D03*
X029569Y041436D03*
X029569Y041469D03*
X029569Y041502D03*
X029569Y041536D03*
X029569Y041569D03*
X029569Y041602D03*
X029569Y041635D03*
X029569Y041669D03*
X029569Y041702D03*
X029569Y041735D03*
X029569Y041768D03*
X029569Y041801D03*
X029569Y041835D03*
X029569Y041868D03*
X029569Y041901D03*
X029569Y041934D03*
X029569Y041968D03*
X029569Y042001D03*
X029569Y042034D03*
X029569Y042067D03*
X029569Y042100D03*
X029569Y042134D03*
X029569Y042167D03*
X029569Y042200D03*
X029569Y042233D03*
X029569Y042267D03*
X029569Y042300D03*
X029569Y042333D03*
X029569Y042366D03*
X029569Y042400D03*
X029569Y042433D03*
X029569Y042466D03*
X029569Y042499D03*
X029569Y042532D03*
X029569Y042566D03*
X029569Y042599D03*
X029569Y042632D03*
X029569Y042665D03*
X029569Y042699D03*
X029569Y042732D03*
X029569Y042765D03*
X029569Y042798D03*
X029569Y042831D03*
X029569Y042865D03*
X029569Y042898D03*
X029569Y042931D03*
X029569Y042964D03*
X029569Y042998D03*
X029569Y043031D03*
X029569Y043064D03*
X029569Y043097D03*
X029569Y043131D03*
X029569Y043164D03*
X029569Y043197D03*
X029569Y043230D03*
X029569Y043263D03*
X029569Y043297D03*
X029569Y043330D03*
X029569Y043363D03*
X029569Y043396D03*
X029569Y043430D03*
X029569Y043463D03*
X029569Y043496D03*
X029569Y043529D03*
X029569Y043563D03*
X029569Y043596D03*
X029569Y043629D03*
X029569Y043662D03*
X029569Y043695D03*
X029569Y043729D03*
X029569Y043762D03*
X029569Y043795D03*
X029569Y043828D03*
X029569Y043862D03*
X029569Y043895D03*
X029569Y043928D03*
X029569Y043961D03*
X029569Y043994D03*
X029569Y044028D03*
X029569Y044061D03*
X029569Y044094D03*
X029569Y044127D03*
X029569Y044161D03*
X029569Y044194D03*
X029569Y044227D03*
X029569Y044260D03*
X029569Y044294D03*
X029569Y044327D03*
X029569Y044360D03*
X029569Y044393D03*
X029569Y044426D03*
X029569Y044460D03*
X029569Y044493D03*
X029569Y044526D03*
X029569Y044559D03*
X029569Y044593D03*
X029569Y044626D03*
X029569Y044659D03*
X029569Y044692D03*
X029569Y044726D03*
X029569Y044759D03*
X029569Y044792D03*
X029569Y044825D03*
X029569Y044858D03*
X029569Y044892D03*
X029569Y044925D03*
X029569Y044958D03*
X029569Y044991D03*
X029569Y045025D03*
X029569Y045058D03*
X029569Y045091D03*
X029569Y045124D03*
X029569Y045157D03*
X029569Y045191D03*
X029569Y045224D03*
X029569Y045257D03*
X029569Y045290D03*
X029569Y045324D03*
X029569Y045357D03*
X029569Y045390D03*
X029569Y045423D03*
X029569Y045457D03*
X029569Y045490D03*
X029569Y045523D03*
X029569Y045556D03*
X029569Y045589D03*
X029569Y045623D03*
X029569Y045656D03*
X029569Y045689D03*
X029569Y045722D03*
X029569Y045756D03*
X029569Y045789D03*
X029569Y045822D03*
X029569Y045855D03*
X029569Y045889D03*
X029569Y045922D03*
X029569Y045955D03*
X029569Y045988D03*
X029569Y046021D03*
X029569Y046055D03*
X029569Y046088D03*
X029569Y046121D03*
X029569Y046154D03*
X029569Y046188D03*
X029569Y046221D03*
X029569Y046254D03*
X029569Y046287D03*
X029569Y046320D03*
X029569Y046354D03*
X029569Y046387D03*
X029569Y046420D03*
X029569Y046453D03*
X029569Y046487D03*
X029569Y046520D03*
X029569Y046553D03*
X029569Y046586D03*
X029569Y046620D03*
X029569Y046653D03*
X029569Y046686D03*
X029569Y046719D03*
X029569Y046752D03*
X029569Y046786D03*
X029569Y046819D03*
X029569Y046852D03*
X029569Y046885D03*
X029569Y046919D03*
X029569Y046952D03*
X029569Y046985D03*
X029569Y047018D03*
X029569Y047051D03*
X029569Y047085D03*
X029536Y047284D03*
D26*
X015248Y043862D03*
D27*
X015231Y043895D03*
D28*
X015231Y043928D03*
D29*
X015248Y043961D03*
D30*
X002355Y048813D03*
D31*
X028124Y048813D03*
D32*
X004482Y048846D03*
D33*
X004482Y048879D03*
X026080Y048846D03*
D34*
X026080Y048879D03*
D35*
X004515Y048912D03*
D36*
X026080Y048912D03*
D37*
X004532Y048946D03*
D38*
X026047Y048946D03*
D39*
X023804Y009409D03*
X023804Y008744D03*
X021842Y003091D03*
X006646Y008910D03*
D40*
X006629Y009575D03*
X008624Y003091D03*
D41*
X008707Y003124D03*
X006679Y008844D03*
X006679Y009708D03*
X021775Y003124D03*
X023771Y009342D03*
X023771Y009874D03*
D42*
X023737Y009276D03*
X021676Y003191D03*
X021709Y003158D03*
X008840Y003224D03*
X008807Y003191D03*
X006712Y008777D03*
X006712Y009775D03*
X006712Y016192D03*
D43*
X008757Y003158D03*
D44*
X008890Y003291D03*
X008924Y003324D03*
X008957Y003357D03*
X006729Y016159D03*
X021493Y003390D03*
X021526Y003357D03*
X021559Y003291D03*
X021626Y003224D03*
X023721Y016159D03*
D45*
X023721Y009243D03*
X021593Y003257D03*
X008857Y003257D03*
D46*
X006746Y009808D03*
X021543Y003324D03*
X023704Y009209D03*
X023704Y016126D03*
D47*
X021443Y003457D03*
X009040Y003490D03*
X008973Y003390D03*
D48*
X009007Y003424D03*
X021476Y003424D03*
D49*
X021426Y003490D03*
X021393Y003523D03*
X023687Y009176D03*
X009090Y003557D03*
X009057Y003523D03*
X009023Y003457D03*
X006762Y016126D03*
D50*
X006779Y009841D03*
X021343Y003623D03*
X021376Y003557D03*
X023671Y009143D03*
X023671Y016093D03*
D51*
X021343Y003590D03*
X009106Y003590D03*
D52*
X009140Y003623D03*
D53*
X009156Y003656D03*
X006795Y008711D03*
X006795Y016093D03*
X021293Y003690D03*
X021327Y003656D03*
D54*
X021277Y003723D03*
X023638Y009110D03*
X009206Y003723D03*
X009173Y003690D03*
D55*
X009223Y003756D03*
X021260Y003756D03*
D56*
X021243Y003789D03*
X021210Y003823D03*
X009239Y003789D03*
D57*
X009256Y003823D03*
D58*
X009273Y003856D03*
X006879Y009874D03*
X021177Y003856D03*
D59*
X021160Y003889D03*
X023554Y015993D03*
X009289Y003889D03*
D60*
X021127Y003922D03*
D61*
X009339Y003922D03*
D62*
X006962Y015960D03*
X021094Y003956D03*
D63*
X023505Y015960D03*
X009373Y003956D03*
D64*
X009422Y003989D03*
X021061Y003989D03*
X025816Y045720D03*
X025816Y045753D03*
D65*
X025732Y045388D03*
X025732Y045354D03*
X020977Y004022D03*
X009506Y004022D03*
D66*
X015241Y004055D03*
X015241Y004122D03*
X015241Y004155D03*
D67*
X015241Y004089D03*
D68*
X015225Y004188D03*
X015225Y004222D03*
D69*
X015225Y004255D03*
X015225Y021712D03*
D70*
X015241Y004321D03*
X015241Y004288D03*
D71*
X015225Y004355D03*
X015225Y004388D03*
D72*
X015241Y004421D03*
D73*
X015225Y004454D03*
D74*
X015241Y004488D03*
X015241Y004521D03*
D75*
X015225Y004554D03*
D76*
X016056Y007547D03*
X026364Y004621D03*
X004085Y004554D03*
X001758Y041397D03*
X001758Y046186D03*
D77*
X004085Y004587D03*
X026364Y004587D03*
D78*
X015241Y004587D03*
D79*
X015225Y004621D03*
X015225Y021745D03*
D80*
X011783Y009509D03*
X011783Y009475D03*
X010752Y009110D03*
X012914Y007547D03*
X013113Y008877D03*
X013612Y007547D03*
X014676Y007547D03*
X015774Y009110D03*
X016904Y008877D03*
X017104Y007647D03*
X017004Y007214D03*
X017004Y007115D03*
X018866Y009176D03*
X018866Y009209D03*
X019298Y009376D03*
X026348Y004654D03*
X015707Y036277D03*
X015674Y036709D03*
X015607Y036942D03*
X015042Y037241D03*
X015042Y036476D03*
X015042Y036443D03*
X014610Y038305D03*
X014876Y038604D03*
X014876Y038637D03*
X015441Y039070D03*
X028709Y041397D03*
X004102Y004621D03*
D81*
X015225Y004654D03*
D82*
X013729Y006782D03*
X015757Y009010D03*
X015757Y009043D03*
X010736Y009043D03*
X010736Y009010D03*
X004119Y004687D03*
X004119Y004654D03*
X015225Y035645D03*
X015059Y036410D03*
X015690Y036476D03*
X015424Y038604D03*
X015424Y038637D03*
X013762Y037440D03*
X001791Y041431D03*
X001791Y046119D03*
X026331Y004720D03*
X026331Y004687D03*
X028692Y041431D03*
X028692Y046119D03*
D83*
X015241Y004687D03*
D84*
X015225Y004720D03*
D85*
X014410Y007115D03*
X014410Y007148D03*
X014410Y007181D03*
X014410Y007214D03*
X016006Y007613D03*
X015740Y008977D03*
X018035Y008877D03*
X018899Y009276D03*
X018899Y009309D03*
X019265Y009309D03*
X019265Y009276D03*
X020994Y008877D03*
X010719Y008943D03*
X010719Y008977D03*
X004135Y004720D03*
X015075Y036376D03*
X015075Y036875D03*
X015075Y036908D03*
X015374Y037972D03*
X015674Y038139D03*
X015707Y038105D03*
X015641Y038205D03*
X015474Y038438D03*
X015807Y038571D03*
X015840Y038538D03*
X015441Y039103D03*
X015441Y039136D03*
X014876Y038571D03*
X001808Y041464D03*
X001808Y046086D03*
X028675Y046086D03*
X028675Y041464D03*
D86*
X015441Y039169D03*
X015641Y038172D03*
X014909Y037839D03*
X011783Y009409D03*
X013745Y006749D03*
X026314Y004754D03*
D87*
X015225Y004754D03*
D88*
X013895Y006915D03*
X014427Y007081D03*
X014394Y007248D03*
X015724Y008910D03*
X016422Y007248D03*
X019248Y009243D03*
X010703Y008910D03*
X004152Y004754D03*
X015092Y036343D03*
X015092Y036842D03*
X015624Y037341D03*
X016023Y037673D03*
X015857Y038504D03*
X015790Y038671D03*
X014660Y038338D03*
X015291Y040998D03*
X001824Y041497D03*
D89*
X001824Y046053D03*
X014892Y038704D03*
X014926Y037873D03*
X015358Y037939D03*
X015458Y038538D03*
X015424Y038571D03*
X015790Y038604D03*
X015790Y038637D03*
X015890Y038471D03*
X016089Y038238D03*
X015724Y038072D03*
X015557Y036975D03*
X015092Y036942D03*
X015657Y036243D03*
X015258Y035611D03*
X016156Y041032D03*
X018051Y009675D03*
X018916Y009342D03*
X017685Y007181D03*
X016455Y007015D03*
X016422Y007115D03*
X016422Y007148D03*
X016422Y007181D03*
X016422Y007214D03*
X015491Y007181D03*
X015491Y007148D03*
X014693Y007613D03*
X014360Y007381D03*
X014360Y007347D03*
X014394Y007314D03*
X014394Y007281D03*
X013662Y007613D03*
X012864Y007613D03*
X011800Y009376D03*
X014327Y009642D03*
X015724Y008943D03*
X021011Y009675D03*
X026298Y004787D03*
X004152Y004787D03*
D90*
X015241Y004787D03*
D91*
X016472Y006948D03*
X016472Y006982D03*
X016804Y006948D03*
X017636Y007447D03*
X017636Y007480D03*
X015474Y007314D03*
X015474Y007281D03*
X015474Y007214D03*
X014310Y009442D03*
X014310Y009475D03*
X014310Y009608D03*
X013812Y009176D03*
X013812Y009143D03*
X013812Y009110D03*
X004169Y004820D03*
X015474Y038471D03*
X001841Y041530D03*
X001841Y046019D03*
X026281Y004853D03*
X026281Y004820D03*
D92*
X015241Y004820D03*
D93*
X015241Y004853D03*
D94*
X014394Y006948D03*
X014327Y007447D03*
X013296Y007381D03*
X013296Y007347D03*
X013296Y007314D03*
X013296Y007281D03*
X013296Y007214D03*
X013329Y007148D03*
X013329Y007115D03*
X013329Y007048D03*
X013329Y007015D03*
X013329Y006982D03*
X013329Y006948D03*
X013363Y006882D03*
X013363Y006849D03*
X013363Y006815D03*
X013363Y006782D03*
X013263Y007447D03*
X013263Y007480D03*
X013263Y007514D03*
X013263Y007547D03*
X013762Y008977D03*
X013762Y009010D03*
X013828Y009209D03*
X014294Y009176D03*
X014294Y009509D03*
X014294Y009542D03*
X013097Y009675D03*
X011800Y009276D03*
X011135Y008777D03*
X010669Y008777D03*
X010669Y008810D03*
X010204Y008810D03*
X010204Y008777D03*
X010204Y009442D03*
X010204Y009475D03*
X010204Y009509D03*
X010204Y009542D03*
X010204Y009608D03*
X010204Y009642D03*
X010669Y009608D03*
X010669Y009542D03*
X010669Y009509D03*
X010669Y009475D03*
X010669Y009442D03*
X015690Y009442D03*
X015690Y009475D03*
X015690Y009509D03*
X015690Y009542D03*
X015690Y009608D03*
X016156Y009376D03*
X016156Y009342D03*
X016156Y009309D03*
X016156Y009276D03*
X016156Y009209D03*
X016156Y009176D03*
X015690Y008810D03*
X015690Y008777D03*
X015458Y007347D03*
X015491Y007048D03*
X015491Y007015D03*
X016422Y007314D03*
X016422Y007347D03*
X016688Y007214D03*
X016688Y007181D03*
X016688Y007148D03*
X016488Y006882D03*
X017652Y007148D03*
X018484Y008844D03*
X018484Y008943D03*
X018484Y009542D03*
X018484Y009608D03*
X018484Y009642D03*
X018484Y009675D03*
X018018Y009642D03*
X017619Y009176D03*
X017552Y009010D03*
X017552Y008977D03*
X016887Y009675D03*
X018949Y009475D03*
X018949Y009442D03*
X019215Y009143D03*
X019681Y009442D03*
X019681Y009675D03*
X020545Y009143D03*
X020545Y009110D03*
X020545Y008877D03*
X020545Y008844D03*
X020977Y009642D03*
X026265Y004887D03*
X015291Y035545D03*
X015591Y036044D03*
X015125Y036310D03*
X015125Y036975D03*
X015125Y037208D03*
X015424Y037806D03*
X015790Y037972D03*
X015823Y037939D03*
X015857Y038937D03*
X015857Y039103D03*
X015458Y039236D03*
X014892Y039103D03*
X014892Y038737D03*
X014859Y041032D03*
X014859Y041065D03*
X015291Y041032D03*
X015757Y041098D03*
X015757Y041131D03*
X015757Y041198D03*
X015757Y041231D03*
X015757Y041264D03*
X015757Y041298D03*
X015757Y041364D03*
X015757Y041397D03*
X015757Y041431D03*
X015757Y041464D03*
X015757Y041530D03*
X015757Y041564D03*
X015757Y041597D03*
X015757Y041630D03*
X015757Y041697D03*
X015757Y041730D03*
X015757Y041763D03*
X015757Y041796D03*
X028625Y041530D03*
X028625Y046019D03*
X004185Y004853D03*
D95*
X015225Y004887D03*
D96*
X015009Y006616D03*
X015474Y006948D03*
X015474Y006982D03*
X015441Y007381D03*
X016439Y007381D03*
X016804Y007381D03*
X016505Y006849D03*
X017669Y006948D03*
X017602Y007381D03*
X018467Y008810D03*
X018467Y009475D03*
X018467Y009509D03*
X018467Y009708D03*
X018001Y009608D03*
X017636Y009209D03*
X018966Y009509D03*
X019664Y009874D03*
X020961Y009608D03*
X016173Y009475D03*
X016173Y009442D03*
X016173Y009143D03*
X016173Y009110D03*
X015674Y008711D03*
X014277Y008943D03*
X014277Y009143D03*
X014310Y007480D03*
X013313Y007181D03*
X012781Y007347D03*
X012781Y007381D03*
X011151Y008810D03*
X011151Y008844D03*
X011151Y008877D03*
X010653Y008711D03*
X004202Y004887D03*
X015142Y036775D03*
X015009Y038105D03*
X014809Y039203D03*
X015807Y038704D03*
X015940Y038405D03*
X013812Y037407D03*
X001874Y041564D03*
X028609Y041564D03*
D97*
X028609Y045986D03*
X015308Y035512D03*
X014842Y041830D03*
X001874Y045986D03*
X018467Y009741D03*
X017636Y007248D03*
X016173Y009076D03*
X016173Y009409D03*
X015674Y008744D03*
X015441Y007414D03*
X013845Y007414D03*
X013280Y007414D03*
X013845Y009243D03*
X011783Y009243D03*
X010653Y008744D03*
X026248Y004920D03*
D98*
X015225Y004920D03*
D99*
X015458Y006915D03*
X016455Y007414D03*
X016721Y007081D03*
X017652Y009243D03*
X018982Y009575D03*
X016189Y009575D03*
X014261Y009076D03*
X012365Y009076D03*
X011168Y008910D03*
X010237Y008910D03*
X010237Y009741D03*
X004218Y004920D03*
X013296Y034847D03*
X015158Y037174D03*
X015358Y037839D03*
X015291Y041165D03*
X015291Y041331D03*
X015291Y041497D03*
X015291Y041663D03*
D100*
X015291Y041630D03*
X015291Y041597D03*
X015291Y041564D03*
X015291Y041530D03*
X015291Y041464D03*
X015291Y041431D03*
X015291Y041397D03*
X015291Y041364D03*
X015291Y041298D03*
X015291Y041264D03*
X015291Y041231D03*
X015291Y041198D03*
X015291Y041131D03*
X015291Y041098D03*
X015291Y041065D03*
X014892Y040932D03*
X015291Y041697D03*
X015291Y041730D03*
X015291Y041763D03*
X015291Y041796D03*
X015724Y040965D03*
X015857Y037906D03*
X014926Y037972D03*
X015591Y036543D03*
X015158Y036277D03*
X013396Y034747D03*
X013363Y034780D03*
X013329Y034813D03*
X013263Y034880D03*
X001891Y041597D03*
X001891Y045953D03*
X013828Y009542D03*
X013828Y009509D03*
X013862Y009442D03*
X013862Y009276D03*
X013762Y008943D03*
X014261Y008977D03*
X014261Y009010D03*
X014261Y009043D03*
X014261Y009110D03*
X014294Y007514D03*
X013895Y006948D03*
X012797Y007281D03*
X012797Y007314D03*
X012398Y009010D03*
X012332Y009176D03*
X011800Y009209D03*
X011168Y008943D03*
X010237Y008877D03*
X010237Y009342D03*
X015424Y007447D03*
X015923Y007347D03*
X015458Y006882D03*
X016522Y006815D03*
X016555Y006782D03*
X016455Y007447D03*
X017619Y007347D03*
X017619Y007314D03*
X017619Y007281D03*
X017652Y007015D03*
X017652Y006982D03*
X018450Y008777D03*
X018450Y008977D03*
X018051Y008977D03*
X018051Y008943D03*
X018450Y009442D03*
X018450Y009775D03*
X018982Y009542D03*
X019182Y009043D03*
X020578Y009209D03*
X020578Y008777D03*
X021011Y008943D03*
X021011Y008977D03*
X020578Y009675D03*
X020578Y009775D03*
X016189Y009542D03*
X016189Y009509D03*
X016189Y009043D03*
X016189Y009010D03*
X026231Y004953D03*
X028592Y041597D03*
D101*
X015225Y004953D03*
D102*
X016006Y006782D03*
X016006Y006815D03*
X016006Y006849D03*
X016006Y006882D03*
X016006Y006948D03*
X015973Y006982D03*
X015973Y007015D03*
X015973Y007048D03*
X015973Y007115D03*
X015973Y007148D03*
X015973Y007181D03*
X015940Y007214D03*
X015940Y007281D03*
X015940Y007314D03*
X016472Y007480D03*
X016804Y007347D03*
X016804Y006982D03*
X017636Y007048D03*
X017636Y007115D03*
X017536Y008877D03*
X017669Y009276D03*
X018068Y009010D03*
X018434Y009010D03*
X018434Y009808D03*
X018999Y009608D03*
X019165Y009010D03*
X019165Y008977D03*
X020595Y009642D03*
X020595Y009808D03*
X021027Y009010D03*
X016206Y008977D03*
X016206Y008943D03*
X016206Y009608D03*
X015408Y007480D03*
X014942Y006982D03*
X014377Y006849D03*
X014277Y007547D03*
X013878Y009309D03*
X013845Y009475D03*
X012415Y008977D03*
X012415Y008943D03*
X012382Y009043D03*
X012349Y009110D03*
X012349Y009143D03*
X012315Y009209D03*
X012315Y009276D03*
X011783Y009176D03*
X011185Y009043D03*
X011185Y009010D03*
X011185Y008977D03*
X010254Y008977D03*
X010254Y008943D03*
X010254Y009309D03*
X010254Y009775D03*
X012814Y007214D03*
X012814Y007181D03*
X012814Y007148D03*
X012814Y007115D03*
X012847Y007048D03*
X012847Y007015D03*
X012847Y006982D03*
X012847Y006948D03*
X012847Y006882D03*
X012847Y006849D03*
X012881Y006815D03*
X012881Y006782D03*
X004235Y004953D03*
X013479Y034714D03*
X013246Y034913D03*
X013213Y034946D03*
X014942Y038072D03*
X014876Y039036D03*
X015873Y038903D03*
X016006Y038305D03*
X015907Y037806D03*
X015907Y037773D03*
X015940Y037740D03*
X015940Y037706D03*
X015341Y035478D03*
X014909Y040899D03*
X015740Y040932D03*
X028576Y041630D03*
X028576Y045953D03*
X001907Y041630D03*
D103*
X001924Y045920D03*
X015059Y037573D03*
X015890Y037873D03*
X015724Y040899D03*
X016222Y009642D03*
X014892Y007381D03*
X013895Y006982D03*
X013895Y009342D03*
X013895Y009376D03*
X004252Y004986D03*
X026198Y004986D03*
D104*
X015241Y004986D03*
D105*
X015009Y006649D03*
X014942Y007015D03*
X014909Y007347D03*
X015408Y007514D03*
X014344Y006782D03*
X013745Y008844D03*
X013113Y009642D03*
X012515Y008810D03*
X012282Y009376D03*
X011218Y009209D03*
X011218Y009176D03*
X010287Y009110D03*
X009655Y008977D03*
X004268Y005020D03*
X016239Y008877D03*
X016239Y009675D03*
X016904Y009642D03*
X017536Y009708D03*
X017569Y009675D03*
X017602Y009642D03*
X017702Y009342D03*
X018400Y009342D03*
X018400Y009874D03*
X019032Y009708D03*
X019132Y008877D03*
X020628Y009309D03*
X017602Y006882D03*
X017536Y007514D03*
X017503Y007613D03*
X017503Y007647D03*
X017503Y007680D03*
X017503Y007713D03*
X017503Y007780D03*
X017070Y007780D03*
X016804Y007314D03*
X016804Y007015D03*
X026181Y005020D03*
X013147Y035046D03*
X013113Y035113D03*
X013845Y037374D03*
X014909Y038039D03*
X016173Y037307D03*
X015374Y035412D03*
X001941Y041697D03*
X028542Y045920D03*
D106*
X015241Y005020D03*
D107*
X015424Y006815D03*
X014227Y007613D03*
X013895Y007048D03*
X013895Y007015D03*
X013862Y007314D03*
X013862Y007347D03*
X012531Y008777D03*
X011235Y009276D03*
X011235Y009309D03*
X016256Y009708D03*
X016256Y008844D03*
X017519Y008810D03*
X017719Y009376D03*
X018384Y009309D03*
X019049Y009775D03*
X017519Y007547D03*
X026165Y005053D03*
X013596Y034647D03*
X013097Y035146D03*
X015391Y035379D03*
X015225Y036243D03*
X015225Y037108D03*
X028526Y041697D03*
X001957Y045886D03*
D108*
X015225Y005053D03*
D109*
X015408Y006782D03*
X014942Y007048D03*
X014909Y007314D03*
X015408Y007547D03*
X016272Y008810D03*
X016904Y008943D03*
X018367Y009276D03*
X019065Y009808D03*
X019099Y008777D03*
X020628Y009874D03*
X020662Y009376D03*
X013878Y007281D03*
X013878Y007148D03*
X013878Y007115D03*
X013745Y008810D03*
X013113Y008943D03*
X013778Y009708D03*
X012282Y009509D03*
X012282Y009475D03*
X011251Y009376D03*
X011251Y009342D03*
X010320Y009209D03*
X009622Y009110D03*
X009622Y009043D03*
X009622Y009442D03*
X009622Y009475D03*
X004302Y005053D03*
X015474Y036110D03*
X015241Y036709D03*
X015241Y037075D03*
X014310Y037374D03*
X015940Y038870D03*
X015707Y040865D03*
X028509Y041730D03*
X028509Y045886D03*
X001974Y041730D03*
D110*
X013097Y035179D03*
X014759Y038504D03*
X014826Y039003D03*
X015923Y038837D03*
X015424Y035345D03*
X018351Y009243D03*
X019082Y008744D03*
X020678Y009409D03*
X016522Y007580D03*
X014926Y007248D03*
X013862Y007248D03*
X011268Y009409D03*
X009605Y009409D03*
X009605Y009243D03*
X004318Y005086D03*
X026131Y005086D03*
D111*
X015241Y005086D03*
D112*
X016306Y009808D03*
X026115Y005119D03*
X014809Y038405D03*
X002007Y041796D03*
X002007Y045853D03*
D113*
X015225Y005119D03*
D114*
X017552Y006782D03*
X016887Y008977D03*
X017519Y009808D03*
X018317Y009176D03*
X020711Y009442D03*
X013729Y008777D03*
X013097Y008977D03*
X012299Y009608D03*
X011800Y008844D03*
X011301Y009608D03*
X011301Y009642D03*
X004351Y005119D03*
X015458Y035279D03*
X015458Y036144D03*
X014327Y037474D03*
X028459Y041796D03*
D115*
X016306Y037241D03*
X015474Y035246D03*
X014676Y039269D03*
X002040Y041863D03*
X010353Y009874D03*
X011318Y009708D03*
X011318Y009675D03*
X011783Y008810D03*
X013778Y009775D03*
X016339Y009841D03*
X016339Y008711D03*
X017769Y009475D03*
X018301Y009143D03*
X026082Y005153D03*
D116*
X015225Y005153D03*
D117*
X016887Y009010D03*
X016887Y009542D03*
X017785Y009509D03*
X019880Y009509D03*
X019880Y009542D03*
X019880Y009608D03*
X019880Y009642D03*
X019880Y009475D03*
X019880Y009209D03*
X019880Y009176D03*
X019880Y009143D03*
X019880Y009110D03*
X019880Y009043D03*
X019880Y009010D03*
X019880Y008977D03*
X019880Y008943D03*
X020745Y009509D03*
X013097Y009542D03*
X013097Y009010D03*
X012299Y009642D03*
X011800Y008777D03*
X011334Y009775D03*
X011334Y009808D03*
X004385Y005153D03*
X013063Y035312D03*
X014726Y038770D03*
X028426Y041863D03*
D118*
X028409Y041896D03*
X016372Y037208D03*
X015507Y035212D03*
X014743Y038804D03*
X015241Y040034D03*
X002074Y041896D03*
X011351Y009874D03*
X011351Y009841D03*
X011783Y008711D03*
X012315Y009675D03*
X013113Y009509D03*
X013113Y009043D03*
X013778Y009808D03*
X014975Y008711D03*
X015374Y007613D03*
X016372Y009874D03*
X016904Y009509D03*
X016904Y009043D03*
X017503Y009841D03*
X017802Y009542D03*
X018267Y009110D03*
X020761Y009542D03*
X026048Y005186D03*
D119*
X015225Y005186D03*
D120*
X004418Y005186D03*
X013063Y035379D03*
X015391Y036210D03*
X014726Y038970D03*
X002090Y041929D03*
D121*
X013030Y035478D03*
X013030Y035445D03*
X015358Y037474D03*
X014759Y038903D03*
X015557Y035146D03*
X028359Y041963D03*
X016887Y009376D03*
X016887Y009209D03*
X016887Y009176D03*
X016887Y009143D03*
X015025Y009342D03*
X015025Y008877D03*
X013097Y009143D03*
X013097Y009176D03*
X013097Y009209D03*
X013097Y009376D03*
X004451Y005219D03*
X025998Y005219D03*
D122*
X015241Y005219D03*
D123*
X025949Y005252D03*
D124*
X015241Y005252D03*
D125*
X004518Y005252D03*
X017785Y036676D03*
X014061Y037341D03*
X013529Y039169D03*
D126*
X015225Y025835D03*
X015225Y025802D03*
X015225Y025769D03*
X015225Y025736D03*
X015225Y025669D03*
X015225Y025636D03*
X015225Y025603D03*
X015225Y025569D03*
X015225Y025503D03*
X015225Y025470D03*
X015225Y025436D03*
X015225Y025403D03*
X015225Y025337D03*
X015225Y025303D03*
X015225Y025270D03*
X015225Y025237D03*
X015225Y025170D03*
X015225Y025137D03*
X015225Y025104D03*
X015225Y025071D03*
X015225Y025004D03*
X015225Y024971D03*
X015225Y024938D03*
X015225Y024904D03*
X015225Y024838D03*
X015225Y024805D03*
X015225Y024771D03*
X015225Y024738D03*
X015225Y024672D03*
X015225Y024638D03*
X015225Y024605D03*
X015225Y024572D03*
X015225Y024505D03*
X015225Y024472D03*
X015225Y024439D03*
X015225Y024406D03*
X015225Y024339D03*
X015225Y024306D03*
X015225Y024273D03*
X015225Y024239D03*
X015225Y024173D03*
X015225Y024140D03*
X015225Y024106D03*
X015225Y024073D03*
X015225Y024007D03*
X015225Y023973D03*
X015225Y023940D03*
X015225Y023907D03*
X015225Y023840D03*
X015225Y023807D03*
X015225Y023774D03*
X015225Y023741D03*
X015225Y023674D03*
X015225Y023641D03*
X015225Y023608D03*
X015225Y023574D03*
X015225Y023508D03*
X015225Y023475D03*
X015225Y023441D03*
X015225Y023408D03*
X015225Y023342D03*
X015225Y023308D03*
X015225Y023275D03*
X015225Y023242D03*
X015225Y023175D03*
X015225Y023142D03*
X015225Y023109D03*
X015225Y023075D03*
X015225Y023009D03*
X015225Y022976D03*
X015225Y022942D03*
X015225Y022909D03*
X015225Y022843D03*
X015225Y022809D03*
X015225Y022776D03*
X015225Y022743D03*
X015225Y022676D03*
X015225Y022643D03*
X015225Y022610D03*
X015225Y022577D03*
X015225Y022510D03*
X015225Y022477D03*
X015225Y022444D03*
X015225Y022410D03*
X015225Y022344D03*
X015225Y022311D03*
X015225Y022277D03*
X015225Y022244D03*
X015225Y022178D03*
X015225Y022144D03*
X015225Y022111D03*
X015225Y022078D03*
X015225Y022011D03*
X015225Y021978D03*
X015225Y021945D03*
X015225Y021912D03*
X015225Y021845D03*
X015225Y021812D03*
X015225Y015860D03*
X015225Y015827D03*
X015225Y015793D03*
X015225Y015760D03*
X015225Y015694D03*
X015225Y015660D03*
X015225Y015627D03*
X015225Y015594D03*
X015225Y015527D03*
X015225Y015494D03*
X015225Y015461D03*
X015225Y015428D03*
X015225Y015361D03*
X015225Y015328D03*
X015225Y015295D03*
X015225Y015261D03*
X015225Y015195D03*
X015225Y015162D03*
X015225Y015128D03*
X015225Y015095D03*
X015225Y015029D03*
X015225Y014995D03*
X015225Y014962D03*
X015225Y014929D03*
X015225Y014862D03*
X015225Y014829D03*
X015225Y014796D03*
X015225Y014762D03*
X015225Y014696D03*
X015225Y014663D03*
X015225Y014629D03*
X015225Y014596D03*
X015225Y014530D03*
X015225Y014496D03*
X015225Y014463D03*
X015225Y014430D03*
X015225Y014363D03*
X015225Y014330D03*
X015225Y014297D03*
X015225Y014264D03*
X015225Y014197D03*
X015225Y014164D03*
X015225Y014131D03*
X015225Y014097D03*
X015225Y014031D03*
X015225Y013998D03*
X015225Y013964D03*
X015225Y013931D03*
X015225Y013865D03*
X015225Y013831D03*
X015225Y013798D03*
X015225Y013765D03*
X015225Y013698D03*
X015225Y013665D03*
X015225Y013632D03*
X015225Y013599D03*
X015225Y013532D03*
X015225Y013499D03*
X015225Y013466D03*
X015225Y013432D03*
X015225Y013366D03*
X015225Y013333D03*
X015225Y013299D03*
X015225Y013266D03*
X015225Y013200D03*
X015225Y013166D03*
X015225Y013133D03*
X015225Y013100D03*
X015225Y013033D03*
X015225Y013000D03*
X015225Y012967D03*
X015225Y012934D03*
X015225Y012867D03*
X015225Y012834D03*
X015225Y012801D03*
X015225Y012767D03*
X015225Y012701D03*
X015225Y012668D03*
X015225Y012634D03*
X015225Y012601D03*
X015225Y012535D03*
X015225Y012501D03*
X015225Y012468D03*
X015225Y012435D03*
X015225Y012368D03*
X015225Y012335D03*
X015225Y012302D03*
X015225Y012269D03*
X015225Y012202D03*
X015225Y012169D03*
X015225Y012136D03*
X015225Y012102D03*
X015225Y012036D03*
X015225Y012003D03*
X015225Y011969D03*
X015225Y011936D03*
X015225Y011870D03*
X015225Y011836D03*
X015225Y011803D03*
X015225Y011770D03*
X015225Y011703D03*
X015225Y011670D03*
X015225Y011637D03*
X015225Y011604D03*
X015225Y011537D03*
X015225Y011504D03*
X015225Y011471D03*
X015225Y011437D03*
X015225Y011371D03*
X015225Y011338D03*
X015225Y011304D03*
X015225Y011271D03*
X015225Y011205D03*
X015225Y011171D03*
X015225Y011138D03*
X015225Y011105D03*
X015225Y011038D03*
X015225Y011005D03*
X015225Y010972D03*
X015225Y010939D03*
X015225Y010872D03*
X015225Y010839D03*
X015225Y010806D03*
X015225Y010772D03*
X015225Y010706D03*
X015225Y010673D03*
X015225Y010639D03*
X015225Y010606D03*
X015225Y010539D03*
X015225Y010506D03*
X015225Y010473D03*
X015225Y010440D03*
X015225Y010373D03*
X015225Y010340D03*
X015225Y010307D03*
X015225Y010273D03*
X015225Y010207D03*
X015225Y010174D03*
X015225Y010140D03*
X015225Y010107D03*
X015225Y010041D03*
X015225Y010007D03*
X015225Y009974D03*
X015225Y009941D03*
X015225Y008644D03*
X015225Y008611D03*
X015225Y008544D03*
X015225Y008511D03*
X015225Y008478D03*
X015225Y008445D03*
X015225Y008378D03*
X015225Y008345D03*
X015225Y008312D03*
X015225Y008278D03*
X015225Y008212D03*
X015225Y008179D03*
X015225Y008145D03*
X015225Y008112D03*
X015225Y008046D03*
X015225Y008012D03*
X015225Y007979D03*
X015225Y006383D03*
X015225Y006350D03*
X015225Y006316D03*
X015225Y006283D03*
X015225Y006217D03*
X015225Y006183D03*
X015225Y006150D03*
X015225Y006117D03*
X015225Y006050D03*
X015225Y006017D03*
X015225Y005984D03*
X015225Y005951D03*
X015225Y005884D03*
X015225Y005851D03*
X015225Y005818D03*
X015225Y005784D03*
X015225Y005718D03*
X015225Y005685D03*
X015225Y005651D03*
X015225Y005618D03*
X015225Y005552D03*
X015225Y005518D03*
X015225Y005485D03*
X015225Y005452D03*
X015225Y005385D03*
X015225Y005352D03*
X015225Y005319D03*
X015225Y005286D03*
D127*
X015225Y005419D03*
X015225Y005585D03*
X015225Y005751D03*
X015225Y005917D03*
X015225Y006084D03*
X015225Y006250D03*
X015225Y008079D03*
X015225Y008245D03*
X015225Y008411D03*
X015225Y008578D03*
X015225Y010074D03*
X015225Y010240D03*
X015225Y010406D03*
X015225Y010573D03*
X015225Y010739D03*
X015225Y010905D03*
X015225Y011072D03*
X015225Y011238D03*
X015225Y011404D03*
X015225Y011570D03*
X015225Y011737D03*
X015225Y011903D03*
X015225Y012069D03*
X015225Y012235D03*
X015225Y012402D03*
X015225Y012568D03*
X015225Y012734D03*
X015225Y012900D03*
X015225Y013067D03*
X015225Y013233D03*
X015225Y013399D03*
X015225Y013565D03*
X015225Y013732D03*
X015225Y013898D03*
X015225Y014064D03*
X015225Y014230D03*
X015225Y014397D03*
X015225Y014563D03*
X015225Y014729D03*
X015225Y014896D03*
X015225Y015062D03*
X015225Y015228D03*
X015225Y015394D03*
X015225Y015561D03*
X015225Y015727D03*
X015225Y021878D03*
X015225Y022045D03*
X015225Y022211D03*
X015225Y022377D03*
X015225Y022543D03*
X015225Y022710D03*
X015225Y022876D03*
X015225Y023042D03*
X015225Y023208D03*
X015225Y023375D03*
X015225Y023541D03*
X015225Y023707D03*
X015225Y023874D03*
X015225Y024040D03*
X015225Y024206D03*
X015225Y024372D03*
X015225Y024539D03*
X015225Y024705D03*
X015225Y024871D03*
X015225Y025037D03*
X015225Y025204D03*
X015225Y025370D03*
X015225Y025536D03*
X015225Y025702D03*
X015225Y025869D03*
D128*
X020778Y006416D03*
D129*
X009472Y006416D03*
X008275Y040001D03*
D130*
X015225Y016957D03*
X020811Y006450D03*
X022873Y034414D03*
D131*
X022889Y034614D03*
X022224Y039967D03*
X015241Y016824D03*
X009422Y006450D03*
D132*
X020844Y006483D03*
X022042Y040134D03*
X008408Y040134D03*
D133*
X022889Y034647D03*
X009389Y006483D03*
D134*
X015241Y016924D03*
X020861Y006616D03*
X020861Y006516D03*
X022889Y034448D03*
X007594Y034448D03*
D135*
X007577Y034647D03*
X008175Y039901D03*
X022274Y039901D03*
X009373Y006516D03*
D136*
X020878Y006549D03*
D137*
X009356Y006549D03*
X008159Y039868D03*
D138*
X020894Y006583D03*
D139*
X009339Y006583D03*
X007577Y034680D03*
X022873Y034680D03*
D140*
X022308Y039868D03*
X009339Y006616D03*
D141*
X020828Y006649D03*
X007594Y034414D03*
D142*
X009323Y006682D03*
X009323Y006649D03*
D143*
X020578Y006682D03*
D144*
X021775Y006716D03*
X022973Y035811D03*
X022973Y035877D03*
X022973Y038205D03*
X022973Y038238D03*
X022973Y038272D03*
X007477Y038205D03*
X007477Y035911D03*
X007477Y035877D03*
D145*
X017170Y036410D03*
X017170Y036443D03*
X017170Y036476D03*
X015807Y006716D03*
D146*
X009306Y006716D03*
X007577Y034714D03*
X008109Y039801D03*
X022873Y034714D03*
D147*
X008242Y007414D03*
X008242Y007248D03*
X022208Y006915D03*
X022208Y006749D03*
D148*
X017536Y006749D03*
X016904Y009575D03*
D149*
X017503Y007746D03*
X017602Y006915D03*
X016572Y006749D03*
X010287Y009076D03*
X010287Y009243D03*
X009655Y009575D03*
X016073Y037341D03*
X028542Y041663D03*
D150*
X015990Y038338D03*
X013529Y034680D03*
X013163Y035013D03*
X011201Y009076D03*
X012831Y007081D03*
X012864Y006749D03*
X013097Y008910D03*
X016023Y006749D03*
X019149Y008910D03*
D151*
X016322Y008744D03*
X015391Y007580D03*
X015358Y006749D03*
X015291Y037008D03*
X015724Y040832D03*
X002024Y041830D03*
D152*
X014443Y039003D03*
X014842Y041165D03*
X014842Y041331D03*
X014842Y041497D03*
X014842Y041663D03*
X015840Y039003D03*
X015774Y038006D03*
X028642Y041497D03*
X019664Y009741D03*
X019664Y009409D03*
X019664Y009243D03*
X019664Y008744D03*
X018932Y009409D03*
X018500Y008910D03*
X016439Y007081D03*
X015907Y007414D03*
X014842Y006749D03*
X014344Y007414D03*
X013778Y009076D03*
X012748Y007414D03*
X010187Y008744D03*
X009755Y008910D03*
D153*
X012299Y009409D03*
X014327Y006749D03*
D154*
X014909Y007414D03*
X013379Y006749D03*
X010220Y009409D03*
X016705Y007248D03*
X019198Y009076D03*
X020562Y009741D03*
X015740Y040998D03*
X015740Y041830D03*
D155*
X022158Y007580D03*
X008292Y007580D03*
X008292Y006749D03*
D156*
X008242Y007281D03*
X008242Y007314D03*
X008242Y007347D03*
X008242Y007381D03*
X008242Y007447D03*
X022208Y006948D03*
X022208Y006882D03*
X022208Y006849D03*
X022208Y006815D03*
X022208Y006782D03*
D157*
X019282Y009342D03*
X014793Y006782D03*
X011800Y009442D03*
X016123Y038205D03*
X015458Y038405D03*
D158*
X008275Y007547D03*
X008275Y006982D03*
X008275Y006948D03*
X008275Y006882D03*
X008275Y006849D03*
X008275Y006815D03*
X008275Y006782D03*
X022175Y007214D03*
X022175Y007281D03*
X022175Y007314D03*
X022175Y007347D03*
X022175Y007381D03*
D159*
X020645Y009342D03*
X019115Y008844D03*
X019115Y008810D03*
X017619Y009608D03*
X016488Y007547D03*
X016788Y007281D03*
X016788Y007048D03*
X017619Y006849D03*
X017619Y006815D03*
X013795Y009675D03*
X012299Y009442D03*
X010304Y009176D03*
X010304Y009143D03*
X010304Y009841D03*
X009639Y009542D03*
X009639Y009509D03*
X009639Y009010D03*
X013130Y035079D03*
X014327Y037407D03*
D160*
X016156Y038704D03*
X028725Y041364D03*
X028725Y046186D03*
X011800Y009542D03*
X010769Y009176D03*
X010769Y009143D03*
X013596Y007514D03*
X013695Y006815D03*
X014759Y006815D03*
X014660Y007514D03*
X015790Y009143D03*
X015790Y009176D03*
X017020Y007181D03*
X017020Y007148D03*
X018849Y009143D03*
X019315Y009442D03*
D161*
X019016Y009642D03*
X019016Y009675D03*
X018417Y009841D03*
X018417Y009376D03*
X018417Y008711D03*
X017685Y009309D03*
X017519Y008844D03*
X016488Y007514D03*
X015458Y006849D03*
X014360Y006815D03*
X013862Y007381D03*
X013762Y008877D03*
X013795Y009608D03*
X013795Y009642D03*
X012498Y008844D03*
X012465Y008877D03*
X012299Y009309D03*
X012299Y009342D03*
X011201Y009143D03*
X011201Y009110D03*
X010270Y009043D03*
X010270Y009010D03*
X010270Y009276D03*
X010270Y009808D03*
X009672Y009608D03*
X009672Y008943D03*
X019149Y008943D03*
X020612Y008711D03*
X020612Y009276D03*
X020612Y009608D03*
X020612Y009841D03*
X013196Y034980D03*
X015358Y035445D03*
X015524Y036077D03*
X015192Y036742D03*
X015192Y037141D03*
X015990Y038371D03*
X014926Y040865D03*
D162*
X014876Y040965D03*
X015740Y041032D03*
X015740Y041065D03*
X014876Y039070D03*
X015075Y038205D03*
X015042Y038139D03*
X014909Y037939D03*
X015374Y037873D03*
X016040Y038272D03*
X020562Y009708D03*
X020562Y009176D03*
X020562Y008810D03*
X019198Y009110D03*
X017536Y008943D03*
X017070Y007713D03*
X016705Y007115D03*
X015907Y007381D03*
X014377Y006882D03*
X013246Y007613D03*
X010220Y008844D03*
X010220Y009376D03*
X010220Y009675D03*
X010220Y009708D03*
X009722Y009642D03*
D163*
X010204Y009575D03*
X010669Y009575D03*
X011135Y008744D03*
X013263Y007580D03*
X013296Y007248D03*
X013329Y007081D03*
X013363Y006915D03*
X014394Y006915D03*
X015491Y007081D03*
X016488Y006915D03*
X017619Y007414D03*
X018051Y008910D03*
X017586Y009076D03*
X018484Y009575D03*
X020545Y009076D03*
X020545Y008910D03*
X021011Y008910D03*
X016156Y009243D03*
X015690Y009575D03*
X014294Y009575D03*
X013928Y037839D03*
X014992Y038338D03*
X015059Y038172D03*
X014859Y039169D03*
X014859Y040998D03*
X015757Y041165D03*
X015757Y041331D03*
X015757Y041497D03*
X015757Y041663D03*
D164*
X015308Y041830D03*
X014909Y038006D03*
X015907Y037839D03*
X013812Y009575D03*
X013878Y009409D03*
X013745Y008910D03*
X014244Y007580D03*
X012814Y007248D03*
X012847Y006915D03*
X012448Y008910D03*
X012315Y009243D03*
X015940Y007248D03*
X015973Y007081D03*
X016006Y006915D03*
X017070Y007746D03*
X017636Y007081D03*
X017536Y008910D03*
X018434Y008744D03*
X018434Y009409D03*
X020595Y009243D03*
X020595Y008744D03*
D165*
X022175Y007414D03*
X022175Y007248D03*
X008275Y006915D03*
D166*
X010187Y008711D03*
X010686Y008844D03*
X010686Y008877D03*
X011118Y008711D03*
X011783Y009309D03*
X011783Y009342D03*
X010686Y009642D03*
X013778Y009043D03*
X014410Y007048D03*
X014410Y007015D03*
X014410Y006982D03*
X014942Y006948D03*
X015507Y007115D03*
X016439Y007048D03*
X016439Y007281D03*
X017070Y007680D03*
X017669Y007214D03*
X018500Y008877D03*
X018932Y009376D03*
X019232Y009209D03*
X019232Y009176D03*
X019664Y009276D03*
X019664Y009309D03*
X019664Y009342D03*
X019664Y009376D03*
X019664Y009708D03*
X019664Y009775D03*
X019664Y009808D03*
X019664Y009841D03*
X019664Y008877D03*
X019664Y008844D03*
X019664Y008810D03*
X019664Y008777D03*
X019664Y008711D03*
X020529Y008943D03*
X020529Y008977D03*
X020529Y009010D03*
X020529Y009043D03*
X017602Y009110D03*
X017602Y009143D03*
X017569Y009043D03*
X015707Y008877D03*
X015707Y008844D03*
X015707Y009642D03*
X015275Y035578D03*
X015108Y036543D03*
X015108Y036809D03*
X014909Y037906D03*
X015075Y038238D03*
X015075Y038272D03*
X015042Y038305D03*
X014876Y038538D03*
X014876Y039136D03*
X015441Y039203D03*
X015840Y039070D03*
X015840Y039036D03*
X015840Y038970D03*
X015873Y039136D03*
X015907Y038438D03*
X015740Y038039D03*
X015374Y037906D03*
X014842Y041098D03*
X014842Y041131D03*
X014842Y041198D03*
X014842Y041231D03*
X014842Y041264D03*
X014842Y041298D03*
X014842Y041364D03*
X014842Y041397D03*
X014842Y041431D03*
X014842Y041464D03*
X014842Y041530D03*
X014842Y041564D03*
X014842Y041597D03*
X014842Y041630D03*
X014842Y041697D03*
X014842Y041730D03*
X014842Y041763D03*
X014842Y041796D03*
X028642Y046053D03*
D167*
X008259Y007514D03*
X008259Y007480D03*
X008259Y007214D03*
X008259Y007181D03*
X008259Y007148D03*
X008259Y007115D03*
X008259Y007048D03*
X008259Y007015D03*
X022191Y007015D03*
X022191Y007048D03*
X022191Y006982D03*
X022191Y007115D03*
X022191Y007148D03*
X022191Y007181D03*
D168*
X022191Y007081D03*
X008259Y007081D03*
D169*
X013629Y007580D03*
X016987Y007248D03*
X016987Y007081D03*
X016123Y040998D03*
D170*
X016272Y009741D03*
X017735Y009409D03*
X014942Y007081D03*
X013878Y007081D03*
X012581Y008744D03*
X009622Y009076D03*
D171*
X009605Y009143D03*
X009605Y009176D03*
X009605Y009209D03*
X009605Y009276D03*
X009605Y009309D03*
X009605Y009342D03*
X009605Y009376D03*
X011268Y009442D03*
X011268Y009475D03*
X012598Y008711D03*
X013097Y009608D03*
X013862Y007214D03*
X013862Y007181D03*
X014926Y007181D03*
X014926Y007148D03*
X014926Y007115D03*
X014926Y007214D03*
X014926Y007281D03*
X016289Y008777D03*
X016289Y009775D03*
X016887Y009608D03*
X017519Y009775D03*
X019082Y009841D03*
X019082Y008711D03*
X013662Y034614D03*
X014327Y037440D03*
X014826Y038371D03*
X014793Y038438D03*
X014759Y038471D03*
X014726Y039236D03*
X015923Y038737D03*
X016222Y037274D03*
X028492Y041763D03*
X001991Y041763D03*
D172*
X015474Y038504D03*
X015641Y036509D03*
X014310Y008910D03*
X015474Y007248D03*
D173*
X022158Y007447D03*
X022158Y007480D03*
X022158Y007514D03*
X022158Y007547D03*
X022158Y007613D03*
X022158Y007647D03*
X022158Y007680D03*
D174*
X019049Y009741D03*
X017519Y009741D03*
X017519Y007580D03*
X011235Y009243D03*
X014926Y040832D03*
D175*
X015374Y038006D03*
X016139Y038172D03*
X014709Y035013D03*
X001774Y046152D03*
X010752Y009076D03*
X012881Y007580D03*
X015774Y009076D03*
X016040Y007580D03*
X019298Y009409D03*
X028709Y046152D03*
D176*
X014892Y038671D03*
X015059Y036509D03*
X018883Y009243D03*
X014693Y007580D03*
D177*
X016538Y007613D03*
X017503Y008777D03*
X017769Y009442D03*
X018334Y009209D03*
X019065Y009874D03*
X012282Y009542D03*
X011783Y008877D03*
X011284Y009509D03*
X011284Y009542D03*
X014576Y035046D03*
X015441Y035312D03*
X015275Y037041D03*
X015175Y037540D03*
X015907Y038770D03*
X015907Y038804D03*
X013080Y035246D03*
X013080Y035212D03*
X028476Y045853D03*
D178*
X022125Y007946D03*
X008325Y007613D03*
D179*
X010437Y007647D03*
X010437Y007680D03*
X015225Y018354D03*
D180*
X022141Y007879D03*
X022141Y007846D03*
X022141Y007813D03*
X022141Y007780D03*
X022141Y007713D03*
D181*
X010453Y007713D03*
X010453Y007780D03*
D182*
X022141Y007746D03*
X022141Y007913D03*
D183*
X015241Y018387D03*
X010453Y007746D03*
D184*
X010885Y007813D03*
X010885Y007846D03*
X010885Y007946D03*
X015241Y019252D03*
D185*
X010869Y007879D03*
D186*
X010869Y007913D03*
X015225Y019218D03*
D187*
X023754Y016192D03*
X023754Y009309D03*
X023754Y008677D03*
X006696Y008810D03*
D188*
X005432Y020582D03*
X015241Y039735D03*
X025018Y020582D03*
X019531Y008677D03*
D189*
X017486Y008677D03*
X015092Y009143D03*
X015092Y009176D03*
X015092Y009841D03*
X016588Y036642D03*
X017752Y036576D03*
X017785Y036709D03*
X017020Y039070D03*
X016987Y039103D03*
X016954Y039136D03*
X014261Y037640D03*
X013496Y039136D03*
X002190Y042096D03*
X028293Y042096D03*
D190*
X024968Y046418D03*
X024635Y019119D03*
X024635Y019085D03*
X014992Y008677D03*
X005815Y019119D03*
X005815Y019152D03*
X005515Y046418D03*
D191*
X008508Y008677D03*
D192*
X006662Y008877D03*
X006662Y009642D03*
X006662Y009675D03*
X006662Y016259D03*
X023787Y009841D03*
X023787Y009376D03*
X023787Y008711D03*
D193*
X018251Y009043D03*
X017486Y008711D03*
X014992Y008777D03*
X014992Y008810D03*
X014992Y009442D03*
X014992Y009475D03*
X014992Y009509D03*
X014992Y009542D03*
X014992Y009608D03*
X014992Y009642D03*
X012332Y009708D03*
X015358Y036576D03*
X015358Y036609D03*
X015358Y036642D03*
X015790Y037374D03*
X014161Y037873D03*
X028393Y041929D03*
D194*
X028343Y045787D03*
X016971Y034880D03*
X016538Y036775D03*
X016538Y036809D03*
X016505Y036908D03*
X016505Y036942D03*
X016505Y036975D03*
X015574Y035113D03*
X014277Y037540D03*
X013645Y039302D03*
X002140Y045787D03*
X012349Y009775D03*
X013113Y009342D03*
X013113Y009309D03*
X013113Y009276D03*
X013745Y008711D03*
X013778Y009841D03*
X015042Y009775D03*
X015042Y009309D03*
X015042Y008977D03*
X015042Y008943D03*
X016904Y009276D03*
X016904Y009309D03*
X016904Y009342D03*
X017503Y009874D03*
D195*
X017503Y008744D03*
X013113Y009575D03*
X011318Y009741D03*
X028443Y041830D03*
D196*
X015275Y037507D03*
X014310Y037507D03*
X013047Y035345D03*
X020761Y009575D03*
X018267Y009076D03*
X014975Y008744D03*
D197*
X013729Y008744D03*
X011800Y008744D03*
X019880Y008910D03*
X019880Y009076D03*
X019880Y009575D03*
X015424Y036177D03*
X028426Y045820D03*
X002057Y045820D03*
D198*
X023704Y009908D03*
X006746Y008744D03*
D199*
X006629Y008977D03*
X006629Y009010D03*
X006629Y009542D03*
X006629Y016292D03*
X023820Y016292D03*
X023820Y009775D03*
X023820Y009442D03*
X023820Y008977D03*
X023820Y008777D03*
D200*
X023837Y008810D03*
X023837Y009475D03*
X023837Y009509D03*
X023837Y009708D03*
X023837Y016325D03*
X006613Y016325D03*
X006613Y009509D03*
X006613Y009475D03*
X006613Y009442D03*
X006613Y009143D03*
X006613Y009110D03*
X006613Y009043D03*
D201*
X006596Y009176D03*
X006596Y009209D03*
X006596Y009276D03*
X006596Y009309D03*
X006596Y009342D03*
X006596Y009376D03*
X006596Y016359D03*
X023854Y009675D03*
X023854Y009642D03*
X023854Y009608D03*
X023854Y009542D03*
X023854Y008943D03*
X023854Y008844D03*
D202*
X016904Y009110D03*
X016904Y009442D03*
X016904Y009475D03*
X015009Y009376D03*
X015009Y009675D03*
X015009Y009708D03*
X015009Y008844D03*
X013113Y009110D03*
X013113Y009442D03*
X013113Y009475D03*
X016904Y034813D03*
X014144Y037906D03*
X014743Y038937D03*
X014643Y039302D03*
X013047Y035412D03*
X002107Y041963D03*
D203*
X023870Y016359D03*
X023870Y008877D03*
D204*
X023870Y008910D03*
X006579Y016392D03*
D205*
X016222Y008910D03*
X016887Y008910D03*
X001924Y041663D03*
D206*
X002124Y041996D03*
X016422Y037174D03*
X015025Y009741D03*
X015025Y008910D03*
X016887Y009409D03*
X013097Y009409D03*
D207*
X013778Y009741D03*
X012282Y009575D03*
X011783Y008910D03*
X011284Y009575D03*
D208*
X006646Y009608D03*
X006646Y008943D03*
X023804Y009010D03*
X023804Y009808D03*
X023804Y016259D03*
D209*
X015059Y009808D03*
X015059Y009276D03*
X015059Y009043D03*
X015059Y009010D03*
X015225Y034049D03*
X016555Y036709D03*
X016555Y036742D03*
X016522Y036875D03*
X014793Y038870D03*
X013596Y039269D03*
X013030Y035545D03*
X002157Y042029D03*
X028326Y042029D03*
D210*
X023621Y009043D03*
D211*
X023638Y009076D03*
X023638Y016059D03*
D212*
X016887Y009076D03*
D213*
X015075Y009076D03*
X015075Y009243D03*
X016572Y036676D03*
D214*
X015524Y035179D03*
X015358Y036676D03*
X014992Y009575D03*
X013097Y009076D03*
X017785Y009575D03*
D215*
X023837Y009741D03*
X006613Y009409D03*
X006613Y009076D03*
D216*
X012349Y009808D03*
X015075Y009110D03*
X015607Y035079D03*
X013014Y035578D03*
X013014Y035611D03*
X013546Y039203D03*
X013579Y039236D03*
X028310Y042062D03*
D217*
X017769Y036875D03*
X017769Y036809D03*
X017769Y036775D03*
X017769Y036742D03*
X017769Y036642D03*
X017769Y036609D03*
X016971Y034980D03*
X016605Y036609D03*
X015441Y037440D03*
X015641Y035046D03*
X013014Y035645D03*
X013479Y039103D03*
X002207Y042129D03*
X015108Y009209D03*
D218*
X016904Y009243D03*
X013113Y009243D03*
X016538Y036842D03*
X016505Y037008D03*
X014776Y038837D03*
X014610Y039336D03*
X028343Y041996D03*
D219*
X023854Y009575D03*
X006596Y009243D03*
D220*
X015009Y009409D03*
X016937Y034847D03*
D221*
X013080Y035279D03*
X020728Y009475D03*
D222*
X012332Y009741D03*
D223*
X006696Y009741D03*
D224*
X012382Y009841D03*
X017735Y036543D03*
X017037Y039036D03*
X014044Y037307D03*
D225*
X012781Y037374D03*
X012781Y037407D03*
X012781Y037440D03*
X012781Y037540D03*
X012781Y037573D03*
X012814Y037607D03*
X012814Y037640D03*
X013413Y038937D03*
X017137Y038804D03*
X017702Y037307D03*
X017702Y037274D03*
X017702Y037241D03*
X017702Y037208D03*
X016971Y035046D03*
X028210Y042229D03*
X015142Y009874D03*
X002273Y042229D03*
D226*
X014011Y037274D03*
X014277Y037573D03*
X016638Y036543D03*
X017735Y037041D03*
X017735Y037075D03*
X017104Y038903D03*
X013812Y009874D03*
D227*
X012398Y009874D03*
X017719Y037108D03*
X017719Y037141D03*
X002257Y042195D03*
D228*
X005216Y047649D03*
X025167Y047482D03*
X019514Y009908D03*
D229*
X017469Y009908D03*
X017137Y038837D03*
D230*
X014992Y009908D03*
D231*
X008558Y009908D03*
X023089Y036842D03*
X023089Y037008D03*
X023089Y037174D03*
D232*
X023338Y015893D03*
X007111Y015893D03*
D233*
X007012Y015926D03*
X023438Y015926D03*
X025799Y045687D03*
X004684Y045620D03*
D234*
X006912Y015993D03*
D235*
X006862Y016026D03*
X023588Y016026D03*
D236*
X006829Y016059D03*
D237*
X006679Y016226D03*
X023771Y016226D03*
D238*
X023887Y016392D03*
D239*
X023904Y016425D03*
X006546Y016458D03*
D240*
X006563Y016425D03*
D241*
X006529Y016492D03*
X023920Y016458D03*
D242*
X023937Y016492D03*
X006513Y016525D03*
D243*
X023953Y016525D03*
D244*
X023970Y016558D03*
D245*
X006496Y016558D03*
D246*
X006480Y016591D03*
X023970Y016591D03*
D247*
X023987Y016625D03*
X006463Y016625D03*
X006463Y016658D03*
D248*
X006446Y016691D03*
X024003Y016658D03*
D249*
X024020Y016691D03*
X025284Y045787D03*
X005199Y045787D03*
D250*
X006430Y016724D03*
X024020Y016724D03*
D251*
X015241Y016724D03*
X007926Y039502D03*
D252*
X006413Y016791D03*
X006413Y016758D03*
X024037Y016758D03*
D253*
X015241Y016758D03*
X022391Y039735D03*
X008059Y039735D03*
D254*
X006396Y016857D03*
X006396Y016824D03*
X024053Y016824D03*
X024053Y016791D03*
D255*
X015241Y016791D03*
D256*
X024070Y016857D03*
D257*
X015241Y016857D03*
X022889Y034547D03*
X022158Y040034D03*
D258*
X024087Y016891D03*
D259*
X015225Y016891D03*
D260*
X006380Y016891D03*
D261*
X006363Y016924D03*
X006363Y016957D03*
X024087Y016924D03*
D262*
X024103Y016957D03*
X024103Y016990D03*
X006347Y016990D03*
X006347Y017024D03*
D263*
X015225Y016990D03*
X022873Y034381D03*
X021975Y040932D03*
X021975Y040965D03*
D264*
X024120Y017024D03*
X006330Y017090D03*
D265*
X015225Y017024D03*
X021942Y040865D03*
X008508Y042262D03*
D266*
X006330Y017057D03*
X024120Y017057D03*
D267*
X015225Y017057D03*
D268*
X024136Y017090D03*
X024136Y017123D03*
X006313Y017123D03*
X006313Y017157D03*
D269*
X015225Y017090D03*
X007610Y034281D03*
X008574Y042096D03*
X008574Y042129D03*
D270*
X008591Y042062D03*
X008591Y040267D03*
X021859Y040267D03*
X022856Y034281D03*
X015241Y017123D03*
D271*
X024153Y017157D03*
X024153Y017190D03*
X006297Y017190D03*
D272*
X015241Y017157D03*
X007627Y034248D03*
X022856Y034248D03*
D273*
X021809Y041065D03*
X021809Y041098D03*
X021809Y041131D03*
X021809Y041198D03*
X021809Y041231D03*
X021809Y041264D03*
X021809Y041298D03*
X021809Y041364D03*
X021809Y041397D03*
X021809Y041431D03*
X021809Y041464D03*
X021809Y041530D03*
X021809Y041564D03*
X021809Y041597D03*
X021809Y041630D03*
X021809Y041697D03*
X021809Y041730D03*
X021809Y041763D03*
X021809Y041796D03*
X015225Y017190D03*
D274*
X024170Y017223D03*
D275*
X015225Y017223D03*
D276*
X006297Y017223D03*
D277*
X006280Y017256D03*
X006280Y017290D03*
X024170Y017256D03*
X025167Y045853D03*
D278*
X015241Y017256D03*
D279*
X024186Y017290D03*
X024186Y017323D03*
X006263Y017323D03*
X006263Y017356D03*
D280*
X015225Y017290D03*
D281*
X015241Y017323D03*
D282*
X024203Y017356D03*
X006247Y017423D03*
D283*
X015225Y017356D03*
D284*
X024203Y017389D03*
X006247Y017389D03*
D285*
X015241Y017389D03*
D286*
X024220Y017423D03*
X024220Y017456D03*
X025117Y045886D03*
X006230Y017489D03*
X006230Y017456D03*
X005332Y045886D03*
D287*
X007677Y034115D03*
X015225Y017423D03*
X022773Y034115D03*
D288*
X015241Y017456D03*
D289*
X024236Y017489D03*
X024236Y017522D03*
X006214Y017522D03*
D290*
X015225Y017489D03*
X022740Y034082D03*
X007710Y034082D03*
D291*
X015241Y017522D03*
D292*
X024253Y017556D03*
D293*
X015225Y017556D03*
D294*
X006214Y017556D03*
D295*
X006197Y017589D03*
X006197Y017622D03*
X005366Y045920D03*
X024253Y017589D03*
D296*
X015241Y017589D03*
X022723Y034049D03*
D297*
X025101Y045920D03*
X024269Y017655D03*
X024269Y017622D03*
X006180Y017655D03*
X006180Y017689D03*
D298*
X015225Y017622D03*
D299*
X015241Y017655D03*
D300*
X024286Y017689D03*
X006164Y017755D03*
D301*
X015225Y017689D03*
D302*
X024286Y017722D03*
X006164Y017722D03*
D303*
X015241Y017722D03*
D304*
X024303Y017755D03*
X024303Y017788D03*
X025067Y045953D03*
X006147Y017822D03*
X006147Y017788D03*
X005382Y045953D03*
D305*
X015225Y017755D03*
D306*
X015241Y017788D03*
D307*
X024319Y017822D03*
X024319Y017855D03*
X006130Y017855D03*
D308*
X015225Y017822D03*
X022640Y033949D03*
D309*
X015241Y017855D03*
D310*
X024336Y017888D03*
X025067Y045986D03*
X005416Y045986D03*
D311*
X015225Y017888D03*
D312*
X006130Y017888D03*
D313*
X006114Y017921D03*
X006114Y017955D03*
X024336Y017921D03*
D314*
X015241Y017921D03*
D315*
X024353Y017955D03*
X024353Y017988D03*
X006097Y017988D03*
X006097Y018021D03*
X005432Y046019D03*
D316*
X007909Y033882D03*
X015225Y017955D03*
D317*
X015241Y017988D03*
X022557Y033882D03*
X007926Y042295D03*
D318*
X006081Y018088D03*
X024369Y018021D03*
X025034Y046019D03*
D319*
X015225Y018021D03*
D320*
X024369Y018054D03*
X006081Y018054D03*
D321*
X015241Y018054D03*
X007959Y033849D03*
D322*
X005432Y046053D03*
X006064Y018154D03*
X006064Y018121D03*
X024386Y018121D03*
X024386Y018088D03*
X025018Y046053D03*
D323*
X015225Y018088D03*
D324*
X015241Y018121D03*
D325*
X024402Y018154D03*
X024402Y018187D03*
X006047Y018187D03*
D326*
X015225Y018154D03*
X008009Y033816D03*
D327*
X015241Y018187D03*
D328*
X024419Y018221D03*
D329*
X015225Y018221D03*
D330*
X006047Y018221D03*
D331*
X006031Y018254D03*
X006031Y018287D03*
X005465Y046086D03*
X024419Y018254D03*
D332*
X015241Y018254D03*
D333*
X024436Y018287D03*
X024436Y018320D03*
X025001Y046119D03*
X006014Y018354D03*
X006014Y018320D03*
D334*
X015225Y018287D03*
X008076Y033783D03*
D335*
X015241Y018320D03*
D336*
X024452Y018354D03*
X005997Y018420D03*
D337*
X005997Y018387D03*
X024452Y018387D03*
D338*
X024469Y018420D03*
X024469Y018453D03*
X005981Y018453D03*
X005981Y018487D03*
D339*
X015225Y018420D03*
X008142Y033749D03*
D340*
X015241Y018453D03*
X022324Y033749D03*
D341*
X024984Y046186D03*
X024486Y018520D03*
X024486Y018487D03*
X005964Y018520D03*
D342*
X015225Y018487D03*
D343*
X015241Y018520D03*
D344*
X024502Y018553D03*
D345*
X015225Y018553D03*
D346*
X005964Y018553D03*
D347*
X005948Y018586D03*
X005948Y018620D03*
X024502Y018586D03*
D348*
X015241Y018586D03*
X021094Y042062D03*
D349*
X024984Y046219D03*
X024519Y018653D03*
X024519Y018620D03*
X005931Y018653D03*
X005931Y018686D03*
X005499Y046219D03*
D350*
X008242Y033716D03*
X015225Y018620D03*
D351*
X015241Y018653D03*
X021061Y042096D03*
D352*
X015225Y039435D03*
X005914Y018753D03*
X024535Y018686D03*
D353*
X015225Y018686D03*
X021044Y042129D03*
D354*
X024535Y018719D03*
X005914Y018719D03*
D355*
X015241Y018719D03*
X021027Y042162D03*
D356*
X024552Y018786D03*
X024552Y018753D03*
X005898Y018786D03*
X005898Y018819D03*
X005499Y046285D03*
D357*
X021011Y042195D03*
X015225Y018753D03*
D358*
X015241Y018786D03*
X020994Y042229D03*
D359*
X024968Y046285D03*
X024569Y018852D03*
X024569Y018819D03*
X005881Y018852D03*
D360*
X015225Y018819D03*
X020977Y042262D03*
D361*
X015241Y018852D03*
D362*
X024585Y018886D03*
X005499Y046319D03*
D363*
X015225Y018886D03*
D364*
X005881Y018886D03*
X024968Y046319D03*
D365*
X024585Y018919D03*
X005864Y018919D03*
X005864Y018952D03*
D366*
X015241Y018919D03*
D367*
X024602Y018952D03*
X024602Y018985D03*
X024968Y046352D03*
X005848Y019019D03*
X005848Y018985D03*
X005515Y046352D03*
D368*
X015225Y018952D03*
D369*
X015241Y018985D03*
D370*
X024619Y019019D03*
X024951Y046385D03*
X005831Y019085D03*
X005499Y046385D03*
D371*
X015225Y019019D03*
D372*
X024619Y019052D03*
X005831Y019052D03*
D373*
X015241Y019052D03*
D374*
X015225Y019085D03*
D375*
X015241Y019119D03*
D376*
X024652Y019152D03*
X024652Y019185D03*
X024951Y046452D03*
X005798Y019185D03*
X005499Y046452D03*
D377*
X015225Y019152D03*
D378*
X015241Y019185D03*
D379*
X024668Y019218D03*
D380*
X005798Y019218D03*
D381*
X005781Y019252D03*
X005781Y019285D03*
X015225Y034547D03*
X024668Y019252D03*
D382*
X024685Y019285D03*
X024685Y019318D03*
X015241Y039535D03*
X024951Y046518D03*
X005765Y019351D03*
X005765Y019318D03*
X005499Y046518D03*
D383*
X015225Y019285D03*
D384*
X015241Y019318D03*
D385*
X024702Y019351D03*
X005748Y019418D03*
D386*
X015225Y019351D03*
D387*
X024702Y019385D03*
X005748Y019385D03*
D388*
X015241Y019385D03*
D389*
X024718Y019418D03*
X024718Y019451D03*
X024951Y046585D03*
X005731Y019484D03*
X005731Y019451D03*
X005499Y046585D03*
D390*
X015225Y019418D03*
D391*
X015241Y019451D03*
D392*
X024735Y019484D03*
X024735Y019518D03*
X015225Y039568D03*
X005515Y046618D03*
X005715Y019518D03*
X024968Y046618D03*
D393*
X015225Y019484D03*
D394*
X015241Y019518D03*
D395*
X024752Y019551D03*
X024951Y046651D03*
D396*
X015225Y019551D03*
D397*
X005715Y019551D03*
X005515Y046651D03*
D398*
X005499Y046684D03*
X005698Y019617D03*
X005698Y019584D03*
X024752Y019584D03*
X024951Y046684D03*
D399*
X015241Y019584D03*
D400*
X015225Y034481D03*
X005682Y019684D03*
X005682Y019651D03*
X005515Y046718D03*
X024768Y019651D03*
X024768Y019617D03*
X024968Y046718D03*
X024968Y046751D03*
D401*
X015225Y019617D03*
D402*
X015241Y019651D03*
D403*
X024785Y019684D03*
X005665Y019750D03*
X005499Y046751D03*
X005499Y046784D03*
D404*
X015225Y019684D03*
D405*
X024785Y019717D03*
X005665Y019717D03*
D406*
X015241Y019717D03*
D407*
X024801Y019750D03*
X024801Y019784D03*
X024968Y046784D03*
X005648Y019817D03*
X005648Y019784D03*
D408*
X015225Y019750D03*
D409*
X015241Y019784D03*
D410*
X015241Y034448D03*
X024818Y019850D03*
X024818Y019817D03*
X024984Y046851D03*
X024984Y046884D03*
X005632Y019850D03*
X005499Y046851D03*
D411*
X015225Y019817D03*
D412*
X015241Y019850D03*
D413*
X024835Y019883D03*
D414*
X015225Y019883D03*
D415*
X005632Y019883D03*
D416*
X005615Y019917D03*
X005615Y019950D03*
X015225Y039635D03*
X025001Y046917D03*
X025001Y046950D03*
X024835Y019917D03*
D417*
X015241Y019917D03*
D418*
X024851Y019950D03*
X024851Y019983D03*
X025018Y047017D03*
X005598Y020016D03*
X005598Y019983D03*
X005465Y046950D03*
D419*
X015225Y019950D03*
D420*
X015241Y019983D03*
D421*
X024868Y020016D03*
X025034Y047050D03*
X025034Y047083D03*
X005582Y020083D03*
D422*
X015225Y020016D03*
X021543Y042295D03*
D423*
X024868Y020050D03*
X005582Y020050D03*
D424*
X015241Y020050D03*
X021526Y042328D03*
D425*
X025051Y047117D03*
X025417Y047915D03*
X025450Y047948D03*
X025516Y048014D03*
X025616Y048081D03*
X015241Y034414D03*
X005565Y020149D03*
X005565Y020116D03*
X005432Y047083D03*
X005432Y047117D03*
X005100Y047848D03*
X005033Y047948D03*
X004900Y048048D03*
X024885Y020116D03*
X024885Y020083D03*
D426*
X015225Y020083D03*
D427*
X015241Y020116D03*
D428*
X024901Y020149D03*
X024901Y020183D03*
X025067Y047183D03*
X025067Y047216D03*
X025067Y047250D03*
X025367Y047848D03*
X025400Y047881D03*
X025699Y048114D03*
X005549Y020183D03*
X005416Y047183D03*
X005416Y047216D03*
X005382Y047250D03*
X005382Y047283D03*
X005083Y047881D03*
X005050Y047915D03*
X004850Y048081D03*
D429*
X015225Y020149D03*
D430*
X015241Y020183D03*
D431*
X024918Y020216D03*
X025250Y047649D03*
X005366Y047316D03*
X005299Y047482D03*
D432*
X015225Y020216D03*
D433*
X005549Y020216D03*
X015225Y039668D03*
X005416Y047150D03*
X005116Y047815D03*
X025101Y047316D03*
X025333Y047815D03*
D434*
X025317Y047782D03*
X025317Y047748D03*
X025284Y047715D03*
X025151Y047449D03*
X025117Y047383D03*
X025117Y047349D03*
X025084Y047283D03*
X024918Y020249D03*
X005532Y020249D03*
X005532Y020282D03*
X005366Y047349D03*
X005332Y047383D03*
X005332Y047416D03*
X005199Y047682D03*
X005166Y047748D03*
X005133Y047782D03*
D435*
X015241Y020249D03*
D436*
X015225Y034381D03*
X024934Y020316D03*
X024934Y020282D03*
X025134Y047416D03*
X025200Y047549D03*
X025234Y047615D03*
X025267Y047682D03*
X005316Y047449D03*
X005283Y047516D03*
X005249Y047582D03*
X005183Y047715D03*
X005515Y020349D03*
X005515Y020316D03*
D437*
X015225Y020282D03*
D438*
X015241Y020316D03*
D439*
X024951Y020349D03*
X005499Y020415D03*
D440*
X015225Y020349D03*
D441*
X024951Y020382D03*
X005499Y020382D03*
D442*
X015241Y020382D03*
D443*
X024968Y020415D03*
X024968Y020449D03*
X005482Y020449D03*
X005482Y020482D03*
D444*
X015225Y020415D03*
D445*
X015241Y020449D03*
D446*
X024984Y020482D03*
X005465Y020515D03*
D447*
X015225Y020482D03*
D448*
X025001Y020515D03*
D449*
X015241Y020515D03*
D450*
X015225Y034348D03*
X025001Y020548D03*
X005449Y020548D03*
D451*
X015225Y020548D03*
D452*
X015241Y020582D03*
D453*
X025034Y020615D03*
X005416Y020615D03*
D454*
X015225Y020615D03*
D455*
X025051Y020648D03*
X005399Y020648D03*
D456*
X015241Y020648D03*
D457*
X015225Y034315D03*
X025067Y020681D03*
X005382Y020681D03*
D458*
X015225Y020681D03*
D459*
X025084Y020715D03*
X005366Y020715D03*
D460*
X015241Y020715D03*
D461*
X025117Y020748D03*
D462*
X015225Y020748D03*
D463*
X005349Y020748D03*
D464*
X005316Y020781D03*
X025134Y020781D03*
D465*
X015241Y020781D03*
D466*
X025167Y020814D03*
X015225Y039801D03*
D467*
X015225Y020814D03*
D468*
X015241Y034281D03*
X015807Y034614D03*
X005299Y020814D03*
D469*
X025200Y020848D03*
D470*
X015241Y020848D03*
D471*
X005266Y020848D03*
D472*
X005216Y020881D03*
X025234Y020881D03*
D473*
X015241Y020881D03*
D474*
X025284Y020914D03*
X005166Y020914D03*
D475*
X015225Y020914D03*
D476*
X025367Y020947D03*
X013396Y038039D03*
X005083Y020947D03*
D477*
X015241Y020947D03*
D478*
X015241Y020981D03*
D479*
X015225Y021014D03*
D480*
X015225Y021047D03*
D481*
X015225Y021080D03*
D482*
X015241Y021114D03*
D483*
X015241Y021147D03*
D484*
X015241Y021180D03*
D485*
X015241Y021213D03*
D486*
X015241Y021247D03*
D487*
X015241Y021280D03*
D488*
X015241Y021313D03*
D489*
X015225Y021346D03*
D490*
X015225Y021380D03*
D491*
X015241Y021413D03*
D492*
X015225Y021446D03*
D493*
X015241Y021479D03*
D494*
X015225Y021513D03*
D495*
X015241Y021546D03*
D496*
X015241Y021579D03*
D497*
X015241Y021612D03*
D498*
X015225Y021646D03*
D499*
X015241Y021679D03*
D500*
X015241Y021779D03*
D501*
X015241Y025902D03*
X015241Y025935D03*
X015241Y025968D03*
X015241Y026002D03*
X015241Y026068D03*
D502*
X015241Y026035D03*
D503*
X015225Y026101D03*
X015225Y026135D03*
X015225Y026168D03*
D504*
X015241Y026201D03*
D505*
X015241Y026234D03*
X015241Y026268D03*
X015241Y026301D03*
D506*
X015225Y026334D03*
D507*
X015225Y026367D03*
D508*
X015241Y026401D03*
X015241Y026434D03*
X015241Y026467D03*
D509*
X015225Y026500D03*
D510*
X015225Y026534D03*
D511*
X015241Y026567D03*
X015241Y026600D03*
X015241Y026633D03*
D512*
X015225Y026667D03*
D513*
X015225Y026700D03*
D514*
X015241Y026733D03*
X015241Y026766D03*
D515*
X015225Y026800D03*
D516*
X015241Y026833D03*
D517*
X015241Y026866D03*
D518*
X015225Y026899D03*
X015225Y026933D03*
D519*
X015241Y026966D03*
D520*
X015225Y026999D03*
D521*
X015225Y027032D03*
D522*
X015241Y027066D03*
D523*
X015225Y027099D03*
X015225Y027132D03*
D524*
X015241Y027165D03*
D525*
X015225Y027199D03*
D526*
X015241Y027232D03*
X015241Y027265D03*
D527*
X015225Y027298D03*
D528*
X015241Y027332D03*
D529*
X015225Y027365D03*
D530*
X015241Y027398D03*
D531*
X015225Y027431D03*
X015225Y027465D03*
D532*
X015241Y027498D03*
D533*
X015225Y027531D03*
D534*
X015241Y027565D03*
D535*
X015225Y027598D03*
D536*
X015241Y027631D03*
D537*
X015225Y027664D03*
D538*
X015241Y027698D03*
D539*
X015225Y027731D03*
D540*
X015241Y027764D03*
D541*
X015225Y027797D03*
D542*
X015241Y027831D03*
D543*
X015225Y027864D03*
D544*
X015241Y027897D03*
D545*
X015225Y027930D03*
D546*
X015241Y027964D03*
D547*
X015225Y027997D03*
D548*
X015241Y028030D03*
D549*
X015225Y028063D03*
D550*
X015241Y028097D03*
D551*
X015225Y028130D03*
D552*
X015241Y028163D03*
D553*
X015225Y028196D03*
D554*
X015241Y028230D03*
D555*
X015225Y028263D03*
D556*
X015241Y028296D03*
D557*
X015225Y028329D03*
D558*
X015241Y028363D03*
D559*
X015225Y028396D03*
D560*
X015241Y028429D03*
D561*
X015225Y028462D03*
D562*
X015241Y028496D03*
D563*
X015225Y028529D03*
D564*
X015241Y028562D03*
D565*
X015225Y028595D03*
D566*
X015241Y028629D03*
D567*
X015225Y028662D03*
D568*
X015241Y028695D03*
D569*
X015225Y028728D03*
D570*
X015241Y028762D03*
D571*
X015225Y028795D03*
D572*
X015241Y028828D03*
D573*
X015225Y028861D03*
D574*
X015241Y028895D03*
D575*
X015225Y028928D03*
D576*
X015241Y028961D03*
D577*
X015225Y028994D03*
D578*
X015241Y029028D03*
D579*
X015225Y029061D03*
X015225Y040400D03*
X015225Y040433D03*
X015225Y040466D03*
X015225Y040533D03*
X015225Y040566D03*
X015225Y040599D03*
X015225Y040633D03*
X015225Y040699D03*
X015225Y040732D03*
X015225Y040766D03*
X015225Y040799D03*
X015225Y041863D03*
X015225Y041896D03*
X015225Y041929D03*
X015225Y041963D03*
X015225Y042029D03*
D580*
X015241Y029094D03*
D581*
X015225Y029127D03*
D582*
X015241Y029161D03*
D583*
X015225Y029194D03*
D584*
X015241Y029227D03*
D585*
X015225Y029260D03*
D586*
X015241Y029294D03*
D587*
X015225Y029327D03*
D588*
X015241Y029360D03*
D589*
X015225Y029393D03*
D590*
X015241Y029427D03*
D591*
X015225Y029460D03*
D592*
X015241Y029493D03*
D593*
X015225Y029526D03*
D594*
X015241Y029560D03*
D595*
X015225Y029593D03*
D596*
X015241Y029626D03*
D597*
X015225Y029659D03*
D598*
X015241Y029693D03*
D599*
X015225Y029726D03*
D600*
X015241Y029759D03*
D601*
X015225Y029792D03*
D602*
X015241Y029826D03*
D603*
X015225Y029859D03*
D604*
X015241Y029892D03*
D605*
X015225Y029925D03*
D606*
X015241Y029959D03*
D607*
X015225Y029992D03*
D608*
X015241Y030025D03*
D609*
X015241Y030058D03*
X015241Y030092D03*
D610*
X015241Y030125D03*
X015241Y030158D03*
D611*
X015241Y030191D03*
D612*
X015241Y030225D03*
D613*
X015241Y030258D03*
D614*
X015225Y030291D03*
D615*
X015241Y030324D03*
D616*
X015225Y030358D03*
D617*
X015241Y030391D03*
D618*
X015225Y030424D03*
D619*
X015241Y030457D03*
D620*
X015225Y030491D03*
D621*
X015241Y030524D03*
D622*
X015225Y030557D03*
D623*
X015241Y030590D03*
D624*
X015225Y030624D03*
D625*
X015241Y030657D03*
D626*
X015225Y030690D03*
D627*
X015241Y030723D03*
D628*
X015225Y030757D03*
X015225Y030790D03*
D629*
X015241Y030823D03*
D630*
X015225Y030856D03*
D631*
X015241Y030890D03*
D632*
X015225Y030923D03*
D633*
X015241Y030956D03*
X015241Y030989D03*
D634*
X015225Y031023D03*
D635*
X015241Y031056D03*
D636*
X015225Y031089D03*
X015225Y031122D03*
D637*
X015241Y031156D03*
D638*
X015225Y031189D03*
D639*
X015225Y031222D03*
D640*
X015241Y031255D03*
X015241Y031289D03*
D641*
X015225Y031322D03*
D642*
X015225Y031355D03*
D643*
X015241Y031388D03*
X015241Y031422D03*
D644*
X015225Y031455D03*
X015225Y031488D03*
D645*
X015225Y031521D03*
D646*
X015241Y031555D03*
X015241Y031588D03*
X015241Y031621D03*
D647*
X015225Y031654D03*
X015225Y031721D03*
X015225Y031754D03*
D648*
X015225Y031688D03*
D649*
X015241Y031788D03*
X015241Y031821D03*
X015241Y031887D03*
X015241Y031921D03*
X015241Y031954D03*
X015241Y031987D03*
X015241Y032054D03*
X015241Y032087D03*
X015241Y032120D03*
X015241Y032153D03*
X015241Y032220D03*
X015241Y032253D03*
X015241Y032286D03*
X015241Y032320D03*
X015241Y032386D03*
X015241Y032419D03*
X015241Y032453D03*
X015241Y032486D03*
X015241Y032552D03*
X015241Y032586D03*
X015241Y032619D03*
X015241Y032652D03*
X015241Y032719D03*
X015241Y032752D03*
X015241Y032785D03*
X015241Y032818D03*
X015241Y032885D03*
X015241Y032918D03*
X015241Y032951D03*
X015241Y032985D03*
X015241Y033051D03*
X015241Y033084D03*
X015241Y033118D03*
X015241Y033151D03*
X015241Y033217D03*
X015241Y033251D03*
X015241Y033284D03*
X015241Y033317D03*
X015241Y033384D03*
X015241Y033417D03*
X015241Y033450D03*
X015241Y033483D03*
X015241Y033550D03*
X015241Y033583D03*
X015241Y033616D03*
X015241Y033650D03*
X015241Y042362D03*
X015241Y042395D03*
X015241Y042428D03*
X015241Y042461D03*
X015241Y042528D03*
X015241Y042561D03*
X015241Y042594D03*
X015241Y042628D03*
X015241Y042694D03*
X015241Y042727D03*
X015241Y042761D03*
X015241Y042794D03*
X015241Y042860D03*
X015241Y042894D03*
X015241Y042927D03*
X015241Y042960D03*
X015241Y043027D03*
X015241Y043060D03*
X015241Y043093D03*
X015241Y043126D03*
D650*
X015241Y042993D03*
X015241Y042827D03*
X015241Y042661D03*
X015241Y042495D03*
X015241Y033517D03*
X015241Y033350D03*
X015241Y033184D03*
X015241Y033018D03*
X015241Y032852D03*
X015241Y032685D03*
X015241Y032519D03*
X015241Y032353D03*
X015241Y032187D03*
X015241Y032020D03*
X015241Y031854D03*
D651*
X008392Y033683D03*
X022091Y033683D03*
D652*
X022241Y033716D03*
D653*
X022407Y033783D03*
D654*
X022457Y033816D03*
D655*
X022507Y033849D03*
D656*
X022607Y033916D03*
X007876Y033916D03*
D657*
X007826Y033949D03*
D658*
X007793Y033982D03*
X022657Y033982D03*
D659*
X022690Y034015D03*
X007760Y034015D03*
D660*
X007743Y034049D03*
X008840Y040367D03*
D661*
X013363Y038770D03*
X013363Y038737D03*
X014194Y035611D03*
X014227Y035478D03*
X014261Y035412D03*
X014261Y035379D03*
X015225Y034082D03*
X015757Y034880D03*
X017187Y038604D03*
X017187Y038637D03*
D662*
X017270Y038139D03*
X015241Y034115D03*
D663*
X022806Y034148D03*
X007677Y034148D03*
D664*
X014194Y039369D03*
X015225Y034148D03*
D665*
X007660Y034182D03*
X022823Y034182D03*
D666*
X017087Y036011D03*
X016954Y035678D03*
X015225Y034182D03*
D667*
X021792Y040300D03*
X022823Y034215D03*
X008658Y040300D03*
X007627Y034215D03*
D668*
X013429Y036110D03*
X013462Y036044D03*
X013496Y035977D03*
X013396Y036210D03*
X013363Y036376D03*
X013363Y036410D03*
X013363Y036443D03*
X013363Y036476D03*
X015225Y034215D03*
X016089Y034714D03*
X016123Y034747D03*
X016156Y034780D03*
D669*
X015241Y034248D03*
D670*
X022856Y034315D03*
D671*
X021908Y040234D03*
X008541Y040234D03*
X008541Y042195D03*
X007610Y034315D03*
D672*
X007610Y034348D03*
X022873Y034348D03*
D673*
X007594Y034381D03*
D674*
X007594Y034481D03*
X022091Y040100D03*
X022889Y034481D03*
D675*
X022889Y034514D03*
X007594Y034514D03*
D676*
X015241Y034514D03*
D677*
X007577Y034547D03*
D678*
X022889Y034581D03*
D679*
X015241Y034581D03*
D680*
X008242Y039967D03*
X007577Y034581D03*
D681*
X007577Y034614D03*
D682*
X013363Y036609D03*
X013363Y036642D03*
X013363Y036709D03*
X013363Y036742D03*
X013596Y035811D03*
X015956Y034647D03*
D683*
X016040Y034680D03*
X013346Y036509D03*
D684*
X008076Y039768D03*
X007577Y034747D03*
X022374Y039768D03*
X022873Y034747D03*
D685*
X022873Y034780D03*
X007577Y034780D03*
D686*
X007577Y034813D03*
X022873Y034813D03*
D687*
X017237Y038371D03*
X015807Y034813D03*
X013313Y038538D03*
X013313Y038571D03*
D688*
X022873Y034847D03*
D689*
X015774Y034847D03*
X014277Y035345D03*
X014177Y035678D03*
D690*
X007594Y034847D03*
D691*
X007943Y039535D03*
X022507Y039568D03*
X022873Y034880D03*
D692*
X007959Y039568D03*
X007594Y034880D03*
D693*
X007909Y039469D03*
X022873Y034913D03*
D694*
X016971Y034913D03*
X016971Y034946D03*
X002173Y042062D03*
D695*
X012847Y037740D03*
X012881Y037773D03*
X013379Y038870D03*
X015740Y034913D03*
X016971Y035079D03*
X017669Y037374D03*
X017170Y038737D03*
X028176Y042262D03*
D696*
X022524Y039535D03*
X007594Y034913D03*
D697*
X007594Y034946D03*
X007893Y039435D03*
X022557Y039469D03*
X022856Y034946D03*
D698*
X015724Y034946D03*
X013396Y038903D03*
X002290Y042262D03*
D699*
X007594Y034980D03*
X007860Y039369D03*
X022590Y039402D03*
X022856Y034980D03*
D700*
X028226Y042195D03*
X017120Y038870D03*
X015690Y034980D03*
X014360Y035079D03*
X012764Y037474D03*
X013429Y038970D03*
D701*
X022856Y035013D03*
D702*
X017735Y037008D03*
X016971Y035013D03*
X013446Y039003D03*
X028243Y042162D03*
D703*
X015657Y035013D03*
X002223Y042162D03*
D704*
X007610Y035013D03*
X007843Y039336D03*
D705*
X007793Y039236D03*
X022657Y039269D03*
X022856Y035046D03*
D706*
X022640Y039302D03*
X007810Y039269D03*
X007610Y035046D03*
D707*
X022690Y039203D03*
X022856Y035113D03*
X022856Y035079D03*
D708*
X022673Y039236D03*
X007776Y039203D03*
X007610Y035079D03*
D709*
X012814Y037274D03*
X014310Y035146D03*
X016971Y035113D03*
D710*
X017652Y037407D03*
X017187Y038704D03*
X014327Y035113D03*
X012797Y037307D03*
X012897Y037806D03*
X013363Y038804D03*
D711*
X007743Y039103D03*
X007743Y039136D03*
X007610Y035146D03*
X007610Y035113D03*
X022707Y039136D03*
D712*
X022723Y039103D03*
X022856Y035146D03*
X007727Y039070D03*
D713*
X012980Y037906D03*
X013346Y038704D03*
X014177Y035645D03*
X014277Y035312D03*
X014277Y035279D03*
X014277Y035246D03*
X014277Y035212D03*
X016971Y035146D03*
D714*
X022756Y039003D03*
X022856Y035179D03*
X007693Y039003D03*
D715*
X013329Y038671D03*
X017220Y038504D03*
X016954Y035179D03*
D716*
X014294Y035179D03*
X014227Y035512D03*
D717*
X007610Y035179D03*
D718*
X007693Y038970D03*
X022756Y039036D03*
X022856Y035212D03*
D719*
X016954Y035212D03*
X017253Y038405D03*
X013329Y038604D03*
D720*
X007677Y038937D03*
X007610Y035246D03*
X007610Y035212D03*
X022773Y038970D03*
D721*
X022856Y035246D03*
X007594Y035279D03*
D722*
X016954Y035246D03*
D723*
X022806Y038870D03*
X022873Y035312D03*
X022873Y035279D03*
X007643Y038870D03*
D724*
X013296Y038438D03*
X016954Y035279D03*
X017286Y038205D03*
D725*
X017286Y038105D03*
X017286Y038072D03*
X017286Y038039D03*
X016921Y035312D03*
X013296Y038371D03*
D726*
X007627Y038770D03*
X007627Y038804D03*
X007594Y035312D03*
X022823Y038804D03*
D727*
X022873Y035345D03*
D728*
X016921Y035345D03*
D729*
X022823Y038837D03*
X007594Y035345D03*
D730*
X007577Y035379D03*
X007610Y038737D03*
X022840Y038770D03*
X022873Y035379D03*
D731*
X017286Y037873D03*
X016921Y035379D03*
X013296Y038238D03*
D732*
X007594Y038704D03*
X007594Y035412D03*
X022889Y035412D03*
X022889Y035445D03*
X022856Y038704D03*
X022856Y038737D03*
D733*
X017303Y037806D03*
X016904Y035412D03*
X013313Y038205D03*
D734*
X014244Y039402D03*
X016904Y035445D03*
X017303Y037573D03*
X017270Y037706D03*
D735*
X017203Y038571D03*
X014211Y035578D03*
X014211Y035545D03*
X014244Y035445D03*
D736*
X007577Y035445D03*
X007577Y038604D03*
X007577Y038637D03*
X022873Y038637D03*
X022906Y035478D03*
D737*
X016887Y035478D03*
X016289Y039302D03*
X016222Y039369D03*
X015225Y039901D03*
D738*
X022889Y038604D03*
X022889Y038571D03*
X007560Y038571D03*
X007560Y038538D03*
X007560Y035478D03*
D739*
X007544Y038504D03*
X022906Y038504D03*
X022906Y035512D03*
D740*
X017037Y035844D03*
X016871Y035512D03*
D741*
X013695Y039336D03*
X013030Y035512D03*
D742*
X007560Y035512D03*
D743*
X007544Y035545D03*
X007544Y035578D03*
X007544Y038471D03*
X022906Y038538D03*
X022906Y035545D03*
D744*
X017137Y036210D03*
X017137Y036243D03*
X017104Y036077D03*
X017104Y036044D03*
X016904Y035645D03*
X016871Y035545D03*
X013379Y038072D03*
D745*
X007527Y038405D03*
X007527Y038438D03*
X007527Y035645D03*
X007527Y035611D03*
X022923Y035611D03*
X022923Y035578D03*
X022923Y038438D03*
X022923Y038471D03*
D746*
X017153Y036376D03*
X017153Y036310D03*
X017153Y036277D03*
X016854Y035578D03*
D747*
X016854Y035611D03*
X015225Y039868D03*
X013396Y037972D03*
D748*
X007510Y038371D03*
X007510Y035744D03*
X007510Y035711D03*
X022939Y035711D03*
X022939Y035645D03*
X022939Y038371D03*
X022939Y038405D03*
D749*
X022939Y035678D03*
X007510Y038338D03*
D750*
X013014Y035678D03*
X017769Y036842D03*
D751*
X007527Y035678D03*
D752*
X016306Y039269D03*
X017004Y035778D03*
X017004Y035744D03*
X016971Y035711D03*
D753*
X013662Y035711D03*
X013363Y037241D03*
D754*
X007494Y038238D03*
X007494Y038272D03*
X007494Y038305D03*
X007494Y035811D03*
X007494Y035778D03*
X022956Y035778D03*
X022956Y035744D03*
X022956Y038305D03*
D755*
X013645Y035744D03*
X013612Y035778D03*
X013346Y036775D03*
X013346Y036809D03*
X013346Y036875D03*
X013346Y036908D03*
X013346Y036942D03*
X013346Y036975D03*
X013346Y037041D03*
X013346Y037075D03*
X013346Y037108D03*
X013346Y037141D03*
X013346Y037208D03*
D756*
X013379Y038105D03*
X017070Y035944D03*
X017070Y035911D03*
X017037Y035811D03*
D757*
X022973Y035844D03*
X007477Y035844D03*
X007477Y038172D03*
D758*
X013363Y036676D03*
X013562Y035844D03*
D759*
X017054Y035877D03*
X017087Y035977D03*
X017120Y036110D03*
X017120Y036144D03*
D760*
X013546Y035877D03*
X013512Y035911D03*
X013512Y035944D03*
X013346Y036543D03*
X013346Y036576D03*
D761*
X007461Y035977D03*
X007461Y035944D03*
X007461Y038072D03*
X007461Y038105D03*
X007461Y038139D03*
X022989Y038139D03*
X022989Y038105D03*
X022989Y035944D03*
X022989Y035911D03*
D762*
X023006Y035977D03*
X023006Y036044D03*
X023006Y036077D03*
X023006Y038039D03*
X023006Y038072D03*
X007444Y038039D03*
X007444Y037972D03*
X007444Y037939D03*
X007444Y036110D03*
X007444Y036077D03*
X007444Y036044D03*
D763*
X007444Y038006D03*
X023006Y038006D03*
X023006Y036011D03*
D764*
X013462Y036011D03*
X013363Y036343D03*
D765*
X007461Y036011D03*
X022989Y038172D03*
D766*
X013413Y037939D03*
X013379Y036310D03*
X013379Y036277D03*
X013379Y036243D03*
X013413Y036144D03*
X013446Y036077D03*
D767*
X007427Y036144D03*
X007427Y036210D03*
X007427Y036243D03*
X007427Y037806D03*
X007427Y037873D03*
X007427Y037906D03*
X023022Y037906D03*
X023022Y037939D03*
X023022Y037972D03*
X023022Y036144D03*
X023022Y036110D03*
D768*
X023022Y036177D03*
X007427Y036177D03*
X007427Y037839D03*
D769*
X017137Y036177D03*
D770*
X013413Y036177D03*
D771*
X007411Y036277D03*
X007411Y036310D03*
X007411Y036376D03*
X007411Y036410D03*
X007411Y037706D03*
X007411Y037740D03*
X007411Y037773D03*
X023039Y037773D03*
X023039Y037806D03*
X023039Y037740D03*
X023039Y037873D03*
X023039Y036310D03*
X023039Y036277D03*
X023039Y036243D03*
X023039Y036210D03*
D772*
X023056Y036343D03*
X023056Y036509D03*
X023056Y037673D03*
X007394Y037507D03*
X007394Y036509D03*
D773*
X017153Y036343D03*
D774*
X023039Y037839D03*
X007411Y037673D03*
X007411Y036343D03*
D775*
X007394Y036443D03*
X007394Y036476D03*
X007394Y036543D03*
X007394Y036576D03*
X007394Y036609D03*
X007394Y037474D03*
X007394Y037540D03*
X007394Y037573D03*
X007394Y037607D03*
X007394Y037640D03*
X023056Y037640D03*
X023056Y037607D03*
X023056Y037573D03*
X023056Y037706D03*
X023056Y036476D03*
X023056Y036443D03*
X023056Y036410D03*
X023056Y036376D03*
D776*
X017170Y036509D03*
D777*
X023072Y036543D03*
X023072Y036576D03*
X023072Y036609D03*
X023072Y036642D03*
X023072Y036709D03*
X023072Y036742D03*
X023072Y036775D03*
X023072Y037307D03*
X023072Y037374D03*
X023072Y037407D03*
X023072Y037440D03*
X023072Y037474D03*
X023072Y037540D03*
X007377Y037440D03*
X007377Y037407D03*
X007377Y037374D03*
X007377Y037307D03*
X007377Y037274D03*
X007377Y037241D03*
X007377Y037208D03*
X007377Y037141D03*
X007377Y037108D03*
X007377Y037075D03*
X007377Y037041D03*
X007377Y036975D03*
X007377Y036942D03*
X007377Y036908D03*
X007377Y036875D03*
X007377Y036809D03*
X007377Y036775D03*
X007377Y036742D03*
X007377Y036709D03*
X007377Y036642D03*
D778*
X013462Y039036D03*
X013462Y039070D03*
X016621Y036576D03*
X017752Y036908D03*
X017752Y036942D03*
X017752Y036975D03*
X017087Y038937D03*
X017087Y038970D03*
X028260Y042129D03*
D779*
X023072Y037507D03*
X023072Y037341D03*
X023072Y036676D03*
X007377Y036676D03*
X007377Y036842D03*
X007377Y037008D03*
X007377Y037174D03*
X007377Y037341D03*
D780*
X023089Y037274D03*
X023089Y037241D03*
X023089Y037208D03*
X023089Y037141D03*
X023089Y037108D03*
X023089Y037075D03*
X023089Y037041D03*
X023089Y036975D03*
X023089Y036942D03*
X023089Y036908D03*
X023089Y036875D03*
X023089Y036809D03*
D781*
X013346Y036842D03*
X013346Y037008D03*
X013346Y037174D03*
D782*
X015657Y037407D03*
X016455Y037141D03*
X016455Y037108D03*
X016488Y037075D03*
X016488Y037041D03*
D783*
X017719Y037174D03*
D784*
X017685Y037341D03*
D785*
X012831Y037673D03*
X012797Y037341D03*
D786*
X013346Y038637D03*
X017237Y038471D03*
X017237Y038438D03*
X017569Y037440D03*
D787*
X017519Y037474D03*
X017253Y038305D03*
X015225Y039967D03*
D788*
X017436Y037507D03*
D789*
X012764Y037507D03*
D790*
X017303Y037906D03*
X017370Y037540D03*
D791*
X017286Y037607D03*
X017286Y037640D03*
D792*
X014410Y037607D03*
X012947Y037873D03*
D793*
X017270Y037673D03*
D794*
X017153Y038770D03*
X012831Y037706D03*
D795*
X017286Y037740D03*
X017286Y037773D03*
D796*
X017286Y037839D03*
D797*
X017170Y038671D03*
X012914Y037839D03*
D798*
X013296Y038272D03*
X017286Y037972D03*
X017286Y037939D03*
D799*
X017303Y038006D03*
D800*
X013396Y038006D03*
D801*
X013346Y038139D03*
X016173Y039402D03*
D802*
X017286Y038172D03*
D803*
X013329Y038172D03*
D804*
X013313Y038471D03*
X017270Y038272D03*
X017270Y038238D03*
D805*
X016505Y039236D03*
X013280Y038305D03*
D806*
X022956Y038338D03*
D807*
X017253Y038338D03*
D808*
X013296Y038338D03*
D809*
X013313Y038405D03*
D810*
X013313Y038504D03*
D811*
X017220Y038538D03*
D812*
X022873Y038671D03*
D813*
X015424Y038671D03*
D814*
X007594Y038671D03*
D815*
X013379Y038837D03*
X015241Y040001D03*
D816*
X007643Y038837D03*
D817*
X007660Y038903D03*
X022790Y038903D03*
X022790Y038937D03*
D818*
X017070Y039003D03*
D819*
X022740Y039070D03*
X007710Y039036D03*
D820*
X007760Y039169D03*
X022690Y039169D03*
D821*
X016572Y039169D03*
D822*
X016538Y039203D03*
D823*
X007826Y039302D03*
D824*
X022623Y039336D03*
D825*
X016256Y039336D03*
D826*
X022607Y039369D03*
D827*
X022574Y039435D03*
X007876Y039402D03*
D828*
X015241Y039469D03*
D829*
X022540Y039502D03*
D830*
X015225Y039502D03*
D831*
X022474Y039602D03*
X007976Y039602D03*
D832*
X015241Y039602D03*
D833*
X022457Y039635D03*
X007993Y039635D03*
D834*
X008009Y039668D03*
X022441Y039668D03*
D835*
X022424Y039701D03*
D836*
X015241Y039701D03*
D837*
X008042Y039701D03*
D838*
X015241Y039768D03*
D839*
X022357Y039801D03*
D840*
X022324Y039834D03*
X008126Y039834D03*
D841*
X015241Y039834D03*
D842*
X022241Y039934D03*
X008209Y039934D03*
D843*
X015225Y039934D03*
D844*
X022191Y040001D03*
D845*
X008308Y040034D03*
D846*
X022125Y040067D03*
D847*
X008342Y040067D03*
D848*
X008375Y040100D03*
D849*
X022008Y040167D03*
D850*
X008458Y040167D03*
D851*
X008491Y040200D03*
X021958Y040200D03*
X021958Y040899D03*
D852*
X021726Y040333D03*
D853*
X008741Y040333D03*
D854*
X021626Y040367D03*
D855*
X015225Y040500D03*
X015225Y040666D03*
X015225Y041996D03*
D856*
X021908Y040832D03*
D857*
X008525Y040832D03*
X008525Y040998D03*
X008525Y041331D03*
X008525Y041663D03*
X008525Y041830D03*
D858*
X008525Y041796D03*
X008525Y041763D03*
X008525Y041730D03*
X008525Y041697D03*
X008525Y041464D03*
X008525Y041431D03*
X008525Y041397D03*
X008525Y041364D03*
X008525Y041298D03*
X008525Y040965D03*
X008525Y040932D03*
X008525Y040899D03*
X008525Y040865D03*
X008525Y042229D03*
X021925Y041032D03*
D859*
X021958Y040998D03*
D860*
X008707Y041032D03*
X008707Y041065D03*
X008707Y041098D03*
X008707Y041131D03*
X008707Y041198D03*
X008707Y041231D03*
X008707Y041264D03*
X008707Y041530D03*
X008707Y041564D03*
X008707Y041597D03*
X008707Y041630D03*
D861*
X021809Y041663D03*
X021809Y041497D03*
X021809Y041331D03*
X021809Y041165D03*
X021809Y041830D03*
D862*
X008707Y041497D03*
X008707Y041165D03*
D863*
X008558Y042162D03*
D864*
X007909Y042328D03*
D865*
X024818Y043160D03*
D866*
X005648Y043160D03*
D867*
X024901Y043193D03*
D868*
X005582Y043193D03*
D869*
X005532Y043226D03*
X024951Y043226D03*
D870*
X025001Y043259D03*
X005482Y043259D03*
D871*
X005449Y043293D03*
X025034Y043293D03*
D872*
X025067Y043326D03*
D873*
X005416Y043326D03*
D874*
X005382Y043359D03*
X025101Y043359D03*
D875*
X025117Y043392D03*
D876*
X005349Y043392D03*
D877*
X025151Y043426D03*
D878*
X005332Y043426D03*
D879*
X025167Y043459D03*
D880*
X005299Y043459D03*
D881*
X025184Y043492D03*
D882*
X005283Y043492D03*
D883*
X005266Y043525D03*
X025217Y043525D03*
D884*
X025234Y043559D03*
D885*
X005249Y043559D03*
D886*
X005233Y043592D03*
X025250Y043592D03*
D887*
X025267Y043625D03*
X005216Y043625D03*
D888*
X005199Y043658D03*
X025284Y043658D03*
D889*
X025300Y043692D03*
X005183Y043692D03*
D890*
X025317Y043725D03*
X025317Y043758D03*
D891*
X005166Y043725D03*
D892*
X005150Y043758D03*
X025333Y043791D03*
D893*
X005133Y043791D03*
D894*
X005133Y043825D03*
X025350Y043825D03*
D895*
X025367Y043858D03*
X025367Y043891D03*
X005116Y043858D03*
D896*
X005100Y043891D03*
X005100Y043924D03*
X025383Y043924D03*
D897*
X025400Y043958D03*
D898*
X005083Y043958D03*
D899*
X025400Y043991D03*
D900*
X005066Y043991D03*
D901*
X005066Y044024D03*
X025417Y044024D03*
X025417Y044057D03*
D902*
X025433Y044091D03*
X025433Y044124D03*
X005050Y044091D03*
X005050Y044057D03*
D903*
X005033Y044124D03*
X025450Y044190D03*
D904*
X025450Y044157D03*
X005033Y044157D03*
D905*
X005016Y044190D03*
X005016Y044224D03*
X005016Y044257D03*
X025466Y044257D03*
X025466Y044290D03*
X025466Y044224D03*
D906*
X005000Y044290D03*
D907*
X025483Y044323D03*
D908*
X005000Y044323D03*
D909*
X025483Y044357D03*
D910*
X025500Y044390D03*
X025500Y044423D03*
X004983Y044390D03*
X004983Y044357D03*
D911*
X004967Y044423D03*
X004967Y044457D03*
X025516Y044457D03*
D912*
X025516Y044490D03*
D913*
X004950Y044490D03*
D914*
X004950Y044523D03*
X025533Y044523D03*
X025533Y044556D03*
D915*
X025550Y044590D03*
X025550Y044623D03*
X004933Y044590D03*
X004933Y044556D03*
D916*
X004917Y044623D03*
D917*
X025566Y044656D03*
D918*
X004917Y044656D03*
D919*
X025566Y044689D03*
D920*
X025583Y044723D03*
X025583Y044756D03*
X004900Y044723D03*
X004900Y044689D03*
D921*
X004883Y044756D03*
X004883Y044789D03*
X025599Y044789D03*
X025599Y044856D03*
D922*
X025599Y044822D03*
D923*
X004867Y044822D03*
D924*
X004867Y044856D03*
X004867Y044889D03*
X025616Y044889D03*
X025616Y044922D03*
D925*
X025633Y044955D03*
X004850Y044955D03*
X004850Y044922D03*
D926*
X025633Y044989D03*
D927*
X004834Y044989D03*
D928*
X025649Y045022D03*
X025649Y045055D03*
D929*
X004834Y045022D03*
D930*
X004817Y045055D03*
X004817Y045088D03*
X025666Y045088D03*
X025666Y045122D03*
D931*
X025683Y045188D03*
X004800Y045122D03*
D932*
X004800Y045155D03*
X025683Y045155D03*
D933*
X025699Y045221D03*
X025699Y045255D03*
X004784Y045221D03*
X004784Y045188D03*
D934*
X004767Y045255D03*
X004767Y045288D03*
X025716Y045288D03*
D935*
X025716Y045321D03*
D936*
X004750Y045321D03*
D937*
X004750Y045354D03*
D938*
X004734Y045388D03*
X004734Y045421D03*
X004734Y045454D03*
X025749Y045454D03*
X025749Y045421D03*
D939*
X025749Y045487D03*
D940*
X004717Y045487D03*
D941*
X004717Y045521D03*
X025766Y045521D03*
X025766Y045554D03*
D942*
X025782Y045587D03*
X025782Y045620D03*
X004701Y045587D03*
X004701Y045554D03*
D943*
X004684Y045654D03*
X025799Y045654D03*
D944*
X004667Y045687D03*
X004667Y045720D03*
D945*
X004651Y045753D03*
D946*
X025200Y045820D03*
D947*
X005266Y045820D03*
D948*
X005316Y045853D03*
D949*
X025018Y046086D03*
D950*
X005465Y046119D03*
D951*
X005482Y046152D03*
X025001Y046152D03*
D952*
X005482Y046186D03*
D953*
X005482Y046252D03*
X024968Y046252D03*
D954*
X024968Y046485D03*
X005515Y046485D03*
D955*
X005515Y046551D03*
X024968Y046551D03*
D956*
X024968Y046817D03*
X005482Y046817D03*
D957*
X005482Y046884D03*
X005482Y046917D03*
D958*
X005465Y046984D03*
X025018Y046984D03*
D959*
X025566Y048048D03*
X005449Y047050D03*
X005449Y047017D03*
X004950Y048014D03*
D960*
X025051Y047150D03*
X025483Y047981D03*
D961*
X025217Y047582D03*
X025184Y047516D03*
X005266Y047549D03*
X005233Y047615D03*
X004767Y048114D03*
D962*
X004983Y047981D03*
D963*
X001607Y039616D02*
X001115Y039616D01*
X001115Y038632D01*
X001017Y038534D01*
X000820Y038534D01*
X000721Y038435D01*
X000721Y038042D01*
X000820Y037943D01*
X001017Y037943D01*
X001115Y037845D01*
X001115Y036860D01*
X001607Y036860D01*
X001804Y037057D01*
X002099Y037057D01*
X002099Y039419D01*
X001804Y039419D01*
X001607Y039616D01*
X001115Y038632D02*
X001115Y037845D01*
X003436Y037688D02*
X003936Y037688D01*
X003936Y038788D01*
X003436Y038788D01*
X003436Y037688D01*
X015860Y007210D02*
X016360Y007210D01*
X016360Y006110D01*
X015860Y006110D01*
X015860Y007210D01*
X016549Y007071D02*
X016549Y006249D01*
X017171Y006249D01*
X017171Y007071D01*
X016549Y007071D01*
X017044Y005160D02*
X013500Y005160D01*
X013500Y002266D01*
X017044Y002266D01*
X017044Y005160D01*
X018361Y003685D02*
X018361Y002635D01*
X018861Y002635D01*
X018861Y003685D01*
X018361Y003685D01*
X018611Y003210D02*
X018686Y003160D01*
X018536Y003160D01*
X018611Y003210D01*
X018686Y003160D02*
X018761Y003110D01*
X018461Y003110D01*
X018536Y003160D01*
X018511Y003135D02*
X018711Y003135D01*
X019110Y002610D02*
X019610Y002610D01*
X019610Y003710D01*
X019110Y003710D01*
X019110Y002610D01*
X028876Y036860D02*
X029368Y036860D01*
X029368Y037845D01*
X029466Y037943D01*
X029663Y037943D01*
X029762Y038042D01*
X029762Y038435D01*
X029663Y038534D01*
X029466Y038534D01*
X029368Y038632D01*
X029368Y039616D01*
X028876Y039616D01*
X028679Y039419D01*
X028384Y039419D01*
X028384Y037057D01*
X028679Y037057D01*
X028876Y036860D01*
X029368Y037845D02*
X029368Y038632D01*
X027213Y038788D02*
X027213Y037688D01*
X026713Y037688D01*
X026713Y038788D01*
X027213Y038788D01*
D964*
X028787Y038691D02*
X028789Y038718D01*
X028795Y038744D01*
X028804Y038769D01*
X028817Y038792D01*
X028833Y038813D01*
X028852Y038832D01*
X028873Y038848D01*
X028896Y038861D01*
X028921Y038870D01*
X028947Y038876D01*
X028974Y038878D01*
X029001Y038876D01*
X029027Y038870D01*
X029052Y038861D01*
X029075Y038848D01*
X029096Y038832D01*
X029115Y038813D01*
X029131Y038792D01*
X029144Y038769D01*
X029153Y038744D01*
X029159Y038718D01*
X029161Y038691D01*
X029159Y038664D01*
X029153Y038638D01*
X029144Y038613D01*
X029131Y038590D01*
X029115Y038569D01*
X029096Y038550D01*
X029075Y038534D01*
X029052Y038521D01*
X029027Y038512D01*
X029001Y038506D01*
X028974Y038504D01*
X028947Y038506D01*
X028921Y038512D01*
X028896Y038521D01*
X028873Y038534D01*
X028852Y038550D01*
X028833Y038569D01*
X028817Y038590D01*
X028804Y038613D01*
X028795Y038638D01*
X028789Y038664D01*
X028787Y038691D01*
X028787Y037786D02*
X028789Y037813D01*
X028795Y037839D01*
X028804Y037864D01*
X028817Y037887D01*
X028833Y037908D01*
X028852Y037927D01*
X028873Y037943D01*
X028896Y037956D01*
X028921Y037965D01*
X028947Y037971D01*
X028974Y037973D01*
X029001Y037971D01*
X029027Y037965D01*
X029052Y037956D01*
X029075Y037943D01*
X029096Y037927D01*
X029115Y037908D01*
X029131Y037887D01*
X029144Y037864D01*
X029153Y037839D01*
X029159Y037813D01*
X029161Y037786D01*
X029159Y037759D01*
X029153Y037733D01*
X029144Y037708D01*
X029131Y037685D01*
X029115Y037664D01*
X029096Y037645D01*
X029075Y037629D01*
X029052Y037616D01*
X029027Y037607D01*
X029001Y037601D01*
X028974Y037599D01*
X028947Y037601D01*
X028921Y037607D01*
X028896Y037616D01*
X028873Y037629D01*
X028852Y037645D01*
X028833Y037664D01*
X028817Y037685D01*
X028804Y037708D01*
X028795Y037733D01*
X028789Y037759D01*
X028787Y037786D01*
X016292Y004727D02*
X016294Y004748D01*
X016300Y004768D01*
X016309Y004788D01*
X016321Y004805D01*
X016336Y004819D01*
X016354Y004831D01*
X016374Y004839D01*
X016394Y004844D01*
X016415Y004845D01*
X016436Y004842D01*
X016456Y004836D01*
X016475Y004825D01*
X016492Y004812D01*
X016505Y004796D01*
X016516Y004778D01*
X016524Y004758D01*
X016528Y004738D01*
X016528Y004716D01*
X016524Y004696D01*
X016516Y004676D01*
X016505Y004658D01*
X016492Y004642D01*
X016475Y004629D01*
X016456Y004618D01*
X016436Y004612D01*
X016415Y004609D01*
X016394Y004610D01*
X016374Y004615D01*
X016354Y004623D01*
X016336Y004635D01*
X016321Y004649D01*
X016309Y004666D01*
X016300Y004686D01*
X016294Y004706D01*
X016292Y004727D01*
X014016Y004727D02*
X014018Y004748D01*
X014024Y004768D01*
X014033Y004788D01*
X014045Y004805D01*
X014060Y004819D01*
X014078Y004831D01*
X014098Y004839D01*
X014118Y004844D01*
X014139Y004845D01*
X014160Y004842D01*
X014180Y004836D01*
X014199Y004825D01*
X014216Y004812D01*
X014229Y004796D01*
X014240Y004778D01*
X014248Y004758D01*
X014252Y004738D01*
X014252Y004716D01*
X014248Y004696D01*
X014240Y004676D01*
X014229Y004658D01*
X014216Y004642D01*
X014199Y004629D01*
X014180Y004618D01*
X014160Y004612D01*
X014139Y004609D01*
X014118Y004610D01*
X014098Y004615D01*
X014078Y004623D01*
X014060Y004635D01*
X014045Y004649D01*
X014033Y004666D01*
X014024Y004686D01*
X014018Y004706D01*
X014016Y004727D01*
X001322Y037786D02*
X001324Y037813D01*
X001330Y037839D01*
X001339Y037864D01*
X001352Y037887D01*
X001368Y037908D01*
X001387Y037927D01*
X001408Y037943D01*
X001431Y037956D01*
X001456Y037965D01*
X001482Y037971D01*
X001509Y037973D01*
X001536Y037971D01*
X001562Y037965D01*
X001587Y037956D01*
X001610Y037943D01*
X001631Y037927D01*
X001650Y037908D01*
X001666Y037887D01*
X001679Y037864D01*
X001688Y037839D01*
X001694Y037813D01*
X001696Y037786D01*
X001694Y037759D01*
X001688Y037733D01*
X001679Y037708D01*
X001666Y037685D01*
X001650Y037664D01*
X001631Y037645D01*
X001610Y037629D01*
X001587Y037616D01*
X001562Y037607D01*
X001536Y037601D01*
X001509Y037599D01*
X001482Y037601D01*
X001456Y037607D01*
X001431Y037616D01*
X001408Y037629D01*
X001387Y037645D01*
X001368Y037664D01*
X001352Y037685D01*
X001339Y037708D01*
X001330Y037733D01*
X001324Y037759D01*
X001322Y037786D01*
X001322Y038691D02*
X001324Y038718D01*
X001330Y038744D01*
X001339Y038769D01*
X001352Y038792D01*
X001368Y038813D01*
X001387Y038832D01*
X001408Y038848D01*
X001431Y038861D01*
X001456Y038870D01*
X001482Y038876D01*
X001509Y038878D01*
X001536Y038876D01*
X001562Y038870D01*
X001587Y038861D01*
X001610Y038848D01*
X001631Y038832D01*
X001650Y038813D01*
X001666Y038792D01*
X001679Y038769D01*
X001688Y038744D01*
X001694Y038718D01*
X001696Y038691D01*
X001694Y038664D01*
X001688Y038638D01*
X001679Y038613D01*
X001666Y038590D01*
X001650Y038569D01*
X001631Y038550D01*
X001610Y038534D01*
X001587Y038521D01*
X001562Y038512D01*
X001536Y038506D01*
X001509Y038504D01*
X001482Y038506D01*
X001456Y038512D01*
X001431Y038521D01*
X001408Y038534D01*
X001387Y038550D01*
X001368Y038569D01*
X001352Y038590D01*
X001339Y038613D01*
X001330Y038638D01*
X001324Y038664D01*
X001322Y038691D01*
M02*
