G75*
G70*
%OFA0B0*%
%FSLAX24Y24*%
%IPPOS*%
%LPD*%
%AMOC8*
5,1,8,0,0,1.08239X$1,22.5*
%
%ADD10R,1.9505X0.0033*%
%ADD11R,2.0103X0.0033*%
%ADD12R,2.0435X0.0033*%
%ADD13R,2.0668X0.0033*%
%ADD14R,0.0532X0.0033*%
%ADD15R,0.0432X0.0033*%
%ADD16R,0.0399X0.0033*%
%ADD17R,0.0366X0.0033*%
%ADD18R,0.0332X0.0033*%
%ADD19R,0.0299X0.0033*%
%ADD20R,0.0266X0.0033*%
%ADD21R,0.0233X0.0033*%
%ADD22R,0.0199X0.0033*%
%ADD23R,0.0166X0.0033*%
%ADD24R,0.0133X0.0033*%
%ADD25R,0.0100X0.0033*%
%ADD26R,1.0733X0.0033*%
%ADD27R,1.1032X0.0033*%
%ADD28R,1.1231X0.0033*%
%ADD29R,1.1397X0.0033*%
%ADD30R,0.0498X0.0033*%
%ADD31R,0.0465X0.0033*%
%ADD32R,0.4552X0.0033*%
%ADD33R,0.4353X0.0033*%
%ADD34R,0.4154X0.0033*%
%ADD35R,0.4087X0.0033*%
%ADD36R,0.3888X0.0033*%
%ADD37R,0.3655X0.0033*%
%ADD38R,0.3423X0.0033*%
%ADD39C,0.0000*%
%ADD40C,0.0414*%
%ADD41C,0.0276*%
%ADD42C,0.0434*%
%ADD43C,0.0473*%
%ADD44C,0.0749*%
%ADD45C,0.2638*%
D10*
X015248Y002160D03*
D11*
X015248Y002193D03*
D12*
X015248Y002226D03*
D13*
X015231Y002260D03*
D14*
X005063Y002293D03*
X025399Y002293D03*
D15*
X025549Y002326D03*
X004947Y002326D03*
X024053Y048813D03*
D16*
X028257Y048779D03*
X006625Y048813D03*
X002239Y048779D03*
X004831Y002359D03*
D17*
X025648Y002359D03*
X025748Y002393D03*
X020830Y043994D03*
X023920Y048779D03*
X028340Y048746D03*
D18*
X028423Y048713D03*
X009649Y043994D03*
X006725Y048779D03*
X002139Y048746D03*
X004665Y002426D03*
X004731Y002393D03*
X025831Y002426D03*
D19*
X025881Y002459D03*
X004582Y002459D03*
X004515Y002492D03*
X009566Y044028D03*
X002056Y048713D03*
X001990Y048680D03*
X020897Y044028D03*
X023854Y048746D03*
D20*
X023771Y048713D03*
X023704Y048680D03*
X023605Y048613D03*
X020980Y044061D03*
X028489Y048680D03*
X028556Y048646D03*
X028622Y048613D03*
X009516Y044061D03*
X009450Y044094D03*
X006858Y048713D03*
X006791Y048746D03*
X001940Y048646D03*
X001873Y048613D03*
X004299Y002625D03*
X004399Y002559D03*
X004465Y002526D03*
X025964Y002492D03*
X026030Y002526D03*
X026130Y002592D03*
D21*
X026080Y002559D03*
X026180Y002625D03*
X026246Y002658D03*
X026280Y002692D03*
X026313Y002725D03*
X004349Y002592D03*
X004249Y002658D03*
X004216Y002692D03*
X004116Y002758D03*
X004083Y002791D03*
X009400Y044127D03*
X006941Y048646D03*
X006908Y048680D03*
X001824Y048580D03*
X001757Y048547D03*
X001724Y048514D03*
X001624Y048447D03*
X001591Y048414D03*
X001558Y048381D03*
X021030Y044094D03*
X021096Y044127D03*
X021129Y044161D03*
X023522Y048547D03*
X023555Y048580D03*
X023655Y048646D03*
X028672Y048580D03*
X028705Y048547D03*
X028772Y048514D03*
X028805Y048480D03*
D22*
X028855Y048447D03*
X028888Y048414D03*
X028921Y048381D03*
X028955Y048347D03*
X023472Y048514D03*
X023439Y048480D03*
X023405Y048447D03*
X023372Y048414D03*
X023339Y048381D03*
X023306Y048347D03*
X021279Y044294D03*
X021246Y044260D03*
X021212Y044227D03*
X021179Y044194D03*
X009350Y044161D03*
X009317Y044194D03*
X009283Y044227D03*
X009250Y044260D03*
X009217Y044294D03*
X009184Y044327D03*
X009150Y044360D03*
X007157Y048447D03*
X007124Y048480D03*
X007090Y048514D03*
X007057Y048547D03*
X007024Y048580D03*
X006991Y048613D03*
X001674Y048480D03*
X001508Y048347D03*
X001475Y048314D03*
X001441Y048281D03*
X001342Y048148D03*
X003767Y003124D03*
X003867Y002991D03*
X003900Y002957D03*
X003934Y002924D03*
X003967Y002891D03*
X004000Y002858D03*
X004033Y002825D03*
X004166Y002725D03*
X026363Y002758D03*
X026396Y002791D03*
X026429Y002825D03*
X026462Y002858D03*
X026496Y002891D03*
X026529Y002924D03*
X026562Y002957D03*
X026595Y002991D03*
X026629Y003024D03*
X026662Y003057D03*
X026695Y003090D03*
D23*
X026712Y003124D03*
X026745Y003157D03*
X026778Y003190D03*
X026778Y003223D03*
X026811Y003257D03*
X026845Y003290D03*
X026845Y003323D03*
X026878Y003356D03*
X026911Y003423D03*
X026944Y003489D03*
X026977Y003556D03*
X027011Y003622D03*
X027044Y003689D03*
X027443Y026815D03*
X027509Y026982D03*
X027576Y027148D03*
X027609Y027214D03*
X027642Y027281D03*
X027675Y027347D03*
X027709Y027414D03*
X027742Y027480D03*
X027775Y027546D03*
X027808Y027613D03*
X027841Y027679D03*
X027875Y027746D03*
X027908Y027812D03*
X027941Y027879D03*
X027974Y027945D03*
X028008Y028012D03*
X028041Y028078D03*
X028074Y028145D03*
X028107Y028211D03*
X028140Y028277D03*
X028174Y028344D03*
X028207Y028410D03*
X028240Y028477D03*
X028273Y028543D03*
X028307Y028610D03*
X028340Y028676D03*
X028373Y028743D03*
X028406Y028809D03*
X028440Y028876D03*
X028473Y028942D03*
X028506Y029009D03*
X028539Y029075D03*
X028572Y029141D03*
X029104Y030171D03*
X029137Y030238D03*
X029237Y030471D03*
X029270Y030537D03*
X021295Y044327D03*
X021329Y044360D03*
X021362Y044393D03*
X021395Y044460D03*
X021428Y044493D03*
X021561Y044792D03*
X021594Y044858D03*
X021628Y044925D03*
X021661Y044991D03*
X021694Y045058D03*
X021727Y045124D03*
X021827Y045357D03*
X021860Y045423D03*
X021894Y045490D03*
X021927Y045556D03*
X021960Y045623D03*
X021993Y045689D03*
X022126Y045988D03*
X022159Y046055D03*
X022193Y046121D03*
X022226Y046188D03*
X022259Y046254D03*
X022292Y046320D03*
X022392Y046553D03*
X022425Y046620D03*
X022458Y046686D03*
X022492Y046752D03*
X022525Y046819D03*
X022558Y046885D03*
X022658Y047118D03*
X022691Y047184D03*
X022724Y047251D03*
X022757Y047317D03*
X022791Y047384D03*
X022824Y047450D03*
X022957Y047749D03*
X022990Y047816D03*
X023023Y047882D03*
X023057Y047949D03*
X023090Y048015D03*
X023123Y048082D03*
X023156Y048148D03*
X023189Y048181D03*
X023189Y048214D03*
X023223Y048248D03*
X023256Y048281D03*
X023289Y048314D03*
X029137Y048148D03*
X029171Y048115D03*
X029204Y048082D03*
X029204Y048048D03*
X029237Y048015D03*
X029270Y047982D03*
X029303Y047915D03*
X029337Y047849D03*
X029370Y047783D03*
X029403Y047716D03*
X009134Y044393D03*
X009101Y044426D03*
X009067Y044493D03*
X008968Y044692D03*
X008934Y044759D03*
X008901Y044825D03*
X008868Y044892D03*
X008835Y044958D03*
X008802Y045025D03*
X008702Y045257D03*
X008669Y045324D03*
X008635Y045390D03*
X008602Y045457D03*
X008569Y045523D03*
X008536Y045589D03*
X008503Y045656D03*
X008403Y045889D03*
X008370Y045955D03*
X008336Y046021D03*
X008303Y046088D03*
X008270Y046154D03*
X008237Y046221D03*
X008137Y046453D03*
X008104Y046520D03*
X008071Y046586D03*
X008037Y046653D03*
X008004Y046719D03*
X007971Y046786D03*
X007838Y047085D03*
X007805Y047151D03*
X007771Y047218D03*
X007738Y047284D03*
X007705Y047351D03*
X007672Y047417D03*
X007572Y047650D03*
X007539Y047716D03*
X007506Y047783D03*
X007472Y047849D03*
X007439Y047915D03*
X007406Y047982D03*
X007306Y048214D03*
X007273Y048281D03*
X007240Y048314D03*
X007207Y048381D03*
X007173Y048414D03*
X001425Y048248D03*
X001392Y048214D03*
X001358Y048181D03*
X001325Y048115D03*
X001292Y048082D03*
X001259Y048048D03*
X001226Y047982D03*
X001192Y047949D03*
X001159Y047882D03*
X001126Y047816D03*
X001093Y047749D03*
X001059Y047683D03*
X001159Y030670D03*
X001226Y030504D03*
X001259Y030437D03*
X001491Y029972D03*
X001525Y029906D03*
X001558Y029839D03*
X001591Y029773D03*
X001624Y029706D03*
X001657Y029640D03*
X001691Y029573D03*
X001724Y029507D03*
X001757Y029440D03*
X001790Y029374D03*
X001824Y029308D03*
X001857Y029241D03*
X001890Y029175D03*
X001923Y029108D03*
X001957Y029042D03*
X001990Y028975D03*
X002023Y028909D03*
X002056Y028842D03*
X002089Y028776D03*
X002123Y028709D03*
X002156Y028643D03*
X002189Y028577D03*
X002222Y028510D03*
X002256Y028444D03*
X002289Y028377D03*
X002322Y028311D03*
X002355Y028244D03*
X002389Y028178D03*
X002422Y028111D03*
X002455Y028045D03*
X002488Y027978D03*
X002521Y027912D03*
X002555Y027846D03*
X002588Y027779D03*
X002621Y027713D03*
X002654Y027646D03*
X002688Y027580D03*
X002721Y027513D03*
X002754Y027447D03*
X002787Y027380D03*
X002820Y027314D03*
X002854Y027247D03*
X002887Y027181D03*
X002920Y027114D03*
X002987Y026948D03*
X003452Y003655D03*
X003485Y003589D03*
X003518Y003522D03*
X003551Y003456D03*
X003585Y003389D03*
X003618Y003323D03*
X003651Y003290D03*
X003684Y003257D03*
X003684Y003223D03*
X003718Y003190D03*
X003751Y003157D03*
X003784Y003090D03*
X003817Y003057D03*
X003851Y003024D03*
D24*
X003369Y003855D03*
X003369Y003888D03*
X003369Y003921D03*
X003336Y003954D03*
X003336Y003988D03*
X003336Y004021D03*
X003336Y004054D03*
X003302Y004120D03*
X003302Y004154D03*
X003302Y004187D03*
X003302Y004220D03*
X003269Y004353D03*
X003269Y004386D03*
X003269Y004420D03*
X003269Y004453D03*
X003269Y004486D03*
X003269Y004519D03*
X003269Y004552D03*
X003269Y004586D03*
X003269Y004619D03*
X003269Y004652D03*
X003269Y004685D03*
X003269Y004719D03*
X003269Y004752D03*
X003269Y004785D03*
X003269Y004818D03*
X003269Y004851D03*
X003269Y004885D03*
X003269Y004918D03*
X003269Y004951D03*
X003269Y004984D03*
X003269Y005018D03*
X003269Y005051D03*
X003269Y005084D03*
X003269Y005117D03*
X003269Y005151D03*
X003269Y005184D03*
X003269Y005217D03*
X003269Y005250D03*
X003269Y005283D03*
X003269Y005317D03*
X003269Y005350D03*
X003269Y005383D03*
X003269Y005416D03*
X003269Y005450D03*
X003269Y005483D03*
X003269Y005516D03*
X003269Y005549D03*
X003269Y005583D03*
X003269Y005616D03*
X003269Y005649D03*
X003269Y005682D03*
X003269Y005715D03*
X003269Y005749D03*
X003269Y005782D03*
X003269Y005815D03*
X003269Y005848D03*
X003269Y005882D03*
X003269Y005915D03*
X003269Y005948D03*
X003269Y005981D03*
X003269Y006014D03*
X003269Y006048D03*
X003269Y006081D03*
X003269Y006114D03*
X003269Y006147D03*
X003269Y006181D03*
X003269Y006214D03*
X003269Y006247D03*
X003269Y006280D03*
X003269Y006314D03*
X003269Y006347D03*
X003269Y006380D03*
X003269Y006413D03*
X003269Y006446D03*
X003269Y006480D03*
X003269Y006513D03*
X003269Y006546D03*
X003269Y006579D03*
X003269Y006613D03*
X003269Y006646D03*
X003269Y006679D03*
X003269Y006712D03*
X003269Y006746D03*
X003269Y006779D03*
X003269Y006812D03*
X003269Y006845D03*
X003269Y006878D03*
X003269Y006912D03*
X003269Y006945D03*
X003269Y006978D03*
X003269Y007011D03*
X003269Y007045D03*
X003269Y007078D03*
X003269Y007111D03*
X003269Y007144D03*
X003269Y007177D03*
X003269Y007211D03*
X003269Y007244D03*
X003269Y007277D03*
X003269Y007310D03*
X003269Y007344D03*
X003269Y007377D03*
X003269Y007410D03*
X003269Y007443D03*
X003269Y007477D03*
X003269Y007510D03*
X003269Y007543D03*
X003269Y007576D03*
X003269Y007609D03*
X003269Y007643D03*
X003269Y007676D03*
X003269Y007709D03*
X003269Y007742D03*
X003269Y007776D03*
X003269Y007809D03*
X003269Y007842D03*
X003269Y007875D03*
X003269Y007909D03*
X003269Y007942D03*
X003269Y007975D03*
X003269Y008008D03*
X003269Y008041D03*
X003269Y008075D03*
X003269Y008108D03*
X003269Y008141D03*
X003269Y008174D03*
X003269Y008208D03*
X003269Y008241D03*
X003269Y008274D03*
X003269Y008307D03*
X003269Y008340D03*
X003269Y008374D03*
X003269Y008407D03*
X003269Y008440D03*
X003269Y008473D03*
X003269Y008507D03*
X003269Y008540D03*
X003269Y008573D03*
X003269Y008606D03*
X003269Y008640D03*
X003269Y008673D03*
X003269Y008706D03*
X003269Y008739D03*
X003269Y008772D03*
X003269Y008806D03*
X003269Y008839D03*
X003269Y008872D03*
X003269Y008905D03*
X003269Y008939D03*
X003269Y008972D03*
X003269Y009005D03*
X003269Y009038D03*
X003269Y009071D03*
X003269Y009105D03*
X003269Y009138D03*
X003269Y009171D03*
X003269Y009204D03*
X003269Y009238D03*
X003269Y009271D03*
X003269Y009304D03*
X003269Y009337D03*
X003269Y009371D03*
X003269Y009404D03*
X003269Y009437D03*
X003269Y009470D03*
X003269Y009503D03*
X003269Y009537D03*
X003269Y009570D03*
X003269Y009603D03*
X003269Y009636D03*
X003269Y009670D03*
X003269Y009703D03*
X003269Y009736D03*
X003269Y009769D03*
X003269Y009803D03*
X003269Y009836D03*
X003269Y009869D03*
X003269Y009902D03*
X003269Y009935D03*
X003269Y009969D03*
X003269Y010002D03*
X003269Y010035D03*
X003269Y010068D03*
X003269Y010102D03*
X003269Y010135D03*
X003269Y010168D03*
X003269Y010201D03*
X003269Y010234D03*
X003269Y010268D03*
X003269Y010301D03*
X003269Y010334D03*
X003269Y010367D03*
X003269Y010401D03*
X003269Y010434D03*
X003269Y010467D03*
X003269Y010500D03*
X003269Y010534D03*
X003269Y010567D03*
X003269Y010600D03*
X003269Y010633D03*
X003269Y010666D03*
X003269Y010700D03*
X003269Y010733D03*
X003269Y010766D03*
X003269Y010799D03*
X003269Y010833D03*
X003269Y010866D03*
X003269Y010899D03*
X003269Y010932D03*
X003269Y010966D03*
X003269Y010999D03*
X003269Y011032D03*
X003269Y011065D03*
X003269Y011098D03*
X003269Y011132D03*
X003269Y011165D03*
X003269Y011198D03*
X003269Y011231D03*
X003269Y011265D03*
X003269Y011298D03*
X003269Y011331D03*
X003269Y011364D03*
X003269Y011397D03*
X003269Y011431D03*
X003269Y011464D03*
X003269Y011497D03*
X003269Y011530D03*
X003269Y011564D03*
X003269Y011597D03*
X003269Y011630D03*
X003269Y011663D03*
X003269Y011697D03*
X003269Y011730D03*
X003269Y011763D03*
X003269Y011796D03*
X003269Y011829D03*
X003269Y011863D03*
X003269Y011896D03*
X003269Y011929D03*
X003269Y011962D03*
X003269Y011996D03*
X003269Y012029D03*
X003269Y012062D03*
X003269Y012095D03*
X003269Y012129D03*
X003269Y012162D03*
X003269Y012195D03*
X003269Y012228D03*
X003269Y012261D03*
X003269Y012295D03*
X003269Y012328D03*
X003269Y012361D03*
X003269Y012394D03*
X003269Y012428D03*
X003269Y012461D03*
X003269Y012494D03*
X003269Y012527D03*
X003269Y012560D03*
X003269Y012594D03*
X003269Y012627D03*
X003269Y012660D03*
X003269Y012693D03*
X003269Y012727D03*
X003269Y012760D03*
X003269Y012793D03*
X003269Y012826D03*
X003269Y012860D03*
X003269Y012893D03*
X003269Y012926D03*
X003269Y012959D03*
X003269Y012992D03*
X003269Y013026D03*
X003269Y013059D03*
X003269Y013092D03*
X003269Y013125D03*
X003269Y013159D03*
X003269Y013192D03*
X003269Y013225D03*
X003269Y013258D03*
X003269Y013291D03*
X003269Y013325D03*
X003269Y013358D03*
X003269Y013391D03*
X003269Y013424D03*
X003269Y013458D03*
X003269Y013491D03*
X003269Y013524D03*
X003269Y013557D03*
X003269Y013591D03*
X003269Y013624D03*
X003269Y013657D03*
X003269Y013690D03*
X003269Y013723D03*
X003269Y013757D03*
X003269Y013790D03*
X003269Y013823D03*
X003269Y013856D03*
X003269Y013890D03*
X003269Y013923D03*
X003269Y013956D03*
X003269Y013989D03*
X003269Y014023D03*
X003269Y014056D03*
X003269Y014089D03*
X003269Y014122D03*
X003269Y014155D03*
X003269Y014189D03*
X003269Y014222D03*
X003269Y014255D03*
X003269Y014288D03*
X003269Y014322D03*
X003269Y014355D03*
X003269Y014388D03*
X003269Y014421D03*
X003269Y014454D03*
X003269Y014488D03*
X003269Y014521D03*
X003269Y014554D03*
X003269Y014587D03*
X003269Y014621D03*
X003269Y014654D03*
X003269Y014687D03*
X003269Y014720D03*
X003269Y014754D03*
X003269Y014787D03*
X003269Y014820D03*
X003269Y014853D03*
X003269Y014886D03*
X003269Y014920D03*
X003269Y014953D03*
X003269Y014986D03*
X003269Y015019D03*
X003269Y015053D03*
X003269Y015086D03*
X003269Y015119D03*
X003269Y015152D03*
X003269Y015186D03*
X003269Y015219D03*
X003269Y015252D03*
X003269Y015285D03*
X003269Y015318D03*
X003269Y015352D03*
X003269Y015385D03*
X003269Y015418D03*
X003269Y015451D03*
X003269Y015485D03*
X003269Y015518D03*
X003269Y015551D03*
X003269Y015584D03*
X003269Y015617D03*
X003269Y015651D03*
X003269Y015684D03*
X003269Y015717D03*
X003269Y015750D03*
X003269Y015784D03*
X003269Y015817D03*
X003269Y015850D03*
X003269Y015883D03*
X003269Y015917D03*
X003269Y015950D03*
X003269Y015983D03*
X003269Y016016D03*
X003269Y016049D03*
X003269Y016083D03*
X003269Y016116D03*
X003269Y016149D03*
X003269Y016182D03*
X003269Y016216D03*
X003269Y016249D03*
X003269Y016282D03*
X003269Y016315D03*
X003269Y016349D03*
X003269Y016382D03*
X003269Y016415D03*
X003269Y016448D03*
X003269Y016481D03*
X003269Y016515D03*
X003269Y016548D03*
X003269Y016581D03*
X003269Y016614D03*
X003269Y016648D03*
X003269Y016681D03*
X003269Y016714D03*
X003269Y016747D03*
X003269Y016780D03*
X003269Y016814D03*
X003269Y016847D03*
X003269Y016880D03*
X003269Y016913D03*
X003269Y016947D03*
X003269Y016980D03*
X003269Y017013D03*
X003269Y017046D03*
X003269Y017080D03*
X003269Y017113D03*
X003269Y017146D03*
X003269Y017179D03*
X003269Y017212D03*
X003269Y017246D03*
X003269Y017279D03*
X003269Y017312D03*
X003269Y017345D03*
X003269Y017379D03*
X003269Y017412D03*
X003269Y017445D03*
X003269Y017478D03*
X003269Y017511D03*
X003269Y017545D03*
X003269Y017578D03*
X003269Y017611D03*
X003269Y017644D03*
X003269Y017678D03*
X003269Y017711D03*
X003269Y017744D03*
X003269Y017777D03*
X003269Y017811D03*
X003269Y017844D03*
X003269Y017877D03*
X003269Y017910D03*
X003269Y017943D03*
X003269Y017977D03*
X003269Y018010D03*
X003269Y018043D03*
X003269Y018076D03*
X003269Y018110D03*
X003269Y018143D03*
X003269Y018176D03*
X003269Y018209D03*
X003269Y018243D03*
X003269Y018276D03*
X003269Y018309D03*
X003269Y018342D03*
X003269Y018375D03*
X003269Y018409D03*
X003269Y018442D03*
X003269Y018475D03*
X003269Y018508D03*
X003269Y018542D03*
X003269Y018575D03*
X003269Y018608D03*
X003269Y018641D03*
X003269Y018674D03*
X003269Y018708D03*
X003269Y018741D03*
X003269Y018774D03*
X003269Y018807D03*
X003269Y018841D03*
X003269Y018874D03*
X003269Y018907D03*
X003269Y018940D03*
X003269Y018974D03*
X003269Y019007D03*
X003269Y019040D03*
X003269Y019073D03*
X003269Y019106D03*
X003269Y019140D03*
X003269Y019173D03*
X003269Y019206D03*
X003269Y019239D03*
X003269Y019273D03*
X003269Y019306D03*
X003269Y019339D03*
X003269Y019372D03*
X003269Y019406D03*
X003269Y019439D03*
X003269Y019472D03*
X003269Y019505D03*
X003269Y019538D03*
X003269Y019572D03*
X003269Y019605D03*
X003269Y019638D03*
X003269Y019671D03*
X003269Y019705D03*
X003269Y019738D03*
X003269Y019771D03*
X003269Y019804D03*
X003269Y019837D03*
X003269Y019871D03*
X003269Y019904D03*
X003269Y019937D03*
X003269Y019970D03*
X003269Y020004D03*
X003269Y020037D03*
X003269Y020070D03*
X003269Y020103D03*
X003269Y020137D03*
X003269Y020170D03*
X003269Y020203D03*
X003269Y020236D03*
X003269Y020269D03*
X003269Y020303D03*
X003269Y020336D03*
X003269Y020369D03*
X003269Y020402D03*
X003269Y020436D03*
X003269Y020469D03*
X003269Y020502D03*
X003269Y020535D03*
X003269Y020569D03*
X003269Y020602D03*
X003269Y020635D03*
X003269Y020668D03*
X003269Y020701D03*
X003269Y020735D03*
X003269Y020768D03*
X003269Y020801D03*
X003269Y020834D03*
X003269Y020868D03*
X003269Y020901D03*
X003269Y020934D03*
X003269Y020967D03*
X003269Y021000D03*
X003269Y021034D03*
X003269Y021067D03*
X003269Y021100D03*
X003269Y021133D03*
X003269Y021167D03*
X003269Y021200D03*
X003269Y021233D03*
X003269Y021266D03*
X003269Y021300D03*
X003269Y021333D03*
X003269Y021366D03*
X003269Y021399D03*
X003269Y021432D03*
X003269Y021466D03*
X003269Y021499D03*
X003269Y021532D03*
X003269Y021565D03*
X003269Y021599D03*
X003269Y021632D03*
X003269Y021665D03*
X003269Y021698D03*
X003269Y021731D03*
X003269Y021765D03*
X003269Y021798D03*
X003269Y021831D03*
X003269Y021864D03*
X003269Y021898D03*
X003269Y021931D03*
X003269Y021964D03*
X003269Y021997D03*
X003269Y022031D03*
X003269Y022064D03*
X003269Y022097D03*
X003269Y022130D03*
X003269Y022163D03*
X003269Y022197D03*
X003269Y022230D03*
X003269Y022263D03*
X003269Y022296D03*
X003269Y022330D03*
X003269Y022363D03*
X003269Y022396D03*
X003269Y022429D03*
X003269Y022463D03*
X003269Y022496D03*
X003269Y022529D03*
X003269Y022562D03*
X003269Y022595D03*
X003269Y022629D03*
X003269Y022662D03*
X003269Y022695D03*
X003269Y022728D03*
X003269Y022762D03*
X003269Y022795D03*
X003269Y022828D03*
X003269Y022861D03*
X003269Y022894D03*
X003269Y022928D03*
X003269Y022961D03*
X003269Y022994D03*
X003269Y023027D03*
X003269Y023061D03*
X003269Y023094D03*
X003269Y023127D03*
X003269Y023160D03*
X003269Y023194D03*
X003269Y023227D03*
X003269Y023260D03*
X003269Y023293D03*
X003269Y023326D03*
X003269Y023360D03*
X003269Y023393D03*
X003269Y023426D03*
X003269Y023459D03*
X003269Y023493D03*
X003269Y023526D03*
X003269Y023559D03*
X003269Y023592D03*
X003269Y023626D03*
X003269Y023659D03*
X003269Y023692D03*
X003269Y023725D03*
X003269Y023758D03*
X003269Y023792D03*
X003269Y023825D03*
X003269Y023858D03*
X003269Y023891D03*
X003269Y023925D03*
X003269Y023958D03*
X003269Y023991D03*
X003269Y024024D03*
X003269Y024057D03*
X003269Y024091D03*
X003269Y024124D03*
X003269Y024157D03*
X003269Y024190D03*
X003269Y024224D03*
X003269Y024257D03*
X003269Y024290D03*
X003269Y024323D03*
X003269Y024357D03*
X003269Y024390D03*
X003269Y024423D03*
X003269Y024456D03*
X003269Y024489D03*
X003269Y024523D03*
X003269Y024556D03*
X003269Y024589D03*
X003269Y024622D03*
X003269Y024656D03*
X003269Y024689D03*
X003269Y024722D03*
X003269Y024755D03*
X003269Y024789D03*
X003269Y024822D03*
X003269Y024855D03*
X003269Y024888D03*
X003269Y024921D03*
X003269Y024955D03*
X003269Y024988D03*
X003269Y025021D03*
X003269Y025054D03*
X003269Y025088D03*
X003269Y025121D03*
X003269Y025154D03*
X003269Y025187D03*
X003269Y025220D03*
X003269Y025254D03*
X003269Y025287D03*
X003269Y025320D03*
X003269Y025353D03*
X003269Y025387D03*
X003269Y025420D03*
X003269Y025453D03*
X003269Y025486D03*
X003269Y025520D03*
X003269Y025553D03*
X003269Y025586D03*
X003269Y025619D03*
X003269Y025652D03*
X003269Y025686D03*
X003269Y025719D03*
X003236Y025918D03*
X003236Y025951D03*
X003236Y025985D03*
X003236Y026018D03*
X003236Y026051D03*
X003203Y026151D03*
X003203Y026184D03*
X003203Y026217D03*
X003203Y026251D03*
X003169Y026317D03*
X003169Y026350D03*
X003169Y026383D03*
X003169Y026417D03*
X003136Y026450D03*
X003136Y026483D03*
X003136Y026516D03*
X003136Y026550D03*
X003103Y026583D03*
X003103Y026616D03*
X003103Y026649D03*
X003070Y026683D03*
X003070Y026716D03*
X003070Y026749D03*
X003036Y026782D03*
X003036Y026815D03*
X003036Y026849D03*
X003003Y026882D03*
X003003Y026915D03*
X002970Y026982D03*
X002970Y027015D03*
X002937Y027048D03*
X002937Y027081D03*
X002904Y027148D03*
X002870Y027214D03*
X002837Y027281D03*
X002804Y027347D03*
X002771Y027414D03*
X002737Y027480D03*
X002704Y027546D03*
X002671Y027613D03*
X002638Y027679D03*
X002604Y027746D03*
X002571Y027812D03*
X002538Y027879D03*
X002505Y027945D03*
X002472Y028012D03*
X002438Y028078D03*
X002405Y028145D03*
X002372Y028211D03*
X002339Y028277D03*
X002305Y028344D03*
X002272Y028410D03*
X002239Y028477D03*
X002206Y028543D03*
X002173Y028610D03*
X002139Y028676D03*
X002106Y028743D03*
X002073Y028809D03*
X002040Y028876D03*
X002006Y028942D03*
X001973Y029009D03*
X001940Y029075D03*
X001907Y029141D03*
X001873Y029208D03*
X001840Y029274D03*
X001807Y029341D03*
X001774Y029407D03*
X001741Y029474D03*
X001707Y029540D03*
X001674Y029607D03*
X001641Y029673D03*
X001608Y029740D03*
X001574Y029806D03*
X001541Y029872D03*
X001508Y029939D03*
X001475Y030005D03*
X001441Y030039D03*
X001441Y030072D03*
X001408Y030105D03*
X001408Y030138D03*
X001375Y030171D03*
X001375Y030205D03*
X001342Y030238D03*
X001342Y030271D03*
X001309Y030304D03*
X001309Y030338D03*
X001275Y030371D03*
X001275Y030404D03*
X001242Y030471D03*
X001209Y030537D03*
X001209Y030570D03*
X001176Y030603D03*
X001176Y030637D03*
X001142Y030703D03*
X001142Y030736D03*
X001109Y030770D03*
X001109Y030803D03*
X001109Y030836D03*
X001076Y030869D03*
X001076Y030903D03*
X001076Y030936D03*
X001076Y030969D03*
X001043Y031002D03*
X001043Y031035D03*
X001043Y031069D03*
X001010Y031135D03*
X001010Y031168D03*
X001010Y031202D03*
X000976Y031301D03*
X000976Y031334D03*
X000976Y031368D03*
X000976Y031401D03*
X000943Y031501D03*
X000943Y031534D03*
X000943Y031567D03*
X000943Y031600D03*
X000943Y031634D03*
X000910Y031833D03*
X000910Y031866D03*
X000910Y031899D03*
X000910Y031933D03*
X000910Y031966D03*
X000910Y031999D03*
X000910Y032032D03*
X000910Y032066D03*
X000910Y032099D03*
X000910Y032132D03*
X000910Y032165D03*
X000910Y032198D03*
X000910Y032232D03*
X000910Y032265D03*
X000910Y032298D03*
X000910Y032331D03*
X000910Y032365D03*
X000910Y032398D03*
X000910Y032431D03*
X000910Y032464D03*
X000910Y032497D03*
X000910Y032531D03*
X000910Y032564D03*
X000910Y032597D03*
X000910Y032630D03*
X000910Y032664D03*
X000910Y032697D03*
X000910Y032730D03*
X000910Y032763D03*
X000910Y032797D03*
X000910Y032830D03*
X000910Y032863D03*
X000910Y032896D03*
X000910Y032929D03*
X000910Y032963D03*
X000910Y032996D03*
X000910Y033029D03*
X000910Y033062D03*
X000910Y033096D03*
X000910Y033129D03*
X000910Y033162D03*
X000910Y033195D03*
X000910Y033229D03*
X000910Y033262D03*
X000910Y033295D03*
X000910Y033328D03*
X000910Y033361D03*
X000910Y033395D03*
X000910Y033428D03*
X000910Y033461D03*
X000910Y033494D03*
X000910Y033528D03*
X000910Y033561D03*
X000910Y033594D03*
X000910Y033627D03*
X000910Y033660D03*
X000910Y033694D03*
X000910Y033727D03*
X000910Y033760D03*
X000910Y033793D03*
X000910Y033827D03*
X000910Y033860D03*
X000910Y033893D03*
X000910Y033926D03*
X000910Y033960D03*
X000910Y033993D03*
X000910Y034026D03*
X000910Y034059D03*
X000910Y034092D03*
X000910Y034126D03*
X000910Y034159D03*
X000910Y034192D03*
X000910Y034225D03*
X000910Y034259D03*
X000910Y034292D03*
X000910Y034325D03*
X000910Y034358D03*
X000910Y034391D03*
X000910Y034425D03*
X000910Y034458D03*
X000910Y034491D03*
X000910Y034524D03*
X000910Y034558D03*
X000910Y034591D03*
X000910Y034624D03*
X000910Y034657D03*
X000910Y034691D03*
X000910Y034724D03*
X000910Y034757D03*
X000910Y034790D03*
X000910Y034823D03*
X000910Y034857D03*
X000910Y034890D03*
X000910Y034923D03*
X000910Y034956D03*
X000910Y034990D03*
X000910Y035023D03*
X000910Y035056D03*
X000910Y035089D03*
X000910Y035123D03*
X000910Y035156D03*
X000910Y035189D03*
X000910Y035222D03*
X000910Y035255D03*
X000910Y035289D03*
X000910Y035322D03*
X000910Y035355D03*
X000910Y035388D03*
X000910Y035422D03*
X000910Y035455D03*
X000910Y035488D03*
X000910Y035521D03*
X000910Y035554D03*
X000910Y035588D03*
X000910Y035621D03*
X000910Y035654D03*
X000910Y035687D03*
X000910Y035721D03*
X000910Y035754D03*
X000910Y035787D03*
X000910Y035820D03*
X000910Y035854D03*
X000910Y035887D03*
X000910Y035920D03*
X000910Y035953D03*
X000910Y035986D03*
X000910Y036020D03*
X000910Y036053D03*
X000910Y036086D03*
X000910Y036119D03*
X000910Y036153D03*
X000910Y036186D03*
X000910Y036219D03*
X000910Y036252D03*
X000910Y036286D03*
X000910Y036319D03*
X000910Y036352D03*
X000910Y036385D03*
X000910Y036418D03*
X000910Y036452D03*
X000910Y036485D03*
X000910Y036518D03*
X000910Y036551D03*
X000910Y036585D03*
X000910Y036618D03*
X000910Y036651D03*
X000910Y036684D03*
X000910Y036717D03*
X000910Y036751D03*
X000910Y036784D03*
X000910Y036817D03*
X000910Y036850D03*
X000910Y036884D03*
X000910Y036917D03*
X000910Y036950D03*
X000910Y036983D03*
X000910Y037017D03*
X000910Y037050D03*
X000910Y037083D03*
X000910Y037116D03*
X000910Y037149D03*
X000910Y037183D03*
X000910Y037216D03*
X000910Y037249D03*
X000910Y037282D03*
X000910Y037316D03*
X000910Y037349D03*
X000910Y037382D03*
X000910Y037415D03*
X000910Y037449D03*
X000910Y037482D03*
X000910Y037515D03*
X000910Y037548D03*
X000910Y037581D03*
X000910Y037615D03*
X000910Y037648D03*
X000910Y037681D03*
X000910Y037714D03*
X000910Y037748D03*
X000910Y037781D03*
X000910Y037814D03*
X000910Y037847D03*
X000910Y037880D03*
X000910Y037914D03*
X000910Y037947D03*
X000910Y037980D03*
X000910Y038013D03*
X000910Y038047D03*
X000910Y038080D03*
X000910Y038113D03*
X000910Y038146D03*
X000910Y038180D03*
X000910Y038213D03*
X000910Y038246D03*
X000910Y038279D03*
X000910Y038312D03*
X000910Y038346D03*
X000910Y038379D03*
X000910Y038412D03*
X000910Y038445D03*
X000910Y038479D03*
X000910Y038512D03*
X000910Y038545D03*
X000910Y038578D03*
X000910Y038611D03*
X000910Y038645D03*
X000910Y038678D03*
X000910Y038711D03*
X000910Y038744D03*
X000910Y038778D03*
X000910Y038811D03*
X000910Y038844D03*
X000910Y038877D03*
X000910Y038911D03*
X000910Y038944D03*
X000910Y038977D03*
X000910Y039010D03*
X000910Y039043D03*
X000910Y039077D03*
X000910Y039110D03*
X000910Y039143D03*
X000910Y039176D03*
X000910Y039210D03*
X000910Y039243D03*
X000910Y039276D03*
X000910Y039309D03*
X000910Y039343D03*
X000910Y039376D03*
X000910Y039409D03*
X000910Y039442D03*
X000910Y039475D03*
X000910Y039509D03*
X000910Y039542D03*
X000910Y039575D03*
X000910Y039608D03*
X000910Y039642D03*
X000910Y039675D03*
X000910Y039708D03*
X000910Y039741D03*
X000910Y039774D03*
X000910Y039808D03*
X000910Y039841D03*
X000910Y039874D03*
X000910Y039907D03*
X000910Y039941D03*
X000910Y039974D03*
X000910Y040007D03*
X000910Y040040D03*
X000910Y040074D03*
X000910Y040107D03*
X000910Y040140D03*
X000910Y040173D03*
X000910Y040206D03*
X000910Y040240D03*
X000910Y040273D03*
X000910Y040306D03*
X000910Y040339D03*
X000910Y040373D03*
X000910Y040406D03*
X000910Y040439D03*
X000910Y040472D03*
X000910Y040506D03*
X000910Y040539D03*
X000910Y040572D03*
X000910Y040605D03*
X000910Y040638D03*
X000910Y040672D03*
X000910Y040705D03*
X000910Y040738D03*
X000910Y040771D03*
X000910Y040805D03*
X000910Y040838D03*
X000910Y040871D03*
X000910Y040904D03*
X000910Y040937D03*
X000910Y040971D03*
X000910Y041004D03*
X000910Y041037D03*
X000910Y041070D03*
X000910Y041104D03*
X000910Y041137D03*
X000910Y041170D03*
X000910Y041203D03*
X000910Y041237D03*
X000910Y041270D03*
X000910Y041303D03*
X000910Y041336D03*
X000910Y041369D03*
X000910Y041403D03*
X000910Y041436D03*
X000910Y041469D03*
X000910Y041502D03*
X000910Y041536D03*
X000910Y041569D03*
X000910Y041602D03*
X000910Y041635D03*
X000910Y041669D03*
X000910Y041702D03*
X000910Y041735D03*
X000910Y041768D03*
X000910Y041801D03*
X000910Y041835D03*
X000910Y041868D03*
X000910Y041901D03*
X000910Y041934D03*
X000910Y041968D03*
X000910Y042001D03*
X000910Y042034D03*
X000910Y042067D03*
X000910Y042100D03*
X000910Y042134D03*
X000910Y042167D03*
X000910Y042200D03*
X000910Y042233D03*
X000910Y042267D03*
X000910Y042300D03*
X000910Y042333D03*
X000910Y042366D03*
X000910Y042400D03*
X000910Y042433D03*
X000910Y042466D03*
X000910Y042499D03*
X000910Y042532D03*
X000910Y042566D03*
X000910Y042599D03*
X000910Y042632D03*
X000910Y042665D03*
X000910Y042699D03*
X000910Y042732D03*
X000910Y042765D03*
X000910Y042798D03*
X000910Y042831D03*
X000910Y042865D03*
X000910Y042898D03*
X000910Y042931D03*
X000910Y042964D03*
X000910Y042998D03*
X000910Y043031D03*
X000910Y043064D03*
X000910Y043097D03*
X000910Y043131D03*
X000910Y043164D03*
X000910Y043197D03*
X000910Y043230D03*
X000910Y043263D03*
X000910Y043297D03*
X000910Y043330D03*
X000910Y043363D03*
X000910Y043396D03*
X000910Y043430D03*
X000910Y043463D03*
X000910Y043496D03*
X000910Y043529D03*
X000910Y043563D03*
X000910Y043596D03*
X000910Y043629D03*
X000910Y043662D03*
X000910Y043695D03*
X000910Y043729D03*
X000910Y043762D03*
X000910Y043795D03*
X000910Y043828D03*
X000910Y043862D03*
X000910Y043895D03*
X000910Y043928D03*
X000910Y043961D03*
X000910Y043994D03*
X000910Y044028D03*
X000910Y044061D03*
X000910Y044094D03*
X000910Y044127D03*
X000910Y044161D03*
X000910Y044194D03*
X000910Y044227D03*
X000910Y044260D03*
X000910Y044294D03*
X000910Y044327D03*
X000910Y044360D03*
X000910Y044393D03*
X000910Y044426D03*
X000910Y044460D03*
X000910Y044493D03*
X000910Y044526D03*
X000910Y044559D03*
X000910Y044593D03*
X000910Y044626D03*
X000910Y044659D03*
X000910Y044692D03*
X000910Y044726D03*
X000910Y044759D03*
X000910Y044792D03*
X000910Y044825D03*
X000910Y044858D03*
X000910Y044892D03*
X000910Y044925D03*
X000910Y044958D03*
X000910Y044991D03*
X000910Y045025D03*
X000910Y045058D03*
X000910Y045091D03*
X000910Y045124D03*
X000910Y045157D03*
X000910Y045191D03*
X000910Y045224D03*
X000910Y045257D03*
X000910Y045290D03*
X000910Y045324D03*
X000910Y045357D03*
X000910Y045390D03*
X000910Y045423D03*
X000910Y045457D03*
X000910Y045490D03*
X000910Y045523D03*
X000910Y045556D03*
X000910Y045589D03*
X000910Y045623D03*
X000910Y045656D03*
X000910Y045689D03*
X000910Y045722D03*
X000910Y045756D03*
X000910Y045789D03*
X000910Y045822D03*
X000910Y045855D03*
X000910Y045889D03*
X000910Y045922D03*
X000910Y045955D03*
X000910Y045988D03*
X000910Y046021D03*
X000910Y046055D03*
X000910Y046088D03*
X000910Y046121D03*
X000910Y046154D03*
X000910Y046188D03*
X000910Y046221D03*
X000910Y046254D03*
X000910Y046287D03*
X000910Y046320D03*
X000910Y046354D03*
X000910Y046387D03*
X000910Y046420D03*
X000910Y046453D03*
X000910Y046487D03*
X000910Y046520D03*
X000910Y046553D03*
X000910Y046586D03*
X000910Y046620D03*
X000910Y046653D03*
X000910Y046686D03*
X000910Y046719D03*
X000910Y046752D03*
X000910Y046786D03*
X000910Y046819D03*
X000910Y046852D03*
X000910Y046885D03*
X000910Y046919D03*
X000910Y046952D03*
X000910Y046985D03*
X000910Y047018D03*
X000910Y047051D03*
X000910Y047085D03*
X000943Y047218D03*
X000943Y047251D03*
X000943Y047284D03*
X000943Y047317D03*
X000976Y047384D03*
X000976Y047417D03*
X000976Y047450D03*
X000976Y047483D03*
X001010Y047517D03*
X001010Y047550D03*
X001010Y047583D03*
X001043Y047616D03*
X001043Y047650D03*
X001076Y047716D03*
X001109Y047783D03*
X001142Y047849D03*
X001176Y047915D03*
X001242Y048015D03*
X007223Y048347D03*
X007290Y048248D03*
X007323Y048181D03*
X007323Y048148D03*
X007356Y048115D03*
X007356Y048082D03*
X007389Y048048D03*
X007389Y048015D03*
X007423Y047949D03*
X007456Y047882D03*
X007489Y047816D03*
X007522Y047749D03*
X007556Y047683D03*
X007589Y047616D03*
X007589Y047583D03*
X007622Y047550D03*
X007622Y047517D03*
X007655Y047483D03*
X007655Y047450D03*
X007688Y047384D03*
X007722Y047317D03*
X007755Y047251D03*
X007788Y047184D03*
X007821Y047118D03*
X007855Y047051D03*
X007855Y047018D03*
X007888Y046985D03*
X007888Y046952D03*
X007921Y046919D03*
X007921Y046885D03*
X007954Y046852D03*
X007954Y046819D03*
X007987Y046752D03*
X008021Y046686D03*
X008054Y046620D03*
X008087Y046553D03*
X008120Y046487D03*
X008154Y046420D03*
X008154Y046387D03*
X008187Y046354D03*
X008187Y046320D03*
X008220Y046287D03*
X008220Y046254D03*
X008253Y046188D03*
X008287Y046121D03*
X008320Y046055D03*
X008353Y045988D03*
X008386Y045922D03*
X008419Y045855D03*
X008419Y045822D03*
X008453Y045789D03*
X008453Y045756D03*
X008486Y045722D03*
X008486Y045689D03*
X008519Y045623D03*
X008552Y045556D03*
X008586Y045490D03*
X008619Y045423D03*
X008652Y045357D03*
X008685Y045290D03*
X008719Y045224D03*
X008719Y045191D03*
X008752Y045157D03*
X008752Y045124D03*
X008785Y045091D03*
X008785Y045058D03*
X008818Y044991D03*
X008851Y044925D03*
X008885Y044858D03*
X008918Y044792D03*
X008951Y044726D03*
X008984Y044659D03*
X008984Y044626D03*
X009018Y044593D03*
X009018Y044559D03*
X009051Y044526D03*
X009084Y044460D03*
X021379Y044426D03*
X021445Y044526D03*
X021445Y044559D03*
X021478Y044593D03*
X021478Y044626D03*
X021511Y044659D03*
X021511Y044692D03*
X021545Y044726D03*
X021545Y044759D03*
X021578Y044825D03*
X021611Y044892D03*
X021644Y044958D03*
X021678Y045025D03*
X021711Y045091D03*
X021744Y045157D03*
X021744Y045191D03*
X021777Y045224D03*
X021777Y045257D03*
X021810Y045290D03*
X021810Y045324D03*
X021844Y045390D03*
X021877Y045457D03*
X021910Y045523D03*
X021943Y045589D03*
X021977Y045656D03*
X022010Y045722D03*
X022010Y045756D03*
X022043Y045789D03*
X022043Y045822D03*
X022076Y045855D03*
X022076Y045889D03*
X022110Y045922D03*
X022110Y045955D03*
X022143Y046021D03*
X022176Y046088D03*
X022209Y046154D03*
X022242Y046221D03*
X022276Y046287D03*
X022309Y046354D03*
X022309Y046387D03*
X022342Y046420D03*
X022342Y046453D03*
X022375Y046487D03*
X022375Y046520D03*
X022409Y046586D03*
X022442Y046653D03*
X022475Y046719D03*
X022508Y046786D03*
X022541Y046852D03*
X022575Y046919D03*
X022575Y046952D03*
X022608Y046985D03*
X022608Y047018D03*
X022641Y047051D03*
X022641Y047085D03*
X022674Y047151D03*
X022708Y047218D03*
X022741Y047284D03*
X022774Y047351D03*
X022807Y047417D03*
X022841Y047483D03*
X022841Y047517D03*
X022874Y047550D03*
X022874Y047583D03*
X022907Y047616D03*
X022907Y047650D03*
X022940Y047683D03*
X022940Y047716D03*
X022973Y047783D03*
X023007Y047849D03*
X023040Y047915D03*
X023073Y047982D03*
X023106Y048048D03*
X023140Y048115D03*
X029287Y047949D03*
X029320Y047882D03*
X029353Y047816D03*
X029387Y047749D03*
X029420Y047683D03*
X029420Y047650D03*
X029453Y047616D03*
X029453Y047583D03*
X029453Y047550D03*
X029486Y047517D03*
X029486Y047483D03*
X029486Y047450D03*
X029519Y047417D03*
X029519Y047384D03*
X029519Y047351D03*
X029519Y047317D03*
X029553Y047251D03*
X029553Y047218D03*
X029553Y047184D03*
X029553Y047151D03*
X029553Y047118D03*
X029553Y031800D03*
X029553Y031766D03*
X029553Y031733D03*
X029553Y031700D03*
X029553Y031667D03*
X029553Y031634D03*
X029553Y031600D03*
X029519Y031467D03*
X029519Y031434D03*
X029519Y031401D03*
X029519Y031368D03*
X029486Y031301D03*
X029486Y031268D03*
X029486Y031235D03*
X029486Y031202D03*
X029453Y031135D03*
X029453Y031102D03*
X029453Y031069D03*
X029420Y031002D03*
X029420Y030969D03*
X029420Y030936D03*
X029387Y030903D03*
X029387Y030869D03*
X029387Y030836D03*
X029353Y030803D03*
X029353Y030770D03*
X029353Y030736D03*
X029320Y030703D03*
X029320Y030670D03*
X029320Y030637D03*
X029287Y030603D03*
X029287Y030570D03*
X029254Y030504D03*
X029220Y030437D03*
X029220Y030404D03*
X029187Y030371D03*
X029187Y030338D03*
X029154Y030304D03*
X029154Y030271D03*
X029121Y030205D03*
X029087Y030138D03*
X029054Y030105D03*
X029054Y030072D03*
X029021Y030039D03*
X029021Y030005D03*
X028988Y029972D03*
X028988Y029939D03*
X028955Y029906D03*
X028955Y029872D03*
X028921Y029839D03*
X028921Y029806D03*
X028888Y029773D03*
X028888Y029740D03*
X028855Y029706D03*
X028855Y029673D03*
X028822Y029640D03*
X028822Y029607D03*
X028788Y029573D03*
X028788Y029540D03*
X028755Y029507D03*
X028755Y029474D03*
X028722Y029440D03*
X028722Y029407D03*
X028689Y029374D03*
X028689Y029341D03*
X028656Y029308D03*
X028656Y029274D03*
X028622Y029241D03*
X028622Y029208D03*
X028589Y029175D03*
X028556Y029108D03*
X028523Y029042D03*
X028489Y028975D03*
X028456Y028909D03*
X028423Y028842D03*
X028390Y028776D03*
X028356Y028709D03*
X028323Y028643D03*
X028290Y028577D03*
X028257Y028510D03*
X028224Y028444D03*
X028190Y028377D03*
X028157Y028311D03*
X028124Y028244D03*
X028091Y028178D03*
X028057Y028111D03*
X028024Y028045D03*
X027991Y027978D03*
X027958Y027912D03*
X027924Y027846D03*
X027891Y027779D03*
X027858Y027713D03*
X027825Y027646D03*
X027792Y027580D03*
X027758Y027513D03*
X027725Y027447D03*
X027692Y027380D03*
X027659Y027314D03*
X027625Y027247D03*
X027592Y027181D03*
X027559Y027114D03*
X027559Y027081D03*
X027526Y027048D03*
X027526Y027015D03*
X027493Y026948D03*
X027493Y026915D03*
X027459Y026882D03*
X027459Y026849D03*
X027426Y026782D03*
X027426Y026749D03*
X027393Y026716D03*
X027393Y026683D03*
X027393Y026649D03*
X027393Y026616D03*
X027360Y026583D03*
X027360Y026550D03*
X027360Y026516D03*
X027326Y026483D03*
X027326Y026450D03*
X027326Y026417D03*
X027326Y026383D03*
X027293Y026317D03*
X027293Y026284D03*
X027293Y026251D03*
X027293Y026217D03*
X027260Y026151D03*
X027260Y026118D03*
X027260Y026084D03*
X027260Y026051D03*
X027260Y026018D03*
X027227Y025918D03*
X027227Y025885D03*
X027227Y025852D03*
X027227Y025819D03*
X027227Y025785D03*
X027227Y025752D03*
X027227Y025719D03*
X027227Y025686D03*
X027193Y004320D03*
X027193Y004287D03*
X027193Y004253D03*
X027193Y004220D03*
X027193Y004187D03*
X027160Y004120D03*
X027160Y004087D03*
X027160Y004054D03*
X027160Y004021D03*
X027127Y003988D03*
X027127Y003954D03*
X027127Y003921D03*
X027127Y003888D03*
X027094Y003855D03*
X027094Y003821D03*
X027094Y003788D03*
X027061Y003755D03*
X027061Y003722D03*
X027027Y003655D03*
X026994Y003589D03*
X026961Y003522D03*
X026928Y003456D03*
X026894Y003389D03*
X003601Y003356D03*
X003568Y003423D03*
X003535Y003489D03*
X003502Y003556D03*
X003468Y003622D03*
X003435Y003689D03*
X003435Y003722D03*
X003402Y003755D03*
X003402Y003788D03*
X003402Y003821D03*
D25*
X003319Y004087D03*
X003286Y004253D03*
X003286Y004287D03*
X003286Y004320D03*
X003252Y025752D03*
X003252Y025785D03*
X003252Y025819D03*
X003252Y025852D03*
X003252Y025885D03*
X003219Y026084D03*
X003219Y026118D03*
X003186Y026284D03*
X001026Y031102D03*
X000993Y031235D03*
X000993Y031268D03*
X000960Y031434D03*
X000960Y031467D03*
X000926Y031667D03*
X000926Y031700D03*
X000926Y031733D03*
X000926Y031766D03*
X000926Y031800D03*
X000926Y047118D03*
X000926Y047151D03*
X000926Y047184D03*
X000960Y047351D03*
X027310Y026350D03*
X027277Y026184D03*
X027243Y025985D03*
X027243Y025951D03*
X027210Y025652D03*
X027210Y025619D03*
X027210Y025586D03*
X027210Y025553D03*
X027210Y025520D03*
X027210Y025486D03*
X027210Y025453D03*
X027210Y025420D03*
X027210Y025387D03*
X027210Y025353D03*
X027210Y025320D03*
X027210Y025287D03*
X027210Y025254D03*
X027210Y025220D03*
X027210Y025187D03*
X027210Y025154D03*
X027210Y025121D03*
X027210Y025088D03*
X027210Y025054D03*
X027210Y025021D03*
X027210Y024988D03*
X027210Y024955D03*
X027210Y024921D03*
X027210Y024888D03*
X027210Y024855D03*
X027210Y024822D03*
X027210Y024789D03*
X027210Y024755D03*
X027210Y024722D03*
X027210Y024689D03*
X027210Y024656D03*
X027210Y024622D03*
X027210Y024589D03*
X027210Y024556D03*
X027210Y024523D03*
X027210Y024489D03*
X027210Y024456D03*
X027210Y024423D03*
X027210Y024390D03*
X027210Y024357D03*
X027210Y024323D03*
X027210Y024290D03*
X027210Y024257D03*
X027210Y024224D03*
X027210Y024190D03*
X027210Y024157D03*
X027210Y024124D03*
X027210Y024091D03*
X027210Y024057D03*
X027210Y024024D03*
X027210Y023991D03*
X027210Y023958D03*
X027210Y023925D03*
X027210Y023891D03*
X027210Y023858D03*
X027210Y023825D03*
X027210Y023792D03*
X027210Y023758D03*
X027210Y023725D03*
X027210Y023692D03*
X027210Y023659D03*
X027210Y023626D03*
X027210Y023592D03*
X027210Y023559D03*
X027210Y023526D03*
X027210Y023493D03*
X027210Y023459D03*
X027210Y023426D03*
X027210Y023393D03*
X027210Y023360D03*
X027210Y023326D03*
X027210Y023293D03*
X027210Y023260D03*
X027210Y023227D03*
X027210Y023194D03*
X027210Y023160D03*
X027210Y023127D03*
X027210Y023094D03*
X027210Y023061D03*
X027210Y023027D03*
X027210Y022994D03*
X027210Y022961D03*
X027210Y022928D03*
X027210Y022894D03*
X027210Y022861D03*
X027210Y022828D03*
X027210Y022795D03*
X027210Y022762D03*
X027210Y022728D03*
X027210Y022695D03*
X027210Y022662D03*
X027210Y022629D03*
X027210Y022595D03*
X027210Y022562D03*
X027210Y022529D03*
X027210Y022496D03*
X027210Y022463D03*
X027210Y022429D03*
X027210Y022396D03*
X027210Y022363D03*
X027210Y022330D03*
X027210Y022296D03*
X027210Y022263D03*
X027210Y022230D03*
X027210Y022197D03*
X027210Y022163D03*
X027210Y022130D03*
X027210Y022097D03*
X027210Y022064D03*
X027210Y022031D03*
X027210Y021997D03*
X027210Y021964D03*
X027210Y021931D03*
X027210Y021898D03*
X027210Y021864D03*
X027210Y021831D03*
X027210Y021798D03*
X027210Y021765D03*
X027210Y021731D03*
X027210Y021698D03*
X027210Y021665D03*
X027210Y021632D03*
X027210Y021599D03*
X027210Y021565D03*
X027210Y021532D03*
X027210Y021499D03*
X027210Y021466D03*
X027210Y021432D03*
X027210Y021399D03*
X027210Y021366D03*
X027210Y021333D03*
X027210Y021300D03*
X027210Y021266D03*
X027210Y021233D03*
X027210Y021200D03*
X027210Y021167D03*
X027210Y021133D03*
X027210Y021100D03*
X027210Y021067D03*
X027210Y021034D03*
X027210Y021000D03*
X027210Y020967D03*
X027210Y020934D03*
X027210Y020901D03*
X027210Y020868D03*
X027210Y020834D03*
X027210Y020801D03*
X027210Y020768D03*
X027210Y020735D03*
X027210Y020701D03*
X027210Y020668D03*
X027210Y020635D03*
X027210Y020602D03*
X027210Y020569D03*
X027210Y020535D03*
X027210Y020502D03*
X027210Y020469D03*
X027210Y020436D03*
X027210Y020402D03*
X027210Y020369D03*
X027210Y020336D03*
X027210Y020303D03*
X027210Y020269D03*
X027210Y020236D03*
X027210Y020203D03*
X027210Y020170D03*
X027210Y020137D03*
X027210Y020103D03*
X027210Y020070D03*
X027210Y020037D03*
X027210Y020004D03*
X027210Y019970D03*
X027210Y019937D03*
X027210Y019904D03*
X027210Y019871D03*
X027210Y019837D03*
X027210Y019804D03*
X027210Y019771D03*
X027210Y019738D03*
X027210Y019705D03*
X027210Y019671D03*
X027210Y019638D03*
X027210Y019605D03*
X027210Y019572D03*
X027210Y019538D03*
X027210Y019505D03*
X027210Y019472D03*
X027210Y019439D03*
X027210Y019406D03*
X027210Y019372D03*
X027210Y019339D03*
X027210Y019306D03*
X027210Y019273D03*
X027210Y019239D03*
X027210Y019206D03*
X027210Y019173D03*
X027210Y019140D03*
X027210Y019106D03*
X027210Y019073D03*
X027210Y019040D03*
X027210Y019007D03*
X027210Y018974D03*
X027210Y018940D03*
X027210Y018907D03*
X027210Y018874D03*
X027210Y018841D03*
X027210Y018807D03*
X027210Y018774D03*
X027210Y018741D03*
X027210Y018708D03*
X027210Y018674D03*
X027210Y018641D03*
X027210Y018608D03*
X027210Y018575D03*
X027210Y018542D03*
X027210Y018508D03*
X027210Y018475D03*
X027210Y018442D03*
X027210Y018409D03*
X027210Y018375D03*
X027210Y018342D03*
X027210Y018309D03*
X027210Y018276D03*
X027210Y018243D03*
X027210Y018209D03*
X027210Y018176D03*
X027210Y018143D03*
X027210Y018110D03*
X027210Y018076D03*
X027210Y018043D03*
X027210Y018010D03*
X027210Y017977D03*
X027210Y017943D03*
X027210Y017910D03*
X027210Y017877D03*
X027210Y017844D03*
X027210Y017811D03*
X027210Y017777D03*
X027210Y017744D03*
X027210Y017711D03*
X027210Y017678D03*
X027210Y017644D03*
X027210Y017611D03*
X027210Y017578D03*
X027210Y017545D03*
X027210Y017511D03*
X027210Y017478D03*
X027210Y017445D03*
X027210Y017412D03*
X027210Y017379D03*
X027210Y017345D03*
X027210Y017312D03*
X027210Y017279D03*
X027210Y017246D03*
X027210Y017212D03*
X027210Y017179D03*
X027210Y017146D03*
X027210Y017113D03*
X027210Y017080D03*
X027210Y017046D03*
X027210Y017013D03*
X027210Y016980D03*
X027210Y016947D03*
X027210Y016913D03*
X027210Y016880D03*
X027210Y016847D03*
X027210Y016814D03*
X027210Y016780D03*
X027210Y016747D03*
X027210Y016714D03*
X027210Y016681D03*
X027210Y016648D03*
X027210Y016614D03*
X027210Y016581D03*
X027210Y016548D03*
X027210Y016515D03*
X027210Y016481D03*
X027210Y016448D03*
X027210Y016415D03*
X027210Y016382D03*
X027210Y016349D03*
X027210Y016315D03*
X027210Y016282D03*
X027210Y016249D03*
X027210Y016216D03*
X027210Y016182D03*
X027210Y016149D03*
X027210Y016116D03*
X027210Y016083D03*
X027210Y016049D03*
X027210Y016016D03*
X027210Y015983D03*
X027210Y015950D03*
X027210Y015917D03*
X027210Y015883D03*
X027210Y015850D03*
X027210Y015817D03*
X027210Y015784D03*
X027210Y015750D03*
X027210Y015717D03*
X027210Y015684D03*
X027210Y015651D03*
X027210Y015617D03*
X027210Y015584D03*
X027210Y015551D03*
X027210Y015518D03*
X027210Y015485D03*
X027210Y015451D03*
X027210Y015418D03*
X027210Y015385D03*
X027210Y015352D03*
X027210Y015318D03*
X027210Y015285D03*
X027210Y015252D03*
X027210Y015219D03*
X027210Y015186D03*
X027210Y015152D03*
X027210Y015119D03*
X027210Y015086D03*
X027210Y015053D03*
X027210Y015019D03*
X027210Y014986D03*
X027210Y014953D03*
X027210Y014920D03*
X027210Y014886D03*
X027210Y014853D03*
X027210Y014820D03*
X027210Y014787D03*
X027210Y014754D03*
X027210Y014720D03*
X027210Y014687D03*
X027210Y014654D03*
X027210Y014621D03*
X027210Y014587D03*
X027210Y014554D03*
X027210Y014521D03*
X027210Y014488D03*
X027210Y014454D03*
X027210Y014421D03*
X027210Y014388D03*
X027210Y014355D03*
X027210Y014322D03*
X027210Y014288D03*
X027210Y014255D03*
X027210Y014222D03*
X027210Y014189D03*
X027210Y014155D03*
X027210Y014122D03*
X027210Y014089D03*
X027210Y014056D03*
X027210Y014023D03*
X027210Y013989D03*
X027210Y013956D03*
X027210Y013923D03*
X027210Y013890D03*
X027210Y013856D03*
X027210Y013823D03*
X027210Y013790D03*
X027210Y013757D03*
X027210Y013723D03*
X027210Y013690D03*
X027210Y013657D03*
X027210Y013624D03*
X027210Y013591D03*
X027210Y013557D03*
X027210Y013524D03*
X027210Y013491D03*
X027210Y013458D03*
X027210Y013424D03*
X027210Y013391D03*
X027210Y013358D03*
X027210Y013325D03*
X027210Y013291D03*
X027210Y013258D03*
X027210Y013225D03*
X027210Y013192D03*
X027210Y013159D03*
X027210Y013125D03*
X027210Y013092D03*
X027210Y013059D03*
X027210Y013026D03*
X027210Y012992D03*
X027210Y012959D03*
X027210Y012926D03*
X027210Y012893D03*
X027210Y012860D03*
X027210Y012826D03*
X027210Y012793D03*
X027210Y012760D03*
X027210Y012727D03*
X027210Y012693D03*
X027210Y012660D03*
X027210Y012627D03*
X027210Y012594D03*
X027210Y012560D03*
X027210Y012527D03*
X027210Y012494D03*
X027210Y012461D03*
X027210Y012428D03*
X027210Y012394D03*
X027210Y012361D03*
X027210Y012328D03*
X027210Y012295D03*
X027210Y012261D03*
X027210Y012228D03*
X027210Y012195D03*
X027210Y012162D03*
X027210Y012129D03*
X027210Y012095D03*
X027210Y012062D03*
X027210Y012029D03*
X027210Y011996D03*
X027210Y011962D03*
X027210Y011929D03*
X027210Y011896D03*
X027210Y011863D03*
X027210Y011829D03*
X027210Y011796D03*
X027210Y011763D03*
X027210Y011730D03*
X027210Y011697D03*
X027210Y011663D03*
X027210Y011630D03*
X027210Y011597D03*
X027210Y011564D03*
X027210Y011530D03*
X027210Y011497D03*
X027210Y011464D03*
X027210Y011431D03*
X027210Y011397D03*
X027210Y011364D03*
X027210Y011331D03*
X027210Y011298D03*
X027210Y011265D03*
X027210Y011231D03*
X027210Y011198D03*
X027210Y011165D03*
X027210Y011132D03*
X027210Y011098D03*
X027210Y011065D03*
X027210Y011032D03*
X027210Y010999D03*
X027210Y010966D03*
X027210Y010932D03*
X027210Y010899D03*
X027210Y010866D03*
X027210Y010833D03*
X027210Y010799D03*
X027210Y010766D03*
X027210Y010733D03*
X027210Y010700D03*
X027210Y010666D03*
X027210Y010633D03*
X027210Y010600D03*
X027210Y010567D03*
X027210Y010534D03*
X027210Y010500D03*
X027210Y010467D03*
X027210Y010434D03*
X027210Y010401D03*
X027210Y010367D03*
X027210Y010334D03*
X027210Y010301D03*
X027210Y010268D03*
X027210Y010234D03*
X027210Y010201D03*
X027210Y010168D03*
X027210Y010135D03*
X027210Y010102D03*
X027210Y010068D03*
X027210Y010035D03*
X027210Y010002D03*
X027210Y009969D03*
X027210Y009935D03*
X027210Y009902D03*
X027210Y009869D03*
X027210Y009836D03*
X027210Y009803D03*
X027210Y009769D03*
X027210Y009736D03*
X027210Y009703D03*
X027210Y009670D03*
X027210Y009636D03*
X027210Y009603D03*
X027210Y009570D03*
X027210Y009537D03*
X027210Y009503D03*
X027210Y009470D03*
X027210Y009437D03*
X027210Y009404D03*
X027210Y009371D03*
X027210Y009337D03*
X027210Y009304D03*
X027210Y009271D03*
X027210Y009238D03*
X027210Y009204D03*
X027210Y009171D03*
X027210Y009138D03*
X027210Y009105D03*
X027210Y009071D03*
X027210Y009038D03*
X027210Y009005D03*
X027210Y008972D03*
X027210Y008939D03*
X027210Y008905D03*
X027210Y008872D03*
X027210Y008839D03*
X027210Y008806D03*
X027210Y008772D03*
X027210Y008739D03*
X027210Y008706D03*
X027210Y008673D03*
X027210Y008640D03*
X027210Y008606D03*
X027210Y008573D03*
X027210Y008540D03*
X027210Y008507D03*
X027210Y008473D03*
X027210Y008440D03*
X027210Y008407D03*
X027210Y008374D03*
X027210Y008340D03*
X027210Y008307D03*
X027210Y008274D03*
X027210Y008241D03*
X027210Y008208D03*
X027210Y008174D03*
X027210Y008141D03*
X027210Y008108D03*
X027210Y008075D03*
X027210Y008041D03*
X027210Y008008D03*
X027210Y007975D03*
X027210Y007942D03*
X027210Y007909D03*
X027210Y007875D03*
X027210Y007842D03*
X027210Y007809D03*
X027210Y007776D03*
X027210Y007742D03*
X027210Y007709D03*
X027210Y007676D03*
X027210Y007643D03*
X027210Y007609D03*
X027210Y007576D03*
X027210Y007543D03*
X027210Y007510D03*
X027210Y007477D03*
X027210Y007443D03*
X027210Y007410D03*
X027210Y007377D03*
X027210Y007344D03*
X027210Y007310D03*
X027210Y007277D03*
X027210Y007244D03*
X027210Y007211D03*
X027210Y007177D03*
X027210Y007144D03*
X027210Y007111D03*
X027210Y007078D03*
X027210Y007045D03*
X027210Y007011D03*
X027210Y006978D03*
X027210Y006945D03*
X027210Y006912D03*
X027210Y006878D03*
X027210Y006845D03*
X027210Y006812D03*
X027210Y006779D03*
X027210Y006746D03*
X027210Y006712D03*
X027210Y006679D03*
X027210Y006646D03*
X027210Y006613D03*
X027210Y006579D03*
X027210Y006546D03*
X027210Y006513D03*
X027210Y006480D03*
X027210Y006446D03*
X027210Y006413D03*
X027210Y006380D03*
X027210Y006347D03*
X027210Y006314D03*
X027210Y006280D03*
X027210Y006247D03*
X027210Y006214D03*
X027210Y006181D03*
X027210Y006147D03*
X027210Y006114D03*
X027210Y006081D03*
X027210Y006048D03*
X027210Y006014D03*
X027210Y005981D03*
X027210Y005948D03*
X027210Y005915D03*
X027210Y005882D03*
X027210Y005848D03*
X027210Y005815D03*
X027210Y005782D03*
X027210Y005749D03*
X027210Y005715D03*
X027210Y005682D03*
X027210Y005649D03*
X027210Y005616D03*
X027210Y005583D03*
X027210Y005549D03*
X027210Y005516D03*
X027210Y005483D03*
X027210Y005450D03*
X027210Y005416D03*
X027210Y005383D03*
X027210Y005350D03*
X027210Y005317D03*
X027210Y005283D03*
X027210Y005250D03*
X027210Y005217D03*
X027210Y005184D03*
X027210Y005151D03*
X027210Y005117D03*
X027210Y005084D03*
X027210Y005051D03*
X027210Y005018D03*
X027210Y004984D03*
X027210Y004951D03*
X027210Y004918D03*
X027210Y004885D03*
X027210Y004851D03*
X027210Y004818D03*
X027210Y004785D03*
X027210Y004752D03*
X027210Y004719D03*
X027210Y004685D03*
X027210Y004652D03*
X027210Y004619D03*
X027210Y004586D03*
X027210Y004552D03*
X027210Y004519D03*
X027210Y004486D03*
X027210Y004453D03*
X027210Y004420D03*
X027210Y004386D03*
X027210Y004353D03*
X027177Y004154D03*
X029436Y031035D03*
X029470Y031168D03*
X029503Y031334D03*
X029536Y031501D03*
X029536Y031534D03*
X029536Y031567D03*
X029569Y031833D03*
X029569Y031866D03*
X029569Y031899D03*
X029569Y031933D03*
X029569Y031966D03*
X029569Y031999D03*
X029569Y032032D03*
X029569Y032066D03*
X029569Y032099D03*
X029569Y032132D03*
X029569Y032165D03*
X029569Y032198D03*
X029569Y032232D03*
X029569Y032265D03*
X029569Y032298D03*
X029569Y032331D03*
X029569Y032365D03*
X029569Y032398D03*
X029569Y032431D03*
X029569Y032464D03*
X029569Y032497D03*
X029569Y032531D03*
X029569Y032564D03*
X029569Y032597D03*
X029569Y032630D03*
X029569Y032664D03*
X029569Y032697D03*
X029569Y032730D03*
X029569Y032763D03*
X029569Y032797D03*
X029569Y032830D03*
X029569Y032863D03*
X029569Y032896D03*
X029569Y032929D03*
X029569Y032963D03*
X029569Y032996D03*
X029569Y033029D03*
X029569Y033062D03*
X029569Y033096D03*
X029569Y033129D03*
X029569Y033162D03*
X029569Y033195D03*
X029569Y033229D03*
X029569Y033262D03*
X029569Y033295D03*
X029569Y033328D03*
X029569Y033361D03*
X029569Y033395D03*
X029569Y033428D03*
X029569Y033461D03*
X029569Y033494D03*
X029569Y033528D03*
X029569Y033561D03*
X029569Y033594D03*
X029569Y033627D03*
X029569Y033660D03*
X029569Y033694D03*
X029569Y033727D03*
X029569Y033760D03*
X029569Y033793D03*
X029569Y033827D03*
X029569Y033860D03*
X029569Y033893D03*
X029569Y033926D03*
X029569Y033960D03*
X029569Y033993D03*
X029569Y034026D03*
X029569Y034059D03*
X029569Y034092D03*
X029569Y034126D03*
X029569Y034159D03*
X029569Y034192D03*
X029569Y034225D03*
X029569Y034259D03*
X029569Y034292D03*
X029569Y034325D03*
X029569Y034358D03*
X029569Y034391D03*
X029569Y034425D03*
X029569Y034458D03*
X029569Y034491D03*
X029569Y034524D03*
X029569Y034558D03*
X029569Y034591D03*
X029569Y034624D03*
X029569Y034657D03*
X029569Y034691D03*
X029569Y034724D03*
X029569Y034757D03*
X029569Y034790D03*
X029569Y034823D03*
X029569Y034857D03*
X029569Y034890D03*
X029569Y034923D03*
X029569Y034956D03*
X029569Y034990D03*
X029569Y035023D03*
X029569Y035056D03*
X029569Y035089D03*
X029569Y035123D03*
X029569Y035156D03*
X029569Y035189D03*
X029569Y035222D03*
X029569Y035255D03*
X029569Y035289D03*
X029569Y035322D03*
X029569Y035355D03*
X029569Y035388D03*
X029569Y035422D03*
X029569Y035455D03*
X029569Y035488D03*
X029569Y035521D03*
X029569Y035554D03*
X029569Y035588D03*
X029569Y035621D03*
X029569Y035654D03*
X029569Y035687D03*
X029569Y035721D03*
X029569Y035754D03*
X029569Y035787D03*
X029569Y035820D03*
X029569Y035854D03*
X029569Y035887D03*
X029569Y035920D03*
X029569Y035953D03*
X029569Y035986D03*
X029569Y036020D03*
X029569Y036053D03*
X029569Y036086D03*
X029569Y036119D03*
X029569Y036153D03*
X029569Y036186D03*
X029569Y036219D03*
X029569Y036252D03*
X029569Y036286D03*
X029569Y036319D03*
X029569Y036352D03*
X029569Y036385D03*
X029569Y036418D03*
X029569Y036452D03*
X029569Y036485D03*
X029569Y036518D03*
X029569Y036551D03*
X029569Y036585D03*
X029569Y036618D03*
X029569Y036651D03*
X029569Y036684D03*
X029569Y036717D03*
X029569Y036751D03*
X029569Y036784D03*
X029569Y036817D03*
X029569Y036850D03*
X029569Y036884D03*
X029569Y036917D03*
X029569Y036950D03*
X029569Y036983D03*
X029569Y037017D03*
X029569Y037050D03*
X029569Y037083D03*
X029569Y037116D03*
X029569Y037149D03*
X029569Y037183D03*
X029569Y037216D03*
X029569Y037249D03*
X029569Y037282D03*
X029569Y037316D03*
X029569Y037349D03*
X029569Y037382D03*
X029569Y037415D03*
X029569Y037449D03*
X029569Y037482D03*
X029569Y037515D03*
X029569Y037548D03*
X029569Y037581D03*
X029569Y037615D03*
X029569Y037648D03*
X029569Y037681D03*
X029569Y037714D03*
X029569Y037748D03*
X029569Y037781D03*
X029569Y037814D03*
X029569Y037847D03*
X029569Y037880D03*
X029569Y037914D03*
X029569Y037947D03*
X029569Y037980D03*
X029569Y038013D03*
X029569Y038047D03*
X029569Y038080D03*
X029569Y038113D03*
X029569Y038146D03*
X029569Y038180D03*
X029569Y038213D03*
X029569Y038246D03*
X029569Y038279D03*
X029569Y038312D03*
X029569Y038346D03*
X029569Y038379D03*
X029569Y038412D03*
X029569Y038445D03*
X029569Y038479D03*
X029569Y038512D03*
X029569Y038545D03*
X029569Y038578D03*
X029569Y038611D03*
X029569Y038645D03*
X029569Y038678D03*
X029569Y038711D03*
X029569Y038744D03*
X029569Y038778D03*
X029569Y038811D03*
X029569Y038844D03*
X029569Y038877D03*
X029569Y038911D03*
X029569Y038944D03*
X029569Y038977D03*
X029569Y039010D03*
X029569Y039043D03*
X029569Y039077D03*
X029569Y039110D03*
X029569Y039143D03*
X029569Y039176D03*
X029569Y039210D03*
X029569Y039243D03*
X029569Y039276D03*
X029569Y039309D03*
X029569Y039343D03*
X029569Y039376D03*
X029569Y039409D03*
X029569Y039442D03*
X029569Y039475D03*
X029569Y039509D03*
X029569Y039542D03*
X029569Y039575D03*
X029569Y039608D03*
X029569Y039642D03*
X029569Y039675D03*
X029569Y039708D03*
X029569Y039741D03*
X029569Y039774D03*
X029569Y039808D03*
X029569Y039841D03*
X029569Y039874D03*
X029569Y039907D03*
X029569Y039941D03*
X029569Y039974D03*
X029569Y040007D03*
X029569Y040040D03*
X029569Y040074D03*
X029569Y040107D03*
X029569Y040140D03*
X029569Y040173D03*
X029569Y040206D03*
X029569Y040240D03*
X029569Y040273D03*
X029569Y040306D03*
X029569Y040339D03*
X029569Y040373D03*
X029569Y040406D03*
X029569Y040439D03*
X029569Y040472D03*
X029569Y040506D03*
X029569Y040539D03*
X029569Y040572D03*
X029569Y040605D03*
X029569Y040638D03*
X029569Y040672D03*
X029569Y040705D03*
X029569Y040738D03*
X029569Y040771D03*
X029569Y040805D03*
X029569Y040838D03*
X029569Y040871D03*
X029569Y040904D03*
X029569Y040937D03*
X029569Y040971D03*
X029569Y041004D03*
X029569Y041037D03*
X029569Y041070D03*
X029569Y041104D03*
X029569Y041137D03*
X029569Y041170D03*
X029569Y041203D03*
X029569Y041237D03*
X029569Y041270D03*
X029569Y041303D03*
X029569Y041336D03*
X029569Y041369D03*
X029569Y041403D03*
X029569Y041436D03*
X029569Y041469D03*
X029569Y041502D03*
X029569Y041536D03*
X029569Y041569D03*
X029569Y041602D03*
X029569Y041635D03*
X029569Y041669D03*
X029569Y041702D03*
X029569Y041735D03*
X029569Y041768D03*
X029569Y041801D03*
X029569Y041835D03*
X029569Y041868D03*
X029569Y041901D03*
X029569Y041934D03*
X029569Y041968D03*
X029569Y042001D03*
X029569Y042034D03*
X029569Y042067D03*
X029569Y042100D03*
X029569Y042134D03*
X029569Y042167D03*
X029569Y042200D03*
X029569Y042233D03*
X029569Y042267D03*
X029569Y042300D03*
X029569Y042333D03*
X029569Y042366D03*
X029569Y042400D03*
X029569Y042433D03*
X029569Y042466D03*
X029569Y042499D03*
X029569Y042532D03*
X029569Y042566D03*
X029569Y042599D03*
X029569Y042632D03*
X029569Y042665D03*
X029569Y042699D03*
X029569Y042732D03*
X029569Y042765D03*
X029569Y042798D03*
X029569Y042831D03*
X029569Y042865D03*
X029569Y042898D03*
X029569Y042931D03*
X029569Y042964D03*
X029569Y042998D03*
X029569Y043031D03*
X029569Y043064D03*
X029569Y043097D03*
X029569Y043131D03*
X029569Y043164D03*
X029569Y043197D03*
X029569Y043230D03*
X029569Y043263D03*
X029569Y043297D03*
X029569Y043330D03*
X029569Y043363D03*
X029569Y043396D03*
X029569Y043430D03*
X029569Y043463D03*
X029569Y043496D03*
X029569Y043529D03*
X029569Y043563D03*
X029569Y043596D03*
X029569Y043629D03*
X029569Y043662D03*
X029569Y043695D03*
X029569Y043729D03*
X029569Y043762D03*
X029569Y043795D03*
X029569Y043828D03*
X029569Y043862D03*
X029569Y043895D03*
X029569Y043928D03*
X029569Y043961D03*
X029569Y043994D03*
X029569Y044028D03*
X029569Y044061D03*
X029569Y044094D03*
X029569Y044127D03*
X029569Y044161D03*
X029569Y044194D03*
X029569Y044227D03*
X029569Y044260D03*
X029569Y044294D03*
X029569Y044327D03*
X029569Y044360D03*
X029569Y044393D03*
X029569Y044426D03*
X029569Y044460D03*
X029569Y044493D03*
X029569Y044526D03*
X029569Y044559D03*
X029569Y044593D03*
X029569Y044626D03*
X029569Y044659D03*
X029569Y044692D03*
X029569Y044726D03*
X029569Y044759D03*
X029569Y044792D03*
X029569Y044825D03*
X029569Y044858D03*
X029569Y044892D03*
X029569Y044925D03*
X029569Y044958D03*
X029569Y044991D03*
X029569Y045025D03*
X029569Y045058D03*
X029569Y045091D03*
X029569Y045124D03*
X029569Y045157D03*
X029569Y045191D03*
X029569Y045224D03*
X029569Y045257D03*
X029569Y045290D03*
X029569Y045324D03*
X029569Y045357D03*
X029569Y045390D03*
X029569Y045423D03*
X029569Y045457D03*
X029569Y045490D03*
X029569Y045523D03*
X029569Y045556D03*
X029569Y045589D03*
X029569Y045623D03*
X029569Y045656D03*
X029569Y045689D03*
X029569Y045722D03*
X029569Y045756D03*
X029569Y045789D03*
X029569Y045822D03*
X029569Y045855D03*
X029569Y045889D03*
X029569Y045922D03*
X029569Y045955D03*
X029569Y045988D03*
X029569Y046021D03*
X029569Y046055D03*
X029569Y046088D03*
X029569Y046121D03*
X029569Y046154D03*
X029569Y046188D03*
X029569Y046221D03*
X029569Y046254D03*
X029569Y046287D03*
X029569Y046320D03*
X029569Y046354D03*
X029569Y046387D03*
X029569Y046420D03*
X029569Y046453D03*
X029569Y046487D03*
X029569Y046520D03*
X029569Y046553D03*
X029569Y046586D03*
X029569Y046620D03*
X029569Y046653D03*
X029569Y046686D03*
X029569Y046719D03*
X029569Y046752D03*
X029569Y046786D03*
X029569Y046819D03*
X029569Y046852D03*
X029569Y046885D03*
X029569Y046919D03*
X029569Y046952D03*
X029569Y046985D03*
X029569Y047018D03*
X029569Y047051D03*
X029569Y047085D03*
X029536Y047284D03*
D26*
X015248Y043862D03*
D27*
X015231Y043895D03*
D28*
X015231Y043928D03*
D29*
X015248Y043961D03*
D30*
X002355Y048813D03*
D31*
X028124Y048813D03*
D32*
X004482Y048846D03*
D33*
X004482Y048879D03*
X026080Y048846D03*
D34*
X026080Y048879D03*
D35*
X004515Y048912D03*
D36*
X026080Y048912D03*
D37*
X004532Y048946D03*
D38*
X026047Y048946D03*
D39*
X028787Y038691D02*
X028789Y038718D01*
X028795Y038744D01*
X028804Y038769D01*
X028817Y038792D01*
X028833Y038813D01*
X028852Y038832D01*
X028873Y038848D01*
X028896Y038861D01*
X028921Y038870D01*
X028947Y038876D01*
X028974Y038878D01*
X029001Y038876D01*
X029027Y038870D01*
X029052Y038861D01*
X029075Y038848D01*
X029096Y038832D01*
X029115Y038813D01*
X029131Y038792D01*
X029144Y038769D01*
X029153Y038744D01*
X029159Y038718D01*
X029161Y038691D01*
X029159Y038664D01*
X029153Y038638D01*
X029144Y038613D01*
X029131Y038590D01*
X029115Y038569D01*
X029096Y038550D01*
X029075Y038534D01*
X029052Y038521D01*
X029027Y038512D01*
X029001Y038506D01*
X028974Y038504D01*
X028947Y038506D01*
X028921Y038512D01*
X028896Y038521D01*
X028873Y038534D01*
X028852Y038550D01*
X028833Y038569D01*
X028817Y038590D01*
X028804Y038613D01*
X028795Y038638D01*
X028789Y038664D01*
X028787Y038691D01*
X028787Y037786D02*
X028789Y037813D01*
X028795Y037839D01*
X028804Y037864D01*
X028817Y037887D01*
X028833Y037908D01*
X028852Y037927D01*
X028873Y037943D01*
X028896Y037956D01*
X028921Y037965D01*
X028947Y037971D01*
X028974Y037973D01*
X029001Y037971D01*
X029027Y037965D01*
X029052Y037956D01*
X029075Y037943D01*
X029096Y037927D01*
X029115Y037908D01*
X029131Y037887D01*
X029144Y037864D01*
X029153Y037839D01*
X029159Y037813D01*
X029161Y037786D01*
X029159Y037759D01*
X029153Y037733D01*
X029144Y037708D01*
X029131Y037685D01*
X029115Y037664D01*
X029096Y037645D01*
X029075Y037629D01*
X029052Y037616D01*
X029027Y037607D01*
X029001Y037601D01*
X028974Y037599D01*
X028947Y037601D01*
X028921Y037607D01*
X028896Y037616D01*
X028873Y037629D01*
X028852Y037645D01*
X028833Y037664D01*
X028817Y037685D01*
X028804Y037708D01*
X028795Y037733D01*
X028789Y037759D01*
X028787Y037786D01*
X016292Y004727D02*
X016294Y004748D01*
X016300Y004768D01*
X016309Y004788D01*
X016321Y004805D01*
X016336Y004819D01*
X016354Y004831D01*
X016374Y004839D01*
X016394Y004844D01*
X016415Y004845D01*
X016436Y004842D01*
X016456Y004836D01*
X016475Y004825D01*
X016492Y004812D01*
X016505Y004796D01*
X016516Y004778D01*
X016524Y004758D01*
X016528Y004738D01*
X016528Y004716D01*
X016524Y004696D01*
X016516Y004676D01*
X016505Y004658D01*
X016492Y004642D01*
X016475Y004629D01*
X016456Y004618D01*
X016436Y004612D01*
X016415Y004609D01*
X016394Y004610D01*
X016374Y004615D01*
X016354Y004623D01*
X016336Y004635D01*
X016321Y004649D01*
X016309Y004666D01*
X016300Y004686D01*
X016294Y004706D01*
X016292Y004727D01*
X014016Y004727D02*
X014018Y004748D01*
X014024Y004768D01*
X014033Y004788D01*
X014045Y004805D01*
X014060Y004819D01*
X014078Y004831D01*
X014098Y004839D01*
X014118Y004844D01*
X014139Y004845D01*
X014160Y004842D01*
X014180Y004836D01*
X014199Y004825D01*
X014216Y004812D01*
X014229Y004796D01*
X014240Y004778D01*
X014248Y004758D01*
X014252Y004738D01*
X014252Y004716D01*
X014248Y004696D01*
X014240Y004676D01*
X014229Y004658D01*
X014216Y004642D01*
X014199Y004629D01*
X014180Y004618D01*
X014160Y004612D01*
X014139Y004609D01*
X014118Y004610D01*
X014098Y004615D01*
X014078Y004623D01*
X014060Y004635D01*
X014045Y004649D01*
X014033Y004666D01*
X014024Y004686D01*
X014018Y004706D01*
X014016Y004727D01*
X001322Y037786D02*
X001324Y037813D01*
X001330Y037839D01*
X001339Y037864D01*
X001352Y037887D01*
X001368Y037908D01*
X001387Y037927D01*
X001408Y037943D01*
X001431Y037956D01*
X001456Y037965D01*
X001482Y037971D01*
X001509Y037973D01*
X001536Y037971D01*
X001562Y037965D01*
X001587Y037956D01*
X001610Y037943D01*
X001631Y037927D01*
X001650Y037908D01*
X001666Y037887D01*
X001679Y037864D01*
X001688Y037839D01*
X001694Y037813D01*
X001696Y037786D01*
X001694Y037759D01*
X001688Y037733D01*
X001679Y037708D01*
X001666Y037685D01*
X001650Y037664D01*
X001631Y037645D01*
X001610Y037629D01*
X001587Y037616D01*
X001562Y037607D01*
X001536Y037601D01*
X001509Y037599D01*
X001482Y037601D01*
X001456Y037607D01*
X001431Y037616D01*
X001408Y037629D01*
X001387Y037645D01*
X001368Y037664D01*
X001352Y037685D01*
X001339Y037708D01*
X001330Y037733D01*
X001324Y037759D01*
X001322Y037786D01*
X001322Y038691D02*
X001324Y038718D01*
X001330Y038744D01*
X001339Y038769D01*
X001352Y038792D01*
X001368Y038813D01*
X001387Y038832D01*
X001408Y038848D01*
X001431Y038861D01*
X001456Y038870D01*
X001482Y038876D01*
X001509Y038878D01*
X001536Y038876D01*
X001562Y038870D01*
X001587Y038861D01*
X001610Y038848D01*
X001631Y038832D01*
X001650Y038813D01*
X001666Y038792D01*
X001679Y038769D01*
X001688Y038744D01*
X001694Y038718D01*
X001696Y038691D01*
X001694Y038664D01*
X001688Y038638D01*
X001679Y038613D01*
X001666Y038590D01*
X001650Y038569D01*
X001631Y038550D01*
X001610Y038534D01*
X001587Y038521D01*
X001562Y038512D01*
X001536Y038506D01*
X001509Y038504D01*
X001482Y038506D01*
X001456Y038512D01*
X001431Y038521D01*
X001408Y038534D01*
X001387Y038550D01*
X001368Y038569D01*
X001352Y038590D01*
X001339Y038613D01*
X001330Y038638D01*
X001324Y038664D01*
X001322Y038691D01*
D40*
X001509Y038691D03*
X001509Y037786D03*
X028974Y037786D03*
X028974Y038691D03*
D41*
X016410Y004727D03*
X014134Y004727D03*
D42*
X013579Y003487D02*
X013579Y003093D01*
X016965Y003093D02*
X016965Y003487D01*
D43*
X016965Y004727D02*
X016965Y005160D01*
X013579Y005160D02*
X013579Y004727D01*
D44*
X014250Y011910D03*
X014250Y012910D03*
X014250Y013910D03*
X014250Y014910D03*
X014250Y015910D03*
X014250Y016910D03*
X014250Y017910D03*
X014250Y018910D03*
X014250Y019910D03*
X014250Y020910D03*
X014250Y021910D03*
X014250Y022910D03*
X014250Y023910D03*
X014250Y024910D03*
X014250Y025910D03*
X016250Y025910D03*
X016250Y024910D03*
X016250Y023910D03*
X016250Y022910D03*
X016250Y021910D03*
X016250Y020910D03*
X016250Y019910D03*
X016250Y018910D03*
X016250Y017910D03*
X016250Y016910D03*
X016250Y015910D03*
X016250Y014910D03*
X016250Y013910D03*
X016250Y012910D03*
X016250Y011910D03*
X021290Y011910D03*
X021290Y012910D03*
X021290Y013910D03*
X021290Y014910D03*
X021290Y015910D03*
X021290Y016910D03*
X021290Y017910D03*
X021290Y018910D03*
X021290Y019910D03*
X021290Y020910D03*
X021290Y021910D03*
X021290Y022910D03*
X021290Y023910D03*
X021290Y024910D03*
X021290Y025910D03*
X023290Y025910D03*
X023290Y024910D03*
X023290Y023910D03*
X023290Y022910D03*
X023290Y021910D03*
X023290Y020910D03*
X023290Y019910D03*
X023290Y018910D03*
X023290Y017910D03*
X023290Y016910D03*
X023290Y015910D03*
X023290Y014910D03*
X023290Y013910D03*
X023290Y012910D03*
X023290Y011910D03*
X022250Y030840D03*
X021250Y030840D03*
X020250Y030840D03*
X019250Y030840D03*
X018250Y030840D03*
X017250Y030840D03*
X016250Y030840D03*
X015250Y030840D03*
X014250Y030840D03*
X013250Y030840D03*
X012250Y030840D03*
X011250Y030840D03*
X010250Y030840D03*
X009250Y030840D03*
X008250Y030840D03*
X008250Y032840D03*
X009250Y032840D03*
X010250Y032840D03*
X011250Y032840D03*
X012250Y032840D03*
X013250Y032840D03*
X014250Y032840D03*
X015250Y032840D03*
X016250Y032840D03*
X017250Y032840D03*
X018250Y032840D03*
X019250Y032840D03*
X020250Y032840D03*
X021250Y032840D03*
X022250Y032840D03*
X009200Y025910D03*
X009200Y024910D03*
X009200Y023910D03*
X009200Y022910D03*
X009200Y021910D03*
X009200Y020910D03*
X009200Y019910D03*
X009200Y018910D03*
X009200Y017910D03*
X009200Y016910D03*
X009200Y015910D03*
X009200Y014910D03*
X009200Y013910D03*
X009200Y012910D03*
X009200Y011910D03*
X007200Y011910D03*
X007200Y012910D03*
X007200Y013910D03*
X007200Y014910D03*
X007200Y015910D03*
X007200Y016910D03*
X007200Y017910D03*
X007200Y018910D03*
X007200Y019910D03*
X007200Y020910D03*
X007200Y021910D03*
X007200Y022910D03*
X007200Y023910D03*
X007200Y024910D03*
X007200Y025910D03*
D45*
X002689Y046967D03*
X027794Y046967D03*
X025234Y003972D03*
X005266Y003972D03*
M02*
