G75*
G70*
%OFA0B0*%
%FSLAX24Y24*%
%IPPOS*%
%LPD*%
%AMOC8*
5,1,8,0,0,1.08239X$1,22.5*
%
%ADD10R,1.9505X0.0033*%
%ADD11R,2.0103X0.0033*%
%ADD12R,2.0435X0.0033*%
%ADD13R,2.0668X0.0033*%
%ADD14R,0.0532X0.0033*%
%ADD15R,0.0432X0.0033*%
%ADD16R,0.0399X0.0033*%
%ADD17R,0.0366X0.0033*%
%ADD18R,0.0332X0.0033*%
%ADD19R,0.0299X0.0033*%
%ADD20R,0.0266X0.0033*%
%ADD21R,0.0233X0.0033*%
%ADD22R,0.0199X0.0033*%
%ADD23R,0.0166X0.0033*%
%ADD24R,0.0133X0.0033*%
%ADD25R,0.0100X0.0033*%
%ADD26R,1.0733X0.0033*%
%ADD27R,1.1032X0.0033*%
%ADD28R,1.1231X0.0033*%
%ADD29R,1.1397X0.0033*%
%ADD30R,0.0498X0.0033*%
%ADD31R,0.0465X0.0033*%
%ADD32R,0.4552X0.0033*%
%ADD33R,0.4353X0.0033*%
%ADD34R,0.4154X0.0033*%
%ADD35R,0.4087X0.0033*%
%ADD36R,0.3888X0.0033*%
%ADD37R,0.3655X0.0033*%
%ADD38R,0.3423X0.0033*%
%ADD39C,0.0000*%
%ADD40C,0.0020*%
%ADD41C,0.0001*%
%ADD42C,0.0050*%
D10*
X015248Y002160D03*
D11*
X015248Y002193D03*
D12*
X015248Y002226D03*
D13*
X015231Y002260D03*
D14*
X005063Y002293D03*
X025399Y002293D03*
D15*
X025549Y002326D03*
X004947Y002326D03*
X024053Y048813D03*
D16*
X028257Y048779D03*
X006625Y048813D03*
X002239Y048779D03*
X004831Y002359D03*
D17*
X025648Y002359D03*
X025748Y002393D03*
X020830Y043994D03*
X023920Y048779D03*
X028340Y048746D03*
D18*
X028423Y048713D03*
X009649Y043994D03*
X006725Y048779D03*
X002139Y048746D03*
X004665Y002426D03*
X004731Y002393D03*
X025831Y002426D03*
D19*
X025881Y002459D03*
X004582Y002459D03*
X004515Y002492D03*
X009566Y044028D03*
X002056Y048713D03*
X001990Y048680D03*
X020897Y044028D03*
X023854Y048746D03*
D20*
X023771Y048713D03*
X023704Y048680D03*
X023605Y048613D03*
X020980Y044061D03*
X028489Y048680D03*
X028556Y048646D03*
X028622Y048613D03*
X009516Y044061D03*
X009450Y044094D03*
X006858Y048713D03*
X006791Y048746D03*
X001940Y048646D03*
X001873Y048613D03*
X004299Y002625D03*
X004399Y002559D03*
X004465Y002526D03*
X025964Y002492D03*
X026030Y002526D03*
X026130Y002592D03*
D21*
X026080Y002559D03*
X026180Y002625D03*
X026246Y002658D03*
X026280Y002692D03*
X026313Y002725D03*
X004349Y002592D03*
X004249Y002658D03*
X004216Y002692D03*
X004116Y002758D03*
X004083Y002791D03*
X009400Y044127D03*
X006941Y048646D03*
X006908Y048680D03*
X001824Y048580D03*
X001757Y048547D03*
X001724Y048514D03*
X001624Y048447D03*
X001591Y048414D03*
X001558Y048381D03*
X021030Y044094D03*
X021096Y044127D03*
X021129Y044161D03*
X023522Y048547D03*
X023555Y048580D03*
X023655Y048646D03*
X028672Y048580D03*
X028705Y048547D03*
X028772Y048514D03*
X028805Y048480D03*
D22*
X028855Y048447D03*
X028888Y048414D03*
X028921Y048381D03*
X028955Y048347D03*
X023472Y048514D03*
X023439Y048480D03*
X023405Y048447D03*
X023372Y048414D03*
X023339Y048381D03*
X023306Y048347D03*
X021279Y044294D03*
X021246Y044260D03*
X021212Y044227D03*
X021179Y044194D03*
X009350Y044161D03*
X009317Y044194D03*
X009283Y044227D03*
X009250Y044260D03*
X009217Y044294D03*
X009184Y044327D03*
X009150Y044360D03*
X007157Y048447D03*
X007124Y048480D03*
X007090Y048514D03*
X007057Y048547D03*
X007024Y048580D03*
X006991Y048613D03*
X001674Y048480D03*
X001508Y048347D03*
X001475Y048314D03*
X001441Y048281D03*
X001342Y048148D03*
X003767Y003124D03*
X003867Y002991D03*
X003900Y002957D03*
X003934Y002924D03*
X003967Y002891D03*
X004000Y002858D03*
X004033Y002825D03*
X004166Y002725D03*
X026363Y002758D03*
X026396Y002791D03*
X026429Y002825D03*
X026462Y002858D03*
X026496Y002891D03*
X026529Y002924D03*
X026562Y002957D03*
X026595Y002991D03*
X026629Y003024D03*
X026662Y003057D03*
X026695Y003090D03*
D23*
X026712Y003124D03*
X026745Y003157D03*
X026778Y003190D03*
X026778Y003223D03*
X026811Y003257D03*
X026845Y003290D03*
X026845Y003323D03*
X026878Y003356D03*
X026911Y003423D03*
X026944Y003489D03*
X026977Y003556D03*
X027011Y003622D03*
X027044Y003689D03*
X027443Y026815D03*
X027509Y026982D03*
X027576Y027148D03*
X027609Y027214D03*
X027642Y027281D03*
X027675Y027347D03*
X027709Y027414D03*
X027742Y027480D03*
X027775Y027546D03*
X027808Y027613D03*
X027841Y027679D03*
X027875Y027746D03*
X027908Y027812D03*
X027941Y027879D03*
X027974Y027945D03*
X028008Y028012D03*
X028041Y028078D03*
X028074Y028145D03*
X028107Y028211D03*
X028140Y028277D03*
X028174Y028344D03*
X028207Y028410D03*
X028240Y028477D03*
X028273Y028543D03*
X028307Y028610D03*
X028340Y028676D03*
X028373Y028743D03*
X028406Y028809D03*
X028440Y028876D03*
X028473Y028942D03*
X028506Y029009D03*
X028539Y029075D03*
X028572Y029141D03*
X029104Y030171D03*
X029137Y030238D03*
X029237Y030471D03*
X029270Y030537D03*
X021295Y044327D03*
X021329Y044360D03*
X021362Y044393D03*
X021395Y044460D03*
X021428Y044493D03*
X021561Y044792D03*
X021594Y044858D03*
X021628Y044925D03*
X021661Y044991D03*
X021694Y045058D03*
X021727Y045124D03*
X021827Y045357D03*
X021860Y045423D03*
X021894Y045490D03*
X021927Y045556D03*
X021960Y045623D03*
X021993Y045689D03*
X022126Y045988D03*
X022159Y046055D03*
X022193Y046121D03*
X022226Y046188D03*
X022259Y046254D03*
X022292Y046320D03*
X022392Y046553D03*
X022425Y046620D03*
X022458Y046686D03*
X022492Y046752D03*
X022525Y046819D03*
X022558Y046885D03*
X022658Y047118D03*
X022691Y047184D03*
X022724Y047251D03*
X022757Y047317D03*
X022791Y047384D03*
X022824Y047450D03*
X022957Y047749D03*
X022990Y047816D03*
X023023Y047882D03*
X023057Y047949D03*
X023090Y048015D03*
X023123Y048082D03*
X023156Y048148D03*
X023189Y048181D03*
X023189Y048214D03*
X023223Y048248D03*
X023256Y048281D03*
X023289Y048314D03*
X029137Y048148D03*
X029171Y048115D03*
X029204Y048082D03*
X029204Y048048D03*
X029237Y048015D03*
X029270Y047982D03*
X029303Y047915D03*
X029337Y047849D03*
X029370Y047783D03*
X029403Y047716D03*
X009134Y044393D03*
X009101Y044426D03*
X009067Y044493D03*
X008968Y044692D03*
X008934Y044759D03*
X008901Y044825D03*
X008868Y044892D03*
X008835Y044958D03*
X008802Y045025D03*
X008702Y045257D03*
X008669Y045324D03*
X008635Y045390D03*
X008602Y045457D03*
X008569Y045523D03*
X008536Y045589D03*
X008503Y045656D03*
X008403Y045889D03*
X008370Y045955D03*
X008336Y046021D03*
X008303Y046088D03*
X008270Y046154D03*
X008237Y046221D03*
X008137Y046453D03*
X008104Y046520D03*
X008071Y046586D03*
X008037Y046653D03*
X008004Y046719D03*
X007971Y046786D03*
X007838Y047085D03*
X007805Y047151D03*
X007771Y047218D03*
X007738Y047284D03*
X007705Y047351D03*
X007672Y047417D03*
X007572Y047650D03*
X007539Y047716D03*
X007506Y047783D03*
X007472Y047849D03*
X007439Y047915D03*
X007406Y047982D03*
X007306Y048214D03*
X007273Y048281D03*
X007240Y048314D03*
X007207Y048381D03*
X007173Y048414D03*
X001425Y048248D03*
X001392Y048214D03*
X001358Y048181D03*
X001325Y048115D03*
X001292Y048082D03*
X001259Y048048D03*
X001226Y047982D03*
X001192Y047949D03*
X001159Y047882D03*
X001126Y047816D03*
X001093Y047749D03*
X001059Y047683D03*
X001159Y030670D03*
X001226Y030504D03*
X001259Y030437D03*
X001491Y029972D03*
X001525Y029906D03*
X001558Y029839D03*
X001591Y029773D03*
X001624Y029706D03*
X001657Y029640D03*
X001691Y029573D03*
X001724Y029507D03*
X001757Y029440D03*
X001790Y029374D03*
X001824Y029308D03*
X001857Y029241D03*
X001890Y029175D03*
X001923Y029108D03*
X001957Y029042D03*
X001990Y028975D03*
X002023Y028909D03*
X002056Y028842D03*
X002089Y028776D03*
X002123Y028709D03*
X002156Y028643D03*
X002189Y028577D03*
X002222Y028510D03*
X002256Y028444D03*
X002289Y028377D03*
X002322Y028311D03*
X002355Y028244D03*
X002389Y028178D03*
X002422Y028111D03*
X002455Y028045D03*
X002488Y027978D03*
X002521Y027912D03*
X002555Y027846D03*
X002588Y027779D03*
X002621Y027713D03*
X002654Y027646D03*
X002688Y027580D03*
X002721Y027513D03*
X002754Y027447D03*
X002787Y027380D03*
X002820Y027314D03*
X002854Y027247D03*
X002887Y027181D03*
X002920Y027114D03*
X002987Y026948D03*
X003452Y003655D03*
X003485Y003589D03*
X003518Y003522D03*
X003551Y003456D03*
X003585Y003389D03*
X003618Y003323D03*
X003651Y003290D03*
X003684Y003257D03*
X003684Y003223D03*
X003718Y003190D03*
X003751Y003157D03*
X003784Y003090D03*
X003817Y003057D03*
X003851Y003024D03*
D24*
X003369Y003855D03*
X003369Y003888D03*
X003369Y003921D03*
X003336Y003954D03*
X003336Y003988D03*
X003336Y004021D03*
X003336Y004054D03*
X003302Y004120D03*
X003302Y004154D03*
X003302Y004187D03*
X003302Y004220D03*
X003269Y004353D03*
X003269Y004386D03*
X003269Y004420D03*
X003269Y004453D03*
X003269Y004486D03*
X003269Y004519D03*
X003269Y004552D03*
X003269Y004586D03*
X003269Y004619D03*
X003269Y004652D03*
X003269Y004685D03*
X003269Y004719D03*
X003269Y004752D03*
X003269Y004785D03*
X003269Y004818D03*
X003269Y004851D03*
X003269Y004885D03*
X003269Y004918D03*
X003269Y004951D03*
X003269Y004984D03*
X003269Y005018D03*
X003269Y005051D03*
X003269Y005084D03*
X003269Y005117D03*
X003269Y005151D03*
X003269Y005184D03*
X003269Y005217D03*
X003269Y005250D03*
X003269Y005283D03*
X003269Y005317D03*
X003269Y005350D03*
X003269Y005383D03*
X003269Y005416D03*
X003269Y005450D03*
X003269Y005483D03*
X003269Y005516D03*
X003269Y005549D03*
X003269Y005583D03*
X003269Y005616D03*
X003269Y005649D03*
X003269Y005682D03*
X003269Y005715D03*
X003269Y005749D03*
X003269Y005782D03*
X003269Y005815D03*
X003269Y005848D03*
X003269Y005882D03*
X003269Y005915D03*
X003269Y005948D03*
X003269Y005981D03*
X003269Y006014D03*
X003269Y006048D03*
X003269Y006081D03*
X003269Y006114D03*
X003269Y006147D03*
X003269Y006181D03*
X003269Y006214D03*
X003269Y006247D03*
X003269Y006280D03*
X003269Y006314D03*
X003269Y006347D03*
X003269Y006380D03*
X003269Y006413D03*
X003269Y006446D03*
X003269Y006480D03*
X003269Y006513D03*
X003269Y006546D03*
X003269Y006579D03*
X003269Y006613D03*
X003269Y006646D03*
X003269Y006679D03*
X003269Y006712D03*
X003269Y006746D03*
X003269Y006779D03*
X003269Y006812D03*
X003269Y006845D03*
X003269Y006878D03*
X003269Y006912D03*
X003269Y006945D03*
X003269Y006978D03*
X003269Y007011D03*
X003269Y007045D03*
X003269Y007078D03*
X003269Y007111D03*
X003269Y007144D03*
X003269Y007177D03*
X003269Y007211D03*
X003269Y007244D03*
X003269Y007277D03*
X003269Y007310D03*
X003269Y007344D03*
X003269Y007377D03*
X003269Y007410D03*
X003269Y007443D03*
X003269Y007477D03*
X003269Y007510D03*
X003269Y007543D03*
X003269Y007576D03*
X003269Y007609D03*
X003269Y007643D03*
X003269Y007676D03*
X003269Y007709D03*
X003269Y007742D03*
X003269Y007776D03*
X003269Y007809D03*
X003269Y007842D03*
X003269Y007875D03*
X003269Y007909D03*
X003269Y007942D03*
X003269Y007975D03*
X003269Y008008D03*
X003269Y008041D03*
X003269Y008075D03*
X003269Y008108D03*
X003269Y008141D03*
X003269Y008174D03*
X003269Y008208D03*
X003269Y008241D03*
X003269Y008274D03*
X003269Y008307D03*
X003269Y008340D03*
X003269Y008374D03*
X003269Y008407D03*
X003269Y008440D03*
X003269Y008473D03*
X003269Y008507D03*
X003269Y008540D03*
X003269Y008573D03*
X003269Y008606D03*
X003269Y008640D03*
X003269Y008673D03*
X003269Y008706D03*
X003269Y008739D03*
X003269Y008772D03*
X003269Y008806D03*
X003269Y008839D03*
X003269Y008872D03*
X003269Y008905D03*
X003269Y008939D03*
X003269Y008972D03*
X003269Y009005D03*
X003269Y009038D03*
X003269Y009071D03*
X003269Y009105D03*
X003269Y009138D03*
X003269Y009171D03*
X003269Y009204D03*
X003269Y009238D03*
X003269Y009271D03*
X003269Y009304D03*
X003269Y009337D03*
X003269Y009371D03*
X003269Y009404D03*
X003269Y009437D03*
X003269Y009470D03*
X003269Y009503D03*
X003269Y009537D03*
X003269Y009570D03*
X003269Y009603D03*
X003269Y009636D03*
X003269Y009670D03*
X003269Y009703D03*
X003269Y009736D03*
X003269Y009769D03*
X003269Y009803D03*
X003269Y009836D03*
X003269Y009869D03*
X003269Y009902D03*
X003269Y009935D03*
X003269Y009969D03*
X003269Y010002D03*
X003269Y010035D03*
X003269Y010068D03*
X003269Y010102D03*
X003269Y010135D03*
X003269Y010168D03*
X003269Y010201D03*
X003269Y010234D03*
X003269Y010268D03*
X003269Y010301D03*
X003269Y010334D03*
X003269Y010367D03*
X003269Y010401D03*
X003269Y010434D03*
X003269Y010467D03*
X003269Y010500D03*
X003269Y010534D03*
X003269Y010567D03*
X003269Y010600D03*
X003269Y010633D03*
X003269Y010666D03*
X003269Y010700D03*
X003269Y010733D03*
X003269Y010766D03*
X003269Y010799D03*
X003269Y010833D03*
X003269Y010866D03*
X003269Y010899D03*
X003269Y010932D03*
X003269Y010966D03*
X003269Y010999D03*
X003269Y011032D03*
X003269Y011065D03*
X003269Y011098D03*
X003269Y011132D03*
X003269Y011165D03*
X003269Y011198D03*
X003269Y011231D03*
X003269Y011265D03*
X003269Y011298D03*
X003269Y011331D03*
X003269Y011364D03*
X003269Y011397D03*
X003269Y011431D03*
X003269Y011464D03*
X003269Y011497D03*
X003269Y011530D03*
X003269Y011564D03*
X003269Y011597D03*
X003269Y011630D03*
X003269Y011663D03*
X003269Y011697D03*
X003269Y011730D03*
X003269Y011763D03*
X003269Y011796D03*
X003269Y011829D03*
X003269Y011863D03*
X003269Y011896D03*
X003269Y011929D03*
X003269Y011962D03*
X003269Y011996D03*
X003269Y012029D03*
X003269Y012062D03*
X003269Y012095D03*
X003269Y012129D03*
X003269Y012162D03*
X003269Y012195D03*
X003269Y012228D03*
X003269Y012261D03*
X003269Y012295D03*
X003269Y012328D03*
X003269Y012361D03*
X003269Y012394D03*
X003269Y012428D03*
X003269Y012461D03*
X003269Y012494D03*
X003269Y012527D03*
X003269Y012560D03*
X003269Y012594D03*
X003269Y012627D03*
X003269Y012660D03*
X003269Y012693D03*
X003269Y012727D03*
X003269Y012760D03*
X003269Y012793D03*
X003269Y012826D03*
X003269Y012860D03*
X003269Y012893D03*
X003269Y012926D03*
X003269Y012959D03*
X003269Y012992D03*
X003269Y013026D03*
X003269Y013059D03*
X003269Y013092D03*
X003269Y013125D03*
X003269Y013159D03*
X003269Y013192D03*
X003269Y013225D03*
X003269Y013258D03*
X003269Y013291D03*
X003269Y013325D03*
X003269Y013358D03*
X003269Y013391D03*
X003269Y013424D03*
X003269Y013458D03*
X003269Y013491D03*
X003269Y013524D03*
X003269Y013557D03*
X003269Y013591D03*
X003269Y013624D03*
X003269Y013657D03*
X003269Y013690D03*
X003269Y013723D03*
X003269Y013757D03*
X003269Y013790D03*
X003269Y013823D03*
X003269Y013856D03*
X003269Y013890D03*
X003269Y013923D03*
X003269Y013956D03*
X003269Y013989D03*
X003269Y014023D03*
X003269Y014056D03*
X003269Y014089D03*
X003269Y014122D03*
X003269Y014155D03*
X003269Y014189D03*
X003269Y014222D03*
X003269Y014255D03*
X003269Y014288D03*
X003269Y014322D03*
X003269Y014355D03*
X003269Y014388D03*
X003269Y014421D03*
X003269Y014454D03*
X003269Y014488D03*
X003269Y014521D03*
X003269Y014554D03*
X003269Y014587D03*
X003269Y014621D03*
X003269Y014654D03*
X003269Y014687D03*
X003269Y014720D03*
X003269Y014754D03*
X003269Y014787D03*
X003269Y014820D03*
X003269Y014853D03*
X003269Y014886D03*
X003269Y014920D03*
X003269Y014953D03*
X003269Y014986D03*
X003269Y015019D03*
X003269Y015053D03*
X003269Y015086D03*
X003269Y015119D03*
X003269Y015152D03*
X003269Y015186D03*
X003269Y015219D03*
X003269Y015252D03*
X003269Y015285D03*
X003269Y015318D03*
X003269Y015352D03*
X003269Y015385D03*
X003269Y015418D03*
X003269Y015451D03*
X003269Y015485D03*
X003269Y015518D03*
X003269Y015551D03*
X003269Y015584D03*
X003269Y015617D03*
X003269Y015651D03*
X003269Y015684D03*
X003269Y015717D03*
X003269Y015750D03*
X003269Y015784D03*
X003269Y015817D03*
X003269Y015850D03*
X003269Y015883D03*
X003269Y015917D03*
X003269Y015950D03*
X003269Y015983D03*
X003269Y016016D03*
X003269Y016049D03*
X003269Y016083D03*
X003269Y016116D03*
X003269Y016149D03*
X003269Y016182D03*
X003269Y016216D03*
X003269Y016249D03*
X003269Y016282D03*
X003269Y016315D03*
X003269Y016349D03*
X003269Y016382D03*
X003269Y016415D03*
X003269Y016448D03*
X003269Y016481D03*
X003269Y016515D03*
X003269Y016548D03*
X003269Y016581D03*
X003269Y016614D03*
X003269Y016648D03*
X003269Y016681D03*
X003269Y016714D03*
X003269Y016747D03*
X003269Y016780D03*
X003269Y016814D03*
X003269Y016847D03*
X003269Y016880D03*
X003269Y016913D03*
X003269Y016947D03*
X003269Y016980D03*
X003269Y017013D03*
X003269Y017046D03*
X003269Y017080D03*
X003269Y017113D03*
X003269Y017146D03*
X003269Y017179D03*
X003269Y017212D03*
X003269Y017246D03*
X003269Y017279D03*
X003269Y017312D03*
X003269Y017345D03*
X003269Y017379D03*
X003269Y017412D03*
X003269Y017445D03*
X003269Y017478D03*
X003269Y017511D03*
X003269Y017545D03*
X003269Y017578D03*
X003269Y017611D03*
X003269Y017644D03*
X003269Y017678D03*
X003269Y017711D03*
X003269Y017744D03*
X003269Y017777D03*
X003269Y017811D03*
X003269Y017844D03*
X003269Y017877D03*
X003269Y017910D03*
X003269Y017943D03*
X003269Y017977D03*
X003269Y018010D03*
X003269Y018043D03*
X003269Y018076D03*
X003269Y018110D03*
X003269Y018143D03*
X003269Y018176D03*
X003269Y018209D03*
X003269Y018243D03*
X003269Y018276D03*
X003269Y018309D03*
X003269Y018342D03*
X003269Y018375D03*
X003269Y018409D03*
X003269Y018442D03*
X003269Y018475D03*
X003269Y018508D03*
X003269Y018542D03*
X003269Y018575D03*
X003269Y018608D03*
X003269Y018641D03*
X003269Y018674D03*
X003269Y018708D03*
X003269Y018741D03*
X003269Y018774D03*
X003269Y018807D03*
X003269Y018841D03*
X003269Y018874D03*
X003269Y018907D03*
X003269Y018940D03*
X003269Y018974D03*
X003269Y019007D03*
X003269Y019040D03*
X003269Y019073D03*
X003269Y019106D03*
X003269Y019140D03*
X003269Y019173D03*
X003269Y019206D03*
X003269Y019239D03*
X003269Y019273D03*
X003269Y019306D03*
X003269Y019339D03*
X003269Y019372D03*
X003269Y019406D03*
X003269Y019439D03*
X003269Y019472D03*
X003269Y019505D03*
X003269Y019538D03*
X003269Y019572D03*
X003269Y019605D03*
X003269Y019638D03*
X003269Y019671D03*
X003269Y019705D03*
X003269Y019738D03*
X003269Y019771D03*
X003269Y019804D03*
X003269Y019837D03*
X003269Y019871D03*
X003269Y019904D03*
X003269Y019937D03*
X003269Y019970D03*
X003269Y020004D03*
X003269Y020037D03*
X003269Y020070D03*
X003269Y020103D03*
X003269Y020137D03*
X003269Y020170D03*
X003269Y020203D03*
X003269Y020236D03*
X003269Y020269D03*
X003269Y020303D03*
X003269Y020336D03*
X003269Y020369D03*
X003269Y020402D03*
X003269Y020436D03*
X003269Y020469D03*
X003269Y020502D03*
X003269Y020535D03*
X003269Y020569D03*
X003269Y020602D03*
X003269Y020635D03*
X003269Y020668D03*
X003269Y020701D03*
X003269Y020735D03*
X003269Y020768D03*
X003269Y020801D03*
X003269Y020834D03*
X003269Y020868D03*
X003269Y020901D03*
X003269Y020934D03*
X003269Y020967D03*
X003269Y021000D03*
X003269Y021034D03*
X003269Y021067D03*
X003269Y021100D03*
X003269Y021133D03*
X003269Y021167D03*
X003269Y021200D03*
X003269Y021233D03*
X003269Y021266D03*
X003269Y021300D03*
X003269Y021333D03*
X003269Y021366D03*
X003269Y021399D03*
X003269Y021432D03*
X003269Y021466D03*
X003269Y021499D03*
X003269Y021532D03*
X003269Y021565D03*
X003269Y021599D03*
X003269Y021632D03*
X003269Y021665D03*
X003269Y021698D03*
X003269Y021731D03*
X003269Y021765D03*
X003269Y021798D03*
X003269Y021831D03*
X003269Y021864D03*
X003269Y021898D03*
X003269Y021931D03*
X003269Y021964D03*
X003269Y021997D03*
X003269Y022031D03*
X003269Y022064D03*
X003269Y022097D03*
X003269Y022130D03*
X003269Y022163D03*
X003269Y022197D03*
X003269Y022230D03*
X003269Y022263D03*
X003269Y022296D03*
X003269Y022330D03*
X003269Y022363D03*
X003269Y022396D03*
X003269Y022429D03*
X003269Y022463D03*
X003269Y022496D03*
X003269Y022529D03*
X003269Y022562D03*
X003269Y022595D03*
X003269Y022629D03*
X003269Y022662D03*
X003269Y022695D03*
X003269Y022728D03*
X003269Y022762D03*
X003269Y022795D03*
X003269Y022828D03*
X003269Y022861D03*
X003269Y022894D03*
X003269Y022928D03*
X003269Y022961D03*
X003269Y022994D03*
X003269Y023027D03*
X003269Y023061D03*
X003269Y023094D03*
X003269Y023127D03*
X003269Y023160D03*
X003269Y023194D03*
X003269Y023227D03*
X003269Y023260D03*
X003269Y023293D03*
X003269Y023326D03*
X003269Y023360D03*
X003269Y023393D03*
X003269Y023426D03*
X003269Y023459D03*
X003269Y023493D03*
X003269Y023526D03*
X003269Y023559D03*
X003269Y023592D03*
X003269Y023626D03*
X003269Y023659D03*
X003269Y023692D03*
X003269Y023725D03*
X003269Y023758D03*
X003269Y023792D03*
X003269Y023825D03*
X003269Y023858D03*
X003269Y023891D03*
X003269Y023925D03*
X003269Y023958D03*
X003269Y023991D03*
X003269Y024024D03*
X003269Y024057D03*
X003269Y024091D03*
X003269Y024124D03*
X003269Y024157D03*
X003269Y024190D03*
X003269Y024224D03*
X003269Y024257D03*
X003269Y024290D03*
X003269Y024323D03*
X003269Y024357D03*
X003269Y024390D03*
X003269Y024423D03*
X003269Y024456D03*
X003269Y024489D03*
X003269Y024523D03*
X003269Y024556D03*
X003269Y024589D03*
X003269Y024622D03*
X003269Y024656D03*
X003269Y024689D03*
X003269Y024722D03*
X003269Y024755D03*
X003269Y024789D03*
X003269Y024822D03*
X003269Y024855D03*
X003269Y024888D03*
X003269Y024921D03*
X003269Y024955D03*
X003269Y024988D03*
X003269Y025021D03*
X003269Y025054D03*
X003269Y025088D03*
X003269Y025121D03*
X003269Y025154D03*
X003269Y025187D03*
X003269Y025220D03*
X003269Y025254D03*
X003269Y025287D03*
X003269Y025320D03*
X003269Y025353D03*
X003269Y025387D03*
X003269Y025420D03*
X003269Y025453D03*
X003269Y025486D03*
X003269Y025520D03*
X003269Y025553D03*
X003269Y025586D03*
X003269Y025619D03*
X003269Y025652D03*
X003269Y025686D03*
X003269Y025719D03*
X003236Y025918D03*
X003236Y025951D03*
X003236Y025985D03*
X003236Y026018D03*
X003236Y026051D03*
X003203Y026151D03*
X003203Y026184D03*
X003203Y026217D03*
X003203Y026251D03*
X003169Y026317D03*
X003169Y026350D03*
X003169Y026383D03*
X003169Y026417D03*
X003136Y026450D03*
X003136Y026483D03*
X003136Y026516D03*
X003136Y026550D03*
X003103Y026583D03*
X003103Y026616D03*
X003103Y026649D03*
X003070Y026683D03*
X003070Y026716D03*
X003070Y026749D03*
X003036Y026782D03*
X003036Y026815D03*
X003036Y026849D03*
X003003Y026882D03*
X003003Y026915D03*
X002970Y026982D03*
X002970Y027015D03*
X002937Y027048D03*
X002937Y027081D03*
X002904Y027148D03*
X002870Y027214D03*
X002837Y027281D03*
X002804Y027347D03*
X002771Y027414D03*
X002737Y027480D03*
X002704Y027546D03*
X002671Y027613D03*
X002638Y027679D03*
X002604Y027746D03*
X002571Y027812D03*
X002538Y027879D03*
X002505Y027945D03*
X002472Y028012D03*
X002438Y028078D03*
X002405Y028145D03*
X002372Y028211D03*
X002339Y028277D03*
X002305Y028344D03*
X002272Y028410D03*
X002239Y028477D03*
X002206Y028543D03*
X002173Y028610D03*
X002139Y028676D03*
X002106Y028743D03*
X002073Y028809D03*
X002040Y028876D03*
X002006Y028942D03*
X001973Y029009D03*
X001940Y029075D03*
X001907Y029141D03*
X001873Y029208D03*
X001840Y029274D03*
X001807Y029341D03*
X001774Y029407D03*
X001741Y029474D03*
X001707Y029540D03*
X001674Y029607D03*
X001641Y029673D03*
X001608Y029740D03*
X001574Y029806D03*
X001541Y029872D03*
X001508Y029939D03*
X001475Y030005D03*
X001441Y030039D03*
X001441Y030072D03*
X001408Y030105D03*
X001408Y030138D03*
X001375Y030171D03*
X001375Y030205D03*
X001342Y030238D03*
X001342Y030271D03*
X001309Y030304D03*
X001309Y030338D03*
X001275Y030371D03*
X001275Y030404D03*
X001242Y030471D03*
X001209Y030537D03*
X001209Y030570D03*
X001176Y030603D03*
X001176Y030637D03*
X001142Y030703D03*
X001142Y030736D03*
X001109Y030770D03*
X001109Y030803D03*
X001109Y030836D03*
X001076Y030869D03*
X001076Y030903D03*
X001076Y030936D03*
X001076Y030969D03*
X001043Y031002D03*
X001043Y031035D03*
X001043Y031069D03*
X001010Y031135D03*
X001010Y031168D03*
X001010Y031202D03*
X000976Y031301D03*
X000976Y031334D03*
X000976Y031368D03*
X000976Y031401D03*
X000943Y031501D03*
X000943Y031534D03*
X000943Y031567D03*
X000943Y031600D03*
X000943Y031634D03*
X000910Y031833D03*
X000910Y031866D03*
X000910Y031899D03*
X000910Y031933D03*
X000910Y031966D03*
X000910Y031999D03*
X000910Y032032D03*
X000910Y032066D03*
X000910Y032099D03*
X000910Y032132D03*
X000910Y032165D03*
X000910Y032198D03*
X000910Y032232D03*
X000910Y032265D03*
X000910Y032298D03*
X000910Y032331D03*
X000910Y032365D03*
X000910Y032398D03*
X000910Y032431D03*
X000910Y032464D03*
X000910Y032497D03*
X000910Y032531D03*
X000910Y032564D03*
X000910Y032597D03*
X000910Y032630D03*
X000910Y032664D03*
X000910Y032697D03*
X000910Y032730D03*
X000910Y032763D03*
X000910Y032797D03*
X000910Y032830D03*
X000910Y032863D03*
X000910Y032896D03*
X000910Y032929D03*
X000910Y032963D03*
X000910Y032996D03*
X000910Y033029D03*
X000910Y033062D03*
X000910Y033096D03*
X000910Y033129D03*
X000910Y033162D03*
X000910Y033195D03*
X000910Y033229D03*
X000910Y033262D03*
X000910Y033295D03*
X000910Y033328D03*
X000910Y033361D03*
X000910Y033395D03*
X000910Y033428D03*
X000910Y033461D03*
X000910Y033494D03*
X000910Y033528D03*
X000910Y033561D03*
X000910Y033594D03*
X000910Y033627D03*
X000910Y033660D03*
X000910Y033694D03*
X000910Y033727D03*
X000910Y033760D03*
X000910Y033793D03*
X000910Y033827D03*
X000910Y033860D03*
X000910Y033893D03*
X000910Y033926D03*
X000910Y033960D03*
X000910Y033993D03*
X000910Y034026D03*
X000910Y034059D03*
X000910Y034092D03*
X000910Y034126D03*
X000910Y034159D03*
X000910Y034192D03*
X000910Y034225D03*
X000910Y034259D03*
X000910Y034292D03*
X000910Y034325D03*
X000910Y034358D03*
X000910Y034391D03*
X000910Y034425D03*
X000910Y034458D03*
X000910Y034491D03*
X000910Y034524D03*
X000910Y034558D03*
X000910Y034591D03*
X000910Y034624D03*
X000910Y034657D03*
X000910Y034691D03*
X000910Y034724D03*
X000910Y034757D03*
X000910Y034790D03*
X000910Y034823D03*
X000910Y034857D03*
X000910Y034890D03*
X000910Y034923D03*
X000910Y034956D03*
X000910Y034990D03*
X000910Y035023D03*
X000910Y035056D03*
X000910Y035089D03*
X000910Y035123D03*
X000910Y035156D03*
X000910Y035189D03*
X000910Y035222D03*
X000910Y035255D03*
X000910Y035289D03*
X000910Y035322D03*
X000910Y035355D03*
X000910Y035388D03*
X000910Y035422D03*
X000910Y035455D03*
X000910Y035488D03*
X000910Y035521D03*
X000910Y035554D03*
X000910Y035588D03*
X000910Y035621D03*
X000910Y035654D03*
X000910Y035687D03*
X000910Y035721D03*
X000910Y035754D03*
X000910Y035787D03*
X000910Y035820D03*
X000910Y035854D03*
X000910Y035887D03*
X000910Y035920D03*
X000910Y035953D03*
X000910Y035986D03*
X000910Y036020D03*
X000910Y036053D03*
X000910Y036086D03*
X000910Y036119D03*
X000910Y036153D03*
X000910Y036186D03*
X000910Y036219D03*
X000910Y036252D03*
X000910Y036286D03*
X000910Y036319D03*
X000910Y036352D03*
X000910Y036385D03*
X000910Y036418D03*
X000910Y036452D03*
X000910Y036485D03*
X000910Y036518D03*
X000910Y036551D03*
X000910Y036585D03*
X000910Y036618D03*
X000910Y036651D03*
X000910Y036684D03*
X000910Y036717D03*
X000910Y036751D03*
X000910Y036784D03*
X000910Y036817D03*
X000910Y036850D03*
X000910Y036884D03*
X000910Y036917D03*
X000910Y036950D03*
X000910Y036983D03*
X000910Y037017D03*
X000910Y037050D03*
X000910Y037083D03*
X000910Y037116D03*
X000910Y037149D03*
X000910Y037183D03*
X000910Y037216D03*
X000910Y037249D03*
X000910Y037282D03*
X000910Y037316D03*
X000910Y037349D03*
X000910Y037382D03*
X000910Y037415D03*
X000910Y037449D03*
X000910Y037482D03*
X000910Y037515D03*
X000910Y037548D03*
X000910Y037581D03*
X000910Y037615D03*
X000910Y037648D03*
X000910Y037681D03*
X000910Y037714D03*
X000910Y037748D03*
X000910Y037781D03*
X000910Y037814D03*
X000910Y037847D03*
X000910Y037880D03*
X000910Y037914D03*
X000910Y037947D03*
X000910Y037980D03*
X000910Y038013D03*
X000910Y038047D03*
X000910Y038080D03*
X000910Y038113D03*
X000910Y038146D03*
X000910Y038180D03*
X000910Y038213D03*
X000910Y038246D03*
X000910Y038279D03*
X000910Y038312D03*
X000910Y038346D03*
X000910Y038379D03*
X000910Y038412D03*
X000910Y038445D03*
X000910Y038479D03*
X000910Y038512D03*
X000910Y038545D03*
X000910Y038578D03*
X000910Y038611D03*
X000910Y038645D03*
X000910Y038678D03*
X000910Y038711D03*
X000910Y038744D03*
X000910Y038778D03*
X000910Y038811D03*
X000910Y038844D03*
X000910Y038877D03*
X000910Y038911D03*
X000910Y038944D03*
X000910Y038977D03*
X000910Y039010D03*
X000910Y039043D03*
X000910Y039077D03*
X000910Y039110D03*
X000910Y039143D03*
X000910Y039176D03*
X000910Y039210D03*
X000910Y039243D03*
X000910Y039276D03*
X000910Y039309D03*
X000910Y039343D03*
X000910Y039376D03*
X000910Y039409D03*
X000910Y039442D03*
X000910Y039475D03*
X000910Y039509D03*
X000910Y039542D03*
X000910Y039575D03*
X000910Y039608D03*
X000910Y039642D03*
X000910Y039675D03*
X000910Y039708D03*
X000910Y039741D03*
X000910Y039774D03*
X000910Y039808D03*
X000910Y039841D03*
X000910Y039874D03*
X000910Y039907D03*
X000910Y039941D03*
X000910Y039974D03*
X000910Y040007D03*
X000910Y040040D03*
X000910Y040074D03*
X000910Y040107D03*
X000910Y040140D03*
X000910Y040173D03*
X000910Y040206D03*
X000910Y040240D03*
X000910Y040273D03*
X000910Y040306D03*
X000910Y040339D03*
X000910Y040373D03*
X000910Y040406D03*
X000910Y040439D03*
X000910Y040472D03*
X000910Y040506D03*
X000910Y040539D03*
X000910Y040572D03*
X000910Y040605D03*
X000910Y040638D03*
X000910Y040672D03*
X000910Y040705D03*
X000910Y040738D03*
X000910Y040771D03*
X000910Y040805D03*
X000910Y040838D03*
X000910Y040871D03*
X000910Y040904D03*
X000910Y040937D03*
X000910Y040971D03*
X000910Y041004D03*
X000910Y041037D03*
X000910Y041070D03*
X000910Y041104D03*
X000910Y041137D03*
X000910Y041170D03*
X000910Y041203D03*
X000910Y041237D03*
X000910Y041270D03*
X000910Y041303D03*
X000910Y041336D03*
X000910Y041369D03*
X000910Y041403D03*
X000910Y041436D03*
X000910Y041469D03*
X000910Y041502D03*
X000910Y041536D03*
X000910Y041569D03*
X000910Y041602D03*
X000910Y041635D03*
X000910Y041669D03*
X000910Y041702D03*
X000910Y041735D03*
X000910Y041768D03*
X000910Y041801D03*
X000910Y041835D03*
X000910Y041868D03*
X000910Y041901D03*
X000910Y041934D03*
X000910Y041968D03*
X000910Y042001D03*
X000910Y042034D03*
X000910Y042067D03*
X000910Y042100D03*
X000910Y042134D03*
X000910Y042167D03*
X000910Y042200D03*
X000910Y042233D03*
X000910Y042267D03*
X000910Y042300D03*
X000910Y042333D03*
X000910Y042366D03*
X000910Y042400D03*
X000910Y042433D03*
X000910Y042466D03*
X000910Y042499D03*
X000910Y042532D03*
X000910Y042566D03*
X000910Y042599D03*
X000910Y042632D03*
X000910Y042665D03*
X000910Y042699D03*
X000910Y042732D03*
X000910Y042765D03*
X000910Y042798D03*
X000910Y042831D03*
X000910Y042865D03*
X000910Y042898D03*
X000910Y042931D03*
X000910Y042964D03*
X000910Y042998D03*
X000910Y043031D03*
X000910Y043064D03*
X000910Y043097D03*
X000910Y043131D03*
X000910Y043164D03*
X000910Y043197D03*
X000910Y043230D03*
X000910Y043263D03*
X000910Y043297D03*
X000910Y043330D03*
X000910Y043363D03*
X000910Y043396D03*
X000910Y043430D03*
X000910Y043463D03*
X000910Y043496D03*
X000910Y043529D03*
X000910Y043563D03*
X000910Y043596D03*
X000910Y043629D03*
X000910Y043662D03*
X000910Y043695D03*
X000910Y043729D03*
X000910Y043762D03*
X000910Y043795D03*
X000910Y043828D03*
X000910Y043862D03*
X000910Y043895D03*
X000910Y043928D03*
X000910Y043961D03*
X000910Y043994D03*
X000910Y044028D03*
X000910Y044061D03*
X000910Y044094D03*
X000910Y044127D03*
X000910Y044161D03*
X000910Y044194D03*
X000910Y044227D03*
X000910Y044260D03*
X000910Y044294D03*
X000910Y044327D03*
X000910Y044360D03*
X000910Y044393D03*
X000910Y044426D03*
X000910Y044460D03*
X000910Y044493D03*
X000910Y044526D03*
X000910Y044559D03*
X000910Y044593D03*
X000910Y044626D03*
X000910Y044659D03*
X000910Y044692D03*
X000910Y044726D03*
X000910Y044759D03*
X000910Y044792D03*
X000910Y044825D03*
X000910Y044858D03*
X000910Y044892D03*
X000910Y044925D03*
X000910Y044958D03*
X000910Y044991D03*
X000910Y045025D03*
X000910Y045058D03*
X000910Y045091D03*
X000910Y045124D03*
X000910Y045157D03*
X000910Y045191D03*
X000910Y045224D03*
X000910Y045257D03*
X000910Y045290D03*
X000910Y045324D03*
X000910Y045357D03*
X000910Y045390D03*
X000910Y045423D03*
X000910Y045457D03*
X000910Y045490D03*
X000910Y045523D03*
X000910Y045556D03*
X000910Y045589D03*
X000910Y045623D03*
X000910Y045656D03*
X000910Y045689D03*
X000910Y045722D03*
X000910Y045756D03*
X000910Y045789D03*
X000910Y045822D03*
X000910Y045855D03*
X000910Y045889D03*
X000910Y045922D03*
X000910Y045955D03*
X000910Y045988D03*
X000910Y046021D03*
X000910Y046055D03*
X000910Y046088D03*
X000910Y046121D03*
X000910Y046154D03*
X000910Y046188D03*
X000910Y046221D03*
X000910Y046254D03*
X000910Y046287D03*
X000910Y046320D03*
X000910Y046354D03*
X000910Y046387D03*
X000910Y046420D03*
X000910Y046453D03*
X000910Y046487D03*
X000910Y046520D03*
X000910Y046553D03*
X000910Y046586D03*
X000910Y046620D03*
X000910Y046653D03*
X000910Y046686D03*
X000910Y046719D03*
X000910Y046752D03*
X000910Y046786D03*
X000910Y046819D03*
X000910Y046852D03*
X000910Y046885D03*
X000910Y046919D03*
X000910Y046952D03*
X000910Y046985D03*
X000910Y047018D03*
X000910Y047051D03*
X000910Y047085D03*
X000943Y047218D03*
X000943Y047251D03*
X000943Y047284D03*
X000943Y047317D03*
X000976Y047384D03*
X000976Y047417D03*
X000976Y047450D03*
X000976Y047483D03*
X001010Y047517D03*
X001010Y047550D03*
X001010Y047583D03*
X001043Y047616D03*
X001043Y047650D03*
X001076Y047716D03*
X001109Y047783D03*
X001142Y047849D03*
X001176Y047915D03*
X001242Y048015D03*
X007223Y048347D03*
X007290Y048248D03*
X007323Y048181D03*
X007323Y048148D03*
X007356Y048115D03*
X007356Y048082D03*
X007389Y048048D03*
X007389Y048015D03*
X007423Y047949D03*
X007456Y047882D03*
X007489Y047816D03*
X007522Y047749D03*
X007556Y047683D03*
X007589Y047616D03*
X007589Y047583D03*
X007622Y047550D03*
X007622Y047517D03*
X007655Y047483D03*
X007655Y047450D03*
X007688Y047384D03*
X007722Y047317D03*
X007755Y047251D03*
X007788Y047184D03*
X007821Y047118D03*
X007855Y047051D03*
X007855Y047018D03*
X007888Y046985D03*
X007888Y046952D03*
X007921Y046919D03*
X007921Y046885D03*
X007954Y046852D03*
X007954Y046819D03*
X007987Y046752D03*
X008021Y046686D03*
X008054Y046620D03*
X008087Y046553D03*
X008120Y046487D03*
X008154Y046420D03*
X008154Y046387D03*
X008187Y046354D03*
X008187Y046320D03*
X008220Y046287D03*
X008220Y046254D03*
X008253Y046188D03*
X008287Y046121D03*
X008320Y046055D03*
X008353Y045988D03*
X008386Y045922D03*
X008419Y045855D03*
X008419Y045822D03*
X008453Y045789D03*
X008453Y045756D03*
X008486Y045722D03*
X008486Y045689D03*
X008519Y045623D03*
X008552Y045556D03*
X008586Y045490D03*
X008619Y045423D03*
X008652Y045357D03*
X008685Y045290D03*
X008719Y045224D03*
X008719Y045191D03*
X008752Y045157D03*
X008752Y045124D03*
X008785Y045091D03*
X008785Y045058D03*
X008818Y044991D03*
X008851Y044925D03*
X008885Y044858D03*
X008918Y044792D03*
X008951Y044726D03*
X008984Y044659D03*
X008984Y044626D03*
X009018Y044593D03*
X009018Y044559D03*
X009051Y044526D03*
X009084Y044460D03*
X021379Y044426D03*
X021445Y044526D03*
X021445Y044559D03*
X021478Y044593D03*
X021478Y044626D03*
X021511Y044659D03*
X021511Y044692D03*
X021545Y044726D03*
X021545Y044759D03*
X021578Y044825D03*
X021611Y044892D03*
X021644Y044958D03*
X021678Y045025D03*
X021711Y045091D03*
X021744Y045157D03*
X021744Y045191D03*
X021777Y045224D03*
X021777Y045257D03*
X021810Y045290D03*
X021810Y045324D03*
X021844Y045390D03*
X021877Y045457D03*
X021910Y045523D03*
X021943Y045589D03*
X021977Y045656D03*
X022010Y045722D03*
X022010Y045756D03*
X022043Y045789D03*
X022043Y045822D03*
X022076Y045855D03*
X022076Y045889D03*
X022110Y045922D03*
X022110Y045955D03*
X022143Y046021D03*
X022176Y046088D03*
X022209Y046154D03*
X022242Y046221D03*
X022276Y046287D03*
X022309Y046354D03*
X022309Y046387D03*
X022342Y046420D03*
X022342Y046453D03*
X022375Y046487D03*
X022375Y046520D03*
X022409Y046586D03*
X022442Y046653D03*
X022475Y046719D03*
X022508Y046786D03*
X022541Y046852D03*
X022575Y046919D03*
X022575Y046952D03*
X022608Y046985D03*
X022608Y047018D03*
X022641Y047051D03*
X022641Y047085D03*
X022674Y047151D03*
X022708Y047218D03*
X022741Y047284D03*
X022774Y047351D03*
X022807Y047417D03*
X022841Y047483D03*
X022841Y047517D03*
X022874Y047550D03*
X022874Y047583D03*
X022907Y047616D03*
X022907Y047650D03*
X022940Y047683D03*
X022940Y047716D03*
X022973Y047783D03*
X023007Y047849D03*
X023040Y047915D03*
X023073Y047982D03*
X023106Y048048D03*
X023140Y048115D03*
X029287Y047949D03*
X029320Y047882D03*
X029353Y047816D03*
X029387Y047749D03*
X029420Y047683D03*
X029420Y047650D03*
X029453Y047616D03*
X029453Y047583D03*
X029453Y047550D03*
X029486Y047517D03*
X029486Y047483D03*
X029486Y047450D03*
X029519Y047417D03*
X029519Y047384D03*
X029519Y047351D03*
X029519Y047317D03*
X029553Y047251D03*
X029553Y047218D03*
X029553Y047184D03*
X029553Y047151D03*
X029553Y047118D03*
X029553Y031800D03*
X029553Y031766D03*
X029553Y031733D03*
X029553Y031700D03*
X029553Y031667D03*
X029553Y031634D03*
X029553Y031600D03*
X029519Y031467D03*
X029519Y031434D03*
X029519Y031401D03*
X029519Y031368D03*
X029486Y031301D03*
X029486Y031268D03*
X029486Y031235D03*
X029486Y031202D03*
X029453Y031135D03*
X029453Y031102D03*
X029453Y031069D03*
X029420Y031002D03*
X029420Y030969D03*
X029420Y030936D03*
X029387Y030903D03*
X029387Y030869D03*
X029387Y030836D03*
X029353Y030803D03*
X029353Y030770D03*
X029353Y030736D03*
X029320Y030703D03*
X029320Y030670D03*
X029320Y030637D03*
X029287Y030603D03*
X029287Y030570D03*
X029254Y030504D03*
X029220Y030437D03*
X029220Y030404D03*
X029187Y030371D03*
X029187Y030338D03*
X029154Y030304D03*
X029154Y030271D03*
X029121Y030205D03*
X029087Y030138D03*
X029054Y030105D03*
X029054Y030072D03*
X029021Y030039D03*
X029021Y030005D03*
X028988Y029972D03*
X028988Y029939D03*
X028955Y029906D03*
X028955Y029872D03*
X028921Y029839D03*
X028921Y029806D03*
X028888Y029773D03*
X028888Y029740D03*
X028855Y029706D03*
X028855Y029673D03*
X028822Y029640D03*
X028822Y029607D03*
X028788Y029573D03*
X028788Y029540D03*
X028755Y029507D03*
X028755Y029474D03*
X028722Y029440D03*
X028722Y029407D03*
X028689Y029374D03*
X028689Y029341D03*
X028656Y029308D03*
X028656Y029274D03*
X028622Y029241D03*
X028622Y029208D03*
X028589Y029175D03*
X028556Y029108D03*
X028523Y029042D03*
X028489Y028975D03*
X028456Y028909D03*
X028423Y028842D03*
X028390Y028776D03*
X028356Y028709D03*
X028323Y028643D03*
X028290Y028577D03*
X028257Y028510D03*
X028224Y028444D03*
X028190Y028377D03*
X028157Y028311D03*
X028124Y028244D03*
X028091Y028178D03*
X028057Y028111D03*
X028024Y028045D03*
X027991Y027978D03*
X027958Y027912D03*
X027924Y027846D03*
X027891Y027779D03*
X027858Y027713D03*
X027825Y027646D03*
X027792Y027580D03*
X027758Y027513D03*
X027725Y027447D03*
X027692Y027380D03*
X027659Y027314D03*
X027625Y027247D03*
X027592Y027181D03*
X027559Y027114D03*
X027559Y027081D03*
X027526Y027048D03*
X027526Y027015D03*
X027493Y026948D03*
X027493Y026915D03*
X027459Y026882D03*
X027459Y026849D03*
X027426Y026782D03*
X027426Y026749D03*
X027393Y026716D03*
X027393Y026683D03*
X027393Y026649D03*
X027393Y026616D03*
X027360Y026583D03*
X027360Y026550D03*
X027360Y026516D03*
X027326Y026483D03*
X027326Y026450D03*
X027326Y026417D03*
X027326Y026383D03*
X027293Y026317D03*
X027293Y026284D03*
X027293Y026251D03*
X027293Y026217D03*
X027260Y026151D03*
X027260Y026118D03*
X027260Y026084D03*
X027260Y026051D03*
X027260Y026018D03*
X027227Y025918D03*
X027227Y025885D03*
X027227Y025852D03*
X027227Y025819D03*
X027227Y025785D03*
X027227Y025752D03*
X027227Y025719D03*
X027227Y025686D03*
X027193Y004320D03*
X027193Y004287D03*
X027193Y004253D03*
X027193Y004220D03*
X027193Y004187D03*
X027160Y004120D03*
X027160Y004087D03*
X027160Y004054D03*
X027160Y004021D03*
X027127Y003988D03*
X027127Y003954D03*
X027127Y003921D03*
X027127Y003888D03*
X027094Y003855D03*
X027094Y003821D03*
X027094Y003788D03*
X027061Y003755D03*
X027061Y003722D03*
X027027Y003655D03*
X026994Y003589D03*
X026961Y003522D03*
X026928Y003456D03*
X026894Y003389D03*
X003601Y003356D03*
X003568Y003423D03*
X003535Y003489D03*
X003502Y003556D03*
X003468Y003622D03*
X003435Y003689D03*
X003435Y003722D03*
X003402Y003755D03*
X003402Y003788D03*
X003402Y003821D03*
D25*
X003319Y004087D03*
X003286Y004253D03*
X003286Y004287D03*
X003286Y004320D03*
X003252Y025752D03*
X003252Y025785D03*
X003252Y025819D03*
X003252Y025852D03*
X003252Y025885D03*
X003219Y026084D03*
X003219Y026118D03*
X003186Y026284D03*
X001026Y031102D03*
X000993Y031235D03*
X000993Y031268D03*
X000960Y031434D03*
X000960Y031467D03*
X000926Y031667D03*
X000926Y031700D03*
X000926Y031733D03*
X000926Y031766D03*
X000926Y031800D03*
X000926Y047118D03*
X000926Y047151D03*
X000926Y047184D03*
X000960Y047351D03*
X027310Y026350D03*
X027277Y026184D03*
X027243Y025985D03*
X027243Y025951D03*
X027210Y025652D03*
X027210Y025619D03*
X027210Y025586D03*
X027210Y025553D03*
X027210Y025520D03*
X027210Y025486D03*
X027210Y025453D03*
X027210Y025420D03*
X027210Y025387D03*
X027210Y025353D03*
X027210Y025320D03*
X027210Y025287D03*
X027210Y025254D03*
X027210Y025220D03*
X027210Y025187D03*
X027210Y025154D03*
X027210Y025121D03*
X027210Y025088D03*
X027210Y025054D03*
X027210Y025021D03*
X027210Y024988D03*
X027210Y024955D03*
X027210Y024921D03*
X027210Y024888D03*
X027210Y024855D03*
X027210Y024822D03*
X027210Y024789D03*
X027210Y024755D03*
X027210Y024722D03*
X027210Y024689D03*
X027210Y024656D03*
X027210Y024622D03*
X027210Y024589D03*
X027210Y024556D03*
X027210Y024523D03*
X027210Y024489D03*
X027210Y024456D03*
X027210Y024423D03*
X027210Y024390D03*
X027210Y024357D03*
X027210Y024323D03*
X027210Y024290D03*
X027210Y024257D03*
X027210Y024224D03*
X027210Y024190D03*
X027210Y024157D03*
X027210Y024124D03*
X027210Y024091D03*
X027210Y024057D03*
X027210Y024024D03*
X027210Y023991D03*
X027210Y023958D03*
X027210Y023925D03*
X027210Y023891D03*
X027210Y023858D03*
X027210Y023825D03*
X027210Y023792D03*
X027210Y023758D03*
X027210Y023725D03*
X027210Y023692D03*
X027210Y023659D03*
X027210Y023626D03*
X027210Y023592D03*
X027210Y023559D03*
X027210Y023526D03*
X027210Y023493D03*
X027210Y023459D03*
X027210Y023426D03*
X027210Y023393D03*
X027210Y023360D03*
X027210Y023326D03*
X027210Y023293D03*
X027210Y023260D03*
X027210Y023227D03*
X027210Y023194D03*
X027210Y023160D03*
X027210Y023127D03*
X027210Y023094D03*
X027210Y023061D03*
X027210Y023027D03*
X027210Y022994D03*
X027210Y022961D03*
X027210Y022928D03*
X027210Y022894D03*
X027210Y022861D03*
X027210Y022828D03*
X027210Y022795D03*
X027210Y022762D03*
X027210Y022728D03*
X027210Y022695D03*
X027210Y022662D03*
X027210Y022629D03*
X027210Y022595D03*
X027210Y022562D03*
X027210Y022529D03*
X027210Y022496D03*
X027210Y022463D03*
X027210Y022429D03*
X027210Y022396D03*
X027210Y022363D03*
X027210Y022330D03*
X027210Y022296D03*
X027210Y022263D03*
X027210Y022230D03*
X027210Y022197D03*
X027210Y022163D03*
X027210Y022130D03*
X027210Y022097D03*
X027210Y022064D03*
X027210Y022031D03*
X027210Y021997D03*
X027210Y021964D03*
X027210Y021931D03*
X027210Y021898D03*
X027210Y021864D03*
X027210Y021831D03*
X027210Y021798D03*
X027210Y021765D03*
X027210Y021731D03*
X027210Y021698D03*
X027210Y021665D03*
X027210Y021632D03*
X027210Y021599D03*
X027210Y021565D03*
X027210Y021532D03*
X027210Y021499D03*
X027210Y021466D03*
X027210Y021432D03*
X027210Y021399D03*
X027210Y021366D03*
X027210Y021333D03*
X027210Y021300D03*
X027210Y021266D03*
X027210Y021233D03*
X027210Y021200D03*
X027210Y021167D03*
X027210Y021133D03*
X027210Y021100D03*
X027210Y021067D03*
X027210Y021034D03*
X027210Y021000D03*
X027210Y020967D03*
X027210Y020934D03*
X027210Y020901D03*
X027210Y020868D03*
X027210Y020834D03*
X027210Y020801D03*
X027210Y020768D03*
X027210Y020735D03*
X027210Y020701D03*
X027210Y020668D03*
X027210Y020635D03*
X027210Y020602D03*
X027210Y020569D03*
X027210Y020535D03*
X027210Y020502D03*
X027210Y020469D03*
X027210Y020436D03*
X027210Y020402D03*
X027210Y020369D03*
X027210Y020336D03*
X027210Y020303D03*
X027210Y020269D03*
X027210Y020236D03*
X027210Y020203D03*
X027210Y020170D03*
X027210Y020137D03*
X027210Y020103D03*
X027210Y020070D03*
X027210Y020037D03*
X027210Y020004D03*
X027210Y019970D03*
X027210Y019937D03*
X027210Y019904D03*
X027210Y019871D03*
X027210Y019837D03*
X027210Y019804D03*
X027210Y019771D03*
X027210Y019738D03*
X027210Y019705D03*
X027210Y019671D03*
X027210Y019638D03*
X027210Y019605D03*
X027210Y019572D03*
X027210Y019538D03*
X027210Y019505D03*
X027210Y019472D03*
X027210Y019439D03*
X027210Y019406D03*
X027210Y019372D03*
X027210Y019339D03*
X027210Y019306D03*
X027210Y019273D03*
X027210Y019239D03*
X027210Y019206D03*
X027210Y019173D03*
X027210Y019140D03*
X027210Y019106D03*
X027210Y019073D03*
X027210Y019040D03*
X027210Y019007D03*
X027210Y018974D03*
X027210Y018940D03*
X027210Y018907D03*
X027210Y018874D03*
X027210Y018841D03*
X027210Y018807D03*
X027210Y018774D03*
X027210Y018741D03*
X027210Y018708D03*
X027210Y018674D03*
X027210Y018641D03*
X027210Y018608D03*
X027210Y018575D03*
X027210Y018542D03*
X027210Y018508D03*
X027210Y018475D03*
X027210Y018442D03*
X027210Y018409D03*
X027210Y018375D03*
X027210Y018342D03*
X027210Y018309D03*
X027210Y018276D03*
X027210Y018243D03*
X027210Y018209D03*
X027210Y018176D03*
X027210Y018143D03*
X027210Y018110D03*
X027210Y018076D03*
X027210Y018043D03*
X027210Y018010D03*
X027210Y017977D03*
X027210Y017943D03*
X027210Y017910D03*
X027210Y017877D03*
X027210Y017844D03*
X027210Y017811D03*
X027210Y017777D03*
X027210Y017744D03*
X027210Y017711D03*
X027210Y017678D03*
X027210Y017644D03*
X027210Y017611D03*
X027210Y017578D03*
X027210Y017545D03*
X027210Y017511D03*
X027210Y017478D03*
X027210Y017445D03*
X027210Y017412D03*
X027210Y017379D03*
X027210Y017345D03*
X027210Y017312D03*
X027210Y017279D03*
X027210Y017246D03*
X027210Y017212D03*
X027210Y017179D03*
X027210Y017146D03*
X027210Y017113D03*
X027210Y017080D03*
X027210Y017046D03*
X027210Y017013D03*
X027210Y016980D03*
X027210Y016947D03*
X027210Y016913D03*
X027210Y016880D03*
X027210Y016847D03*
X027210Y016814D03*
X027210Y016780D03*
X027210Y016747D03*
X027210Y016714D03*
X027210Y016681D03*
X027210Y016648D03*
X027210Y016614D03*
X027210Y016581D03*
X027210Y016548D03*
X027210Y016515D03*
X027210Y016481D03*
X027210Y016448D03*
X027210Y016415D03*
X027210Y016382D03*
X027210Y016349D03*
X027210Y016315D03*
X027210Y016282D03*
X027210Y016249D03*
X027210Y016216D03*
X027210Y016182D03*
X027210Y016149D03*
X027210Y016116D03*
X027210Y016083D03*
X027210Y016049D03*
X027210Y016016D03*
X027210Y015983D03*
X027210Y015950D03*
X027210Y015917D03*
X027210Y015883D03*
X027210Y015850D03*
X027210Y015817D03*
X027210Y015784D03*
X027210Y015750D03*
X027210Y015717D03*
X027210Y015684D03*
X027210Y015651D03*
X027210Y015617D03*
X027210Y015584D03*
X027210Y015551D03*
X027210Y015518D03*
X027210Y015485D03*
X027210Y015451D03*
X027210Y015418D03*
X027210Y015385D03*
X027210Y015352D03*
X027210Y015318D03*
X027210Y015285D03*
X027210Y015252D03*
X027210Y015219D03*
X027210Y015186D03*
X027210Y015152D03*
X027210Y015119D03*
X027210Y015086D03*
X027210Y015053D03*
X027210Y015019D03*
X027210Y014986D03*
X027210Y014953D03*
X027210Y014920D03*
X027210Y014886D03*
X027210Y014853D03*
X027210Y014820D03*
X027210Y014787D03*
X027210Y014754D03*
X027210Y014720D03*
X027210Y014687D03*
X027210Y014654D03*
X027210Y014621D03*
X027210Y014587D03*
X027210Y014554D03*
X027210Y014521D03*
X027210Y014488D03*
X027210Y014454D03*
X027210Y014421D03*
X027210Y014388D03*
X027210Y014355D03*
X027210Y014322D03*
X027210Y014288D03*
X027210Y014255D03*
X027210Y014222D03*
X027210Y014189D03*
X027210Y014155D03*
X027210Y014122D03*
X027210Y014089D03*
X027210Y014056D03*
X027210Y014023D03*
X027210Y013989D03*
X027210Y013956D03*
X027210Y013923D03*
X027210Y013890D03*
X027210Y013856D03*
X027210Y013823D03*
X027210Y013790D03*
X027210Y013757D03*
X027210Y013723D03*
X027210Y013690D03*
X027210Y013657D03*
X027210Y013624D03*
X027210Y013591D03*
X027210Y013557D03*
X027210Y013524D03*
X027210Y013491D03*
X027210Y013458D03*
X027210Y013424D03*
X027210Y013391D03*
X027210Y013358D03*
X027210Y013325D03*
X027210Y013291D03*
X027210Y013258D03*
X027210Y013225D03*
X027210Y013192D03*
X027210Y013159D03*
X027210Y013125D03*
X027210Y013092D03*
X027210Y013059D03*
X027210Y013026D03*
X027210Y012992D03*
X027210Y012959D03*
X027210Y012926D03*
X027210Y012893D03*
X027210Y012860D03*
X027210Y012826D03*
X027210Y012793D03*
X027210Y012760D03*
X027210Y012727D03*
X027210Y012693D03*
X027210Y012660D03*
X027210Y012627D03*
X027210Y012594D03*
X027210Y012560D03*
X027210Y012527D03*
X027210Y012494D03*
X027210Y012461D03*
X027210Y012428D03*
X027210Y012394D03*
X027210Y012361D03*
X027210Y012328D03*
X027210Y012295D03*
X027210Y012261D03*
X027210Y012228D03*
X027210Y012195D03*
X027210Y012162D03*
X027210Y012129D03*
X027210Y012095D03*
X027210Y012062D03*
X027210Y012029D03*
X027210Y011996D03*
X027210Y011962D03*
X027210Y011929D03*
X027210Y011896D03*
X027210Y011863D03*
X027210Y011829D03*
X027210Y011796D03*
X027210Y011763D03*
X027210Y011730D03*
X027210Y011697D03*
X027210Y011663D03*
X027210Y011630D03*
X027210Y011597D03*
X027210Y011564D03*
X027210Y011530D03*
X027210Y011497D03*
X027210Y011464D03*
X027210Y011431D03*
X027210Y011397D03*
X027210Y011364D03*
X027210Y011331D03*
X027210Y011298D03*
X027210Y011265D03*
X027210Y011231D03*
X027210Y011198D03*
X027210Y011165D03*
X027210Y011132D03*
X027210Y011098D03*
X027210Y011065D03*
X027210Y011032D03*
X027210Y010999D03*
X027210Y010966D03*
X027210Y010932D03*
X027210Y010899D03*
X027210Y010866D03*
X027210Y010833D03*
X027210Y010799D03*
X027210Y010766D03*
X027210Y010733D03*
X027210Y010700D03*
X027210Y010666D03*
X027210Y010633D03*
X027210Y010600D03*
X027210Y010567D03*
X027210Y010534D03*
X027210Y010500D03*
X027210Y010467D03*
X027210Y010434D03*
X027210Y010401D03*
X027210Y010367D03*
X027210Y010334D03*
X027210Y010301D03*
X027210Y010268D03*
X027210Y010234D03*
X027210Y010201D03*
X027210Y010168D03*
X027210Y010135D03*
X027210Y010102D03*
X027210Y010068D03*
X027210Y010035D03*
X027210Y010002D03*
X027210Y009969D03*
X027210Y009935D03*
X027210Y009902D03*
X027210Y009869D03*
X027210Y009836D03*
X027210Y009803D03*
X027210Y009769D03*
X027210Y009736D03*
X027210Y009703D03*
X027210Y009670D03*
X027210Y009636D03*
X027210Y009603D03*
X027210Y009570D03*
X027210Y009537D03*
X027210Y009503D03*
X027210Y009470D03*
X027210Y009437D03*
X027210Y009404D03*
X027210Y009371D03*
X027210Y009337D03*
X027210Y009304D03*
X027210Y009271D03*
X027210Y009238D03*
X027210Y009204D03*
X027210Y009171D03*
X027210Y009138D03*
X027210Y009105D03*
X027210Y009071D03*
X027210Y009038D03*
X027210Y009005D03*
X027210Y008972D03*
X027210Y008939D03*
X027210Y008905D03*
X027210Y008872D03*
X027210Y008839D03*
X027210Y008806D03*
X027210Y008772D03*
X027210Y008739D03*
X027210Y008706D03*
X027210Y008673D03*
X027210Y008640D03*
X027210Y008606D03*
X027210Y008573D03*
X027210Y008540D03*
X027210Y008507D03*
X027210Y008473D03*
X027210Y008440D03*
X027210Y008407D03*
X027210Y008374D03*
X027210Y008340D03*
X027210Y008307D03*
X027210Y008274D03*
X027210Y008241D03*
X027210Y008208D03*
X027210Y008174D03*
X027210Y008141D03*
X027210Y008108D03*
X027210Y008075D03*
X027210Y008041D03*
X027210Y008008D03*
X027210Y007975D03*
X027210Y007942D03*
X027210Y007909D03*
X027210Y007875D03*
X027210Y007842D03*
X027210Y007809D03*
X027210Y007776D03*
X027210Y007742D03*
X027210Y007709D03*
X027210Y007676D03*
X027210Y007643D03*
X027210Y007609D03*
X027210Y007576D03*
X027210Y007543D03*
X027210Y007510D03*
X027210Y007477D03*
X027210Y007443D03*
X027210Y007410D03*
X027210Y007377D03*
X027210Y007344D03*
X027210Y007310D03*
X027210Y007277D03*
X027210Y007244D03*
X027210Y007211D03*
X027210Y007177D03*
X027210Y007144D03*
X027210Y007111D03*
X027210Y007078D03*
X027210Y007045D03*
X027210Y007011D03*
X027210Y006978D03*
X027210Y006945D03*
X027210Y006912D03*
X027210Y006878D03*
X027210Y006845D03*
X027210Y006812D03*
X027210Y006779D03*
X027210Y006746D03*
X027210Y006712D03*
X027210Y006679D03*
X027210Y006646D03*
X027210Y006613D03*
X027210Y006579D03*
X027210Y006546D03*
X027210Y006513D03*
X027210Y006480D03*
X027210Y006446D03*
X027210Y006413D03*
X027210Y006380D03*
X027210Y006347D03*
X027210Y006314D03*
X027210Y006280D03*
X027210Y006247D03*
X027210Y006214D03*
X027210Y006181D03*
X027210Y006147D03*
X027210Y006114D03*
X027210Y006081D03*
X027210Y006048D03*
X027210Y006014D03*
X027210Y005981D03*
X027210Y005948D03*
X027210Y005915D03*
X027210Y005882D03*
X027210Y005848D03*
X027210Y005815D03*
X027210Y005782D03*
X027210Y005749D03*
X027210Y005715D03*
X027210Y005682D03*
X027210Y005649D03*
X027210Y005616D03*
X027210Y005583D03*
X027210Y005549D03*
X027210Y005516D03*
X027210Y005483D03*
X027210Y005450D03*
X027210Y005416D03*
X027210Y005383D03*
X027210Y005350D03*
X027210Y005317D03*
X027210Y005283D03*
X027210Y005250D03*
X027210Y005217D03*
X027210Y005184D03*
X027210Y005151D03*
X027210Y005117D03*
X027210Y005084D03*
X027210Y005051D03*
X027210Y005018D03*
X027210Y004984D03*
X027210Y004951D03*
X027210Y004918D03*
X027210Y004885D03*
X027210Y004851D03*
X027210Y004818D03*
X027210Y004785D03*
X027210Y004752D03*
X027210Y004719D03*
X027210Y004685D03*
X027210Y004652D03*
X027210Y004619D03*
X027210Y004586D03*
X027210Y004552D03*
X027210Y004519D03*
X027210Y004486D03*
X027210Y004453D03*
X027210Y004420D03*
X027210Y004386D03*
X027210Y004353D03*
X027177Y004154D03*
X029436Y031035D03*
X029470Y031168D03*
X029503Y031334D03*
X029536Y031501D03*
X029536Y031534D03*
X029536Y031567D03*
X029569Y031833D03*
X029569Y031866D03*
X029569Y031899D03*
X029569Y031933D03*
X029569Y031966D03*
X029569Y031999D03*
X029569Y032032D03*
X029569Y032066D03*
X029569Y032099D03*
X029569Y032132D03*
X029569Y032165D03*
X029569Y032198D03*
X029569Y032232D03*
X029569Y032265D03*
X029569Y032298D03*
X029569Y032331D03*
X029569Y032365D03*
X029569Y032398D03*
X029569Y032431D03*
X029569Y032464D03*
X029569Y032497D03*
X029569Y032531D03*
X029569Y032564D03*
X029569Y032597D03*
X029569Y032630D03*
X029569Y032664D03*
X029569Y032697D03*
X029569Y032730D03*
X029569Y032763D03*
X029569Y032797D03*
X029569Y032830D03*
X029569Y032863D03*
X029569Y032896D03*
X029569Y032929D03*
X029569Y032963D03*
X029569Y032996D03*
X029569Y033029D03*
X029569Y033062D03*
X029569Y033096D03*
X029569Y033129D03*
X029569Y033162D03*
X029569Y033195D03*
X029569Y033229D03*
X029569Y033262D03*
X029569Y033295D03*
X029569Y033328D03*
X029569Y033361D03*
X029569Y033395D03*
X029569Y033428D03*
X029569Y033461D03*
X029569Y033494D03*
X029569Y033528D03*
X029569Y033561D03*
X029569Y033594D03*
X029569Y033627D03*
X029569Y033660D03*
X029569Y033694D03*
X029569Y033727D03*
X029569Y033760D03*
X029569Y033793D03*
X029569Y033827D03*
X029569Y033860D03*
X029569Y033893D03*
X029569Y033926D03*
X029569Y033960D03*
X029569Y033993D03*
X029569Y034026D03*
X029569Y034059D03*
X029569Y034092D03*
X029569Y034126D03*
X029569Y034159D03*
X029569Y034192D03*
X029569Y034225D03*
X029569Y034259D03*
X029569Y034292D03*
X029569Y034325D03*
X029569Y034358D03*
X029569Y034391D03*
X029569Y034425D03*
X029569Y034458D03*
X029569Y034491D03*
X029569Y034524D03*
X029569Y034558D03*
X029569Y034591D03*
X029569Y034624D03*
X029569Y034657D03*
X029569Y034691D03*
X029569Y034724D03*
X029569Y034757D03*
X029569Y034790D03*
X029569Y034823D03*
X029569Y034857D03*
X029569Y034890D03*
X029569Y034923D03*
X029569Y034956D03*
X029569Y034990D03*
X029569Y035023D03*
X029569Y035056D03*
X029569Y035089D03*
X029569Y035123D03*
X029569Y035156D03*
X029569Y035189D03*
X029569Y035222D03*
X029569Y035255D03*
X029569Y035289D03*
X029569Y035322D03*
X029569Y035355D03*
X029569Y035388D03*
X029569Y035422D03*
X029569Y035455D03*
X029569Y035488D03*
X029569Y035521D03*
X029569Y035554D03*
X029569Y035588D03*
X029569Y035621D03*
X029569Y035654D03*
X029569Y035687D03*
X029569Y035721D03*
X029569Y035754D03*
X029569Y035787D03*
X029569Y035820D03*
X029569Y035854D03*
X029569Y035887D03*
X029569Y035920D03*
X029569Y035953D03*
X029569Y035986D03*
X029569Y036020D03*
X029569Y036053D03*
X029569Y036086D03*
X029569Y036119D03*
X029569Y036153D03*
X029569Y036186D03*
X029569Y036219D03*
X029569Y036252D03*
X029569Y036286D03*
X029569Y036319D03*
X029569Y036352D03*
X029569Y036385D03*
X029569Y036418D03*
X029569Y036452D03*
X029569Y036485D03*
X029569Y036518D03*
X029569Y036551D03*
X029569Y036585D03*
X029569Y036618D03*
X029569Y036651D03*
X029569Y036684D03*
X029569Y036717D03*
X029569Y036751D03*
X029569Y036784D03*
X029569Y036817D03*
X029569Y036850D03*
X029569Y036884D03*
X029569Y036917D03*
X029569Y036950D03*
X029569Y036983D03*
X029569Y037017D03*
X029569Y037050D03*
X029569Y037083D03*
X029569Y037116D03*
X029569Y037149D03*
X029569Y037183D03*
X029569Y037216D03*
X029569Y037249D03*
X029569Y037282D03*
X029569Y037316D03*
X029569Y037349D03*
X029569Y037382D03*
X029569Y037415D03*
X029569Y037449D03*
X029569Y037482D03*
X029569Y037515D03*
X029569Y037548D03*
X029569Y037581D03*
X029569Y037615D03*
X029569Y037648D03*
X029569Y037681D03*
X029569Y037714D03*
X029569Y037748D03*
X029569Y037781D03*
X029569Y037814D03*
X029569Y037847D03*
X029569Y037880D03*
X029569Y037914D03*
X029569Y037947D03*
X029569Y037980D03*
X029569Y038013D03*
X029569Y038047D03*
X029569Y038080D03*
X029569Y038113D03*
X029569Y038146D03*
X029569Y038180D03*
X029569Y038213D03*
X029569Y038246D03*
X029569Y038279D03*
X029569Y038312D03*
X029569Y038346D03*
X029569Y038379D03*
X029569Y038412D03*
X029569Y038445D03*
X029569Y038479D03*
X029569Y038512D03*
X029569Y038545D03*
X029569Y038578D03*
X029569Y038611D03*
X029569Y038645D03*
X029569Y038678D03*
X029569Y038711D03*
X029569Y038744D03*
X029569Y038778D03*
X029569Y038811D03*
X029569Y038844D03*
X029569Y038877D03*
X029569Y038911D03*
X029569Y038944D03*
X029569Y038977D03*
X029569Y039010D03*
X029569Y039043D03*
X029569Y039077D03*
X029569Y039110D03*
X029569Y039143D03*
X029569Y039176D03*
X029569Y039210D03*
X029569Y039243D03*
X029569Y039276D03*
X029569Y039309D03*
X029569Y039343D03*
X029569Y039376D03*
X029569Y039409D03*
X029569Y039442D03*
X029569Y039475D03*
X029569Y039509D03*
X029569Y039542D03*
X029569Y039575D03*
X029569Y039608D03*
X029569Y039642D03*
X029569Y039675D03*
X029569Y039708D03*
X029569Y039741D03*
X029569Y039774D03*
X029569Y039808D03*
X029569Y039841D03*
X029569Y039874D03*
X029569Y039907D03*
X029569Y039941D03*
X029569Y039974D03*
X029569Y040007D03*
X029569Y040040D03*
X029569Y040074D03*
X029569Y040107D03*
X029569Y040140D03*
X029569Y040173D03*
X029569Y040206D03*
X029569Y040240D03*
X029569Y040273D03*
X029569Y040306D03*
X029569Y040339D03*
X029569Y040373D03*
X029569Y040406D03*
X029569Y040439D03*
X029569Y040472D03*
X029569Y040506D03*
X029569Y040539D03*
X029569Y040572D03*
X029569Y040605D03*
X029569Y040638D03*
X029569Y040672D03*
X029569Y040705D03*
X029569Y040738D03*
X029569Y040771D03*
X029569Y040805D03*
X029569Y040838D03*
X029569Y040871D03*
X029569Y040904D03*
X029569Y040937D03*
X029569Y040971D03*
X029569Y041004D03*
X029569Y041037D03*
X029569Y041070D03*
X029569Y041104D03*
X029569Y041137D03*
X029569Y041170D03*
X029569Y041203D03*
X029569Y041237D03*
X029569Y041270D03*
X029569Y041303D03*
X029569Y041336D03*
X029569Y041369D03*
X029569Y041403D03*
X029569Y041436D03*
X029569Y041469D03*
X029569Y041502D03*
X029569Y041536D03*
X029569Y041569D03*
X029569Y041602D03*
X029569Y041635D03*
X029569Y041669D03*
X029569Y041702D03*
X029569Y041735D03*
X029569Y041768D03*
X029569Y041801D03*
X029569Y041835D03*
X029569Y041868D03*
X029569Y041901D03*
X029569Y041934D03*
X029569Y041968D03*
X029569Y042001D03*
X029569Y042034D03*
X029569Y042067D03*
X029569Y042100D03*
X029569Y042134D03*
X029569Y042167D03*
X029569Y042200D03*
X029569Y042233D03*
X029569Y042267D03*
X029569Y042300D03*
X029569Y042333D03*
X029569Y042366D03*
X029569Y042400D03*
X029569Y042433D03*
X029569Y042466D03*
X029569Y042499D03*
X029569Y042532D03*
X029569Y042566D03*
X029569Y042599D03*
X029569Y042632D03*
X029569Y042665D03*
X029569Y042699D03*
X029569Y042732D03*
X029569Y042765D03*
X029569Y042798D03*
X029569Y042831D03*
X029569Y042865D03*
X029569Y042898D03*
X029569Y042931D03*
X029569Y042964D03*
X029569Y042998D03*
X029569Y043031D03*
X029569Y043064D03*
X029569Y043097D03*
X029569Y043131D03*
X029569Y043164D03*
X029569Y043197D03*
X029569Y043230D03*
X029569Y043263D03*
X029569Y043297D03*
X029569Y043330D03*
X029569Y043363D03*
X029569Y043396D03*
X029569Y043430D03*
X029569Y043463D03*
X029569Y043496D03*
X029569Y043529D03*
X029569Y043563D03*
X029569Y043596D03*
X029569Y043629D03*
X029569Y043662D03*
X029569Y043695D03*
X029569Y043729D03*
X029569Y043762D03*
X029569Y043795D03*
X029569Y043828D03*
X029569Y043862D03*
X029569Y043895D03*
X029569Y043928D03*
X029569Y043961D03*
X029569Y043994D03*
X029569Y044028D03*
X029569Y044061D03*
X029569Y044094D03*
X029569Y044127D03*
X029569Y044161D03*
X029569Y044194D03*
X029569Y044227D03*
X029569Y044260D03*
X029569Y044294D03*
X029569Y044327D03*
X029569Y044360D03*
X029569Y044393D03*
X029569Y044426D03*
X029569Y044460D03*
X029569Y044493D03*
X029569Y044526D03*
X029569Y044559D03*
X029569Y044593D03*
X029569Y044626D03*
X029569Y044659D03*
X029569Y044692D03*
X029569Y044726D03*
X029569Y044759D03*
X029569Y044792D03*
X029569Y044825D03*
X029569Y044858D03*
X029569Y044892D03*
X029569Y044925D03*
X029569Y044958D03*
X029569Y044991D03*
X029569Y045025D03*
X029569Y045058D03*
X029569Y045091D03*
X029569Y045124D03*
X029569Y045157D03*
X029569Y045191D03*
X029569Y045224D03*
X029569Y045257D03*
X029569Y045290D03*
X029569Y045324D03*
X029569Y045357D03*
X029569Y045390D03*
X029569Y045423D03*
X029569Y045457D03*
X029569Y045490D03*
X029569Y045523D03*
X029569Y045556D03*
X029569Y045589D03*
X029569Y045623D03*
X029569Y045656D03*
X029569Y045689D03*
X029569Y045722D03*
X029569Y045756D03*
X029569Y045789D03*
X029569Y045822D03*
X029569Y045855D03*
X029569Y045889D03*
X029569Y045922D03*
X029569Y045955D03*
X029569Y045988D03*
X029569Y046021D03*
X029569Y046055D03*
X029569Y046088D03*
X029569Y046121D03*
X029569Y046154D03*
X029569Y046188D03*
X029569Y046221D03*
X029569Y046254D03*
X029569Y046287D03*
X029569Y046320D03*
X029569Y046354D03*
X029569Y046387D03*
X029569Y046420D03*
X029569Y046453D03*
X029569Y046487D03*
X029569Y046520D03*
X029569Y046553D03*
X029569Y046586D03*
X029569Y046620D03*
X029569Y046653D03*
X029569Y046686D03*
X029569Y046719D03*
X029569Y046752D03*
X029569Y046786D03*
X029569Y046819D03*
X029569Y046852D03*
X029569Y046885D03*
X029569Y046919D03*
X029569Y046952D03*
X029569Y046985D03*
X029569Y047018D03*
X029569Y047051D03*
X029569Y047085D03*
X029536Y047284D03*
D26*
X015248Y043862D03*
D27*
X015231Y043895D03*
D28*
X015231Y043928D03*
D29*
X015248Y043961D03*
D30*
X002355Y048813D03*
D31*
X028124Y048813D03*
D32*
X004482Y048846D03*
D33*
X004482Y048879D03*
X026080Y048846D03*
D34*
X026080Y048879D03*
D35*
X004515Y048912D03*
D36*
X026080Y048912D03*
D37*
X004532Y048946D03*
D38*
X026047Y048946D03*
D39*
X028787Y038691D02*
X028789Y038718D01*
X028795Y038744D01*
X028804Y038769D01*
X028817Y038792D01*
X028833Y038813D01*
X028852Y038832D01*
X028873Y038848D01*
X028896Y038861D01*
X028921Y038870D01*
X028947Y038876D01*
X028974Y038878D01*
X029001Y038876D01*
X029027Y038870D01*
X029052Y038861D01*
X029075Y038848D01*
X029096Y038832D01*
X029115Y038813D01*
X029131Y038792D01*
X029144Y038769D01*
X029153Y038744D01*
X029159Y038718D01*
X029161Y038691D01*
X029159Y038664D01*
X029153Y038638D01*
X029144Y038613D01*
X029131Y038590D01*
X029115Y038569D01*
X029096Y038550D01*
X029075Y038534D01*
X029052Y038521D01*
X029027Y038512D01*
X029001Y038506D01*
X028974Y038504D01*
X028947Y038506D01*
X028921Y038512D01*
X028896Y038521D01*
X028873Y038534D01*
X028852Y038550D01*
X028833Y038569D01*
X028817Y038590D01*
X028804Y038613D01*
X028795Y038638D01*
X028789Y038664D01*
X028787Y038691D01*
X028787Y037786D02*
X028789Y037813D01*
X028795Y037839D01*
X028804Y037864D01*
X028817Y037887D01*
X028833Y037908D01*
X028852Y037927D01*
X028873Y037943D01*
X028896Y037956D01*
X028921Y037965D01*
X028947Y037971D01*
X028974Y037973D01*
X029001Y037971D01*
X029027Y037965D01*
X029052Y037956D01*
X029075Y037943D01*
X029096Y037927D01*
X029115Y037908D01*
X029131Y037887D01*
X029144Y037864D01*
X029153Y037839D01*
X029159Y037813D01*
X029161Y037786D01*
X029159Y037759D01*
X029153Y037733D01*
X029144Y037708D01*
X029131Y037685D01*
X029115Y037664D01*
X029096Y037645D01*
X029075Y037629D01*
X029052Y037616D01*
X029027Y037607D01*
X029001Y037601D01*
X028974Y037599D01*
X028947Y037601D01*
X028921Y037607D01*
X028896Y037616D01*
X028873Y037629D01*
X028852Y037645D01*
X028833Y037664D01*
X028817Y037685D01*
X028804Y037708D01*
X028795Y037733D01*
X028789Y037759D01*
X028787Y037786D01*
X017010Y005235D02*
X016985Y005239D01*
X016945Y005239D01*
X016920Y005235D01*
X016896Y005226D01*
X016876Y005210D01*
X016860Y005190D01*
X016850Y005166D01*
X016847Y005140D01*
X016847Y004747D01*
X016850Y004721D01*
X016860Y004697D01*
X016876Y004677D01*
X016896Y004661D01*
X016920Y004652D01*
X016945Y004648D01*
X016985Y004648D01*
X017010Y004652D01*
X017034Y004661D01*
X017054Y004677D01*
X017070Y004697D01*
X017080Y004721D01*
X017083Y004747D01*
X017083Y005140D01*
X017080Y005166D01*
X017070Y005190D01*
X017054Y005210D01*
X017034Y005226D01*
X017010Y005235D01*
X016292Y004727D02*
X016294Y004748D01*
X016300Y004768D01*
X016309Y004788D01*
X016321Y004805D01*
X016336Y004819D01*
X016354Y004831D01*
X016374Y004839D01*
X016394Y004844D01*
X016415Y004845D01*
X016436Y004842D01*
X016456Y004836D01*
X016475Y004825D01*
X016492Y004812D01*
X016505Y004796D01*
X016516Y004778D01*
X016524Y004758D01*
X016528Y004738D01*
X016528Y004716D01*
X016524Y004696D01*
X016516Y004676D01*
X016505Y004658D01*
X016492Y004642D01*
X016475Y004629D01*
X016456Y004618D01*
X016436Y004612D01*
X016415Y004609D01*
X016394Y004610D01*
X016374Y004615D01*
X016354Y004623D01*
X016336Y004635D01*
X016321Y004649D01*
X016309Y004666D01*
X016300Y004686D01*
X016294Y004706D01*
X016292Y004727D01*
X016896Y003533D02*
X016876Y003517D01*
X016860Y003497D01*
X016850Y003473D01*
X016847Y003447D01*
X016847Y003132D01*
X016850Y003107D01*
X016860Y003083D01*
X016876Y003063D01*
X016896Y003047D01*
X016920Y003037D01*
X016945Y003034D01*
X016985Y003034D01*
X017010Y003037D01*
X017034Y003047D01*
X017054Y003063D01*
X017070Y003083D01*
X017080Y003107D01*
X017083Y003132D01*
X017083Y003447D01*
X017080Y003473D01*
X017070Y003497D01*
X017054Y003517D01*
X017034Y003533D01*
X017010Y003542D01*
X016985Y003546D01*
X016945Y003546D01*
X016920Y003542D01*
X016896Y003533D01*
X014016Y004727D02*
X014018Y004748D01*
X014024Y004768D01*
X014033Y004788D01*
X014045Y004805D01*
X014060Y004819D01*
X014078Y004831D01*
X014098Y004839D01*
X014118Y004844D01*
X014139Y004845D01*
X014160Y004842D01*
X014180Y004836D01*
X014199Y004825D01*
X014216Y004812D01*
X014229Y004796D01*
X014240Y004778D01*
X014248Y004758D01*
X014252Y004738D01*
X014252Y004716D01*
X014248Y004696D01*
X014240Y004676D01*
X014229Y004658D01*
X014216Y004642D01*
X014199Y004629D01*
X014180Y004618D01*
X014160Y004612D01*
X014139Y004609D01*
X014118Y004610D01*
X014098Y004615D01*
X014078Y004623D01*
X014060Y004635D01*
X014045Y004649D01*
X014033Y004666D01*
X014024Y004686D01*
X014018Y004706D01*
X014016Y004727D01*
X013697Y004747D02*
X013697Y005140D01*
X013694Y005166D01*
X013684Y005190D01*
X013668Y005210D01*
X013648Y005226D01*
X013624Y005235D01*
X013599Y005239D01*
X013560Y005239D01*
X013534Y005235D01*
X013510Y005226D01*
X013490Y005210D01*
X013474Y005190D01*
X013464Y005166D01*
X013461Y005140D01*
X013461Y004747D01*
X013464Y004721D01*
X013474Y004697D01*
X013490Y004677D01*
X013510Y004661D01*
X013534Y004652D01*
X013560Y004648D01*
X013599Y004648D01*
X013624Y004652D01*
X013648Y004661D01*
X013668Y004677D01*
X013684Y004697D01*
X013694Y004721D01*
X013697Y004747D01*
X013599Y003546D02*
X013560Y003546D01*
X013534Y003542D01*
X013510Y003533D01*
X013490Y003517D01*
X013474Y003497D01*
X013464Y003473D01*
X013461Y003447D01*
X013461Y003132D01*
X013464Y003107D01*
X013474Y003083D01*
X013490Y003063D01*
X013510Y003047D01*
X013534Y003037D01*
X013560Y003034D01*
X013599Y003034D01*
X013624Y003037D01*
X013648Y003047D01*
X013668Y003063D01*
X013684Y003083D01*
X013694Y003107D01*
X013697Y003132D01*
X013697Y003447D01*
X013694Y003473D01*
X013684Y003497D01*
X013668Y003517D01*
X013648Y003533D01*
X013624Y003542D01*
X013599Y003546D01*
X001322Y037786D02*
X001324Y037813D01*
X001330Y037839D01*
X001339Y037864D01*
X001352Y037887D01*
X001368Y037908D01*
X001387Y037927D01*
X001408Y037943D01*
X001431Y037956D01*
X001456Y037965D01*
X001482Y037971D01*
X001509Y037973D01*
X001536Y037971D01*
X001562Y037965D01*
X001587Y037956D01*
X001610Y037943D01*
X001631Y037927D01*
X001650Y037908D01*
X001666Y037887D01*
X001679Y037864D01*
X001688Y037839D01*
X001694Y037813D01*
X001696Y037786D01*
X001694Y037759D01*
X001688Y037733D01*
X001679Y037708D01*
X001666Y037685D01*
X001650Y037664D01*
X001631Y037645D01*
X001610Y037629D01*
X001587Y037616D01*
X001562Y037607D01*
X001536Y037601D01*
X001509Y037599D01*
X001482Y037601D01*
X001456Y037607D01*
X001431Y037616D01*
X001408Y037629D01*
X001387Y037645D01*
X001368Y037664D01*
X001352Y037685D01*
X001339Y037708D01*
X001330Y037733D01*
X001324Y037759D01*
X001322Y037786D01*
X001322Y038691D02*
X001324Y038718D01*
X001330Y038744D01*
X001339Y038769D01*
X001352Y038792D01*
X001368Y038813D01*
X001387Y038832D01*
X001408Y038848D01*
X001431Y038861D01*
X001456Y038870D01*
X001482Y038876D01*
X001509Y038878D01*
X001536Y038876D01*
X001562Y038870D01*
X001587Y038861D01*
X001610Y038848D01*
X001631Y038832D01*
X001650Y038813D01*
X001666Y038792D01*
X001679Y038769D01*
X001688Y038744D01*
X001694Y038718D01*
X001696Y038691D01*
X001694Y038664D01*
X001688Y038638D01*
X001679Y038613D01*
X001666Y038590D01*
X001650Y038569D01*
X001631Y038550D01*
X001610Y038534D01*
X001587Y038521D01*
X001562Y038512D01*
X001536Y038506D01*
X001509Y038504D01*
X001482Y038506D01*
X001456Y038512D01*
X001431Y038521D01*
X001408Y038534D01*
X001387Y038550D01*
X001368Y038569D01*
X001352Y038590D01*
X001339Y038613D01*
X001330Y038638D01*
X001324Y038664D01*
X001322Y038691D01*
D40*
X013737Y004052D02*
X013760Y004052D01*
X013807Y004006D01*
X013807Y004052D02*
X013807Y003959D01*
X013861Y004006D02*
X013954Y004006D01*
X013954Y004029D02*
X013931Y004052D01*
X013884Y004052D01*
X013861Y004029D01*
X013861Y004006D01*
X013884Y003959D02*
X013931Y003959D01*
X013954Y003982D01*
X013954Y004029D01*
X014008Y004029D02*
X014008Y003982D01*
X014031Y003959D01*
X014101Y003959D01*
X014101Y003912D02*
X014101Y004052D01*
X014031Y004052D01*
X014008Y004029D01*
X014155Y004029D02*
X014155Y003982D01*
X014179Y003959D01*
X014249Y003959D01*
X014249Y003912D02*
X014249Y004052D01*
X014179Y004052D01*
X014155Y004029D01*
X014303Y004029D02*
X014326Y004052D01*
X014373Y004052D01*
X014396Y004029D01*
X014396Y003982D01*
X014373Y003959D01*
X014326Y003959D01*
X014303Y003982D01*
X014303Y004029D01*
X014450Y004052D02*
X014520Y004052D01*
X014543Y004029D01*
X014543Y003982D01*
X014520Y003959D01*
X014450Y003959D01*
X014745Y003959D02*
X014745Y004029D01*
X014768Y004052D01*
X014815Y004052D01*
X014838Y004029D01*
X014890Y004052D02*
X014936Y004052D01*
X014913Y004076D02*
X014913Y003982D01*
X014890Y003959D01*
X014838Y003959D02*
X014838Y004099D01*
X015011Y004099D02*
X015011Y004122D01*
X015011Y004052D02*
X015011Y003959D01*
X015034Y003959D02*
X014988Y003959D01*
X015011Y004052D02*
X015034Y004052D01*
X015088Y004052D02*
X015088Y003982D01*
X015112Y003959D01*
X015135Y003982D01*
X015158Y003959D01*
X015182Y003982D01*
X015182Y004052D01*
X015383Y004052D02*
X015453Y004052D01*
X015476Y004029D01*
X015453Y004006D01*
X015406Y004006D01*
X015383Y003982D01*
X015406Y003959D01*
X015476Y003959D01*
X015528Y003959D02*
X015575Y003959D01*
X015551Y003959D02*
X015551Y004099D01*
X015575Y004099D01*
X015650Y004099D02*
X015650Y003959D01*
X015673Y003959D02*
X015626Y003959D01*
X015724Y003959D02*
X015771Y003959D01*
X015748Y003959D02*
X015748Y004052D01*
X015771Y004052D01*
X015748Y004099D02*
X015748Y004122D01*
X015673Y004099D02*
X015650Y004099D01*
X015824Y004052D02*
X015847Y004052D01*
X015894Y004006D01*
X015894Y004052D02*
X015894Y003959D01*
X015948Y003982D02*
X015971Y003959D01*
X016041Y003959D01*
X016041Y004099D01*
X015971Y004099D01*
X015948Y004076D01*
X015948Y003982D01*
X016240Y003959D02*
X016263Y003982D01*
X016263Y004076D01*
X016287Y004052D02*
X016240Y004052D01*
X016341Y004029D02*
X016364Y004052D01*
X016411Y004052D01*
X016434Y004029D01*
X016434Y003982D01*
X016411Y003959D01*
X016364Y003959D01*
X016341Y003982D01*
X016341Y004029D01*
X016486Y003959D02*
X016532Y003959D01*
X016509Y003959D02*
X016509Y004099D01*
X016532Y004099D01*
X016586Y004076D02*
X016610Y004099D01*
X016656Y004099D01*
X016680Y004076D01*
X016680Y004052D01*
X016656Y004029D01*
X016610Y004029D01*
X016586Y004006D01*
X016586Y003982D01*
X016610Y003959D01*
X016656Y003959D01*
X016680Y003982D01*
D41*
X016896Y003533D02*
X017034Y003533D01*
X017035Y003532D02*
X016895Y003532D01*
X016894Y003531D02*
X017037Y003531D01*
X017038Y003530D02*
X016892Y003530D01*
X016891Y003529D02*
X017039Y003529D01*
X017040Y003528D02*
X016890Y003528D01*
X016888Y003527D02*
X017042Y003527D01*
X017043Y003526D02*
X016887Y003526D01*
X016886Y003525D02*
X017044Y003525D01*
X017046Y003524D02*
X016884Y003524D01*
X016883Y003523D02*
X017047Y003523D01*
X017048Y003522D02*
X016882Y003522D01*
X016881Y003521D02*
X017050Y003521D01*
X017051Y003520D02*
X016879Y003520D01*
X016878Y003519D02*
X017052Y003519D01*
X017053Y003518D02*
X016877Y003518D01*
X016875Y003517D02*
X017055Y003517D01*
X017055Y003516D02*
X016875Y003516D01*
X016874Y003515D02*
X017056Y003515D01*
X017057Y003514D02*
X016873Y003514D01*
X016872Y003513D02*
X017058Y003513D01*
X017058Y003512D02*
X016872Y003512D01*
X016871Y003511D02*
X017059Y003511D01*
X017060Y003510D02*
X016870Y003510D01*
X016869Y003509D02*
X017061Y003509D01*
X017061Y003508D02*
X016869Y003508D01*
X016868Y003507D02*
X017062Y003507D01*
X017063Y003506D02*
X016867Y003506D01*
X016866Y003505D02*
X017064Y003505D01*
X017065Y003504D02*
X016866Y003504D01*
X016865Y003503D02*
X017065Y003503D01*
X017066Y003502D02*
X016864Y003502D01*
X016863Y003501D02*
X017067Y003501D01*
X017068Y003500D02*
X016862Y003500D01*
X016862Y003499D02*
X017068Y003499D01*
X017069Y003498D02*
X016861Y003498D01*
X016860Y003497D02*
X017070Y003497D01*
X017070Y003496D02*
X016860Y003496D01*
X016859Y003495D02*
X017071Y003495D01*
X017071Y003494D02*
X016859Y003494D01*
X016858Y003493D02*
X017072Y003493D01*
X017072Y003492D02*
X016858Y003492D01*
X016858Y003491D02*
X017072Y003491D01*
X017073Y003490D02*
X016857Y003490D01*
X016857Y003489D02*
X017073Y003489D01*
X017074Y003488D02*
X016856Y003488D01*
X016856Y003487D02*
X017074Y003487D01*
X017074Y003486D02*
X016856Y003486D01*
X016855Y003485D02*
X017075Y003485D01*
X017075Y003484D02*
X016855Y003484D01*
X016854Y003483D02*
X017076Y003483D01*
X017076Y003482D02*
X016854Y003482D01*
X016854Y003481D02*
X017077Y003481D01*
X017077Y003480D02*
X016853Y003480D01*
X016853Y003479D02*
X017077Y003479D01*
X017078Y003478D02*
X016852Y003478D01*
X016852Y003477D02*
X017078Y003477D01*
X017079Y003476D02*
X016851Y003476D01*
X016851Y003475D02*
X017079Y003475D01*
X017079Y003474D02*
X016851Y003474D01*
X016850Y003473D02*
X017080Y003473D01*
X017080Y003472D02*
X016850Y003472D01*
X016850Y003471D02*
X017080Y003471D01*
X017080Y003470D02*
X016850Y003470D01*
X016850Y003469D02*
X017080Y003469D01*
X017080Y003468D02*
X016850Y003468D01*
X016849Y003467D02*
X017081Y003467D01*
X017081Y003466D02*
X016849Y003466D01*
X016849Y003465D02*
X017081Y003465D01*
X017081Y003464D02*
X016849Y003464D01*
X016849Y003463D02*
X017081Y003463D01*
X017081Y003462D02*
X016849Y003462D01*
X016849Y003461D02*
X017081Y003461D01*
X017082Y003460D02*
X016849Y003460D01*
X016848Y003459D02*
X017082Y003459D01*
X017082Y003458D02*
X016848Y003458D01*
X016848Y003457D02*
X017082Y003457D01*
X017082Y003456D02*
X016848Y003456D01*
X016848Y003455D02*
X017082Y003455D01*
X017082Y003454D02*
X016848Y003454D01*
X016848Y003453D02*
X017082Y003453D01*
X017083Y003452D02*
X016847Y003452D01*
X016847Y003451D02*
X017083Y003451D01*
X017083Y003450D02*
X016847Y003450D01*
X016847Y003449D02*
X017083Y003449D01*
X017083Y003448D02*
X016847Y003448D01*
X016847Y003447D02*
X017083Y003447D01*
X017083Y003446D02*
X016847Y003446D01*
X016847Y003445D02*
X017083Y003445D01*
X017083Y003444D02*
X016847Y003444D01*
X016847Y003443D02*
X017083Y003443D01*
X017083Y003442D02*
X016847Y003442D01*
X016847Y003441D02*
X017083Y003441D01*
X017083Y003440D02*
X016847Y003440D01*
X016847Y003439D02*
X017083Y003439D01*
X017083Y003438D02*
X016847Y003438D01*
X016847Y003437D02*
X017083Y003437D01*
X017083Y003436D02*
X016847Y003436D01*
X016847Y003435D02*
X017083Y003435D01*
X017083Y003434D02*
X016847Y003434D01*
X016847Y003433D02*
X017083Y003433D01*
X017083Y003432D02*
X016847Y003432D01*
X016847Y003431D02*
X017083Y003431D01*
X017083Y003430D02*
X016847Y003430D01*
X016847Y003429D02*
X017083Y003429D01*
X017083Y003428D02*
X016847Y003428D01*
X016847Y003427D02*
X017083Y003427D01*
X017083Y003426D02*
X016847Y003426D01*
X016847Y003425D02*
X017083Y003425D01*
X017083Y003424D02*
X016847Y003424D01*
X016847Y003423D02*
X017083Y003423D01*
X017083Y003422D02*
X016847Y003422D01*
X016847Y003421D02*
X017083Y003421D01*
X017083Y003420D02*
X016847Y003420D01*
X016847Y003419D02*
X017083Y003419D01*
X017083Y003418D02*
X016847Y003418D01*
X016847Y003417D02*
X017083Y003417D01*
X017083Y003416D02*
X016847Y003416D01*
X016847Y003415D02*
X017083Y003415D01*
X017083Y003414D02*
X016847Y003414D01*
X016847Y003413D02*
X017083Y003413D01*
X017083Y003412D02*
X016847Y003412D01*
X016847Y003411D02*
X017083Y003411D01*
X017083Y003410D02*
X016847Y003410D01*
X016847Y003409D02*
X017083Y003409D01*
X017083Y003408D02*
X016847Y003408D01*
X016847Y003407D02*
X017083Y003407D01*
X017083Y003406D02*
X016847Y003406D01*
X016847Y003405D02*
X017083Y003405D01*
X017083Y003404D02*
X016847Y003404D01*
X016847Y003403D02*
X017083Y003403D01*
X017083Y003402D02*
X016847Y003402D01*
X016847Y003401D02*
X017083Y003401D01*
X017083Y003400D02*
X016847Y003400D01*
X016847Y003399D02*
X017083Y003399D01*
X017083Y003398D02*
X016847Y003398D01*
X016847Y003397D02*
X017083Y003397D01*
X017083Y003396D02*
X016847Y003396D01*
X016847Y003395D02*
X017083Y003395D01*
X017083Y003394D02*
X016847Y003394D01*
X016847Y003393D02*
X017083Y003393D01*
X017083Y003392D02*
X016847Y003392D01*
X016847Y003391D02*
X017083Y003391D01*
X017083Y003390D02*
X016847Y003390D01*
X016847Y003389D02*
X017083Y003389D01*
X017083Y003388D02*
X016847Y003388D01*
X016847Y003387D02*
X017083Y003387D01*
X017083Y003386D02*
X016847Y003386D01*
X016847Y003385D02*
X017083Y003385D01*
X017083Y003384D02*
X016847Y003384D01*
X016847Y003383D02*
X017083Y003383D01*
X017083Y003382D02*
X016847Y003382D01*
X016847Y003381D02*
X017083Y003381D01*
X017083Y003380D02*
X016847Y003380D01*
X016847Y003379D02*
X017083Y003379D01*
X017083Y003378D02*
X016847Y003378D01*
X016847Y003377D02*
X017083Y003377D01*
X017083Y003376D02*
X016847Y003376D01*
X016847Y003375D02*
X017083Y003375D01*
X017083Y003374D02*
X016847Y003374D01*
X016847Y003373D02*
X017083Y003373D01*
X017083Y003372D02*
X016847Y003372D01*
X016847Y003371D02*
X017083Y003371D01*
X017083Y003370D02*
X016847Y003370D01*
X016847Y003369D02*
X017083Y003369D01*
X017083Y003368D02*
X016847Y003368D01*
X016847Y003367D02*
X017083Y003367D01*
X017083Y003366D02*
X016847Y003366D01*
X016847Y003365D02*
X017083Y003365D01*
X017083Y003364D02*
X016847Y003364D01*
X016847Y003363D02*
X017083Y003363D01*
X017083Y003362D02*
X016847Y003362D01*
X016847Y003361D02*
X017083Y003361D01*
X017083Y003360D02*
X016847Y003360D01*
X016847Y003359D02*
X017083Y003359D01*
X017083Y003358D02*
X016847Y003358D01*
X016847Y003357D02*
X017083Y003357D01*
X017083Y003356D02*
X016847Y003356D01*
X016847Y003355D02*
X017083Y003355D01*
X017083Y003354D02*
X016847Y003354D01*
X016847Y003353D02*
X017083Y003353D01*
X017083Y003352D02*
X016847Y003352D01*
X016847Y003351D02*
X017083Y003351D01*
X017083Y003350D02*
X016847Y003350D01*
X016847Y003349D02*
X017083Y003349D01*
X017083Y003348D02*
X016847Y003348D01*
X016847Y003347D02*
X017083Y003347D01*
X017083Y003346D02*
X016847Y003346D01*
X016847Y003345D02*
X017083Y003345D01*
X017083Y003344D02*
X016847Y003344D01*
X016847Y003343D02*
X017083Y003343D01*
X017083Y003342D02*
X016847Y003342D01*
X016847Y003341D02*
X017083Y003341D01*
X017083Y003340D02*
X016847Y003340D01*
X016847Y003339D02*
X017083Y003339D01*
X017083Y003338D02*
X016847Y003338D01*
X016847Y003337D02*
X017083Y003337D01*
X017083Y003336D02*
X016847Y003336D01*
X016847Y003335D02*
X017083Y003335D01*
X017083Y003334D02*
X016847Y003334D01*
X016847Y003333D02*
X017083Y003333D01*
X017083Y003332D02*
X016847Y003332D01*
X016847Y003331D02*
X017083Y003331D01*
X017083Y003330D02*
X016847Y003330D01*
X016847Y003329D02*
X017083Y003329D01*
X017083Y003328D02*
X016847Y003328D01*
X016847Y003327D02*
X017083Y003327D01*
X017083Y003326D02*
X016847Y003326D01*
X016847Y003325D02*
X017083Y003325D01*
X017083Y003324D02*
X016847Y003324D01*
X016847Y003323D02*
X017083Y003323D01*
X017083Y003322D02*
X016847Y003322D01*
X016847Y003321D02*
X017083Y003321D01*
X017083Y003320D02*
X016847Y003320D01*
X016847Y003319D02*
X017083Y003319D01*
X017083Y003318D02*
X016847Y003318D01*
X016847Y003317D02*
X017083Y003317D01*
X017083Y003316D02*
X016847Y003316D01*
X016847Y003315D02*
X017083Y003315D01*
X017083Y003314D02*
X016847Y003314D01*
X016847Y003313D02*
X017083Y003313D01*
X017083Y003312D02*
X016847Y003312D01*
X016847Y003311D02*
X017083Y003311D01*
X017083Y003310D02*
X016847Y003310D01*
X016847Y003309D02*
X017083Y003309D01*
X017083Y003308D02*
X016847Y003308D01*
X016847Y003307D02*
X017083Y003307D01*
X017083Y003306D02*
X016847Y003306D01*
X016847Y003305D02*
X017083Y003305D01*
X017083Y003304D02*
X016847Y003304D01*
X016847Y003303D02*
X017083Y003303D01*
X017083Y003302D02*
X016847Y003302D01*
X016847Y003301D02*
X017083Y003301D01*
X017083Y003300D02*
X016847Y003300D01*
X016847Y003299D02*
X017083Y003299D01*
X017083Y003298D02*
X016847Y003298D01*
X016847Y003297D02*
X017083Y003297D01*
X017083Y003296D02*
X016847Y003296D01*
X016847Y003295D02*
X017083Y003295D01*
X017083Y003294D02*
X016847Y003294D01*
X016847Y003293D02*
X017083Y003293D01*
X017083Y003292D02*
X016847Y003292D01*
X016847Y003291D02*
X017083Y003291D01*
X017083Y003290D02*
X016847Y003290D01*
X016847Y003289D02*
X017083Y003289D01*
X017083Y003288D02*
X016847Y003288D01*
X016847Y003287D02*
X017083Y003287D01*
X017083Y003286D02*
X016847Y003286D01*
X016847Y003285D02*
X017083Y003285D01*
X017083Y003284D02*
X016847Y003284D01*
X016847Y003283D02*
X017083Y003283D01*
X017083Y003282D02*
X016847Y003282D01*
X016847Y003281D02*
X017083Y003281D01*
X017083Y003280D02*
X016847Y003280D01*
X016847Y003279D02*
X017083Y003279D01*
X017083Y003278D02*
X016847Y003278D01*
X016847Y003277D02*
X017083Y003277D01*
X017083Y003276D02*
X016847Y003276D01*
X016847Y003275D02*
X017083Y003275D01*
X017083Y003274D02*
X016847Y003274D01*
X016847Y003273D02*
X017083Y003273D01*
X017083Y003272D02*
X016847Y003272D01*
X016847Y003271D02*
X017083Y003271D01*
X017083Y003270D02*
X016847Y003270D01*
X016847Y003269D02*
X017083Y003269D01*
X017083Y003268D02*
X016847Y003268D01*
X016847Y003267D02*
X017083Y003267D01*
X017083Y003266D02*
X016847Y003266D01*
X016847Y003265D02*
X017083Y003265D01*
X017083Y003264D02*
X016847Y003264D01*
X016847Y003263D02*
X017083Y003263D01*
X017083Y003262D02*
X016847Y003262D01*
X016847Y003261D02*
X017083Y003261D01*
X017083Y003260D02*
X016847Y003260D01*
X016847Y003259D02*
X017083Y003259D01*
X017083Y003258D02*
X016847Y003258D01*
X016847Y003257D02*
X017083Y003257D01*
X017083Y003256D02*
X016847Y003256D01*
X016847Y003255D02*
X017083Y003255D01*
X017083Y003254D02*
X016847Y003254D01*
X016847Y003253D02*
X017083Y003253D01*
X017083Y003252D02*
X016847Y003252D01*
X016847Y003251D02*
X017083Y003251D01*
X017083Y003250D02*
X016847Y003250D01*
X016847Y003249D02*
X017083Y003249D01*
X017083Y003248D02*
X016847Y003248D01*
X016847Y003247D02*
X017083Y003247D01*
X017083Y003246D02*
X016847Y003246D01*
X016847Y003245D02*
X017083Y003245D01*
X017083Y003244D02*
X016847Y003244D01*
X016847Y003243D02*
X017083Y003243D01*
X017083Y003242D02*
X016847Y003242D01*
X016847Y003241D02*
X017083Y003241D01*
X017083Y003240D02*
X016847Y003240D01*
X016847Y003239D02*
X017083Y003239D01*
X017083Y003238D02*
X016847Y003238D01*
X016847Y003237D02*
X017083Y003237D01*
X017083Y003236D02*
X016847Y003236D01*
X016847Y003235D02*
X017083Y003235D01*
X017083Y003234D02*
X016847Y003234D01*
X016847Y003233D02*
X017083Y003233D01*
X017083Y003232D02*
X016847Y003232D01*
X016847Y003231D02*
X017083Y003231D01*
X017083Y003230D02*
X016847Y003230D01*
X016847Y003229D02*
X017083Y003229D01*
X017083Y003228D02*
X016847Y003228D01*
X016847Y003227D02*
X017083Y003227D01*
X017083Y003226D02*
X016847Y003226D01*
X016847Y003225D02*
X017083Y003225D01*
X017083Y003224D02*
X016847Y003224D01*
X016847Y003223D02*
X017083Y003223D01*
X017083Y003222D02*
X016847Y003222D01*
X016847Y003221D02*
X017083Y003221D01*
X017083Y003220D02*
X016847Y003220D01*
X016847Y003219D02*
X017083Y003219D01*
X017083Y003218D02*
X016847Y003218D01*
X016847Y003217D02*
X017083Y003217D01*
X017083Y003216D02*
X016847Y003216D01*
X016847Y003215D02*
X017083Y003215D01*
X017083Y003214D02*
X016847Y003214D01*
X016847Y003213D02*
X017083Y003213D01*
X017083Y003212D02*
X016847Y003212D01*
X016847Y003211D02*
X017083Y003211D01*
X017083Y003210D02*
X016847Y003210D01*
X016847Y003209D02*
X017083Y003209D01*
X017083Y003208D02*
X016847Y003208D01*
X016847Y003207D02*
X017083Y003207D01*
X017083Y003206D02*
X016847Y003206D01*
X016847Y003205D02*
X017083Y003205D01*
X017083Y003204D02*
X016847Y003204D01*
X016847Y003203D02*
X017083Y003203D01*
X017083Y003202D02*
X016847Y003202D01*
X016847Y003201D02*
X017083Y003201D01*
X017083Y003200D02*
X016847Y003200D01*
X016847Y003199D02*
X017083Y003199D01*
X017083Y003198D02*
X016847Y003198D01*
X016847Y003197D02*
X017083Y003197D01*
X017083Y003196D02*
X016847Y003196D01*
X016847Y003195D02*
X017083Y003195D01*
X017083Y003194D02*
X016847Y003194D01*
X016847Y003193D02*
X017083Y003193D01*
X017083Y003192D02*
X016847Y003192D01*
X016847Y003191D02*
X017083Y003191D01*
X017083Y003190D02*
X016847Y003190D01*
X016847Y003189D02*
X017083Y003189D01*
X017083Y003188D02*
X016847Y003188D01*
X016847Y003187D02*
X017083Y003187D01*
X017083Y003186D02*
X016847Y003186D01*
X016847Y003185D02*
X017083Y003185D01*
X017083Y003184D02*
X016847Y003184D01*
X016847Y003183D02*
X017083Y003183D01*
X017083Y003182D02*
X016847Y003182D01*
X016847Y003181D02*
X017083Y003181D01*
X017083Y003180D02*
X016847Y003180D01*
X016847Y003179D02*
X017083Y003179D01*
X017083Y003178D02*
X016847Y003178D01*
X016847Y003177D02*
X017083Y003177D01*
X017083Y003176D02*
X016847Y003176D01*
X016847Y003175D02*
X017083Y003175D01*
X017083Y003174D02*
X016847Y003174D01*
X016847Y003173D02*
X017083Y003173D01*
X017083Y003172D02*
X016847Y003172D01*
X016847Y003171D02*
X017083Y003171D01*
X017083Y003170D02*
X016847Y003170D01*
X016847Y003169D02*
X017083Y003169D01*
X017083Y003168D02*
X016847Y003168D01*
X016847Y003167D02*
X017083Y003167D01*
X017083Y003166D02*
X016847Y003166D01*
X016847Y003165D02*
X017083Y003165D01*
X017083Y003164D02*
X016847Y003164D01*
X016847Y003163D02*
X017083Y003163D01*
X017083Y003162D02*
X016847Y003162D01*
X016847Y003161D02*
X017083Y003161D01*
X017083Y003160D02*
X016847Y003160D01*
X016847Y003159D02*
X017083Y003159D01*
X017083Y003158D02*
X016847Y003158D01*
X016847Y003157D02*
X017083Y003157D01*
X017083Y003156D02*
X016847Y003156D01*
X016847Y003155D02*
X017083Y003155D01*
X017083Y003154D02*
X016847Y003154D01*
X016847Y003153D02*
X017083Y003153D01*
X017083Y003152D02*
X016847Y003152D01*
X016847Y003151D02*
X017083Y003151D01*
X017083Y003150D02*
X016847Y003150D01*
X016847Y003149D02*
X017083Y003149D01*
X017083Y003148D02*
X016847Y003148D01*
X016847Y003147D02*
X017083Y003147D01*
X017083Y003146D02*
X016847Y003146D01*
X016847Y003145D02*
X017083Y003145D01*
X017083Y003144D02*
X016847Y003144D01*
X016847Y003143D02*
X017083Y003143D01*
X017083Y003142D02*
X016847Y003142D01*
X016847Y003141D02*
X017083Y003141D01*
X017083Y003140D02*
X016847Y003140D01*
X016847Y003139D02*
X017083Y003139D01*
X017083Y003138D02*
X016847Y003138D01*
X016847Y003137D02*
X017083Y003137D01*
X017083Y003136D02*
X016847Y003136D01*
X016847Y003135D02*
X017083Y003135D01*
X017083Y003134D02*
X016847Y003134D01*
X016847Y003133D02*
X017083Y003133D01*
X017083Y003132D02*
X016847Y003132D01*
X016847Y003131D02*
X017083Y003131D01*
X017083Y003130D02*
X016847Y003130D01*
X016847Y003129D02*
X017083Y003129D01*
X017083Y003128D02*
X016848Y003128D01*
X016848Y003127D02*
X017082Y003127D01*
X017082Y003126D02*
X016848Y003126D01*
X016848Y003125D02*
X017082Y003125D01*
X017082Y003124D02*
X016848Y003124D01*
X016848Y003123D02*
X017082Y003123D01*
X017082Y003122D02*
X016848Y003122D01*
X016848Y003121D02*
X017082Y003121D01*
X017082Y003120D02*
X016849Y003120D01*
X016849Y003119D02*
X017081Y003119D01*
X017081Y003118D02*
X016849Y003118D01*
X016849Y003117D02*
X017081Y003117D01*
X017081Y003116D02*
X016849Y003116D01*
X016849Y003115D02*
X017081Y003115D01*
X017081Y003114D02*
X016849Y003114D01*
X016849Y003113D02*
X017081Y003113D01*
X017080Y003112D02*
X016850Y003112D01*
X016850Y003111D02*
X017080Y003111D01*
X017080Y003110D02*
X016850Y003110D01*
X016850Y003109D02*
X017080Y003109D01*
X017080Y003108D02*
X016850Y003108D01*
X016850Y003107D02*
X017080Y003107D01*
X017079Y003106D02*
X016851Y003106D01*
X016851Y003105D02*
X017079Y003105D01*
X017079Y003104D02*
X016851Y003104D01*
X016852Y003103D02*
X017078Y003103D01*
X017078Y003102D02*
X016852Y003102D01*
X016853Y003101D02*
X017077Y003101D01*
X017077Y003100D02*
X016853Y003100D01*
X016854Y003099D02*
X017077Y003099D01*
X017076Y003098D02*
X016854Y003098D01*
X016854Y003097D02*
X017076Y003097D01*
X017075Y003096D02*
X016855Y003096D01*
X016855Y003095D02*
X017075Y003095D01*
X017074Y003094D02*
X016856Y003094D01*
X016856Y003093D02*
X017074Y003093D01*
X017074Y003092D02*
X016856Y003092D01*
X016857Y003091D02*
X017073Y003091D01*
X017073Y003090D02*
X016857Y003090D01*
X016858Y003089D02*
X017072Y003089D01*
X017072Y003088D02*
X016858Y003088D01*
X016859Y003087D02*
X017072Y003087D01*
X017071Y003086D02*
X016859Y003086D01*
X016859Y003085D02*
X017071Y003085D01*
X017070Y003084D02*
X016860Y003084D01*
X016860Y003083D02*
X017070Y003083D01*
X017069Y003082D02*
X016861Y003082D01*
X016862Y003081D02*
X017068Y003081D01*
X017068Y003080D02*
X016863Y003080D01*
X016863Y003079D02*
X017067Y003079D01*
X017066Y003078D02*
X016864Y003078D01*
X016865Y003077D02*
X017065Y003077D01*
X017064Y003076D02*
X016866Y003076D01*
X016866Y003075D02*
X017064Y003075D01*
X017063Y003074D02*
X016867Y003074D01*
X016868Y003073D02*
X017062Y003073D01*
X017061Y003072D02*
X016869Y003072D01*
X016869Y003071D02*
X017061Y003071D01*
X017060Y003070D02*
X016870Y003070D01*
X016871Y003069D02*
X017059Y003069D01*
X017058Y003068D02*
X016872Y003068D01*
X016872Y003067D02*
X017058Y003067D01*
X017057Y003066D02*
X016873Y003066D01*
X016874Y003065D02*
X017056Y003065D01*
X017055Y003064D02*
X016875Y003064D01*
X016876Y003063D02*
X017055Y003063D01*
X017053Y003062D02*
X016877Y003062D01*
X016878Y003061D02*
X017052Y003061D01*
X017051Y003060D02*
X016879Y003060D01*
X016881Y003059D02*
X017049Y003059D01*
X017048Y003058D02*
X016882Y003058D01*
X016883Y003057D02*
X017047Y003057D01*
X017046Y003056D02*
X016885Y003056D01*
X016886Y003055D02*
X017044Y003055D01*
X017043Y003054D02*
X016887Y003054D01*
X016888Y003053D02*
X017042Y003053D01*
X017040Y003052D02*
X016890Y003052D01*
X016891Y003051D02*
X017039Y003051D01*
X017038Y003050D02*
X016892Y003050D01*
X016894Y003049D02*
X017036Y003049D01*
X017035Y003048D02*
X016895Y003048D01*
X016896Y003047D02*
X017034Y003047D01*
X017031Y003046D02*
X016899Y003046D01*
X016901Y003045D02*
X017029Y003045D01*
X017027Y003044D02*
X016904Y003044D01*
X016906Y003043D02*
X017024Y003043D01*
X017022Y003042D02*
X016908Y003042D01*
X016911Y003041D02*
X017019Y003041D01*
X017017Y003040D02*
X016913Y003040D01*
X016916Y003039D02*
X017014Y003039D01*
X017012Y003038D02*
X016918Y003038D01*
X016922Y003037D02*
X017008Y003037D01*
X017001Y003036D02*
X016929Y003036D01*
X016937Y003035D02*
X016993Y003035D01*
X016986Y003034D02*
X016944Y003034D01*
X016899Y003534D02*
X017032Y003534D01*
X017029Y003535D02*
X016901Y003535D01*
X016903Y003536D02*
X017027Y003536D01*
X017024Y003537D02*
X016906Y003537D01*
X016908Y003538D02*
X017022Y003538D01*
X017019Y003539D02*
X016911Y003539D01*
X016913Y003540D02*
X017017Y003540D01*
X017015Y003541D02*
X016915Y003541D01*
X016918Y003542D02*
X017012Y003542D01*
X017009Y003543D02*
X016921Y003543D01*
X016929Y003544D02*
X017001Y003544D01*
X016994Y003545D02*
X016936Y003545D01*
X016944Y003546D02*
X016986Y003546D01*
X016943Y004649D02*
X016987Y004649D01*
X016995Y004650D02*
X016935Y004650D01*
X016927Y004651D02*
X017003Y004651D01*
X017010Y004652D02*
X016920Y004652D01*
X016917Y004653D02*
X017013Y004653D01*
X017015Y004654D02*
X016915Y004654D01*
X016913Y004655D02*
X017017Y004655D01*
X017020Y004656D02*
X016910Y004656D01*
X016908Y004657D02*
X017022Y004657D01*
X017025Y004658D02*
X016905Y004658D01*
X016903Y004659D02*
X017027Y004659D01*
X017029Y004660D02*
X016901Y004660D01*
X016898Y004661D02*
X017032Y004661D01*
X017034Y004662D02*
X016896Y004662D01*
X016895Y004663D02*
X017035Y004663D01*
X017037Y004664D02*
X016893Y004664D01*
X016892Y004665D02*
X017038Y004665D01*
X017039Y004666D02*
X016891Y004666D01*
X016889Y004667D02*
X017041Y004667D01*
X017042Y004668D02*
X016888Y004668D01*
X016887Y004669D02*
X017043Y004669D01*
X017045Y004670D02*
X016886Y004670D01*
X016884Y004671D02*
X017046Y004671D01*
X017047Y004672D02*
X016883Y004672D01*
X016882Y004673D02*
X017048Y004673D01*
X017050Y004674D02*
X016880Y004674D01*
X016879Y004675D02*
X017051Y004675D01*
X017052Y004676D02*
X016878Y004676D01*
X016876Y004677D02*
X017054Y004677D01*
X017055Y004678D02*
X016875Y004678D01*
X016875Y004679D02*
X017055Y004679D01*
X017056Y004680D02*
X016874Y004680D01*
X016873Y004681D02*
X017057Y004681D01*
X017058Y004682D02*
X016872Y004682D01*
X016872Y004683D02*
X017059Y004683D01*
X017059Y004684D02*
X016871Y004684D01*
X016870Y004685D02*
X017060Y004685D01*
X017061Y004686D02*
X016869Y004686D01*
X016868Y004687D02*
X017062Y004687D01*
X017062Y004688D02*
X016868Y004688D01*
X016867Y004689D02*
X017063Y004689D01*
X017064Y004690D02*
X016866Y004690D01*
X016865Y004691D02*
X017065Y004691D01*
X017065Y004692D02*
X016865Y004692D01*
X016864Y004693D02*
X017066Y004693D01*
X017067Y004694D02*
X016863Y004694D01*
X016862Y004695D02*
X017068Y004695D01*
X017069Y004696D02*
X016862Y004696D01*
X016861Y004697D02*
X017069Y004697D01*
X017070Y004698D02*
X016860Y004698D01*
X017070Y004698D01*
X017071Y004699D02*
X016859Y004699D01*
X016859Y004700D02*
X017071Y004700D01*
X017072Y004701D02*
X016858Y004701D01*
X016858Y004702D02*
X017072Y004702D01*
X017072Y004703D02*
X016858Y004703D01*
X016857Y004704D02*
X017073Y004704D01*
X017073Y004705D02*
X016857Y004705D01*
X016856Y004706D02*
X017074Y004706D01*
X017074Y004707D02*
X016856Y004707D01*
X016856Y004708D02*
X017075Y004708D01*
X017075Y004709D02*
X016855Y004709D01*
X016855Y004710D02*
X017075Y004710D01*
X017076Y004711D02*
X016854Y004711D01*
X016854Y004712D02*
X017076Y004712D01*
X017077Y004713D02*
X016853Y004713D01*
X016853Y004714D02*
X017077Y004714D01*
X017077Y004715D02*
X016853Y004715D01*
X016852Y004716D02*
X017078Y004716D01*
X017078Y004717D02*
X016852Y004717D01*
X016851Y004718D02*
X017079Y004718D01*
X017079Y004719D02*
X016851Y004719D01*
X016851Y004720D02*
X017080Y004720D01*
X017080Y004721D02*
X016850Y004721D01*
X016850Y004722D02*
X017080Y004722D01*
X017080Y004723D02*
X016850Y004723D01*
X016850Y004724D02*
X017080Y004724D01*
X017080Y004725D02*
X016850Y004725D01*
X016850Y004726D02*
X017080Y004726D01*
X017081Y004727D02*
X016849Y004727D01*
X016849Y004728D02*
X017081Y004728D01*
X017081Y004729D02*
X016849Y004729D01*
X016849Y004730D02*
X017081Y004730D01*
X017081Y004731D02*
X016849Y004731D01*
X016849Y004732D02*
X017081Y004732D01*
X017081Y004733D02*
X016849Y004733D01*
X016849Y004734D02*
X017082Y004734D01*
X017082Y004735D02*
X016848Y004735D01*
X016848Y004736D02*
X017082Y004736D01*
X017082Y004737D02*
X016848Y004737D01*
X016848Y004738D02*
X017082Y004738D01*
X017082Y004739D02*
X016848Y004739D01*
X016848Y004740D02*
X017082Y004740D01*
X017082Y004741D02*
X016848Y004741D01*
X016847Y004742D02*
X017083Y004742D01*
X017083Y004743D02*
X016847Y004743D01*
X016847Y004744D02*
X017083Y004744D01*
X017083Y004745D02*
X016847Y004745D01*
X016847Y004746D02*
X017083Y004746D01*
X017083Y004747D02*
X016847Y004747D01*
X016847Y004748D02*
X017083Y004748D01*
X017083Y004749D02*
X016847Y004749D01*
X016847Y004750D02*
X017083Y004750D01*
X017083Y004751D02*
X016847Y004751D01*
X016847Y004752D02*
X017083Y004752D01*
X017083Y004753D02*
X016847Y004753D01*
X016847Y004754D02*
X017083Y004754D01*
X017083Y004755D02*
X016847Y004755D01*
X016847Y004756D02*
X017083Y004756D01*
X017083Y004757D02*
X016847Y004757D01*
X016847Y004758D02*
X017083Y004758D01*
X017083Y004759D02*
X016847Y004759D01*
X016847Y004760D02*
X017083Y004760D01*
X017083Y004761D02*
X016847Y004761D01*
X016847Y004762D02*
X017083Y004762D01*
X017083Y004763D02*
X016847Y004763D01*
X016847Y004764D02*
X017083Y004764D01*
X017083Y004765D02*
X016847Y004765D01*
X016847Y004766D02*
X017083Y004766D01*
X017083Y004767D02*
X016847Y004767D01*
X016847Y004768D02*
X017083Y004768D01*
X017083Y004769D02*
X016847Y004769D01*
X016847Y004770D02*
X017083Y004770D01*
X017083Y004771D02*
X016847Y004771D01*
X016847Y004772D02*
X017083Y004772D01*
X017083Y004773D02*
X016847Y004773D01*
X016847Y004774D02*
X017083Y004774D01*
X017083Y004775D02*
X016847Y004775D01*
X016847Y004776D02*
X017083Y004776D01*
X017083Y004777D02*
X016847Y004777D01*
X016847Y004778D02*
X017083Y004778D01*
X017083Y004779D02*
X016847Y004779D01*
X016847Y004780D02*
X017083Y004780D01*
X017083Y004781D02*
X016847Y004781D01*
X016847Y004782D02*
X017083Y004782D01*
X017083Y004783D02*
X016847Y004783D01*
X016847Y004784D02*
X017083Y004784D01*
X017083Y004785D02*
X016847Y004785D01*
X016847Y004786D02*
X017083Y004786D01*
X017083Y004787D02*
X016847Y004787D01*
X016847Y004788D02*
X017083Y004788D01*
X017083Y004789D02*
X016847Y004789D01*
X016847Y004790D02*
X017083Y004790D01*
X017083Y004791D02*
X016847Y004791D01*
X016847Y004792D02*
X017083Y004792D01*
X017083Y004793D02*
X016847Y004793D01*
X016847Y004794D02*
X017083Y004794D01*
X017083Y004795D02*
X016847Y004795D01*
X016847Y004796D02*
X017083Y004796D01*
X017083Y004797D02*
X016847Y004797D01*
X016847Y004798D02*
X017083Y004798D01*
X017083Y004799D02*
X016847Y004799D01*
X016847Y004800D02*
X017083Y004800D01*
X017083Y004801D02*
X016847Y004801D01*
X016847Y004802D02*
X017083Y004802D01*
X017083Y004803D02*
X016847Y004803D01*
X016847Y004804D02*
X017083Y004804D01*
X017083Y004805D02*
X016847Y004805D01*
X016847Y004806D02*
X017083Y004806D01*
X017083Y004807D02*
X016847Y004807D01*
X016847Y004808D02*
X017083Y004808D01*
X017083Y004809D02*
X016847Y004809D01*
X016847Y004810D02*
X017083Y004810D01*
X017083Y004811D02*
X016847Y004811D01*
X016847Y004812D02*
X017083Y004812D01*
X017083Y004813D02*
X016847Y004813D01*
X016847Y004814D02*
X017083Y004814D01*
X017083Y004815D02*
X016847Y004815D01*
X016847Y004816D02*
X017083Y004816D01*
X017083Y004817D02*
X016847Y004817D01*
X016847Y004818D02*
X017083Y004818D01*
X017083Y004819D02*
X016847Y004819D01*
X016847Y004820D02*
X017083Y004820D01*
X017083Y004821D02*
X016847Y004821D01*
X016847Y004822D02*
X017083Y004822D01*
X017083Y004823D02*
X016847Y004823D01*
X016847Y004824D02*
X017083Y004824D01*
X017083Y004825D02*
X016847Y004825D01*
X016847Y004826D02*
X017083Y004826D01*
X017083Y004827D02*
X016847Y004827D01*
X016847Y004828D02*
X017083Y004828D01*
X017083Y004829D02*
X016847Y004829D01*
X016847Y004830D02*
X017083Y004830D01*
X017083Y004831D02*
X016847Y004831D01*
X016847Y004832D02*
X017083Y004832D01*
X017083Y004833D02*
X016847Y004833D01*
X016847Y004834D02*
X017083Y004834D01*
X017083Y004835D02*
X016847Y004835D01*
X016847Y004836D02*
X017083Y004836D01*
X017083Y004837D02*
X016847Y004837D01*
X016847Y004838D02*
X017083Y004838D01*
X017083Y004839D02*
X016847Y004839D01*
X016847Y004840D02*
X017083Y004840D01*
X017083Y004841D02*
X016847Y004841D01*
X016847Y004842D02*
X017083Y004842D01*
X017083Y004843D02*
X016847Y004843D01*
X016847Y004844D02*
X017083Y004844D01*
X017083Y004845D02*
X016847Y004845D01*
X016847Y004846D02*
X017083Y004846D01*
X017083Y004847D02*
X016847Y004847D01*
X016847Y004848D02*
X017083Y004848D01*
X017083Y004849D02*
X016847Y004849D01*
X016847Y004850D02*
X017083Y004850D01*
X017083Y004851D02*
X016847Y004851D01*
X016847Y004852D02*
X017083Y004852D01*
X017083Y004853D02*
X016847Y004853D01*
X016847Y004854D02*
X017083Y004854D01*
X017083Y004855D02*
X016847Y004855D01*
X016847Y004856D02*
X017083Y004856D01*
X017083Y004857D02*
X016847Y004857D01*
X016847Y004858D02*
X017083Y004858D01*
X017083Y004859D02*
X016847Y004859D01*
X016847Y004860D02*
X017083Y004860D01*
X017083Y004861D02*
X016847Y004861D01*
X016847Y004862D02*
X017083Y004862D01*
X017083Y004863D02*
X016847Y004863D01*
X016847Y004864D02*
X017083Y004864D01*
X017083Y004865D02*
X016847Y004865D01*
X016847Y004866D02*
X017083Y004866D01*
X017083Y004867D02*
X016847Y004867D01*
X016847Y004868D02*
X017083Y004868D01*
X017083Y004869D02*
X016847Y004869D01*
X016847Y004870D02*
X017083Y004870D01*
X017083Y004871D02*
X016847Y004871D01*
X016847Y004872D02*
X017083Y004872D01*
X017083Y004873D02*
X016847Y004873D01*
X016847Y004874D02*
X017083Y004874D01*
X017083Y004875D02*
X016847Y004875D01*
X016847Y004876D02*
X017083Y004876D01*
X017083Y004877D02*
X016847Y004877D01*
X016847Y004878D02*
X017083Y004878D01*
X017083Y004879D02*
X016847Y004879D01*
X016847Y004880D02*
X017083Y004880D01*
X017083Y004881D02*
X016847Y004881D01*
X016847Y004882D02*
X017083Y004882D01*
X017083Y004883D02*
X016847Y004883D01*
X016847Y004884D02*
X017083Y004884D01*
X017083Y004885D02*
X016847Y004885D01*
X016847Y004886D02*
X017083Y004886D01*
X017083Y004887D02*
X016847Y004887D01*
X016847Y004888D02*
X017083Y004888D01*
X017083Y004889D02*
X016847Y004889D01*
X016847Y004890D02*
X017083Y004890D01*
X017083Y004891D02*
X016847Y004891D01*
X016847Y004892D02*
X017083Y004892D01*
X017083Y004893D02*
X016847Y004893D01*
X016847Y004894D02*
X017083Y004894D01*
X017083Y004895D02*
X016847Y004895D01*
X016847Y004896D02*
X017083Y004896D01*
X017083Y004897D02*
X016847Y004897D01*
X016847Y004898D02*
X017083Y004898D01*
X017083Y004899D02*
X016847Y004899D01*
X016847Y004900D02*
X017083Y004900D01*
X017083Y004901D02*
X016847Y004901D01*
X016847Y004902D02*
X017083Y004902D01*
X017083Y004903D02*
X016847Y004903D01*
X016847Y004904D02*
X017083Y004904D01*
X017083Y004905D02*
X016847Y004905D01*
X016847Y004906D02*
X017083Y004906D01*
X017083Y004907D02*
X016847Y004907D01*
X016847Y004908D02*
X017083Y004908D01*
X017083Y004909D02*
X016847Y004909D01*
X016847Y004910D02*
X017083Y004910D01*
X017083Y004911D02*
X016847Y004911D01*
X016847Y004912D02*
X017083Y004912D01*
X017083Y004913D02*
X016847Y004913D01*
X016847Y004914D02*
X017083Y004914D01*
X017083Y004915D02*
X016847Y004915D01*
X016847Y004916D02*
X017083Y004916D01*
X017083Y004917D02*
X016847Y004917D01*
X016847Y004918D02*
X017083Y004918D01*
X017083Y004919D02*
X016847Y004919D01*
X016847Y004920D02*
X017083Y004920D01*
X017083Y004921D02*
X016847Y004921D01*
X016847Y004922D02*
X017083Y004922D01*
X017083Y004923D02*
X016847Y004923D01*
X016847Y004924D02*
X017083Y004924D01*
X017083Y004925D02*
X016847Y004925D01*
X016847Y004926D02*
X017083Y004926D01*
X017083Y004927D02*
X016847Y004927D01*
X016847Y004928D02*
X017083Y004928D01*
X017083Y004929D02*
X016847Y004929D01*
X016847Y004930D02*
X017083Y004930D01*
X017083Y004931D02*
X016847Y004931D01*
X016847Y004932D02*
X017083Y004932D01*
X017083Y004933D02*
X016847Y004933D01*
X016847Y004934D02*
X017083Y004934D01*
X017083Y004935D02*
X016847Y004935D01*
X016847Y004936D02*
X017083Y004936D01*
X017083Y004937D02*
X016847Y004937D01*
X016847Y004938D02*
X017083Y004938D01*
X017083Y004939D02*
X016847Y004939D01*
X016847Y004940D02*
X017083Y004940D01*
X017083Y004941D02*
X016847Y004941D01*
X016847Y004942D02*
X017083Y004942D01*
X017083Y004943D02*
X016847Y004943D01*
X016847Y004944D02*
X017083Y004944D01*
X017083Y004945D02*
X016847Y004945D01*
X016847Y004946D02*
X017083Y004946D01*
X017083Y004947D02*
X016847Y004947D01*
X016847Y004948D02*
X017083Y004948D01*
X017083Y004949D02*
X016847Y004949D01*
X016847Y004950D02*
X017083Y004950D01*
X017083Y004951D02*
X016847Y004951D01*
X016847Y004952D02*
X017083Y004952D01*
X017083Y004953D02*
X016847Y004953D01*
X016847Y004954D02*
X017083Y004954D01*
X017083Y004955D02*
X016847Y004955D01*
X016847Y004956D02*
X017083Y004956D01*
X017083Y004957D02*
X016847Y004957D01*
X016847Y004958D02*
X017083Y004958D01*
X017083Y004959D02*
X016847Y004959D01*
X016847Y004960D02*
X017083Y004960D01*
X017083Y004961D02*
X016847Y004961D01*
X016847Y004962D02*
X017083Y004962D01*
X017083Y004963D02*
X016847Y004963D01*
X016847Y004964D02*
X017083Y004964D01*
X017083Y004965D02*
X016847Y004965D01*
X016847Y004966D02*
X017083Y004966D01*
X017083Y004967D02*
X016847Y004967D01*
X016847Y004968D02*
X017083Y004968D01*
X017083Y004969D02*
X016847Y004969D01*
X016847Y004970D02*
X017083Y004970D01*
X017083Y004971D02*
X016847Y004971D01*
X016847Y004972D02*
X017083Y004972D01*
X017083Y004973D02*
X016847Y004973D01*
X016847Y004974D02*
X017083Y004974D01*
X017083Y004975D02*
X016847Y004975D01*
X016847Y004976D02*
X017083Y004976D01*
X017083Y004977D02*
X016847Y004977D01*
X016847Y004978D02*
X017083Y004978D01*
X017083Y004979D02*
X016847Y004979D01*
X016847Y004980D02*
X017083Y004980D01*
X017083Y004981D02*
X016847Y004981D01*
X016847Y004982D02*
X017083Y004982D01*
X017083Y004983D02*
X016847Y004983D01*
X016847Y004984D02*
X017083Y004984D01*
X017083Y004985D02*
X016847Y004985D01*
X016847Y004986D02*
X017083Y004986D01*
X017083Y004987D02*
X016847Y004987D01*
X016847Y004988D02*
X017083Y004988D01*
X017083Y004989D02*
X016847Y004989D01*
X016847Y004990D02*
X017083Y004990D01*
X017083Y004991D02*
X016847Y004991D01*
X016847Y004992D02*
X017083Y004992D01*
X017083Y004993D02*
X016847Y004993D01*
X016847Y004994D02*
X017083Y004994D01*
X017083Y004995D02*
X016847Y004995D01*
X016847Y004996D02*
X017083Y004996D01*
X017083Y004997D02*
X016847Y004997D01*
X016847Y004998D02*
X017083Y004998D01*
X017083Y004999D02*
X016847Y004999D01*
X016847Y005000D02*
X017083Y005000D01*
X017083Y005001D02*
X016847Y005001D01*
X016847Y005002D02*
X017083Y005002D01*
X017083Y005003D02*
X016847Y005003D01*
X016847Y005004D02*
X017083Y005004D01*
X017083Y005005D02*
X016847Y005005D01*
X016847Y005006D02*
X017083Y005006D01*
X017083Y005007D02*
X016847Y005007D01*
X016847Y005008D02*
X017083Y005008D01*
X017083Y005009D02*
X016847Y005009D01*
X016847Y005010D02*
X017083Y005010D01*
X017083Y005011D02*
X016847Y005011D01*
X016847Y005012D02*
X017083Y005012D01*
X017083Y005013D02*
X016847Y005013D01*
X016847Y005014D02*
X017083Y005014D01*
X017083Y005015D02*
X016847Y005015D01*
X016847Y005016D02*
X017083Y005016D01*
X017083Y005017D02*
X016847Y005017D01*
X016847Y005018D02*
X017083Y005018D01*
X017083Y005019D02*
X016847Y005019D01*
X016847Y005020D02*
X017083Y005020D01*
X017083Y005021D02*
X016847Y005021D01*
X016847Y005022D02*
X017083Y005022D01*
X017083Y005023D02*
X016847Y005023D01*
X016847Y005024D02*
X017083Y005024D01*
X017083Y005025D02*
X016847Y005025D01*
X016847Y005026D02*
X017083Y005026D01*
X017083Y005027D02*
X016847Y005027D01*
X016847Y005028D02*
X017083Y005028D01*
X017083Y005029D02*
X016847Y005029D01*
X016847Y005030D02*
X017083Y005030D01*
X017083Y005031D02*
X016847Y005031D01*
X016847Y005032D02*
X017083Y005032D01*
X017083Y005033D02*
X016847Y005033D01*
X016847Y005034D02*
X017083Y005034D01*
X017083Y005035D02*
X016847Y005035D01*
X016847Y005036D02*
X017083Y005036D01*
X017083Y005037D02*
X016847Y005037D01*
X016847Y005038D02*
X017083Y005038D01*
X017083Y005039D02*
X016847Y005039D01*
X016847Y005040D02*
X017083Y005040D01*
X017083Y005041D02*
X016847Y005041D01*
X016847Y005042D02*
X017083Y005042D01*
X017083Y005043D02*
X016847Y005043D01*
X016847Y005044D02*
X017083Y005044D01*
X017083Y005045D02*
X016847Y005045D01*
X016847Y005046D02*
X017083Y005046D01*
X017083Y005047D02*
X016847Y005047D01*
X016847Y005048D02*
X017083Y005048D01*
X017083Y005049D02*
X016847Y005049D01*
X016847Y005050D02*
X017083Y005050D01*
X017083Y005051D02*
X016847Y005051D01*
X016847Y005052D02*
X017083Y005052D01*
X017083Y005053D02*
X016847Y005053D01*
X016847Y005054D02*
X017083Y005054D01*
X017083Y005055D02*
X016847Y005055D01*
X016847Y005056D02*
X017083Y005056D01*
X017083Y005057D02*
X016847Y005057D01*
X016847Y005058D02*
X017083Y005058D01*
X017083Y005059D02*
X016847Y005059D01*
X016847Y005060D02*
X017083Y005060D01*
X017083Y005061D02*
X016847Y005061D01*
X016847Y005062D02*
X017083Y005062D01*
X017083Y005063D02*
X016847Y005063D01*
X016847Y005064D02*
X017083Y005064D01*
X017083Y005065D02*
X016847Y005065D01*
X016847Y005066D02*
X017083Y005066D01*
X017083Y005067D02*
X016847Y005067D01*
X016847Y005068D02*
X017083Y005068D01*
X017083Y005069D02*
X016847Y005069D01*
X016847Y005070D02*
X017083Y005070D01*
X017083Y005071D02*
X016847Y005071D01*
X016847Y005072D02*
X017083Y005072D01*
X017083Y005073D02*
X016847Y005073D01*
X016847Y005074D02*
X017083Y005074D01*
X017083Y005075D02*
X016847Y005075D01*
X016847Y005076D02*
X017083Y005076D01*
X017083Y005077D02*
X016847Y005077D01*
X016847Y005078D02*
X017083Y005078D01*
X017083Y005079D02*
X016847Y005079D01*
X016847Y005080D02*
X017083Y005080D01*
X017083Y005081D02*
X016847Y005081D01*
X016847Y005082D02*
X017083Y005082D01*
X017083Y005083D02*
X016847Y005083D01*
X016847Y005084D02*
X017083Y005084D01*
X017083Y005085D02*
X016847Y005085D01*
X016847Y005086D02*
X017083Y005086D01*
X017083Y005087D02*
X016847Y005087D01*
X016847Y005088D02*
X017083Y005088D01*
X017083Y005089D02*
X016847Y005089D01*
X016847Y005090D02*
X017083Y005090D01*
X017083Y005091D02*
X016847Y005091D01*
X016847Y005092D02*
X017083Y005092D01*
X017083Y005093D02*
X016847Y005093D01*
X016847Y005094D02*
X017083Y005094D01*
X017083Y005095D02*
X016847Y005095D01*
X016847Y005096D02*
X017083Y005096D01*
X017083Y005097D02*
X016847Y005097D01*
X016847Y005098D02*
X017083Y005098D01*
X017083Y005099D02*
X016847Y005099D01*
X016847Y005100D02*
X017083Y005100D01*
X017083Y005101D02*
X016847Y005101D01*
X016847Y005102D02*
X017083Y005102D01*
X017083Y005103D02*
X016847Y005103D01*
X016847Y005104D02*
X017083Y005104D01*
X017083Y005105D02*
X016847Y005105D01*
X016847Y005106D02*
X017083Y005106D01*
X017083Y005107D02*
X016847Y005107D01*
X016847Y005108D02*
X017083Y005108D01*
X017083Y005109D02*
X016847Y005109D01*
X016847Y005110D02*
X017083Y005110D01*
X017083Y005111D02*
X016847Y005111D01*
X016847Y005112D02*
X017083Y005112D01*
X017083Y005113D02*
X016847Y005113D01*
X016847Y005114D02*
X017083Y005114D01*
X017083Y005115D02*
X016847Y005115D01*
X016847Y005116D02*
X017083Y005116D01*
X017083Y005117D02*
X016847Y005117D01*
X016847Y005118D02*
X017083Y005118D01*
X017083Y005119D02*
X016847Y005119D01*
X016847Y005120D02*
X017083Y005120D01*
X017083Y005121D02*
X016847Y005121D01*
X016847Y005122D02*
X017083Y005122D01*
X017083Y005123D02*
X016847Y005123D01*
X016847Y005124D02*
X017083Y005124D01*
X017083Y005125D02*
X016847Y005125D01*
X016847Y005126D02*
X017083Y005126D01*
X017083Y005127D02*
X016847Y005127D01*
X016847Y005128D02*
X017083Y005128D01*
X017083Y005129D02*
X016847Y005129D01*
X016847Y005130D02*
X017083Y005130D01*
X017083Y005131D02*
X016847Y005131D01*
X016847Y005132D02*
X017083Y005132D01*
X017083Y005133D02*
X016847Y005133D01*
X016847Y005134D02*
X017083Y005134D01*
X017083Y005135D02*
X016847Y005135D01*
X016847Y005136D02*
X017083Y005136D01*
X017083Y005137D02*
X016847Y005137D01*
X016847Y005138D02*
X017083Y005138D01*
X017083Y005139D02*
X016847Y005139D01*
X016847Y005140D02*
X017083Y005140D01*
X017083Y005141D02*
X016847Y005141D01*
X016847Y005142D02*
X017083Y005142D01*
X017083Y005143D02*
X016847Y005143D01*
X016847Y005144D02*
X017083Y005144D01*
X017083Y005145D02*
X016848Y005145D01*
X016848Y005146D02*
X017082Y005146D01*
X017082Y005147D02*
X016848Y005147D01*
X016848Y005148D02*
X017082Y005148D01*
X017082Y005149D02*
X016848Y005149D01*
X016848Y005150D02*
X017082Y005150D01*
X017082Y005151D02*
X016848Y005151D01*
X016848Y005152D02*
X017082Y005152D01*
X017081Y005153D02*
X016849Y005153D01*
X016849Y005154D02*
X017081Y005154D01*
X017081Y005155D02*
X016849Y005155D01*
X016849Y005156D02*
X017081Y005156D01*
X017081Y005157D02*
X016849Y005157D01*
X016849Y005158D02*
X017081Y005158D01*
X017081Y005159D02*
X016849Y005159D01*
X016850Y005160D02*
X017081Y005160D01*
X017080Y005161D02*
X016850Y005161D01*
X016850Y005162D02*
X017080Y005162D01*
X017080Y005163D02*
X016850Y005163D01*
X016850Y005164D02*
X017080Y005164D01*
X017080Y005165D02*
X016850Y005165D01*
X016850Y005166D02*
X017080Y005166D01*
X017079Y005167D02*
X016851Y005167D01*
X016851Y005168D02*
X017079Y005168D01*
X017078Y005169D02*
X016852Y005169D01*
X016852Y005170D02*
X017078Y005170D01*
X017078Y005171D02*
X016852Y005171D01*
X016853Y005172D02*
X017077Y005172D01*
X017077Y005173D02*
X016853Y005173D01*
X016854Y005174D02*
X017076Y005174D01*
X017076Y005175D02*
X016854Y005175D01*
X016855Y005176D02*
X017076Y005176D01*
X017075Y005177D02*
X016855Y005177D01*
X016855Y005178D02*
X017075Y005178D01*
X017074Y005179D02*
X016856Y005179D01*
X016856Y005180D02*
X017074Y005180D01*
X017073Y005181D02*
X016857Y005181D01*
X016857Y005182D02*
X017073Y005182D01*
X017073Y005183D02*
X016857Y005183D01*
X016858Y005184D02*
X017072Y005184D01*
X017072Y005185D02*
X016858Y005185D01*
X016859Y005186D02*
X017071Y005186D01*
X017071Y005187D02*
X016859Y005187D01*
X016859Y005188D02*
X017071Y005188D01*
X017070Y005189D02*
X016860Y005189D01*
X016860Y005190D02*
X017070Y005190D01*
X017069Y005191D02*
X016861Y005191D01*
X016862Y005192D02*
X017068Y005192D01*
X017067Y005193D02*
X016863Y005193D01*
X016864Y005194D02*
X017067Y005194D01*
X017066Y005195D02*
X016864Y005195D01*
X016865Y005196D02*
X017065Y005196D01*
X017064Y005197D02*
X016866Y005197D01*
X016867Y005198D02*
X017063Y005198D01*
X017063Y005199D02*
X016867Y005199D01*
X016868Y005200D02*
X017062Y005200D01*
X017061Y005201D02*
X016869Y005201D01*
X016870Y005202D02*
X017060Y005202D01*
X017060Y005203D02*
X016870Y005203D01*
X016871Y005204D02*
X017059Y005204D01*
X017058Y005205D02*
X016872Y005205D01*
X016873Y005206D02*
X017057Y005206D01*
X017057Y005207D02*
X016874Y005207D01*
X016874Y005208D02*
X017056Y005208D01*
X017055Y005209D02*
X016875Y005209D01*
X016876Y005210D02*
X017054Y005210D01*
X017053Y005211D02*
X016877Y005211D01*
X016878Y005212D02*
X017052Y005212D01*
X017050Y005213D02*
X016880Y005213D01*
X016881Y005214D02*
X017049Y005214D01*
X017048Y005215D02*
X016882Y005215D01*
X016884Y005216D02*
X017046Y005216D01*
X017045Y005217D02*
X016885Y005217D01*
X016886Y005218D02*
X017044Y005218D01*
X017042Y005219D02*
X016888Y005219D01*
X016889Y005220D02*
X017041Y005220D01*
X017040Y005221D02*
X016890Y005221D01*
X016891Y005222D02*
X017039Y005222D01*
X017037Y005223D02*
X016893Y005223D01*
X016894Y005224D02*
X017036Y005224D01*
X017035Y005225D02*
X016895Y005225D01*
X016897Y005226D02*
X017033Y005226D01*
X017030Y005227D02*
X016900Y005227D01*
X016902Y005228D02*
X017028Y005228D01*
X017026Y005229D02*
X016904Y005229D01*
X016907Y005230D02*
X017023Y005230D01*
X017021Y005231D02*
X016909Y005231D01*
X016912Y005232D02*
X017018Y005232D01*
X017016Y005233D02*
X016914Y005233D01*
X016916Y005234D02*
X017014Y005234D01*
X017011Y005235D02*
X016919Y005235D01*
X016924Y005236D02*
X017006Y005236D01*
X016998Y005237D02*
X016932Y005237D01*
X016939Y005238D02*
X016991Y005238D01*
X013697Y005140D02*
X013461Y005140D01*
X013461Y005139D02*
X013697Y005139D01*
X013697Y005138D02*
X013461Y005138D01*
X013461Y005137D02*
X013697Y005137D01*
X013697Y005136D02*
X013461Y005136D01*
X013461Y005135D02*
X013697Y005135D01*
X013697Y005134D02*
X013461Y005134D01*
X013461Y005133D02*
X013697Y005133D01*
X013697Y005132D02*
X013461Y005132D01*
X013461Y005131D02*
X013697Y005131D01*
X013697Y005130D02*
X013461Y005130D01*
X013461Y005129D02*
X013697Y005129D01*
X013697Y005128D02*
X013461Y005128D01*
X013461Y005127D02*
X013697Y005127D01*
X013697Y005126D02*
X013461Y005126D01*
X013461Y005125D02*
X013697Y005125D01*
X013697Y005124D02*
X013461Y005124D01*
X013461Y005123D02*
X013697Y005123D01*
X013697Y005122D02*
X013461Y005122D01*
X013461Y005121D02*
X013697Y005121D01*
X013697Y005120D02*
X013461Y005120D01*
X013461Y005119D02*
X013697Y005119D01*
X013697Y005118D02*
X013461Y005118D01*
X013461Y005117D02*
X013697Y005117D01*
X013697Y005116D02*
X013461Y005116D01*
X013461Y005115D02*
X013697Y005115D01*
X013697Y005114D02*
X013461Y005114D01*
X013461Y005113D02*
X013697Y005113D01*
X013697Y005112D02*
X013461Y005112D01*
X013461Y005111D02*
X013697Y005111D01*
X013697Y005110D02*
X013461Y005110D01*
X013461Y005109D02*
X013697Y005109D01*
X013697Y005108D02*
X013461Y005108D01*
X013461Y005107D02*
X013697Y005107D01*
X013697Y005106D02*
X013461Y005106D01*
X013461Y005105D02*
X013697Y005105D01*
X013697Y005104D02*
X013461Y005104D01*
X013461Y005103D02*
X013697Y005103D01*
X013697Y005102D02*
X013461Y005102D01*
X013461Y005101D02*
X013697Y005101D01*
X013697Y005100D02*
X013461Y005100D01*
X013461Y005099D02*
X013697Y005099D01*
X013697Y005098D02*
X013461Y005098D01*
X013461Y005097D02*
X013697Y005097D01*
X013697Y005096D02*
X013461Y005096D01*
X013461Y005095D02*
X013697Y005095D01*
X013697Y005094D02*
X013461Y005094D01*
X013461Y005093D02*
X013697Y005093D01*
X013697Y005092D02*
X013461Y005092D01*
X013461Y005091D02*
X013697Y005091D01*
X013697Y005090D02*
X013461Y005090D01*
X013461Y005089D02*
X013697Y005089D01*
X013697Y005088D02*
X013461Y005088D01*
X013461Y005087D02*
X013697Y005087D01*
X013697Y005086D02*
X013461Y005086D01*
X013461Y005085D02*
X013697Y005085D01*
X013697Y005084D02*
X013461Y005084D01*
X013461Y005083D02*
X013697Y005083D01*
X013697Y005082D02*
X013461Y005082D01*
X013461Y005081D02*
X013697Y005081D01*
X013697Y005080D02*
X013461Y005080D01*
X013461Y005079D02*
X013697Y005079D01*
X013697Y005078D02*
X013461Y005078D01*
X013461Y005077D02*
X013697Y005077D01*
X013697Y005076D02*
X013461Y005076D01*
X013461Y005075D02*
X013697Y005075D01*
X013697Y005074D02*
X013461Y005074D01*
X013461Y005073D02*
X013697Y005073D01*
X013697Y005072D02*
X013461Y005072D01*
X013461Y005071D02*
X013697Y005071D01*
X013697Y005070D02*
X013461Y005070D01*
X013461Y005069D02*
X013697Y005069D01*
X013697Y005068D02*
X013461Y005068D01*
X013461Y005067D02*
X013697Y005067D01*
X013697Y005066D02*
X013461Y005066D01*
X013461Y005065D02*
X013697Y005065D01*
X013697Y005064D02*
X013461Y005064D01*
X013461Y005063D02*
X013697Y005063D01*
X013697Y005062D02*
X013461Y005062D01*
X013461Y005061D02*
X013697Y005061D01*
X013697Y005060D02*
X013461Y005060D01*
X013461Y005059D02*
X013697Y005059D01*
X013697Y005058D02*
X013461Y005058D01*
X013461Y005057D02*
X013697Y005057D01*
X013697Y005056D02*
X013461Y005056D01*
X013461Y005055D02*
X013697Y005055D01*
X013697Y005054D02*
X013461Y005054D01*
X013461Y005053D02*
X013697Y005053D01*
X013697Y005052D02*
X013461Y005052D01*
X013461Y005051D02*
X013697Y005051D01*
X013697Y005050D02*
X013461Y005050D01*
X013461Y005049D02*
X013697Y005049D01*
X013697Y005048D02*
X013461Y005048D01*
X013461Y005047D02*
X013697Y005047D01*
X013697Y005046D02*
X013461Y005046D01*
X013461Y005045D02*
X013697Y005045D01*
X013697Y005044D02*
X013461Y005044D01*
X013461Y005043D02*
X013697Y005043D01*
X013697Y005042D02*
X013461Y005042D01*
X013461Y005041D02*
X013697Y005041D01*
X013697Y005040D02*
X013461Y005040D01*
X013461Y005039D02*
X013697Y005039D01*
X013697Y005038D02*
X013461Y005038D01*
X013461Y005037D02*
X013697Y005037D01*
X013697Y005036D02*
X013461Y005036D01*
X013461Y005035D02*
X013697Y005035D01*
X013697Y005034D02*
X013461Y005034D01*
X013461Y005033D02*
X013697Y005033D01*
X013697Y005032D02*
X013461Y005032D01*
X013461Y005031D02*
X013697Y005031D01*
X013697Y005030D02*
X013461Y005030D01*
X013461Y005029D02*
X013697Y005029D01*
X013697Y005028D02*
X013461Y005028D01*
X013461Y005027D02*
X013697Y005027D01*
X013697Y005026D02*
X013461Y005026D01*
X013461Y005025D02*
X013697Y005025D01*
X013697Y005024D02*
X013461Y005024D01*
X013461Y005023D02*
X013697Y005023D01*
X013697Y005022D02*
X013461Y005022D01*
X013461Y005021D02*
X013697Y005021D01*
X013697Y005020D02*
X013461Y005020D01*
X013461Y005019D02*
X013697Y005019D01*
X013697Y005018D02*
X013461Y005018D01*
X013461Y005017D02*
X013697Y005017D01*
X013697Y005016D02*
X013461Y005016D01*
X013461Y005015D02*
X013697Y005015D01*
X013697Y005014D02*
X013461Y005014D01*
X013461Y005013D02*
X013697Y005013D01*
X013697Y005012D02*
X013461Y005012D01*
X013461Y005011D02*
X013697Y005011D01*
X013697Y005010D02*
X013461Y005010D01*
X013461Y005009D02*
X013697Y005009D01*
X013697Y005008D02*
X013461Y005008D01*
X013461Y005007D02*
X013697Y005007D01*
X013697Y005006D02*
X013461Y005006D01*
X013461Y005005D02*
X013697Y005005D01*
X013697Y005004D02*
X013461Y005004D01*
X013461Y005003D02*
X013697Y005003D01*
X013697Y005002D02*
X013461Y005002D01*
X013461Y005001D02*
X013697Y005001D01*
X013697Y005000D02*
X013461Y005000D01*
X013461Y004999D02*
X013697Y004999D01*
X013697Y004998D02*
X013461Y004998D01*
X013461Y004997D02*
X013697Y004997D01*
X013697Y004996D02*
X013461Y004996D01*
X013461Y004995D02*
X013697Y004995D01*
X013697Y004994D02*
X013461Y004994D01*
X013461Y004993D02*
X013697Y004993D01*
X013697Y004992D02*
X013461Y004992D01*
X013461Y004991D02*
X013697Y004991D01*
X013697Y004990D02*
X013461Y004990D01*
X013461Y004989D02*
X013697Y004989D01*
X013697Y004988D02*
X013461Y004988D01*
X013461Y004987D02*
X013697Y004987D01*
X013697Y004986D02*
X013461Y004986D01*
X013461Y004985D02*
X013697Y004985D01*
X013697Y004984D02*
X013461Y004984D01*
X013461Y004983D02*
X013697Y004983D01*
X013697Y004982D02*
X013461Y004982D01*
X013461Y004981D02*
X013697Y004981D01*
X013697Y004980D02*
X013461Y004980D01*
X013461Y004979D02*
X013697Y004979D01*
X013697Y004978D02*
X013461Y004978D01*
X013461Y004977D02*
X013697Y004977D01*
X013697Y004976D02*
X013461Y004976D01*
X013461Y004975D02*
X013697Y004975D01*
X013697Y004974D02*
X013461Y004974D01*
X013461Y004973D02*
X013697Y004973D01*
X013697Y004972D02*
X013461Y004972D01*
X013461Y004971D02*
X013697Y004971D01*
X013697Y004970D02*
X013461Y004970D01*
X013461Y004969D02*
X013697Y004969D01*
X013697Y004968D02*
X013461Y004968D01*
X013461Y004967D02*
X013697Y004967D01*
X013697Y004966D02*
X013461Y004966D01*
X013461Y004965D02*
X013697Y004965D01*
X013697Y004964D02*
X013461Y004964D01*
X013461Y004963D02*
X013697Y004963D01*
X013697Y004962D02*
X013461Y004962D01*
X013461Y004961D02*
X013697Y004961D01*
X013697Y004960D02*
X013461Y004960D01*
X013461Y004959D02*
X013697Y004959D01*
X013697Y004958D02*
X013461Y004958D01*
X013461Y004957D02*
X013697Y004957D01*
X013697Y004956D02*
X013461Y004956D01*
X013461Y004955D02*
X013697Y004955D01*
X013697Y004954D02*
X013461Y004954D01*
X013461Y004953D02*
X013697Y004953D01*
X013697Y004952D02*
X013461Y004952D01*
X013461Y004951D02*
X013697Y004951D01*
X013697Y004950D02*
X013461Y004950D01*
X013461Y004949D02*
X013697Y004949D01*
X013697Y004948D02*
X013461Y004948D01*
X013461Y004947D02*
X013697Y004947D01*
X013697Y004946D02*
X013461Y004946D01*
X013461Y004945D02*
X013697Y004945D01*
X013697Y004944D02*
X013461Y004944D01*
X013461Y004943D02*
X013697Y004943D01*
X013697Y004942D02*
X013461Y004942D01*
X013461Y004941D02*
X013697Y004941D01*
X013697Y004940D02*
X013461Y004940D01*
X013461Y004939D02*
X013697Y004939D01*
X013697Y004938D02*
X013461Y004938D01*
X013461Y004937D02*
X013697Y004937D01*
X013697Y004936D02*
X013461Y004936D01*
X013461Y004935D02*
X013697Y004935D01*
X013697Y004934D02*
X013461Y004934D01*
X013461Y004933D02*
X013697Y004933D01*
X013697Y004932D02*
X013461Y004932D01*
X013461Y004931D02*
X013697Y004931D01*
X013697Y004930D02*
X013461Y004930D01*
X013461Y004929D02*
X013697Y004929D01*
X013697Y004928D02*
X013461Y004928D01*
X013461Y004927D02*
X013697Y004927D01*
X013697Y004926D02*
X013461Y004926D01*
X013461Y004925D02*
X013697Y004925D01*
X013697Y004924D02*
X013461Y004924D01*
X013461Y004923D02*
X013697Y004923D01*
X013697Y004922D02*
X013461Y004922D01*
X013461Y004921D02*
X013697Y004921D01*
X013697Y004920D02*
X013461Y004920D01*
X013461Y004919D02*
X013697Y004919D01*
X013697Y004918D02*
X013461Y004918D01*
X013461Y004917D02*
X013697Y004917D01*
X013697Y004916D02*
X013461Y004916D01*
X013461Y004915D02*
X013697Y004915D01*
X013697Y004914D02*
X013461Y004914D01*
X013461Y004913D02*
X013697Y004913D01*
X013697Y004912D02*
X013461Y004912D01*
X013461Y004911D02*
X013697Y004911D01*
X013697Y004910D02*
X013461Y004910D01*
X013461Y004909D02*
X013697Y004909D01*
X013697Y004908D02*
X013461Y004908D01*
X013461Y004907D02*
X013697Y004907D01*
X013697Y004906D02*
X013461Y004906D01*
X013461Y004905D02*
X013697Y004905D01*
X013697Y004904D02*
X013461Y004904D01*
X013461Y004903D02*
X013697Y004903D01*
X013697Y004902D02*
X013461Y004902D01*
X013461Y004901D02*
X013697Y004901D01*
X013697Y004900D02*
X013461Y004900D01*
X013461Y004899D02*
X013697Y004899D01*
X013697Y004898D02*
X013461Y004898D01*
X013461Y004897D02*
X013697Y004897D01*
X013697Y004896D02*
X013461Y004896D01*
X013461Y004895D02*
X013697Y004895D01*
X013697Y004894D02*
X013461Y004894D01*
X013461Y004893D02*
X013697Y004893D01*
X013697Y004892D02*
X013461Y004892D01*
X013461Y004891D02*
X013697Y004891D01*
X013697Y004890D02*
X013461Y004890D01*
X013461Y004889D02*
X013697Y004889D01*
X013697Y004888D02*
X013461Y004888D01*
X013461Y004887D02*
X013697Y004887D01*
X013697Y004886D02*
X013461Y004886D01*
X013461Y004885D02*
X013697Y004885D01*
X013697Y004884D02*
X013461Y004884D01*
X013461Y004883D02*
X013697Y004883D01*
X013697Y004882D02*
X013461Y004882D01*
X013461Y004881D02*
X013697Y004881D01*
X013697Y004880D02*
X013461Y004880D01*
X013461Y004879D02*
X013697Y004879D01*
X013697Y004878D02*
X013461Y004878D01*
X013461Y004877D02*
X013697Y004877D01*
X013697Y004876D02*
X013461Y004876D01*
X013461Y004875D02*
X013697Y004875D01*
X013697Y004874D02*
X013461Y004874D01*
X013461Y004873D02*
X013697Y004873D01*
X013697Y004872D02*
X013461Y004872D01*
X013461Y004871D02*
X013697Y004871D01*
X013697Y004870D02*
X013461Y004870D01*
X013461Y004869D02*
X013697Y004869D01*
X013697Y004868D02*
X013461Y004868D01*
X013461Y004867D02*
X013697Y004867D01*
X013697Y004866D02*
X013461Y004866D01*
X013461Y004865D02*
X013697Y004865D01*
X013697Y004864D02*
X013461Y004864D01*
X013461Y004863D02*
X013697Y004863D01*
X013697Y004862D02*
X013461Y004862D01*
X013461Y004861D02*
X013697Y004861D01*
X013697Y004860D02*
X013461Y004860D01*
X013461Y004859D02*
X013697Y004859D01*
X013697Y004858D02*
X013461Y004858D01*
X013461Y004857D02*
X013697Y004857D01*
X013697Y004856D02*
X013461Y004856D01*
X013461Y004855D02*
X013697Y004855D01*
X013697Y004854D02*
X013461Y004854D01*
X013461Y004853D02*
X013697Y004853D01*
X013697Y004852D02*
X013461Y004852D01*
X013461Y004851D02*
X013697Y004851D01*
X013697Y004850D02*
X013461Y004850D01*
X013461Y004849D02*
X013697Y004849D01*
X013697Y004848D02*
X013461Y004848D01*
X013461Y004847D02*
X013697Y004847D01*
X013697Y004846D02*
X013461Y004846D01*
X013461Y004845D02*
X013697Y004845D01*
X013697Y004844D02*
X013461Y004844D01*
X013461Y004843D02*
X013697Y004843D01*
X013697Y004842D02*
X013461Y004842D01*
X013461Y004841D02*
X013697Y004841D01*
X013697Y004840D02*
X013461Y004840D01*
X013461Y004839D02*
X013697Y004839D01*
X013697Y004838D02*
X013461Y004838D01*
X013461Y004837D02*
X013697Y004837D01*
X013697Y004836D02*
X013461Y004836D01*
X013461Y004835D02*
X013697Y004835D01*
X013697Y004834D02*
X013461Y004834D01*
X013461Y004833D02*
X013697Y004833D01*
X013697Y004832D02*
X013461Y004832D01*
X013461Y004831D02*
X013697Y004831D01*
X013697Y004830D02*
X013461Y004830D01*
X013461Y004829D02*
X013697Y004829D01*
X013697Y004828D02*
X013461Y004828D01*
X013461Y004827D02*
X013697Y004827D01*
X013697Y004826D02*
X013461Y004826D01*
X013461Y004825D02*
X013697Y004825D01*
X013697Y004824D02*
X013461Y004824D01*
X013461Y004823D02*
X013697Y004823D01*
X013697Y004822D02*
X013461Y004822D01*
X013461Y004821D02*
X013697Y004821D01*
X013697Y004820D02*
X013461Y004820D01*
X013461Y004819D02*
X013697Y004819D01*
X013697Y004818D02*
X013461Y004818D01*
X013461Y004817D02*
X013697Y004817D01*
X013697Y004816D02*
X013461Y004816D01*
X013461Y004815D02*
X013697Y004815D01*
X013697Y004814D02*
X013461Y004814D01*
X013461Y004813D02*
X013697Y004813D01*
X013697Y004812D02*
X013461Y004812D01*
X013461Y004811D02*
X013697Y004811D01*
X013697Y004810D02*
X013461Y004810D01*
X013461Y004809D02*
X013697Y004809D01*
X013697Y004808D02*
X013461Y004808D01*
X013461Y004807D02*
X013697Y004807D01*
X013697Y004806D02*
X013461Y004806D01*
X013461Y004805D02*
X013697Y004805D01*
X013697Y004804D02*
X013461Y004804D01*
X013461Y004803D02*
X013697Y004803D01*
X013697Y004802D02*
X013461Y004802D01*
X013461Y004801D02*
X013697Y004801D01*
X013697Y004800D02*
X013461Y004800D01*
X013461Y004799D02*
X013697Y004799D01*
X013697Y004798D02*
X013461Y004798D01*
X013461Y004797D02*
X013697Y004797D01*
X013697Y004796D02*
X013461Y004796D01*
X013461Y004795D02*
X013697Y004795D01*
X013697Y004794D02*
X013461Y004794D01*
X013461Y004793D02*
X013697Y004793D01*
X013697Y004792D02*
X013461Y004792D01*
X013461Y004791D02*
X013697Y004791D01*
X013697Y004790D02*
X013461Y004790D01*
X013461Y004789D02*
X013697Y004789D01*
X013697Y004788D02*
X013461Y004788D01*
X013461Y004787D02*
X013697Y004787D01*
X013697Y004786D02*
X013461Y004786D01*
X013461Y004785D02*
X013697Y004785D01*
X013697Y004784D02*
X013461Y004784D01*
X013461Y004783D02*
X013697Y004783D01*
X013697Y004782D02*
X013461Y004782D01*
X013461Y004781D02*
X013697Y004781D01*
X013697Y004780D02*
X013461Y004780D01*
X013461Y004779D02*
X013697Y004779D01*
X013697Y004778D02*
X013461Y004778D01*
X013461Y004777D02*
X013697Y004777D01*
X013697Y004776D02*
X013461Y004776D01*
X013461Y004775D02*
X013697Y004775D01*
X013697Y004774D02*
X013461Y004774D01*
X013461Y004773D02*
X013697Y004773D01*
X013697Y004772D02*
X013461Y004772D01*
X013461Y004771D02*
X013697Y004771D01*
X013697Y004770D02*
X013461Y004770D01*
X013461Y004769D02*
X013697Y004769D01*
X013697Y004768D02*
X013461Y004768D01*
X013461Y004767D02*
X013697Y004767D01*
X013697Y004766D02*
X013461Y004766D01*
X013461Y004765D02*
X013697Y004765D01*
X013697Y004764D02*
X013461Y004764D01*
X013461Y004763D02*
X013697Y004763D01*
X013697Y004762D02*
X013461Y004762D01*
X013461Y004761D02*
X013697Y004761D01*
X013697Y004760D02*
X013461Y004760D01*
X013461Y004759D02*
X013697Y004759D01*
X013697Y004758D02*
X013461Y004758D01*
X013461Y004757D02*
X013697Y004757D01*
X013697Y004756D02*
X013461Y004756D01*
X013461Y004755D02*
X013697Y004755D01*
X013697Y004754D02*
X013461Y004754D01*
X013461Y004753D02*
X013697Y004753D01*
X013697Y004752D02*
X013461Y004752D01*
X013461Y004751D02*
X013697Y004751D01*
X013697Y004750D02*
X013461Y004750D01*
X013461Y004749D02*
X013697Y004749D01*
X013697Y004748D02*
X013461Y004748D01*
X013461Y004747D02*
X013697Y004747D01*
X013697Y004746D02*
X013461Y004746D01*
X013461Y004745D02*
X013697Y004745D01*
X013697Y004744D02*
X013461Y004744D01*
X013462Y004743D02*
X013697Y004743D01*
X013697Y004742D02*
X013462Y004742D01*
X013462Y004741D02*
X013697Y004741D01*
X013697Y004740D02*
X013462Y004740D01*
X013462Y004739D02*
X013696Y004739D01*
X013696Y004738D02*
X013462Y004738D01*
X013462Y004737D02*
X013696Y004737D01*
X013696Y004736D02*
X013462Y004736D01*
X013463Y004735D02*
X013696Y004735D01*
X013696Y004734D02*
X013463Y004734D01*
X013463Y004733D02*
X013696Y004733D01*
X013695Y004732D02*
X013463Y004732D01*
X013463Y004731D02*
X013695Y004731D01*
X013695Y004730D02*
X013463Y004730D01*
X013463Y004729D02*
X013695Y004729D01*
X013695Y004728D02*
X013463Y004728D01*
X013464Y004727D02*
X013695Y004727D01*
X013695Y004726D02*
X013464Y004726D01*
X013464Y004725D02*
X013695Y004725D01*
X013694Y004724D02*
X013464Y004724D01*
X013464Y004723D02*
X013694Y004723D01*
X013694Y004722D02*
X013464Y004722D01*
X013464Y004721D02*
X013694Y004721D01*
X013694Y004720D02*
X013465Y004720D01*
X013465Y004719D02*
X013693Y004719D01*
X013693Y004718D02*
X013466Y004718D01*
X013466Y004717D02*
X013692Y004717D01*
X013692Y004716D02*
X013466Y004716D01*
X013467Y004715D02*
X013692Y004715D01*
X013691Y004714D02*
X013467Y004714D01*
X013468Y004713D02*
X013691Y004713D01*
X013690Y004712D02*
X013468Y004712D01*
X013468Y004711D02*
X013690Y004711D01*
X013690Y004710D02*
X013469Y004710D01*
X013469Y004709D02*
X013689Y004709D01*
X013689Y004708D02*
X013470Y004708D01*
X013470Y004707D02*
X013688Y004707D01*
X013688Y004706D02*
X013471Y004706D01*
X013471Y004705D02*
X013687Y004705D01*
X013687Y004704D02*
X013471Y004704D01*
X013472Y004703D02*
X013687Y004703D01*
X013686Y004702D02*
X013472Y004702D01*
X013473Y004701D02*
X013686Y004701D01*
X013685Y004700D02*
X013473Y004700D01*
X013473Y004699D02*
X013685Y004699D01*
X013685Y004698D02*
X013474Y004698D01*
X013684Y004698D01*
X013683Y004697D02*
X013475Y004697D01*
X013476Y004696D02*
X013683Y004696D01*
X013682Y004695D02*
X013477Y004695D01*
X013477Y004694D02*
X013681Y004694D01*
X013680Y004693D02*
X013478Y004693D01*
X013479Y004692D02*
X013680Y004692D01*
X013679Y004691D02*
X013480Y004691D01*
X013480Y004690D02*
X013678Y004690D01*
X013677Y004689D02*
X013481Y004689D01*
X013482Y004688D02*
X013677Y004688D01*
X013676Y004687D02*
X013483Y004687D01*
X013483Y004686D02*
X013675Y004686D01*
X013674Y004685D02*
X013484Y004685D01*
X013485Y004684D02*
X013673Y004684D01*
X013673Y004683D02*
X013486Y004683D01*
X013486Y004682D02*
X013672Y004682D01*
X013671Y004681D02*
X013487Y004681D01*
X013488Y004680D02*
X013670Y004680D01*
X013670Y004679D02*
X013489Y004679D01*
X013490Y004678D02*
X013669Y004678D01*
X013668Y004677D02*
X013491Y004677D01*
X013492Y004676D02*
X013667Y004676D01*
X013665Y004675D02*
X013493Y004675D01*
X013494Y004674D02*
X013664Y004674D01*
X013663Y004673D02*
X013496Y004673D01*
X013497Y004672D02*
X013661Y004672D01*
X013660Y004671D02*
X013498Y004671D01*
X013500Y004670D02*
X013659Y004670D01*
X013657Y004669D02*
X013501Y004669D01*
X013502Y004668D02*
X013656Y004668D01*
X013655Y004667D02*
X013504Y004667D01*
X013505Y004666D02*
X013654Y004666D01*
X013652Y004665D02*
X013506Y004665D01*
X013508Y004664D02*
X013651Y004664D01*
X013650Y004663D02*
X013509Y004663D01*
X013510Y004662D02*
X013648Y004662D01*
X013646Y004661D02*
X013512Y004661D01*
X013515Y004660D02*
X013644Y004660D01*
X013641Y004659D02*
X013517Y004659D01*
X013520Y004658D02*
X013639Y004658D01*
X013636Y004657D02*
X013522Y004657D01*
X013524Y004656D02*
X013634Y004656D01*
X013632Y004655D02*
X013527Y004655D01*
X013529Y004654D02*
X013629Y004654D01*
X013627Y004653D02*
X013532Y004653D01*
X013534Y004652D02*
X013624Y004652D01*
X013617Y004651D02*
X013542Y004651D01*
X013549Y004650D02*
X013609Y004650D01*
X013602Y004649D02*
X013557Y004649D01*
X013461Y005141D02*
X013697Y005141D01*
X013697Y005142D02*
X013461Y005142D01*
X013461Y005143D02*
X013697Y005143D01*
X013697Y005144D02*
X013462Y005144D01*
X013462Y005145D02*
X013697Y005145D01*
X013697Y005146D02*
X013462Y005146D01*
X013462Y005147D02*
X013696Y005147D01*
X013696Y005148D02*
X013462Y005148D01*
X013462Y005149D02*
X013696Y005149D01*
X013696Y005150D02*
X013462Y005150D01*
X013463Y005151D02*
X013696Y005151D01*
X013696Y005152D02*
X013463Y005152D01*
X013463Y005153D02*
X013696Y005153D01*
X013696Y005154D02*
X013463Y005154D01*
X013463Y005155D02*
X013695Y005155D01*
X013695Y005156D02*
X013463Y005156D01*
X013463Y005157D02*
X013695Y005157D01*
X013695Y005158D02*
X013463Y005158D01*
X013464Y005159D02*
X013695Y005159D01*
X013695Y005160D02*
X013464Y005160D01*
X013464Y005161D02*
X013695Y005161D01*
X013694Y005162D02*
X013464Y005162D01*
X013464Y005163D02*
X013694Y005163D01*
X013694Y005164D02*
X013464Y005164D01*
X013464Y005165D02*
X013694Y005165D01*
X013694Y005166D02*
X013465Y005166D01*
X013465Y005167D02*
X013693Y005167D01*
X013693Y005168D02*
X013465Y005168D01*
X013466Y005169D02*
X013693Y005169D01*
X013692Y005170D02*
X013466Y005170D01*
X013467Y005171D02*
X013692Y005171D01*
X013691Y005172D02*
X013467Y005172D01*
X013467Y005173D02*
X013691Y005173D01*
X013691Y005174D02*
X013468Y005174D01*
X013468Y005175D02*
X013690Y005175D01*
X013690Y005176D02*
X013469Y005176D01*
X013469Y005177D02*
X013689Y005177D01*
X013689Y005178D02*
X013470Y005178D01*
X013470Y005179D02*
X013688Y005179D01*
X013688Y005180D02*
X013470Y005180D01*
X013471Y005181D02*
X013688Y005181D01*
X013687Y005182D02*
X013471Y005182D01*
X013472Y005183D02*
X013687Y005183D01*
X013686Y005184D02*
X013472Y005184D01*
X013472Y005185D02*
X013686Y005185D01*
X013686Y005186D02*
X013473Y005186D01*
X013473Y005187D02*
X013685Y005187D01*
X013685Y005188D02*
X013474Y005188D01*
X013474Y005189D02*
X013684Y005189D01*
X013684Y005190D02*
X013475Y005190D01*
X013475Y005191D02*
X013683Y005191D01*
X013682Y005192D02*
X013476Y005192D01*
X013477Y005193D02*
X013681Y005193D01*
X013681Y005194D02*
X013478Y005194D01*
X013478Y005195D02*
X013680Y005195D01*
X013679Y005196D02*
X013479Y005196D01*
X013480Y005197D02*
X013678Y005197D01*
X013678Y005198D02*
X013481Y005198D01*
X013482Y005199D02*
X013677Y005199D01*
X013676Y005200D02*
X013482Y005200D01*
X013483Y005201D02*
X013675Y005201D01*
X013675Y005202D02*
X013484Y005202D01*
X013485Y005203D02*
X013674Y005203D01*
X013673Y005204D02*
X013485Y005204D01*
X013486Y005205D02*
X013672Y005205D01*
X013671Y005206D02*
X013487Y005206D01*
X013488Y005207D02*
X013671Y005207D01*
X013670Y005208D02*
X013488Y005208D01*
X013489Y005209D02*
X013669Y005209D01*
X013668Y005210D02*
X013490Y005210D01*
X013491Y005211D02*
X013667Y005211D01*
X013666Y005212D02*
X013493Y005212D01*
X013494Y005213D02*
X013664Y005213D01*
X013663Y005214D02*
X013495Y005214D01*
X013497Y005215D02*
X013662Y005215D01*
X013661Y005216D02*
X013498Y005216D01*
X013499Y005217D02*
X013659Y005217D01*
X013658Y005218D02*
X013500Y005218D01*
X013502Y005219D02*
X013657Y005219D01*
X013655Y005220D02*
X013503Y005220D01*
X013504Y005221D02*
X013654Y005221D01*
X013653Y005222D02*
X013506Y005222D01*
X013507Y005223D02*
X013651Y005223D01*
X013650Y005224D02*
X013508Y005224D01*
X013510Y005225D02*
X013649Y005225D01*
X013647Y005226D02*
X013511Y005226D01*
X013514Y005227D02*
X013645Y005227D01*
X013642Y005228D02*
X013516Y005228D01*
X013519Y005229D02*
X013640Y005229D01*
X013637Y005230D02*
X013521Y005230D01*
X013523Y005231D02*
X013635Y005231D01*
X013633Y005232D02*
X013526Y005232D01*
X013528Y005233D02*
X013630Y005233D01*
X013628Y005234D02*
X013531Y005234D01*
X013533Y005235D02*
X013625Y005235D01*
X013620Y005236D02*
X013538Y005236D01*
X013546Y005237D02*
X013612Y005237D01*
X013605Y005238D02*
X013554Y005238D01*
X013558Y003546D02*
X013600Y003546D01*
X013608Y003545D02*
X013550Y003545D01*
X013543Y003544D02*
X013616Y003544D01*
X013623Y003543D02*
X013535Y003543D01*
X013532Y003542D02*
X013626Y003542D01*
X013629Y003541D02*
X013530Y003541D01*
X013527Y003540D02*
X013631Y003540D01*
X013634Y003539D02*
X013525Y003539D01*
X013522Y003538D02*
X013636Y003538D01*
X013638Y003537D02*
X013520Y003537D01*
X013518Y003536D02*
X013641Y003536D01*
X013643Y003535D02*
X013515Y003535D01*
X013513Y003534D02*
X013646Y003534D01*
X013648Y003533D02*
X013510Y003533D01*
X013509Y003532D02*
X013649Y003532D01*
X013651Y003531D02*
X013508Y003531D01*
X013506Y003530D02*
X013652Y003530D01*
X013653Y003529D02*
X013505Y003529D01*
X013504Y003528D02*
X013655Y003528D01*
X013656Y003527D02*
X013503Y003527D01*
X013501Y003526D02*
X013657Y003526D01*
X013659Y003525D02*
X013500Y003525D01*
X013499Y003524D02*
X013660Y003524D01*
X013661Y003523D02*
X013497Y003523D01*
X013496Y003522D02*
X013662Y003522D01*
X013664Y003521D02*
X013495Y003521D01*
X013493Y003520D02*
X013665Y003520D01*
X013666Y003519D02*
X013492Y003519D01*
X013491Y003518D02*
X013668Y003518D01*
X013669Y003517D02*
X013490Y003517D01*
X013489Y003516D02*
X013670Y003516D01*
X013670Y003515D02*
X013488Y003515D01*
X013487Y003514D02*
X013671Y003514D01*
X013672Y003513D02*
X013487Y003513D01*
X013486Y003512D02*
X013673Y003512D01*
X013673Y003511D02*
X013485Y003511D01*
X013484Y003510D02*
X013674Y003510D01*
X013675Y003509D02*
X013484Y003509D01*
X013483Y003508D02*
X013676Y003508D01*
X013676Y003507D02*
X013482Y003507D01*
X013481Y003506D02*
X013677Y003506D01*
X013678Y003505D02*
X013480Y003505D01*
X013480Y003504D02*
X013679Y003504D01*
X013679Y003503D02*
X013479Y003503D01*
X013478Y003502D02*
X013680Y003502D01*
X013681Y003501D02*
X013477Y003501D01*
X013477Y003500D02*
X013682Y003500D01*
X013683Y003499D02*
X013476Y003499D01*
X013475Y003498D02*
X013683Y003498D01*
X013684Y003497D02*
X013474Y003497D01*
X013474Y003496D02*
X013685Y003496D01*
X013685Y003495D02*
X013473Y003495D01*
X013473Y003494D02*
X013685Y003494D01*
X013686Y003493D02*
X013473Y003493D01*
X013472Y003492D02*
X013686Y003492D01*
X013687Y003491D02*
X013472Y003491D01*
X013471Y003490D02*
X013687Y003490D01*
X013687Y003489D02*
X013471Y003489D01*
X013471Y003488D02*
X013688Y003488D01*
X013688Y003487D02*
X013470Y003487D01*
X013470Y003486D02*
X013689Y003486D01*
X013689Y003485D02*
X013469Y003485D01*
X013469Y003484D02*
X013689Y003484D01*
X013690Y003483D02*
X013469Y003483D01*
X013468Y003482D02*
X013690Y003482D01*
X013691Y003481D02*
X013468Y003481D01*
X013467Y003480D02*
X013691Y003480D01*
X013692Y003479D02*
X013467Y003479D01*
X013466Y003478D02*
X013692Y003478D01*
X013692Y003477D02*
X013466Y003477D01*
X013466Y003476D02*
X013693Y003476D01*
X013693Y003475D02*
X013465Y003475D01*
X013465Y003474D02*
X013694Y003474D01*
X013694Y003473D02*
X013464Y003473D01*
X013464Y003472D02*
X013694Y003472D01*
X013694Y003471D02*
X013464Y003471D01*
X013464Y003470D02*
X013694Y003470D01*
X013695Y003469D02*
X013464Y003469D01*
X013464Y003468D02*
X013695Y003468D01*
X013695Y003467D02*
X013464Y003467D01*
X013464Y003466D02*
X013695Y003466D01*
X013695Y003465D02*
X013463Y003465D01*
X013463Y003464D02*
X013695Y003464D01*
X013695Y003463D02*
X013463Y003463D01*
X013463Y003462D02*
X013695Y003462D01*
X013696Y003461D02*
X013463Y003461D01*
X013463Y003460D02*
X013696Y003460D01*
X013696Y003459D02*
X013463Y003459D01*
X013462Y003458D02*
X013696Y003458D01*
X013696Y003457D02*
X013462Y003457D01*
X013462Y003456D02*
X013696Y003456D01*
X013696Y003455D02*
X013462Y003455D01*
X013462Y003454D02*
X013696Y003454D01*
X013697Y003453D02*
X013462Y003453D01*
X013462Y003452D02*
X013697Y003452D01*
X013697Y003451D02*
X013462Y003451D01*
X013461Y003450D02*
X013697Y003450D01*
X013697Y003449D02*
X013461Y003449D01*
X013461Y003448D02*
X013697Y003448D01*
X013697Y003447D02*
X013461Y003447D01*
X013461Y003446D02*
X013697Y003446D01*
X013697Y003445D02*
X013461Y003445D01*
X013461Y003444D02*
X013697Y003444D01*
X013697Y003443D02*
X013461Y003443D01*
X013461Y003442D02*
X013697Y003442D01*
X013697Y003441D02*
X013461Y003441D01*
X013461Y003440D02*
X013697Y003440D01*
X013697Y003439D02*
X013461Y003439D01*
X013461Y003438D02*
X013697Y003438D01*
X013697Y003437D02*
X013461Y003437D01*
X013461Y003436D02*
X013697Y003436D01*
X013697Y003435D02*
X013461Y003435D01*
X013461Y003434D02*
X013697Y003434D01*
X013697Y003433D02*
X013461Y003433D01*
X013461Y003432D02*
X013697Y003432D01*
X013697Y003431D02*
X013461Y003431D01*
X013461Y003430D02*
X013697Y003430D01*
X013697Y003429D02*
X013461Y003429D01*
X013461Y003428D02*
X013697Y003428D01*
X013697Y003427D02*
X013461Y003427D01*
X013461Y003426D02*
X013697Y003426D01*
X013697Y003425D02*
X013461Y003425D01*
X013461Y003424D02*
X013697Y003424D01*
X013697Y003423D02*
X013461Y003423D01*
X013461Y003422D02*
X013697Y003422D01*
X013697Y003421D02*
X013461Y003421D01*
X013461Y003420D02*
X013697Y003420D01*
X013697Y003419D02*
X013461Y003419D01*
X013461Y003418D02*
X013697Y003418D01*
X013697Y003417D02*
X013461Y003417D01*
X013461Y003416D02*
X013697Y003416D01*
X013697Y003415D02*
X013461Y003415D01*
X013461Y003414D02*
X013697Y003414D01*
X013697Y003413D02*
X013461Y003413D01*
X013461Y003412D02*
X013697Y003412D01*
X013697Y003411D02*
X013461Y003411D01*
X013461Y003410D02*
X013697Y003410D01*
X013697Y003409D02*
X013461Y003409D01*
X013461Y003408D02*
X013697Y003408D01*
X013697Y003407D02*
X013461Y003407D01*
X013461Y003406D02*
X013697Y003406D01*
X013697Y003405D02*
X013461Y003405D01*
X013461Y003404D02*
X013697Y003404D01*
X013697Y003403D02*
X013461Y003403D01*
X013461Y003402D02*
X013697Y003402D01*
X013697Y003401D02*
X013461Y003401D01*
X013461Y003400D02*
X013697Y003400D01*
X013697Y003399D02*
X013461Y003399D01*
X013461Y003398D02*
X013697Y003398D01*
X013697Y003397D02*
X013461Y003397D01*
X013461Y003396D02*
X013697Y003396D01*
X013697Y003395D02*
X013461Y003395D01*
X013461Y003394D02*
X013697Y003394D01*
X013697Y003393D02*
X013461Y003393D01*
X013461Y003392D02*
X013697Y003392D01*
X013697Y003391D02*
X013461Y003391D01*
X013461Y003390D02*
X013697Y003390D01*
X013697Y003389D02*
X013461Y003389D01*
X013461Y003388D02*
X013697Y003388D01*
X013697Y003387D02*
X013461Y003387D01*
X013461Y003386D02*
X013697Y003386D01*
X013697Y003385D02*
X013461Y003385D01*
X013461Y003384D02*
X013697Y003384D01*
X013697Y003383D02*
X013461Y003383D01*
X013461Y003382D02*
X013697Y003382D01*
X013697Y003381D02*
X013461Y003381D01*
X013461Y003380D02*
X013697Y003380D01*
X013697Y003379D02*
X013461Y003379D01*
X013461Y003378D02*
X013697Y003378D01*
X013697Y003377D02*
X013461Y003377D01*
X013461Y003376D02*
X013697Y003376D01*
X013697Y003375D02*
X013461Y003375D01*
X013461Y003374D02*
X013697Y003374D01*
X013697Y003373D02*
X013461Y003373D01*
X013461Y003372D02*
X013697Y003372D01*
X013697Y003371D02*
X013461Y003371D01*
X013461Y003370D02*
X013697Y003370D01*
X013697Y003369D02*
X013461Y003369D01*
X013461Y003368D02*
X013697Y003368D01*
X013697Y003367D02*
X013461Y003367D01*
X013461Y003366D02*
X013697Y003366D01*
X013697Y003365D02*
X013461Y003365D01*
X013461Y003364D02*
X013697Y003364D01*
X013697Y003363D02*
X013461Y003363D01*
X013461Y003362D02*
X013697Y003362D01*
X013697Y003361D02*
X013461Y003361D01*
X013461Y003360D02*
X013697Y003360D01*
X013697Y003359D02*
X013461Y003359D01*
X013461Y003358D02*
X013697Y003358D01*
X013697Y003357D02*
X013461Y003357D01*
X013461Y003356D02*
X013697Y003356D01*
X013697Y003355D02*
X013461Y003355D01*
X013461Y003354D02*
X013697Y003354D01*
X013697Y003353D02*
X013461Y003353D01*
X013461Y003352D02*
X013697Y003352D01*
X013697Y003351D02*
X013461Y003351D01*
X013461Y003350D02*
X013697Y003350D01*
X013697Y003349D02*
X013461Y003349D01*
X013461Y003348D02*
X013697Y003348D01*
X013697Y003347D02*
X013461Y003347D01*
X013461Y003346D02*
X013697Y003346D01*
X013697Y003345D02*
X013461Y003345D01*
X013461Y003344D02*
X013697Y003344D01*
X013697Y003343D02*
X013461Y003343D01*
X013461Y003342D02*
X013697Y003342D01*
X013697Y003341D02*
X013461Y003341D01*
X013461Y003340D02*
X013697Y003340D01*
X013697Y003339D02*
X013461Y003339D01*
X013461Y003338D02*
X013697Y003338D01*
X013697Y003337D02*
X013461Y003337D01*
X013461Y003336D02*
X013697Y003336D01*
X013697Y003335D02*
X013461Y003335D01*
X013461Y003334D02*
X013697Y003334D01*
X013697Y003333D02*
X013461Y003333D01*
X013461Y003332D02*
X013697Y003332D01*
X013697Y003331D02*
X013461Y003331D01*
X013461Y003330D02*
X013697Y003330D01*
X013697Y003329D02*
X013461Y003329D01*
X013461Y003328D02*
X013697Y003328D01*
X013697Y003327D02*
X013461Y003327D01*
X013461Y003326D02*
X013697Y003326D01*
X013697Y003325D02*
X013461Y003325D01*
X013461Y003324D02*
X013697Y003324D01*
X013697Y003323D02*
X013461Y003323D01*
X013461Y003322D02*
X013697Y003322D01*
X013697Y003321D02*
X013461Y003321D01*
X013461Y003320D02*
X013697Y003320D01*
X013697Y003319D02*
X013461Y003319D01*
X013461Y003318D02*
X013697Y003318D01*
X013697Y003317D02*
X013461Y003317D01*
X013461Y003316D02*
X013697Y003316D01*
X013697Y003315D02*
X013461Y003315D01*
X013461Y003314D02*
X013697Y003314D01*
X013697Y003313D02*
X013461Y003313D01*
X013461Y003312D02*
X013697Y003312D01*
X013697Y003311D02*
X013461Y003311D01*
X013461Y003310D02*
X013697Y003310D01*
X013697Y003309D02*
X013461Y003309D01*
X013461Y003308D02*
X013697Y003308D01*
X013697Y003307D02*
X013461Y003307D01*
X013461Y003306D02*
X013697Y003306D01*
X013697Y003305D02*
X013461Y003305D01*
X013461Y003304D02*
X013697Y003304D01*
X013697Y003303D02*
X013461Y003303D01*
X013461Y003302D02*
X013697Y003302D01*
X013697Y003301D02*
X013461Y003301D01*
X013461Y003300D02*
X013697Y003300D01*
X013697Y003299D02*
X013461Y003299D01*
X013461Y003298D02*
X013697Y003298D01*
X013697Y003297D02*
X013461Y003297D01*
X013461Y003296D02*
X013697Y003296D01*
X013697Y003295D02*
X013461Y003295D01*
X013461Y003294D02*
X013697Y003294D01*
X013697Y003293D02*
X013461Y003293D01*
X013461Y003292D02*
X013697Y003292D01*
X013697Y003291D02*
X013461Y003291D01*
X013461Y003290D02*
X013697Y003290D01*
X013697Y003289D02*
X013461Y003289D01*
X013461Y003288D02*
X013697Y003288D01*
X013697Y003287D02*
X013461Y003287D01*
X013461Y003286D02*
X013697Y003286D01*
X013697Y003285D02*
X013461Y003285D01*
X013461Y003284D02*
X013697Y003284D01*
X013697Y003283D02*
X013461Y003283D01*
X013461Y003282D02*
X013697Y003282D01*
X013697Y003281D02*
X013461Y003281D01*
X013461Y003280D02*
X013697Y003280D01*
X013697Y003279D02*
X013461Y003279D01*
X013461Y003278D02*
X013697Y003278D01*
X013697Y003277D02*
X013461Y003277D01*
X013461Y003276D02*
X013697Y003276D01*
X013697Y003275D02*
X013461Y003275D01*
X013461Y003274D02*
X013697Y003274D01*
X013697Y003273D02*
X013461Y003273D01*
X013461Y003272D02*
X013697Y003272D01*
X013697Y003271D02*
X013461Y003271D01*
X013461Y003270D02*
X013697Y003270D01*
X013697Y003269D02*
X013461Y003269D01*
X013461Y003268D02*
X013697Y003268D01*
X013697Y003267D02*
X013461Y003267D01*
X013461Y003266D02*
X013697Y003266D01*
X013697Y003265D02*
X013461Y003265D01*
X013461Y003264D02*
X013697Y003264D01*
X013697Y003263D02*
X013461Y003263D01*
X013461Y003262D02*
X013697Y003262D01*
X013697Y003261D02*
X013461Y003261D01*
X013461Y003260D02*
X013697Y003260D01*
X013697Y003259D02*
X013461Y003259D01*
X013461Y003258D02*
X013697Y003258D01*
X013697Y003257D02*
X013461Y003257D01*
X013461Y003256D02*
X013697Y003256D01*
X013697Y003255D02*
X013461Y003255D01*
X013461Y003254D02*
X013697Y003254D01*
X013697Y003253D02*
X013461Y003253D01*
X013461Y003252D02*
X013697Y003252D01*
X013697Y003251D02*
X013461Y003251D01*
X013461Y003250D02*
X013697Y003250D01*
X013697Y003249D02*
X013461Y003249D01*
X013461Y003248D02*
X013697Y003248D01*
X013697Y003247D02*
X013461Y003247D01*
X013461Y003246D02*
X013697Y003246D01*
X013697Y003245D02*
X013461Y003245D01*
X013461Y003244D02*
X013697Y003244D01*
X013697Y003243D02*
X013461Y003243D01*
X013461Y003242D02*
X013697Y003242D01*
X013697Y003241D02*
X013461Y003241D01*
X013461Y003240D02*
X013697Y003240D01*
X013697Y003239D02*
X013461Y003239D01*
X013461Y003238D02*
X013697Y003238D01*
X013697Y003237D02*
X013461Y003237D01*
X013461Y003236D02*
X013697Y003236D01*
X013697Y003235D02*
X013461Y003235D01*
X013461Y003234D02*
X013697Y003234D01*
X013697Y003233D02*
X013461Y003233D01*
X013461Y003232D02*
X013697Y003232D01*
X013697Y003231D02*
X013461Y003231D01*
X013461Y003230D02*
X013697Y003230D01*
X013697Y003229D02*
X013461Y003229D01*
X013461Y003228D02*
X013697Y003228D01*
X013697Y003227D02*
X013461Y003227D01*
X013461Y003226D02*
X013697Y003226D01*
X013697Y003225D02*
X013461Y003225D01*
X013461Y003224D02*
X013697Y003224D01*
X013697Y003223D02*
X013461Y003223D01*
X013461Y003222D02*
X013697Y003222D01*
X013697Y003221D02*
X013461Y003221D01*
X013461Y003220D02*
X013697Y003220D01*
X013697Y003219D02*
X013461Y003219D01*
X013461Y003218D02*
X013697Y003218D01*
X013697Y003217D02*
X013461Y003217D01*
X013461Y003216D02*
X013697Y003216D01*
X013697Y003215D02*
X013461Y003215D01*
X013461Y003214D02*
X013697Y003214D01*
X013697Y003213D02*
X013461Y003213D01*
X013461Y003212D02*
X013697Y003212D01*
X013697Y003211D02*
X013461Y003211D01*
X013461Y003210D02*
X013697Y003210D01*
X013697Y003209D02*
X013461Y003209D01*
X013461Y003208D02*
X013697Y003208D01*
X013697Y003207D02*
X013461Y003207D01*
X013461Y003206D02*
X013697Y003206D01*
X013697Y003205D02*
X013461Y003205D01*
X013461Y003204D02*
X013697Y003204D01*
X013697Y003203D02*
X013461Y003203D01*
X013461Y003202D02*
X013697Y003202D01*
X013697Y003201D02*
X013461Y003201D01*
X013461Y003200D02*
X013697Y003200D01*
X013697Y003199D02*
X013461Y003199D01*
X013461Y003198D02*
X013697Y003198D01*
X013697Y003197D02*
X013461Y003197D01*
X013461Y003196D02*
X013697Y003196D01*
X013697Y003195D02*
X013461Y003195D01*
X013461Y003194D02*
X013697Y003194D01*
X013697Y003193D02*
X013461Y003193D01*
X013461Y003192D02*
X013697Y003192D01*
X013697Y003191D02*
X013461Y003191D01*
X013461Y003190D02*
X013697Y003190D01*
X013697Y003189D02*
X013461Y003189D01*
X013461Y003188D02*
X013697Y003188D01*
X013697Y003187D02*
X013461Y003187D01*
X013461Y003186D02*
X013697Y003186D01*
X013697Y003185D02*
X013461Y003185D01*
X013461Y003184D02*
X013697Y003184D01*
X013697Y003183D02*
X013461Y003183D01*
X013461Y003182D02*
X013697Y003182D01*
X013697Y003181D02*
X013461Y003181D01*
X013461Y003180D02*
X013697Y003180D01*
X013697Y003179D02*
X013461Y003179D01*
X013461Y003178D02*
X013697Y003178D01*
X013697Y003177D02*
X013461Y003177D01*
X013461Y003176D02*
X013697Y003176D01*
X013697Y003175D02*
X013461Y003175D01*
X013461Y003174D02*
X013697Y003174D01*
X013697Y003173D02*
X013461Y003173D01*
X013461Y003172D02*
X013697Y003172D01*
X013697Y003171D02*
X013461Y003171D01*
X013461Y003170D02*
X013697Y003170D01*
X013697Y003169D02*
X013461Y003169D01*
X013461Y003168D02*
X013697Y003168D01*
X013697Y003167D02*
X013461Y003167D01*
X013461Y003166D02*
X013697Y003166D01*
X013697Y003165D02*
X013461Y003165D01*
X013461Y003164D02*
X013697Y003164D01*
X013697Y003163D02*
X013461Y003163D01*
X013461Y003162D02*
X013697Y003162D01*
X013697Y003161D02*
X013461Y003161D01*
X013461Y003160D02*
X013697Y003160D01*
X013697Y003159D02*
X013461Y003159D01*
X013461Y003158D02*
X013697Y003158D01*
X013697Y003157D02*
X013461Y003157D01*
X013461Y003156D02*
X013697Y003156D01*
X013697Y003155D02*
X013461Y003155D01*
X013461Y003154D02*
X013697Y003154D01*
X013697Y003153D02*
X013461Y003153D01*
X013461Y003152D02*
X013697Y003152D01*
X013697Y003151D02*
X013461Y003151D01*
X013461Y003150D02*
X013697Y003150D01*
X013697Y003149D02*
X013461Y003149D01*
X013461Y003148D02*
X013697Y003148D01*
X013697Y003147D02*
X013461Y003147D01*
X013461Y003146D02*
X013697Y003146D01*
X013697Y003145D02*
X013461Y003145D01*
X013461Y003144D02*
X013697Y003144D01*
X013697Y003143D02*
X013461Y003143D01*
X013461Y003142D02*
X013697Y003142D01*
X013697Y003141D02*
X013461Y003141D01*
X013461Y003140D02*
X013697Y003140D01*
X013697Y003139D02*
X013461Y003139D01*
X013461Y003138D02*
X013697Y003138D01*
X013697Y003137D02*
X013461Y003137D01*
X013461Y003136D02*
X013697Y003136D01*
X013697Y003135D02*
X013461Y003135D01*
X013461Y003134D02*
X013697Y003134D01*
X013697Y003133D02*
X013461Y003133D01*
X013461Y003132D02*
X013697Y003132D01*
X013697Y003131D02*
X013461Y003131D01*
X013461Y003130D02*
X013697Y003130D01*
X013697Y003129D02*
X013462Y003129D01*
X013462Y003128D02*
X013697Y003128D01*
X013697Y003127D02*
X013462Y003127D01*
X013462Y003126D02*
X013696Y003126D01*
X013696Y003125D02*
X013462Y003125D01*
X013462Y003124D02*
X013696Y003124D01*
X013696Y003123D02*
X013462Y003123D01*
X013462Y003122D02*
X013696Y003122D01*
X013696Y003121D02*
X013463Y003121D01*
X013463Y003120D02*
X013696Y003120D01*
X013696Y003119D02*
X013463Y003119D01*
X013463Y003118D02*
X013695Y003118D01*
X013695Y003117D02*
X013463Y003117D01*
X013463Y003116D02*
X013695Y003116D01*
X013695Y003115D02*
X013463Y003115D01*
X013464Y003114D02*
X013695Y003114D01*
X013695Y003113D02*
X013464Y003113D01*
X013464Y003112D02*
X013695Y003112D01*
X013695Y003111D02*
X013464Y003111D01*
X013464Y003110D02*
X013694Y003110D01*
X013694Y003109D02*
X013464Y003109D01*
X013464Y003108D02*
X013694Y003108D01*
X013694Y003107D02*
X013464Y003107D01*
X013465Y003106D02*
X013694Y003106D01*
X013693Y003105D02*
X013465Y003105D01*
X013466Y003104D02*
X013693Y003104D01*
X013692Y003103D02*
X013466Y003103D01*
X013466Y003102D02*
X013692Y003102D01*
X013692Y003101D02*
X013467Y003101D01*
X013467Y003100D02*
X013691Y003100D01*
X013691Y003099D02*
X013468Y003099D01*
X013468Y003098D02*
X013690Y003098D01*
X013690Y003097D02*
X013469Y003097D01*
X013469Y003096D02*
X013689Y003096D01*
X013689Y003095D02*
X013469Y003095D01*
X013470Y003094D02*
X013689Y003094D01*
X013688Y003093D02*
X013470Y003093D01*
X013471Y003092D02*
X013688Y003092D01*
X013687Y003091D02*
X013471Y003091D01*
X013471Y003090D02*
X013687Y003090D01*
X013687Y003089D02*
X013472Y003089D01*
X013472Y003088D02*
X013686Y003088D01*
X013686Y003087D02*
X013473Y003087D01*
X013473Y003086D02*
X013685Y003086D01*
X013685Y003085D02*
X013474Y003085D01*
X013474Y003084D02*
X013684Y003084D01*
X013684Y003083D02*
X013474Y003083D01*
X013475Y003082D02*
X013683Y003082D01*
X013682Y003081D02*
X013476Y003081D01*
X013477Y003080D02*
X013682Y003080D01*
X013681Y003079D02*
X013477Y003079D01*
X013478Y003078D02*
X013680Y003078D01*
X013679Y003077D02*
X013479Y003077D01*
X013480Y003076D02*
X013679Y003076D01*
X013678Y003075D02*
X013481Y003075D01*
X013481Y003074D02*
X013677Y003074D01*
X013676Y003073D02*
X013482Y003073D01*
X013483Y003072D02*
X013676Y003072D01*
X013675Y003071D02*
X013484Y003071D01*
X013484Y003070D02*
X013674Y003070D01*
X013673Y003069D02*
X013485Y003069D01*
X013486Y003068D02*
X013673Y003068D01*
X013672Y003067D02*
X013487Y003067D01*
X013487Y003066D02*
X013671Y003066D01*
X013670Y003065D02*
X013488Y003065D01*
X013489Y003064D02*
X013669Y003064D01*
X013669Y003063D02*
X013490Y003063D01*
X013491Y003062D02*
X013668Y003062D01*
X013666Y003061D02*
X013492Y003061D01*
X013493Y003060D02*
X013665Y003060D01*
X013664Y003059D02*
X013495Y003059D01*
X013496Y003058D02*
X013662Y003058D01*
X013661Y003057D02*
X013497Y003057D01*
X013499Y003056D02*
X013660Y003056D01*
X013658Y003055D02*
X013500Y003055D01*
X013501Y003054D02*
X013657Y003054D01*
X013656Y003053D02*
X013503Y003053D01*
X013504Y003052D02*
X013655Y003052D01*
X013653Y003051D02*
X013505Y003051D01*
X013507Y003050D02*
X013652Y003050D01*
X013651Y003049D02*
X013508Y003049D01*
X013509Y003048D02*
X013649Y003048D01*
X013648Y003047D02*
X013510Y003047D01*
X013513Y003046D02*
X013646Y003046D01*
X013643Y003045D02*
X013515Y003045D01*
X013518Y003044D02*
X013641Y003044D01*
X013638Y003043D02*
X013520Y003043D01*
X013523Y003042D02*
X013636Y003042D01*
X013633Y003041D02*
X013525Y003041D01*
X013527Y003040D02*
X013631Y003040D01*
X013629Y003039D02*
X013530Y003039D01*
X013532Y003038D02*
X013626Y003038D01*
X013623Y003037D02*
X013536Y003037D01*
X013543Y003036D02*
X013615Y003036D01*
X013607Y003035D02*
X013551Y003035D01*
X013559Y003034D02*
X013600Y003034D01*
D42*
X013772Y003610D02*
X013922Y003610D01*
X013772Y003610D02*
X014072Y003910D01*
X014072Y004210D02*
X013772Y004510D01*
X013772Y004360D01*
X013772Y004510D02*
X013922Y004510D01*
X013772Y003760D02*
X013772Y003610D01*
X016472Y003910D02*
X016772Y003610D01*
X016772Y003760D01*
X016772Y003610D02*
X016622Y003610D01*
X016472Y004210D02*
X016772Y004510D01*
X016622Y004510D01*
X016772Y004510D02*
X016772Y004360D01*
M02*
