G75*
G70*
%OFA0B0*%
%FSLAX24Y24*%
%IPPOS*%
%LPD*%
%AMOC8*
5,1,8,0,0,1.08239X$1,22.5*
%
%ADD10C,0.0080*%
%ADD11C,0.0050*%
%ADD12C,0.0150*%
%ADD13C,0.0100*%
%ADD14C,0.0000*%
%ADD15C,0.0040*%
%ADD16C,0.0059*%
%ADD17R,0.0089X0.0006*%
%ADD18R,0.0094X0.0006*%
%ADD19R,0.0130X0.0006*%
%ADD20R,0.0106X0.0006*%
%ADD21R,0.0201X0.0006*%
%ADD22R,0.0136X0.0006*%
%ADD23R,0.1742X0.0006*%
%ADD24R,0.0154X0.0006*%
%ADD25R,0.0112X0.0006*%
%ADD26R,0.0219X0.0006*%
%ADD27R,0.0165X0.0006*%
%ADD28R,0.1748X0.0006*%
%ADD29R,0.0177X0.0006*%
%ADD30R,0.0100X0.0006*%
%ADD31R,0.0236X0.0006*%
%ADD32R,0.0189X0.0006*%
%ADD33R,0.0195X0.0006*%
%ADD34R,0.0248X0.0006*%
%ADD35R,0.0207X0.0006*%
%ADD36R,0.0213X0.0006*%
%ADD37R,0.0260X0.0006*%
%ADD38R,0.0224X0.0006*%
%ADD39R,0.0266X0.0006*%
%ADD40R,0.0278X0.0006*%
%ADD41R,0.0254X0.0006*%
%ADD42R,0.0283X0.0006*%
%ADD43R,0.0289X0.0006*%
%ADD44R,0.0272X0.0006*%
%ADD45R,0.0295X0.0006*%
%ADD46R,0.0301X0.0006*%
%ADD47R,0.0307X0.0006*%
%ADD48R,0.0313X0.0006*%
%ADD49R,0.0319X0.0006*%
%ADD50R,0.0148X0.0006*%
%ADD51R,0.0159X0.0006*%
%ADD52R,0.0124X0.0006*%
%ADD53R,0.0118X0.0006*%
%ADD54R,0.0242X0.0006*%
%ADD55R,0.0337X0.0006*%
%ADD56R,0.0331X0.0006*%
%ADD57R,0.0325X0.0006*%
%ADD58R,0.0142X0.0006*%
%ADD59R,0.0183X0.0006*%
%ADD60R,0.0230X0.0006*%
%ADD61R,0.0419X0.0006*%
%ADD62R,0.0425X0.0006*%
%ADD63R,0.0171X0.0006*%
%ADD64R,0.0083X0.0006*%
%ADD65R,0.0041X0.0006*%
%ADD66R,0.0047X0.0006*%
%ADD67R,0.1022X0.0006*%
%ADD68R,0.0980X0.0006*%
%ADD69R,0.0957X0.0006*%
%ADD70R,0.0933X0.0006*%
%ADD71R,0.0921X0.0006*%
%ADD72R,0.0904X0.0006*%
%ADD73R,0.0892X0.0006*%
%ADD74R,0.0886X0.0006*%
%ADD75R,0.0874X0.0006*%
%ADD76R,0.0868X0.0006*%
%ADD77R,0.0856X0.0006*%
%ADD78R,0.0850X0.0006*%
%ADD79R,0.0844X0.0006*%
%ADD80R,0.0839X0.0006*%
%ADD81R,0.0833X0.0006*%
%ADD82R,0.0827X0.0006*%
%ADD83R,0.0071X0.0006*%
%ADD84R,0.0862X0.0006*%
%ADD85R,0.0880X0.0006*%
%ADD86R,0.0898X0.0006*%
%ADD87R,0.0915X0.0006*%
%ADD88R,0.0927X0.0006*%
%ADD89R,0.0945X0.0006*%
%ADD90R,0.0969X0.0006*%
%ADD91R,0.0998X0.0006*%
D10*
X005350Y004310D02*
X005350Y004910D01*
X005400Y004910D02*
X005400Y004310D01*
X005450Y004310D02*
X005450Y004910D01*
X005500Y004910D02*
X005500Y004310D01*
X006553Y006700D02*
X006763Y006700D01*
X006833Y006770D01*
X006833Y006910D01*
X006763Y006980D01*
X006553Y006980D01*
X006553Y007120D02*
X006553Y006700D01*
X007006Y006980D02*
X007076Y006980D01*
X007216Y006840D01*
X007216Y006700D02*
X007216Y006980D01*
X007397Y006910D02*
X007397Y006700D01*
X007607Y006700D01*
X007677Y006770D01*
X007607Y006840D01*
X007397Y006840D01*
X007397Y006910D02*
X007467Y006980D01*
X007607Y006980D01*
X007857Y007050D02*
X007927Y007120D01*
X008067Y007120D01*
X008137Y007050D01*
X008137Y006770D01*
X008067Y006700D01*
X007927Y006700D01*
X007857Y006770D01*
X008778Y006770D02*
X008848Y006700D01*
X008988Y006700D01*
X009058Y006770D01*
X008778Y007050D01*
X008778Y006770D01*
X009058Y006770D02*
X009058Y007050D01*
X008988Y007120D01*
X008848Y007120D01*
X008778Y007050D01*
X009238Y007050D02*
X009238Y006980D01*
X009308Y006910D01*
X009448Y006910D01*
X009518Y006980D01*
X009518Y007050D01*
X009448Y007120D01*
X009308Y007120D01*
X009238Y007050D01*
X009308Y006910D02*
X009238Y006840D01*
X009238Y006770D01*
X009308Y006700D01*
X009448Y006700D01*
X009518Y006770D01*
X009518Y006840D01*
X009448Y006910D01*
X009699Y006980D02*
X009699Y007050D01*
X009769Y007120D01*
X009909Y007120D01*
X009979Y007050D01*
X010159Y007120D02*
X010439Y007120D01*
X010439Y006700D01*
X010159Y006700D01*
X009979Y006700D02*
X009699Y006980D01*
X009699Y006700D02*
X009979Y006700D01*
X010299Y006910D02*
X010439Y006910D01*
X010619Y007120D02*
X010619Y006700D01*
X010900Y006700D02*
X010900Y007120D01*
X010759Y006980D01*
X010619Y007120D01*
X011080Y007050D02*
X011080Y006980D01*
X011150Y006910D01*
X011360Y006910D01*
X011360Y006700D02*
X011360Y007120D01*
X011150Y007120D01*
X011080Y007050D01*
X011150Y006910D02*
X011080Y006840D01*
X011080Y006770D01*
X011150Y006700D01*
X011360Y006700D01*
D11*
X011375Y006285D02*
X011275Y006285D01*
X011325Y006285D02*
X011325Y005985D01*
X011375Y005985D02*
X011275Y005985D01*
X011160Y005985D02*
X010960Y006185D01*
X010960Y006235D01*
X011010Y006285D01*
X011110Y006285D01*
X011160Y006235D01*
X011160Y005985D02*
X010960Y005985D01*
X010838Y006035D02*
X010788Y005985D01*
X010688Y005985D01*
X010638Y006035D01*
X010838Y006035D02*
X010838Y006235D01*
X010788Y006285D01*
X010688Y006285D01*
X010638Y006235D01*
X010193Y006185D02*
X010193Y005985D01*
X010193Y006135D02*
X009993Y006135D01*
X009993Y006185D02*
X009993Y005985D01*
X009871Y005985D02*
X009721Y005985D01*
X009671Y006035D01*
X009671Y006235D01*
X009721Y006285D01*
X009871Y006285D01*
X009871Y005985D01*
X009549Y005985D02*
X009399Y005985D01*
X009349Y006035D01*
X009349Y006235D01*
X009399Y006285D01*
X009549Y006285D01*
X009549Y005985D01*
X009227Y005985D02*
X009227Y006285D01*
X009076Y006285D01*
X009026Y006235D01*
X009026Y006135D01*
X009076Y006085D01*
X009227Y006085D01*
X009126Y006085D02*
X009026Y005985D01*
X008904Y005985D02*
X008904Y006035D01*
X008854Y006035D01*
X008854Y005985D01*
X008904Y005985D01*
X008904Y006135D02*
X008854Y006135D01*
X008854Y006185D01*
X008904Y006185D01*
X008904Y006135D01*
X008421Y006035D02*
X008221Y006235D01*
X008221Y006035D01*
X008271Y005985D01*
X008371Y005985D01*
X008421Y006035D01*
X008421Y006235D01*
X008371Y006285D01*
X008271Y006285D01*
X008221Y006235D01*
X008099Y006185D02*
X007898Y005985D01*
X007776Y006035D02*
X007576Y006235D01*
X007576Y006035D01*
X007626Y005985D01*
X007726Y005985D01*
X007776Y006035D01*
X007776Y006235D01*
X007726Y006285D01*
X007626Y006285D01*
X007576Y006235D01*
X007454Y006235D02*
X007454Y006185D01*
X007404Y006135D01*
X007304Y006135D01*
X007254Y006085D01*
X007254Y006035D01*
X007304Y005985D01*
X007404Y005985D01*
X007454Y006035D01*
X007454Y006085D01*
X007404Y006135D01*
X007304Y006135D02*
X007254Y006185D01*
X007254Y006235D01*
X007304Y006285D01*
X007404Y006285D01*
X007454Y006235D01*
X007898Y006185D02*
X008099Y005985D01*
X008160Y005585D02*
X008160Y005285D01*
X008260Y005285D02*
X008060Y005285D01*
X007937Y005335D02*
X007937Y005385D01*
X007887Y005435D01*
X007787Y005435D01*
X007737Y005385D01*
X007737Y005335D01*
X007787Y005285D01*
X007887Y005285D01*
X007937Y005335D01*
X007887Y005435D02*
X007937Y005485D01*
X007937Y005535D01*
X007887Y005585D01*
X007787Y005585D01*
X007737Y005535D01*
X007737Y005485D01*
X007787Y005435D01*
X008160Y005585D02*
X008260Y005485D01*
X008382Y005535D02*
X008582Y005335D01*
X008532Y005285D01*
X008432Y005285D01*
X008382Y005335D01*
X008382Y005535D01*
X008432Y005585D01*
X008532Y005585D01*
X008582Y005535D01*
X008582Y005335D01*
X008704Y005285D02*
X008904Y005285D01*
X008704Y005485D01*
X008704Y005535D01*
X008754Y005585D01*
X008854Y005585D01*
X008904Y005535D01*
X009341Y005335D02*
X009341Y005285D01*
X009391Y005285D01*
X009391Y005335D01*
X009341Y005335D01*
X009341Y005285D02*
X009441Y005185D01*
X009563Y005285D02*
X009764Y005285D01*
X009563Y005485D01*
X009563Y005535D01*
X009613Y005585D01*
X009714Y005585D01*
X009764Y005535D01*
X009986Y005585D02*
X009986Y005285D01*
X010086Y005285D02*
X009886Y005285D01*
X010086Y005485D02*
X009986Y005585D01*
X010530Y005585D02*
X010530Y005385D01*
X010630Y005285D01*
X010730Y005385D01*
X010730Y005585D01*
X010853Y005535D02*
X010903Y005585D01*
X011003Y005585D01*
X011053Y005535D01*
X011053Y005335D01*
X011003Y005285D01*
X010903Y005285D01*
X010853Y005335D01*
X010853Y005535D01*
X011175Y005585D02*
X011175Y005285D01*
X011375Y005585D01*
X011375Y005285D01*
X010193Y006185D02*
X010093Y006285D01*
X009993Y006185D01*
X006050Y004960D02*
X006050Y004260D01*
X005550Y004260D01*
X005550Y004960D01*
X006050Y004960D01*
X005300Y004960D02*
X004800Y004960D01*
X004800Y004260D01*
X005300Y004260D01*
X005300Y004960D01*
X004575Y004735D02*
X004575Y004485D01*
X004525Y004435D01*
X004425Y004435D01*
X004375Y004485D01*
X004375Y004735D01*
X004253Y004635D02*
X004153Y004735D01*
X004053Y004635D01*
X004053Y004435D01*
X003930Y004435D02*
X003930Y004735D01*
X003780Y004735D01*
X003730Y004685D01*
X003730Y004585D01*
X003780Y004535D01*
X003930Y004535D01*
X003830Y004535D02*
X003730Y004435D01*
X003508Y004435D02*
X003508Y004735D01*
X003608Y004735D02*
X003408Y004735D01*
X004053Y004585D02*
X004253Y004585D01*
X004253Y004635D02*
X004253Y004435D01*
D12*
X004750Y004210D02*
X004750Y005010D01*
X006100Y005010D01*
X006100Y004210D01*
X004750Y004210D01*
X003250Y004210D01*
X003250Y005010D01*
X004750Y005010D01*
D13*
X000328Y001364D02*
X000328Y011956D01*
X000330Y012023D01*
X000336Y012090D01*
X000345Y012157D01*
X000358Y012223D01*
X000375Y012288D01*
X000395Y012352D01*
X000419Y012415D01*
X000447Y012477D01*
X000478Y012536D01*
X000512Y012594D01*
X000549Y012650D01*
X000590Y012704D01*
X000633Y012756D01*
X000679Y012805D01*
X000728Y012851D01*
X000780Y012894D01*
X000834Y012935D01*
X000890Y012972D01*
X000948Y013006D01*
X001007Y013037D01*
X001069Y013065D01*
X001132Y013089D01*
X001196Y013109D01*
X001261Y013126D01*
X001327Y013139D01*
X001394Y013148D01*
X001461Y013154D01*
X001528Y013156D01*
X015072Y013156D01*
X015139Y013154D01*
X015206Y013148D01*
X015273Y013139D01*
X015339Y013126D01*
X015404Y013109D01*
X015468Y013089D01*
X015531Y013065D01*
X015593Y013037D01*
X015652Y013006D01*
X015710Y012972D01*
X015766Y012935D01*
X015820Y012894D01*
X015872Y012851D01*
X015921Y012805D01*
X015967Y012756D01*
X016010Y012704D01*
X016051Y012650D01*
X016088Y012594D01*
X016122Y012536D01*
X016153Y012477D01*
X016181Y012415D01*
X016205Y012352D01*
X016225Y012288D01*
X016242Y012223D01*
X016255Y012157D01*
X016264Y012090D01*
X016270Y012023D01*
X016272Y011956D01*
X016272Y001364D01*
X016270Y001297D01*
X016264Y001230D01*
X016255Y001163D01*
X016242Y001097D01*
X016225Y001032D01*
X016205Y000968D01*
X016181Y000905D01*
X016153Y000843D01*
X016122Y000784D01*
X016088Y000726D01*
X016051Y000670D01*
X016010Y000616D01*
X015967Y000564D01*
X015921Y000515D01*
X015872Y000469D01*
X015820Y000426D01*
X015766Y000385D01*
X015710Y000348D01*
X015652Y000314D01*
X015593Y000283D01*
X015531Y000255D01*
X015468Y000231D01*
X015404Y000211D01*
X015339Y000194D01*
X015273Y000181D01*
X015206Y000172D01*
X015139Y000166D01*
X015072Y000164D01*
X001528Y000164D01*
X001461Y000166D01*
X001394Y000172D01*
X001327Y000181D01*
X001261Y000194D01*
X001196Y000211D01*
X001132Y000231D01*
X001069Y000255D01*
X001007Y000283D01*
X000948Y000314D01*
X000890Y000348D01*
X000834Y000385D01*
X000780Y000426D01*
X000728Y000469D01*
X000679Y000515D01*
X000633Y000564D01*
X000590Y000616D01*
X000549Y000670D01*
X000512Y000726D01*
X000478Y000784D01*
X000447Y000843D01*
X000419Y000905D01*
X000395Y000968D01*
X000375Y001032D01*
X000358Y001097D01*
X000345Y001163D01*
X000336Y001230D01*
X000330Y001297D01*
X000328Y001364D01*
X000300Y003710D02*
X016300Y003710D01*
D14*
X014209Y011660D02*
X014211Y011708D01*
X014217Y011756D01*
X014227Y011803D01*
X014240Y011849D01*
X014258Y011894D01*
X014278Y011938D01*
X014303Y011980D01*
X014331Y012019D01*
X014361Y012056D01*
X014395Y012090D01*
X014432Y012122D01*
X014470Y012151D01*
X014511Y012176D01*
X014554Y012198D01*
X014599Y012216D01*
X014645Y012230D01*
X014692Y012241D01*
X014740Y012248D01*
X014788Y012251D01*
X014836Y012250D01*
X014884Y012245D01*
X014932Y012236D01*
X014978Y012224D01*
X015023Y012207D01*
X015067Y012187D01*
X015109Y012164D01*
X015149Y012137D01*
X015187Y012107D01*
X015222Y012074D01*
X015254Y012038D01*
X015284Y012000D01*
X015310Y011959D01*
X015332Y011916D01*
X015352Y011872D01*
X015367Y011827D01*
X015379Y011780D01*
X015387Y011732D01*
X015391Y011684D01*
X015391Y011636D01*
X015387Y011588D01*
X015379Y011540D01*
X015367Y011493D01*
X015352Y011448D01*
X015332Y011404D01*
X015310Y011361D01*
X015284Y011320D01*
X015254Y011282D01*
X015222Y011246D01*
X015187Y011213D01*
X015149Y011183D01*
X015109Y011156D01*
X015067Y011133D01*
X015023Y011113D01*
X014978Y011096D01*
X014932Y011084D01*
X014884Y011075D01*
X014836Y011070D01*
X014788Y011069D01*
X014740Y011072D01*
X014692Y011079D01*
X014645Y011090D01*
X014599Y011104D01*
X014554Y011122D01*
X014511Y011144D01*
X014470Y011169D01*
X014432Y011198D01*
X014395Y011230D01*
X014361Y011264D01*
X014331Y011301D01*
X014303Y011340D01*
X014278Y011382D01*
X014258Y011426D01*
X014240Y011471D01*
X014227Y011517D01*
X014217Y011564D01*
X014211Y011612D01*
X014209Y011660D01*
X001209Y011660D02*
X001211Y011708D01*
X001217Y011756D01*
X001227Y011803D01*
X001240Y011849D01*
X001258Y011894D01*
X001278Y011938D01*
X001303Y011980D01*
X001331Y012019D01*
X001361Y012056D01*
X001395Y012090D01*
X001432Y012122D01*
X001470Y012151D01*
X001511Y012176D01*
X001554Y012198D01*
X001599Y012216D01*
X001645Y012230D01*
X001692Y012241D01*
X001740Y012248D01*
X001788Y012251D01*
X001836Y012250D01*
X001884Y012245D01*
X001932Y012236D01*
X001978Y012224D01*
X002023Y012207D01*
X002067Y012187D01*
X002109Y012164D01*
X002149Y012137D01*
X002187Y012107D01*
X002222Y012074D01*
X002254Y012038D01*
X002284Y012000D01*
X002310Y011959D01*
X002332Y011916D01*
X002352Y011872D01*
X002367Y011827D01*
X002379Y011780D01*
X002387Y011732D01*
X002391Y011684D01*
X002391Y011636D01*
X002387Y011588D01*
X002379Y011540D01*
X002367Y011493D01*
X002352Y011448D01*
X002332Y011404D01*
X002310Y011361D01*
X002284Y011320D01*
X002254Y011282D01*
X002222Y011246D01*
X002187Y011213D01*
X002149Y011183D01*
X002109Y011156D01*
X002067Y011133D01*
X002023Y011113D01*
X001978Y011096D01*
X001932Y011084D01*
X001884Y011075D01*
X001836Y011070D01*
X001788Y011069D01*
X001740Y011072D01*
X001692Y011079D01*
X001645Y011090D01*
X001599Y011104D01*
X001554Y011122D01*
X001511Y011144D01*
X001470Y011169D01*
X001432Y011198D01*
X001395Y011230D01*
X001361Y011264D01*
X001331Y011301D01*
X001303Y011340D01*
X001278Y011382D01*
X001258Y011426D01*
X001240Y011471D01*
X001227Y011517D01*
X001217Y011564D01*
X001211Y011612D01*
X001209Y011660D01*
D15*
X001206Y003090D02*
X001103Y003090D01*
X001051Y003039D01*
X001258Y002832D01*
X001206Y002780D01*
X001103Y002780D01*
X001051Y002832D01*
X001051Y003039D01*
X001206Y003090D02*
X001258Y003039D01*
X001258Y002832D01*
X001373Y002832D02*
X001425Y002780D01*
X001528Y002780D01*
X001580Y002832D01*
X001477Y002935D02*
X001425Y002935D01*
X001373Y002883D01*
X001373Y002832D01*
X001425Y002935D02*
X001373Y002987D01*
X001373Y003039D01*
X001425Y003090D01*
X001528Y003090D01*
X001580Y003039D01*
X008001Y003090D02*
X008104Y003039D01*
X008208Y002935D01*
X008208Y002832D01*
X008156Y002780D01*
X008053Y002780D01*
X008001Y002832D01*
X008001Y002883D01*
X008053Y002935D01*
X008208Y002935D01*
X008323Y002780D02*
X008530Y002780D01*
X008427Y002780D02*
X008427Y003090D01*
X008530Y002987D01*
X015223Y002987D02*
X015223Y003039D01*
X015275Y003090D01*
X015378Y003090D01*
X015430Y003039D01*
X015223Y002987D02*
X015430Y002780D01*
X015223Y002780D01*
D16*
X002236Y004738D02*
X002046Y004719D01*
X002025Y004655D01*
X001994Y004595D01*
X002115Y004446D01*
X002014Y004345D01*
X001865Y004466D01*
X001805Y004435D01*
X001721Y004639D01*
X001758Y004661D01*
X001790Y004690D01*
X001814Y004726D01*
X001829Y004767D01*
X001835Y004810D01*
X001829Y004854D01*
X001814Y004895D01*
X001789Y004932D01*
X001756Y004961D01*
X001717Y004982D01*
X001674Y004993D01*
X001630Y004993D01*
X001587Y004983D01*
X001548Y004963D01*
X001514Y004935D01*
X001488Y004899D01*
X001472Y004858D01*
X001466Y004814D01*
X001470Y004770D01*
X001485Y004728D01*
X001509Y004691D01*
X001541Y004661D01*
X001579Y004639D01*
X001495Y004435D01*
X001435Y004466D01*
X001286Y004345D01*
X001185Y004446D01*
X001306Y004595D01*
X001275Y004655D01*
X001254Y004719D01*
X001064Y004738D01*
X001064Y004882D01*
X001254Y004901D01*
X001275Y004965D01*
X001306Y005025D01*
X001185Y005174D01*
X001286Y005275D01*
X001435Y005154D01*
X001495Y005185D01*
X001559Y005206D01*
X001578Y005396D01*
X001722Y005396D01*
X001741Y005206D01*
X001805Y005185D01*
X001865Y005154D01*
X002014Y005275D01*
X002115Y005174D01*
X001994Y005025D01*
X002025Y004965D01*
X002046Y004901D01*
X002236Y004882D01*
X002236Y004738D01*
X002236Y004761D02*
X001827Y004761D01*
X001834Y004818D02*
X002236Y004818D01*
X002236Y004876D02*
X001821Y004876D01*
X001787Y004933D02*
X002035Y004933D01*
X002012Y004991D02*
X001682Y004991D01*
X001619Y004991D02*
X001288Y004991D01*
X001287Y005048D02*
X002013Y005048D01*
X002060Y005106D02*
X001240Y005106D01*
X001193Y005164D02*
X001424Y005164D01*
X001453Y005164D02*
X001847Y005164D01*
X001876Y005164D02*
X002107Y005164D01*
X002068Y005221D02*
X001947Y005221D01*
X001740Y005221D02*
X001560Y005221D01*
X001566Y005279D02*
X001734Y005279D01*
X001728Y005336D02*
X001572Y005336D01*
X001578Y005394D02*
X001722Y005394D01*
X001353Y005221D02*
X001232Y005221D01*
X001265Y004933D02*
X001513Y004933D01*
X001479Y004876D02*
X001064Y004876D01*
X001064Y004818D02*
X001466Y004818D01*
X001473Y004761D02*
X001064Y004761D01*
X001259Y004703D02*
X001501Y004703D01*
X001569Y004646D02*
X001280Y004646D01*
X001300Y004588D02*
X001558Y004588D01*
X001534Y004530D02*
X001253Y004530D01*
X001206Y004473D02*
X001510Y004473D01*
X001373Y004415D02*
X001216Y004415D01*
X001273Y004358D02*
X001303Y004358D01*
X001766Y004530D02*
X002047Y004530D01*
X002094Y004473D02*
X001790Y004473D01*
X001742Y004588D02*
X002000Y004588D01*
X002020Y004646D02*
X001731Y004646D01*
X001799Y004703D02*
X002041Y004703D01*
X002084Y004415D02*
X001927Y004415D01*
X001997Y004358D02*
X002027Y004358D01*
D17*
X005440Y009081D03*
X005446Y009104D03*
X005446Y009110D03*
X005452Y009134D03*
X005452Y009140D03*
X005458Y009158D03*
X005458Y009164D03*
X005552Y009164D03*
X005558Y009146D03*
X005558Y009140D03*
X005558Y009134D03*
X005564Y009116D03*
X005564Y009110D03*
X005570Y009087D03*
X005570Y009081D03*
X005576Y009057D03*
X005505Y009376D03*
X005505Y009382D03*
X007684Y008419D03*
X007637Y008207D03*
X007631Y008183D03*
X007631Y008177D03*
X007625Y008154D03*
X007619Y008124D03*
X007743Y008148D03*
X007743Y008154D03*
X007737Y008171D03*
X007737Y008177D03*
X007737Y008183D03*
X007731Y008195D03*
X007731Y008201D03*
X007731Y008207D03*
X007749Y008118D03*
X008393Y007705D03*
D18*
X007782Y007965D03*
X007782Y007971D03*
X007776Y007988D03*
X007776Y007994D03*
X007776Y008000D03*
X007770Y008012D03*
X007770Y008018D03*
X007770Y008024D03*
X007770Y008030D03*
X007764Y008041D03*
X007764Y008047D03*
X007764Y008053D03*
X007764Y008059D03*
X007758Y008065D03*
X007758Y008071D03*
X007758Y008077D03*
X007758Y008083D03*
X007758Y008089D03*
X007752Y008095D03*
X007752Y008101D03*
X007752Y008106D03*
X007752Y008112D03*
X007746Y008124D03*
X007746Y008130D03*
X007746Y008136D03*
X007746Y008142D03*
X007740Y008160D03*
X007740Y008166D03*
X007734Y008189D03*
X007634Y008189D03*
X007634Y008195D03*
X007634Y008201D03*
X007628Y008171D03*
X007628Y008166D03*
X007628Y008160D03*
X007622Y008148D03*
X007622Y008142D03*
X007622Y008136D03*
X007622Y008130D03*
X007616Y008118D03*
X007616Y008112D03*
X007616Y008106D03*
X007616Y008101D03*
X007610Y008095D03*
X007610Y008089D03*
X007610Y008083D03*
X007610Y008077D03*
X007610Y008071D03*
X007605Y008065D03*
X007605Y008059D03*
X007605Y008053D03*
X007605Y008047D03*
X007599Y008036D03*
X007599Y008030D03*
X007599Y008024D03*
X007593Y008006D03*
X007593Y008000D03*
X007593Y007994D03*
X007587Y007971D03*
X007681Y008408D03*
X007681Y008414D03*
X006949Y008969D03*
X006955Y008986D03*
X006961Y008998D03*
X006967Y009016D03*
X006973Y009034D03*
X006979Y009051D03*
X006990Y009081D03*
X005603Y008933D03*
X005603Y008927D03*
X005603Y008921D03*
X005597Y008951D03*
X005597Y008957D03*
X005597Y008963D03*
X005591Y008975D03*
X005591Y008980D03*
X005591Y008986D03*
X005591Y008992D03*
X005585Y009004D03*
X005585Y009010D03*
X005585Y009016D03*
X005585Y009022D03*
X005579Y009028D03*
X005579Y009034D03*
X005579Y009040D03*
X005579Y009045D03*
X005579Y009051D03*
X005573Y009063D03*
X005573Y009069D03*
X005573Y009075D03*
X005567Y009093D03*
X005567Y009099D03*
X005567Y009104D03*
X005561Y009122D03*
X005561Y009128D03*
X005555Y009152D03*
X005555Y009158D03*
X005455Y009152D03*
X005455Y009146D03*
X005449Y009128D03*
X005449Y009122D03*
X005449Y009116D03*
X005443Y009099D03*
X005443Y009093D03*
X005443Y009087D03*
X005437Y009075D03*
X005437Y009069D03*
X005437Y009063D03*
X005437Y009057D03*
X005437Y009051D03*
X005431Y009045D03*
X005431Y009040D03*
X005431Y009034D03*
X005431Y009028D03*
X005425Y009016D03*
X005425Y009010D03*
X005425Y009004D03*
X005425Y008998D03*
X005419Y008986D03*
X005419Y008980D03*
X005419Y008975D03*
X005414Y008957D03*
X005414Y008951D03*
X005408Y008927D03*
X005408Y008921D03*
X004794Y009081D03*
X004788Y009063D03*
X004782Y009045D03*
X004776Y009034D03*
X004770Y009016D03*
X004764Y008998D03*
X004758Y008980D03*
X004752Y008969D03*
X005508Y009370D03*
X005502Y007705D03*
D19*
X005608Y007811D03*
X005402Y008006D03*
X005402Y008319D03*
X005603Y008319D03*
X006140Y007811D03*
X006860Y008112D03*
X006860Y008319D03*
X006855Y008744D03*
X006855Y008750D03*
X006855Y008756D03*
X006329Y008774D03*
X006329Y009276D03*
X006128Y009276D03*
X007085Y009299D03*
X007085Y009305D03*
X007610Y009276D03*
X007811Y009276D03*
X007811Y008774D03*
X007610Y008774D03*
X007681Y008331D03*
X008301Y007811D03*
X008396Y007711D03*
X008490Y007811D03*
X008490Y008319D03*
X004888Y009293D03*
X004888Y009299D03*
X004888Y009305D03*
X004658Y008756D03*
X004658Y008750D03*
X004658Y008744D03*
D20*
X004646Y008691D03*
X004646Y008685D03*
X004646Y008679D03*
X004900Y008679D03*
X004900Y008673D03*
X004900Y008667D03*
X004900Y008685D03*
X004900Y008691D03*
X004900Y008697D03*
X004900Y008703D03*
X004900Y008709D03*
X004900Y008715D03*
X004900Y008721D03*
X004900Y008727D03*
X004900Y008732D03*
X004900Y008738D03*
X004900Y008744D03*
X004900Y008750D03*
X004900Y008756D03*
X004900Y008762D03*
X004900Y008768D03*
X004900Y008774D03*
X004900Y008780D03*
X004900Y008786D03*
X004900Y008791D03*
X004900Y008797D03*
X004900Y008803D03*
X004900Y008809D03*
X004900Y008815D03*
X004900Y008821D03*
X004900Y008827D03*
X004900Y008833D03*
X004900Y008839D03*
X004900Y008845D03*
X004900Y008851D03*
X004900Y008856D03*
X004900Y008862D03*
X004900Y008868D03*
X004900Y008874D03*
X004900Y008880D03*
X004900Y008886D03*
X004900Y008892D03*
X004900Y008898D03*
X004900Y008904D03*
X004900Y008910D03*
X004900Y008916D03*
X004900Y008921D03*
X004900Y008927D03*
X004900Y008933D03*
X004900Y008939D03*
X004900Y008945D03*
X004900Y008951D03*
X004900Y008957D03*
X004900Y008963D03*
X004900Y008969D03*
X004900Y008975D03*
X004900Y008980D03*
X004900Y008986D03*
X004900Y008992D03*
X004900Y008998D03*
X004900Y009004D03*
X004900Y009010D03*
X004900Y009016D03*
X004900Y009022D03*
X004900Y009028D03*
X004900Y009034D03*
X004900Y009040D03*
X004900Y009045D03*
X004900Y009051D03*
X004900Y009057D03*
X004900Y009063D03*
X004900Y009069D03*
X004900Y009075D03*
X004900Y009081D03*
X004646Y009081D03*
X004646Y009087D03*
X004646Y009093D03*
X004646Y009099D03*
X004646Y009104D03*
X004646Y009110D03*
X004646Y009116D03*
X004646Y009122D03*
X004646Y009128D03*
X004646Y009134D03*
X004646Y009140D03*
X004646Y009146D03*
X004646Y009152D03*
X004646Y009158D03*
X004646Y009164D03*
X004646Y009169D03*
X004646Y009175D03*
X004646Y009181D03*
X004646Y009187D03*
X004646Y009193D03*
X004646Y009199D03*
X004646Y009205D03*
X004646Y009211D03*
X004646Y009217D03*
X004646Y009223D03*
X004646Y009229D03*
X004646Y009234D03*
X004646Y009240D03*
X004646Y009246D03*
X004646Y009252D03*
X004646Y009258D03*
X004646Y009264D03*
X004646Y009270D03*
X004646Y009276D03*
X004646Y009282D03*
X004646Y009288D03*
X004646Y009293D03*
X004646Y009299D03*
X004646Y009305D03*
X004646Y009311D03*
X004646Y009317D03*
X004646Y009323D03*
X004646Y009329D03*
X004646Y009335D03*
X004646Y009341D03*
X004646Y009347D03*
X004646Y009353D03*
X004646Y009358D03*
X004646Y009364D03*
X004646Y009370D03*
X004646Y009376D03*
X004646Y009382D03*
X004900Y009370D03*
X004900Y009364D03*
X004900Y009358D03*
X004646Y009075D03*
X004646Y009069D03*
X004646Y009063D03*
X004646Y009057D03*
X004646Y009051D03*
X004646Y009045D03*
X004646Y009040D03*
X004646Y009034D03*
X004646Y009028D03*
X004646Y009022D03*
X004646Y009016D03*
X004646Y009010D03*
X004646Y009004D03*
X004646Y008998D03*
X004646Y008992D03*
X004646Y008986D03*
X004646Y008980D03*
X004646Y008975D03*
X004646Y008969D03*
X005378Y008786D03*
X005378Y008780D03*
X005372Y008756D03*
X005372Y008750D03*
X005366Y008732D03*
X005366Y008727D03*
X005366Y008721D03*
X005360Y008703D03*
X005360Y008697D03*
X005360Y008691D03*
X005355Y008679D03*
X005355Y008673D03*
X005355Y008667D03*
X005384Y008809D03*
X005632Y008786D03*
X005638Y008762D03*
X005638Y008756D03*
X005644Y008732D03*
X005644Y008727D03*
X005650Y008709D03*
X005650Y008703D03*
X005650Y008697D03*
X005650Y008691D03*
X005656Y008679D03*
X005656Y008673D03*
X005656Y008667D03*
X005502Y008425D03*
X005620Y008290D03*
X005620Y008284D03*
X005620Y008278D03*
X005620Y008272D03*
X005626Y008266D03*
X005626Y008260D03*
X005626Y008254D03*
X005626Y008248D03*
X005626Y008242D03*
X005626Y008236D03*
X005626Y008230D03*
X005626Y008225D03*
X005626Y008219D03*
X005626Y008213D03*
X005626Y008207D03*
X005626Y008201D03*
X005626Y008195D03*
X005620Y008189D03*
X005620Y008183D03*
X005620Y008177D03*
X005378Y008225D03*
X005378Y008230D03*
X005378Y008236D03*
X005378Y008242D03*
X005378Y008248D03*
X005378Y008254D03*
X005384Y008278D03*
X005384Y007977D03*
X005384Y007971D03*
X005384Y007965D03*
X005384Y007959D03*
X005384Y007953D03*
X005384Y007947D03*
X005384Y007941D03*
X005378Y007923D03*
X005378Y007917D03*
X005378Y007912D03*
X005378Y007906D03*
X005384Y007876D03*
X005384Y007870D03*
X005384Y007864D03*
X005384Y007858D03*
X005384Y007853D03*
X005384Y007847D03*
X005390Y007841D03*
X005390Y007835D03*
X005626Y007847D03*
X005632Y007858D03*
X005632Y007864D03*
X005632Y007870D03*
X005632Y007876D03*
X005632Y007882D03*
X005632Y007888D03*
X005632Y007894D03*
X005632Y007900D03*
X005632Y007906D03*
X006110Y007906D03*
X006110Y007912D03*
X006110Y007917D03*
X006110Y007923D03*
X006110Y007929D03*
X006110Y007935D03*
X006110Y007941D03*
X006110Y007947D03*
X006110Y007953D03*
X006110Y007959D03*
X006110Y007965D03*
X006110Y007971D03*
X006110Y007977D03*
X006110Y007982D03*
X006110Y007988D03*
X006110Y007994D03*
X006110Y008000D03*
X006110Y008006D03*
X006110Y008012D03*
X006110Y008018D03*
X006110Y008024D03*
X006110Y008030D03*
X006110Y008036D03*
X006110Y008041D03*
X006110Y008047D03*
X006110Y008053D03*
X006110Y008059D03*
X006110Y008065D03*
X006110Y008071D03*
X006110Y008077D03*
X006110Y008083D03*
X006110Y008089D03*
X006110Y008095D03*
X006110Y008101D03*
X006110Y008106D03*
X006110Y008112D03*
X006110Y008118D03*
X006110Y008124D03*
X006110Y008130D03*
X006110Y008136D03*
X006110Y008142D03*
X006110Y008148D03*
X006110Y008154D03*
X006110Y008160D03*
X006110Y008166D03*
X006110Y008171D03*
X006110Y008177D03*
X006110Y008183D03*
X006110Y008189D03*
X006110Y008195D03*
X006110Y008201D03*
X006110Y008207D03*
X006110Y008213D03*
X006110Y008219D03*
X006110Y008225D03*
X006110Y008230D03*
X006110Y008236D03*
X006110Y008242D03*
X006116Y008260D03*
X006116Y008266D03*
X006116Y008272D03*
X006116Y008278D03*
X006116Y008284D03*
X006341Y008284D03*
X006341Y008290D03*
X006341Y008295D03*
X006341Y008301D03*
X006341Y008307D03*
X006341Y008313D03*
X006341Y008319D03*
X006341Y008325D03*
X006341Y008278D03*
X006341Y008272D03*
X006341Y008266D03*
X006341Y008260D03*
X006341Y008254D03*
X006341Y008248D03*
X006341Y008242D03*
X006341Y008236D03*
X006341Y008230D03*
X006341Y008225D03*
X006341Y008219D03*
X006341Y008213D03*
X006341Y008207D03*
X006341Y008201D03*
X006341Y008195D03*
X006341Y008189D03*
X006341Y008183D03*
X006341Y008177D03*
X006341Y008171D03*
X006341Y008166D03*
X006341Y008160D03*
X006341Y008154D03*
X006341Y008148D03*
X006341Y008142D03*
X006341Y008136D03*
X006341Y008130D03*
X006341Y008124D03*
X006341Y008118D03*
X006341Y008112D03*
X006341Y008106D03*
X006341Y008101D03*
X006341Y008095D03*
X006341Y008089D03*
X006341Y008083D03*
X006341Y008077D03*
X006341Y008071D03*
X006341Y008065D03*
X006341Y008059D03*
X006341Y008053D03*
X006341Y008047D03*
X006341Y008041D03*
X006341Y008036D03*
X006341Y008030D03*
X006341Y008024D03*
X006341Y008018D03*
X006341Y008012D03*
X006341Y008006D03*
X006341Y008000D03*
X006341Y007994D03*
X006341Y007988D03*
X006341Y007982D03*
X006341Y007977D03*
X006341Y007971D03*
X006341Y007965D03*
X006341Y007959D03*
X006341Y007953D03*
X006341Y007947D03*
X006341Y007941D03*
X006341Y007935D03*
X006341Y007929D03*
X006341Y007923D03*
X006341Y007917D03*
X006341Y007912D03*
X006341Y007906D03*
X006341Y007900D03*
X006341Y007894D03*
X006341Y007888D03*
X006341Y007882D03*
X006341Y007876D03*
X006341Y007870D03*
X006341Y007864D03*
X006341Y007858D03*
X006341Y007853D03*
X006341Y007847D03*
X006341Y007841D03*
X006341Y007835D03*
X006341Y007829D03*
X006341Y007823D03*
X006341Y007817D03*
X006341Y007811D03*
X006341Y007805D03*
X006122Y007835D03*
X006122Y007841D03*
X006116Y007847D03*
X006116Y007853D03*
X006116Y007858D03*
X006116Y007864D03*
X006116Y007870D03*
X006116Y007876D03*
X006110Y007900D03*
X006813Y007711D03*
X006819Y007729D03*
X006825Y007746D03*
X006831Y007764D03*
X006837Y007782D03*
X006843Y007799D03*
X006843Y007805D03*
X006849Y007817D03*
X006849Y007823D03*
X006855Y007835D03*
X006855Y007841D03*
X006860Y007853D03*
X006860Y007858D03*
X006866Y007870D03*
X006866Y007876D03*
X006872Y007888D03*
X006872Y007894D03*
X006878Y007906D03*
X006878Y007912D03*
X006884Y007923D03*
X006884Y007929D03*
X006890Y007941D03*
X006890Y007947D03*
X006896Y007959D03*
X006896Y007965D03*
X006902Y007977D03*
X006902Y007982D03*
X006908Y008000D03*
X006843Y008136D03*
X006837Y008148D03*
X006837Y008154D03*
X006837Y008160D03*
X006837Y008166D03*
X006831Y008177D03*
X006831Y008183D03*
X006831Y008189D03*
X006831Y008195D03*
X006831Y008201D03*
X006831Y008207D03*
X006831Y008213D03*
X006831Y008219D03*
X006831Y008225D03*
X006831Y008230D03*
X006831Y008236D03*
X006831Y008242D03*
X006831Y008248D03*
X006831Y008254D03*
X006837Y008266D03*
X006837Y008272D03*
X006837Y008278D03*
X006837Y008284D03*
X006843Y008295D03*
X007073Y008295D03*
X007073Y008290D03*
X007073Y008284D03*
X007073Y008278D03*
X007073Y008272D03*
X007073Y008266D03*
X007073Y008260D03*
X007073Y008254D03*
X007073Y008248D03*
X007073Y008242D03*
X007073Y008236D03*
X007073Y008230D03*
X007073Y008225D03*
X007073Y008219D03*
X007073Y008213D03*
X007073Y008207D03*
X007073Y008201D03*
X007073Y008195D03*
X007073Y008189D03*
X007073Y008183D03*
X007073Y008177D03*
X007073Y008171D03*
X007073Y008166D03*
X007073Y008160D03*
X007073Y008154D03*
X007073Y008148D03*
X007073Y008142D03*
X007073Y008136D03*
X007073Y008130D03*
X007073Y008124D03*
X007073Y008118D03*
X007073Y008112D03*
X007073Y008106D03*
X007073Y008006D03*
X007073Y008000D03*
X007073Y007994D03*
X007073Y007988D03*
X007073Y007982D03*
X007073Y007977D03*
X007073Y007971D03*
X007073Y007965D03*
X007073Y007959D03*
X007073Y007953D03*
X007073Y007947D03*
X007073Y007941D03*
X007073Y007935D03*
X007073Y007929D03*
X007073Y007923D03*
X007073Y007917D03*
X007073Y007912D03*
X007073Y007906D03*
X007073Y007900D03*
X007073Y007894D03*
X007073Y007888D03*
X007073Y007882D03*
X007073Y007876D03*
X007073Y007870D03*
X007073Y007864D03*
X007073Y007858D03*
X007073Y007853D03*
X007073Y007847D03*
X007073Y007841D03*
X007073Y007835D03*
X007073Y007829D03*
X007073Y007823D03*
X007073Y007817D03*
X007073Y007811D03*
X007073Y007805D03*
X007073Y007799D03*
X007073Y007793D03*
X007073Y007788D03*
X007073Y007782D03*
X007073Y007776D03*
X007073Y007770D03*
X007073Y007764D03*
X007073Y007758D03*
X007073Y007752D03*
X007073Y007746D03*
X007073Y007740D03*
X007073Y007734D03*
X007073Y007729D03*
X007073Y007723D03*
X007073Y007717D03*
X007073Y007711D03*
X007534Y007711D03*
X007534Y007717D03*
X007534Y007723D03*
X007540Y007740D03*
X007540Y007746D03*
X007540Y007752D03*
X007545Y007770D03*
X007545Y007776D03*
X007551Y007799D03*
X007551Y007805D03*
X007557Y007829D03*
X007563Y007858D03*
X007805Y007847D03*
X007811Y007823D03*
X007811Y007817D03*
X007817Y007793D03*
X007817Y007788D03*
X007823Y007770D03*
X007823Y007764D03*
X007823Y007758D03*
X007829Y007740D03*
X007829Y007734D03*
X007829Y007729D03*
X007835Y007717D03*
X007835Y007711D03*
X008278Y007853D03*
X008278Y007858D03*
X008278Y007864D03*
X008278Y007870D03*
X008278Y007876D03*
X008278Y007882D03*
X008278Y007888D03*
X008278Y007894D03*
X008278Y007900D03*
X008278Y007906D03*
X008508Y007906D03*
X008508Y007912D03*
X008508Y007917D03*
X008508Y007923D03*
X008508Y007929D03*
X008508Y007935D03*
X008508Y007941D03*
X008508Y007947D03*
X008508Y007953D03*
X008508Y007959D03*
X008508Y007965D03*
X008508Y007971D03*
X008508Y007977D03*
X008508Y007982D03*
X008508Y007988D03*
X008508Y007994D03*
X008508Y008000D03*
X008508Y008006D03*
X008508Y008012D03*
X008508Y008018D03*
X008508Y008024D03*
X008508Y008030D03*
X008508Y008036D03*
X008508Y008041D03*
X008508Y008047D03*
X008508Y008053D03*
X008508Y008059D03*
X008508Y008065D03*
X008508Y008071D03*
X008508Y008077D03*
X008508Y008083D03*
X008508Y008089D03*
X008508Y008095D03*
X008508Y008101D03*
X008508Y008106D03*
X008508Y008112D03*
X008508Y008118D03*
X008508Y008124D03*
X008508Y008130D03*
X008508Y008136D03*
X008508Y008142D03*
X008508Y008148D03*
X008508Y008154D03*
X008508Y008160D03*
X008508Y008166D03*
X008508Y008171D03*
X008508Y008177D03*
X008508Y008183D03*
X008508Y008189D03*
X008508Y008195D03*
X008508Y008201D03*
X008508Y008207D03*
X008508Y008213D03*
X008508Y008219D03*
X008508Y008225D03*
X008508Y008230D03*
X008508Y008236D03*
X008508Y008242D03*
X008508Y008248D03*
X008508Y008254D03*
X008508Y008260D03*
X008508Y008266D03*
X008508Y008272D03*
X008508Y008278D03*
X008278Y008278D03*
X008278Y008272D03*
X008278Y008266D03*
X008278Y008260D03*
X008278Y008254D03*
X008278Y008248D03*
X008278Y008242D03*
X008278Y008236D03*
X008278Y008230D03*
X008278Y008225D03*
X008508Y007900D03*
X008508Y007894D03*
X008508Y007888D03*
X008508Y007882D03*
X008508Y007876D03*
X008508Y007870D03*
X008508Y007864D03*
X008508Y007858D03*
X008508Y007853D03*
X007681Y008384D03*
X007711Y008667D03*
X007829Y008803D03*
X007829Y008809D03*
X007829Y008815D03*
X007829Y008821D03*
X007835Y008839D03*
X007835Y008845D03*
X007835Y008851D03*
X007835Y008856D03*
X007835Y008862D03*
X007835Y008868D03*
X007835Y008874D03*
X007835Y008880D03*
X007835Y008886D03*
X007835Y008892D03*
X007835Y008898D03*
X007835Y008904D03*
X007835Y008910D03*
X007835Y008916D03*
X007835Y008921D03*
X007835Y008927D03*
X007835Y008933D03*
X007835Y008939D03*
X007835Y008945D03*
X007835Y008951D03*
X007835Y008957D03*
X007835Y008963D03*
X007835Y008969D03*
X007835Y008975D03*
X007835Y008980D03*
X007835Y008986D03*
X007835Y008992D03*
X007835Y008998D03*
X007835Y009004D03*
X007835Y009010D03*
X007835Y009016D03*
X007835Y009022D03*
X007835Y009028D03*
X007835Y009034D03*
X007835Y009040D03*
X007835Y009045D03*
X007835Y009051D03*
X007835Y009057D03*
X007835Y009063D03*
X007835Y009069D03*
X007835Y009075D03*
X007835Y009081D03*
X007835Y009087D03*
X007835Y009093D03*
X007835Y009099D03*
X007835Y009104D03*
X007835Y009110D03*
X007835Y009116D03*
X007835Y009122D03*
X007835Y009128D03*
X007835Y009134D03*
X007835Y009140D03*
X007835Y009146D03*
X007835Y009152D03*
X007835Y009158D03*
X007835Y009164D03*
X007835Y009169D03*
X007835Y009175D03*
X007835Y009181D03*
X007835Y009187D03*
X007835Y009193D03*
X007835Y009199D03*
X007835Y009205D03*
X007835Y009211D03*
X007829Y009229D03*
X007829Y009234D03*
X007829Y009240D03*
X007829Y009246D03*
X007711Y009382D03*
X007593Y009246D03*
X007593Y009240D03*
X007593Y009234D03*
X007593Y009229D03*
X007593Y009223D03*
X007593Y009217D03*
X007593Y009211D03*
X007593Y009205D03*
X007593Y009199D03*
X007593Y009193D03*
X007593Y009187D03*
X007593Y009181D03*
X007593Y009175D03*
X007593Y009169D03*
X007593Y009164D03*
X007593Y009158D03*
X007593Y009152D03*
X007593Y009146D03*
X007593Y009140D03*
X007593Y009134D03*
X007593Y009128D03*
X007593Y009122D03*
X007593Y009116D03*
X007593Y009110D03*
X007593Y009104D03*
X007593Y009099D03*
X007593Y009093D03*
X007593Y009087D03*
X007593Y009081D03*
X007593Y009075D03*
X007593Y009069D03*
X007593Y009063D03*
X007593Y009057D03*
X007593Y009051D03*
X007593Y009045D03*
X007593Y009040D03*
X007593Y009034D03*
X007593Y009028D03*
X007593Y009022D03*
X007593Y009016D03*
X007593Y009010D03*
X007593Y009004D03*
X007593Y008998D03*
X007593Y008992D03*
X007593Y008986D03*
X007593Y008980D03*
X007593Y008975D03*
X007593Y008969D03*
X007593Y008963D03*
X007593Y008957D03*
X007593Y008951D03*
X007593Y008945D03*
X007593Y008939D03*
X007593Y008933D03*
X007593Y008927D03*
X007593Y008921D03*
X007593Y008916D03*
X007593Y008910D03*
X007593Y008904D03*
X007593Y008898D03*
X007593Y008892D03*
X007593Y008886D03*
X007593Y008880D03*
X007593Y008874D03*
X007593Y008868D03*
X007593Y008862D03*
X007593Y008856D03*
X007593Y008851D03*
X007593Y008845D03*
X007593Y008839D03*
X007593Y008833D03*
X007593Y008827D03*
X007593Y008821D03*
X007593Y008815D03*
X007593Y008809D03*
X007593Y008803D03*
X007097Y008803D03*
X007097Y008797D03*
X007097Y008791D03*
X007097Y008786D03*
X007097Y008780D03*
X007097Y008774D03*
X007097Y008768D03*
X007097Y008762D03*
X007097Y008756D03*
X007097Y008750D03*
X007097Y008744D03*
X007097Y008738D03*
X007097Y008732D03*
X007097Y008727D03*
X007097Y008721D03*
X007097Y008715D03*
X007097Y008709D03*
X007097Y008703D03*
X007097Y008697D03*
X007097Y008691D03*
X007097Y008685D03*
X007097Y008679D03*
X007097Y008673D03*
X007097Y008667D03*
X007097Y008809D03*
X007097Y008815D03*
X007097Y008821D03*
X007097Y008827D03*
X007097Y008833D03*
X007097Y008839D03*
X007097Y008845D03*
X007097Y008851D03*
X007097Y008856D03*
X007097Y008862D03*
X007097Y008868D03*
X007097Y008874D03*
X007097Y008880D03*
X007097Y008886D03*
X007097Y008892D03*
X007097Y008898D03*
X007097Y008904D03*
X007097Y008910D03*
X007097Y008916D03*
X007097Y008921D03*
X007097Y008927D03*
X007097Y008933D03*
X007097Y008939D03*
X007097Y008945D03*
X007097Y008951D03*
X007097Y008957D03*
X007097Y008963D03*
X007097Y008969D03*
X007097Y008975D03*
X007097Y008980D03*
X007097Y008986D03*
X007097Y008992D03*
X007097Y008998D03*
X007097Y009004D03*
X007097Y009010D03*
X007097Y009016D03*
X007097Y009022D03*
X007097Y009028D03*
X007097Y009034D03*
X007097Y009040D03*
X007097Y009045D03*
X007097Y009051D03*
X007097Y009057D03*
X007097Y009063D03*
X007097Y009069D03*
X007097Y009075D03*
X007097Y009081D03*
X006843Y009081D03*
X006843Y009087D03*
X006843Y009093D03*
X006843Y009099D03*
X006843Y009104D03*
X006843Y009110D03*
X006843Y009116D03*
X006843Y009122D03*
X006843Y009128D03*
X006843Y009134D03*
X006843Y009140D03*
X006843Y009146D03*
X006843Y009152D03*
X006843Y009158D03*
X006843Y009164D03*
X006843Y009169D03*
X006843Y009175D03*
X006843Y009181D03*
X006843Y009187D03*
X006843Y009193D03*
X006843Y009199D03*
X006843Y009205D03*
X006843Y009211D03*
X006843Y009217D03*
X006843Y009223D03*
X006843Y009229D03*
X006843Y009234D03*
X006843Y009240D03*
X006843Y009246D03*
X006843Y009252D03*
X006843Y009258D03*
X006843Y009264D03*
X006843Y009270D03*
X006843Y009276D03*
X006843Y009282D03*
X006843Y009288D03*
X006843Y009293D03*
X006843Y009299D03*
X006843Y009305D03*
X006843Y009311D03*
X006843Y009317D03*
X006843Y009323D03*
X006843Y009329D03*
X006843Y009335D03*
X006843Y009341D03*
X006843Y009347D03*
X006843Y009353D03*
X006843Y009358D03*
X006843Y009364D03*
X006843Y009370D03*
X006843Y009376D03*
X006843Y009382D03*
X007097Y009370D03*
X007097Y009364D03*
X006843Y009075D03*
X006843Y009069D03*
X006843Y009063D03*
X006843Y009057D03*
X006843Y009051D03*
X006843Y009045D03*
X006843Y009040D03*
X006843Y009034D03*
X006843Y009028D03*
X006843Y009022D03*
X006843Y009016D03*
X006843Y009010D03*
X006843Y009004D03*
X006843Y008998D03*
X006843Y008992D03*
X006843Y008986D03*
X006843Y008980D03*
X006843Y008975D03*
X006843Y008969D03*
X006843Y008691D03*
X006843Y008685D03*
X006843Y008679D03*
X007073Y008325D03*
X007073Y008319D03*
X007073Y008313D03*
X007073Y008307D03*
X007073Y008301D03*
X006347Y008803D03*
X006347Y008809D03*
X006347Y008815D03*
X006347Y008821D03*
X006347Y008827D03*
X006347Y008833D03*
X006347Y008839D03*
X006347Y008845D03*
X006347Y008851D03*
X006347Y008856D03*
X006347Y008862D03*
X006347Y008868D03*
X006347Y008874D03*
X006347Y008880D03*
X006347Y008886D03*
X006347Y008892D03*
X006347Y008898D03*
X006347Y008904D03*
X006347Y008910D03*
X006347Y008916D03*
X006347Y008921D03*
X006347Y008927D03*
X006347Y008933D03*
X006347Y008939D03*
X006347Y008945D03*
X006347Y008951D03*
X006347Y008957D03*
X006347Y008963D03*
X006347Y008969D03*
X006347Y008975D03*
X006347Y008980D03*
X006347Y008986D03*
X006347Y008992D03*
X006347Y008998D03*
X006347Y009004D03*
X006347Y009010D03*
X006347Y009016D03*
X006347Y009022D03*
X006347Y009028D03*
X006347Y009034D03*
X006347Y009040D03*
X006347Y009045D03*
X006347Y009051D03*
X006347Y009057D03*
X006347Y009063D03*
X006347Y009069D03*
X006347Y009075D03*
X006347Y009081D03*
X006347Y009087D03*
X006347Y009093D03*
X006347Y009099D03*
X006347Y009104D03*
X006347Y009110D03*
X006347Y009116D03*
X006347Y009122D03*
X006347Y009128D03*
X006347Y009134D03*
X006347Y009140D03*
X006347Y009146D03*
X006347Y009152D03*
X006347Y009158D03*
X006347Y009164D03*
X006347Y009169D03*
X006347Y009175D03*
X006347Y009181D03*
X006347Y009187D03*
X006347Y009193D03*
X006347Y009199D03*
X006347Y009205D03*
X006347Y009211D03*
X006347Y009217D03*
X006347Y009223D03*
X006347Y009229D03*
X006347Y009234D03*
X006347Y009240D03*
X006347Y009246D03*
X006229Y009382D03*
X006110Y009246D03*
X006110Y009240D03*
X006110Y009234D03*
X006110Y009229D03*
X006105Y009217D03*
X006105Y009211D03*
X006105Y009205D03*
X006105Y009199D03*
X006105Y009193D03*
X006105Y009187D03*
X006105Y009181D03*
X006105Y008969D03*
X006105Y008963D03*
X006105Y008957D03*
X006105Y008951D03*
X006105Y008945D03*
X006105Y008939D03*
X006105Y008933D03*
X006105Y008927D03*
X006105Y008921D03*
X006105Y008916D03*
X006105Y008910D03*
X006105Y008904D03*
X006105Y008898D03*
X006105Y008892D03*
X006105Y008886D03*
X006105Y008880D03*
X006105Y008874D03*
X006105Y008868D03*
X006105Y008862D03*
X006105Y008856D03*
X006105Y008851D03*
X006105Y008845D03*
X006105Y008839D03*
X006105Y008833D03*
X006110Y008821D03*
X006110Y008815D03*
X006110Y008809D03*
X006110Y008803D03*
X008502Y008803D03*
X008502Y008797D03*
X008502Y008791D03*
X008502Y008786D03*
X008502Y008780D03*
X008502Y008774D03*
X008502Y008809D03*
X008502Y008815D03*
X008502Y008821D03*
X008502Y008827D03*
X008502Y008833D03*
X008502Y008839D03*
X008502Y008845D03*
X008502Y008851D03*
X008502Y008856D03*
X008502Y008862D03*
X008502Y008868D03*
X008502Y008874D03*
X008502Y008880D03*
X008502Y008886D03*
X008502Y008892D03*
X008502Y008898D03*
X008502Y008904D03*
X008502Y008910D03*
X008502Y008916D03*
X008502Y008921D03*
X008502Y008927D03*
X008502Y008933D03*
X008502Y008939D03*
X008502Y008945D03*
X008502Y008951D03*
X008502Y008957D03*
X008502Y008963D03*
X008502Y008969D03*
X008502Y008975D03*
X008502Y008980D03*
X008502Y008986D03*
X008502Y008992D03*
X008502Y008998D03*
X008502Y009004D03*
X008502Y009010D03*
X008502Y009016D03*
X008502Y009022D03*
X008502Y009028D03*
X008502Y009034D03*
X008502Y009040D03*
X008502Y009045D03*
X008502Y009051D03*
X008502Y009057D03*
X008502Y009063D03*
X008502Y009069D03*
X008502Y009075D03*
X008502Y009081D03*
X008502Y009087D03*
X008502Y009093D03*
X008502Y009099D03*
X008502Y009104D03*
X008502Y009110D03*
X008502Y009116D03*
X008502Y009122D03*
X008502Y009128D03*
X008502Y009134D03*
X008502Y009140D03*
X008502Y009146D03*
X008502Y009152D03*
X008502Y009158D03*
X008502Y009164D03*
X008502Y009169D03*
X008502Y009175D03*
X008502Y009181D03*
X008502Y009187D03*
X008502Y009193D03*
X008502Y009199D03*
X008502Y009205D03*
X008502Y009211D03*
X008502Y009217D03*
X008502Y009223D03*
X008502Y009229D03*
X008502Y009234D03*
X008502Y009240D03*
X008502Y009246D03*
X008502Y009252D03*
X008502Y009258D03*
X008502Y009264D03*
X008502Y009270D03*
X008502Y009276D03*
X008502Y009282D03*
X008502Y009288D03*
X008502Y009293D03*
X008502Y009299D03*
X008502Y009305D03*
X008502Y009311D03*
X008502Y009317D03*
X008502Y009323D03*
X008502Y009329D03*
X008502Y009335D03*
X008502Y009341D03*
X008502Y009347D03*
X008502Y009353D03*
X008502Y009358D03*
X008502Y009364D03*
X008502Y009370D03*
X008502Y009376D03*
X008502Y009382D03*
D21*
X008396Y008402D03*
X007049Y009099D03*
X007049Y009104D03*
X007049Y009110D03*
X006890Y008951D03*
X006890Y008945D03*
X006890Y008939D03*
X006294Y007711D03*
X005449Y008041D03*
X005502Y008402D03*
X004853Y009099D03*
X004853Y009104D03*
X004853Y009110D03*
X004693Y008951D03*
X004693Y008945D03*
X004693Y008939D03*
D22*
X004661Y008774D03*
X004661Y008768D03*
X004661Y008762D03*
X004885Y009276D03*
X004885Y009282D03*
X004885Y009288D03*
X005505Y009288D03*
X005505Y009282D03*
X005505Y009276D03*
X005505Y009270D03*
X006320Y009282D03*
X006857Y008774D03*
X006857Y008768D03*
X006857Y008762D03*
X007082Y009282D03*
X007082Y009288D03*
X007082Y009293D03*
X007619Y009282D03*
X008393Y008419D03*
X008481Y008325D03*
X007684Y008325D03*
X007684Y008319D03*
X007684Y008313D03*
X005600Y008148D03*
X005594Y008325D03*
X005505Y007711D03*
D23*
X009993Y009382D03*
X010537Y008992D03*
X010537Y007717D03*
D24*
X008396Y007717D03*
X008313Y007805D03*
X007681Y008278D03*
X006872Y008106D03*
X006866Y008809D03*
X006866Y008815D03*
X006866Y008821D03*
X007073Y009229D03*
X007073Y009234D03*
X007073Y009240D03*
X005419Y007805D03*
X004669Y008809D03*
X004669Y008815D03*
X004669Y008821D03*
X004876Y009229D03*
X004876Y009234D03*
X004876Y009240D03*
D25*
X004897Y009347D03*
X004897Y009353D03*
X005505Y009341D03*
X005505Y009335D03*
X005505Y009329D03*
X005505Y009323D03*
X006113Y009258D03*
X006113Y009252D03*
X006119Y009264D03*
X006338Y009264D03*
X006344Y009258D03*
X006344Y009252D03*
X006344Y008797D03*
X006344Y008791D03*
X006338Y008786D03*
X006226Y008667D03*
X006113Y008791D03*
X006113Y008797D03*
X006125Y008301D03*
X006119Y008295D03*
X006119Y008290D03*
X006125Y007829D03*
X005629Y007853D03*
X005623Y007841D03*
X005623Y007835D03*
X005393Y007829D03*
X005393Y007823D03*
X005387Y007982D03*
X005387Y007988D03*
X005393Y007994D03*
X005381Y008260D03*
X005381Y008266D03*
X005381Y008272D03*
X005387Y008284D03*
X005387Y008290D03*
X005611Y008301D03*
X005611Y008307D03*
X005617Y008295D03*
X005617Y008171D03*
X004649Y008697D03*
X004649Y008703D03*
X004649Y008709D03*
X006846Y008709D03*
X006846Y008703D03*
X006846Y008697D03*
X006846Y008301D03*
X006840Y008290D03*
X006840Y008142D03*
X006846Y008130D03*
X006869Y007882D03*
X006863Y007864D03*
X006857Y007847D03*
X006852Y007829D03*
X006846Y007811D03*
X006840Y007793D03*
X006840Y007788D03*
X006834Y007776D03*
X006834Y007770D03*
X006828Y007758D03*
X006828Y007752D03*
X006822Y007740D03*
X006822Y007734D03*
X006816Y007723D03*
X006816Y007717D03*
X007684Y008366D03*
X007684Y008372D03*
X007684Y008378D03*
X007602Y008786D03*
X007596Y008791D03*
X007596Y008797D03*
X007826Y008797D03*
X007826Y008791D03*
X008287Y008301D03*
X008287Y008295D03*
X008281Y008290D03*
X008281Y008284D03*
X008499Y008301D03*
X008499Y008307D03*
X008505Y008295D03*
X008505Y008290D03*
X008505Y008284D03*
X008505Y007847D03*
X008505Y007841D03*
X008505Y007835D03*
X008499Y007829D03*
X008499Y007823D03*
X008287Y007829D03*
X008287Y007835D03*
X008281Y007841D03*
X008281Y007847D03*
X007826Y009252D03*
X007826Y009258D03*
X007820Y009264D03*
X007602Y009264D03*
X007596Y009258D03*
X007596Y009252D03*
X007094Y009347D03*
X007094Y009353D03*
X007094Y009358D03*
D26*
X008393Y008396D03*
X009769Y008620D03*
X009769Y008626D03*
X009769Y008632D03*
X009769Y008638D03*
X009769Y008644D03*
X009769Y008650D03*
X009769Y008656D03*
X009769Y008662D03*
X009769Y008667D03*
X011298Y008667D03*
X011298Y008662D03*
X011298Y008656D03*
X011298Y008650D03*
X011298Y008644D03*
X011298Y008638D03*
X011298Y008632D03*
X011298Y008626D03*
X011298Y008620D03*
X011298Y008614D03*
X011298Y008608D03*
X011298Y008673D03*
X011298Y008679D03*
X006285Y007717D03*
D27*
X005502Y007717D03*
X005502Y008414D03*
X006229Y008679D03*
X006872Y008845D03*
X006872Y008851D03*
X006872Y008856D03*
X007067Y009199D03*
X007067Y009205D03*
X007067Y009211D03*
X007711Y009370D03*
X007711Y008679D03*
X007681Y008254D03*
X007681Y008248D03*
X006229Y009370D03*
X005508Y009211D03*
X004870Y009205D03*
X004870Y009199D03*
X004675Y008851D03*
X004675Y008845D03*
D28*
X009990Y009116D03*
X009990Y009122D03*
X009990Y009128D03*
X009990Y009134D03*
X009990Y009140D03*
X009990Y009146D03*
X009990Y009152D03*
X009990Y009158D03*
X009990Y009164D03*
X009990Y009169D03*
X009990Y009175D03*
X009990Y009181D03*
X009990Y009187D03*
X009990Y009193D03*
X009990Y009199D03*
X009990Y009205D03*
X009990Y009211D03*
X009990Y009217D03*
X009990Y009223D03*
X009990Y009229D03*
X009990Y009234D03*
X009990Y009240D03*
X009990Y009246D03*
X009990Y009252D03*
X009990Y009258D03*
X009990Y009264D03*
X009990Y009270D03*
X009990Y009276D03*
X009990Y009282D03*
X009990Y009288D03*
X009990Y009293D03*
X009990Y009299D03*
X009990Y009305D03*
X009990Y009311D03*
X009990Y009317D03*
X009990Y009323D03*
X009990Y009329D03*
X009990Y009335D03*
X009990Y009341D03*
X009990Y009347D03*
X009990Y009353D03*
X009990Y009358D03*
X009990Y009364D03*
X009990Y009370D03*
X009990Y009376D03*
X010534Y008986D03*
X010534Y008980D03*
X010534Y008975D03*
X010534Y008969D03*
X010534Y008963D03*
X010534Y008957D03*
X010534Y008951D03*
X010534Y008945D03*
X010534Y008939D03*
X010534Y008933D03*
X010534Y008927D03*
X010534Y008921D03*
X010534Y008916D03*
X010534Y008910D03*
X010534Y008904D03*
X010534Y008898D03*
X010534Y008892D03*
X010534Y008886D03*
X010534Y008880D03*
X010534Y008874D03*
X010534Y008868D03*
X010534Y008862D03*
X010534Y008856D03*
X010534Y008851D03*
X010534Y008845D03*
X010534Y008839D03*
X010534Y008833D03*
X010534Y008827D03*
X010534Y008821D03*
X010534Y008815D03*
X010534Y008809D03*
X010534Y008803D03*
X010534Y008797D03*
X010534Y008791D03*
X010534Y008786D03*
X010534Y008780D03*
X010534Y008774D03*
X010534Y008768D03*
X010534Y008520D03*
X010534Y008514D03*
X010534Y008508D03*
X010534Y008502D03*
X010534Y008496D03*
X010534Y008490D03*
X010534Y008484D03*
X010534Y008479D03*
X010534Y008473D03*
X010534Y008467D03*
X010534Y008461D03*
X010534Y008455D03*
X010534Y008449D03*
X010534Y008443D03*
X010534Y008437D03*
X010534Y008431D03*
X010534Y008425D03*
X010534Y008419D03*
X010534Y008414D03*
X010534Y008408D03*
X010534Y008402D03*
X010534Y008396D03*
X010534Y008390D03*
X010534Y008384D03*
X010534Y008378D03*
X010534Y008372D03*
X010534Y008366D03*
X010534Y008360D03*
X010534Y008354D03*
X010534Y008349D03*
X010534Y008343D03*
X010534Y008337D03*
X010534Y008331D03*
X010534Y008325D03*
X010534Y008319D03*
X010534Y008313D03*
X010534Y008307D03*
X010534Y008301D03*
X010534Y008295D03*
X010534Y008290D03*
X010534Y008284D03*
X010534Y008278D03*
X010534Y008272D03*
X010534Y008266D03*
X010534Y008260D03*
X010534Y008254D03*
X010534Y008248D03*
X010534Y008242D03*
X010534Y008236D03*
X010534Y008230D03*
X010534Y008225D03*
X010534Y008219D03*
X010534Y008213D03*
X010534Y008207D03*
X010534Y008201D03*
X010534Y008195D03*
X010534Y008189D03*
X010534Y008183D03*
X010534Y007835D03*
X010534Y007829D03*
X010534Y007823D03*
X010534Y007817D03*
X010534Y007811D03*
X010534Y007805D03*
X010534Y007799D03*
X010534Y007793D03*
X010534Y007788D03*
X010534Y007782D03*
X010534Y007776D03*
X010534Y007770D03*
X010534Y007764D03*
X010534Y007758D03*
X010534Y007752D03*
X010534Y007746D03*
X010534Y007740D03*
X010534Y007734D03*
X010534Y007729D03*
X010534Y007723D03*
D29*
X010540Y007841D03*
X010540Y007847D03*
X010540Y007853D03*
X010540Y007858D03*
X010540Y007864D03*
X010540Y007870D03*
X010540Y007876D03*
X010540Y007882D03*
X010540Y007888D03*
X010540Y007894D03*
X010540Y007900D03*
X010540Y007906D03*
X010540Y007912D03*
X010540Y007917D03*
X010540Y007923D03*
X010540Y007929D03*
X010540Y007935D03*
X010540Y007941D03*
X010540Y007947D03*
X010540Y007953D03*
X010540Y007959D03*
X010540Y007965D03*
X010540Y007971D03*
X010540Y007977D03*
X010540Y007982D03*
X010540Y007988D03*
X010540Y007994D03*
X010540Y008000D03*
X010540Y008006D03*
X010540Y008012D03*
X010540Y008018D03*
X010540Y008024D03*
X010540Y008030D03*
X010540Y008036D03*
X010540Y008041D03*
X010540Y008047D03*
X010540Y008053D03*
X010540Y008059D03*
X010540Y008065D03*
X010540Y008071D03*
X010540Y008077D03*
X010540Y008083D03*
X010540Y008089D03*
X010540Y008095D03*
X010540Y008101D03*
X010540Y008106D03*
X010540Y008112D03*
X010540Y008118D03*
X010540Y008124D03*
X010540Y008130D03*
X010540Y008136D03*
X010540Y008142D03*
X010540Y008148D03*
X010540Y008154D03*
X010540Y008160D03*
X010540Y008166D03*
X010540Y008171D03*
X010540Y008177D03*
X010894Y008177D03*
X010894Y008171D03*
X010894Y008166D03*
X010894Y008160D03*
X010894Y008154D03*
X010894Y008148D03*
X010894Y008142D03*
X010894Y008136D03*
X010894Y008130D03*
X010894Y008124D03*
X010894Y008118D03*
X010894Y008112D03*
X010894Y008106D03*
X010894Y008101D03*
X010894Y008095D03*
X010894Y008089D03*
X010894Y008083D03*
X010894Y008077D03*
X010894Y008071D03*
X010894Y008065D03*
X010894Y008059D03*
X010894Y008053D03*
X010894Y008047D03*
X010894Y008041D03*
X010894Y008036D03*
X010894Y008030D03*
X010894Y008024D03*
X010894Y008018D03*
X010894Y008012D03*
X010894Y008006D03*
X010894Y008000D03*
X010894Y007994D03*
X010894Y007988D03*
X010894Y007982D03*
X010894Y007977D03*
X010894Y007971D03*
X010894Y007965D03*
X010894Y007959D03*
X010894Y007953D03*
X010894Y007947D03*
X010894Y007941D03*
X010894Y007935D03*
X010894Y007929D03*
X010894Y007923D03*
X010894Y007917D03*
X010894Y007912D03*
X010894Y007906D03*
X010894Y007900D03*
X010894Y007894D03*
X010894Y007888D03*
X010894Y007882D03*
X010894Y007876D03*
X010894Y007870D03*
X010894Y007864D03*
X010894Y007858D03*
X010894Y007853D03*
X010894Y007847D03*
X010894Y007841D03*
X010179Y007841D03*
X010179Y007847D03*
X010179Y007853D03*
X010179Y007858D03*
X010179Y007864D03*
X010179Y007870D03*
X010179Y007876D03*
X010179Y007882D03*
X010179Y007888D03*
X010179Y007894D03*
X010179Y007900D03*
X010179Y007906D03*
X010179Y007912D03*
X010179Y007917D03*
X010179Y007923D03*
X010179Y007929D03*
X010179Y007935D03*
X010179Y007941D03*
X010179Y007947D03*
X010179Y007953D03*
X010179Y007959D03*
X010179Y007965D03*
X010179Y007971D03*
X010179Y007977D03*
X010179Y007982D03*
X010179Y007988D03*
X010179Y007994D03*
X010179Y008000D03*
X010179Y008006D03*
X010179Y008012D03*
X010179Y008018D03*
X010179Y008024D03*
X010179Y008030D03*
X010179Y008036D03*
X010179Y008041D03*
X010179Y008047D03*
X010179Y008053D03*
X010179Y008059D03*
X010179Y008065D03*
X010179Y008071D03*
X010179Y008077D03*
X010179Y008083D03*
X010179Y008089D03*
X010179Y008095D03*
X010179Y008101D03*
X010179Y008106D03*
X010179Y008112D03*
X010179Y008118D03*
X010179Y008124D03*
X010179Y008130D03*
X010179Y008136D03*
X010179Y008142D03*
X010179Y008148D03*
X010179Y008154D03*
X010179Y008160D03*
X010179Y008166D03*
X010179Y008171D03*
X010179Y008177D03*
X008396Y007723D03*
X007681Y008225D03*
X006878Y008874D03*
X006878Y008880D03*
X006878Y008886D03*
X007061Y009164D03*
X007061Y009169D03*
X007061Y009175D03*
X006305Y008425D03*
X005431Y008030D03*
X004681Y008874D03*
X004681Y008880D03*
X004681Y008886D03*
X004864Y009164D03*
X004864Y009169D03*
X004864Y009175D03*
D30*
X004791Y009075D03*
X004791Y009069D03*
X004785Y009057D03*
X004785Y009051D03*
X004779Y009040D03*
X004773Y009028D03*
X004773Y009022D03*
X004767Y009010D03*
X004767Y009004D03*
X004761Y008992D03*
X004761Y008986D03*
X004755Y008975D03*
X004643Y008673D03*
X004643Y008667D03*
X005357Y008685D03*
X005363Y008709D03*
X005363Y008715D03*
X005369Y008738D03*
X005369Y008744D03*
X005375Y008762D03*
X005375Y008768D03*
X005375Y008774D03*
X005381Y008791D03*
X005381Y008797D03*
X005381Y008803D03*
X005387Y008815D03*
X005411Y008933D03*
X005411Y008939D03*
X005411Y008945D03*
X005417Y008963D03*
X005417Y008969D03*
X005422Y008992D03*
X005428Y009022D03*
X005588Y008998D03*
X005594Y008969D03*
X005600Y008945D03*
X005600Y008939D03*
X005623Y008815D03*
X005629Y008809D03*
X005629Y008803D03*
X005629Y008797D03*
X005629Y008791D03*
X005635Y008780D03*
X005635Y008774D03*
X005635Y008768D03*
X005641Y008750D03*
X005641Y008744D03*
X005641Y008738D03*
X005647Y008721D03*
X005647Y008715D03*
X005653Y008685D03*
X006107Y008827D03*
X006107Y009223D03*
X005505Y009347D03*
X005505Y009353D03*
X005505Y009358D03*
X005505Y009364D03*
X004903Y009376D03*
X004903Y009382D03*
X006113Y008254D03*
X006113Y008248D03*
X006113Y007894D03*
X006113Y007888D03*
X006113Y007882D03*
X006875Y007900D03*
X006881Y007917D03*
X006887Y007935D03*
X006893Y007953D03*
X006899Y007971D03*
X006905Y007988D03*
X006905Y007994D03*
X006911Y008006D03*
X006834Y008171D03*
X006834Y008260D03*
X006840Y008667D03*
X006840Y008673D03*
X006952Y008975D03*
X006952Y008980D03*
X006958Y008992D03*
X006964Y009004D03*
X006964Y009010D03*
X006970Y009022D03*
X006970Y009028D03*
X006976Y009040D03*
X006976Y009045D03*
X006981Y009057D03*
X006981Y009063D03*
X006987Y009069D03*
X006987Y009075D03*
X007100Y009376D03*
X007100Y009382D03*
X007832Y009223D03*
X007832Y009217D03*
X007832Y008833D03*
X007832Y008827D03*
X007684Y008402D03*
X007684Y008396D03*
X007684Y008390D03*
X007602Y008041D03*
X007596Y008018D03*
X007596Y008012D03*
X007590Y007988D03*
X007590Y007982D03*
X007590Y007977D03*
X007584Y007965D03*
X007560Y007853D03*
X007560Y007847D03*
X007560Y007841D03*
X007560Y007835D03*
X007554Y007823D03*
X007554Y007817D03*
X007554Y007811D03*
X007548Y007793D03*
X007548Y007788D03*
X007548Y007782D03*
X007543Y007764D03*
X007543Y007758D03*
X007537Y007734D03*
X007537Y007729D03*
X007814Y007799D03*
X007814Y007805D03*
X007814Y007811D03*
X007808Y007829D03*
X007808Y007835D03*
X007808Y007841D03*
X007802Y007853D03*
X007802Y007858D03*
X007820Y007782D03*
X007820Y007776D03*
X007826Y007752D03*
X007826Y007746D03*
X007832Y007723D03*
X007779Y007977D03*
X007779Y007982D03*
X007773Y008006D03*
X007767Y008036D03*
X008281Y007912D03*
X008281Y008219D03*
X008393Y008425D03*
X005381Y008219D03*
X005381Y007935D03*
X005381Y007929D03*
X005381Y007900D03*
X005381Y007894D03*
X005381Y007888D03*
X005381Y007882D03*
D31*
X005502Y007740D03*
X005490Y008071D03*
X005496Y008077D03*
X005514Y008089D03*
X005502Y008390D03*
X006229Y008703D03*
X006229Y009347D03*
X007711Y009347D03*
X007711Y008703D03*
X008396Y007746D03*
X009778Y008579D03*
X009778Y008585D03*
X009778Y008709D03*
X011290Y008709D03*
X011290Y008715D03*
X011290Y008579D03*
X011290Y008573D03*
X006276Y007723D03*
D32*
X005502Y007723D03*
X005502Y008408D03*
X006229Y008685D03*
X006146Y008975D03*
X006146Y008980D03*
X006146Y008986D03*
X006146Y008992D03*
X006146Y008998D03*
X006146Y009004D03*
X006146Y009010D03*
X006146Y009016D03*
X006146Y009022D03*
X006146Y009028D03*
X006146Y009034D03*
X006146Y009040D03*
X006146Y009045D03*
X006146Y009051D03*
X006146Y009057D03*
X006229Y009364D03*
X006884Y008921D03*
X006884Y008916D03*
X006884Y008910D03*
X007055Y009134D03*
X007055Y009140D03*
X007711Y009364D03*
X007711Y008685D03*
X007032Y008425D03*
X004858Y009128D03*
X004858Y009134D03*
X004858Y009140D03*
X004687Y008916D03*
X004687Y008910D03*
D33*
X004690Y008921D03*
X004690Y008927D03*
X004690Y008933D03*
X004856Y009116D03*
X004856Y009122D03*
X005558Y008118D03*
X006887Y008927D03*
X006887Y008933D03*
X007052Y009116D03*
X007052Y009122D03*
X007052Y009128D03*
X008399Y007729D03*
D34*
X008396Y007752D03*
X007711Y008709D03*
X007711Y009341D03*
X006270Y008408D03*
X006229Y008709D03*
X006229Y009341D03*
X005502Y008384D03*
X006270Y007729D03*
X009784Y008567D03*
X009784Y008727D03*
X011284Y008727D03*
X011284Y008561D03*
D35*
X007046Y009087D03*
X007046Y009093D03*
X006893Y008963D03*
X006893Y008957D03*
X006226Y008691D03*
X005546Y008112D03*
X005458Y008047D03*
X005505Y007729D03*
X004696Y008957D03*
X004696Y008963D03*
X004850Y009087D03*
X004850Y009093D03*
D36*
X005538Y008106D03*
X006288Y008419D03*
X006229Y009358D03*
X007711Y009358D03*
X007711Y008691D03*
X008396Y007734D03*
D37*
X008396Y007758D03*
X007711Y008715D03*
X007711Y009335D03*
X006996Y008408D03*
X006996Y008036D03*
X006996Y008030D03*
X006996Y008024D03*
X006264Y007734D03*
X005502Y008378D03*
X006229Y008715D03*
X006229Y009335D03*
X009790Y008738D03*
X009790Y008555D03*
X011278Y008549D03*
X011278Y008738D03*
D38*
X011295Y008697D03*
X011295Y008691D03*
X011295Y008685D03*
X011295Y008603D03*
X011295Y008597D03*
X009772Y008603D03*
X009772Y008608D03*
X009772Y008614D03*
X009772Y008673D03*
X009772Y008679D03*
X009772Y008685D03*
X008396Y007740D03*
X007711Y008697D03*
X007711Y009353D03*
X007014Y008419D03*
X006229Y008697D03*
X006229Y009353D03*
X005502Y008396D03*
X005467Y008053D03*
X005502Y007734D03*
D39*
X005505Y007752D03*
X006261Y007740D03*
X006993Y008012D03*
X006993Y008018D03*
X006993Y008402D03*
X006261Y008396D03*
X008393Y008372D03*
X009793Y008549D03*
X011275Y008744D03*
D40*
X011269Y008750D03*
X011269Y008538D03*
X009798Y008750D03*
X008393Y008360D03*
X008393Y007770D03*
X006987Y008047D03*
X006987Y008396D03*
X006255Y008384D03*
X006255Y007746D03*
X005505Y007764D03*
X005499Y008366D03*
D41*
X005505Y007746D03*
X006267Y008402D03*
X008393Y008378D03*
X009787Y008561D03*
X009787Y008732D03*
X009787Y008177D03*
X009787Y008171D03*
X009787Y008166D03*
X009787Y008160D03*
X009787Y008154D03*
X009787Y008148D03*
X009787Y008142D03*
X009787Y008136D03*
X009787Y008130D03*
X009787Y008124D03*
X009787Y008118D03*
X009787Y008112D03*
X009787Y008106D03*
X009787Y008101D03*
X009787Y008095D03*
X009787Y008089D03*
X009787Y008083D03*
X009787Y008077D03*
X009787Y008071D03*
X009787Y008065D03*
X009787Y008059D03*
X009787Y008053D03*
X009787Y008047D03*
X009787Y008041D03*
X009787Y008036D03*
X009787Y008030D03*
X009787Y008024D03*
X009787Y008018D03*
X009787Y008012D03*
X009787Y008006D03*
X009787Y008000D03*
X009787Y007994D03*
X009787Y007988D03*
X009787Y007982D03*
X009787Y007977D03*
X009787Y007971D03*
X009787Y007965D03*
X009787Y007959D03*
X009787Y007953D03*
X009787Y007947D03*
X009787Y007941D03*
X009787Y007935D03*
X009787Y007929D03*
X009787Y007923D03*
X009787Y007917D03*
X009787Y007912D03*
X009787Y007906D03*
X009787Y007900D03*
X009787Y007894D03*
X009787Y007888D03*
X009787Y007882D03*
X009787Y007876D03*
X009787Y007870D03*
X009787Y007864D03*
X009787Y007858D03*
X009787Y007853D03*
X009787Y007847D03*
X009787Y007841D03*
X011281Y008555D03*
X011281Y008732D03*
D42*
X009801Y008538D03*
X008396Y007776D03*
X007711Y008727D03*
X007711Y009317D03*
X007711Y009323D03*
X006984Y008390D03*
X006252Y008378D03*
X006229Y008727D03*
X006229Y009323D03*
X005502Y008360D03*
X006252Y007752D03*
D43*
X006249Y007758D03*
X006249Y008372D03*
X006226Y008732D03*
X006226Y009317D03*
X006981Y008384D03*
X006981Y008053D03*
X007714Y008732D03*
X008393Y008354D03*
X009804Y008756D03*
X011263Y008756D03*
X005505Y007770D03*
D44*
X005502Y007758D03*
X005502Y008372D03*
X006229Y008721D03*
X006258Y008390D03*
X006990Y008041D03*
X007711Y008721D03*
X007711Y009329D03*
X008396Y008366D03*
X008396Y007764D03*
X009795Y008543D03*
X009795Y008744D03*
X011272Y008543D03*
X006229Y009329D03*
D45*
X006229Y009311D03*
X006229Y008738D03*
X006246Y008366D03*
X006246Y007770D03*
X006246Y007764D03*
X005502Y008354D03*
X006979Y008378D03*
X006979Y008059D03*
X007681Y007959D03*
X008396Y007788D03*
X008396Y007782D03*
X008396Y008349D03*
X007711Y008738D03*
X007711Y009311D03*
X009807Y008532D03*
X011260Y008532D03*
D46*
X011257Y008762D03*
X008393Y008343D03*
X008393Y008337D03*
X007684Y007953D03*
X007684Y007947D03*
X007684Y007941D03*
X006976Y008065D03*
X006976Y008372D03*
X006243Y008360D03*
X006243Y007776D03*
X005505Y007776D03*
X005505Y007782D03*
X005499Y008349D03*
X005505Y008898D03*
X005505Y008904D03*
X005505Y008910D03*
X005505Y008916D03*
D47*
X005502Y008343D03*
X006240Y008349D03*
X006240Y008354D03*
X006229Y008744D03*
X006229Y008750D03*
X006229Y009299D03*
X006229Y009305D03*
X006973Y008366D03*
X006973Y008071D03*
X007681Y007935D03*
X008396Y007799D03*
X008396Y007793D03*
X008402Y008768D03*
X007711Y008750D03*
X007711Y008744D03*
X007711Y009299D03*
X007711Y009305D03*
X006240Y007788D03*
X006240Y007782D03*
X009813Y008762D03*
D48*
X009816Y008526D03*
X008399Y008667D03*
X008399Y008673D03*
X008399Y008679D03*
X008399Y008685D03*
X008399Y008691D03*
X008399Y008697D03*
X008399Y008703D03*
X008399Y008709D03*
X008399Y008715D03*
X008399Y008721D03*
X008399Y008727D03*
X008399Y008732D03*
X008399Y008738D03*
X008399Y008744D03*
X008399Y008750D03*
X008399Y008756D03*
X008399Y008762D03*
X008393Y008331D03*
X007684Y007929D03*
X007684Y007923D03*
X007684Y007917D03*
X006970Y008077D03*
X006970Y008083D03*
X006970Y008354D03*
X006970Y008360D03*
X006237Y008343D03*
X006237Y008337D03*
X006237Y007799D03*
X006237Y007793D03*
X005505Y007788D03*
X005499Y008337D03*
X005505Y008868D03*
X005505Y008874D03*
X005505Y008880D03*
X005505Y008886D03*
X005505Y008892D03*
X011251Y008526D03*
D49*
X007711Y008756D03*
X007711Y008762D03*
X007711Y009288D03*
X007711Y009293D03*
X006967Y008349D03*
X006967Y008089D03*
X007681Y007912D03*
X007681Y007906D03*
X006234Y008331D03*
X006229Y008756D03*
X006229Y008762D03*
X006229Y009288D03*
X006229Y009293D03*
X005502Y008331D03*
X005508Y007799D03*
X005508Y007793D03*
D50*
X005417Y008018D03*
X005411Y008325D03*
X004667Y008791D03*
X004667Y008797D03*
X004667Y008803D03*
X004879Y009246D03*
X004879Y009252D03*
X004879Y009258D03*
X005505Y009258D03*
X005505Y009252D03*
X005505Y009246D03*
X005505Y009240D03*
X006149Y008325D03*
X006869Y008325D03*
X006863Y008797D03*
X006863Y008803D03*
X007076Y009246D03*
X007076Y009252D03*
X007076Y009258D03*
X007684Y008295D03*
X007684Y008290D03*
X007684Y008284D03*
X008476Y007805D03*
D51*
X008393Y008414D03*
X007684Y008272D03*
X007684Y008266D03*
X007684Y008260D03*
X006869Y008827D03*
X006869Y008833D03*
X006869Y008839D03*
X007070Y009217D03*
X007070Y009223D03*
X005505Y009223D03*
X005505Y009229D03*
X005505Y009234D03*
X005505Y009217D03*
X004873Y009217D03*
X004873Y009223D03*
X004873Y009211D03*
X004672Y008839D03*
X004672Y008833D03*
X004672Y008827D03*
X005582Y008136D03*
X005422Y008024D03*
X005594Y007805D03*
X006155Y007805D03*
D52*
X005611Y007817D03*
X005405Y007811D03*
X005606Y008154D03*
X005399Y008313D03*
X005393Y008307D03*
X004655Y008727D03*
X004655Y008732D03*
X004655Y008738D03*
X004891Y009311D03*
X004891Y009317D03*
X004891Y009323D03*
X005505Y009311D03*
X005505Y009305D03*
X005505Y009299D03*
X005505Y009293D03*
X006125Y008774D03*
X006137Y008319D03*
X006131Y008313D03*
X006852Y008313D03*
X006852Y008732D03*
X006852Y008738D03*
X007088Y009311D03*
X007088Y009317D03*
X007088Y009323D03*
X007684Y008349D03*
X007684Y008343D03*
X007684Y008337D03*
X008293Y008313D03*
X008298Y008319D03*
X008293Y007817D03*
D53*
X008290Y007823D03*
X008496Y007817D03*
X008496Y008313D03*
X008290Y008307D03*
X007817Y008780D03*
X007823Y008786D03*
X007605Y008780D03*
X007681Y008360D03*
X007681Y008354D03*
X006849Y008307D03*
X006849Y008124D03*
X006855Y008118D03*
X006849Y008715D03*
X006849Y008721D03*
X006849Y008727D03*
X006335Y008780D03*
X006122Y008780D03*
X006116Y008786D03*
X006128Y008307D03*
X005608Y008313D03*
X005614Y008166D03*
X005608Y008160D03*
X005390Y008295D03*
X005390Y008301D03*
X005396Y008000D03*
X005402Y007817D03*
X005620Y007823D03*
X005620Y007829D03*
X006128Y007823D03*
X006134Y007817D03*
X004652Y008715D03*
X004652Y008721D03*
X004894Y009329D03*
X004894Y009335D03*
X004894Y009341D03*
X005508Y009317D03*
X006122Y009270D03*
X006335Y009270D03*
X007091Y009329D03*
X007091Y009335D03*
X007091Y009341D03*
X007605Y009270D03*
X007817Y009270D03*
D54*
X007005Y008414D03*
X008393Y008384D03*
X009781Y008573D03*
X009781Y008715D03*
X009781Y008721D03*
X011287Y008721D03*
X011287Y008567D03*
X011287Y008177D03*
X011287Y008171D03*
X011287Y008166D03*
X011287Y008160D03*
X011287Y008154D03*
X011287Y008148D03*
X011287Y008142D03*
X011287Y008136D03*
X011287Y008130D03*
X011287Y008124D03*
X011287Y008118D03*
X011287Y008112D03*
X011287Y008106D03*
X011287Y008101D03*
X011287Y008095D03*
X011287Y008089D03*
X011287Y008083D03*
X011287Y008077D03*
X011287Y008071D03*
X011287Y008065D03*
X011287Y008059D03*
X011287Y008053D03*
X011287Y008047D03*
X011287Y008041D03*
X011287Y008036D03*
X011287Y008030D03*
X011287Y008024D03*
X011287Y008018D03*
X011287Y008012D03*
X011287Y008006D03*
X011287Y008000D03*
X011287Y007994D03*
X011287Y007988D03*
X011287Y007982D03*
X011287Y007977D03*
X011287Y007971D03*
X011287Y007965D03*
X011287Y007959D03*
X011287Y007953D03*
X011287Y007947D03*
X011287Y007941D03*
X011287Y007935D03*
X011287Y007929D03*
X011287Y007923D03*
X011287Y007917D03*
X011287Y007912D03*
X011287Y007906D03*
X011287Y007900D03*
X011287Y007894D03*
X011287Y007888D03*
X011287Y007882D03*
X011287Y007876D03*
X011287Y007870D03*
X011287Y007864D03*
X011287Y007858D03*
X011287Y007853D03*
X011287Y007847D03*
X011287Y007841D03*
X005505Y008083D03*
D55*
X005505Y008821D03*
X005505Y008827D03*
X005505Y008833D03*
X005505Y008839D03*
X007684Y007876D03*
X007684Y007870D03*
X007684Y007864D03*
D56*
X007681Y007882D03*
D57*
X007684Y007888D03*
X007684Y007894D03*
X007684Y007900D03*
X006964Y008095D03*
X006964Y008101D03*
X006964Y008331D03*
X006964Y008337D03*
X006964Y008343D03*
X005505Y008845D03*
X005505Y008851D03*
X005505Y008856D03*
X005505Y008862D03*
D58*
X005508Y009264D03*
X004882Y009264D03*
X004882Y009270D03*
X004664Y008786D03*
X004664Y008780D03*
X005502Y008419D03*
X005591Y008142D03*
X005408Y008012D03*
X006134Y008768D03*
X006229Y008673D03*
X006323Y008768D03*
X006860Y008780D03*
X006860Y008786D03*
X006860Y008791D03*
X007079Y009264D03*
X007079Y009270D03*
X007079Y009276D03*
X007711Y009376D03*
X007805Y009282D03*
X007805Y008768D03*
X007711Y008673D03*
X007616Y008768D03*
X007681Y008307D03*
X007681Y008301D03*
X008307Y008325D03*
X006229Y009376D03*
X006134Y009282D03*
D59*
X005505Y009181D03*
X005505Y009175D03*
X005505Y009169D03*
X004861Y009158D03*
X004861Y009152D03*
X004861Y009146D03*
X004684Y008904D03*
X004684Y008898D03*
X004684Y008892D03*
X005564Y008124D03*
X005440Y008036D03*
X006881Y008892D03*
X006881Y008898D03*
X006881Y008904D03*
X007058Y009146D03*
X007058Y009152D03*
X007058Y009158D03*
X007684Y008219D03*
X007684Y008213D03*
X008393Y008408D03*
D60*
X008393Y008390D03*
X009775Y008591D03*
X009775Y008597D03*
X009775Y008691D03*
X009775Y008697D03*
X009775Y008703D03*
X011293Y008703D03*
X011293Y008591D03*
X011293Y008585D03*
X006279Y008414D03*
X005529Y008101D03*
X005523Y008095D03*
X005481Y008065D03*
X005476Y008059D03*
D61*
X009332Y008106D03*
D62*
X009329Y008112D03*
X009329Y008118D03*
X009329Y008124D03*
X009329Y008130D03*
X009329Y008136D03*
X009329Y008142D03*
X009329Y008148D03*
X009329Y008154D03*
X009329Y008160D03*
X009329Y008166D03*
X009329Y008171D03*
X009329Y008177D03*
X009329Y008183D03*
X009329Y008189D03*
X009329Y008195D03*
X009329Y008201D03*
X009329Y008207D03*
X009329Y008213D03*
X009329Y008219D03*
X009329Y008225D03*
X009329Y008230D03*
X009329Y008236D03*
X009329Y008242D03*
X009329Y008248D03*
X009329Y008254D03*
X009329Y008260D03*
X009329Y008266D03*
X009329Y008272D03*
X009329Y008278D03*
X009329Y008284D03*
X009329Y008290D03*
X009329Y008295D03*
X009329Y008301D03*
X009329Y008307D03*
X009329Y008313D03*
X009329Y008319D03*
X009329Y008325D03*
X009329Y008331D03*
X009329Y008337D03*
X009329Y008343D03*
X009329Y008349D03*
X009329Y008354D03*
X009329Y008360D03*
X009329Y008366D03*
X009329Y008372D03*
X009329Y008378D03*
X009329Y008384D03*
X009329Y008390D03*
X009329Y008396D03*
X009329Y008402D03*
X009329Y008408D03*
X009329Y008414D03*
X009329Y008419D03*
X009329Y008425D03*
X009329Y008431D03*
X009329Y008437D03*
X009329Y008443D03*
X009329Y008449D03*
X009329Y008455D03*
X009329Y008461D03*
X009329Y008467D03*
X009329Y008473D03*
X009329Y008479D03*
X009329Y008484D03*
X009329Y008490D03*
X009329Y008496D03*
X009329Y008502D03*
X009329Y008508D03*
X009329Y008514D03*
X009329Y008520D03*
X009329Y008526D03*
X009329Y008532D03*
X009329Y008538D03*
X009329Y008543D03*
X009329Y008549D03*
X009329Y008555D03*
X009329Y008561D03*
X009329Y008567D03*
X009329Y008573D03*
X009329Y008579D03*
X009329Y008585D03*
X009329Y008591D03*
X009329Y008597D03*
X009329Y008603D03*
X009329Y008608D03*
X009329Y008614D03*
X009329Y008620D03*
X009329Y008626D03*
X009329Y008632D03*
X009329Y008638D03*
X009329Y008644D03*
X009329Y008650D03*
X009329Y008656D03*
X009329Y008662D03*
X009329Y008667D03*
X009329Y008673D03*
X009329Y008679D03*
X009329Y008685D03*
X009329Y008691D03*
X009329Y008697D03*
X009329Y008703D03*
X009329Y008709D03*
X009329Y008715D03*
X009329Y008721D03*
X009329Y008727D03*
X009329Y008732D03*
X009329Y008738D03*
X009329Y008744D03*
X009329Y008750D03*
X009329Y008756D03*
X009329Y008762D03*
X009329Y008768D03*
X009329Y008774D03*
X009329Y008780D03*
X009329Y008786D03*
X009329Y008791D03*
X009329Y008797D03*
X009329Y008803D03*
X009329Y008809D03*
X009329Y008815D03*
X009329Y008821D03*
X009329Y008827D03*
X009329Y008833D03*
X009329Y008839D03*
X009329Y008845D03*
X009329Y008851D03*
X009329Y008856D03*
X009329Y008862D03*
X009329Y008868D03*
X009329Y008874D03*
X009329Y008880D03*
X009329Y008886D03*
X009329Y008892D03*
X009329Y008898D03*
X009329Y008904D03*
X009329Y008910D03*
X009329Y008916D03*
X009329Y008921D03*
X009329Y008927D03*
X009329Y008933D03*
X009329Y008939D03*
X009329Y008945D03*
X009329Y008951D03*
X009329Y008957D03*
X009329Y008963D03*
X009329Y008969D03*
X009329Y008975D03*
X009329Y008980D03*
X009329Y008986D03*
X009329Y008992D03*
X009329Y008998D03*
X009329Y009004D03*
X009329Y009010D03*
X009329Y009016D03*
X009329Y009022D03*
X009329Y009028D03*
X009329Y009034D03*
X009329Y009040D03*
X009329Y009045D03*
X009329Y009051D03*
X009329Y009057D03*
X009329Y009063D03*
X009329Y009069D03*
X009329Y009075D03*
X009329Y009081D03*
X009329Y009087D03*
X009329Y009093D03*
X009329Y009099D03*
X009329Y009104D03*
X009329Y009110D03*
D63*
X007684Y008242D03*
X007684Y008236D03*
X007684Y008230D03*
X006875Y008862D03*
X006875Y008868D03*
X007064Y009181D03*
X007064Y009187D03*
X007064Y009193D03*
X005505Y009193D03*
X005505Y009187D03*
X005505Y009199D03*
X005505Y009205D03*
X004867Y009193D03*
X004867Y009187D03*
X004867Y009181D03*
X004678Y008868D03*
X004678Y008862D03*
X004678Y008856D03*
X005576Y008130D03*
D64*
X007681Y008425D03*
D65*
X008393Y008431D03*
D66*
X005502Y008431D03*
D67*
X010537Y008526D03*
D68*
X010534Y008532D03*
D69*
X010534Y008538D03*
D70*
X010534Y008543D03*
D71*
X010534Y008549D03*
D72*
X010537Y008555D03*
D73*
X010537Y008561D03*
X010537Y008727D03*
D74*
X010534Y008567D03*
D75*
X010534Y008573D03*
D76*
X010537Y008579D03*
X010537Y008715D03*
D77*
X010537Y008703D03*
X010537Y008585D03*
D78*
X010534Y008591D03*
X010534Y008697D03*
D79*
X010537Y008691D03*
X010537Y008603D03*
X010537Y008597D03*
D80*
X010534Y008608D03*
X010534Y008679D03*
X010534Y008685D03*
D81*
X010537Y008673D03*
X010537Y008667D03*
X010537Y008626D03*
X010537Y008620D03*
X010537Y008614D03*
D82*
X010534Y008632D03*
X010534Y008638D03*
X010534Y008644D03*
X010534Y008650D03*
X010534Y008656D03*
X010534Y008662D03*
D83*
X007711Y008662D03*
X007711Y009388D03*
X006229Y009388D03*
X006229Y008662D03*
D84*
X010534Y008709D03*
D85*
X010537Y008721D03*
D86*
X010534Y008732D03*
D87*
X010537Y008738D03*
D88*
X010537Y008744D03*
D89*
X010534Y008750D03*
D90*
X010534Y008756D03*
D91*
X010537Y008762D03*
M02*
