%
M48
M72
T01C0.0100
T02C0.0350
T03C0.1181
%
T01
X1800Y10410
X2550Y9610
X3550Y8910
X4050Y9410
X4300Y8160
X5050Y7410
X5800Y7410
X5800Y8160
X7550Y8410
X7800Y8160
X8300Y7660
X8050Y6960
X8300Y6160
X9050Y5910
X10200Y4910
X9800Y4660
X10550Y4660
X11000Y4910
X11300Y4660
X12050Y4410
X12800Y4410
X13800Y4910
X12550Y5910
X13800Y6410
X14800Y6410
X15550Y7410
X14800Y8410
X13550Y8410
X13550Y9660
X14550Y10160
X12300Y10410
X10550Y9910
X9050Y9910
X7550Y10660
X7050Y9710
X6300Y10660
X5550Y9710
X5050Y10660
X3550Y10660
X1050Y8910
X2300Y8410
X3300Y7910
X3300Y7160
X3550Y6760
X4050Y6410
X3900Y5610
X2800Y5660
X2300Y6410
X1050Y7410
X800Y5660
X2050Y2910
X2550Y2910
X3300Y2660
X4300Y2660
X5450Y2860
X7300Y4160
X7550Y4410
X8800Y4660
X10200Y3410
X11000Y3160
X12300Y2660
X13300Y2660
X13800Y2910
X14550Y2910
X15300Y2660
X15800Y2910
X15800Y5160
X12800Y7160
X11550Y7160
X11000Y7910
X10200Y7560
X10550Y7160
X9550Y7160
X10550Y5910
X12050Y8410
X7050Y5660
X6050Y5660
X5300Y6410
X6050Y6660
X7550Y2910
X8300Y2910
X1300Y2660
T02
X5800Y12160
X6800Y12160
X7800Y12160
X8800Y12160
X9800Y12160
X10800Y12160
T03
X1800Y11660
X14800Y11660
M30
