G75*
G70*
%OFA0B0*%
%FSLAX24Y24*%
%IPPOS*%
%LPD*%
%AMOC8*
5,1,8,0,0,1.08239X$1,22.5*
%
%ADD10C,0.0100*%
%ADD11R,0.0827X0.2402*%
%ADD12R,0.0434X0.2402*%
%ADD13C,0.0000*%
%ADD14C,0.1221*%
%ADD15R,0.0590X0.0590*%
%ADD16C,0.0590*%
%ADD17R,0.0390X0.0280*%
D10*
X000328Y001364D02*
X000328Y011956D01*
X000330Y012023D01*
X000336Y012090D01*
X000345Y012157D01*
X000358Y012223D01*
X000375Y012288D01*
X000395Y012352D01*
X000419Y012415D01*
X000447Y012477D01*
X000478Y012536D01*
X000512Y012594D01*
X000549Y012650D01*
X000590Y012704D01*
X000633Y012756D01*
X000679Y012805D01*
X000728Y012851D01*
X000780Y012894D01*
X000834Y012935D01*
X000890Y012972D01*
X000948Y013006D01*
X001007Y013037D01*
X001069Y013065D01*
X001132Y013089D01*
X001196Y013109D01*
X001261Y013126D01*
X001327Y013139D01*
X001394Y013148D01*
X001461Y013154D01*
X001528Y013156D01*
X015072Y013156D01*
X015139Y013154D01*
X015206Y013148D01*
X015273Y013139D01*
X015339Y013126D01*
X015404Y013109D01*
X015468Y013089D01*
X015531Y013065D01*
X015593Y013037D01*
X015652Y013006D01*
X015710Y012972D01*
X015766Y012935D01*
X015820Y012894D01*
X015872Y012851D01*
X015921Y012805D01*
X015967Y012756D01*
X016010Y012704D01*
X016051Y012650D01*
X016088Y012594D01*
X016122Y012536D01*
X016153Y012477D01*
X016181Y012415D01*
X016205Y012352D01*
X016225Y012288D01*
X016242Y012223D01*
X016255Y012157D01*
X016264Y012090D01*
X016270Y012023D01*
X016272Y011956D01*
X016272Y001364D01*
X016270Y001297D01*
X016264Y001230D01*
X016255Y001163D01*
X016242Y001097D01*
X016225Y001032D01*
X016205Y000968D01*
X016181Y000905D01*
X016153Y000843D01*
X016122Y000784D01*
X016088Y000726D01*
X016051Y000670D01*
X016010Y000616D01*
X015967Y000564D01*
X015921Y000515D01*
X015872Y000469D01*
X015820Y000426D01*
X015766Y000385D01*
X015710Y000348D01*
X015652Y000314D01*
X015593Y000283D01*
X015531Y000255D01*
X015468Y000231D01*
X015404Y000211D01*
X015339Y000194D01*
X015273Y000181D01*
X015206Y000172D01*
X015139Y000166D01*
X015072Y000164D01*
X001528Y000164D01*
X001461Y000166D01*
X001394Y000172D01*
X001327Y000181D01*
X001261Y000194D01*
X001196Y000211D01*
X001132Y000231D01*
X001069Y000255D01*
X001007Y000283D01*
X000948Y000314D01*
X000890Y000348D01*
X000834Y000385D01*
X000780Y000426D01*
X000728Y000469D01*
X000679Y000515D01*
X000633Y000564D01*
X000590Y000616D01*
X000549Y000670D01*
X000512Y000726D01*
X000478Y000784D01*
X000447Y000843D01*
X000419Y000905D01*
X000395Y000968D01*
X000375Y001032D01*
X000358Y001097D01*
X000345Y001163D01*
X000336Y001230D01*
X000330Y001297D01*
X000328Y001364D01*
D11*
X001300Y001348D03*
X002300Y001348D03*
X003300Y001348D03*
X004300Y001348D03*
X005300Y001348D03*
X006300Y001348D03*
X007300Y001348D03*
X008300Y001348D03*
X009300Y001348D03*
X010300Y001348D03*
X011300Y001348D03*
X012300Y001348D03*
X013300Y001348D03*
X014300Y001348D03*
X015300Y001348D03*
D12*
X016095Y001348D03*
X000505Y001348D03*
D13*
X001209Y011660D02*
X001211Y011708D01*
X001217Y011756D01*
X001227Y011803D01*
X001240Y011849D01*
X001258Y011894D01*
X001278Y011938D01*
X001303Y011980D01*
X001331Y012019D01*
X001361Y012056D01*
X001395Y012090D01*
X001432Y012122D01*
X001470Y012151D01*
X001511Y012176D01*
X001554Y012198D01*
X001599Y012216D01*
X001645Y012230D01*
X001692Y012241D01*
X001740Y012248D01*
X001788Y012251D01*
X001836Y012250D01*
X001884Y012245D01*
X001932Y012236D01*
X001978Y012224D01*
X002023Y012207D01*
X002067Y012187D01*
X002109Y012164D01*
X002149Y012137D01*
X002187Y012107D01*
X002222Y012074D01*
X002254Y012038D01*
X002284Y012000D01*
X002310Y011959D01*
X002332Y011916D01*
X002352Y011872D01*
X002367Y011827D01*
X002379Y011780D01*
X002387Y011732D01*
X002391Y011684D01*
X002391Y011636D01*
X002387Y011588D01*
X002379Y011540D01*
X002367Y011493D01*
X002352Y011448D01*
X002332Y011404D01*
X002310Y011361D01*
X002284Y011320D01*
X002254Y011282D01*
X002222Y011246D01*
X002187Y011213D01*
X002149Y011183D01*
X002109Y011156D01*
X002067Y011133D01*
X002023Y011113D01*
X001978Y011096D01*
X001932Y011084D01*
X001884Y011075D01*
X001836Y011070D01*
X001788Y011069D01*
X001740Y011072D01*
X001692Y011079D01*
X001645Y011090D01*
X001599Y011104D01*
X001554Y011122D01*
X001511Y011144D01*
X001470Y011169D01*
X001432Y011198D01*
X001395Y011230D01*
X001361Y011264D01*
X001331Y011301D01*
X001303Y011340D01*
X001278Y011382D01*
X001258Y011426D01*
X001240Y011471D01*
X001227Y011517D01*
X001217Y011564D01*
X001211Y011612D01*
X001209Y011660D01*
X014209Y011660D02*
X014211Y011708D01*
X014217Y011756D01*
X014227Y011803D01*
X014240Y011849D01*
X014258Y011894D01*
X014278Y011938D01*
X014303Y011980D01*
X014331Y012019D01*
X014361Y012056D01*
X014395Y012090D01*
X014432Y012122D01*
X014470Y012151D01*
X014511Y012176D01*
X014554Y012198D01*
X014599Y012216D01*
X014645Y012230D01*
X014692Y012241D01*
X014740Y012248D01*
X014788Y012251D01*
X014836Y012250D01*
X014884Y012245D01*
X014932Y012236D01*
X014978Y012224D01*
X015023Y012207D01*
X015067Y012187D01*
X015109Y012164D01*
X015149Y012137D01*
X015187Y012107D01*
X015222Y012074D01*
X015254Y012038D01*
X015284Y012000D01*
X015310Y011959D01*
X015332Y011916D01*
X015352Y011872D01*
X015367Y011827D01*
X015379Y011780D01*
X015387Y011732D01*
X015391Y011684D01*
X015391Y011636D01*
X015387Y011588D01*
X015379Y011540D01*
X015367Y011493D01*
X015352Y011448D01*
X015332Y011404D01*
X015310Y011361D01*
X015284Y011320D01*
X015254Y011282D01*
X015222Y011246D01*
X015187Y011213D01*
X015149Y011183D01*
X015109Y011156D01*
X015067Y011133D01*
X015023Y011113D01*
X014978Y011096D01*
X014932Y011084D01*
X014884Y011075D01*
X014836Y011070D01*
X014788Y011069D01*
X014740Y011072D01*
X014692Y011079D01*
X014645Y011090D01*
X014599Y011104D01*
X014554Y011122D01*
X014511Y011144D01*
X014470Y011169D01*
X014432Y011198D01*
X014395Y011230D01*
X014361Y011264D01*
X014331Y011301D01*
X014303Y011340D01*
X014278Y011382D01*
X014258Y011426D01*
X014240Y011471D01*
X014227Y011517D01*
X014217Y011564D01*
X014211Y011612D01*
X014209Y011660D01*
D14*
X014800Y011660D03*
X001800Y011660D03*
D15*
X005800Y012160D03*
D16*
X006800Y012160D03*
X007800Y012160D03*
X008800Y012160D03*
X009800Y012160D03*
X010800Y012160D03*
D17*
X005800Y004760D03*
X005800Y004460D03*
X005050Y004460D03*
X005050Y004760D03*
M02*
