G75*
G70*
%OFA0B0*%
%FSLAX24Y24*%
%IPPOS*%
%LPD*%
%AMOC8*
5,1,8,0,0,1.08239X$1,22.5*
%
%ADD10C,0.0100*%
%ADD11R,0.0787X0.2362*%
%ADD12R,0.0394X0.2362*%
%ADD13C,0.0000*%
%ADD14R,0.0472X0.0197*%
%ADD15R,0.0709X0.0315*%
%ADD16R,0.0550X0.0550*%
%ADD17C,0.0550*%
%ADD18R,0.0394X0.0591*%
%ADD19R,0.0591X0.0394*%
%ADD20R,0.0138X0.0197*%
%ADD21C,0.0088*%
%ADD22C,0.0120*%
%ADD23C,0.0220*%
%ADD24C,0.0200*%
D10*
X000328Y001364D02*
X000328Y011956D01*
X000330Y012023D01*
X000336Y012090D01*
X000345Y012157D01*
X000358Y012223D01*
X000375Y012288D01*
X000395Y012352D01*
X000419Y012415D01*
X000447Y012477D01*
X000478Y012536D01*
X000512Y012594D01*
X000549Y012650D01*
X000590Y012704D01*
X000633Y012756D01*
X000679Y012805D01*
X000728Y012851D01*
X000780Y012894D01*
X000834Y012935D01*
X000890Y012972D01*
X000948Y013006D01*
X001007Y013037D01*
X001069Y013065D01*
X001132Y013089D01*
X001196Y013109D01*
X001261Y013126D01*
X001327Y013139D01*
X001394Y013148D01*
X001461Y013154D01*
X001528Y013156D01*
X015072Y013156D01*
X015139Y013154D01*
X015206Y013148D01*
X015273Y013139D01*
X015339Y013126D01*
X015404Y013109D01*
X015468Y013089D01*
X015531Y013065D01*
X015593Y013037D01*
X015652Y013006D01*
X015710Y012972D01*
X015766Y012935D01*
X015820Y012894D01*
X015872Y012851D01*
X015921Y012805D01*
X015967Y012756D01*
X016010Y012704D01*
X016051Y012650D01*
X016088Y012594D01*
X016122Y012536D01*
X016153Y012477D01*
X016181Y012415D01*
X016205Y012352D01*
X016225Y012288D01*
X016242Y012223D01*
X016255Y012157D01*
X016264Y012090D01*
X016270Y012023D01*
X016272Y011956D01*
X016272Y001364D01*
X016270Y001297D01*
X016264Y001230D01*
X016255Y001163D01*
X016242Y001097D01*
X016225Y001032D01*
X016205Y000968D01*
X016181Y000905D01*
X016153Y000843D01*
X016122Y000784D01*
X016088Y000726D01*
X016051Y000670D01*
X016010Y000616D01*
X015967Y000564D01*
X015921Y000515D01*
X015872Y000469D01*
X015820Y000426D01*
X015766Y000385D01*
X015710Y000348D01*
X015652Y000314D01*
X015593Y000283D01*
X015531Y000255D01*
X015468Y000231D01*
X015404Y000211D01*
X015339Y000194D01*
X015273Y000181D01*
X015206Y000172D01*
X015139Y000166D01*
X015072Y000164D01*
X001528Y000164D01*
X001461Y000166D01*
X001394Y000172D01*
X001327Y000181D01*
X001261Y000194D01*
X001196Y000211D01*
X001132Y000231D01*
X001069Y000255D01*
X001007Y000283D01*
X000948Y000314D01*
X000890Y000348D01*
X000834Y000385D01*
X000780Y000426D01*
X000728Y000469D01*
X000679Y000515D01*
X000633Y000564D01*
X000590Y000616D01*
X000549Y000670D01*
X000512Y000726D01*
X000478Y000784D01*
X000447Y000843D01*
X000419Y000905D01*
X000395Y000968D01*
X000375Y001032D01*
X000358Y001097D01*
X000345Y001163D01*
X000336Y001230D01*
X000330Y001297D01*
X000328Y001364D01*
D11*
X001300Y001348D03*
X002300Y001348D03*
X003300Y001348D03*
X004300Y001348D03*
X005300Y001348D03*
X006300Y001348D03*
X007300Y001348D03*
X008300Y001348D03*
X009300Y001348D03*
X010300Y001348D03*
X011300Y001348D03*
X012300Y001348D03*
X013300Y001348D03*
X014300Y001348D03*
X015300Y001348D03*
D12*
X016095Y001348D03*
X000505Y001348D03*
D13*
X001209Y011660D02*
X001211Y011708D01*
X001217Y011756D01*
X001227Y011803D01*
X001240Y011849D01*
X001258Y011894D01*
X001278Y011938D01*
X001303Y011980D01*
X001331Y012019D01*
X001361Y012056D01*
X001395Y012090D01*
X001432Y012122D01*
X001470Y012151D01*
X001511Y012176D01*
X001554Y012198D01*
X001599Y012216D01*
X001645Y012230D01*
X001692Y012241D01*
X001740Y012248D01*
X001788Y012251D01*
X001836Y012250D01*
X001884Y012245D01*
X001932Y012236D01*
X001978Y012224D01*
X002023Y012207D01*
X002067Y012187D01*
X002109Y012164D01*
X002149Y012137D01*
X002187Y012107D01*
X002222Y012074D01*
X002254Y012038D01*
X002284Y012000D01*
X002310Y011959D01*
X002332Y011916D01*
X002352Y011872D01*
X002367Y011827D01*
X002379Y011780D01*
X002387Y011732D01*
X002391Y011684D01*
X002391Y011636D01*
X002387Y011588D01*
X002379Y011540D01*
X002367Y011493D01*
X002352Y011448D01*
X002332Y011404D01*
X002310Y011361D01*
X002284Y011320D01*
X002254Y011282D01*
X002222Y011246D01*
X002187Y011213D01*
X002149Y011183D01*
X002109Y011156D01*
X002067Y011133D01*
X002023Y011113D01*
X001978Y011096D01*
X001932Y011084D01*
X001884Y011075D01*
X001836Y011070D01*
X001788Y011069D01*
X001740Y011072D01*
X001692Y011079D01*
X001645Y011090D01*
X001599Y011104D01*
X001554Y011122D01*
X001511Y011144D01*
X001470Y011169D01*
X001432Y011198D01*
X001395Y011230D01*
X001361Y011264D01*
X001331Y011301D01*
X001303Y011340D01*
X001278Y011382D01*
X001258Y011426D01*
X001240Y011471D01*
X001227Y011517D01*
X001217Y011564D01*
X001211Y011612D01*
X001209Y011660D01*
X014209Y011660D02*
X014211Y011708D01*
X014217Y011756D01*
X014227Y011803D01*
X014240Y011849D01*
X014258Y011894D01*
X014278Y011938D01*
X014303Y011980D01*
X014331Y012019D01*
X014361Y012056D01*
X014395Y012090D01*
X014432Y012122D01*
X014470Y012151D01*
X014511Y012176D01*
X014554Y012198D01*
X014599Y012216D01*
X014645Y012230D01*
X014692Y012241D01*
X014740Y012248D01*
X014788Y012251D01*
X014836Y012250D01*
X014884Y012245D01*
X014932Y012236D01*
X014978Y012224D01*
X015023Y012207D01*
X015067Y012187D01*
X015109Y012164D01*
X015149Y012137D01*
X015187Y012107D01*
X015222Y012074D01*
X015254Y012038D01*
X015284Y012000D01*
X015310Y011959D01*
X015332Y011916D01*
X015352Y011872D01*
X015367Y011827D01*
X015379Y011780D01*
X015387Y011732D01*
X015391Y011684D01*
X015391Y011636D01*
X015387Y011588D01*
X015379Y011540D01*
X015367Y011493D01*
X015352Y011448D01*
X015332Y011404D01*
X015310Y011361D01*
X015284Y011320D01*
X015254Y011282D01*
X015222Y011246D01*
X015187Y011213D01*
X015149Y011183D01*
X015109Y011156D01*
X015067Y011133D01*
X015023Y011113D01*
X014978Y011096D01*
X014932Y011084D01*
X014884Y011075D01*
X014836Y011070D01*
X014788Y011069D01*
X014740Y011072D01*
X014692Y011079D01*
X014645Y011090D01*
X014599Y011104D01*
X014554Y011122D01*
X014511Y011144D01*
X014470Y011169D01*
X014432Y011198D01*
X014395Y011230D01*
X014361Y011264D01*
X014331Y011301D01*
X014303Y011340D01*
X014278Y011382D01*
X014258Y011426D01*
X014240Y011471D01*
X014227Y011517D01*
X014217Y011564D01*
X014211Y011612D01*
X014209Y011660D01*
D14*
X014050Y007951D03*
X014050Y007557D03*
X014050Y007163D03*
X014050Y006769D03*
X002550Y006769D03*
X002550Y007163D03*
X002550Y007557D03*
X002550Y007951D03*
D15*
X000975Y008423D03*
X000975Y006297D03*
X015625Y006297D03*
X015625Y008423D03*
D16*
X005800Y012160D03*
D17*
X006800Y012160D03*
X007800Y012160D03*
X008800Y012160D03*
X009800Y012160D03*
X010800Y012160D03*
D18*
X010981Y009329D03*
X010194Y009329D03*
X009406Y009329D03*
X008619Y009329D03*
X007831Y009329D03*
X011769Y009329D03*
X011769Y005391D03*
X010981Y005391D03*
X010194Y005391D03*
X009406Y005391D03*
X008619Y005391D03*
X007831Y005391D03*
D19*
X006847Y006179D03*
X006847Y006966D03*
X006847Y007754D03*
X006847Y008541D03*
D20*
X005184Y007754D03*
X004928Y007754D03*
X004672Y007754D03*
X004416Y007754D03*
X004416Y006966D03*
X004672Y006966D03*
X004928Y006966D03*
X005184Y006966D03*
D21*
X005081Y006041D02*
X004819Y006041D01*
X005081Y006041D02*
X005081Y005779D01*
X004819Y005779D01*
X004819Y006041D01*
X004819Y005866D02*
X005081Y005866D01*
X005081Y005953D02*
X004819Y005953D01*
X004819Y006040D02*
X005081Y006040D01*
X004481Y006041D02*
X004219Y006041D01*
X004481Y006041D02*
X004481Y005779D01*
X004219Y005779D01*
X004219Y006041D01*
X004219Y005866D02*
X004481Y005866D01*
X004481Y005953D02*
X004219Y005953D01*
X004219Y006040D02*
X004481Y006040D01*
X004569Y009041D02*
X004831Y009041D01*
X004831Y008779D01*
X004569Y008779D01*
X004569Y009041D01*
X004569Y008866D02*
X004831Y008866D01*
X004831Y008953D02*
X004569Y008953D01*
X004569Y009040D02*
X004831Y009040D01*
X004231Y009041D02*
X003969Y009041D01*
X004231Y009041D02*
X004231Y008779D01*
X003969Y008779D01*
X003969Y009041D01*
X003969Y008866D02*
X004231Y008866D01*
X004231Y008953D02*
X003969Y008953D01*
X003969Y009040D02*
X004231Y009040D01*
D22*
X004128Y009030D02*
X004072Y009030D01*
X004072Y008938D02*
X004072Y009245D01*
X003942Y009245D01*
X003890Y009231D01*
X003844Y009204D01*
X003806Y009166D01*
X003779Y009120D01*
X003765Y009068D01*
X003765Y008938D01*
X004072Y008938D01*
X004128Y008938D01*
X004128Y009245D01*
X004258Y009245D01*
X004310Y009231D01*
X004356Y009204D01*
X004386Y009175D01*
X004476Y009265D01*
X004659Y009265D01*
X004960Y009566D01*
X005063Y009609D01*
X007455Y009609D01*
X007455Y009698D01*
X007560Y009804D01*
X008103Y009804D01*
X008208Y009698D01*
X008208Y008990D01*
X008242Y008990D01*
X008242Y009698D01*
X008329Y009785D01*
X008234Y009880D01*
X002416Y009880D01*
X002080Y009544D01*
X002080Y007876D01*
X002119Y007837D01*
X002154Y007837D01*
X002154Y007951D01*
X002550Y007951D01*
X002550Y008209D01*
X002293Y008209D01*
X002252Y008198D01*
X002216Y008177D01*
X002186Y008147D01*
X002165Y008111D01*
X002154Y008070D01*
X002154Y007951D01*
X002550Y007951D01*
X002550Y007951D01*
X002550Y008209D01*
X002807Y008209D01*
X002848Y008198D01*
X002884Y008177D01*
X002914Y008147D01*
X002935Y008111D01*
X002946Y008070D01*
X002946Y007951D01*
X002550Y007951D01*
X002550Y007951D01*
X002550Y007951D01*
X002946Y007951D01*
X002946Y007831D01*
X002935Y007790D01*
X002924Y007772D01*
X002966Y007730D01*
X002966Y007403D01*
X003133Y007403D01*
X003136Y007406D01*
X003242Y007450D01*
X003358Y007450D01*
X003464Y007406D01*
X003546Y007324D01*
X003590Y007218D01*
X003590Y007102D01*
X003568Y007050D01*
X003608Y007050D01*
X003714Y007006D01*
X003796Y006924D01*
X003840Y006818D01*
X003840Y006702D01*
X003796Y006596D01*
X003714Y006514D01*
X003608Y006470D01*
X003492Y006470D01*
X003386Y006514D01*
X003370Y006529D01*
X002899Y006529D01*
X002861Y006491D01*
X002239Y006491D01*
X002134Y006596D01*
X002134Y006942D01*
X002158Y006966D01*
X002134Y006990D01*
X002134Y007277D01*
X002113Y007277D01*
X002080Y007244D01*
X002080Y004176D01*
X002166Y004090D01*
X007015Y004090D01*
X007010Y004102D01*
X007010Y004218D01*
X007054Y004324D01*
X007136Y004406D01*
X007242Y004450D01*
X007260Y004450D01*
X007260Y004468D01*
X007304Y004574D01*
X007386Y004656D01*
X007492Y004700D01*
X007501Y004700D01*
X007591Y004791D01*
X007591Y004916D01*
X007560Y004916D01*
X007455Y005022D01*
X007455Y005761D01*
X007560Y005867D01*
X008103Y005867D01*
X008208Y005761D01*
X008208Y005022D01*
X008103Y004916D01*
X008071Y004916D01*
X008071Y004644D01*
X008035Y004556D01*
X007879Y004400D01*
X011201Y004400D01*
X011529Y004728D01*
X011529Y004916D01*
X011497Y004916D01*
X011392Y005022D01*
X011392Y005761D01*
X011497Y005867D01*
X012040Y005867D01*
X012145Y005761D01*
X012145Y005022D01*
X012040Y004916D01*
X012009Y004916D01*
X012009Y004581D01*
X011972Y004493D01*
X011569Y004090D01*
X012934Y004090D01*
X013020Y004176D01*
X013020Y006966D01*
X013063Y007069D01*
X013141Y007147D01*
X013311Y007317D01*
X010367Y007317D01*
X010364Y007314D01*
X010258Y007270D01*
X010142Y007270D01*
X010036Y007314D01*
X009954Y007396D01*
X009910Y007502D01*
X009910Y007618D01*
X009954Y007724D01*
X010036Y007806D01*
X010142Y007850D01*
X010258Y007850D01*
X010364Y007806D01*
X010373Y007797D01*
X010733Y007797D01*
X010710Y007852D01*
X010710Y007920D01*
X007970Y007920D01*
X007964Y007914D01*
X007858Y007870D01*
X007742Y007870D01*
X007636Y007914D01*
X007554Y007996D01*
X007510Y008102D01*
X007510Y008120D01*
X007492Y008120D01*
X007386Y008164D01*
X007304Y008246D01*
X007303Y008250D01*
X007217Y008164D01*
X006477Y008164D01*
X006372Y008270D01*
X006372Y008301D01*
X005281Y008301D01*
X005168Y008189D01*
X005168Y008032D01*
X005327Y008032D01*
X005366Y007994D01*
X006372Y007994D01*
X006372Y008025D01*
X006477Y008131D01*
X007217Y008131D01*
X007323Y008025D01*
X007323Y007482D01*
X007217Y007377D01*
X006477Y007377D01*
X006372Y007482D01*
X006372Y007514D01*
X005366Y007514D01*
X005327Y007475D01*
X004912Y007475D01*
X004912Y007434D01*
X004876Y007346D01*
X004754Y007225D01*
X004762Y007225D01*
X004764Y007224D01*
X004784Y007245D01*
X005071Y007245D01*
X005092Y007224D01*
X005094Y007225D01*
X005184Y007225D01*
X005184Y006966D01*
X005184Y006708D01*
X005274Y006708D01*
X005315Y006719D01*
X005351Y006740D01*
X005381Y006770D01*
X005402Y006806D01*
X005413Y006847D01*
X005413Y006966D01*
X005184Y006966D01*
X005184Y006966D01*
X005184Y006966D01*
X005184Y006708D01*
X005168Y006708D01*
X005168Y006265D01*
X005174Y006265D01*
X005305Y006134D01*
X005305Y005686D01*
X005174Y005555D01*
X004726Y005555D01*
X004636Y005645D01*
X004606Y005616D01*
X004560Y005589D01*
X004508Y005575D01*
X004378Y005575D01*
X004378Y005882D01*
X004322Y005882D01*
X004322Y005575D01*
X004192Y005575D01*
X004140Y005589D01*
X004094Y005616D01*
X004056Y005654D01*
X004029Y005700D01*
X004015Y005752D01*
X004015Y005882D01*
X004322Y005882D01*
X004322Y005938D01*
X004322Y006245D01*
X004192Y006245D01*
X004140Y006231D01*
X004094Y006204D01*
X004056Y006166D01*
X004029Y006120D01*
X004015Y006068D01*
X004015Y005938D01*
X004322Y005938D01*
X004378Y005938D01*
X004378Y006245D01*
X004508Y006245D01*
X004560Y006231D01*
X004606Y006204D01*
X004636Y006175D01*
X004688Y006227D01*
X004688Y006370D01*
X004502Y006370D01*
X004414Y006407D01*
X004347Y006474D01*
X004213Y006608D01*
X004176Y006696D01*
X004176Y006784D01*
X004167Y006793D01*
X004167Y007139D01*
X004176Y007148D01*
X004176Y007274D01*
X004213Y007362D01*
X004280Y007430D01*
X004280Y007430D01*
X004346Y007495D01*
X004326Y007495D01*
X004285Y007506D01*
X004249Y007527D01*
X004219Y007557D01*
X004198Y007594D01*
X004187Y007634D01*
X004187Y007754D01*
X004416Y007754D01*
X004416Y008012D01*
X004326Y008012D01*
X004285Y008001D01*
X004249Y007980D01*
X004219Y007950D01*
X004198Y007914D01*
X004187Y007873D01*
X004187Y007754D01*
X004416Y007754D01*
X004416Y007754D01*
X004416Y007754D01*
X004416Y008012D01*
X004432Y008012D01*
X004432Y008599D01*
X004386Y008645D01*
X004356Y008616D01*
X004310Y008589D01*
X004258Y008575D01*
X004128Y008575D01*
X004128Y008882D01*
X004072Y008882D01*
X004072Y008575D01*
X003942Y008575D01*
X003890Y008589D01*
X003844Y008616D01*
X003806Y008654D01*
X003779Y008700D01*
X003765Y008752D01*
X003765Y008882D01*
X004072Y008882D01*
X004072Y008938D01*
X004072Y008912D02*
X002080Y008912D01*
X002080Y009030D02*
X003765Y009030D01*
X003795Y009149D02*
X002080Y009149D01*
X002080Y009267D02*
X004661Y009267D01*
X004780Y009386D02*
X002080Y009386D01*
X002080Y009504D02*
X004898Y009504D01*
X004700Y008910D02*
X004672Y008882D01*
X004672Y007754D01*
X004672Y007482D01*
X004416Y007226D01*
X004416Y006966D01*
X004416Y006744D01*
X004550Y006610D01*
X004800Y006610D01*
X004900Y006510D01*
X004928Y006610D02*
X004928Y005932D01*
X004647Y006186D02*
X004625Y006186D01*
X004688Y006304D02*
X002080Y006304D01*
X002080Y006186D02*
X004075Y006186D01*
X004015Y006067D02*
X002080Y006067D01*
X002080Y005949D02*
X004015Y005949D01*
X004015Y005830D02*
X002080Y005830D01*
X002080Y005712D02*
X004026Y005712D01*
X004132Y005593D02*
X002080Y005593D01*
X002080Y005475D02*
X007455Y005475D01*
X007455Y005593D02*
X005212Y005593D01*
X005305Y005712D02*
X007455Y005712D01*
X007524Y005830D02*
X007246Y005830D01*
X007217Y005802D02*
X007323Y005907D01*
X007323Y005939D01*
X008111Y005939D01*
X008136Y005914D01*
X008242Y005870D01*
X008358Y005870D01*
X008464Y005914D01*
X008546Y005996D01*
X008590Y006102D01*
X008590Y006218D01*
X008546Y006324D01*
X008464Y006406D01*
X008358Y006450D01*
X008242Y006450D01*
X008167Y006419D01*
X007323Y006419D01*
X007323Y006450D01*
X007217Y006556D01*
X006477Y006556D01*
X006372Y006450D01*
X006372Y005907D01*
X006477Y005802D01*
X007217Y005802D01*
X007455Y005356D02*
X002080Y005356D01*
X002080Y005238D02*
X007455Y005238D01*
X007455Y005119D02*
X002080Y005119D01*
X002080Y005001D02*
X007475Y005001D01*
X007591Y004882D02*
X002080Y004882D01*
X002080Y004764D02*
X007565Y004764D01*
X007375Y004645D02*
X002080Y004645D01*
X002080Y004527D02*
X007285Y004527D01*
X007142Y004408D02*
X002080Y004408D01*
X002080Y004290D02*
X007040Y004290D01*
X007010Y004171D02*
X002084Y004171D01*
X001520Y004171D02*
X000558Y004171D01*
X000558Y004053D02*
X001520Y004053D01*
X001520Y003934D02*
X000558Y003934D01*
X000558Y003816D02*
X001410Y003816D01*
X001520Y003926D02*
X001063Y003469D01*
X001020Y003366D01*
X001020Y002742D01*
X001010Y002718D01*
X001010Y002709D01*
X000832Y002709D01*
X000804Y002681D01*
X000776Y002709D01*
X000558Y002709D01*
X000558Y005991D01*
X000559Y005990D01*
X000600Y005980D01*
X000956Y005980D01*
X000956Y006278D01*
X000994Y006278D01*
X000994Y005980D01*
X001351Y005980D01*
X001391Y005990D01*
X001428Y006011D01*
X001458Y006041D01*
X001479Y006078D01*
X001490Y006118D01*
X001490Y006278D01*
X000994Y006278D01*
X000994Y006316D01*
X000956Y006316D01*
X000956Y006614D01*
X000600Y006614D01*
X000559Y006604D01*
X000558Y006603D01*
X000558Y008117D01*
X000559Y008116D01*
X000600Y008106D01*
X000956Y008106D01*
X000956Y008404D01*
X000994Y008404D01*
X000994Y008106D01*
X001351Y008106D01*
X001391Y008116D01*
X001428Y008137D01*
X001458Y008167D01*
X001479Y008204D01*
X001490Y008244D01*
X001490Y008404D01*
X000994Y008404D01*
X000994Y008442D01*
X000956Y008442D01*
X000956Y008740D01*
X000600Y008740D01*
X000559Y008730D01*
X000558Y008729D01*
X000558Y011956D01*
X000566Y012083D01*
X000631Y012327D01*
X000758Y012547D01*
X000937Y012726D01*
X001156Y012852D01*
X001401Y012918D01*
X001528Y012926D01*
X015072Y012926D01*
X015199Y012918D01*
X015444Y012852D01*
X015663Y012726D01*
X015842Y012547D01*
X015969Y012327D01*
X016034Y012083D01*
X016042Y011956D01*
X016042Y008729D01*
X016041Y008730D01*
X016000Y008740D01*
X015644Y008740D01*
X015644Y008442D01*
X015606Y008442D01*
X015606Y008740D01*
X015249Y008740D01*
X015209Y008730D01*
X015172Y008709D01*
X015142Y008679D01*
X015121Y008642D01*
X015110Y008602D01*
X015110Y008442D01*
X015606Y008442D01*
X015606Y008404D01*
X015644Y008404D01*
X015644Y008106D01*
X016000Y008106D01*
X016041Y008116D01*
X016042Y008117D01*
X016042Y006603D01*
X016041Y006604D01*
X016000Y006614D01*
X015644Y006614D01*
X015644Y006316D01*
X015606Y006316D01*
X015606Y006614D01*
X015249Y006614D01*
X015209Y006604D01*
X015172Y006583D01*
X015142Y006553D01*
X015121Y006516D01*
X015110Y006476D01*
X015110Y006316D01*
X015606Y006316D01*
X015606Y006278D01*
X015644Y006278D01*
X015644Y005980D01*
X016000Y005980D01*
X016041Y005990D01*
X016042Y005991D01*
X016042Y002709D01*
X015824Y002709D01*
X015796Y002681D01*
X015768Y002709D01*
X015590Y002709D01*
X015590Y002718D01*
X015580Y002742D01*
X015580Y003316D01*
X015537Y003419D01*
X014987Y003969D01*
X014909Y004047D01*
X014806Y004090D01*
X013666Y004090D01*
X013580Y004176D01*
X013580Y006794D01*
X013654Y006868D01*
X013654Y006769D01*
X013654Y006650D01*
X013665Y006609D01*
X013686Y006573D01*
X013716Y006543D01*
X013752Y006522D01*
X013793Y006511D01*
X014050Y006511D01*
X014307Y006511D01*
X014348Y006522D01*
X014384Y006543D01*
X014414Y006573D01*
X014435Y006609D01*
X014446Y006650D01*
X014446Y006769D01*
X014050Y006769D01*
X014050Y006511D01*
X014050Y006769D01*
X014050Y006769D01*
X014050Y006769D01*
X013654Y006769D01*
X014050Y006769D01*
X014050Y006769D01*
X014446Y006769D01*
X014446Y006889D01*
X014435Y006930D01*
X014424Y006948D01*
X014466Y006990D01*
X014466Y007336D01*
X014442Y007360D01*
X014466Y007384D01*
X014466Y007730D01*
X014442Y007754D01*
X014466Y007778D01*
X014466Y008124D01*
X014361Y008229D01*
X013739Y008229D01*
X013701Y008191D01*
X011670Y008191D01*
X011972Y008493D01*
X012009Y008581D01*
X012009Y008853D01*
X012040Y008853D01*
X012145Y008959D01*
X012145Y009698D01*
X012040Y009804D01*
X012009Y009804D01*
X012009Y012239D01*
X011972Y012327D01*
X011503Y012796D01*
X011436Y012863D01*
X011348Y012900D01*
X010252Y012900D01*
X010164Y012863D01*
X009908Y012608D01*
X009891Y012615D01*
X009709Y012615D01*
X009542Y012546D01*
X009414Y012418D01*
X009345Y012251D01*
X009345Y012069D01*
X009414Y011902D01*
X009542Y011774D01*
X009709Y011705D01*
X009891Y011705D01*
X010058Y011774D01*
X010186Y011902D01*
X010255Y012069D01*
X010255Y012251D01*
X010248Y012268D01*
X010399Y012420D01*
X010417Y012420D01*
X010414Y012418D01*
X010345Y012251D01*
X010345Y012069D01*
X010414Y011902D01*
X010542Y011774D01*
X010709Y011705D01*
X010741Y011705D01*
X010741Y009804D01*
X010710Y009804D01*
X010604Y009698D01*
X010604Y008959D01*
X010710Y008853D01*
X010741Y008853D01*
X010741Y008841D01*
X010551Y008650D01*
X009586Y008650D01*
X009644Y008708D01*
X009686Y008811D01*
X009686Y008862D01*
X009783Y008959D01*
X009783Y009698D01*
X009678Y009804D01*
X009135Y009804D01*
X009029Y009698D01*
X009029Y008990D01*
X008996Y008990D01*
X008996Y009698D01*
X008899Y009795D01*
X008899Y009947D01*
X008856Y010050D01*
X008587Y010319D01*
X008509Y010397D01*
X008406Y010440D01*
X007116Y010440D01*
X007080Y010476D01*
X007080Y011797D01*
X007186Y011902D01*
X007255Y012069D01*
X007255Y012251D01*
X007186Y012418D01*
X007058Y012546D01*
X006891Y012615D01*
X006709Y012615D01*
X006542Y012546D01*
X006414Y012418D01*
X006345Y012251D01*
X006345Y012069D01*
X006414Y011902D01*
X006520Y011797D01*
X006520Y010476D01*
X006484Y010440D01*
X002244Y010440D01*
X002141Y010397D01*
X001641Y009897D01*
X001563Y009819D01*
X001520Y009716D01*
X001520Y003926D01*
X001292Y003697D02*
X000558Y003697D01*
X000558Y003579D02*
X001173Y003579D01*
X001059Y003460D02*
X000558Y003460D01*
X000558Y003342D02*
X001020Y003342D01*
X001020Y003223D02*
X000558Y003223D01*
X000558Y003105D02*
X001020Y003105D01*
X001020Y002986D02*
X000558Y002986D01*
X000558Y002868D02*
X001020Y002868D01*
X001020Y002749D02*
X000558Y002749D01*
X001580Y002749D02*
X003023Y002749D01*
X003010Y002718D02*
X003010Y002709D01*
X002832Y002709D01*
X002784Y002662D01*
X002755Y002678D01*
X002715Y002689D01*
X002360Y002689D01*
X002360Y001408D01*
X002240Y001408D01*
X002240Y002689D01*
X001885Y002689D01*
X001845Y002678D01*
X001816Y002662D01*
X001768Y002709D01*
X001590Y002709D01*
X001590Y002718D01*
X001580Y002742D01*
X001580Y003194D01*
X001916Y003530D01*
X002106Y003530D01*
X003581Y003530D01*
X003164Y003113D01*
X003097Y003046D01*
X003060Y002958D01*
X003060Y002830D01*
X003054Y002824D01*
X003010Y002718D01*
X003060Y002868D02*
X001580Y002868D01*
X001580Y002986D02*
X003072Y002986D01*
X003156Y003105D02*
X001580Y003105D01*
X001609Y003223D02*
X003274Y003223D01*
X003393Y003342D02*
X001728Y003342D01*
X001846Y003460D02*
X003511Y003460D01*
X003800Y003410D02*
X003300Y002910D01*
X003300Y002660D01*
X003300Y001348D01*
X002360Y001446D02*
X002240Y001446D01*
X002240Y001564D02*
X002360Y001564D01*
X002360Y001683D02*
X002240Y001683D01*
X002240Y001801D02*
X002360Y001801D01*
X002360Y001920D02*
X002240Y001920D01*
X002240Y002038D02*
X002360Y002038D01*
X002360Y002157D02*
X002240Y002157D01*
X002240Y002275D02*
X002360Y002275D01*
X002360Y002394D02*
X002240Y002394D01*
X002240Y002512D02*
X002360Y002512D01*
X002360Y002631D02*
X002240Y002631D01*
X003800Y003410D02*
X010200Y003410D01*
X012805Y003410D01*
X013300Y002915D01*
X013300Y002660D01*
X013300Y001348D01*
X014240Y001408D02*
X014240Y002689D01*
X013885Y002689D01*
X013845Y002678D01*
X013816Y002662D01*
X013768Y002709D01*
X013590Y002709D01*
X013590Y002718D01*
X013546Y002824D01*
X013540Y002830D01*
X013540Y002963D01*
X013503Y003051D01*
X013024Y003530D01*
X013606Y003530D01*
X014634Y003530D01*
X015020Y003144D01*
X015020Y002742D01*
X015010Y002718D01*
X015010Y002709D01*
X014832Y002709D01*
X014784Y002662D01*
X014755Y002678D01*
X014715Y002689D01*
X014360Y002689D01*
X014360Y001408D01*
X014240Y001408D01*
X014240Y001446D02*
X014360Y001446D01*
X014360Y001564D02*
X014240Y001564D01*
X014240Y001683D02*
X014360Y001683D01*
X014360Y001801D02*
X014240Y001801D01*
X014240Y001920D02*
X014360Y001920D01*
X014360Y002038D02*
X014240Y002038D01*
X014240Y002157D02*
X014360Y002157D01*
X014360Y002275D02*
X014240Y002275D01*
X014240Y002394D02*
X014360Y002394D01*
X014360Y002512D02*
X014240Y002512D01*
X014240Y002631D02*
X014360Y002631D01*
X015020Y002749D02*
X013577Y002749D01*
X013540Y002868D02*
X015020Y002868D01*
X015020Y002986D02*
X013530Y002986D01*
X013449Y003105D02*
X015020Y003105D01*
X014941Y003223D02*
X013331Y003223D01*
X013212Y003342D02*
X014822Y003342D01*
X014704Y003460D02*
X013094Y003460D01*
X013016Y004171D02*
X011651Y004171D01*
X011769Y004290D02*
X013020Y004290D01*
X013020Y004408D02*
X011888Y004408D01*
X011986Y004527D02*
X013020Y004527D01*
X013020Y004645D02*
X012009Y004645D01*
X012009Y004764D02*
X013020Y004764D01*
X013020Y004882D02*
X012009Y004882D01*
X012125Y005001D02*
X013020Y005001D01*
X013020Y005119D02*
X012145Y005119D01*
X012145Y005238D02*
X013020Y005238D01*
X013020Y005356D02*
X012145Y005356D01*
X012145Y005475D02*
X013020Y005475D01*
X013020Y005593D02*
X012145Y005593D01*
X012145Y005712D02*
X013020Y005712D01*
X013020Y005830D02*
X012076Y005830D01*
X011769Y005391D02*
X011769Y004629D01*
X011300Y004160D01*
X007300Y004160D01*
X007550Y004410D02*
X007831Y004691D01*
X007831Y005391D01*
X008208Y005356D02*
X008242Y005356D01*
X008242Y005238D02*
X008208Y005238D01*
X008208Y005119D02*
X008242Y005119D01*
X008242Y005022D02*
X008347Y004916D01*
X008890Y004916D01*
X008996Y005022D01*
X008996Y005761D01*
X008890Y005867D01*
X008347Y005867D01*
X008242Y005761D01*
X008242Y005022D01*
X008263Y005001D02*
X008188Y005001D01*
X008071Y004882D02*
X009910Y004882D01*
X009910Y004852D02*
X009954Y004746D01*
X010036Y004664D01*
X010142Y004620D01*
X010258Y004620D01*
X010364Y004664D01*
X010446Y004746D01*
X010490Y004852D01*
X010490Y004941D01*
X010571Y005022D01*
X010571Y005761D01*
X010465Y005867D01*
X009922Y005867D01*
X009817Y005761D01*
X009817Y005022D01*
X009910Y004929D01*
X009910Y004852D01*
X009947Y004764D02*
X008071Y004764D01*
X008071Y004645D02*
X010081Y004645D01*
X010319Y004645D02*
X010881Y004645D01*
X010836Y004664D02*
X010942Y004620D01*
X011058Y004620D01*
X011164Y004664D01*
X011246Y004746D01*
X011290Y004852D01*
X011290Y004954D01*
X011358Y005022D01*
X011358Y005761D01*
X011253Y005867D01*
X010710Y005867D01*
X010604Y005761D01*
X010604Y005022D01*
X010710Y004916D01*
X010710Y004852D01*
X010754Y004746D01*
X010836Y004664D01*
X010747Y004764D02*
X010453Y004764D01*
X010490Y004882D02*
X010710Y004882D01*
X010710Y004916D02*
X010710Y004916D01*
X010625Y005001D02*
X010550Y005001D01*
X010571Y005119D02*
X010604Y005119D01*
X010604Y005238D02*
X010571Y005238D01*
X010571Y005356D02*
X010604Y005356D01*
X010604Y005475D02*
X010571Y005475D01*
X010571Y005593D02*
X010604Y005593D01*
X010604Y005712D02*
X010571Y005712D01*
X010501Y005830D02*
X010673Y005830D01*
X010981Y005391D02*
X010981Y004929D01*
X011000Y004910D01*
X011119Y004645D02*
X011446Y004645D01*
X011529Y004764D02*
X011253Y004764D01*
X011290Y004882D02*
X011529Y004882D01*
X011412Y005001D02*
X011337Y005001D01*
X011358Y005119D02*
X011392Y005119D01*
X011392Y005238D02*
X011358Y005238D01*
X011358Y005356D02*
X011392Y005356D01*
X011392Y005475D02*
X011358Y005475D01*
X011358Y005593D02*
X011392Y005593D01*
X011392Y005712D02*
X011358Y005712D01*
X011289Y005830D02*
X011461Y005830D01*
X010194Y005391D02*
X010194Y004916D01*
X010200Y004910D01*
X009838Y005001D02*
X009762Y005001D01*
X009783Y005022D02*
X009783Y005761D01*
X009678Y005867D01*
X009135Y005867D01*
X009029Y005761D01*
X009029Y005022D01*
X009135Y004916D01*
X009678Y004916D01*
X009783Y005022D01*
X009783Y005119D02*
X009817Y005119D01*
X009817Y005238D02*
X009783Y005238D01*
X009783Y005356D02*
X009817Y005356D01*
X009817Y005475D02*
X009783Y005475D01*
X009783Y005593D02*
X009817Y005593D01*
X009817Y005712D02*
X009783Y005712D01*
X009714Y005830D02*
X009886Y005830D01*
X009099Y005830D02*
X008927Y005830D01*
X008996Y005712D02*
X009029Y005712D01*
X009029Y005593D02*
X008996Y005593D01*
X008996Y005475D02*
X009029Y005475D01*
X009029Y005356D02*
X008996Y005356D01*
X008996Y005238D02*
X009029Y005238D01*
X009029Y005119D02*
X008996Y005119D01*
X008975Y005001D02*
X009050Y005001D01*
X008242Y005475D02*
X008208Y005475D01*
X008208Y005593D02*
X008242Y005593D01*
X008242Y005712D02*
X008208Y005712D01*
X008139Y005830D02*
X008311Y005830D01*
X008499Y005949D02*
X013020Y005949D01*
X013020Y006067D02*
X008576Y006067D01*
X008590Y006186D02*
X013020Y006186D01*
X013020Y006304D02*
X008554Y006304D01*
X008423Y006423D02*
X013020Y006423D01*
X013020Y006541D02*
X007231Y006541D01*
X007217Y006589D02*
X007323Y006695D01*
X007323Y006726D01*
X007874Y006726D01*
X007886Y006714D01*
X007992Y006670D01*
X008108Y006670D01*
X008214Y006714D01*
X008296Y006796D01*
X008340Y006902D01*
X008340Y007018D01*
X008296Y007124D01*
X008214Y007206D01*
X008108Y007250D01*
X007992Y007250D01*
X007887Y007206D01*
X007323Y007206D01*
X007323Y007238D01*
X007217Y007343D01*
X006477Y007343D01*
X006372Y007238D01*
X006372Y006695D01*
X006477Y006589D01*
X007217Y006589D01*
X007288Y006660D02*
X013020Y006660D01*
X013020Y006779D02*
X008279Y006779D01*
X008338Y006897D02*
X013020Y006897D01*
X013041Y007016D02*
X008340Y007016D01*
X008286Y007134D02*
X013128Y007134D01*
X013247Y007253D02*
X007308Y007253D01*
X007323Y007490D02*
X009915Y007490D01*
X009910Y007608D02*
X007323Y007608D01*
X007323Y007727D02*
X009956Y007727D01*
X010130Y007845D02*
X007323Y007845D01*
X007323Y007964D02*
X007586Y007964D01*
X007518Y008082D02*
X007266Y008082D01*
X007253Y008201D02*
X007349Y008201D01*
X007550Y008410D02*
X010650Y008410D01*
X010981Y008741D01*
X010981Y009329D01*
X010981Y011979D01*
X010800Y012160D01*
X010377Y011993D02*
X010223Y011993D01*
X010255Y012111D02*
X010345Y012111D01*
X010345Y012230D02*
X010255Y012230D01*
X010327Y012348D02*
X010385Y012348D01*
X010300Y012660D02*
X009800Y012160D01*
X009385Y012348D02*
X009215Y012348D01*
X009186Y012418D02*
X009058Y012546D01*
X008891Y012615D01*
X008709Y012615D01*
X008542Y012546D01*
X008414Y012418D01*
X008345Y012251D01*
X008345Y012069D01*
X008414Y011902D01*
X008542Y011774D01*
X008709Y011705D01*
X008891Y011705D01*
X009058Y011774D01*
X009186Y011902D01*
X009255Y012069D01*
X009255Y012251D01*
X009186Y012418D01*
X009137Y012467D02*
X009463Y012467D01*
X009637Y012585D02*
X008963Y012585D01*
X008637Y012585D02*
X007963Y012585D01*
X007891Y012615D02*
X008058Y012546D01*
X008186Y012418D01*
X008255Y012251D01*
X008255Y012069D01*
X008186Y011902D01*
X008058Y011774D01*
X007891Y011705D01*
X007709Y011705D01*
X007542Y011774D01*
X007414Y011902D01*
X007345Y012069D01*
X007345Y012251D01*
X007414Y012418D01*
X007542Y012546D01*
X007709Y012615D01*
X007891Y012615D01*
X007637Y012585D02*
X006963Y012585D01*
X007137Y012467D02*
X007463Y012467D01*
X007385Y012348D02*
X007215Y012348D01*
X007255Y012230D02*
X007345Y012230D01*
X007345Y012111D02*
X007255Y012111D01*
X007223Y011993D02*
X007377Y011993D01*
X007443Y011874D02*
X007157Y011874D01*
X007080Y011756D02*
X007588Y011756D01*
X008012Y011756D02*
X008588Y011756D01*
X008443Y011874D02*
X008157Y011874D01*
X008223Y011993D02*
X008377Y011993D01*
X008345Y012111D02*
X008255Y012111D01*
X008255Y012230D02*
X008345Y012230D01*
X008385Y012348D02*
X008215Y012348D01*
X008137Y012467D02*
X008463Y012467D01*
X009255Y012230D02*
X009345Y012230D01*
X009345Y012111D02*
X009255Y012111D01*
X009223Y011993D02*
X009377Y011993D01*
X009443Y011874D02*
X009157Y011874D01*
X009012Y011756D02*
X009588Y011756D01*
X010012Y011756D02*
X010588Y011756D01*
X010443Y011874D02*
X010157Y011874D01*
X010741Y011637D02*
X007080Y011637D01*
X007080Y011519D02*
X010741Y011519D01*
X010741Y011400D02*
X007080Y011400D01*
X007080Y011282D02*
X010741Y011282D01*
X010741Y011163D02*
X007080Y011163D01*
X007080Y011045D02*
X010741Y011045D01*
X010741Y010926D02*
X007080Y010926D01*
X007080Y010808D02*
X010741Y010808D01*
X010741Y010689D02*
X007080Y010689D01*
X007080Y010571D02*
X010741Y010571D01*
X010741Y010452D02*
X007104Y010452D01*
X006520Y010571D02*
X000558Y010571D01*
X000558Y010689D02*
X006520Y010689D01*
X006520Y010808D02*
X000558Y010808D01*
X000558Y010926D02*
X001558Y010926D01*
X001647Y010889D02*
X001953Y010889D01*
X002236Y011007D01*
X002453Y011224D01*
X002571Y011507D01*
X002571Y011813D01*
X002453Y012096D01*
X002236Y012313D01*
X001953Y012431D01*
X001647Y012431D01*
X001364Y012313D01*
X001147Y012096D01*
X001029Y011813D01*
X001029Y011507D01*
X001147Y011224D01*
X001364Y011007D01*
X001647Y010889D01*
X001326Y011045D02*
X000558Y011045D01*
X000558Y011163D02*
X001207Y011163D01*
X001123Y011282D02*
X000558Y011282D01*
X000558Y011400D02*
X001074Y011400D01*
X001029Y011519D02*
X000558Y011519D01*
X000558Y011637D02*
X001029Y011637D01*
X001029Y011756D02*
X000558Y011756D01*
X000558Y011874D02*
X001055Y011874D01*
X001104Y011993D02*
X000560Y011993D01*
X000573Y012111D02*
X001161Y012111D01*
X001280Y012230D02*
X000605Y012230D01*
X000643Y012348D02*
X001447Y012348D01*
X001104Y012822D02*
X010123Y012822D01*
X010004Y012704D02*
X000915Y012704D01*
X000796Y012585D02*
X005467Y012585D01*
X005463Y012584D02*
X005427Y012563D01*
X005397Y012533D01*
X005376Y012497D01*
X005365Y012456D01*
X005365Y012188D01*
X005772Y012188D01*
X005772Y012595D01*
X005504Y012595D01*
X005463Y012584D01*
X005368Y012467D02*
X000712Y012467D01*
X002153Y012348D02*
X005365Y012348D01*
X005365Y012230D02*
X002320Y012230D01*
X002439Y012111D02*
X005365Y012111D01*
X005365Y012132D02*
X005365Y011864D01*
X005376Y011823D01*
X005397Y011787D01*
X005427Y011757D01*
X005463Y011736D01*
X005504Y011725D01*
X005772Y011725D01*
X005772Y012132D01*
X005828Y012132D01*
X005828Y012188D01*
X005772Y012188D01*
X005772Y012132D01*
X005365Y012132D01*
X005365Y011993D02*
X002496Y011993D01*
X002545Y011874D02*
X005365Y011874D01*
X005429Y011756D02*
X002571Y011756D01*
X002571Y011637D02*
X006520Y011637D01*
X006520Y011519D02*
X002571Y011519D01*
X002526Y011400D02*
X006520Y011400D01*
X006520Y011282D02*
X002477Y011282D01*
X002393Y011163D02*
X006520Y011163D01*
X006520Y011045D02*
X002274Y011045D01*
X002042Y010926D02*
X006520Y010926D01*
X006496Y010452D02*
X000558Y010452D01*
X000558Y010334D02*
X002078Y010334D01*
X001959Y010215D02*
X000558Y010215D01*
X000558Y010097D02*
X001841Y010097D01*
X001722Y009978D02*
X000558Y009978D01*
X000558Y009860D02*
X001604Y009860D01*
X001530Y009741D02*
X000558Y009741D01*
X000558Y009623D02*
X001520Y009623D01*
X001520Y009504D02*
X000558Y009504D01*
X000558Y009386D02*
X001520Y009386D01*
X001520Y009267D02*
X000558Y009267D01*
X000558Y009149D02*
X001520Y009149D01*
X001520Y009030D02*
X000558Y009030D01*
X000558Y008912D02*
X001520Y008912D01*
X001520Y008793D02*
X000558Y008793D01*
X000956Y008675D02*
X000994Y008675D01*
X000994Y008740D02*
X000994Y008442D01*
X001490Y008442D01*
X001490Y008602D01*
X001479Y008642D01*
X001458Y008679D01*
X001428Y008709D01*
X001391Y008730D01*
X001351Y008740D01*
X000994Y008740D01*
X000994Y008556D02*
X000956Y008556D01*
X000994Y008438D02*
X001520Y008438D01*
X001520Y008556D02*
X001490Y008556D01*
X001460Y008675D02*
X001520Y008675D01*
X001520Y008319D02*
X001490Y008319D01*
X001477Y008201D02*
X001520Y008201D01*
X001520Y008082D02*
X000558Y008082D01*
X000558Y007964D02*
X001520Y007964D01*
X001520Y007845D02*
X000558Y007845D01*
X000558Y007727D02*
X001520Y007727D01*
X001520Y007608D02*
X000558Y007608D01*
X000558Y007490D02*
X001520Y007490D01*
X001520Y007371D02*
X000558Y007371D01*
X000558Y007253D02*
X001520Y007253D01*
X001520Y007134D02*
X000558Y007134D01*
X000558Y007016D02*
X001520Y007016D01*
X001520Y006897D02*
X000558Y006897D01*
X000558Y006779D02*
X001520Y006779D01*
X001520Y006660D02*
X000558Y006660D01*
X000956Y006541D02*
X000994Y006541D01*
X000994Y006614D02*
X000994Y006316D01*
X001490Y006316D01*
X001490Y006476D01*
X001479Y006516D01*
X001458Y006553D01*
X001428Y006583D01*
X001391Y006604D01*
X001351Y006614D01*
X000994Y006614D01*
X000994Y006423D02*
X000956Y006423D01*
X000994Y006304D02*
X001520Y006304D01*
X001520Y006186D02*
X001490Y006186D01*
X001473Y006067D02*
X001520Y006067D01*
X001520Y005949D02*
X000558Y005949D01*
X000558Y005830D02*
X001520Y005830D01*
X001520Y005712D02*
X000558Y005712D01*
X000558Y005593D02*
X001520Y005593D01*
X001520Y005475D02*
X000558Y005475D01*
X000558Y005356D02*
X001520Y005356D01*
X001520Y005238D02*
X000558Y005238D01*
X000558Y005119D02*
X001520Y005119D01*
X001520Y005001D02*
X000558Y005001D01*
X000558Y004882D02*
X001520Y004882D01*
X001520Y004764D02*
X000558Y004764D01*
X000558Y004645D02*
X001520Y004645D01*
X001520Y004527D02*
X000558Y004527D01*
X000558Y004408D02*
X001520Y004408D01*
X001520Y004290D02*
X000558Y004290D01*
X000956Y006067D02*
X000994Y006067D01*
X000994Y006186D02*
X000956Y006186D01*
X001464Y006541D02*
X001520Y006541D01*
X001520Y006423D02*
X001490Y006423D01*
X002080Y006423D02*
X004398Y006423D01*
X004279Y006541D02*
X003742Y006541D01*
X003822Y006660D02*
X004191Y006660D01*
X004176Y006779D02*
X003840Y006779D01*
X003807Y006897D02*
X004167Y006897D01*
X004167Y007016D02*
X003691Y007016D01*
X003590Y007134D02*
X004167Y007134D01*
X004176Y007253D02*
X003576Y007253D01*
X003499Y007371D02*
X004222Y007371D01*
X004340Y007490D02*
X002966Y007490D01*
X002966Y007608D02*
X004194Y007608D01*
X004187Y007727D02*
X002966Y007727D01*
X002946Y007845D02*
X004187Y007845D01*
X004232Y007964D02*
X002946Y007964D01*
X002943Y008082D02*
X004432Y008082D01*
X004432Y008201D02*
X002839Y008201D01*
X002550Y008201D02*
X002550Y008201D01*
X002550Y008082D02*
X002550Y008082D01*
X002550Y007964D02*
X002550Y007964D01*
X002261Y008201D02*
X002080Y008201D01*
X002080Y008319D02*
X004432Y008319D01*
X004432Y008438D02*
X002080Y008438D01*
X002080Y008556D02*
X004432Y008556D01*
X004128Y008675D02*
X004072Y008675D01*
X004072Y008793D02*
X004128Y008793D01*
X003794Y008675D02*
X002080Y008675D01*
X002080Y008793D02*
X003765Y008793D01*
X004072Y009149D02*
X004128Y009149D01*
X004928Y008288D02*
X004928Y007754D01*
X005184Y007754D02*
X006847Y007754D01*
X006429Y008082D02*
X005168Y008082D01*
X005180Y008201D02*
X006441Y008201D01*
X006847Y008541D02*
X005181Y008541D01*
X004928Y008288D01*
X004416Y007964D02*
X004416Y007964D01*
X004416Y007845D02*
X004416Y007845D01*
X004416Y007754D02*
X004423Y007754D01*
X004423Y007754D01*
X004416Y007754D01*
X004416Y007754D01*
X004416Y007566D01*
X004416Y007566D01*
X004416Y007754D01*
X004416Y007754D01*
X004416Y007727D02*
X004416Y007727D01*
X004416Y007608D02*
X004416Y007608D01*
X004672Y007182D02*
X004900Y007410D01*
X005050Y007410D01*
X004886Y007371D02*
X009979Y007371D01*
X010200Y007560D02*
X010203Y007557D01*
X014050Y007557D01*
X014050Y007951D02*
X011041Y007951D01*
X011000Y007910D01*
X010713Y007845D02*
X010270Y007845D01*
X010575Y008675D02*
X009610Y008675D01*
X009679Y008793D02*
X010694Y008793D01*
X010651Y008912D02*
X010495Y008912D01*
X010489Y008905D02*
X010519Y008935D01*
X010540Y008971D01*
X010551Y009012D01*
X010551Y009290D01*
X010232Y009290D01*
X010232Y008873D01*
X010412Y008873D01*
X010452Y008884D01*
X010489Y008905D01*
X010551Y009030D02*
X010604Y009030D01*
X010604Y009149D02*
X010551Y009149D01*
X010551Y009267D02*
X010604Y009267D01*
X010551Y009367D02*
X010551Y009645D01*
X010540Y009686D01*
X010519Y009722D01*
X010489Y009752D01*
X010452Y009773D01*
X010412Y009784D01*
X010232Y009784D01*
X010232Y009367D01*
X010155Y009367D01*
X010155Y009290D01*
X009837Y009290D01*
X009837Y009012D01*
X009848Y008971D01*
X009869Y008935D01*
X009899Y008905D01*
X009935Y008884D01*
X009976Y008873D01*
X010155Y008873D01*
X010155Y009290D01*
X010232Y009290D01*
X010232Y009367D01*
X010551Y009367D01*
X010551Y009386D02*
X010604Y009386D01*
X010604Y009504D02*
X010551Y009504D01*
X010551Y009623D02*
X010604Y009623D01*
X010647Y009741D02*
X010500Y009741D01*
X010232Y009741D02*
X010155Y009741D01*
X010155Y009784D02*
X009976Y009784D01*
X009935Y009773D01*
X009899Y009752D01*
X009869Y009722D01*
X009848Y009686D01*
X009837Y009645D01*
X009837Y009367D01*
X010155Y009367D01*
X010155Y009784D01*
X009888Y009741D02*
X009740Y009741D01*
X009783Y009623D02*
X009837Y009623D01*
X009837Y009504D02*
X009783Y009504D01*
X009783Y009386D02*
X009837Y009386D01*
X009837Y009267D02*
X009783Y009267D01*
X009783Y009149D02*
X009837Y009149D01*
X009837Y009030D02*
X009783Y009030D01*
X009736Y008912D02*
X009892Y008912D01*
X010155Y008912D02*
X010232Y008912D01*
X010232Y009030D02*
X010155Y009030D01*
X010155Y009149D02*
X010232Y009149D01*
X010232Y009267D02*
X010155Y009267D01*
X010155Y009386D02*
X010232Y009386D01*
X010232Y009504D02*
X010155Y009504D01*
X010155Y009623D02*
X010232Y009623D01*
X010741Y009860D02*
X008899Y009860D01*
X008886Y009978D02*
X010741Y009978D01*
X010741Y010097D02*
X008809Y010097D01*
X008691Y010215D02*
X010741Y010215D01*
X010741Y010334D02*
X008572Y010334D01*
X008255Y009860D02*
X002395Y009860D01*
X002277Y009741D02*
X007497Y009741D01*
X007455Y009623D02*
X002158Y009623D01*
X000994Y008319D02*
X000956Y008319D01*
X000956Y008201D02*
X000994Y008201D01*
X002080Y008082D02*
X002157Y008082D01*
X002154Y007964D02*
X002080Y007964D01*
X002111Y007845D02*
X002154Y007845D01*
X002134Y007253D02*
X002088Y007253D01*
X002080Y007134D02*
X002134Y007134D01*
X002134Y007016D02*
X002080Y007016D01*
X002080Y006897D02*
X002134Y006897D01*
X002134Y006779D02*
X002080Y006779D01*
X002080Y006660D02*
X002134Y006660D01*
X002080Y006541D02*
X002189Y006541D01*
X002550Y006769D02*
X003541Y006769D01*
X003550Y006760D01*
X003300Y007160D02*
X003297Y007163D01*
X002550Y007163D01*
X004322Y006186D02*
X004378Y006186D01*
X004378Y006067D02*
X004322Y006067D01*
X004322Y005949D02*
X004378Y005949D01*
X004378Y005830D02*
X004322Y005830D01*
X004322Y005712D02*
X004378Y005712D01*
X004378Y005593D02*
X004322Y005593D01*
X004568Y005593D02*
X004688Y005593D01*
X005305Y005830D02*
X006449Y005830D01*
X006372Y005949D02*
X005305Y005949D01*
X005305Y006067D02*
X006372Y006067D01*
X006372Y006186D02*
X005253Y006186D01*
X005168Y006304D02*
X006372Y006304D01*
X006372Y006423D02*
X005168Y006423D01*
X005168Y006541D02*
X006463Y006541D01*
X006407Y006660D02*
X005168Y006660D01*
X005184Y006779D02*
X005184Y006779D01*
X005184Y006897D02*
X005184Y006897D01*
X005184Y006966D02*
X005413Y006966D01*
X005413Y007086D01*
X005402Y007126D01*
X005381Y007163D01*
X005351Y007193D01*
X005315Y007214D01*
X005274Y007225D01*
X005184Y007225D01*
X005184Y006966D01*
X005184Y006966D01*
X005184Y007016D02*
X005184Y007016D01*
X005184Y007134D02*
X005184Y007134D01*
X005398Y007134D02*
X006372Y007134D01*
X006372Y007016D02*
X005413Y007016D01*
X005413Y006897D02*
X006372Y006897D01*
X006372Y006779D02*
X005386Y006779D01*
X004928Y006610D02*
X004800Y006610D01*
X004900Y006710D01*
X004928Y006610D02*
X004928Y006966D01*
X004679Y006966D02*
X004672Y006966D01*
X004672Y006850D01*
X004672Y006850D01*
X004672Y006966D01*
X004672Y006966D01*
X004665Y006966D01*
X004665Y006966D01*
X004672Y006966D01*
X004672Y006966D01*
X004672Y006966D01*
X004679Y006966D01*
X004679Y006966D01*
X004672Y006966D02*
X004672Y007143D01*
X004672Y007143D01*
X004672Y006966D01*
X004672Y007182D01*
X004672Y007134D02*
X004672Y007134D01*
X004672Y007016D02*
X004672Y007016D01*
X004672Y006966D02*
X004672Y006966D01*
X004672Y006897D02*
X004672Y006897D01*
X004782Y007253D02*
X006387Y007253D01*
X006372Y007490D02*
X005342Y007490D01*
X006847Y006966D02*
X008044Y006966D01*
X008050Y006960D01*
X008177Y006423D02*
X007323Y006423D01*
X006847Y006179D02*
X008281Y006179D01*
X008300Y006160D01*
X008006Y004527D02*
X011328Y004527D01*
X011209Y004408D02*
X007888Y004408D01*
X007550Y002910D02*
X007550Y001598D01*
X007300Y001348D01*
X008300Y001348D02*
X008300Y002910D01*
X011000Y003160D02*
X004550Y003160D01*
X004300Y002910D01*
X004300Y002660D01*
X004300Y001348D01*
X005300Y001348D02*
X005300Y001060D01*
X005450Y001210D01*
X005450Y002860D01*
X011000Y003160D02*
X012050Y003160D01*
X012300Y002910D01*
X012300Y002660D01*
X012300Y001348D01*
X015140Y003816D02*
X016042Y003816D01*
X016042Y003934D02*
X015021Y003934D01*
X014895Y004053D02*
X016042Y004053D01*
X016042Y004171D02*
X013584Y004171D01*
X013580Y004290D02*
X016042Y004290D01*
X016042Y004408D02*
X013580Y004408D01*
X013580Y004527D02*
X016042Y004527D01*
X016042Y004645D02*
X013580Y004645D01*
X013580Y004764D02*
X016042Y004764D01*
X016042Y004882D02*
X013580Y004882D01*
X013580Y005001D02*
X016042Y005001D01*
X016042Y005119D02*
X013580Y005119D01*
X013580Y005238D02*
X016042Y005238D01*
X016042Y005356D02*
X013580Y005356D01*
X013580Y005475D02*
X016042Y005475D01*
X016042Y005593D02*
X013580Y005593D01*
X013580Y005712D02*
X016042Y005712D01*
X016042Y005830D02*
X013580Y005830D01*
X013580Y005949D02*
X016042Y005949D01*
X015644Y006067D02*
X015606Y006067D01*
X015606Y005980D02*
X015606Y006278D01*
X015110Y006278D01*
X015110Y006118D01*
X015121Y006078D01*
X015142Y006041D01*
X015172Y006011D01*
X015209Y005990D01*
X015249Y005980D01*
X015606Y005980D01*
X015606Y006186D02*
X015644Y006186D01*
X015606Y006304D02*
X013580Y006304D01*
X013580Y006186D02*
X015110Y006186D01*
X015127Y006067D02*
X013580Y006067D01*
X013580Y006423D02*
X015110Y006423D01*
X015136Y006541D02*
X014382Y006541D01*
X014446Y006660D02*
X016042Y006660D01*
X016042Y006779D02*
X014446Y006779D01*
X014444Y006897D02*
X016042Y006897D01*
X016042Y007016D02*
X014466Y007016D01*
X014466Y007134D02*
X016042Y007134D01*
X016042Y007253D02*
X014466Y007253D01*
X014453Y007371D02*
X016042Y007371D01*
X016042Y007490D02*
X014466Y007490D01*
X014466Y007608D02*
X016042Y007608D01*
X016042Y007727D02*
X014466Y007727D01*
X014466Y007845D02*
X016042Y007845D01*
X016042Y007964D02*
X014466Y007964D01*
X014466Y008082D02*
X016042Y008082D01*
X015644Y008201D02*
X015606Y008201D01*
X015606Y008106D02*
X015606Y008404D01*
X015110Y008404D01*
X015110Y008244D01*
X015121Y008204D01*
X015142Y008167D01*
X015172Y008137D01*
X015209Y008116D01*
X015249Y008106D01*
X015606Y008106D01*
X015606Y008319D02*
X015644Y008319D01*
X015606Y008438D02*
X011917Y008438D01*
X011998Y008556D02*
X015110Y008556D01*
X015140Y008675D02*
X012009Y008675D01*
X012009Y008793D02*
X016042Y008793D01*
X016042Y008912D02*
X012098Y008912D01*
X012145Y009030D02*
X016042Y009030D01*
X016042Y009149D02*
X012145Y009149D01*
X012145Y009267D02*
X016042Y009267D01*
X016042Y009386D02*
X012145Y009386D01*
X012145Y009504D02*
X016042Y009504D01*
X016042Y009623D02*
X012145Y009623D01*
X012103Y009741D02*
X016042Y009741D01*
X016042Y009860D02*
X012009Y009860D01*
X012009Y009978D02*
X016042Y009978D01*
X016042Y010097D02*
X012009Y010097D01*
X012009Y010215D02*
X016042Y010215D01*
X016042Y010334D02*
X012009Y010334D01*
X012009Y010452D02*
X016042Y010452D01*
X016042Y010571D02*
X012009Y010571D01*
X012009Y010689D02*
X016042Y010689D01*
X016042Y010808D02*
X012009Y010808D01*
X012009Y010926D02*
X014558Y010926D01*
X014647Y010889D02*
X014953Y010889D01*
X015236Y011007D01*
X015453Y011224D01*
X015571Y011507D01*
X015571Y011813D01*
X015453Y012096D01*
X015236Y012313D01*
X014953Y012431D01*
X014647Y012431D01*
X014364Y012313D01*
X014147Y012096D01*
X014029Y011813D01*
X014029Y011507D01*
X014147Y011224D01*
X014364Y011007D01*
X014647Y010889D01*
X014326Y011045D02*
X012009Y011045D01*
X012009Y011163D02*
X014207Y011163D01*
X014123Y011282D02*
X012009Y011282D01*
X012009Y011400D02*
X014074Y011400D01*
X014029Y011519D02*
X012009Y011519D01*
X012009Y011637D02*
X014029Y011637D01*
X014029Y011756D02*
X012009Y011756D01*
X012009Y011874D02*
X014055Y011874D01*
X014104Y011993D02*
X012009Y011993D01*
X012009Y012111D02*
X014161Y012111D01*
X014280Y012230D02*
X012009Y012230D01*
X011951Y012348D02*
X014447Y012348D01*
X015153Y012348D02*
X015957Y012348D01*
X015995Y012230D02*
X015320Y012230D01*
X015439Y012111D02*
X016027Y012111D01*
X016040Y011993D02*
X015496Y011993D01*
X015545Y011874D02*
X016042Y011874D01*
X016042Y011756D02*
X015571Y011756D01*
X015571Y011637D02*
X016042Y011637D01*
X016042Y011519D02*
X015571Y011519D01*
X015526Y011400D02*
X016042Y011400D01*
X016042Y011282D02*
X015477Y011282D01*
X015393Y011163D02*
X016042Y011163D01*
X016042Y011045D02*
X015274Y011045D01*
X015042Y010926D02*
X016042Y010926D01*
X015888Y012467D02*
X011833Y012467D01*
X011714Y012585D02*
X015804Y012585D01*
X015685Y012704D02*
X011596Y012704D01*
X011477Y012822D02*
X015496Y012822D01*
X011769Y012191D02*
X011300Y012660D01*
X010300Y012660D01*
X011769Y012191D02*
X011769Y009329D01*
X011769Y008629D01*
X011300Y008160D01*
X007800Y008160D01*
X008208Y009030D02*
X008242Y009030D01*
X008242Y009149D02*
X008208Y009149D01*
X008208Y009267D02*
X008242Y009267D01*
X008242Y009386D02*
X008208Y009386D01*
X008208Y009504D02*
X008242Y009504D01*
X008242Y009623D02*
X008208Y009623D01*
X008166Y009741D02*
X008285Y009741D01*
X008953Y009741D02*
X009072Y009741D01*
X009029Y009623D02*
X008996Y009623D01*
X008996Y009504D02*
X009029Y009504D01*
X009029Y009386D02*
X008996Y009386D01*
X008996Y009267D02*
X009029Y009267D01*
X009029Y009149D02*
X008996Y009149D01*
X008996Y009030D02*
X009029Y009030D01*
X011680Y008201D02*
X013711Y008201D01*
X014389Y008201D02*
X015123Y008201D01*
X015110Y008319D02*
X011798Y008319D01*
X013580Y006779D02*
X013654Y006779D01*
X013654Y006660D02*
X013580Y006660D01*
X013580Y006541D02*
X013718Y006541D01*
X014050Y006541D02*
X014050Y006541D01*
X014050Y006660D02*
X014050Y006660D01*
X015606Y006541D02*
X015644Y006541D01*
X015644Y006423D02*
X015606Y006423D01*
X015606Y008556D02*
X015644Y008556D01*
X015644Y008675D02*
X015606Y008675D01*
X015258Y003697D02*
X016042Y003697D01*
X016042Y003579D02*
X015377Y003579D01*
X015495Y003460D02*
X016042Y003460D01*
X016042Y003342D02*
X015569Y003342D01*
X015580Y003223D02*
X016042Y003223D01*
X016042Y003105D02*
X015580Y003105D01*
X015580Y002986D02*
X016042Y002986D01*
X016042Y002868D02*
X015580Y002868D01*
X015580Y002749D02*
X016042Y002749D01*
X006173Y011757D02*
X006137Y011736D01*
X006096Y011725D01*
X005828Y011725D01*
X005828Y012132D01*
X006235Y012132D01*
X006235Y011864D01*
X006224Y011823D01*
X006203Y011787D01*
X006173Y011757D01*
X006171Y011756D02*
X006520Y011756D01*
X006443Y011874D02*
X006235Y011874D01*
X006235Y011993D02*
X006377Y011993D01*
X006345Y012111D02*
X006235Y012111D01*
X006235Y012188D02*
X006235Y012456D01*
X006224Y012497D01*
X006203Y012533D01*
X006173Y012563D01*
X006137Y012584D01*
X006096Y012595D01*
X005828Y012595D01*
X005828Y012188D01*
X006235Y012188D01*
X006235Y012230D02*
X006345Y012230D01*
X006385Y012348D02*
X006235Y012348D01*
X006232Y012467D02*
X006463Y012467D01*
X006637Y012585D02*
X006133Y012585D01*
X005828Y012585D02*
X005772Y012585D01*
X005772Y012467D02*
X005828Y012467D01*
X005828Y012348D02*
X005772Y012348D01*
X005772Y012230D02*
X005828Y012230D01*
X005828Y012111D02*
X005772Y012111D01*
X005772Y011993D02*
X005828Y011993D01*
X005828Y011874D02*
X005772Y011874D01*
X005772Y011756D02*
X005828Y011756D01*
D23*
X006300Y010660D03*
X005550Y009710D03*
X005050Y010660D03*
X003550Y010660D03*
X002550Y009610D03*
X001800Y010410D03*
X001050Y008910D03*
X002300Y008410D03*
X003300Y007910D03*
X003300Y007160D03*
X003550Y006760D03*
X004050Y006410D03*
X003900Y005610D03*
X002800Y005660D03*
X002300Y006410D03*
X001050Y007410D03*
X000800Y005660D03*
X002050Y002910D03*
X002550Y002910D03*
X003300Y002660D03*
X004300Y002660D03*
X005450Y002860D03*
X007300Y004160D03*
X007550Y004410D03*
X008800Y004660D03*
X009800Y004660D03*
X010200Y004910D03*
X010550Y004660D03*
X011000Y004910D03*
X011300Y004660D03*
X012050Y004410D03*
X012800Y004410D03*
X013800Y004910D03*
X012550Y005910D03*
X013800Y006410D03*
X014800Y006410D03*
X015550Y007410D03*
X014800Y008410D03*
X013550Y008410D03*
X013550Y009660D03*
X014550Y010160D03*
X012300Y010410D03*
X010550Y009910D03*
X009050Y009910D03*
X007550Y010660D03*
X007050Y009710D03*
X007550Y008410D03*
X007800Y008160D03*
X008300Y007660D03*
X008050Y006960D03*
X008300Y006160D03*
X009050Y005910D03*
X009550Y007160D03*
X010200Y007560D03*
X010550Y007160D03*
X011000Y007910D03*
X011550Y007160D03*
X012800Y007160D03*
X012050Y008410D03*
X010550Y005910D03*
X010200Y003410D03*
X011000Y003160D03*
X012300Y002660D03*
X013300Y002660D03*
X013800Y002910D03*
X014550Y002910D03*
X015300Y002660D03*
X015800Y002910D03*
X015800Y005160D03*
X008300Y002910D03*
X007550Y002910D03*
X007050Y005660D03*
X006050Y005660D03*
X005300Y006410D03*
X006050Y006660D03*
X005800Y007410D03*
X005800Y008160D03*
X005050Y007410D03*
X004300Y008160D03*
X003550Y008910D03*
X004050Y009410D03*
X001300Y002660D03*
D24*
X001300Y001348D01*
X001300Y002660D02*
X001300Y003310D01*
X001800Y003810D01*
X001800Y004060D01*
X002050Y003810D01*
X002300Y003810D01*
X013050Y003810D01*
X013300Y004060D01*
X013550Y003810D01*
X013250Y003810D01*
X013300Y003860D01*
X013300Y004060D01*
X013300Y006910D01*
X013553Y007163D01*
X014050Y007163D01*
X013550Y003810D02*
X014750Y003810D01*
X015300Y003260D01*
X015300Y001348D01*
X015300Y002660D01*
X013250Y003810D02*
X013050Y003810D01*
X009250Y008710D02*
X008000Y008710D01*
X007831Y008879D01*
X007831Y009329D01*
X005119Y009329D01*
X004700Y008910D01*
X006600Y010160D02*
X006800Y010360D01*
X007000Y010160D01*
X006800Y010160D01*
X006800Y010360D01*
X006800Y012160D01*
X006800Y010160D02*
X006600Y010160D01*
X002300Y010160D01*
X001800Y009660D01*
X001800Y007760D01*
X002003Y007557D01*
X001997Y007557D01*
X001800Y007360D01*
X001800Y007560D01*
X001800Y007760D01*
X001800Y007560D02*
X001803Y007557D01*
X001997Y007557D01*
X002003Y007557D02*
X002550Y007557D01*
X001800Y007360D02*
X001800Y004060D01*
X001800Y003810D02*
X002050Y003810D01*
X004928Y005932D02*
X004950Y005910D01*
X008619Y009329D02*
X008619Y009891D01*
X008350Y010160D01*
X007000Y010160D01*
X009250Y008710D02*
X009406Y008866D01*
X009406Y009329D01*
M02*
