G75*
G70*
%OFA0B0*%
%FSLAX24Y24*%
%IPPOS*%
%LPD*%
%AMOC8*
5,1,8,0,0,1.08239X$1,22.5*
%
%ADD10C,0.0100*%
%ADD11C,0.0000*%
%ADD12C,0.0020*%
%ADD13C,0.0001*%
%ADD14C,0.0050*%
D10*
X001688Y000664D02*
X015232Y000664D01*
X015299Y000666D01*
X015366Y000672D01*
X015433Y000681D01*
X015499Y000694D01*
X015564Y000711D01*
X015628Y000731D01*
X015691Y000755D01*
X015753Y000783D01*
X015812Y000814D01*
X015870Y000848D01*
X015926Y000885D01*
X015980Y000926D01*
X016032Y000969D01*
X016081Y001015D01*
X016127Y001064D01*
X016170Y001116D01*
X016211Y001170D01*
X016248Y001226D01*
X016282Y001284D01*
X016313Y001343D01*
X016341Y001405D01*
X016365Y001468D01*
X016385Y001532D01*
X016402Y001597D01*
X016415Y001663D01*
X016424Y001730D01*
X016430Y001797D01*
X016432Y001864D01*
X016432Y012456D01*
X016430Y012523D01*
X016424Y012590D01*
X016415Y012657D01*
X016402Y012723D01*
X016385Y012788D01*
X016365Y012852D01*
X016341Y012915D01*
X016313Y012977D01*
X016282Y013036D01*
X016248Y013094D01*
X016211Y013150D01*
X016170Y013204D01*
X016127Y013256D01*
X016081Y013305D01*
X016032Y013351D01*
X015980Y013394D01*
X015926Y013435D01*
X015870Y013472D01*
X015812Y013506D01*
X015753Y013537D01*
X015691Y013565D01*
X015628Y013589D01*
X015564Y013609D01*
X015499Y013626D01*
X015433Y013639D01*
X015366Y013648D01*
X015299Y013654D01*
X015232Y013656D01*
X001688Y013656D01*
X001621Y013654D01*
X001554Y013648D01*
X001487Y013639D01*
X001421Y013626D01*
X001356Y013609D01*
X001292Y013589D01*
X001229Y013565D01*
X001167Y013537D01*
X001108Y013506D01*
X001050Y013472D01*
X000994Y013435D01*
X000940Y013394D01*
X000888Y013351D01*
X000839Y013305D01*
X000793Y013256D01*
X000750Y013204D01*
X000709Y013150D01*
X000672Y013094D01*
X000638Y013036D01*
X000607Y012977D01*
X000579Y012915D01*
X000555Y012852D01*
X000535Y012788D01*
X000518Y012723D01*
X000505Y012657D01*
X000496Y012590D01*
X000490Y012523D01*
X000488Y012456D01*
X000488Y001864D01*
X000490Y001797D01*
X000496Y001730D01*
X000505Y001663D01*
X000518Y001597D01*
X000535Y001532D01*
X000555Y001468D01*
X000579Y001405D01*
X000607Y001343D01*
X000638Y001284D01*
X000672Y001226D01*
X000709Y001170D01*
X000750Y001116D01*
X000793Y001064D01*
X000839Y001015D01*
X000888Y000969D01*
X000940Y000926D01*
X000994Y000885D01*
X001050Y000848D01*
X001108Y000814D01*
X001167Y000783D01*
X001229Y000755D01*
X001292Y000731D01*
X001356Y000711D01*
X001421Y000694D01*
X001487Y000681D01*
X001554Y000672D01*
X001621Y000666D01*
X001688Y000664D01*
D11*
X001747Y006049D02*
X001432Y006049D01*
X001407Y006052D01*
X001383Y006062D01*
X001363Y006078D01*
X001347Y006098D01*
X001337Y006122D01*
X001334Y006147D01*
X001334Y006187D01*
X001337Y006212D01*
X001347Y006236D01*
X001363Y006256D01*
X001383Y006272D01*
X001407Y006282D01*
X001432Y006285D01*
X001747Y006285D01*
X001773Y006282D01*
X001797Y006272D01*
X001817Y006256D01*
X001833Y006236D01*
X001842Y006212D01*
X001846Y006187D01*
X001846Y006147D01*
X001842Y006122D01*
X001833Y006098D01*
X001817Y006078D01*
X001797Y006062D01*
X001773Y006052D01*
X001747Y006049D01*
X002948Y006147D02*
X002948Y006187D01*
X002952Y006212D01*
X002961Y006236D01*
X002977Y006256D01*
X002997Y006272D01*
X003021Y006282D01*
X003047Y006285D01*
X003440Y006285D01*
X003466Y006282D01*
X003490Y006272D01*
X003510Y006256D01*
X003526Y006236D01*
X003535Y006212D01*
X003539Y006187D01*
X003539Y006147D01*
X003535Y006122D01*
X003526Y006098D01*
X003510Y006078D01*
X003490Y006062D01*
X003466Y006052D01*
X003440Y006049D01*
X003047Y006049D01*
X003021Y006052D01*
X002997Y006062D01*
X002977Y006078D01*
X002961Y006098D01*
X002952Y006122D01*
X002948Y006147D01*
X002909Y006722D02*
X002911Y006743D01*
X002917Y006763D01*
X002926Y006783D01*
X002938Y006800D01*
X002953Y006814D01*
X002971Y006826D01*
X002991Y006834D01*
X003011Y006839D01*
X003032Y006840D01*
X003053Y006837D01*
X003073Y006831D01*
X003092Y006820D01*
X003109Y006807D01*
X003122Y006791D01*
X003133Y006773D01*
X003141Y006753D01*
X003145Y006733D01*
X003145Y006711D01*
X003141Y006691D01*
X003133Y006671D01*
X003122Y006653D01*
X003109Y006637D01*
X003092Y006624D01*
X003073Y006613D01*
X003053Y006607D01*
X003032Y006604D01*
X003011Y006605D01*
X002991Y006610D01*
X002971Y006618D01*
X002953Y006630D01*
X002938Y006644D01*
X002926Y006661D01*
X002917Y006681D01*
X002911Y006701D01*
X002909Y006722D01*
X002909Y008998D02*
X002911Y009019D01*
X002917Y009039D01*
X002926Y009059D01*
X002938Y009076D01*
X002953Y009090D01*
X002971Y009102D01*
X002991Y009110D01*
X003011Y009115D01*
X003032Y009116D01*
X003053Y009113D01*
X003073Y009107D01*
X003092Y009096D01*
X003109Y009083D01*
X003122Y009067D01*
X003133Y009049D01*
X003141Y009029D01*
X003145Y009009D01*
X003145Y008987D01*
X003141Y008967D01*
X003133Y008947D01*
X003122Y008929D01*
X003109Y008913D01*
X003092Y008900D01*
X003073Y008889D01*
X003053Y008883D01*
X003032Y008880D01*
X003011Y008881D01*
X002991Y008886D01*
X002971Y008894D01*
X002953Y008906D01*
X002938Y008920D01*
X002926Y008937D01*
X002917Y008957D01*
X002911Y008977D01*
X002909Y008998D01*
X003021Y009438D02*
X002997Y009448D01*
X002977Y009464D01*
X002961Y009484D01*
X002952Y009508D01*
X002948Y009533D01*
X002948Y009573D01*
X002952Y009598D01*
X002961Y009622D01*
X002977Y009642D01*
X002997Y009658D01*
X003021Y009668D01*
X003047Y009671D01*
X003440Y009671D01*
X003466Y009668D01*
X003490Y009658D01*
X003510Y009642D01*
X003526Y009622D01*
X003535Y009598D01*
X003539Y009573D01*
X003539Y009533D01*
X003535Y009508D01*
X003526Y009484D01*
X003510Y009464D01*
X003490Y009448D01*
X003466Y009438D01*
X003440Y009435D01*
X003047Y009435D01*
X003021Y009438D01*
X001846Y009533D02*
X001842Y009508D01*
X001833Y009484D01*
X001817Y009464D01*
X001797Y009448D01*
X001773Y009438D01*
X001747Y009435D01*
X001432Y009435D01*
X001407Y009438D01*
X001383Y009448D01*
X001363Y009464D01*
X001347Y009484D01*
X001337Y009508D01*
X001334Y009533D01*
X001334Y009573D01*
X001337Y009598D01*
X001347Y009622D01*
X001363Y009642D01*
X001383Y009658D01*
X001407Y009668D01*
X001432Y009671D01*
X001747Y009671D01*
X001773Y009668D01*
X001797Y009658D01*
X001817Y009642D01*
X001833Y009622D01*
X001842Y009598D01*
X001846Y009573D01*
X001846Y009533D01*
X001369Y012160D02*
X001371Y012208D01*
X001377Y012256D01*
X001387Y012303D01*
X001400Y012349D01*
X001418Y012394D01*
X001438Y012438D01*
X001463Y012480D01*
X001491Y012519D01*
X001521Y012556D01*
X001555Y012590D01*
X001592Y012622D01*
X001630Y012651D01*
X001671Y012676D01*
X001714Y012698D01*
X001759Y012716D01*
X001805Y012730D01*
X001852Y012741D01*
X001900Y012748D01*
X001948Y012751D01*
X001996Y012750D01*
X002044Y012745D01*
X002092Y012736D01*
X002138Y012724D01*
X002183Y012707D01*
X002227Y012687D01*
X002269Y012664D01*
X002309Y012637D01*
X002347Y012607D01*
X002382Y012574D01*
X002414Y012538D01*
X002444Y012500D01*
X002470Y012459D01*
X002492Y012416D01*
X002512Y012372D01*
X002527Y012327D01*
X002539Y012280D01*
X002547Y012232D01*
X002551Y012184D01*
X002551Y012136D01*
X002547Y012088D01*
X002539Y012040D01*
X002527Y011993D01*
X002512Y011948D01*
X002492Y011904D01*
X002470Y011861D01*
X002444Y011820D01*
X002414Y011782D01*
X002382Y011746D01*
X002347Y011713D01*
X002309Y011683D01*
X002269Y011656D01*
X002227Y011633D01*
X002183Y011613D01*
X002138Y011596D01*
X002092Y011584D01*
X002044Y011575D01*
X001996Y011570D01*
X001948Y011569D01*
X001900Y011572D01*
X001852Y011579D01*
X001805Y011590D01*
X001759Y011604D01*
X001714Y011622D01*
X001671Y011644D01*
X001630Y011669D01*
X001592Y011698D01*
X001555Y011730D01*
X001521Y011764D01*
X001491Y011801D01*
X001463Y011840D01*
X001438Y011882D01*
X001418Y011926D01*
X001400Y011971D01*
X001387Y012017D01*
X001377Y012064D01*
X001371Y012112D01*
X001369Y012160D01*
X014369Y012160D02*
X014371Y012208D01*
X014377Y012256D01*
X014387Y012303D01*
X014400Y012349D01*
X014418Y012394D01*
X014438Y012438D01*
X014463Y012480D01*
X014491Y012519D01*
X014521Y012556D01*
X014555Y012590D01*
X014592Y012622D01*
X014630Y012651D01*
X014671Y012676D01*
X014714Y012698D01*
X014759Y012716D01*
X014805Y012730D01*
X014852Y012741D01*
X014900Y012748D01*
X014948Y012751D01*
X014996Y012750D01*
X015044Y012745D01*
X015092Y012736D01*
X015138Y012724D01*
X015183Y012707D01*
X015227Y012687D01*
X015269Y012664D01*
X015309Y012637D01*
X015347Y012607D01*
X015382Y012574D01*
X015414Y012538D01*
X015444Y012500D01*
X015470Y012459D01*
X015492Y012416D01*
X015512Y012372D01*
X015527Y012327D01*
X015539Y012280D01*
X015547Y012232D01*
X015551Y012184D01*
X015551Y012136D01*
X015547Y012088D01*
X015539Y012040D01*
X015527Y011993D01*
X015512Y011948D01*
X015492Y011904D01*
X015470Y011861D01*
X015444Y011820D01*
X015414Y011782D01*
X015382Y011746D01*
X015347Y011713D01*
X015309Y011683D01*
X015269Y011656D01*
X015227Y011633D01*
X015183Y011613D01*
X015138Y011596D01*
X015092Y011584D01*
X015044Y011575D01*
X014996Y011570D01*
X014948Y011569D01*
X014900Y011572D01*
X014852Y011579D01*
X014805Y011590D01*
X014759Y011604D01*
X014714Y011622D01*
X014671Y011644D01*
X014630Y011669D01*
X014592Y011698D01*
X014555Y011730D01*
X014521Y011764D01*
X014491Y011801D01*
X014463Y011840D01*
X014438Y011882D01*
X014418Y011926D01*
X014400Y011971D01*
X014387Y012017D01*
X014377Y012064D01*
X014371Y012112D01*
X014369Y012160D01*
D12*
X002399Y009165D02*
X002305Y009165D01*
X002305Y009211D02*
X002305Y009235D01*
X002305Y009211D02*
X002352Y009165D01*
X002352Y009111D02*
X002352Y009017D01*
X002329Y009017D02*
X002305Y009041D01*
X002305Y009087D01*
X002329Y009111D01*
X002352Y009111D01*
X002399Y009087D02*
X002399Y009041D01*
X002376Y009017D01*
X002329Y009017D01*
X002329Y008963D02*
X002376Y008963D01*
X002399Y008940D01*
X002399Y008870D01*
X002446Y008870D02*
X002305Y008870D01*
X002305Y008940D01*
X002329Y008963D01*
X002329Y008816D02*
X002376Y008816D01*
X002399Y008793D01*
X002399Y008723D01*
X002446Y008723D02*
X002305Y008723D01*
X002305Y008793D01*
X002329Y008816D01*
X002329Y008669D02*
X002305Y008645D01*
X002305Y008599D01*
X002329Y008575D01*
X002376Y008575D01*
X002399Y008599D01*
X002399Y008645D01*
X002376Y008669D01*
X002329Y008669D01*
X002305Y008522D02*
X002305Y008451D01*
X002329Y008428D01*
X002376Y008428D01*
X002399Y008451D01*
X002399Y008522D01*
X002399Y008227D02*
X002329Y008227D01*
X002305Y008204D01*
X002305Y008157D01*
X002329Y008133D01*
X002305Y008082D02*
X002305Y008035D01*
X002282Y008059D02*
X002376Y008059D01*
X002399Y008082D01*
X002399Y008133D02*
X002259Y008133D01*
X002399Y007984D02*
X002399Y007937D01*
X002399Y007960D02*
X002305Y007960D01*
X002305Y007937D01*
X002259Y007960D02*
X002235Y007960D01*
X002305Y007883D02*
X002376Y007883D01*
X002399Y007860D01*
X002376Y007836D01*
X002399Y007813D01*
X002376Y007790D01*
X002305Y007790D01*
X002305Y007588D02*
X002305Y007518D01*
X002329Y007495D01*
X002352Y007518D01*
X002352Y007565D01*
X002376Y007588D01*
X002399Y007565D01*
X002399Y007495D01*
X002399Y007444D02*
X002399Y007397D01*
X002399Y007420D02*
X002259Y007420D01*
X002259Y007397D01*
X002259Y007322D02*
X002399Y007322D01*
X002399Y007299D02*
X002399Y007345D01*
X002399Y007247D02*
X002399Y007200D01*
X002399Y007224D02*
X002305Y007224D01*
X002305Y007200D01*
X002259Y007224D02*
X002235Y007224D01*
X002259Y007299D02*
X002259Y007322D01*
X002305Y007148D02*
X002305Y007124D01*
X002352Y007078D01*
X002399Y007078D02*
X002305Y007078D01*
X002282Y007024D02*
X002259Y007000D01*
X002259Y006930D01*
X002399Y006930D01*
X002399Y007000D01*
X002376Y007024D01*
X002282Y007024D01*
X002305Y006731D02*
X002305Y006685D01*
X002282Y006708D02*
X002376Y006708D01*
X002399Y006731D01*
X002376Y006631D02*
X002329Y006631D01*
X002305Y006607D01*
X002305Y006561D01*
X002329Y006537D01*
X002376Y006537D01*
X002399Y006561D01*
X002399Y006607D01*
X002376Y006631D01*
X002399Y006486D02*
X002399Y006439D01*
X002399Y006463D02*
X002259Y006463D01*
X002259Y006439D01*
X002282Y006385D02*
X002259Y006362D01*
X002259Y006315D01*
X002282Y006292D01*
X002305Y006292D01*
X002329Y006315D01*
X002329Y006362D01*
X002352Y006385D01*
X002376Y006385D01*
X002399Y006362D01*
X002399Y006315D01*
X002376Y006292D01*
D13*
X002952Y006212D02*
X003535Y006212D01*
X003535Y006213D02*
X002952Y006213D01*
X002952Y006214D02*
X003535Y006214D01*
X003534Y006215D02*
X002953Y006215D01*
X002953Y006216D02*
X003534Y006216D01*
X003533Y006217D02*
X002953Y006217D01*
X002954Y006218D02*
X003533Y006218D01*
X003533Y006219D02*
X002954Y006219D01*
X002955Y006220D02*
X003532Y006220D01*
X003532Y006221D02*
X002955Y006221D01*
X002956Y006222D02*
X003531Y006222D01*
X003531Y006223D02*
X002956Y006223D01*
X002956Y006224D02*
X003531Y006224D01*
X003530Y006225D02*
X002957Y006225D01*
X002957Y006226D02*
X003530Y006226D01*
X003529Y006227D02*
X002958Y006227D01*
X002958Y006228D02*
X003529Y006228D01*
X003528Y006229D02*
X002958Y006229D01*
X002959Y006230D02*
X003528Y006230D01*
X003528Y006231D02*
X002959Y006231D01*
X002960Y006232D02*
X003527Y006232D01*
X003527Y006233D02*
X002960Y006233D01*
X002961Y006234D02*
X003526Y006234D01*
X003526Y006235D02*
X002961Y006235D01*
X002961Y006236D02*
X003526Y006236D01*
X003525Y006237D02*
X002962Y006237D01*
X002963Y006238D02*
X003524Y006238D01*
X003523Y006239D02*
X002964Y006239D01*
X002964Y006240D02*
X003523Y006240D01*
X003522Y006241D02*
X002965Y006241D01*
X002966Y006242D02*
X003521Y006242D01*
X003520Y006243D02*
X002967Y006243D01*
X002967Y006244D02*
X003519Y006244D01*
X003519Y006245D02*
X002968Y006245D01*
X002969Y006246D02*
X003518Y006246D01*
X003517Y006247D02*
X002970Y006247D01*
X002971Y006248D02*
X003516Y006248D01*
X003516Y006249D02*
X002971Y006249D01*
X002972Y006250D02*
X003515Y006250D01*
X003514Y006251D02*
X002973Y006251D01*
X002974Y006252D02*
X003513Y006252D01*
X003513Y006253D02*
X002974Y006253D01*
X002975Y006254D02*
X003512Y006254D01*
X003511Y006255D02*
X002976Y006255D01*
X002977Y006256D02*
X003510Y006256D01*
X003509Y006257D02*
X002978Y006257D01*
X002979Y006258D02*
X003508Y006258D01*
X003507Y006259D02*
X002980Y006259D01*
X002982Y006260D02*
X003505Y006260D01*
X003504Y006261D02*
X002983Y006261D01*
X002984Y006262D02*
X003503Y006262D01*
X003501Y006263D02*
X002986Y006263D01*
X002987Y006264D02*
X003500Y006264D01*
X003499Y006265D02*
X002988Y006265D01*
X002989Y006266D02*
X003498Y006266D01*
X003496Y006267D02*
X002991Y006267D01*
X002992Y006268D02*
X003495Y006268D01*
X003494Y006269D02*
X002993Y006269D01*
X002995Y006270D02*
X003492Y006270D01*
X003491Y006271D02*
X002996Y006271D01*
X002997Y006272D02*
X003490Y006272D01*
X003487Y006273D02*
X002999Y006273D01*
X003002Y006274D02*
X003485Y006274D01*
X003483Y006275D02*
X003004Y006275D01*
X003007Y006276D02*
X003480Y006276D01*
X003478Y006277D02*
X003009Y006277D01*
X003012Y006278D02*
X003475Y006278D01*
X003473Y006279D02*
X003014Y006279D01*
X003016Y006280D02*
X003471Y006280D01*
X003468Y006281D02*
X003019Y006281D01*
X003021Y006282D02*
X003466Y006282D01*
X003458Y006283D02*
X003029Y006283D01*
X003036Y006284D02*
X003450Y006284D01*
X003443Y006285D02*
X003044Y006285D01*
X002951Y006211D02*
X003536Y006211D01*
X003536Y006210D02*
X002951Y006210D01*
X002951Y006209D02*
X003536Y006209D01*
X003536Y006208D02*
X002951Y006208D01*
X002951Y006207D02*
X003536Y006207D01*
X003536Y006206D02*
X002951Y006206D01*
X002951Y006205D02*
X003536Y006205D01*
X003536Y006204D02*
X002950Y006204D01*
X002950Y006203D02*
X003537Y006203D01*
X003537Y006202D02*
X002950Y006202D01*
X002950Y006201D02*
X003537Y006201D01*
X003537Y006200D02*
X002950Y006200D01*
X002950Y006199D02*
X003537Y006199D01*
X003537Y006198D02*
X002950Y006198D01*
X002950Y006197D02*
X003537Y006197D01*
X003538Y006196D02*
X002949Y006196D01*
X002949Y006195D02*
X003538Y006195D01*
X003538Y006194D02*
X002949Y006194D01*
X002949Y006193D02*
X003538Y006193D01*
X003538Y006192D02*
X002949Y006192D01*
X002949Y006191D02*
X003538Y006191D01*
X003538Y006190D02*
X002949Y006190D01*
X002948Y006189D02*
X003538Y006189D01*
X003539Y006188D02*
X002948Y006188D01*
X002948Y006187D02*
X003539Y006187D01*
X003539Y006186D02*
X002948Y006186D01*
X002948Y006185D02*
X003539Y006185D01*
X003539Y006184D02*
X002948Y006184D01*
X002948Y006183D02*
X003539Y006183D01*
X003539Y006182D02*
X002948Y006182D01*
X002948Y006181D02*
X003539Y006181D01*
X003539Y006180D02*
X002948Y006180D01*
X002948Y006179D02*
X003539Y006179D01*
X003539Y006178D02*
X002948Y006178D01*
X002948Y006177D02*
X003539Y006177D01*
X003539Y006176D02*
X002948Y006176D01*
X002948Y006175D02*
X003539Y006175D01*
X003539Y006174D02*
X002948Y006174D01*
X002948Y006173D02*
X003539Y006173D01*
X003539Y006172D02*
X002948Y006172D01*
X002948Y006171D02*
X003539Y006171D01*
X003539Y006170D02*
X002948Y006170D01*
X002948Y006169D02*
X003539Y006169D01*
X003539Y006168D02*
X002948Y006168D01*
X002948Y006167D02*
X003539Y006167D01*
X003539Y006166D02*
X002948Y006166D01*
X002948Y006165D02*
X003539Y006165D01*
X003539Y006164D02*
X002948Y006164D01*
X002948Y006163D02*
X003539Y006163D01*
X003539Y006162D02*
X002948Y006162D01*
X002948Y006161D02*
X003539Y006161D01*
X003539Y006160D02*
X002948Y006160D01*
X002948Y006159D02*
X003539Y006159D01*
X003539Y006158D02*
X002948Y006158D01*
X002948Y006157D02*
X003539Y006157D01*
X003539Y006156D02*
X002948Y006156D01*
X002948Y006155D02*
X003539Y006155D01*
X003539Y006154D02*
X002948Y006154D01*
X002948Y006153D02*
X003539Y006153D01*
X003539Y006152D02*
X002948Y006152D01*
X002948Y006151D02*
X003539Y006151D01*
X003539Y006150D02*
X002948Y006150D01*
X002948Y006149D02*
X003539Y006149D01*
X003539Y006148D02*
X002948Y006148D01*
X002948Y006147D02*
X003539Y006147D01*
X003539Y006146D02*
X002948Y006146D01*
X002949Y006145D02*
X003538Y006145D01*
X003538Y006144D02*
X002949Y006144D01*
X002949Y006143D02*
X003538Y006143D01*
X003538Y006142D02*
X002949Y006142D01*
X002949Y006141D02*
X003538Y006141D01*
X003538Y006140D02*
X002949Y006140D01*
X002949Y006139D02*
X003538Y006139D01*
X003538Y006138D02*
X002949Y006138D01*
X002950Y006137D02*
X003537Y006137D01*
X003537Y006136D02*
X002950Y006136D01*
X002950Y006135D02*
X003537Y006135D01*
X003537Y006134D02*
X002950Y006134D01*
X002950Y006133D02*
X003537Y006133D01*
X003537Y006132D02*
X002950Y006132D01*
X002950Y006131D02*
X003537Y006131D01*
X003536Y006130D02*
X002950Y006130D01*
X002951Y006129D02*
X003536Y006129D01*
X003536Y006128D02*
X002951Y006128D01*
X002951Y006127D02*
X003536Y006127D01*
X003536Y006126D02*
X002951Y006126D01*
X002951Y006125D02*
X003536Y006125D01*
X003536Y006124D02*
X002951Y006124D01*
X002951Y006123D02*
X003536Y006123D01*
X003535Y006122D02*
X002952Y006122D01*
X002952Y006121D02*
X003535Y006121D01*
X003535Y006120D02*
X002952Y006120D01*
X002953Y006119D02*
X003534Y006119D01*
X003534Y006118D02*
X002953Y006118D01*
X002954Y006117D02*
X003533Y006117D01*
X003533Y006116D02*
X002954Y006116D01*
X002954Y006115D02*
X003533Y006115D01*
X003532Y006114D02*
X002955Y006114D01*
X002955Y006113D02*
X003532Y006113D01*
X003531Y006112D02*
X002956Y006112D01*
X002956Y006111D02*
X003531Y006111D01*
X003530Y006110D02*
X002956Y006110D01*
X002957Y006109D02*
X003530Y006109D01*
X003530Y006108D02*
X002957Y006108D01*
X002958Y006107D02*
X003529Y006107D01*
X003529Y006106D02*
X002958Y006106D01*
X002959Y006105D02*
X003528Y006105D01*
X003528Y006104D02*
X002959Y006104D01*
X002959Y006103D02*
X003528Y006103D01*
X003527Y006102D02*
X002960Y006102D01*
X002960Y006101D02*
X003527Y006101D01*
X003526Y006100D02*
X002961Y006100D01*
X002961Y006099D02*
X003526Y006099D01*
X003525Y006098D02*
X002961Y006098D01*
X002962Y006097D02*
X003525Y006097D01*
X003524Y006096D02*
X002963Y006096D01*
X002964Y006095D02*
X003523Y006095D01*
X003522Y006094D02*
X002965Y006094D01*
X002965Y006093D02*
X003522Y006093D01*
X003521Y006092D02*
X002966Y006092D01*
X002967Y006091D02*
X003520Y006091D01*
X003519Y006090D02*
X002968Y006090D01*
X002968Y006089D02*
X003519Y006089D01*
X003518Y006088D02*
X002969Y006088D01*
X002970Y006087D02*
X003517Y006087D01*
X003516Y006086D02*
X002971Y006086D01*
X002971Y006085D02*
X003515Y006085D01*
X003515Y006084D02*
X002972Y006084D01*
X002973Y006083D02*
X003514Y006083D01*
X003513Y006082D02*
X002974Y006082D01*
X002975Y006081D02*
X003512Y006081D01*
X003512Y006080D02*
X002975Y006080D01*
X002976Y006079D02*
X003511Y006079D01*
X003510Y006078D02*
X002977Y006078D01*
X002978Y006077D02*
X003509Y006077D01*
X003508Y006076D02*
X002979Y006076D01*
X002981Y006075D02*
X003506Y006075D01*
X003505Y006074D02*
X002982Y006074D01*
X002983Y006073D02*
X003504Y006073D01*
X003502Y006072D02*
X002984Y006072D01*
X002986Y006071D02*
X003501Y006071D01*
X003500Y006070D02*
X002987Y006070D01*
X002988Y006069D02*
X003499Y006069D01*
X003497Y006068D02*
X002990Y006068D01*
X002991Y006067D02*
X003496Y006067D01*
X003495Y006066D02*
X002992Y006066D01*
X002994Y006065D02*
X003493Y006065D01*
X003492Y006064D02*
X002995Y006064D01*
X002996Y006063D02*
X003491Y006063D01*
X003489Y006062D02*
X002998Y006062D01*
X003000Y006061D02*
X003487Y006061D01*
X003485Y006060D02*
X003002Y006060D01*
X003005Y006059D02*
X003482Y006059D01*
X003480Y006058D02*
X003007Y006058D01*
X003010Y006057D02*
X003477Y006057D01*
X003475Y006056D02*
X003012Y006056D01*
X003014Y006055D02*
X003472Y006055D01*
X003470Y006054D02*
X003017Y006054D01*
X003019Y006053D02*
X003468Y006053D01*
X003464Y006052D02*
X003023Y006052D01*
X003031Y006051D02*
X003456Y006051D01*
X003449Y006050D02*
X003038Y006050D01*
X003046Y006049D02*
X003441Y006049D01*
X001846Y006147D02*
X001334Y006147D01*
X001334Y006148D02*
X001846Y006148D01*
X001846Y006149D02*
X001334Y006149D01*
X001334Y006150D02*
X001846Y006150D01*
X001846Y006151D02*
X001334Y006151D01*
X001334Y006152D02*
X001846Y006152D01*
X001846Y006153D02*
X001334Y006153D01*
X001334Y006154D02*
X001846Y006154D01*
X001846Y006155D02*
X001334Y006155D01*
X001334Y006156D02*
X001846Y006156D01*
X001846Y006157D02*
X001334Y006157D01*
X001334Y006158D02*
X001846Y006158D01*
X001846Y006159D02*
X001334Y006159D01*
X001334Y006160D02*
X001846Y006160D01*
X001846Y006161D02*
X001334Y006161D01*
X001334Y006162D02*
X001846Y006162D01*
X001846Y006163D02*
X001334Y006163D01*
X001334Y006164D02*
X001846Y006164D01*
X001846Y006165D02*
X001334Y006165D01*
X001334Y006166D02*
X001846Y006166D01*
X001846Y006167D02*
X001334Y006167D01*
X001334Y006168D02*
X001846Y006168D01*
X001846Y006169D02*
X001334Y006169D01*
X001334Y006170D02*
X001846Y006170D01*
X001846Y006171D02*
X001334Y006171D01*
X001334Y006172D02*
X001846Y006172D01*
X001846Y006173D02*
X001334Y006173D01*
X001334Y006174D02*
X001846Y006174D01*
X001846Y006175D02*
X001334Y006175D01*
X001334Y006176D02*
X001846Y006176D01*
X001846Y006177D02*
X001334Y006177D01*
X001334Y006178D02*
X001846Y006178D01*
X001846Y006179D02*
X001334Y006179D01*
X001334Y006180D02*
X001846Y006180D01*
X001846Y006181D02*
X001334Y006181D01*
X001334Y006182D02*
X001846Y006182D01*
X001846Y006183D02*
X001334Y006183D01*
X001334Y006184D02*
X001846Y006184D01*
X001846Y006185D02*
X001334Y006185D01*
X001334Y006186D02*
X001846Y006186D01*
X001846Y006187D02*
X001334Y006187D01*
X001334Y006188D02*
X001846Y006188D01*
X001846Y006189D02*
X001334Y006189D01*
X001334Y006190D02*
X001845Y006190D01*
X001845Y006191D02*
X001335Y006191D01*
X001335Y006192D02*
X001845Y006192D01*
X001845Y006193D02*
X001335Y006193D01*
X001335Y006194D02*
X001845Y006194D01*
X001845Y006195D02*
X001335Y006195D01*
X001335Y006196D02*
X001845Y006196D01*
X001844Y006197D02*
X001335Y006197D01*
X001335Y006198D02*
X001844Y006198D01*
X001844Y006199D02*
X001336Y006199D01*
X001336Y006200D02*
X001844Y006200D01*
X001844Y006201D02*
X001336Y006201D01*
X001336Y006202D02*
X001844Y006202D01*
X001844Y006203D02*
X001336Y006203D01*
X001336Y006204D02*
X001844Y006204D01*
X001843Y006205D02*
X001336Y006205D01*
X001337Y006206D02*
X001843Y006206D01*
X001843Y006207D02*
X001337Y006207D01*
X001337Y006208D02*
X001843Y006208D01*
X001843Y006209D02*
X001337Y006209D01*
X001337Y006210D02*
X001843Y006210D01*
X001843Y006211D02*
X001337Y006211D01*
X001337Y006212D02*
X001843Y006212D01*
X001842Y006213D02*
X001338Y006213D01*
X001338Y006214D02*
X001842Y006214D01*
X001841Y006215D02*
X001338Y006215D01*
X001339Y006216D02*
X001841Y006216D01*
X001841Y006217D02*
X001339Y006217D01*
X001340Y006218D02*
X001840Y006218D01*
X001840Y006219D02*
X001340Y006219D01*
X001341Y006220D02*
X001839Y006220D01*
X001839Y006221D02*
X001341Y006221D01*
X001341Y006222D02*
X001838Y006222D01*
X001838Y006223D02*
X001342Y006223D01*
X001342Y006224D02*
X001838Y006224D01*
X001837Y006225D02*
X001343Y006225D01*
X001343Y006226D02*
X001837Y006226D01*
X001836Y006227D02*
X001343Y006227D01*
X001344Y006228D02*
X001836Y006228D01*
X001836Y006229D02*
X001344Y006229D01*
X001345Y006230D02*
X001835Y006230D01*
X001835Y006231D02*
X001345Y006231D01*
X001346Y006232D02*
X001834Y006232D01*
X001834Y006233D02*
X001346Y006233D01*
X001346Y006234D02*
X001833Y006234D01*
X001833Y006235D02*
X001347Y006235D01*
X001347Y006236D02*
X001833Y006236D01*
X001832Y006237D02*
X001348Y006237D01*
X001349Y006238D02*
X001831Y006238D01*
X001830Y006239D02*
X001349Y006239D01*
X001350Y006240D02*
X001830Y006240D01*
X001829Y006241D02*
X001351Y006241D01*
X001352Y006242D02*
X001828Y006242D01*
X001827Y006243D02*
X001353Y006243D01*
X001353Y006244D02*
X001827Y006244D01*
X001826Y006245D02*
X001354Y006245D01*
X001355Y006246D02*
X001825Y006246D01*
X001824Y006247D02*
X001356Y006247D01*
X001356Y006248D02*
X001823Y006248D01*
X001823Y006249D02*
X001357Y006249D01*
X001358Y006250D02*
X001822Y006250D01*
X001821Y006251D02*
X001359Y006251D01*
X001359Y006252D02*
X001820Y006252D01*
X001820Y006253D02*
X001360Y006253D01*
X001361Y006254D02*
X001819Y006254D01*
X001818Y006255D02*
X001362Y006255D01*
X001362Y006256D02*
X001817Y006256D01*
X001816Y006257D02*
X001364Y006257D01*
X001365Y006258D02*
X001815Y006258D01*
X001814Y006259D02*
X001366Y006259D01*
X001367Y006260D02*
X001812Y006260D01*
X001811Y006261D02*
X001369Y006261D01*
X001370Y006262D02*
X001810Y006262D01*
X001809Y006263D02*
X001371Y006263D01*
X001373Y006264D02*
X001807Y006264D01*
X001806Y006265D02*
X001374Y006265D01*
X001375Y006266D02*
X001805Y006266D01*
X001803Y006267D02*
X001377Y006267D01*
X001378Y006268D02*
X001802Y006268D01*
X001801Y006269D02*
X001379Y006269D01*
X001380Y006270D02*
X001799Y006270D01*
X001798Y006271D02*
X001382Y006271D01*
X001383Y006272D02*
X001797Y006272D01*
X001795Y006273D02*
X001385Y006273D01*
X001388Y006274D02*
X001792Y006274D01*
X001790Y006275D02*
X001390Y006275D01*
X001393Y006276D02*
X001787Y006276D01*
X001785Y006277D02*
X001395Y006277D01*
X001397Y006278D02*
X001782Y006278D01*
X001780Y006279D02*
X001400Y006279D01*
X001402Y006280D02*
X001778Y006280D01*
X001775Y006281D02*
X001405Y006281D01*
X001407Y006282D02*
X001773Y006282D01*
X001765Y006283D02*
X001415Y006283D01*
X001422Y006284D02*
X001758Y006284D01*
X001750Y006285D02*
X001430Y006285D01*
X001334Y006146D02*
X001846Y006146D01*
X001846Y006145D02*
X001334Y006145D01*
X001334Y006144D02*
X001845Y006144D01*
X001845Y006143D02*
X001335Y006143D01*
X001335Y006142D02*
X001845Y006142D01*
X001845Y006141D02*
X001335Y006141D01*
X001335Y006140D02*
X001845Y006140D01*
X001845Y006139D02*
X001335Y006139D01*
X001335Y006138D02*
X001845Y006138D01*
X001844Y006137D02*
X001335Y006137D01*
X001336Y006136D02*
X001844Y006136D01*
X001844Y006135D02*
X001336Y006135D01*
X001336Y006134D02*
X001844Y006134D01*
X001844Y006133D02*
X001336Y006133D01*
X001336Y006132D02*
X001844Y006132D01*
X001844Y006131D02*
X001336Y006131D01*
X001336Y006130D02*
X001844Y006130D01*
X001843Y006129D02*
X001336Y006129D01*
X001337Y006128D02*
X001843Y006128D01*
X001843Y006127D02*
X001337Y006127D01*
X001337Y006126D02*
X001843Y006126D01*
X001843Y006125D02*
X001337Y006125D01*
X001337Y006124D02*
X001843Y006124D01*
X001843Y006123D02*
X001337Y006123D01*
X001337Y006122D02*
X001842Y006122D01*
X001842Y006121D02*
X001338Y006121D01*
X001338Y006120D02*
X001842Y006120D01*
X001841Y006119D02*
X001339Y006119D01*
X001339Y006118D02*
X001841Y006118D01*
X001840Y006117D02*
X001339Y006117D01*
X001340Y006116D02*
X001840Y006116D01*
X001840Y006115D02*
X001340Y006115D01*
X001341Y006114D02*
X001839Y006114D01*
X001839Y006113D02*
X001341Y006113D01*
X001341Y006112D02*
X001838Y006112D01*
X001838Y006111D02*
X001342Y006111D01*
X001342Y006110D02*
X001838Y006110D01*
X001837Y006109D02*
X001343Y006109D01*
X001343Y006108D02*
X001837Y006108D01*
X001836Y006107D02*
X001344Y006107D01*
X001344Y006106D02*
X001836Y006106D01*
X001835Y006105D02*
X001344Y006105D01*
X001345Y006104D02*
X001835Y006104D01*
X001835Y006103D02*
X001345Y006103D01*
X001346Y006102D02*
X001834Y006102D01*
X001834Y006101D02*
X001346Y006101D01*
X001346Y006100D02*
X001833Y006100D01*
X001833Y006099D02*
X001347Y006099D01*
X001347Y006098D02*
X001833Y006098D01*
X001832Y006097D02*
X001348Y006097D01*
X001349Y006096D02*
X001831Y006096D01*
X001830Y006095D02*
X001350Y006095D01*
X001350Y006094D02*
X001829Y006094D01*
X001829Y006093D02*
X001351Y006093D01*
X001352Y006092D02*
X001828Y006092D01*
X001827Y006091D02*
X001353Y006091D01*
X001353Y006090D02*
X001826Y006090D01*
X001826Y006089D02*
X001354Y006089D01*
X001355Y006088D02*
X001825Y006088D01*
X001824Y006087D02*
X001356Y006087D01*
X001357Y006086D02*
X001823Y006086D01*
X001823Y006085D02*
X001357Y006085D01*
X001358Y006084D02*
X001822Y006084D01*
X001821Y006083D02*
X001359Y006083D01*
X001360Y006082D02*
X001820Y006082D01*
X001820Y006081D02*
X001360Y006081D01*
X001361Y006080D02*
X001819Y006080D01*
X001818Y006079D02*
X001362Y006079D01*
X001363Y006078D02*
X001817Y006078D01*
X001816Y006077D02*
X001364Y006077D01*
X001365Y006076D02*
X001815Y006076D01*
X001813Y006075D02*
X001366Y006075D01*
X001368Y006074D02*
X001812Y006074D01*
X001811Y006073D02*
X001369Y006073D01*
X001370Y006072D02*
X001810Y006072D01*
X001808Y006071D02*
X001372Y006071D01*
X001373Y006070D02*
X001807Y006070D01*
X001806Y006069D02*
X001374Y006069D01*
X001376Y006068D02*
X001804Y006068D01*
X001803Y006067D02*
X001377Y006067D01*
X001378Y006066D02*
X001802Y006066D01*
X001800Y006065D02*
X001379Y006065D01*
X001381Y006064D02*
X001799Y006064D01*
X001798Y006063D02*
X001382Y006063D01*
X001383Y006062D02*
X001796Y006062D01*
X001794Y006061D02*
X001386Y006061D01*
X001388Y006060D02*
X001792Y006060D01*
X001789Y006059D02*
X001391Y006059D01*
X001393Y006058D02*
X001787Y006058D01*
X001784Y006057D02*
X001395Y006057D01*
X001398Y006056D02*
X001782Y006056D01*
X001780Y006055D02*
X001400Y006055D01*
X001403Y006054D02*
X001777Y006054D01*
X001775Y006053D02*
X001405Y006053D01*
X001409Y006052D02*
X001771Y006052D01*
X001763Y006051D02*
X001416Y006051D01*
X001424Y006050D02*
X001756Y006050D01*
X001748Y006049D02*
X001432Y006049D01*
X001425Y009436D02*
X001755Y009436D01*
X001762Y009437D02*
X001418Y009437D01*
X001410Y009438D02*
X001770Y009438D01*
X001774Y009439D02*
X001406Y009439D01*
X001403Y009440D02*
X001777Y009440D01*
X001779Y009441D02*
X001401Y009441D01*
X001398Y009442D02*
X001782Y009442D01*
X001784Y009443D02*
X001396Y009443D01*
X001393Y009444D02*
X001786Y009444D01*
X001789Y009445D02*
X001391Y009445D01*
X001389Y009446D02*
X001791Y009446D01*
X001794Y009447D02*
X001386Y009447D01*
X001384Y009448D02*
X001796Y009448D01*
X001798Y009449D02*
X001382Y009449D01*
X001381Y009450D02*
X001799Y009450D01*
X001800Y009451D02*
X001380Y009451D01*
X001378Y009452D02*
X001802Y009452D01*
X001803Y009453D02*
X001377Y009453D01*
X001376Y009454D02*
X001804Y009454D01*
X001805Y009455D02*
X001374Y009455D01*
X001373Y009456D02*
X001807Y009456D01*
X001808Y009457D02*
X001372Y009457D01*
X001371Y009458D02*
X001809Y009458D01*
X001811Y009459D02*
X001369Y009459D01*
X001368Y009460D02*
X001812Y009460D01*
X001813Y009461D02*
X001367Y009461D01*
X001365Y009462D02*
X001815Y009462D01*
X001816Y009463D02*
X001364Y009463D01*
X001363Y009464D02*
X001817Y009464D01*
X001818Y009465D02*
X001362Y009465D01*
X001361Y009466D02*
X001819Y009466D01*
X001819Y009467D02*
X001360Y009467D01*
X001360Y009468D02*
X001820Y009468D01*
X001821Y009469D02*
X001359Y009469D01*
X001358Y009470D02*
X001822Y009470D01*
X001822Y009471D02*
X001357Y009471D01*
X001357Y009472D02*
X001823Y009472D01*
X001824Y009473D02*
X001356Y009473D01*
X001355Y009474D02*
X001825Y009474D01*
X001826Y009475D02*
X001354Y009475D01*
X001354Y009476D02*
X001826Y009476D01*
X001827Y009477D02*
X001353Y009477D01*
X001352Y009478D02*
X001828Y009478D01*
X001829Y009479D02*
X001351Y009479D01*
X001351Y009480D02*
X001829Y009480D01*
X001830Y009481D02*
X001350Y009481D01*
X001349Y009482D02*
X001831Y009482D01*
X001832Y009483D02*
X001348Y009483D01*
X001347Y009484D02*
X001832Y009484D01*
X001833Y009485D02*
X001347Y009485D01*
X001347Y009486D02*
X001833Y009486D01*
X001834Y009487D02*
X001346Y009487D01*
X001346Y009488D02*
X001834Y009488D01*
X001835Y009489D02*
X001345Y009489D01*
X001345Y009490D02*
X001835Y009490D01*
X001835Y009491D02*
X001344Y009491D01*
X001344Y009492D02*
X001836Y009492D01*
X001836Y009493D02*
X001344Y009493D01*
X001343Y009494D02*
X001837Y009494D01*
X001837Y009495D02*
X001343Y009495D01*
X001342Y009496D02*
X001837Y009496D01*
X001838Y009497D02*
X001342Y009497D01*
X001342Y009498D02*
X001838Y009498D01*
X001839Y009499D02*
X001341Y009499D01*
X001341Y009500D02*
X001839Y009500D01*
X001840Y009501D02*
X001340Y009501D01*
X001340Y009502D02*
X001840Y009502D01*
X001840Y009503D02*
X001339Y009503D01*
X001339Y009504D02*
X001841Y009504D01*
X001841Y009505D02*
X001339Y009505D01*
X001338Y009506D02*
X001842Y009506D01*
X001842Y009507D02*
X001338Y009507D01*
X001337Y009508D02*
X001842Y009508D01*
X001843Y009509D02*
X001337Y009509D01*
X001337Y009510D02*
X001843Y009510D01*
X001843Y009511D02*
X001337Y009511D01*
X001337Y009512D02*
X001843Y009512D01*
X001843Y009513D02*
X001337Y009513D01*
X001337Y009514D02*
X001843Y009514D01*
X001843Y009515D02*
X001336Y009515D01*
X001336Y009516D02*
X001844Y009516D01*
X001844Y009517D02*
X001336Y009517D01*
X001336Y009518D02*
X001844Y009518D01*
X001844Y009519D02*
X001336Y009519D01*
X001336Y009520D02*
X001844Y009520D01*
X001844Y009521D02*
X001336Y009521D01*
X001336Y009522D02*
X001844Y009522D01*
X001844Y009523D02*
X001335Y009523D01*
X001335Y009524D02*
X001845Y009524D01*
X001845Y009525D02*
X001335Y009525D01*
X001335Y009526D02*
X001845Y009526D01*
X001845Y009527D02*
X001335Y009527D01*
X001335Y009528D02*
X001845Y009528D01*
X001845Y009529D02*
X001335Y009529D01*
X001334Y009530D02*
X001845Y009530D01*
X001845Y009531D02*
X001334Y009531D01*
X001334Y009532D02*
X001846Y009532D01*
X001846Y009533D02*
X001334Y009533D01*
X001334Y009534D02*
X001846Y009534D01*
X001846Y009535D02*
X001334Y009535D01*
X001334Y009536D02*
X001846Y009536D01*
X001846Y009537D02*
X001334Y009537D01*
X001334Y009538D02*
X001846Y009538D01*
X001846Y009539D02*
X001334Y009539D01*
X001334Y009540D02*
X001846Y009540D01*
X001846Y009541D02*
X001334Y009541D01*
X001334Y009542D02*
X001846Y009542D01*
X001846Y009543D02*
X001334Y009543D01*
X001334Y009544D02*
X001846Y009544D01*
X001846Y009545D02*
X001334Y009545D01*
X001334Y009546D02*
X001846Y009546D01*
X001846Y009547D02*
X001334Y009547D01*
X001334Y009548D02*
X001846Y009548D01*
X001846Y009549D02*
X001334Y009549D01*
X001334Y009550D02*
X001846Y009550D01*
X001846Y009551D02*
X001334Y009551D01*
X001334Y009552D02*
X001846Y009552D01*
X001846Y009553D02*
X001334Y009553D01*
X001334Y009554D02*
X001846Y009554D01*
X001846Y009555D02*
X001334Y009555D01*
X001334Y009556D02*
X001846Y009556D01*
X001846Y009557D02*
X001334Y009557D01*
X001334Y009558D02*
X001846Y009558D01*
X001846Y009559D02*
X001334Y009559D01*
X001334Y009560D02*
X001846Y009560D01*
X001846Y009561D02*
X001334Y009561D01*
X001334Y009562D02*
X001846Y009562D01*
X001846Y009563D02*
X001334Y009563D01*
X001334Y009564D02*
X001846Y009564D01*
X001846Y009565D02*
X001334Y009565D01*
X001334Y009566D02*
X001846Y009566D01*
X001846Y009567D02*
X001334Y009567D01*
X001334Y009568D02*
X001846Y009568D01*
X001846Y009569D02*
X001334Y009569D01*
X001334Y009570D02*
X001846Y009570D01*
X001846Y009571D02*
X001334Y009571D01*
X001334Y009572D02*
X001846Y009572D01*
X001846Y009573D02*
X001334Y009573D01*
X001334Y009574D02*
X001846Y009574D01*
X001846Y009575D02*
X001334Y009575D01*
X001334Y009576D02*
X001845Y009576D01*
X001845Y009577D02*
X001335Y009577D01*
X001335Y009578D02*
X001845Y009578D01*
X001845Y009579D02*
X001335Y009579D01*
X001335Y009580D02*
X001845Y009580D01*
X001845Y009581D02*
X001335Y009581D01*
X001335Y009582D02*
X001845Y009582D01*
X001845Y009583D02*
X001335Y009583D01*
X001335Y009584D02*
X001844Y009584D01*
X001844Y009585D02*
X001336Y009585D01*
X001336Y009586D02*
X001844Y009586D01*
X001844Y009587D02*
X001336Y009587D01*
X001336Y009588D02*
X001844Y009588D01*
X001844Y009589D02*
X001336Y009589D01*
X001336Y009590D02*
X001844Y009590D01*
X001843Y009591D02*
X001336Y009591D01*
X001337Y009592D02*
X001843Y009592D01*
X001843Y009593D02*
X001337Y009593D01*
X001337Y009594D02*
X001843Y009594D01*
X001843Y009595D02*
X001337Y009595D01*
X001337Y009596D02*
X001843Y009596D01*
X001843Y009597D02*
X001337Y009597D01*
X001337Y009598D02*
X001843Y009598D01*
X001842Y009599D02*
X001338Y009599D01*
X001338Y009600D02*
X001842Y009600D01*
X001841Y009601D02*
X001338Y009601D01*
X001339Y009602D02*
X001841Y009602D01*
X001841Y009603D02*
X001339Y009603D01*
X001340Y009604D02*
X001840Y009604D01*
X001840Y009605D02*
X001340Y009605D01*
X001340Y009606D02*
X001839Y009606D01*
X001839Y009607D02*
X001341Y009607D01*
X001341Y009608D02*
X001839Y009608D01*
X001838Y009609D02*
X001342Y009609D01*
X001342Y009610D02*
X001838Y009610D01*
X001837Y009611D02*
X001343Y009611D01*
X001343Y009612D02*
X001837Y009612D01*
X001836Y009613D02*
X001343Y009613D01*
X001344Y009614D02*
X001836Y009614D01*
X001836Y009615D02*
X001344Y009615D01*
X001345Y009616D02*
X001835Y009616D01*
X001835Y009617D02*
X001345Y009617D01*
X001345Y009618D02*
X001834Y009618D01*
X001834Y009619D02*
X001346Y009619D01*
X001346Y009620D02*
X001834Y009620D01*
X001833Y009621D02*
X001347Y009621D01*
X001347Y009622D02*
X001833Y009622D01*
X001832Y009623D02*
X001348Y009623D01*
X001349Y009624D02*
X001831Y009624D01*
X001831Y009625D02*
X001349Y009625D01*
X001350Y009626D02*
X001830Y009626D01*
X001829Y009627D02*
X001351Y009627D01*
X001352Y009628D02*
X001828Y009628D01*
X001827Y009629D02*
X001352Y009629D01*
X001353Y009630D02*
X001827Y009630D01*
X001826Y009631D02*
X001354Y009631D01*
X001355Y009632D02*
X001825Y009632D01*
X001824Y009633D02*
X001355Y009633D01*
X001356Y009634D02*
X001824Y009634D01*
X001823Y009635D02*
X001357Y009635D01*
X001358Y009636D02*
X001822Y009636D01*
X001821Y009637D02*
X001359Y009637D01*
X001359Y009638D02*
X001821Y009638D01*
X001820Y009639D02*
X001360Y009639D01*
X001361Y009640D02*
X001819Y009640D01*
X001818Y009641D02*
X001362Y009641D01*
X001362Y009642D02*
X001817Y009642D01*
X001817Y009643D02*
X001363Y009643D01*
X001365Y009644D02*
X001815Y009644D01*
X001814Y009645D02*
X001366Y009645D01*
X001367Y009646D02*
X001813Y009646D01*
X001811Y009647D02*
X001369Y009647D01*
X001370Y009648D02*
X001810Y009648D01*
X001809Y009649D02*
X001371Y009649D01*
X001372Y009650D02*
X001807Y009650D01*
X001806Y009651D02*
X001374Y009651D01*
X001375Y009652D02*
X001805Y009652D01*
X001804Y009653D02*
X001376Y009653D01*
X001378Y009654D02*
X001802Y009654D01*
X001801Y009655D02*
X001379Y009655D01*
X001380Y009656D02*
X001800Y009656D01*
X001798Y009657D02*
X001382Y009657D01*
X001383Y009658D02*
X001797Y009658D01*
X001795Y009659D02*
X001385Y009659D01*
X001387Y009660D02*
X001793Y009660D01*
X001790Y009661D02*
X001390Y009661D01*
X001392Y009662D02*
X001788Y009662D01*
X001785Y009663D02*
X001395Y009663D01*
X001397Y009664D02*
X001783Y009664D01*
X001780Y009665D02*
X001399Y009665D01*
X001402Y009666D02*
X001778Y009666D01*
X001776Y009667D02*
X001404Y009667D01*
X001407Y009668D02*
X001773Y009668D01*
X001766Y009669D02*
X001413Y009669D01*
X001421Y009670D02*
X001759Y009670D01*
X001751Y009671D02*
X001429Y009671D01*
X002948Y009573D02*
X003539Y009573D01*
X003539Y009574D02*
X002948Y009574D01*
X002948Y009575D02*
X003538Y009575D01*
X003538Y009576D02*
X002949Y009576D01*
X002949Y009577D02*
X003538Y009577D01*
X003538Y009578D02*
X002949Y009578D01*
X002949Y009579D02*
X003538Y009579D01*
X003538Y009580D02*
X002949Y009580D01*
X002949Y009581D02*
X003538Y009581D01*
X003538Y009582D02*
X002949Y009582D01*
X002950Y009583D02*
X003537Y009583D01*
X003537Y009584D02*
X002950Y009584D01*
X002950Y009585D02*
X003537Y009585D01*
X003537Y009586D02*
X002950Y009586D01*
X002950Y009587D02*
X003537Y009587D01*
X003537Y009588D02*
X002950Y009588D01*
X002950Y009589D02*
X003537Y009589D01*
X003537Y009590D02*
X002950Y009590D01*
X002951Y009591D02*
X003536Y009591D01*
X003536Y009592D02*
X002951Y009592D01*
X002951Y009593D02*
X003536Y009593D01*
X003536Y009594D02*
X002951Y009594D01*
X002951Y009595D02*
X003536Y009595D01*
X003536Y009596D02*
X002951Y009596D01*
X002951Y009597D02*
X003536Y009597D01*
X003535Y009598D02*
X002951Y009598D01*
X002952Y009599D02*
X003535Y009599D01*
X003535Y009600D02*
X002952Y009600D01*
X002953Y009601D02*
X003534Y009601D01*
X003534Y009602D02*
X002953Y009602D01*
X002953Y009603D02*
X003534Y009603D01*
X003533Y009604D02*
X002954Y009604D01*
X002954Y009605D02*
X003533Y009605D01*
X003532Y009606D02*
X002955Y009606D01*
X002955Y009607D02*
X003532Y009607D01*
X003531Y009608D02*
X002955Y009608D01*
X002956Y009609D02*
X003531Y009609D01*
X003531Y009610D02*
X002956Y009610D01*
X002957Y009611D02*
X003530Y009611D01*
X003530Y009612D02*
X002957Y009612D01*
X002958Y009613D02*
X003529Y009613D01*
X003529Y009614D02*
X002958Y009614D01*
X002958Y009615D02*
X003529Y009615D01*
X003528Y009616D02*
X002959Y009616D01*
X002959Y009617D02*
X003528Y009617D01*
X003527Y009618D02*
X002960Y009618D01*
X002960Y009619D02*
X003527Y009619D01*
X003526Y009620D02*
X002960Y009620D01*
X002961Y009621D02*
X003526Y009621D01*
X003526Y009622D02*
X002961Y009622D01*
X002962Y009623D02*
X003525Y009623D01*
X003524Y009624D02*
X002963Y009624D01*
X002963Y009625D02*
X003523Y009625D01*
X003523Y009626D02*
X002964Y009626D01*
X002965Y009627D02*
X003522Y009627D01*
X003521Y009628D02*
X002966Y009628D01*
X002967Y009629D02*
X003520Y009629D01*
X003520Y009630D02*
X002967Y009630D01*
X002968Y009631D02*
X003519Y009631D01*
X003518Y009632D02*
X002969Y009632D01*
X002970Y009633D02*
X003517Y009633D01*
X003517Y009634D02*
X002970Y009634D01*
X002971Y009635D02*
X003516Y009635D01*
X003515Y009636D02*
X002972Y009636D01*
X002973Y009637D02*
X003514Y009637D01*
X003513Y009638D02*
X002973Y009638D01*
X002974Y009639D02*
X003513Y009639D01*
X003512Y009640D02*
X002975Y009640D01*
X002976Y009641D02*
X003511Y009641D01*
X003510Y009642D02*
X002977Y009642D01*
X002977Y009643D02*
X003509Y009643D01*
X003508Y009644D02*
X002979Y009644D01*
X002980Y009645D02*
X003507Y009645D01*
X003506Y009646D02*
X002981Y009646D01*
X002983Y009647D02*
X003504Y009647D01*
X003503Y009648D02*
X002984Y009648D01*
X002985Y009649D02*
X003502Y009649D01*
X003500Y009650D02*
X002987Y009650D01*
X002988Y009651D02*
X003499Y009651D01*
X003498Y009652D02*
X002989Y009652D01*
X002991Y009653D02*
X003496Y009653D01*
X003495Y009654D02*
X002992Y009654D01*
X002993Y009655D02*
X003494Y009655D01*
X003493Y009656D02*
X002994Y009656D01*
X002996Y009657D02*
X003491Y009657D01*
X003490Y009658D02*
X002997Y009658D01*
X002999Y009659D02*
X003488Y009659D01*
X003485Y009660D02*
X003002Y009660D01*
X003004Y009661D02*
X003483Y009661D01*
X003481Y009662D02*
X003006Y009662D01*
X003009Y009663D02*
X003478Y009663D01*
X003476Y009664D02*
X003011Y009664D01*
X003014Y009665D02*
X003473Y009665D01*
X003471Y009666D02*
X003016Y009666D01*
X003018Y009667D02*
X003469Y009667D01*
X003466Y009668D02*
X003021Y009668D01*
X003028Y009669D02*
X003459Y009669D01*
X003452Y009670D02*
X003035Y009670D01*
X003043Y009671D02*
X003444Y009671D01*
X003539Y009572D02*
X002948Y009572D01*
X002948Y009571D02*
X003539Y009571D01*
X003539Y009570D02*
X002948Y009570D01*
X002948Y009569D02*
X003539Y009569D01*
X003539Y009568D02*
X002948Y009568D01*
X002948Y009567D02*
X003539Y009567D01*
X003539Y009566D02*
X002948Y009566D01*
X002948Y009565D02*
X003539Y009565D01*
X003539Y009564D02*
X002948Y009564D01*
X002948Y009563D02*
X003539Y009563D01*
X003539Y009562D02*
X002948Y009562D01*
X002948Y009561D02*
X003539Y009561D01*
X003539Y009560D02*
X002948Y009560D01*
X002948Y009559D02*
X003539Y009559D01*
X003539Y009558D02*
X002948Y009558D01*
X002948Y009557D02*
X003539Y009557D01*
X003539Y009556D02*
X002948Y009556D01*
X002948Y009555D02*
X003539Y009555D01*
X003539Y009554D02*
X002948Y009554D01*
X002948Y009553D02*
X003539Y009553D01*
X003539Y009552D02*
X002948Y009552D01*
X002948Y009551D02*
X003539Y009551D01*
X003539Y009550D02*
X002948Y009550D01*
X002948Y009549D02*
X003539Y009549D01*
X003539Y009548D02*
X002948Y009548D01*
X002948Y009547D02*
X003539Y009547D01*
X003539Y009546D02*
X002948Y009546D01*
X002948Y009545D02*
X003539Y009545D01*
X003539Y009544D02*
X002948Y009544D01*
X002948Y009543D02*
X003539Y009543D01*
X003539Y009542D02*
X002948Y009542D01*
X002948Y009541D02*
X003539Y009541D01*
X003539Y009540D02*
X002948Y009540D01*
X002948Y009539D02*
X003539Y009539D01*
X003539Y009538D02*
X002948Y009538D01*
X002948Y009537D02*
X003539Y009537D01*
X003539Y009536D02*
X002948Y009536D01*
X002948Y009535D02*
X003539Y009535D01*
X003539Y009534D02*
X002948Y009534D01*
X002948Y009533D02*
X003539Y009533D01*
X003539Y009532D02*
X002948Y009532D01*
X002949Y009531D02*
X003538Y009531D01*
X003538Y009530D02*
X002949Y009530D01*
X002949Y009529D02*
X003538Y009529D01*
X003538Y009528D02*
X002949Y009528D01*
X002949Y009527D02*
X003538Y009527D01*
X003538Y009526D02*
X002949Y009526D01*
X002949Y009525D02*
X003538Y009525D01*
X003537Y009524D02*
X002949Y009524D01*
X002950Y009523D02*
X003537Y009523D01*
X003537Y009522D02*
X002950Y009522D01*
X002950Y009521D02*
X003537Y009521D01*
X003537Y009520D02*
X002950Y009520D01*
X002950Y009519D02*
X003537Y009519D01*
X003537Y009518D02*
X002950Y009518D01*
X002950Y009517D02*
X003537Y009517D01*
X003536Y009516D02*
X002950Y009516D01*
X002951Y009515D02*
X003536Y009515D01*
X003536Y009514D02*
X002951Y009514D01*
X002951Y009513D02*
X003536Y009513D01*
X003536Y009512D02*
X002951Y009512D01*
X002951Y009511D02*
X003536Y009511D01*
X003536Y009510D02*
X002951Y009510D01*
X002951Y009509D02*
X003536Y009509D01*
X003535Y009508D02*
X002952Y009508D01*
X002952Y009507D02*
X003535Y009507D01*
X003535Y009506D02*
X002952Y009506D01*
X002953Y009505D02*
X003534Y009505D01*
X003534Y009504D02*
X002953Y009504D01*
X002954Y009503D02*
X003533Y009503D01*
X003533Y009502D02*
X002954Y009502D01*
X002954Y009501D02*
X003532Y009501D01*
X003532Y009500D02*
X002955Y009500D01*
X002955Y009499D02*
X003532Y009499D01*
X003531Y009498D02*
X002956Y009498D01*
X002956Y009497D02*
X003531Y009497D01*
X003530Y009496D02*
X002957Y009496D01*
X002957Y009495D02*
X003530Y009495D01*
X003530Y009494D02*
X002957Y009494D01*
X002958Y009493D02*
X003529Y009493D01*
X003529Y009492D02*
X002958Y009492D01*
X002959Y009491D02*
X003528Y009491D01*
X003528Y009490D02*
X002959Y009490D01*
X002959Y009489D02*
X003527Y009489D01*
X003527Y009488D02*
X002960Y009488D01*
X002960Y009487D02*
X003527Y009487D01*
X003526Y009486D02*
X002961Y009486D01*
X002961Y009485D02*
X003526Y009485D01*
X003525Y009484D02*
X002962Y009484D01*
X002962Y009483D02*
X003525Y009483D01*
X003524Y009482D02*
X002963Y009482D01*
X002964Y009481D02*
X003523Y009481D01*
X003522Y009480D02*
X002965Y009480D01*
X002965Y009479D02*
X003521Y009479D01*
X003521Y009478D02*
X002966Y009478D01*
X002967Y009477D02*
X003520Y009477D01*
X003519Y009476D02*
X002968Y009476D01*
X002969Y009475D02*
X003518Y009475D01*
X003518Y009474D02*
X002969Y009474D01*
X002970Y009473D02*
X003517Y009473D01*
X003516Y009472D02*
X002971Y009472D01*
X002972Y009471D02*
X003515Y009471D01*
X003515Y009470D02*
X002972Y009470D01*
X002973Y009469D02*
X003514Y009469D01*
X003513Y009468D02*
X002974Y009468D01*
X002975Y009467D02*
X003512Y009467D01*
X003512Y009466D02*
X002975Y009466D01*
X002976Y009465D02*
X003511Y009465D01*
X003510Y009464D02*
X002977Y009464D01*
X002978Y009463D02*
X003509Y009463D01*
X003507Y009462D02*
X002979Y009462D01*
X002981Y009461D02*
X003506Y009461D01*
X003505Y009460D02*
X002982Y009460D01*
X002983Y009459D02*
X003504Y009459D01*
X003502Y009458D02*
X002985Y009458D01*
X002986Y009457D02*
X003501Y009457D01*
X003500Y009456D02*
X002987Y009456D01*
X002989Y009455D02*
X003498Y009455D01*
X003497Y009454D02*
X002990Y009454D01*
X002991Y009453D02*
X003496Y009453D01*
X003494Y009452D02*
X002993Y009452D01*
X002994Y009451D02*
X003493Y009451D01*
X003492Y009450D02*
X002995Y009450D01*
X002996Y009449D02*
X003491Y009449D01*
X003489Y009448D02*
X002998Y009448D01*
X003000Y009447D02*
X003487Y009447D01*
X003484Y009446D02*
X003003Y009446D01*
X003005Y009445D02*
X003482Y009445D01*
X003479Y009444D02*
X003008Y009444D01*
X003010Y009443D02*
X003477Y009443D01*
X003474Y009442D02*
X003012Y009442D01*
X003015Y009441D02*
X003472Y009441D01*
X003470Y009440D02*
X003017Y009440D01*
X003020Y009439D02*
X003467Y009439D01*
X003463Y009438D02*
X003024Y009438D01*
X003032Y009437D02*
X003455Y009437D01*
X003448Y009436D02*
X003039Y009436D01*
D14*
X002810Y009360D02*
X002810Y009210D01*
X002810Y009360D02*
X002660Y009360D01*
X002810Y009360D02*
X002510Y009060D01*
X002210Y009060D02*
X001910Y009360D01*
X002060Y009360D01*
X001910Y009360D02*
X001910Y009210D01*
X002210Y006660D02*
X001910Y006360D01*
X001910Y006510D01*
X001910Y006360D02*
X002060Y006360D01*
X002510Y006660D02*
X002810Y006360D01*
X002660Y006360D01*
X002810Y006360D02*
X002810Y006510D01*
M02*
