G75*
G70*
%OFA0B0*%
%FSLAX24Y24*%
%IPPOS*%
%LPD*%
%AMOC8*
5,1,8,0,0,1.08239X$1,22.5*
%
%ADD10C,0.0100*%
%ADD11R,0.0787X0.2362*%
%ADD12R,0.0394X0.2362*%
%ADD13C,0.0000*%
%ADD14R,0.0650X0.0650*%
%ADD15C,0.0650*%
%ADD16C,0.0394*%
%ADD17C,0.0433*%
%ADD18C,0.0120*%
%ADD19C,0.0200*%
%ADD20C,0.0320*%
%ADD21C,0.0240*%
D10*
X001688Y000664D02*
X015232Y000664D01*
X015299Y000666D01*
X015366Y000672D01*
X015433Y000681D01*
X015499Y000694D01*
X015564Y000711D01*
X015628Y000731D01*
X015691Y000755D01*
X015753Y000783D01*
X015812Y000814D01*
X015870Y000848D01*
X015926Y000885D01*
X015980Y000926D01*
X016032Y000969D01*
X016081Y001015D01*
X016127Y001064D01*
X016170Y001116D01*
X016211Y001170D01*
X016248Y001226D01*
X016282Y001284D01*
X016313Y001343D01*
X016341Y001405D01*
X016365Y001468D01*
X016385Y001532D01*
X016402Y001597D01*
X016415Y001663D01*
X016424Y001730D01*
X016430Y001797D01*
X016432Y001864D01*
X016432Y012456D01*
X016430Y012523D01*
X016424Y012590D01*
X016415Y012657D01*
X016402Y012723D01*
X016385Y012788D01*
X016365Y012852D01*
X016341Y012915D01*
X016313Y012977D01*
X016282Y013036D01*
X016248Y013094D01*
X016211Y013150D01*
X016170Y013204D01*
X016127Y013256D01*
X016081Y013305D01*
X016032Y013351D01*
X015980Y013394D01*
X015926Y013435D01*
X015870Y013472D01*
X015812Y013506D01*
X015753Y013537D01*
X015691Y013565D01*
X015628Y013589D01*
X015564Y013609D01*
X015499Y013626D01*
X015433Y013639D01*
X015366Y013648D01*
X015299Y013654D01*
X015232Y013656D01*
X001688Y013656D01*
X001621Y013654D01*
X001554Y013648D01*
X001487Y013639D01*
X001421Y013626D01*
X001356Y013609D01*
X001292Y013589D01*
X001229Y013565D01*
X001167Y013537D01*
X001108Y013506D01*
X001050Y013472D01*
X000994Y013435D01*
X000940Y013394D01*
X000888Y013351D01*
X000839Y013305D01*
X000793Y013256D01*
X000750Y013204D01*
X000709Y013150D01*
X000672Y013094D01*
X000638Y013036D01*
X000607Y012977D01*
X000579Y012915D01*
X000555Y012852D01*
X000535Y012788D01*
X000518Y012723D01*
X000505Y012657D01*
X000496Y012590D01*
X000490Y012523D01*
X000488Y012456D01*
X000488Y001864D01*
X000490Y001797D01*
X000496Y001730D01*
X000505Y001663D01*
X000518Y001597D01*
X000535Y001532D01*
X000555Y001468D01*
X000579Y001405D01*
X000607Y001343D01*
X000638Y001284D01*
X000672Y001226D01*
X000709Y001170D01*
X000750Y001116D01*
X000793Y001064D01*
X000839Y001015D01*
X000888Y000969D01*
X000940Y000926D01*
X000994Y000885D01*
X001050Y000848D01*
X001108Y000814D01*
X001167Y000783D01*
X001229Y000755D01*
X001292Y000731D01*
X001356Y000711D01*
X001421Y000694D01*
X001487Y000681D01*
X001554Y000672D01*
X001621Y000666D01*
X001688Y000664D01*
D11*
X001460Y001848D03*
X002460Y001848D03*
X003460Y001848D03*
X004460Y001848D03*
X005460Y001848D03*
X006460Y001848D03*
X007460Y001848D03*
X008460Y001848D03*
X009460Y001848D03*
X010460Y001848D03*
X011460Y001848D03*
X012460Y001848D03*
X013460Y001848D03*
X014460Y001848D03*
X015460Y001848D03*
D12*
X016255Y001848D03*
X000665Y001848D03*
D13*
X002909Y006722D02*
X002911Y006743D01*
X002917Y006763D01*
X002926Y006783D01*
X002938Y006800D01*
X002953Y006814D01*
X002971Y006826D01*
X002991Y006834D01*
X003011Y006839D01*
X003032Y006840D01*
X003053Y006837D01*
X003073Y006831D01*
X003092Y006820D01*
X003109Y006807D01*
X003122Y006791D01*
X003133Y006773D01*
X003141Y006753D01*
X003145Y006733D01*
X003145Y006711D01*
X003141Y006691D01*
X003133Y006671D01*
X003122Y006653D01*
X003109Y006637D01*
X003092Y006624D01*
X003073Y006613D01*
X003053Y006607D01*
X003032Y006604D01*
X003011Y006605D01*
X002991Y006610D01*
X002971Y006618D01*
X002953Y006630D01*
X002938Y006644D01*
X002926Y006661D01*
X002917Y006681D01*
X002911Y006701D01*
X002909Y006722D01*
X002909Y008998D02*
X002911Y009019D01*
X002917Y009039D01*
X002926Y009059D01*
X002938Y009076D01*
X002953Y009090D01*
X002971Y009102D01*
X002991Y009110D01*
X003011Y009115D01*
X003032Y009116D01*
X003053Y009113D01*
X003073Y009107D01*
X003092Y009096D01*
X003109Y009083D01*
X003122Y009067D01*
X003133Y009049D01*
X003141Y009029D01*
X003145Y009009D01*
X003145Y008987D01*
X003141Y008967D01*
X003133Y008947D01*
X003122Y008929D01*
X003109Y008913D01*
X003092Y008900D01*
X003073Y008889D01*
X003053Y008883D01*
X003032Y008880D01*
X003011Y008881D01*
X002991Y008886D01*
X002971Y008894D01*
X002953Y008906D01*
X002938Y008920D01*
X002926Y008937D01*
X002917Y008957D01*
X002911Y008977D01*
X002909Y008998D01*
X001369Y012160D02*
X001371Y012208D01*
X001377Y012256D01*
X001387Y012303D01*
X001400Y012349D01*
X001418Y012394D01*
X001438Y012438D01*
X001463Y012480D01*
X001491Y012519D01*
X001521Y012556D01*
X001555Y012590D01*
X001592Y012622D01*
X001630Y012651D01*
X001671Y012676D01*
X001714Y012698D01*
X001759Y012716D01*
X001805Y012730D01*
X001852Y012741D01*
X001900Y012748D01*
X001948Y012751D01*
X001996Y012750D01*
X002044Y012745D01*
X002092Y012736D01*
X002138Y012724D01*
X002183Y012707D01*
X002227Y012687D01*
X002269Y012664D01*
X002309Y012637D01*
X002347Y012607D01*
X002382Y012574D01*
X002414Y012538D01*
X002444Y012500D01*
X002470Y012459D01*
X002492Y012416D01*
X002512Y012372D01*
X002527Y012327D01*
X002539Y012280D01*
X002547Y012232D01*
X002551Y012184D01*
X002551Y012136D01*
X002547Y012088D01*
X002539Y012040D01*
X002527Y011993D01*
X002512Y011948D01*
X002492Y011904D01*
X002470Y011861D01*
X002444Y011820D01*
X002414Y011782D01*
X002382Y011746D01*
X002347Y011713D01*
X002309Y011683D01*
X002269Y011656D01*
X002227Y011633D01*
X002183Y011613D01*
X002138Y011596D01*
X002092Y011584D01*
X002044Y011575D01*
X001996Y011570D01*
X001948Y011569D01*
X001900Y011572D01*
X001852Y011579D01*
X001805Y011590D01*
X001759Y011604D01*
X001714Y011622D01*
X001671Y011644D01*
X001630Y011669D01*
X001592Y011698D01*
X001555Y011730D01*
X001521Y011764D01*
X001491Y011801D01*
X001463Y011840D01*
X001438Y011882D01*
X001418Y011926D01*
X001400Y011971D01*
X001387Y012017D01*
X001377Y012064D01*
X001371Y012112D01*
X001369Y012160D01*
X014369Y012160D02*
X014371Y012208D01*
X014377Y012256D01*
X014387Y012303D01*
X014400Y012349D01*
X014418Y012394D01*
X014438Y012438D01*
X014463Y012480D01*
X014491Y012519D01*
X014521Y012556D01*
X014555Y012590D01*
X014592Y012622D01*
X014630Y012651D01*
X014671Y012676D01*
X014714Y012698D01*
X014759Y012716D01*
X014805Y012730D01*
X014852Y012741D01*
X014900Y012748D01*
X014948Y012751D01*
X014996Y012750D01*
X015044Y012745D01*
X015092Y012736D01*
X015138Y012724D01*
X015183Y012707D01*
X015227Y012687D01*
X015269Y012664D01*
X015309Y012637D01*
X015347Y012607D01*
X015382Y012574D01*
X015414Y012538D01*
X015444Y012500D01*
X015470Y012459D01*
X015492Y012416D01*
X015512Y012372D01*
X015527Y012327D01*
X015539Y012280D01*
X015547Y012232D01*
X015551Y012184D01*
X015551Y012136D01*
X015547Y012088D01*
X015539Y012040D01*
X015527Y011993D01*
X015512Y011948D01*
X015492Y011904D01*
X015470Y011861D01*
X015444Y011820D01*
X015414Y011782D01*
X015382Y011746D01*
X015347Y011713D01*
X015309Y011683D01*
X015269Y011656D01*
X015227Y011633D01*
X015183Y011613D01*
X015138Y011596D01*
X015092Y011584D01*
X015044Y011575D01*
X014996Y011570D01*
X014948Y011569D01*
X014900Y011572D01*
X014852Y011579D01*
X014805Y011590D01*
X014759Y011604D01*
X014714Y011622D01*
X014671Y011644D01*
X014630Y011669D01*
X014592Y011698D01*
X014555Y011730D01*
X014521Y011764D01*
X014491Y011801D01*
X014463Y011840D01*
X014438Y011882D01*
X014418Y011926D01*
X014400Y011971D01*
X014387Y012017D01*
X014377Y012064D01*
X014371Y012112D01*
X014369Y012160D01*
D14*
X015460Y005410D03*
D15*
X015460Y006410D03*
X015460Y007410D03*
X015460Y008410D03*
X015460Y009410D03*
X015460Y010410D03*
D16*
X001787Y009553D02*
X001393Y009553D01*
X001393Y006167D02*
X001787Y006167D01*
D17*
X003027Y006167D02*
X003460Y006167D01*
X003460Y009553D02*
X003027Y009553D01*
D18*
X002754Y009293D02*
X000718Y009293D01*
X000718Y009175D02*
X002782Y009175D01*
X002774Y009167D02*
X002729Y009057D01*
X002729Y008938D01*
X002774Y008829D01*
X002858Y008745D01*
X002968Y008700D01*
X003086Y008700D01*
X003196Y008745D01*
X003280Y008829D01*
X003325Y008938D01*
X003325Y009057D01*
X003280Y009167D01*
X003270Y009176D01*
X003497Y009176D01*
X003570Y009191D01*
X003638Y009219D01*
X003700Y009260D01*
X003752Y009313D01*
X003794Y009375D01*
X003822Y009443D01*
X003837Y009516D01*
X003837Y009553D01*
X003837Y009590D01*
X003822Y009663D01*
X003794Y009731D01*
X003752Y009793D01*
X003700Y009845D01*
X003638Y009887D01*
X003570Y009915D01*
X003497Y009929D01*
X003243Y009929D01*
X002990Y009929D01*
X002917Y009915D01*
X002849Y009887D01*
X002787Y009845D01*
X002734Y009793D01*
X002693Y009731D01*
X002665Y009663D01*
X002650Y009590D01*
X002650Y009553D01*
X003243Y009553D01*
X003243Y009553D01*
X002650Y009553D01*
X002650Y009516D01*
X002665Y009443D01*
X002693Y009375D01*
X002734Y009313D01*
X002787Y009260D01*
X002836Y009228D01*
X002774Y009167D01*
X002729Y009056D02*
X000718Y009056D01*
X000718Y008938D02*
X002729Y008938D01*
X002784Y008819D02*
X000718Y008819D01*
X000718Y008701D02*
X002966Y008701D01*
X003088Y008701D02*
X006680Y008701D01*
X006680Y008716D02*
X006680Y008604D01*
X006723Y008501D01*
X006801Y008423D01*
X006904Y008380D01*
X007016Y008380D01*
X007112Y008420D01*
X014758Y008420D01*
X014846Y008457D01*
X014913Y008524D01*
X014994Y008605D01*
X014955Y008510D01*
X014955Y008310D01*
X014974Y008263D01*
X014861Y008150D01*
X012562Y008150D01*
X012466Y008190D01*
X012354Y008190D01*
X012251Y008147D01*
X012173Y008069D01*
X012130Y007966D01*
X012130Y007854D01*
X012173Y007751D01*
X012234Y007690D01*
X012204Y007690D01*
X012101Y007647D01*
X012023Y007569D01*
X011980Y007466D01*
X011980Y007354D01*
X012023Y007251D01*
X012101Y007173D01*
X012204Y007130D01*
X012284Y007130D01*
X012223Y007069D01*
X012180Y006966D01*
X012180Y006854D01*
X012223Y006751D01*
X012301Y006673D01*
X012404Y006630D01*
X012516Y006630D01*
X012612Y006670D01*
X014308Y006670D01*
X014404Y006630D01*
X014516Y006630D01*
X014612Y006670D01*
X014861Y006670D01*
X014974Y006557D01*
X014955Y006510D01*
X014955Y006310D01*
X015032Y006124D01*
X015174Y005982D01*
X015335Y005915D01*
X015060Y005915D01*
X014955Y005810D01*
X014955Y005650D01*
X014362Y005650D01*
X014266Y005690D01*
X014154Y005690D01*
X014051Y005647D01*
X013973Y005569D01*
X013933Y005472D01*
X013111Y004650D01*
X013064Y004650D01*
X013119Y004673D01*
X013197Y004751D01*
X013240Y004854D01*
X013240Y004966D01*
X013197Y005069D01*
X013119Y005147D01*
X013016Y005190D01*
X012904Y005190D01*
X012801Y005147D01*
X012723Y005069D01*
X012683Y004972D01*
X012611Y004900D01*
X011690Y004900D01*
X011690Y004966D01*
X011647Y005069D01*
X011569Y005147D01*
X011466Y005190D01*
X011354Y005190D01*
X011258Y005150D01*
X007789Y005150D01*
X008272Y005633D01*
X008369Y005673D01*
X008447Y005751D01*
X008490Y005854D01*
X008490Y005966D01*
X008447Y006069D01*
X008369Y006147D01*
X008266Y006190D01*
X008154Y006190D01*
X008051Y006147D01*
X007973Y006069D01*
X007960Y006038D01*
X007947Y006069D01*
X007869Y006147D01*
X007766Y006190D01*
X007654Y006190D01*
X007551Y006147D01*
X007473Y006069D01*
X007433Y005972D01*
X007111Y005650D01*
X001012Y005650D01*
X000916Y005690D01*
X000804Y005690D01*
X000718Y005654D01*
X000718Y012456D01*
X000726Y012583D01*
X000791Y012827D01*
X000918Y013047D01*
X001097Y013226D01*
X001316Y013352D01*
X001561Y013418D01*
X001688Y013426D01*
X015232Y013426D01*
X015359Y013418D01*
X015604Y013352D01*
X015823Y013226D01*
X016002Y013047D01*
X016129Y012827D01*
X016194Y012583D01*
X016202Y012456D01*
X016202Y003209D01*
X015984Y003209D01*
X015956Y003181D01*
X015928Y003209D01*
X015800Y003209D01*
X015800Y003228D01*
X015748Y003353D01*
X015653Y003448D01*
X015528Y003500D01*
X015392Y003500D01*
X015267Y003448D01*
X015172Y003353D01*
X015120Y003228D01*
X015120Y003209D01*
X014992Y003209D01*
X014944Y003162D01*
X014915Y003178D01*
X014875Y003189D01*
X014520Y003189D01*
X014520Y001908D01*
X014400Y001908D01*
X014400Y003189D01*
X014045Y003189D01*
X014005Y003178D01*
X013976Y003162D01*
X013928Y003209D01*
X012992Y003209D01*
X012960Y003178D01*
X012928Y003209D01*
X011992Y003209D01*
X011960Y003178D01*
X011928Y003209D01*
X010992Y003209D01*
X010960Y003178D01*
X010928Y003209D01*
X009992Y003209D01*
X009960Y003178D01*
X009928Y003209D01*
X008992Y003209D01*
X008960Y003178D01*
X008928Y003209D01*
X007992Y003209D01*
X007960Y003178D01*
X007928Y003209D01*
X007700Y003209D01*
X007700Y003811D01*
X008059Y004170D01*
X013258Y004170D01*
X013346Y004207D01*
X013413Y004274D01*
X014272Y005133D01*
X014362Y005170D01*
X014955Y005170D01*
X014955Y005010D01*
X015060Y004905D01*
X015860Y004905D01*
X015965Y005010D01*
X015965Y005810D01*
X015860Y005915D01*
X015585Y005915D01*
X015746Y005982D01*
X015888Y006124D01*
X015965Y006310D01*
X015965Y006510D01*
X015888Y006696D01*
X015746Y006838D01*
X015573Y006910D01*
X015746Y006982D01*
X015888Y007124D01*
X015965Y007310D01*
X015965Y007510D01*
X015888Y007696D01*
X015746Y007838D01*
X015573Y007910D01*
X015746Y007982D01*
X015888Y008124D01*
X015965Y008310D01*
X015965Y008510D01*
X015888Y008696D01*
X015746Y008838D01*
X015573Y008910D01*
X015746Y008982D01*
X015888Y009124D01*
X015965Y009310D01*
X015965Y009510D01*
X015888Y009696D01*
X015746Y009838D01*
X015560Y009915D01*
X015360Y009915D01*
X015174Y009838D01*
X015032Y009696D01*
X014955Y009510D01*
X014955Y009310D01*
X014974Y009263D01*
X014611Y008900D01*
X007112Y008900D01*
X007016Y008940D01*
X006904Y008940D01*
X006801Y008897D01*
X006723Y008819D01*
X003270Y008819D01*
X003325Y008938D02*
X006898Y008938D01*
X007022Y008938D02*
X014648Y008938D01*
X014767Y009056D02*
X003325Y009056D01*
X003272Y009175D02*
X014885Y009175D01*
X014962Y009293D02*
X003733Y009293D01*
X003809Y009412D02*
X014955Y009412D01*
X014963Y009530D02*
X003837Y009530D01*
X003837Y009553D02*
X003243Y009553D01*
X003243Y009929D01*
X003243Y009553D01*
X003243Y009553D01*
X003837Y009553D01*
X003825Y009649D02*
X015012Y009649D01*
X015103Y009767D02*
X003770Y009767D01*
X003640Y009886D02*
X015288Y009886D01*
X015274Y009961D02*
X015346Y009937D01*
X015422Y009925D01*
X015432Y009925D01*
X015432Y010382D01*
X015488Y010382D01*
X015488Y010438D01*
X015945Y010438D01*
X015945Y010448D01*
X015933Y010524D01*
X015909Y010596D01*
X015875Y010664D01*
X015830Y010726D01*
X015776Y010780D01*
X015714Y010825D01*
X015646Y010859D01*
X015574Y010883D01*
X015498Y010895D01*
X015488Y010895D01*
X015488Y010438D01*
X015432Y010438D01*
X015432Y010895D01*
X015422Y010895D01*
X015346Y010883D01*
X015274Y010859D01*
X015206Y010825D01*
X015144Y010780D01*
X015090Y010726D01*
X015045Y010664D01*
X015011Y010596D01*
X014987Y010524D01*
X014975Y010448D01*
X014975Y010438D01*
X015432Y010438D01*
X015432Y010382D01*
X014975Y010382D01*
X014975Y010372D01*
X014987Y010296D01*
X015011Y010224D01*
X015045Y010156D01*
X015090Y010094D01*
X015144Y010040D01*
X015206Y009995D01*
X015274Y009961D01*
X015194Y010004D02*
X000718Y010004D01*
X000718Y009886D02*
X002847Y009886D01*
X002717Y009767D02*
X000718Y009767D01*
X000718Y009649D02*
X002662Y009649D01*
X002650Y009530D02*
X000718Y009530D01*
X000718Y009412D02*
X002678Y009412D01*
X003243Y009553D02*
X003243Y009553D01*
X003243Y009649D02*
X003243Y009649D01*
X003243Y009767D02*
X003243Y009767D01*
X003243Y009886D02*
X003243Y009886D01*
X003990Y008364D02*
X004100Y008410D01*
X004220Y008410D01*
X004330Y008364D01*
X005014Y007680D01*
X005060Y007570D01*
X005060Y006625D01*
X005014Y006515D01*
X004930Y006431D01*
X004820Y006385D01*
X004700Y006385D01*
X004590Y006431D01*
X004506Y006515D01*
X004460Y006625D01*
X004460Y007386D01*
X003906Y007940D01*
X003860Y008050D01*
X003860Y008170D01*
X003906Y008280D01*
X003990Y008364D01*
X003971Y008345D02*
X000718Y008345D01*
X000718Y008227D02*
X003884Y008227D01*
X003860Y008108D02*
X000718Y008108D01*
X000718Y007990D02*
X003885Y007990D01*
X003975Y007871D02*
X000718Y007871D01*
X000718Y007753D02*
X004093Y007753D01*
X004212Y007634D02*
X000718Y007634D01*
X000718Y007516D02*
X004330Y007516D01*
X004449Y007397D02*
X000718Y007397D01*
X000718Y007279D02*
X004460Y007279D01*
X004460Y007160D02*
X000718Y007160D01*
X000718Y007041D02*
X004460Y007041D01*
X004460Y006923D02*
X003248Y006923D01*
X003280Y006891D02*
X003196Y006975D01*
X003086Y007020D01*
X002968Y007020D01*
X002858Y006975D01*
X002774Y006891D01*
X002729Y006782D01*
X002729Y006663D01*
X002774Y006553D01*
X002836Y006492D01*
X002787Y006460D01*
X002734Y006407D01*
X002693Y006345D01*
X002665Y006277D01*
X002650Y006204D01*
X002650Y006167D01*
X002650Y006130D01*
X002665Y006057D01*
X002693Y005989D01*
X002734Y005927D01*
X002787Y005875D01*
X002849Y005833D01*
X002917Y005805D01*
X002990Y005791D01*
X003243Y005791D01*
X003243Y006167D01*
X002650Y006167D01*
X003243Y006167D01*
X003243Y006167D01*
X003243Y006167D01*
X003243Y005791D01*
X003497Y005791D01*
X003570Y005805D01*
X003638Y005833D01*
X003700Y005875D01*
X003752Y005927D01*
X003794Y005989D01*
X003822Y006057D01*
X003837Y006130D01*
X003837Y006167D01*
X003243Y006167D01*
X003243Y006167D01*
X003837Y006167D01*
X003837Y006204D01*
X003822Y006277D01*
X003794Y006345D01*
X003752Y006407D01*
X003700Y006460D01*
X003638Y006501D01*
X003570Y006529D01*
X003497Y006544D01*
X003270Y006544D01*
X003280Y006553D01*
X003325Y006663D01*
X003325Y006782D01*
X003280Y006891D01*
X003316Y006804D02*
X004460Y006804D01*
X004460Y006686D02*
X003325Y006686D01*
X003286Y006567D02*
X004484Y006567D01*
X004572Y006449D02*
X003711Y006449D01*
X003800Y006330D02*
X014955Y006330D01*
X014955Y006449D02*
X004948Y006449D01*
X005036Y006567D02*
X014963Y006567D01*
X014960Y006910D02*
X015460Y006410D01*
X015858Y006093D02*
X016202Y006093D01*
X016202Y005975D02*
X015729Y005975D01*
X015918Y005856D02*
X016202Y005856D01*
X016202Y005738D02*
X015965Y005738D01*
X015965Y005619D02*
X016202Y005619D01*
X016202Y005501D02*
X015965Y005501D01*
X015965Y005382D02*
X016202Y005382D01*
X016202Y005264D02*
X015965Y005264D01*
X015965Y005145D02*
X016202Y005145D01*
X016202Y005027D02*
X015965Y005027D01*
X015863Y004908D02*
X016202Y004908D01*
X016202Y004790D02*
X013929Y004790D01*
X013811Y004671D02*
X016202Y004671D01*
X016202Y004553D02*
X013692Y004553D01*
X013574Y004434D02*
X016202Y004434D01*
X016202Y004316D02*
X013455Y004316D01*
X013413Y004274D02*
X013413Y004274D01*
X013324Y004197D02*
X016202Y004197D01*
X016202Y004079D02*
X007968Y004079D01*
X007850Y003960D02*
X016202Y003960D01*
X016202Y003842D02*
X007731Y003842D01*
X007700Y003723D02*
X016202Y003723D01*
X016202Y003605D02*
X007700Y003605D01*
X007700Y003486D02*
X015360Y003486D01*
X015560Y003486D02*
X016202Y003486D01*
X016202Y003368D02*
X015733Y003368D01*
X015791Y003249D02*
X016202Y003249D01*
X015187Y003368D02*
X007700Y003368D01*
X007700Y003249D02*
X015129Y003249D01*
X014520Y003131D02*
X014400Y003131D01*
X014400Y003012D02*
X014520Y003012D01*
X014520Y002894D02*
X014400Y002894D01*
X014400Y002775D02*
X014520Y002775D01*
X014520Y002657D02*
X014400Y002657D01*
X014400Y002538D02*
X014520Y002538D01*
X014520Y002420D02*
X014400Y002420D01*
X014400Y002301D02*
X014520Y002301D01*
X014520Y002183D02*
X014400Y002183D01*
X014400Y002064D02*
X014520Y002064D01*
X014520Y001946D02*
X014400Y001946D01*
X013210Y004410D02*
X014210Y005410D01*
X015460Y005410D01*
X014955Y005145D02*
X014303Y005145D01*
X014166Y005027D02*
X014955Y005027D01*
X015057Y004908D02*
X014048Y004908D01*
X013725Y005264D02*
X007903Y005264D01*
X008022Y005382D02*
X013843Y005382D01*
X013945Y005501D02*
X008140Y005501D01*
X008259Y005619D02*
X014024Y005619D01*
X013606Y005145D02*
X013120Y005145D01*
X013215Y005027D02*
X013488Y005027D01*
X013369Y004908D02*
X013240Y004908D01*
X013251Y004790D02*
X013213Y004790D01*
X013132Y004671D02*
X013116Y004671D01*
X012960Y004910D02*
X012710Y004660D01*
X010910Y004660D01*
X006210Y004660D01*
X005460Y003910D01*
X005460Y001848D01*
X004960Y003178D02*
X004928Y003209D01*
X003992Y003209D01*
X003960Y003178D01*
X003928Y003209D01*
X002992Y003209D01*
X002944Y003162D01*
X002915Y003178D01*
X002875Y003189D01*
X002520Y003189D01*
X002520Y001908D01*
X002400Y001908D01*
X002400Y003189D01*
X002045Y003189D01*
X002005Y003178D01*
X001976Y003162D01*
X001928Y003209D01*
X001800Y003209D01*
X001800Y003228D01*
X001748Y003353D01*
X001653Y003448D01*
X001528Y003500D01*
X001392Y003500D01*
X001267Y003448D01*
X001172Y003353D01*
X001120Y003228D01*
X001120Y003209D01*
X000992Y003209D01*
X000964Y003181D01*
X000936Y003209D01*
X000718Y003209D01*
X000718Y004416D01*
X000804Y004380D01*
X000916Y004380D01*
X001019Y004423D01*
X001097Y004501D01*
X001137Y004598D01*
X001459Y004920D01*
X005781Y004920D01*
X005007Y004146D01*
X004970Y004058D01*
X004970Y003962D01*
X004970Y003562D01*
X004930Y003466D01*
X004930Y003354D01*
X004973Y003251D01*
X005015Y003209D01*
X004992Y003209D01*
X004960Y003178D01*
X004975Y003249D02*
X001791Y003249D01*
X001733Y003368D02*
X004930Y003368D01*
X004939Y003486D02*
X001560Y003486D01*
X001360Y003486D02*
X000718Y003486D01*
X000718Y003368D02*
X001187Y003368D01*
X001129Y003249D02*
X000718Y003249D01*
X000718Y003605D02*
X004970Y003605D01*
X004970Y003723D02*
X000718Y003723D01*
X000718Y003842D02*
X004970Y003842D01*
X004970Y003960D02*
X000718Y003960D01*
X000718Y004079D02*
X004979Y004079D01*
X005058Y004197D02*
X000718Y004197D01*
X000718Y004316D02*
X005177Y004316D01*
X005295Y004434D02*
X001030Y004434D01*
X001119Y004553D02*
X005414Y004553D01*
X005532Y004671D02*
X001211Y004671D01*
X001329Y004790D02*
X005651Y004790D01*
X005769Y004908D02*
X001448Y004908D01*
X001360Y005160D02*
X000860Y004660D01*
X001360Y005160D02*
X007460Y005160D01*
X008210Y005910D01*
X008434Y005738D02*
X014955Y005738D01*
X015002Y005856D02*
X008490Y005856D01*
X008486Y005975D02*
X015191Y005975D01*
X015062Y006093D02*
X008422Y006093D01*
X007998Y006093D02*
X007922Y006093D01*
X007710Y005910D02*
X007210Y005410D01*
X000860Y005410D01*
X000718Y005738D02*
X007199Y005738D01*
X007317Y005856D02*
X003673Y005856D01*
X003785Y005975D02*
X007434Y005975D01*
X007498Y006093D02*
X003829Y006093D01*
X003835Y006212D02*
X014995Y006212D01*
X014960Y006910D02*
X014460Y006910D01*
X012460Y006910D01*
X012201Y006804D02*
X005060Y006804D01*
X005060Y006686D02*
X012288Y006686D01*
X012180Y006923D02*
X005060Y006923D01*
X005060Y007041D02*
X012211Y007041D01*
X012132Y007160D02*
X005060Y007160D01*
X005060Y007279D02*
X012011Y007279D01*
X011980Y007397D02*
X005060Y007397D01*
X005060Y007516D02*
X012001Y007516D01*
X012088Y007634D02*
X005033Y007634D01*
X004942Y007753D02*
X012172Y007753D01*
X012130Y007871D02*
X004823Y007871D01*
X004705Y007990D02*
X012140Y007990D01*
X012212Y008108D02*
X004586Y008108D01*
X004468Y008227D02*
X014937Y008227D01*
X014955Y008345D02*
X004349Y008345D01*
X002806Y006923D02*
X000718Y006923D01*
X000718Y006804D02*
X002738Y006804D01*
X002729Y006686D02*
X000718Y006686D01*
X000718Y006567D02*
X002768Y006567D01*
X002776Y006449D02*
X000718Y006449D01*
X000718Y006330D02*
X002687Y006330D01*
X002652Y006212D02*
X000718Y006212D01*
X000718Y006093D02*
X002658Y006093D01*
X002702Y005975D02*
X000718Y005975D01*
X000718Y005856D02*
X002814Y005856D01*
X003243Y005856D02*
X003243Y005856D01*
X003243Y005975D02*
X003243Y005975D01*
X003243Y006093D02*
X003243Y006093D01*
X005210Y004010D02*
X006110Y004910D01*
X011410Y004910D01*
X011690Y004908D02*
X012619Y004908D01*
X012705Y005027D02*
X011665Y005027D01*
X011570Y005145D02*
X012800Y005145D01*
X013210Y004410D02*
X007960Y004410D01*
X007460Y003910D01*
X007460Y001848D01*
X006960Y003178D02*
X006928Y003209D01*
X005992Y003209D01*
X005960Y003178D01*
X005928Y003209D01*
X005700Y003209D01*
X005700Y003811D01*
X006309Y004420D01*
X007631Y004420D01*
X007257Y004046D01*
X007220Y003958D01*
X007220Y003862D01*
X007220Y003209D01*
X006992Y003209D01*
X006960Y003178D01*
X007220Y003249D02*
X005700Y003249D01*
X005700Y003368D02*
X007220Y003368D01*
X007220Y003486D02*
X005700Y003486D01*
X005700Y003605D02*
X007220Y003605D01*
X007220Y003723D02*
X005700Y003723D01*
X005731Y003842D02*
X007220Y003842D01*
X007221Y003960D02*
X005850Y003960D01*
X005968Y004079D02*
X007290Y004079D01*
X007408Y004197D02*
X006087Y004197D01*
X006205Y004316D02*
X007527Y004316D01*
X005210Y004010D02*
X005210Y003410D01*
X002520Y003131D02*
X002400Y003131D01*
X002400Y003012D02*
X002520Y003012D01*
X002520Y002894D02*
X002400Y002894D01*
X002400Y002775D02*
X002520Y002775D01*
X002520Y002657D02*
X002400Y002657D01*
X002400Y002538D02*
X002520Y002538D01*
X002520Y002420D02*
X002400Y002420D01*
X002400Y002301D02*
X002520Y002301D01*
X002520Y002183D02*
X002400Y002183D01*
X002400Y002064D02*
X002520Y002064D01*
X002520Y001946D02*
X002400Y001946D01*
X000718Y008464D02*
X006761Y008464D01*
X006689Y008582D02*
X000718Y008582D01*
X000718Y010123D02*
X015069Y010123D01*
X015005Y010241D02*
X000718Y010241D01*
X000718Y010360D02*
X014977Y010360D01*
X014980Y010478D02*
X000718Y010478D01*
X000718Y010597D02*
X015011Y010597D01*
X015082Y010715D02*
X008811Y010715D01*
X008847Y010751D02*
X008887Y010848D01*
X009209Y011170D01*
X011108Y011170D01*
X011204Y011130D01*
X011316Y011130D01*
X011419Y011173D01*
X011497Y011251D01*
X011540Y011354D01*
X011540Y011466D01*
X011538Y011470D01*
X012742Y011470D01*
X012839Y011430D01*
X012950Y011430D01*
X013053Y011473D01*
X013132Y011551D01*
X013174Y011654D01*
X013174Y011766D01*
X013132Y011869D01*
X013053Y011947D01*
X012950Y011990D01*
X012839Y011990D01*
X012742Y011950D01*
X007462Y011950D01*
X007366Y011990D01*
X007254Y011990D01*
X007151Y011947D01*
X007073Y011869D01*
X007030Y011766D01*
X007030Y011654D01*
X007073Y011551D01*
X007151Y011473D01*
X007254Y011430D01*
X007366Y011430D01*
X007462Y011470D01*
X008831Y011470D01*
X008548Y011187D01*
X008451Y011147D01*
X008373Y011069D01*
X008330Y010966D01*
X008330Y010854D01*
X008373Y010751D01*
X008451Y010673D01*
X008554Y010630D01*
X008666Y010630D01*
X008769Y010673D01*
X008847Y010751D01*
X008881Y010834D02*
X015223Y010834D01*
X015432Y010834D02*
X015488Y010834D01*
X015488Y010715D02*
X015432Y010715D01*
X015432Y010597D02*
X015488Y010597D01*
X015488Y010478D02*
X015432Y010478D01*
X015488Y010382D02*
X015945Y010382D01*
X015945Y010372D01*
X015933Y010296D01*
X015909Y010224D01*
X015875Y010156D01*
X015830Y010094D01*
X015776Y010040D01*
X015714Y009995D01*
X015646Y009961D01*
X015574Y009937D01*
X015498Y009925D01*
X015488Y009925D01*
X015488Y010382D01*
X015488Y010360D02*
X015432Y010360D01*
X015432Y010241D02*
X015488Y010241D01*
X015488Y010123D02*
X015432Y010123D01*
X015432Y010004D02*
X015488Y010004D01*
X015632Y009886D02*
X016202Y009886D01*
X016202Y010004D02*
X015726Y010004D01*
X015851Y010123D02*
X016202Y010123D01*
X016202Y010241D02*
X015915Y010241D01*
X015943Y010360D02*
X016202Y010360D01*
X016202Y010478D02*
X015940Y010478D01*
X015909Y010597D02*
X016202Y010597D01*
X016202Y010715D02*
X015838Y010715D01*
X015697Y010834D02*
X016202Y010834D01*
X016202Y010952D02*
X008991Y010952D01*
X009110Y011071D02*
X016202Y011071D01*
X016202Y011189D02*
X011435Y011189D01*
X011521Y011308D02*
X016202Y011308D01*
X016202Y011426D02*
X015202Y011426D01*
X015113Y011389D02*
X015396Y011507D01*
X015613Y011724D01*
X015731Y012007D01*
X015731Y012313D01*
X015613Y012596D01*
X015396Y012813D01*
X015113Y012931D01*
X014807Y012931D01*
X014524Y012813D01*
X014307Y012596D01*
X014189Y012313D01*
X014189Y012007D01*
X014307Y011724D01*
X014524Y011507D01*
X014807Y011389D01*
X015113Y011389D01*
X015434Y011545D02*
X016202Y011545D01*
X016202Y011663D02*
X015553Y011663D01*
X015637Y011782D02*
X016202Y011782D01*
X016202Y011900D02*
X015686Y011900D01*
X015731Y012019D02*
X016202Y012019D01*
X016202Y012137D02*
X015731Y012137D01*
X015731Y012256D02*
X016202Y012256D01*
X016202Y012374D02*
X015705Y012374D01*
X015656Y012493D02*
X016200Y012493D01*
X016187Y012611D02*
X015599Y012611D01*
X015480Y012730D02*
X016155Y012730D01*
X016117Y012848D02*
X015313Y012848D01*
X015845Y013204D02*
X001075Y013204D01*
X000956Y013085D02*
X015964Y013085D01*
X016048Y012967D02*
X000872Y012967D01*
X000803Y012848D02*
X001607Y012848D01*
X001524Y012813D02*
X001307Y012596D01*
X001189Y012313D01*
X001189Y012007D01*
X001307Y011724D01*
X001524Y011507D01*
X001807Y011389D01*
X002113Y011389D01*
X002396Y011507D01*
X002613Y011724D01*
X002731Y012007D01*
X002731Y012313D01*
X002613Y012596D01*
X002396Y012813D01*
X002113Y012931D01*
X001807Y012931D01*
X001524Y012813D01*
X001440Y012730D02*
X000765Y012730D01*
X000733Y012611D02*
X001321Y012611D01*
X001264Y012493D02*
X000720Y012493D01*
X000718Y012374D02*
X001215Y012374D01*
X001189Y012256D02*
X000718Y012256D01*
X000718Y012137D02*
X001189Y012137D01*
X001189Y012019D02*
X000718Y012019D01*
X000718Y011900D02*
X001234Y011900D01*
X001283Y011782D02*
X000718Y011782D01*
X000718Y011663D02*
X001367Y011663D01*
X001486Y011545D02*
X000718Y011545D01*
X000718Y011426D02*
X001718Y011426D01*
X002202Y011426D02*
X008787Y011426D01*
X008668Y011308D02*
X000718Y011308D01*
X000718Y011189D02*
X008550Y011189D01*
X008375Y011071D02*
X000718Y011071D01*
X000718Y010952D02*
X008330Y010952D01*
X008339Y010834D02*
X000718Y010834D01*
X000718Y010715D02*
X008409Y010715D01*
X008610Y010910D02*
X009110Y011410D01*
X011260Y011410D01*
X011540Y011426D02*
X014718Y011426D01*
X014486Y011545D02*
X013125Y011545D01*
X013174Y011663D02*
X014367Y011663D01*
X014283Y011782D02*
X013168Y011782D01*
X013100Y011900D02*
X014234Y011900D01*
X014189Y012019D02*
X002731Y012019D01*
X002731Y012137D02*
X014189Y012137D01*
X014189Y012256D02*
X002731Y012256D01*
X002705Y012374D02*
X014215Y012374D01*
X014264Y012493D02*
X002656Y012493D01*
X002599Y012611D02*
X014321Y012611D01*
X014440Y012730D02*
X002480Y012730D01*
X002313Y012848D02*
X014607Y012848D01*
X015656Y013322D02*
X001264Y013322D01*
X002686Y011900D02*
X007104Y011900D01*
X007037Y011782D02*
X002637Y011782D01*
X002553Y011663D02*
X007030Y011663D01*
X007080Y011545D02*
X002434Y011545D01*
X006723Y008819D02*
X006680Y008716D01*
X006960Y008660D02*
X014710Y008660D01*
X015460Y009410D01*
X015817Y009767D02*
X016202Y009767D01*
X016202Y009649D02*
X015908Y009649D01*
X015957Y009530D02*
X016202Y009530D01*
X016202Y009412D02*
X015965Y009412D01*
X015958Y009293D02*
X016202Y009293D01*
X016202Y009175D02*
X015909Y009175D01*
X015820Y009056D02*
X016202Y009056D01*
X016202Y008938D02*
X015639Y008938D01*
X015765Y008819D02*
X016202Y008819D01*
X016202Y008701D02*
X015884Y008701D01*
X015935Y008582D02*
X016202Y008582D01*
X016202Y008464D02*
X015965Y008464D01*
X015965Y008345D02*
X016202Y008345D01*
X016202Y008227D02*
X015931Y008227D01*
X015872Y008108D02*
X016202Y008108D01*
X016202Y007990D02*
X015754Y007990D01*
X015667Y007871D02*
X016202Y007871D01*
X016202Y007753D02*
X015832Y007753D01*
X015914Y007634D02*
X016202Y007634D01*
X016202Y007516D02*
X015963Y007516D01*
X015965Y007397D02*
X016202Y007397D01*
X016202Y007279D02*
X015952Y007279D01*
X015903Y007160D02*
X016202Y007160D01*
X016202Y007041D02*
X015806Y007041D01*
X015604Y006923D02*
X016202Y006923D01*
X016202Y006804D02*
X015780Y006804D01*
X015892Y006686D02*
X016202Y006686D01*
X016202Y006567D02*
X015941Y006567D01*
X015965Y006449D02*
X016202Y006449D01*
X016202Y006330D02*
X015965Y006330D01*
X015925Y006212D02*
X016202Y006212D01*
X015460Y007410D02*
X013960Y007410D01*
X012260Y007410D01*
X012410Y007910D02*
X014960Y007910D01*
X015460Y008410D01*
X014985Y008582D02*
X014971Y008582D01*
X014955Y008464D02*
X014853Y008464D01*
X012894Y011710D02*
X007310Y011710D01*
D19*
X007310Y011710D03*
X007510Y010960D03*
X007710Y010160D03*
X008610Y010910D03*
X008560Y012110D03*
X009460Y012810D03*
X010160Y012310D03*
X011260Y011410D03*
X010560Y010710D03*
X011660Y010510D03*
X012510Y010810D03*
X013310Y010610D03*
X012894Y011710D03*
X013510Y009360D03*
X013560Y008310D03*
X013960Y007410D03*
X014460Y006910D03*
X013010Y006510D03*
X012460Y006910D03*
X012260Y007410D03*
X012410Y007910D03*
X011710Y006960D03*
X010360Y005810D03*
X009260Y005510D03*
X008710Y005660D03*
X008210Y005910D03*
X007710Y005910D03*
X008460Y007160D03*
X009160Y007560D03*
X007710Y008160D03*
X006960Y008660D03*
X006210Y008160D03*
X005210Y008410D03*
X004960Y008010D03*
X004160Y008110D03*
X005210Y009410D03*
X005960Y010160D03*
X006560Y010810D03*
X005210Y010660D03*
X005210Y011660D03*
X003460Y012160D03*
X002410Y011060D03*
X003460Y010910D03*
X002460Y009310D03*
X001210Y009910D03*
X001210Y008660D03*
X001210Y007160D03*
X002260Y006560D03*
X000860Y005410D03*
X000860Y004660D03*
X000960Y003860D03*
X001460Y003160D03*
X002460Y003410D03*
X004260Y004760D03*
X004560Y004610D03*
X005210Y004660D03*
X005710Y005910D03*
X004760Y006685D03*
X005460Y006910D03*
X003760Y005710D03*
X004710Y003410D03*
X005210Y003410D03*
X006660Y004410D03*
X008960Y003410D03*
X010710Y003410D03*
X010910Y004660D03*
X011410Y004910D03*
X012960Y004910D03*
X014210Y005410D03*
X014460Y004660D03*
X014460Y003410D03*
X015460Y003160D03*
X012710Y003410D03*
X004560Y013210D03*
D20*
X001460Y003160D02*
X001460Y001848D01*
X015460Y001848D02*
X015460Y003160D01*
D21*
X004760Y006685D02*
X004760Y007510D01*
X004160Y008110D01*
M02*
