G75*
G70*
%OFA0B0*%
%FSLAX24Y24*%
%IPPOS*%
%LPD*%
%AMOC8*
5,1,8,0,0,1.08239X$1,22.5*
%
%ADD10C,0.0100*%
%ADD11R,0.0787X0.2362*%
%ADD12R,0.0394X0.2362*%
%ADD13C,0.0000*%
D10*
X001688Y000664D02*
X015232Y000664D01*
X015299Y000666D01*
X015366Y000672D01*
X015433Y000681D01*
X015499Y000694D01*
X015564Y000711D01*
X015628Y000731D01*
X015691Y000755D01*
X015753Y000783D01*
X015812Y000814D01*
X015870Y000848D01*
X015926Y000885D01*
X015980Y000926D01*
X016032Y000969D01*
X016081Y001015D01*
X016127Y001064D01*
X016170Y001116D01*
X016211Y001170D01*
X016248Y001226D01*
X016282Y001284D01*
X016313Y001343D01*
X016341Y001405D01*
X016365Y001468D01*
X016385Y001532D01*
X016402Y001597D01*
X016415Y001663D01*
X016424Y001730D01*
X016430Y001797D01*
X016432Y001864D01*
X016432Y012456D01*
X016430Y012523D01*
X016424Y012590D01*
X016415Y012657D01*
X016402Y012723D01*
X016385Y012788D01*
X016365Y012852D01*
X016341Y012915D01*
X016313Y012977D01*
X016282Y013036D01*
X016248Y013094D01*
X016211Y013150D01*
X016170Y013204D01*
X016127Y013256D01*
X016081Y013305D01*
X016032Y013351D01*
X015980Y013394D01*
X015926Y013435D01*
X015870Y013472D01*
X015812Y013506D01*
X015753Y013537D01*
X015691Y013565D01*
X015628Y013589D01*
X015564Y013609D01*
X015499Y013626D01*
X015433Y013639D01*
X015366Y013648D01*
X015299Y013654D01*
X015232Y013656D01*
X001688Y013656D01*
X001621Y013654D01*
X001554Y013648D01*
X001487Y013639D01*
X001421Y013626D01*
X001356Y013609D01*
X001292Y013589D01*
X001229Y013565D01*
X001167Y013537D01*
X001108Y013506D01*
X001050Y013472D01*
X000994Y013435D01*
X000940Y013394D01*
X000888Y013351D01*
X000839Y013305D01*
X000793Y013256D01*
X000750Y013204D01*
X000709Y013150D01*
X000672Y013094D01*
X000638Y013036D01*
X000607Y012977D01*
X000579Y012915D01*
X000555Y012852D01*
X000535Y012788D01*
X000518Y012723D01*
X000505Y012657D01*
X000496Y012590D01*
X000490Y012523D01*
X000488Y012456D01*
X000488Y001864D01*
X000490Y001797D01*
X000496Y001730D01*
X000505Y001663D01*
X000518Y001597D01*
X000535Y001532D01*
X000555Y001468D01*
X000579Y001405D01*
X000607Y001343D01*
X000638Y001284D01*
X000672Y001226D01*
X000709Y001170D01*
X000750Y001116D01*
X000793Y001064D01*
X000839Y001015D01*
X000888Y000969D01*
X000940Y000926D01*
X000994Y000885D01*
X001050Y000848D01*
X001108Y000814D01*
X001167Y000783D01*
X001229Y000755D01*
X001292Y000731D01*
X001356Y000711D01*
X001421Y000694D01*
X001487Y000681D01*
X001554Y000672D01*
X001621Y000666D01*
X001688Y000664D01*
D11*
X001460Y001848D03*
X002460Y001848D03*
X003460Y001848D03*
X004460Y001848D03*
X005460Y001848D03*
X006460Y001848D03*
X007460Y001848D03*
X008460Y001848D03*
X009460Y001848D03*
X010460Y001848D03*
X011460Y001848D03*
X012460Y001848D03*
X013460Y001848D03*
X014460Y001848D03*
X015460Y001848D03*
D12*
X016255Y001848D03*
X000665Y001848D03*
D13*
X002909Y006722D02*
X002911Y006743D01*
X002917Y006763D01*
X002926Y006783D01*
X002938Y006800D01*
X002953Y006814D01*
X002971Y006826D01*
X002991Y006834D01*
X003011Y006839D01*
X003032Y006840D01*
X003053Y006837D01*
X003073Y006831D01*
X003092Y006820D01*
X003109Y006807D01*
X003122Y006791D01*
X003133Y006773D01*
X003141Y006753D01*
X003145Y006733D01*
X003145Y006711D01*
X003141Y006691D01*
X003133Y006671D01*
X003122Y006653D01*
X003109Y006637D01*
X003092Y006624D01*
X003073Y006613D01*
X003053Y006607D01*
X003032Y006604D01*
X003011Y006605D01*
X002991Y006610D01*
X002971Y006618D01*
X002953Y006630D01*
X002938Y006644D01*
X002926Y006661D01*
X002917Y006681D01*
X002911Y006701D01*
X002909Y006722D01*
X002909Y008998D02*
X002911Y009019D01*
X002917Y009039D01*
X002926Y009059D01*
X002938Y009076D01*
X002953Y009090D01*
X002971Y009102D01*
X002991Y009110D01*
X003011Y009115D01*
X003032Y009116D01*
X003053Y009113D01*
X003073Y009107D01*
X003092Y009096D01*
X003109Y009083D01*
X003122Y009067D01*
X003133Y009049D01*
X003141Y009029D01*
X003145Y009009D01*
X003145Y008987D01*
X003141Y008967D01*
X003133Y008947D01*
X003122Y008929D01*
X003109Y008913D01*
X003092Y008900D01*
X003073Y008889D01*
X003053Y008883D01*
X003032Y008880D01*
X003011Y008881D01*
X002991Y008886D01*
X002971Y008894D01*
X002953Y008906D01*
X002938Y008920D01*
X002926Y008937D01*
X002917Y008957D01*
X002911Y008977D01*
X002909Y008998D01*
X001369Y012160D02*
X001371Y012208D01*
X001377Y012256D01*
X001387Y012303D01*
X001400Y012349D01*
X001418Y012394D01*
X001438Y012438D01*
X001463Y012480D01*
X001491Y012519D01*
X001521Y012556D01*
X001555Y012590D01*
X001592Y012622D01*
X001630Y012651D01*
X001671Y012676D01*
X001714Y012698D01*
X001759Y012716D01*
X001805Y012730D01*
X001852Y012741D01*
X001900Y012748D01*
X001948Y012751D01*
X001996Y012750D01*
X002044Y012745D01*
X002092Y012736D01*
X002138Y012724D01*
X002183Y012707D01*
X002227Y012687D01*
X002269Y012664D01*
X002309Y012637D01*
X002347Y012607D01*
X002382Y012574D01*
X002414Y012538D01*
X002444Y012500D01*
X002470Y012459D01*
X002492Y012416D01*
X002512Y012372D01*
X002527Y012327D01*
X002539Y012280D01*
X002547Y012232D01*
X002551Y012184D01*
X002551Y012136D01*
X002547Y012088D01*
X002539Y012040D01*
X002527Y011993D01*
X002512Y011948D01*
X002492Y011904D01*
X002470Y011861D01*
X002444Y011820D01*
X002414Y011782D01*
X002382Y011746D01*
X002347Y011713D01*
X002309Y011683D01*
X002269Y011656D01*
X002227Y011633D01*
X002183Y011613D01*
X002138Y011596D01*
X002092Y011584D01*
X002044Y011575D01*
X001996Y011570D01*
X001948Y011569D01*
X001900Y011572D01*
X001852Y011579D01*
X001805Y011590D01*
X001759Y011604D01*
X001714Y011622D01*
X001671Y011644D01*
X001630Y011669D01*
X001592Y011698D01*
X001555Y011730D01*
X001521Y011764D01*
X001491Y011801D01*
X001463Y011840D01*
X001438Y011882D01*
X001418Y011926D01*
X001400Y011971D01*
X001387Y012017D01*
X001377Y012064D01*
X001371Y012112D01*
X001369Y012160D01*
X014369Y012160D02*
X014371Y012208D01*
X014377Y012256D01*
X014387Y012303D01*
X014400Y012349D01*
X014418Y012394D01*
X014438Y012438D01*
X014463Y012480D01*
X014491Y012519D01*
X014521Y012556D01*
X014555Y012590D01*
X014592Y012622D01*
X014630Y012651D01*
X014671Y012676D01*
X014714Y012698D01*
X014759Y012716D01*
X014805Y012730D01*
X014852Y012741D01*
X014900Y012748D01*
X014948Y012751D01*
X014996Y012750D01*
X015044Y012745D01*
X015092Y012736D01*
X015138Y012724D01*
X015183Y012707D01*
X015227Y012687D01*
X015269Y012664D01*
X015309Y012637D01*
X015347Y012607D01*
X015382Y012574D01*
X015414Y012538D01*
X015444Y012500D01*
X015470Y012459D01*
X015492Y012416D01*
X015512Y012372D01*
X015527Y012327D01*
X015539Y012280D01*
X015547Y012232D01*
X015551Y012184D01*
X015551Y012136D01*
X015547Y012088D01*
X015539Y012040D01*
X015527Y011993D01*
X015512Y011948D01*
X015492Y011904D01*
X015470Y011861D01*
X015444Y011820D01*
X015414Y011782D01*
X015382Y011746D01*
X015347Y011713D01*
X015309Y011683D01*
X015269Y011656D01*
X015227Y011633D01*
X015183Y011613D01*
X015138Y011596D01*
X015092Y011584D01*
X015044Y011575D01*
X014996Y011570D01*
X014948Y011569D01*
X014900Y011572D01*
X014852Y011579D01*
X014805Y011590D01*
X014759Y011604D01*
X014714Y011622D01*
X014671Y011644D01*
X014630Y011669D01*
X014592Y011698D01*
X014555Y011730D01*
X014521Y011764D01*
X014491Y011801D01*
X014463Y011840D01*
X014438Y011882D01*
X014418Y011926D01*
X014400Y011971D01*
X014387Y012017D01*
X014377Y012064D01*
X014371Y012112D01*
X014369Y012160D01*
M02*
