G75*
G70*
%OFA0B0*%
%FSLAX24Y24*%
%IPPOS*%
%LPD*%
%AMOC8*
5,1,8,0,0,1.08239X$1,22.5*
%
%ADD10C,0.0088*%
%ADD11C,0.0075*%
%ADD12R,0.0400X0.0450*%
%ADD13R,0.0591X0.0787*%
%ADD14C,0.0100*%
%ADD15R,0.0787X0.2362*%
%ADD16R,0.0394X0.2362*%
%ADD17C,0.0000*%
%ADD18R,0.0157X0.0591*%
%ADD19R,0.0650X0.0650*%
%ADD20C,0.0650*%
%ADD21C,0.0071*%
%ADD22C,0.0035*%
%ADD23C,0.0394*%
%ADD24C,0.0433*%
%ADD25C,0.0236*%
%ADD26C,0.0081*%
%ADD27C,0.0120*%
%ADD28C,0.0200*%
%ADD29C,0.0160*%
%ADD30C,0.0240*%
%ADD31C,0.0320*%
D10*
X002279Y004529D02*
X002541Y004529D01*
X002279Y004529D02*
X002279Y004791D01*
X002541Y004791D01*
X002541Y004529D01*
X002541Y004616D02*
X002279Y004616D01*
X002279Y004703D02*
X002541Y004703D01*
X002541Y004790D02*
X002279Y004790D01*
X002279Y005279D02*
X002541Y005279D01*
X002279Y005279D02*
X002279Y005541D01*
X002541Y005541D01*
X002541Y005279D01*
X002541Y005366D02*
X002279Y005366D01*
X002279Y005453D02*
X002541Y005453D01*
X002541Y005540D02*
X002279Y005540D01*
X002879Y005279D02*
X003141Y005279D01*
X002879Y005279D02*
X002879Y005541D01*
X003141Y005541D01*
X003141Y005279D01*
X003141Y005366D02*
X002879Y005366D01*
X002879Y005453D02*
X003141Y005453D01*
X003141Y005540D02*
X002879Y005540D01*
X002879Y004529D02*
X003141Y004529D01*
X002879Y004529D02*
X002879Y004791D01*
X003141Y004791D01*
X003141Y004529D01*
X003141Y004616D02*
X002879Y004616D01*
X002879Y004703D02*
X003141Y004703D01*
X003141Y004790D02*
X002879Y004790D01*
X004129Y007241D02*
X004391Y007241D01*
X004391Y006979D01*
X004129Y006979D01*
X004129Y007241D01*
X004129Y007066D02*
X004391Y007066D01*
X004391Y007153D02*
X004129Y007153D01*
X004129Y007240D02*
X004391Y007240D01*
X004729Y007241D02*
X004991Y007241D01*
X004991Y006979D01*
X004729Y006979D01*
X004729Y007241D01*
X004729Y007066D02*
X004991Y007066D01*
X004991Y007153D02*
X004729Y007153D01*
X004729Y007240D02*
X004991Y007240D01*
X004891Y008641D02*
X004629Y008641D01*
X004891Y008641D02*
X004891Y008379D01*
X004629Y008379D01*
X004629Y008641D01*
X004629Y008466D02*
X004891Y008466D01*
X004891Y008553D02*
X004629Y008553D01*
X004629Y008640D02*
X004891Y008640D01*
X004291Y008641D02*
X004029Y008641D01*
X004291Y008641D02*
X004291Y008379D01*
X004029Y008379D01*
X004029Y008641D01*
X004029Y008466D02*
X004291Y008466D01*
X004291Y008553D02*
X004029Y008553D01*
X004029Y008640D02*
X004291Y008640D01*
X003141Y010541D02*
X002879Y010541D01*
X003141Y010541D02*
X003141Y010279D01*
X002879Y010279D01*
X002879Y010541D01*
X002879Y010366D02*
X003141Y010366D01*
X003141Y010453D02*
X002879Y010453D01*
X002879Y010540D02*
X003141Y010540D01*
X002541Y010541D02*
X002279Y010541D01*
X002541Y010541D02*
X002541Y010279D01*
X002279Y010279D01*
X002279Y010541D01*
X002279Y010366D02*
X002541Y010366D01*
X002541Y010453D02*
X002279Y010453D01*
X002279Y010540D02*
X002541Y010540D01*
X004029Y011041D02*
X004291Y011041D01*
X004291Y010779D01*
X004029Y010779D01*
X004029Y011041D01*
X004029Y010866D02*
X004291Y010866D01*
X004291Y010953D02*
X004029Y010953D01*
X004029Y011040D02*
X004291Y011040D01*
X004629Y011041D02*
X004891Y011041D01*
X004891Y010779D01*
X004629Y010779D01*
X004629Y011041D01*
X004629Y010866D02*
X004891Y010866D01*
X004891Y010953D02*
X004629Y010953D01*
X004629Y011040D02*
X004891Y011040D01*
X004891Y011791D02*
X004629Y011791D01*
X004891Y011791D02*
X004891Y011529D01*
X004629Y011529D01*
X004629Y011791D01*
X004629Y011616D02*
X004891Y011616D01*
X004891Y011703D02*
X004629Y011703D01*
X004629Y011790D02*
X004891Y011790D01*
X004291Y011791D02*
X004029Y011791D01*
X004291Y011791D02*
X004291Y011529D01*
X004029Y011529D01*
X004029Y011791D01*
X004029Y011616D02*
X004291Y011616D01*
X004291Y011703D02*
X004029Y011703D01*
X004029Y011790D02*
X004291Y011790D01*
X008341Y011341D02*
X008341Y011079D01*
X008079Y011079D01*
X008079Y011341D01*
X008341Y011341D01*
X008341Y011166D02*
X008079Y011166D01*
X008079Y011253D02*
X008341Y011253D01*
X008341Y011340D02*
X008079Y011340D01*
X008341Y010741D02*
X008341Y010479D01*
X008079Y010479D01*
X008079Y010741D01*
X008341Y010741D01*
X008341Y010566D02*
X008079Y010566D01*
X008079Y010653D02*
X008341Y010653D01*
X008341Y010740D02*
X008079Y010740D01*
X008779Y010741D02*
X008779Y010479D01*
X008779Y010741D02*
X009041Y010741D01*
X009041Y010479D01*
X008779Y010479D01*
X008779Y010566D02*
X009041Y010566D01*
X009041Y010653D02*
X008779Y010653D01*
X008779Y010740D02*
X009041Y010740D01*
X008779Y011079D02*
X008779Y011341D01*
X009041Y011341D01*
X009041Y011079D01*
X008779Y011079D01*
X008779Y011166D02*
X009041Y011166D01*
X009041Y011253D02*
X008779Y011253D01*
X008779Y011340D02*
X009041Y011340D01*
X009741Y011341D02*
X009741Y011079D01*
X009479Y011079D01*
X009479Y011341D01*
X009741Y011341D01*
X009741Y011166D02*
X009479Y011166D01*
X009479Y011253D02*
X009741Y011253D01*
X009741Y011340D02*
X009479Y011340D01*
X009741Y010741D02*
X009741Y010479D01*
X009479Y010479D01*
X009479Y010741D01*
X009741Y010741D01*
X009741Y010566D02*
X009479Y010566D01*
X009479Y010653D02*
X009741Y010653D01*
X009741Y010740D02*
X009479Y010740D01*
X008141Y005279D02*
X007879Y005279D01*
X007879Y005541D01*
X008141Y005541D01*
X008141Y005279D01*
X008141Y005366D02*
X007879Y005366D01*
X007879Y005453D02*
X008141Y005453D01*
X008141Y005540D02*
X007879Y005540D01*
X007541Y005279D02*
X007279Y005279D01*
X007279Y005541D01*
X007541Y005541D01*
X007541Y005279D01*
X007541Y005366D02*
X007279Y005366D01*
X007279Y005453D02*
X007541Y005453D01*
X007541Y005540D02*
X007279Y005540D01*
X006891Y005541D02*
X006629Y005541D01*
X006891Y005541D02*
X006891Y005279D01*
X006629Y005279D01*
X006629Y005541D01*
X006629Y005366D02*
X006891Y005366D01*
X006891Y005453D02*
X006629Y005453D01*
X006629Y005540D02*
X006891Y005540D01*
X006291Y005541D02*
X006029Y005541D01*
X006291Y005541D02*
X006291Y005279D01*
X006029Y005279D01*
X006029Y005541D01*
X006029Y005366D02*
X006291Y005366D01*
X006291Y005453D02*
X006029Y005453D01*
X006029Y005540D02*
X006291Y005540D01*
D11*
X001873Y005548D02*
X001647Y005548D01*
X001873Y005548D02*
X001873Y005272D01*
X001647Y005272D01*
X001647Y005548D01*
X001647Y005346D02*
X001873Y005346D01*
X001873Y005420D02*
X001647Y005420D01*
X001647Y005494D02*
X001873Y005494D01*
X001273Y005548D02*
X001047Y005548D01*
X001273Y005548D02*
X001273Y005272D01*
X001047Y005272D01*
X001047Y005548D01*
X001047Y005346D02*
X001273Y005346D01*
X001273Y005420D02*
X001047Y005420D01*
X001047Y005494D02*
X001273Y005494D01*
X001273Y004798D02*
X001047Y004798D01*
X001273Y004798D02*
X001273Y004522D01*
X001047Y004522D01*
X001047Y004798D01*
X001047Y004596D02*
X001273Y004596D01*
X001273Y004670D02*
X001047Y004670D01*
X001047Y004744D02*
X001273Y004744D01*
X001647Y004798D02*
X001873Y004798D01*
X001873Y004522D01*
X001647Y004522D01*
X001647Y004798D01*
X001647Y004596D02*
X001873Y004596D01*
X001873Y004670D02*
X001647Y004670D01*
X001647Y004744D02*
X001873Y004744D01*
X001873Y010548D02*
X001647Y010548D01*
X001873Y010548D02*
X001873Y010272D01*
X001647Y010272D01*
X001647Y010548D01*
X001647Y010346D02*
X001873Y010346D01*
X001873Y010420D02*
X001647Y010420D01*
X001647Y010494D02*
X001873Y010494D01*
X001273Y010548D02*
X001047Y010548D01*
X001273Y010548D02*
X001273Y010272D01*
X001047Y010272D01*
X001047Y010548D01*
X001047Y010346D02*
X001273Y010346D01*
X001273Y010420D02*
X001047Y010420D01*
X001047Y010494D02*
X001273Y010494D01*
D12*
X004110Y010060D03*
X004810Y010060D03*
X004460Y009260D03*
D13*
X010926Y009532D03*
X011910Y009532D03*
X012894Y009532D03*
X012894Y008288D03*
X011910Y008288D03*
X010926Y008288D03*
X010926Y005532D03*
X011910Y005532D03*
X012894Y005532D03*
X012894Y012288D03*
X011910Y012288D03*
X010926Y012288D03*
D14*
X015232Y000664D02*
X001688Y000664D01*
X001621Y000666D01*
X001554Y000672D01*
X001487Y000681D01*
X001421Y000694D01*
X001356Y000711D01*
X001292Y000731D01*
X001229Y000755D01*
X001167Y000783D01*
X001108Y000814D01*
X001050Y000848D01*
X000994Y000885D01*
X000940Y000926D01*
X000888Y000969D01*
X000839Y001015D01*
X000793Y001064D01*
X000750Y001116D01*
X000709Y001170D01*
X000672Y001226D01*
X000638Y001284D01*
X000607Y001343D01*
X000579Y001405D01*
X000555Y001468D01*
X000535Y001532D01*
X000518Y001597D01*
X000505Y001663D01*
X000496Y001730D01*
X000490Y001797D01*
X000488Y001864D01*
X000488Y012456D01*
X000490Y012523D01*
X000496Y012590D01*
X000505Y012657D01*
X000518Y012723D01*
X000535Y012788D01*
X000555Y012852D01*
X000579Y012915D01*
X000607Y012977D01*
X000638Y013036D01*
X000672Y013094D01*
X000709Y013150D01*
X000750Y013204D01*
X000793Y013256D01*
X000839Y013305D01*
X000888Y013351D01*
X000940Y013394D01*
X000994Y013435D01*
X001050Y013472D01*
X001108Y013506D01*
X001167Y013537D01*
X001229Y013565D01*
X001292Y013589D01*
X001356Y013609D01*
X001421Y013626D01*
X001487Y013639D01*
X001554Y013648D01*
X001621Y013654D01*
X001688Y013656D01*
X015232Y013656D01*
X015299Y013654D01*
X015366Y013648D01*
X015433Y013639D01*
X015499Y013626D01*
X015564Y013609D01*
X015628Y013589D01*
X015691Y013565D01*
X015753Y013537D01*
X015812Y013506D01*
X015870Y013472D01*
X015926Y013435D01*
X015980Y013394D01*
X016032Y013351D01*
X016081Y013305D01*
X016127Y013256D01*
X016170Y013204D01*
X016211Y013150D01*
X016248Y013094D01*
X016282Y013036D01*
X016313Y012977D01*
X016341Y012915D01*
X016365Y012852D01*
X016385Y012788D01*
X016402Y012723D01*
X016415Y012657D01*
X016424Y012590D01*
X016430Y012523D01*
X016432Y012456D01*
X016432Y001864D01*
X016430Y001797D01*
X016424Y001730D01*
X016415Y001663D01*
X016402Y001597D01*
X016385Y001532D01*
X016365Y001468D01*
X016341Y001405D01*
X016313Y001343D01*
X016282Y001284D01*
X016248Y001226D01*
X016211Y001170D01*
X016170Y001116D01*
X016127Y001064D01*
X016081Y001015D01*
X016032Y000969D01*
X015980Y000926D01*
X015926Y000885D01*
X015870Y000848D01*
X015812Y000814D01*
X015753Y000783D01*
X015691Y000755D01*
X015628Y000731D01*
X015564Y000711D01*
X015499Y000694D01*
X015433Y000681D01*
X015366Y000672D01*
X015299Y000666D01*
X015232Y000664D01*
D15*
X015460Y001848D03*
X014460Y001848D03*
X013460Y001848D03*
X012460Y001848D03*
X011460Y001848D03*
X010460Y001848D03*
X009460Y001848D03*
X008460Y001848D03*
X007460Y001848D03*
X006460Y001848D03*
X005460Y001848D03*
X004460Y001848D03*
X003460Y001848D03*
X002460Y001848D03*
X001460Y001848D03*
D16*
X000665Y001848D03*
X016255Y001848D03*
D17*
X014369Y012160D02*
X014371Y012208D01*
X014377Y012256D01*
X014387Y012303D01*
X014400Y012349D01*
X014418Y012394D01*
X014438Y012438D01*
X014463Y012480D01*
X014491Y012519D01*
X014521Y012556D01*
X014555Y012590D01*
X014592Y012622D01*
X014630Y012651D01*
X014671Y012676D01*
X014714Y012698D01*
X014759Y012716D01*
X014805Y012730D01*
X014852Y012741D01*
X014900Y012748D01*
X014948Y012751D01*
X014996Y012750D01*
X015044Y012745D01*
X015092Y012736D01*
X015138Y012724D01*
X015183Y012707D01*
X015227Y012687D01*
X015269Y012664D01*
X015309Y012637D01*
X015347Y012607D01*
X015382Y012574D01*
X015414Y012538D01*
X015444Y012500D01*
X015470Y012459D01*
X015492Y012416D01*
X015512Y012372D01*
X015527Y012327D01*
X015539Y012280D01*
X015547Y012232D01*
X015551Y012184D01*
X015551Y012136D01*
X015547Y012088D01*
X015539Y012040D01*
X015527Y011993D01*
X015512Y011948D01*
X015492Y011904D01*
X015470Y011861D01*
X015444Y011820D01*
X015414Y011782D01*
X015382Y011746D01*
X015347Y011713D01*
X015309Y011683D01*
X015269Y011656D01*
X015227Y011633D01*
X015183Y011613D01*
X015138Y011596D01*
X015092Y011584D01*
X015044Y011575D01*
X014996Y011570D01*
X014948Y011569D01*
X014900Y011572D01*
X014852Y011579D01*
X014805Y011590D01*
X014759Y011604D01*
X014714Y011622D01*
X014671Y011644D01*
X014630Y011669D01*
X014592Y011698D01*
X014555Y011730D01*
X014521Y011764D01*
X014491Y011801D01*
X014463Y011840D01*
X014438Y011882D01*
X014418Y011926D01*
X014400Y011971D01*
X014387Y012017D01*
X014377Y012064D01*
X014371Y012112D01*
X014369Y012160D01*
X002909Y008998D02*
X002911Y009019D01*
X002917Y009039D01*
X002926Y009059D01*
X002938Y009076D01*
X002953Y009090D01*
X002971Y009102D01*
X002991Y009110D01*
X003011Y009115D01*
X003032Y009116D01*
X003053Y009113D01*
X003073Y009107D01*
X003092Y009096D01*
X003109Y009083D01*
X003122Y009067D01*
X003133Y009049D01*
X003141Y009029D01*
X003145Y009009D01*
X003145Y008987D01*
X003141Y008967D01*
X003133Y008947D01*
X003122Y008929D01*
X003109Y008913D01*
X003092Y008900D01*
X003073Y008889D01*
X003053Y008883D01*
X003032Y008880D01*
X003011Y008881D01*
X002991Y008886D01*
X002971Y008894D01*
X002953Y008906D01*
X002938Y008920D01*
X002926Y008937D01*
X002917Y008957D01*
X002911Y008977D01*
X002909Y008998D01*
X002909Y006722D02*
X002911Y006743D01*
X002917Y006763D01*
X002926Y006783D01*
X002938Y006800D01*
X002953Y006814D01*
X002971Y006826D01*
X002991Y006834D01*
X003011Y006839D01*
X003032Y006840D01*
X003053Y006837D01*
X003073Y006831D01*
X003092Y006820D01*
X003109Y006807D01*
X003122Y006791D01*
X003133Y006773D01*
X003141Y006753D01*
X003145Y006733D01*
X003145Y006711D01*
X003141Y006691D01*
X003133Y006671D01*
X003122Y006653D01*
X003109Y006637D01*
X003092Y006624D01*
X003073Y006613D01*
X003053Y006607D01*
X003032Y006604D01*
X003011Y006605D01*
X002991Y006610D01*
X002971Y006618D01*
X002953Y006630D01*
X002938Y006644D01*
X002926Y006661D01*
X002917Y006681D01*
X002911Y006701D01*
X002909Y006722D01*
X001369Y012160D02*
X001371Y012208D01*
X001377Y012256D01*
X001387Y012303D01*
X001400Y012349D01*
X001418Y012394D01*
X001438Y012438D01*
X001463Y012480D01*
X001491Y012519D01*
X001521Y012556D01*
X001555Y012590D01*
X001592Y012622D01*
X001630Y012651D01*
X001671Y012676D01*
X001714Y012698D01*
X001759Y012716D01*
X001805Y012730D01*
X001852Y012741D01*
X001900Y012748D01*
X001948Y012751D01*
X001996Y012750D01*
X002044Y012745D01*
X002092Y012736D01*
X002138Y012724D01*
X002183Y012707D01*
X002227Y012687D01*
X002269Y012664D01*
X002309Y012637D01*
X002347Y012607D01*
X002382Y012574D01*
X002414Y012538D01*
X002444Y012500D01*
X002470Y012459D01*
X002492Y012416D01*
X002512Y012372D01*
X002527Y012327D01*
X002539Y012280D01*
X002547Y012232D01*
X002551Y012184D01*
X002551Y012136D01*
X002547Y012088D01*
X002539Y012040D01*
X002527Y011993D01*
X002512Y011948D01*
X002492Y011904D01*
X002470Y011861D01*
X002444Y011820D01*
X002414Y011782D01*
X002382Y011746D01*
X002347Y011713D01*
X002309Y011683D01*
X002269Y011656D01*
X002227Y011633D01*
X002183Y011613D01*
X002138Y011596D01*
X002092Y011584D01*
X002044Y011575D01*
X001996Y011570D01*
X001948Y011569D01*
X001900Y011572D01*
X001852Y011579D01*
X001805Y011590D01*
X001759Y011604D01*
X001714Y011622D01*
X001671Y011644D01*
X001630Y011669D01*
X001592Y011698D01*
X001555Y011730D01*
X001521Y011764D01*
X001491Y011801D01*
X001463Y011840D01*
X001438Y011882D01*
X001418Y011926D01*
X001400Y011971D01*
X001387Y012017D01*
X001377Y012064D01*
X001371Y012112D01*
X001369Y012160D01*
D18*
X006047Y009337D03*
X006303Y009337D03*
X006558Y009337D03*
X006814Y009337D03*
X007070Y009337D03*
X007326Y009337D03*
X007582Y009337D03*
X007838Y009337D03*
X008094Y009337D03*
X008350Y009337D03*
X008606Y009337D03*
X008862Y009337D03*
X009117Y009337D03*
X009373Y009337D03*
X009373Y006483D03*
X009117Y006483D03*
X008862Y006483D03*
X008606Y006483D03*
X008350Y006483D03*
X008094Y006483D03*
X007838Y006483D03*
X007582Y006483D03*
X007326Y006483D03*
X007070Y006483D03*
X006814Y006483D03*
X006558Y006483D03*
X006303Y006483D03*
X006047Y006483D03*
D19*
X015460Y005410D03*
D20*
X015460Y006410D03*
X015460Y007410D03*
X015460Y008410D03*
X015460Y009410D03*
X015460Y010410D03*
D21*
X003602Y009057D02*
X003278Y009057D01*
X003278Y009223D01*
X003602Y009223D01*
X003602Y009057D01*
X003602Y009127D02*
X003278Y009127D01*
X003278Y009197D02*
X003602Y009197D01*
X003602Y008722D02*
X003278Y008722D01*
X003278Y008888D01*
X003602Y008888D01*
X003602Y008722D01*
X003602Y008792D02*
X003278Y008792D01*
X003278Y008862D02*
X003602Y008862D01*
X003602Y006832D02*
X003278Y006832D01*
X003278Y006998D01*
X003602Y006998D01*
X003602Y006832D01*
X003602Y006902D02*
X003278Y006902D01*
X003278Y006972D02*
X003602Y006972D01*
X003602Y006517D02*
X003278Y006517D01*
X003278Y006683D01*
X003602Y006683D01*
X003602Y006517D01*
X003602Y006587D02*
X003278Y006587D01*
X003278Y006657D02*
X003602Y006657D01*
D22*
X003620Y007129D02*
X003260Y007129D01*
X003260Y007213D01*
X003620Y007213D01*
X003620Y007129D01*
X003620Y007163D02*
X003260Y007163D01*
X003260Y007197D02*
X003620Y007197D01*
X003620Y007326D02*
X003260Y007326D01*
X003260Y007410D01*
X003620Y007410D01*
X003620Y007326D01*
X003620Y007360D02*
X003260Y007360D01*
X003260Y007394D02*
X003620Y007394D01*
X003620Y007523D02*
X003260Y007523D01*
X003260Y007607D01*
X003620Y007607D01*
X003620Y007523D01*
X003620Y007557D02*
X003260Y007557D01*
X003260Y007591D02*
X003620Y007591D01*
X003620Y007720D02*
X003260Y007720D01*
X003260Y007804D01*
X003620Y007804D01*
X003620Y007720D01*
X003620Y007754D02*
X003260Y007754D01*
X003260Y007788D02*
X003620Y007788D01*
X003620Y007916D02*
X003260Y007916D01*
X003260Y008000D01*
X003620Y008000D01*
X003620Y007916D01*
X003620Y007950D02*
X003260Y007950D01*
X003260Y007984D02*
X003620Y007984D01*
X003620Y008113D02*
X003260Y008113D01*
X003260Y008197D01*
X003620Y008197D01*
X003620Y008113D01*
X003620Y008147D02*
X003260Y008147D01*
X003260Y008181D02*
X003620Y008181D01*
X003620Y008310D02*
X003260Y008310D01*
X003260Y008394D01*
X003620Y008394D01*
X003620Y008310D01*
X003620Y008344D02*
X003260Y008344D01*
X003260Y008378D02*
X003620Y008378D01*
X003620Y008507D02*
X003260Y008507D01*
X003260Y008591D01*
X003620Y008591D01*
X003620Y008507D01*
X003620Y008541D02*
X003260Y008541D01*
X003260Y008575D02*
X003620Y008575D01*
D23*
X001787Y009553D02*
X001393Y009553D01*
X001393Y006167D02*
X001787Y006167D01*
D24*
X003027Y006167D02*
X003460Y006167D01*
X003460Y009553D02*
X003027Y009553D01*
D25*
X001963Y008176D02*
X001413Y008176D01*
X001413Y008726D01*
X001963Y008726D01*
X001963Y008176D01*
X001963Y008411D02*
X001413Y008411D01*
X001413Y008646D02*
X001963Y008646D01*
X001963Y006994D02*
X001413Y006994D01*
X001413Y007544D01*
X001963Y007544D01*
X001963Y006994D01*
X001963Y007229D02*
X001413Y007229D01*
X001413Y007464D02*
X001963Y007464D01*
D26*
X004028Y006520D02*
X004270Y006520D01*
X004270Y006100D01*
X004028Y006100D01*
X004028Y006520D01*
X004028Y006180D02*
X004270Y006180D01*
X004270Y006260D02*
X004028Y006260D01*
X004028Y006340D02*
X004270Y006340D01*
X004270Y006420D02*
X004028Y006420D01*
X004028Y006500D02*
X004270Y006500D01*
X004650Y006520D02*
X004892Y006520D01*
X004892Y006100D01*
X004650Y006100D01*
X004650Y006520D01*
X004650Y006180D02*
X004892Y006180D01*
X004892Y006260D02*
X004650Y006260D01*
X004650Y006340D02*
X004892Y006340D01*
X004892Y006420D02*
X004650Y006420D01*
X004650Y006500D02*
X004892Y006500D01*
D27*
X005112Y006449D02*
X005788Y006449D01*
X005788Y006567D02*
X005112Y006567D01*
X005112Y006611D02*
X005060Y006663D01*
X005060Y006745D01*
X005045Y006782D01*
X005070Y006789D01*
X005116Y006816D01*
X005154Y006854D01*
X005181Y006900D01*
X005195Y006952D01*
X005195Y007082D01*
X004888Y007082D01*
X004888Y007138D01*
X005195Y007138D01*
X005195Y007268D01*
X005181Y007320D01*
X005361Y007320D01*
X005807Y006874D01*
X005807Y006871D01*
X005788Y006853D01*
X005788Y006113D01*
X005893Y006008D01*
X006318Y006008D01*
X006318Y005908D01*
X006176Y005765D01*
X005936Y005765D01*
X005805Y005634D01*
X005805Y005186D01*
X005936Y005055D01*
X006384Y005055D01*
X006460Y005131D01*
X006536Y005055D01*
X006984Y005055D01*
X007070Y005141D01*
X007070Y004351D01*
X006969Y004250D01*
X003401Y004250D01*
X003350Y004301D01*
X003350Y004421D01*
X003365Y004436D01*
X003365Y004884D01*
X003350Y004899D01*
X003350Y005110D01*
X004570Y005110D01*
X004680Y005156D01*
X004764Y005240D01*
X005026Y005501D01*
X005071Y005612D01*
X005071Y005968D01*
X005112Y006009D01*
X005112Y006611D01*
X005060Y006686D02*
X005788Y006686D01*
X005788Y006804D02*
X005097Y006804D01*
X005187Y006923D02*
X005758Y006923D01*
X005639Y007041D02*
X005195Y007041D01*
X005195Y007160D02*
X005521Y007160D01*
X005402Y007279D02*
X005192Y007279D01*
X005181Y007320D02*
X005181Y007320D01*
X005460Y007560D02*
X003445Y007560D01*
X003440Y007565D01*
X003055Y007565D01*
X003010Y007610D01*
X003010Y007910D01*
X003058Y007958D01*
X003440Y007958D01*
X003440Y007762D02*
X003439Y007760D01*
X003440Y007762D02*
X003442Y007760D01*
X003860Y007760D01*
X003860Y008060D01*
X003765Y008155D01*
X003440Y008155D01*
X003440Y008352D02*
X003052Y008352D01*
X002810Y008110D01*
X002810Y007310D01*
X002949Y007171D01*
X003440Y007171D01*
X004199Y007171D01*
X004260Y007110D01*
X003860Y007760D02*
X005610Y007760D01*
X006303Y007067D01*
X006303Y006483D01*
X006558Y006483D02*
X006558Y005808D01*
X006160Y005410D01*
X005805Y005382D02*
X004907Y005382D01*
X004788Y005264D02*
X005805Y005264D01*
X005846Y005145D02*
X004655Y005145D01*
X005025Y005501D02*
X005805Y005501D01*
X005805Y005619D02*
X005071Y005619D01*
X005071Y005738D02*
X005909Y005738D01*
X006267Y005856D02*
X005071Y005856D01*
X005078Y005975D02*
X006318Y005975D01*
X005807Y006093D02*
X005112Y006093D01*
X005112Y006212D02*
X005788Y006212D01*
X005788Y006330D02*
X005112Y006330D01*
X004471Y005968D02*
X004471Y005795D01*
X004386Y005710D01*
X003289Y005710D01*
X003234Y005765D01*
X002786Y005765D01*
X002710Y005689D01*
X002634Y005765D01*
X002186Y005765D01*
X002074Y005653D01*
X001963Y005765D01*
X001557Y005765D01*
X001460Y005668D01*
X001363Y005765D01*
X000957Y005765D01*
X000882Y005690D01*
X000804Y005690D01*
X000718Y005654D01*
X000718Y012456D01*
X000726Y012583D01*
X000791Y012827D01*
X000918Y013047D01*
X001097Y013226D01*
X001316Y013352D01*
X001561Y013418D01*
X001688Y013426D01*
X008587Y013426D01*
X008057Y012896D01*
X008020Y012808D01*
X008020Y011565D01*
X007986Y011565D01*
X007855Y011434D01*
X007855Y010986D01*
X007931Y010910D01*
X007855Y010834D01*
X007855Y010386D01*
X007986Y010255D01*
X008110Y010255D01*
X008110Y009812D01*
X007941Y009812D01*
X007921Y009792D01*
X007838Y009792D01*
X007838Y009710D01*
X007838Y009710D01*
X007838Y009792D01*
X007755Y009792D01*
X007735Y009812D01*
X005893Y009812D01*
X005788Y009707D01*
X005788Y008967D01*
X005893Y008862D01*
X006574Y008862D01*
X006574Y008758D01*
X006611Y008670D01*
X006683Y008598D01*
X006723Y008501D01*
X006801Y008423D01*
X006904Y008380D01*
X007016Y008380D01*
X007119Y008423D01*
X007197Y008501D01*
X007240Y008604D01*
X007240Y008716D01*
X007197Y008819D01*
X009760Y008819D01*
X009744Y008803D02*
X009743Y008803D01*
X009701Y008761D01*
X009658Y008720D01*
X009658Y008719D01*
X009634Y008665D01*
X009611Y008610D01*
X009611Y008609D01*
X009610Y008550D01*
X009609Y008491D01*
X009609Y008491D01*
X009591Y006894D01*
X009527Y006958D01*
X008964Y006958D01*
X008944Y006938D01*
X008862Y006938D01*
X008862Y006856D01*
X008862Y006855D01*
X008862Y006938D01*
X008762Y006938D01*
X008734Y006931D01*
X008705Y006938D01*
X008606Y006938D01*
X008606Y006855D01*
X008606Y006856D01*
X008606Y006938D01*
X008523Y006938D01*
X008503Y006958D01*
X007685Y006958D01*
X007665Y006938D01*
X007582Y006938D01*
X007499Y006938D01*
X007479Y006958D01*
X006917Y006958D01*
X006897Y006938D01*
X006814Y006938D01*
X006732Y006938D01*
X006712Y006958D01*
X006543Y006958D01*
X006543Y007115D01*
X006506Y007203D01*
X005813Y007896D01*
X005746Y007963D01*
X005658Y008000D01*
X004439Y008000D01*
X004460Y008050D01*
X004460Y008231D01*
X004474Y008245D01*
X004504Y008216D01*
X004550Y008189D01*
X004602Y008175D01*
X004732Y008175D01*
X004732Y008482D01*
X004788Y008482D01*
X004788Y008538D01*
X004732Y008538D01*
X004732Y008845D01*
X004602Y008845D01*
X004550Y008831D01*
X004504Y008804D01*
X004474Y008775D01*
X004460Y008789D01*
X004460Y008836D01*
X004479Y008855D01*
X004735Y008855D01*
X004840Y008960D01*
X004840Y009560D01*
X004735Y009665D01*
X004395Y009665D01*
X004476Y009747D01*
X004482Y009737D01*
X004512Y009707D01*
X004548Y009686D01*
X004589Y009675D01*
X004770Y009675D01*
X004770Y010020D01*
X004850Y010020D01*
X004850Y010100D01*
X004770Y010100D01*
X004770Y010445D01*
X004589Y010445D01*
X004548Y010434D01*
X004512Y010413D01*
X004482Y010383D01*
X004476Y010373D01*
X004460Y010390D01*
X004460Y010631D01*
X004474Y010645D01*
X004504Y010616D01*
X004550Y010589D01*
X004602Y010575D01*
X004732Y010575D01*
X004732Y010882D01*
X004788Y010882D01*
X004788Y010938D01*
X005095Y010938D01*
X005095Y011068D01*
X005094Y011070D01*
X006958Y011070D01*
X007046Y011107D01*
X007372Y011433D01*
X007469Y011473D01*
X007547Y011551D01*
X007590Y011654D01*
X007590Y011766D01*
X007547Y011869D01*
X007469Y011947D01*
X007366Y011990D01*
X007254Y011990D01*
X007151Y011947D01*
X007073Y011869D01*
X007033Y011772D01*
X006811Y011550D01*
X005095Y011550D01*
X005095Y011632D01*
X004788Y011632D01*
X004788Y011688D01*
X004732Y011688D01*
X004732Y011995D01*
X004602Y011995D01*
X004550Y011981D01*
X004504Y011954D01*
X004474Y011925D01*
X004384Y012015D01*
X003936Y012015D01*
X003805Y011884D01*
X003805Y011436D01*
X003860Y011381D01*
X003860Y011189D01*
X000718Y011189D01*
X000718Y011071D02*
X003805Y011071D01*
X003805Y011134D02*
X003805Y010686D01*
X003860Y010631D01*
X003860Y010465D01*
X003835Y010465D01*
X003730Y010360D01*
X003730Y010300D01*
X003459Y010300D01*
X003365Y010394D01*
X003365Y010634D01*
X003234Y010765D01*
X002786Y010765D01*
X002710Y010689D01*
X002634Y010765D01*
X002186Y010765D01*
X002074Y010653D01*
X001963Y010765D01*
X001557Y010765D01*
X001442Y010649D01*
X001431Y010669D01*
X001394Y010706D01*
X001349Y010732D01*
X001299Y010745D01*
X001175Y010745D01*
X001175Y010425D01*
X001145Y010425D01*
X001145Y010745D01*
X001021Y010745D01*
X000971Y010732D01*
X000926Y010706D01*
X000889Y010669D01*
X000863Y010624D01*
X000850Y010574D01*
X000850Y010425D01*
X001145Y010425D01*
X001145Y010395D01*
X001175Y010395D01*
X001175Y010075D01*
X001299Y010075D01*
X001349Y010088D01*
X001394Y010114D01*
X001431Y010151D01*
X001442Y010171D01*
X001557Y010055D01*
X001963Y010055D01*
X002074Y010167D01*
X002186Y010055D01*
X002634Y010055D01*
X002710Y010131D01*
X002786Y010055D01*
X003026Y010055D01*
X003151Y009929D01*
X002990Y009929D01*
X002917Y009915D01*
X002849Y009887D01*
X002787Y009845D01*
X002734Y009793D01*
X002693Y009731D01*
X002665Y009663D01*
X002650Y009590D01*
X002650Y009553D01*
X003243Y009553D01*
X003243Y009553D01*
X002650Y009553D01*
X002650Y009516D01*
X002665Y009443D01*
X002693Y009375D01*
X002734Y009313D01*
X002787Y009260D01*
X002836Y009228D01*
X002774Y009167D01*
X002749Y009105D01*
X002595Y009105D01*
X002485Y009059D01*
X002401Y008975D01*
X002240Y008814D01*
X002156Y008730D01*
X002110Y008620D01*
X002110Y007100D01*
X002156Y006990D01*
X002406Y006740D01*
X002490Y006656D01*
X002600Y006610D01*
X002751Y006610D01*
X002774Y006553D01*
X002836Y006492D01*
X002787Y006460D01*
X002734Y006407D01*
X002693Y006345D01*
X002665Y006277D01*
X002650Y006204D01*
X002650Y006167D01*
X002650Y006130D01*
X002665Y006057D01*
X002693Y005989D01*
X002734Y005927D01*
X002787Y005875D01*
X002849Y005833D01*
X002917Y005805D01*
X002990Y005791D01*
X003243Y005791D01*
X003243Y006167D01*
X002650Y006167D01*
X003243Y006167D01*
X003243Y006167D01*
X003243Y006167D01*
X003243Y005791D01*
X003497Y005791D01*
X003570Y005805D01*
X003638Y005833D01*
X003700Y005875D01*
X003752Y005927D01*
X003794Y005989D01*
X003808Y006022D01*
X003808Y006009D01*
X003937Y005880D01*
X004361Y005880D01*
X004460Y005979D01*
X004471Y005968D01*
X004464Y005975D02*
X004456Y005975D01*
X004471Y005856D02*
X003673Y005856D01*
X003785Y005975D02*
X003842Y005975D01*
X003243Y005975D02*
X003243Y005975D01*
X003243Y006093D02*
X003243Y006093D01*
X003243Y005856D02*
X003243Y005856D01*
X003261Y005738D02*
X004414Y005738D01*
X003350Y005027D02*
X007070Y005027D01*
X007070Y004908D02*
X003350Y004908D01*
X003365Y004790D02*
X007070Y004790D01*
X007070Y004671D02*
X003365Y004671D01*
X003365Y004553D02*
X007070Y004553D01*
X007070Y004434D02*
X003363Y004434D01*
X003350Y004316D02*
X007035Y004316D01*
X007750Y004351D02*
X007750Y005119D01*
X007754Y005116D01*
X007800Y005089D01*
X007852Y005075D01*
X007982Y005075D01*
X007982Y005382D01*
X008038Y005382D01*
X008038Y005438D01*
X008345Y005438D01*
X008345Y005568D01*
X008331Y005620D01*
X008314Y005650D01*
X008369Y005673D01*
X008447Y005751D01*
X008490Y005854D01*
X008490Y005966D01*
X008473Y006008D01*
X008503Y006008D01*
X008523Y006028D01*
X008606Y006028D01*
X008705Y006028D01*
X008734Y006035D01*
X008762Y006028D01*
X008862Y006028D01*
X008944Y006028D01*
X008964Y006008D01*
X009527Y006008D01*
X009581Y006062D01*
X009562Y004443D01*
X009369Y004250D01*
X007851Y004250D01*
X007750Y004351D01*
X007785Y004316D02*
X009435Y004316D01*
X009554Y004434D02*
X007750Y004434D01*
X007750Y004553D02*
X009563Y004553D01*
X009565Y004671D02*
X007750Y004671D01*
X007750Y004790D02*
X009566Y004790D01*
X009568Y004908D02*
X007750Y004908D01*
X007750Y005027D02*
X009569Y005027D01*
X009570Y005145D02*
X008296Y005145D01*
X008304Y005154D02*
X008331Y005200D01*
X008345Y005252D01*
X008345Y005382D01*
X009573Y005382D01*
X009572Y005264D02*
X008345Y005264D01*
X008304Y005154D02*
X008266Y005116D01*
X008220Y005089D01*
X008168Y005075D01*
X008038Y005075D01*
X008038Y005382D01*
X008345Y005382D01*
X008345Y005501D02*
X009574Y005501D01*
X009576Y005619D02*
X008331Y005619D01*
X008434Y005738D02*
X009577Y005738D01*
X009579Y005856D02*
X008490Y005856D01*
X008486Y005975D02*
X009580Y005975D01*
X010180Y005975D02*
X010450Y005975D01*
X010450Y006000D02*
X010450Y005064D01*
X010556Y004958D01*
X010670Y004958D01*
X010670Y004812D01*
X010630Y004716D01*
X010630Y004604D01*
X010673Y004501D01*
X010751Y004423D01*
X010854Y004380D01*
X010966Y004380D01*
X011069Y004423D01*
X011147Y004501D01*
X011190Y004604D01*
X011190Y004716D01*
X011177Y004747D01*
X011251Y004673D01*
X011354Y004630D01*
X011466Y004630D01*
X011562Y004670D01*
X012358Y004670D01*
X012446Y004707D01*
X012680Y004941D01*
X012680Y004854D01*
X012723Y004751D01*
X012801Y004673D01*
X012904Y004630D01*
X013016Y004630D01*
X013112Y004670D01*
X013308Y004670D01*
X013396Y004707D01*
X013846Y005157D01*
X013913Y005224D01*
X013949Y005309D01*
X013973Y005251D01*
X014051Y005173D01*
X014154Y005130D01*
X014266Y005130D01*
X014369Y005173D01*
X014447Y005251D01*
X014490Y005354D01*
X014490Y005466D01*
X014450Y005562D01*
X014450Y006630D01*
X014516Y006630D01*
X014619Y006673D01*
X014697Y006751D01*
X014740Y006854D01*
X014740Y006966D01*
X014700Y007062D01*
X014700Y011158D01*
X014663Y011246D01*
X014400Y011509D01*
X014400Y011630D01*
X014524Y011507D01*
X014807Y011389D01*
X015113Y011389D01*
X015396Y011507D01*
X015613Y011724D01*
X015731Y012007D01*
X015731Y012313D01*
X015613Y012596D01*
X015396Y012813D01*
X015113Y012931D01*
X014807Y012931D01*
X014524Y012813D01*
X014400Y012690D01*
X014400Y012958D01*
X014363Y013046D01*
X014296Y013113D01*
X013983Y013426D01*
X015232Y013426D01*
X015359Y013418D01*
X015359Y013418D01*
X015604Y013352D01*
X015823Y013226D01*
X016002Y013047D01*
X016129Y012827D01*
X016194Y012583D01*
X016202Y012456D01*
X016202Y003209D01*
X015984Y003209D01*
X015956Y003181D01*
X015928Y003209D01*
X015800Y003209D01*
X015800Y003478D01*
X015748Y003603D01*
X015153Y004198D01*
X015028Y004250D01*
X010351Y004250D01*
X010162Y004439D01*
X010209Y008418D01*
X010450Y008653D01*
X010450Y007820D01*
X010556Y007714D01*
X010686Y007714D01*
X010686Y006597D01*
X010722Y006508D01*
X011125Y006106D01*
X010556Y006106D01*
X010450Y006000D01*
X010544Y006093D02*
X010181Y006093D01*
X010183Y006212D02*
X011019Y006212D01*
X010900Y006330D02*
X010184Y006330D01*
X010186Y006449D02*
X010782Y006449D01*
X010698Y006567D02*
X010187Y006567D01*
X010188Y006686D02*
X010686Y006686D01*
X010686Y006804D02*
X010190Y006804D01*
X010191Y006923D02*
X010686Y006923D01*
X010686Y007041D02*
X010192Y007041D01*
X010194Y007160D02*
X010686Y007160D01*
X010686Y007279D02*
X010195Y007279D01*
X010197Y007397D02*
X010686Y007397D01*
X010686Y007516D02*
X010198Y007516D01*
X010199Y007634D02*
X010686Y007634D01*
X010518Y007753D02*
X010201Y007753D01*
X010202Y007871D02*
X010450Y007871D01*
X010450Y007990D02*
X010204Y007990D01*
X010205Y008108D02*
X010450Y008108D01*
X010450Y008227D02*
X010206Y008227D01*
X010208Y008345D02*
X010450Y008345D01*
X010450Y008464D02*
X010256Y008464D01*
X010378Y008582D02*
X010450Y008582D01*
X010666Y008862D02*
X010765Y008958D01*
X011296Y008958D01*
X011401Y009064D01*
X011401Y009780D01*
X011435Y009746D01*
X011435Y009064D01*
X011540Y008958D01*
X012170Y008958D01*
X012170Y008862D01*
X011540Y008862D01*
X011435Y008756D01*
X011435Y007820D01*
X011540Y007714D01*
X011670Y007714D01*
X011670Y007712D01*
X011707Y007624D01*
X011983Y007348D01*
X012023Y007251D01*
X012101Y007173D01*
X012204Y007130D01*
X012284Y007130D01*
X012223Y007069D01*
X012183Y006972D01*
X011757Y006546D01*
X011720Y006458D01*
X011720Y006106D01*
X011650Y006106D01*
X011650Y006208D01*
X011613Y006296D01*
X011546Y006363D01*
X011166Y006744D01*
X011166Y007714D01*
X011296Y007714D01*
X011401Y007820D01*
X011401Y008756D01*
X011296Y008862D01*
X010666Y008862D01*
X010744Y008938D02*
X012170Y008938D01*
X012650Y008938D02*
X013720Y008938D01*
X013720Y009056D02*
X013362Y009056D01*
X013370Y009064D02*
X013370Y010000D01*
X013264Y010106D01*
X013134Y010106D01*
X013134Y011558D01*
X013174Y011654D01*
X013174Y011714D01*
X013264Y011714D01*
X013270Y011720D01*
X013270Y011062D01*
X013307Y010974D01*
X013720Y010561D01*
X013720Y007562D01*
X013680Y007466D01*
X013680Y007379D01*
X013305Y007755D01*
X013370Y007820D01*
X013370Y008756D01*
X013264Y008862D01*
X012650Y008862D01*
X012650Y008958D01*
X013264Y008958D01*
X013370Y009064D01*
X013370Y009175D02*
X013720Y009175D01*
X013720Y009293D02*
X013370Y009293D01*
X013370Y009412D02*
X013720Y009412D01*
X013720Y009530D02*
X013370Y009530D01*
X013370Y009649D02*
X013720Y009649D01*
X013720Y009767D02*
X013370Y009767D01*
X013370Y009886D02*
X013720Y009886D01*
X013720Y010004D02*
X013366Y010004D01*
X013134Y010123D02*
X013720Y010123D01*
X013720Y010241D02*
X013134Y010241D01*
X013134Y010360D02*
X013720Y010360D01*
X013720Y010478D02*
X013134Y010478D01*
X013134Y010597D02*
X013684Y010597D01*
X013566Y010715D02*
X013134Y010715D01*
X013134Y010834D02*
X013447Y010834D01*
X013329Y010952D02*
X013134Y010952D01*
X013134Y011071D02*
X013270Y011071D01*
X013270Y011189D02*
X013134Y011189D01*
X013134Y011308D02*
X013270Y011308D01*
X013270Y011426D02*
X013134Y011426D01*
X013134Y011545D02*
X013270Y011545D01*
X013270Y011663D02*
X013174Y011663D01*
X012894Y011710D02*
X012894Y009532D01*
X012654Y010106D02*
X012650Y010106D01*
X012650Y010258D01*
X012613Y010346D01*
X012150Y010809D01*
X012150Y011714D01*
X012280Y011714D01*
X012385Y011820D01*
X012385Y012620D01*
X012419Y012620D01*
X012419Y011820D01*
X012524Y011714D01*
X012614Y011714D01*
X012614Y011654D01*
X012654Y011558D01*
X012654Y010106D01*
X012650Y010123D02*
X012654Y010123D01*
X012650Y010241D02*
X012654Y010241D01*
X012654Y010360D02*
X012600Y010360D01*
X012654Y010478D02*
X012481Y010478D01*
X012363Y010597D02*
X012654Y010597D01*
X012654Y010715D02*
X012244Y010715D01*
X012150Y010834D02*
X012654Y010834D01*
X012654Y010952D02*
X012150Y010952D01*
X012150Y011071D02*
X012654Y011071D01*
X012654Y011189D02*
X012150Y011189D01*
X012150Y011308D02*
X012654Y011308D01*
X012654Y011426D02*
X012150Y011426D01*
X012150Y011545D02*
X012654Y011545D01*
X012614Y011663D02*
X012150Y011663D01*
X012347Y011782D02*
X012457Y011782D01*
X012419Y011900D02*
X012385Y011900D01*
X012385Y012019D02*
X012419Y012019D01*
X012419Y012137D02*
X012385Y012137D01*
X012385Y012256D02*
X012419Y012256D01*
X012419Y012374D02*
X012385Y012374D01*
X012385Y012493D02*
X012419Y012493D01*
X012419Y012611D02*
X012385Y012611D01*
X011910Y012288D02*
X011910Y010710D01*
X012410Y010210D01*
X012410Y007910D01*
X012610Y007714D02*
X012681Y007714D01*
X012691Y007690D01*
X012758Y007622D01*
X013470Y006911D01*
X013470Y005459D01*
X013370Y005359D01*
X013370Y006000D01*
X013264Y006106D01*
X012524Y006106D01*
X012419Y006000D01*
X012419Y005358D01*
X012385Y005325D01*
X012385Y006000D01*
X012280Y006106D01*
X012200Y006106D01*
X012200Y006311D01*
X012522Y006633D01*
X012619Y006673D01*
X012697Y006751D01*
X012740Y006854D01*
X012740Y006966D01*
X012697Y007069D01*
X012619Y007147D01*
X012516Y007190D01*
X012436Y007190D01*
X012497Y007251D01*
X012540Y007354D01*
X012540Y007466D01*
X012497Y007569D01*
X012436Y007630D01*
X012466Y007630D01*
X012569Y007673D01*
X012610Y007714D01*
X012475Y007634D02*
X012747Y007634D01*
X012865Y007516D02*
X012519Y007516D01*
X012540Y007397D02*
X012984Y007397D01*
X013102Y007279D02*
X012509Y007279D01*
X012588Y007160D02*
X013221Y007160D01*
X013339Y007041D02*
X012709Y007041D01*
X012740Y006923D02*
X013458Y006923D01*
X013470Y006804D02*
X012719Y006804D01*
X012632Y006686D02*
X013470Y006686D01*
X013470Y006567D02*
X012457Y006567D01*
X012338Y006449D02*
X013470Y006449D01*
X013470Y006330D02*
X012220Y006330D01*
X012200Y006212D02*
X013470Y006212D01*
X013470Y006093D02*
X013276Y006093D01*
X013370Y005975D02*
X013470Y005975D01*
X013470Y005856D02*
X013370Y005856D01*
X013370Y005738D02*
X013470Y005738D01*
X013470Y005619D02*
X013370Y005619D01*
X013370Y005501D02*
X013470Y005501D01*
X013393Y005382D02*
X013370Y005382D01*
X013710Y005360D02*
X013710Y007010D01*
X012894Y007826D01*
X012894Y008288D01*
X013370Y008345D02*
X013720Y008345D01*
X013720Y008227D02*
X013370Y008227D01*
X013370Y008108D02*
X013720Y008108D01*
X013720Y007990D02*
X013370Y007990D01*
X013370Y007871D02*
X013720Y007871D01*
X013720Y007753D02*
X013307Y007753D01*
X013425Y007634D02*
X013720Y007634D01*
X013701Y007516D02*
X013544Y007516D01*
X013662Y007397D02*
X013680Y007397D01*
X013960Y007410D02*
X013960Y010660D01*
X013510Y011110D01*
X013510Y012560D01*
X013210Y012860D01*
X010010Y012860D01*
X009610Y012460D01*
X009610Y011210D01*
X009889Y010910D02*
X009965Y010986D01*
X009965Y011434D01*
X009850Y011549D01*
X009850Y012361D01*
X010109Y012620D01*
X010450Y012620D01*
X010450Y011820D01*
X010556Y011714D01*
X010626Y011714D01*
X010626Y010106D01*
X010556Y010106D01*
X010450Y010000D01*
X010450Y009489D01*
X009744Y008803D01*
X009658Y008719D02*
X009658Y008719D01*
X009650Y008701D02*
X007240Y008701D01*
X007231Y008582D02*
X009610Y008582D01*
X009611Y008610D02*
X009611Y008610D01*
X009609Y008464D02*
X007159Y008464D01*
X006960Y008660D02*
X006814Y008806D01*
X006814Y009337D01*
X007154Y008862D02*
X007735Y008862D01*
X007755Y008882D01*
X007838Y008882D01*
X007921Y008882D01*
X007941Y008862D01*
X009271Y008862D01*
X009527Y008862D01*
X009632Y008967D01*
X009632Y009707D01*
X009613Y009726D01*
X009613Y010197D01*
X009654Y010255D01*
X009834Y010255D01*
X009965Y010386D01*
X009965Y010834D01*
X009889Y010910D01*
X009931Y010952D02*
X010626Y010952D01*
X010626Y010834D02*
X009965Y010834D01*
X009965Y010715D02*
X010626Y010715D01*
X010626Y010597D02*
X009965Y010597D01*
X009965Y010478D02*
X010626Y010478D01*
X010626Y010360D02*
X009938Y010360D01*
X009644Y010241D02*
X010626Y010241D01*
X010626Y010123D02*
X009613Y010123D01*
X009613Y010004D02*
X010454Y010004D01*
X010450Y009886D02*
X009613Y009886D01*
X009613Y009767D02*
X010450Y009767D01*
X010450Y009649D02*
X009632Y009649D01*
X009632Y009530D02*
X010450Y009530D01*
X010371Y009412D02*
X009632Y009412D01*
X009632Y009293D02*
X010249Y009293D01*
X010127Y009175D02*
X009632Y009175D01*
X009632Y009056D02*
X010005Y009056D01*
X009882Y008938D02*
X009602Y008938D01*
X009373Y009337D02*
X009373Y010273D01*
X009610Y010610D01*
X009117Y010403D02*
X008910Y010610D01*
X009117Y010403D02*
X009117Y009337D01*
X008606Y009337D02*
X008606Y010906D01*
X008610Y010910D01*
X008910Y011210D02*
X008910Y012810D01*
X009210Y013110D01*
X013410Y013110D01*
X013810Y012710D01*
X013810Y011310D01*
X014210Y010910D01*
X014210Y005410D01*
X014475Y005501D02*
X014955Y005501D01*
X014955Y005619D02*
X014450Y005619D01*
X014450Y005738D02*
X014955Y005738D01*
X014955Y005810D02*
X015060Y005915D01*
X015335Y005915D01*
X015174Y005982D01*
X015032Y006124D01*
X014955Y006310D01*
X014955Y006510D01*
X015032Y006696D01*
X015174Y006838D01*
X015347Y006910D01*
X015174Y006982D01*
X015032Y007124D01*
X014955Y007310D01*
X014955Y007510D01*
X015032Y007696D01*
X015174Y007838D01*
X015347Y007910D01*
X015174Y007982D01*
X015032Y008124D01*
X014955Y008310D01*
X014955Y008510D01*
X015032Y008696D01*
X015174Y008838D01*
X015347Y008910D01*
X015174Y008982D01*
X015032Y009124D01*
X014955Y009310D01*
X014955Y009510D01*
X015032Y009696D01*
X015174Y009838D01*
X015360Y009915D01*
X015560Y009915D01*
X015746Y009838D01*
X015888Y009696D01*
X015965Y009510D01*
X015965Y009310D01*
X015888Y009124D01*
X015746Y008982D01*
X015573Y008910D01*
X015746Y008838D01*
X015888Y008696D01*
X015965Y008510D01*
X015965Y008310D01*
X015888Y008124D01*
X015746Y007982D01*
X015573Y007910D01*
X015746Y007838D01*
X015888Y007696D01*
X015965Y007510D01*
X015965Y007310D01*
X015888Y007124D01*
X015746Y006982D01*
X015573Y006910D01*
X015746Y006838D01*
X015888Y006696D01*
X015965Y006510D01*
X015965Y006310D01*
X015888Y006124D01*
X015746Y005982D01*
X015585Y005915D01*
X015860Y005915D01*
X015965Y005810D01*
X015965Y005010D01*
X015860Y004905D01*
X015060Y004905D01*
X014955Y005010D01*
X014955Y005810D01*
X015002Y005856D02*
X014450Y005856D01*
X014450Y005975D02*
X015191Y005975D01*
X015062Y006093D02*
X014450Y006093D01*
X014450Y006212D02*
X014995Y006212D01*
X014955Y006330D02*
X014450Y006330D01*
X014450Y006449D02*
X014955Y006449D01*
X014979Y006567D02*
X014450Y006567D01*
X014632Y006686D02*
X015028Y006686D01*
X015140Y006804D02*
X014719Y006804D01*
X014740Y006923D02*
X015316Y006923D01*
X015114Y007041D02*
X014709Y007041D01*
X014700Y007160D02*
X015017Y007160D01*
X014968Y007279D02*
X014700Y007279D01*
X014700Y007397D02*
X014955Y007397D01*
X014957Y007516D02*
X014700Y007516D01*
X014700Y007634D02*
X015006Y007634D01*
X015088Y007753D02*
X014700Y007753D01*
X014700Y007871D02*
X015253Y007871D01*
X015166Y007990D02*
X014700Y007990D01*
X014700Y008108D02*
X015048Y008108D01*
X014989Y008227D02*
X014700Y008227D01*
X014700Y008345D02*
X014955Y008345D01*
X014955Y008464D02*
X014700Y008464D01*
X014700Y008582D02*
X014985Y008582D01*
X015036Y008701D02*
X014700Y008701D01*
X014700Y008819D02*
X015155Y008819D01*
X015281Y008938D02*
X014700Y008938D01*
X014700Y009056D02*
X015100Y009056D01*
X015011Y009175D02*
X014700Y009175D01*
X014700Y009293D02*
X014962Y009293D01*
X014955Y009412D02*
X014700Y009412D01*
X014700Y009530D02*
X014963Y009530D01*
X015012Y009649D02*
X014700Y009649D01*
X014700Y009767D02*
X015103Y009767D01*
X015288Y009886D02*
X014700Y009886D01*
X014700Y010004D02*
X015194Y010004D01*
X015206Y009995D02*
X015274Y009961D01*
X015346Y009937D01*
X015422Y009925D01*
X015432Y009925D01*
X015432Y010382D01*
X015488Y010382D01*
X015488Y010438D01*
X015945Y010438D01*
X015945Y010448D01*
X015933Y010524D01*
X015909Y010596D01*
X015875Y010664D01*
X015830Y010726D01*
X015776Y010780D01*
X015714Y010825D01*
X015646Y010859D01*
X015574Y010883D01*
X015498Y010895D01*
X015488Y010895D01*
X015488Y010438D01*
X015432Y010438D01*
X015432Y010895D01*
X015422Y010895D01*
X015346Y010883D01*
X015274Y010859D01*
X015206Y010825D01*
X015144Y010780D01*
X015090Y010726D01*
X015045Y010664D01*
X015011Y010596D01*
X014987Y010524D01*
X014975Y010448D01*
X014975Y010438D01*
X015432Y010438D01*
X015432Y010382D01*
X014975Y010382D01*
X014975Y010372D01*
X014987Y010296D01*
X015011Y010224D01*
X015045Y010156D01*
X015090Y010094D01*
X015144Y010040D01*
X015206Y009995D01*
X015069Y010123D02*
X014700Y010123D01*
X014700Y010241D02*
X015005Y010241D01*
X014977Y010360D02*
X014700Y010360D01*
X014700Y010478D02*
X014980Y010478D01*
X015011Y010597D02*
X014700Y010597D01*
X014700Y010715D02*
X015082Y010715D01*
X015223Y010834D02*
X014700Y010834D01*
X014700Y010952D02*
X016202Y010952D01*
X016202Y010834D02*
X015697Y010834D01*
X015838Y010715D02*
X016202Y010715D01*
X016202Y010597D02*
X015909Y010597D01*
X015940Y010478D02*
X016202Y010478D01*
X016202Y010360D02*
X015943Y010360D01*
X015945Y010372D02*
X015945Y010382D01*
X015488Y010382D01*
X015488Y009925D01*
X015498Y009925D01*
X015574Y009937D01*
X015646Y009961D01*
X015714Y009995D01*
X015776Y010040D01*
X015830Y010094D01*
X015875Y010156D01*
X015909Y010224D01*
X015933Y010296D01*
X015945Y010372D01*
X015915Y010241D02*
X016202Y010241D01*
X016202Y010123D02*
X015851Y010123D01*
X015726Y010004D02*
X016202Y010004D01*
X016202Y009886D02*
X015632Y009886D01*
X015488Y010004D02*
X015432Y010004D01*
X015432Y010123D02*
X015488Y010123D01*
X015488Y010241D02*
X015432Y010241D01*
X015432Y010360D02*
X015488Y010360D01*
X015488Y010478D02*
X015432Y010478D01*
X015432Y010597D02*
X015488Y010597D01*
X015488Y010715D02*
X015432Y010715D01*
X015432Y010834D02*
X015488Y010834D01*
X015202Y011426D02*
X016202Y011426D01*
X016202Y011308D02*
X014602Y011308D01*
X014687Y011189D02*
X016202Y011189D01*
X016202Y011071D02*
X014700Y011071D01*
X014460Y011110D02*
X014160Y011410D01*
X014160Y012910D01*
X013660Y013410D01*
X008910Y013410D01*
X008260Y012760D01*
X008260Y011210D01*
X008210Y011210D01*
X007855Y011189D02*
X007128Y011189D01*
X007247Y011308D02*
X007855Y011308D01*
X007855Y011426D02*
X007365Y011426D01*
X007540Y011545D02*
X007966Y011545D01*
X008020Y011663D02*
X007590Y011663D01*
X007583Y011782D02*
X008020Y011782D01*
X008020Y011900D02*
X007516Y011900D01*
X007310Y011710D02*
X006910Y011310D01*
X004210Y011310D01*
X004160Y011360D01*
X004160Y011660D01*
X003805Y011663D02*
X002553Y011663D01*
X002613Y011724D02*
X002731Y012007D01*
X002731Y012313D01*
X002613Y012596D01*
X002396Y012813D01*
X002113Y012931D01*
X001807Y012931D01*
X001524Y012813D01*
X001307Y012596D01*
X001189Y012313D01*
X001189Y012007D01*
X001307Y011724D01*
X001524Y011507D01*
X001807Y011389D01*
X002113Y011389D01*
X002396Y011507D01*
X002613Y011724D01*
X002637Y011782D02*
X003805Y011782D01*
X003821Y011900D02*
X002686Y011900D01*
X002731Y012019D02*
X008020Y012019D01*
X008020Y012137D02*
X002731Y012137D01*
X002731Y012256D02*
X008020Y012256D01*
X008020Y012374D02*
X002705Y012374D01*
X002656Y012493D02*
X008020Y012493D01*
X008020Y012611D02*
X002599Y012611D01*
X002480Y012730D02*
X008020Y012730D01*
X008037Y012848D02*
X002313Y012848D01*
X001607Y012848D02*
X000803Y012848D01*
X000765Y012730D02*
X001440Y012730D01*
X001321Y012611D02*
X000733Y012611D01*
X000720Y012493D02*
X001264Y012493D01*
X001215Y012374D02*
X000718Y012374D01*
X000718Y012256D02*
X001189Y012256D01*
X001189Y012137D02*
X000718Y012137D01*
X000718Y012019D02*
X001189Y012019D01*
X001234Y011900D02*
X000718Y011900D01*
X000718Y011782D02*
X001283Y011782D01*
X001367Y011663D02*
X000718Y011663D01*
X000718Y011545D02*
X001486Y011545D01*
X001718Y011426D02*
X000718Y011426D01*
X000718Y011308D02*
X003860Y011308D01*
X003860Y011189D02*
X003805Y011134D01*
X003805Y010952D02*
X000718Y010952D01*
X000718Y010834D02*
X003805Y010834D01*
X003805Y010715D02*
X003284Y010715D01*
X003365Y010597D02*
X003860Y010597D01*
X003860Y010478D02*
X003365Y010478D01*
X003400Y010360D02*
X003730Y010360D01*
X003360Y010060D02*
X004110Y010060D01*
X004175Y009655D02*
X003835Y009655D01*
X003818Y009672D01*
X003822Y009663D01*
X003837Y009590D01*
X003837Y009553D01*
X003243Y009553D01*
X003243Y009553D01*
X003837Y009553D01*
X003837Y009516D01*
X003822Y009443D01*
X003794Y009375D01*
X003765Y009331D01*
X003784Y009298D01*
X003797Y009248D01*
X003797Y009140D01*
X003440Y009140D01*
X003440Y009140D01*
X003797Y009140D01*
X003797Y009031D01*
X003790Y009004D01*
X003817Y008977D01*
X003817Y008746D01*
X003860Y008789D01*
X003860Y009020D01*
X003906Y009130D01*
X004080Y009304D01*
X004080Y009560D01*
X004175Y009655D01*
X004169Y009649D02*
X003825Y009649D01*
X003837Y009530D02*
X004080Y009530D01*
X004080Y009412D02*
X003809Y009412D01*
X003785Y009293D02*
X004069Y009293D01*
X003950Y009175D02*
X003797Y009175D01*
X003797Y009056D02*
X003875Y009056D01*
X003860Y008938D02*
X003817Y008938D01*
X003817Y008819D02*
X003860Y008819D01*
X004460Y008819D02*
X004529Y008819D01*
X004732Y008819D02*
X004788Y008819D01*
X004788Y008845D02*
X004788Y008538D01*
X005095Y008538D01*
X005095Y008668D01*
X005081Y008720D01*
X005054Y008766D01*
X005016Y008804D01*
X004970Y008831D01*
X004918Y008845D01*
X004788Y008845D01*
X004817Y008938D02*
X005818Y008938D01*
X005788Y009056D02*
X004840Y009056D01*
X004840Y009175D02*
X005788Y009175D01*
X005788Y009293D02*
X004840Y009293D01*
X004840Y009412D02*
X005788Y009412D01*
X005788Y009530D02*
X004840Y009530D01*
X004850Y009675D02*
X005031Y009675D01*
X005072Y009686D01*
X005108Y009707D01*
X005138Y009737D01*
X005159Y009773D01*
X005170Y009814D01*
X005170Y010020D01*
X004850Y010020D01*
X004850Y009675D01*
X004850Y009767D02*
X004770Y009767D01*
X004770Y009886D02*
X004850Y009886D01*
X004850Y010004D02*
X004770Y010004D01*
X004770Y010123D02*
X004850Y010123D01*
X004850Y010100D02*
X004850Y010445D01*
X005031Y010445D01*
X005072Y010434D01*
X005108Y010413D01*
X005138Y010383D01*
X005159Y010347D01*
X005170Y010306D01*
X005170Y010100D01*
X004850Y010100D01*
X004850Y010241D02*
X004770Y010241D01*
X004770Y010360D02*
X004850Y010360D01*
X004788Y010575D02*
X004918Y010575D01*
X004970Y010589D01*
X005016Y010616D01*
X005054Y010654D01*
X005081Y010700D01*
X005095Y010752D01*
X005095Y010882D01*
X004788Y010882D01*
X004788Y010575D01*
X004788Y010597D02*
X004732Y010597D01*
X004732Y010715D02*
X004788Y010715D01*
X004788Y010834D02*
X004732Y010834D01*
X004983Y010597D02*
X007855Y010597D01*
X007855Y010715D02*
X005085Y010715D01*
X005095Y010834D02*
X007855Y010834D01*
X007889Y010952D02*
X005095Y010952D01*
X005152Y010360D02*
X007882Y010360D01*
X007855Y010478D02*
X004460Y010478D01*
X004460Y010597D02*
X004537Y010597D01*
X005170Y010241D02*
X008110Y010241D01*
X008110Y010123D02*
X005170Y010123D01*
X005170Y010004D02*
X008110Y010004D01*
X008110Y009886D02*
X005170Y009886D01*
X005155Y009767D02*
X005848Y009767D01*
X005788Y009649D02*
X004751Y009649D01*
X004991Y008819D02*
X006574Y008819D01*
X006598Y008701D02*
X005086Y008701D01*
X005095Y008582D02*
X006689Y008582D01*
X006761Y008464D02*
X005095Y008464D01*
X005095Y008482D02*
X004788Y008482D01*
X004788Y008175D01*
X004918Y008175D01*
X004970Y008189D01*
X005016Y008216D01*
X005054Y008254D01*
X005081Y008300D01*
X005095Y008352D01*
X005095Y008482D01*
X005093Y008345D02*
X009608Y008345D01*
X009606Y008227D02*
X005027Y008227D01*
X004788Y008227D02*
X004732Y008227D01*
X004732Y008345D02*
X004788Y008345D01*
X004788Y008464D02*
X004732Y008464D01*
X004732Y008582D02*
X004788Y008582D01*
X004788Y008701D02*
X004732Y008701D01*
X004493Y008227D02*
X004460Y008227D01*
X004460Y008108D02*
X009605Y008108D01*
X009603Y007990D02*
X005683Y007990D01*
X005838Y007871D02*
X009602Y007871D01*
X009601Y007753D02*
X005957Y007753D01*
X006075Y007634D02*
X009599Y007634D01*
X009598Y007516D02*
X006194Y007516D01*
X006312Y007397D02*
X009597Y007397D01*
X009595Y007279D02*
X006431Y007279D01*
X006524Y007160D02*
X009594Y007160D01*
X009592Y007041D02*
X006543Y007041D01*
X006814Y006938D02*
X006814Y006856D01*
X006814Y006856D01*
X006814Y006856D01*
X006814Y006938D01*
X006814Y006923D02*
X006814Y006923D01*
X007070Y006483D02*
X007070Y005720D01*
X006760Y005410D01*
X007710Y005910D02*
X007838Y006038D01*
X007838Y006483D01*
X008094Y006483D02*
X008094Y006026D01*
X008210Y005910D01*
X008606Y006028D02*
X008606Y006110D01*
X008606Y006028D01*
X008606Y006093D02*
X008606Y006093D01*
X008606Y006110D02*
X008606Y006110D01*
X008862Y006110D02*
X008862Y006028D01*
X008862Y006110D01*
X008862Y006110D01*
X008862Y006093D02*
X008862Y006093D01*
X008859Y006483D02*
X008623Y006483D01*
X008609Y006483D01*
X008859Y006483D01*
X008859Y006483D01*
X008609Y006483D02*
X008609Y006483D01*
X008606Y006923D02*
X008606Y006923D01*
X008862Y006923D02*
X008862Y006923D01*
X009562Y006923D02*
X009591Y006923D01*
X010179Y005856D02*
X010450Y005856D01*
X010450Y005738D02*
X010177Y005738D01*
X010176Y005619D02*
X010450Y005619D01*
X010450Y005501D02*
X010174Y005501D01*
X010173Y005382D02*
X010450Y005382D01*
X010450Y005264D02*
X010172Y005264D01*
X010170Y005145D02*
X010450Y005145D01*
X010487Y005027D02*
X010169Y005027D01*
X010168Y004908D02*
X010670Y004908D01*
X010661Y004790D02*
X010166Y004790D01*
X010165Y004671D02*
X010630Y004671D01*
X010651Y004553D02*
X010163Y004553D01*
X010166Y004434D02*
X010740Y004434D01*
X010910Y004660D02*
X010910Y005516D01*
X010926Y005532D01*
X010710Y005686D01*
X011410Y006160D02*
X011410Y004910D01*
X012310Y004910D01*
X012960Y005560D01*
X012960Y005655D01*
X012894Y005532D01*
X012419Y005501D02*
X012385Y005501D01*
X012385Y005619D02*
X012419Y005619D01*
X012419Y005738D02*
X012385Y005738D01*
X012385Y005856D02*
X012419Y005856D01*
X012419Y005975D02*
X012385Y005975D01*
X012292Y006093D02*
X012512Y006093D01*
X011960Y006410D02*
X011960Y005582D01*
X011910Y005532D01*
X012385Y005382D02*
X012419Y005382D01*
X012648Y004908D02*
X012680Y004908D01*
X012707Y004790D02*
X012529Y004790D01*
X012361Y004671D02*
X012804Y004671D01*
X012960Y004910D02*
X013260Y004910D01*
X013710Y005360D01*
X013930Y005264D02*
X013967Y005264D01*
X013846Y005157D02*
X013846Y005157D01*
X013835Y005145D02*
X014117Y005145D01*
X014303Y005145D02*
X014955Y005145D01*
X014955Y005027D02*
X013716Y005027D01*
X013598Y004908D02*
X015057Y004908D01*
X014955Y005264D02*
X014453Y005264D01*
X014490Y005382D02*
X014955Y005382D01*
X015729Y005975D02*
X016202Y005975D01*
X016202Y006093D02*
X015858Y006093D01*
X015925Y006212D02*
X016202Y006212D01*
X016202Y006330D02*
X015965Y006330D01*
X015965Y006449D02*
X016202Y006449D01*
X016202Y006567D02*
X015941Y006567D01*
X015892Y006686D02*
X016202Y006686D01*
X016202Y006804D02*
X015780Y006804D01*
X015604Y006923D02*
X016202Y006923D01*
X016202Y007041D02*
X015806Y007041D01*
X015903Y007160D02*
X016202Y007160D01*
X016202Y007279D02*
X015952Y007279D01*
X015965Y007397D02*
X016202Y007397D01*
X016202Y007516D02*
X015963Y007516D01*
X015914Y007634D02*
X016202Y007634D01*
X016202Y007753D02*
X015832Y007753D01*
X015667Y007871D02*
X016202Y007871D01*
X016202Y007990D02*
X015754Y007990D01*
X015872Y008108D02*
X016202Y008108D01*
X016202Y008227D02*
X015931Y008227D01*
X015965Y008345D02*
X016202Y008345D01*
X016202Y008464D02*
X015965Y008464D01*
X015935Y008582D02*
X016202Y008582D01*
X016202Y008701D02*
X015884Y008701D01*
X015765Y008819D02*
X016202Y008819D01*
X016202Y008938D02*
X015639Y008938D01*
X015820Y009056D02*
X016202Y009056D01*
X016202Y009175D02*
X015909Y009175D01*
X015958Y009293D02*
X016202Y009293D01*
X016202Y009412D02*
X015965Y009412D01*
X015957Y009530D02*
X016202Y009530D01*
X016202Y009649D02*
X015908Y009649D01*
X015817Y009767D02*
X016202Y009767D01*
X014460Y011110D02*
X014460Y006910D01*
X015918Y005856D02*
X016202Y005856D01*
X016202Y005738D02*
X015965Y005738D01*
X015965Y005619D02*
X016202Y005619D01*
X016202Y005501D02*
X015965Y005501D01*
X015965Y005382D02*
X016202Y005382D01*
X016202Y005264D02*
X015965Y005264D01*
X015965Y005145D02*
X016202Y005145D01*
X016202Y005027D02*
X015965Y005027D01*
X015863Y004908D02*
X016202Y004908D01*
X016202Y004790D02*
X013479Y004790D01*
X013311Y004671D02*
X016202Y004671D01*
X016202Y004553D02*
X011169Y004553D01*
X011190Y004671D02*
X011254Y004671D01*
X011080Y004434D02*
X016202Y004434D01*
X016202Y004316D02*
X010285Y004316D01*
X009992Y003209D02*
X009960Y003178D01*
X009928Y003209D01*
X008992Y003209D01*
X008960Y003178D01*
X008928Y003209D01*
X007992Y003209D01*
X007960Y003178D01*
X007928Y003209D01*
X006992Y003209D01*
X006960Y003178D01*
X006928Y003209D01*
X005992Y003209D01*
X005960Y003178D01*
X005928Y003209D01*
X005450Y003209D01*
X005450Y003258D01*
X005490Y003354D01*
X005490Y003466D01*
X005447Y003569D01*
X005446Y003570D01*
X014819Y003570D01*
X015120Y003269D01*
X015120Y003209D01*
X014992Y003209D01*
X014944Y003162D01*
X014915Y003178D01*
X014875Y003189D01*
X014520Y003189D01*
X014520Y001908D01*
X014400Y001908D01*
X014400Y003189D01*
X014045Y003189D01*
X014005Y003178D01*
X013976Y003162D01*
X013928Y003209D01*
X012992Y003209D01*
X012960Y003178D01*
X012928Y003209D01*
X011992Y003209D01*
X011960Y003178D01*
X011928Y003209D01*
X010992Y003209D01*
X010960Y003178D01*
X010928Y003209D01*
X009992Y003209D01*
X008038Y005145D02*
X007982Y005145D01*
X007982Y005264D02*
X008038Y005264D01*
X007582Y006856D02*
X007582Y006856D01*
X007582Y006938D01*
X007582Y006856D01*
X007582Y006856D01*
X007582Y006923D02*
X007582Y006923D01*
X006047Y006973D02*
X006047Y006483D01*
X006047Y006973D02*
X005460Y007560D01*
X007154Y008862D02*
X007197Y008819D01*
X007838Y008882D02*
X007838Y008964D01*
X007838Y008882D01*
X007838Y008938D02*
X007838Y008938D01*
X007838Y008964D02*
X007838Y008964D01*
X007838Y008964D01*
X008350Y009337D02*
X008350Y010470D01*
X008210Y010610D01*
X007855Y011071D02*
X006959Y011071D01*
X006924Y011663D02*
X004788Y011663D01*
X004788Y011688D02*
X005095Y011688D01*
X005095Y011818D01*
X005081Y011870D01*
X005054Y011916D01*
X005016Y011954D01*
X004970Y011981D01*
X004918Y011995D01*
X004788Y011995D01*
X004788Y011688D01*
X004788Y011782D02*
X004732Y011782D01*
X004732Y011900D02*
X004788Y011900D01*
X005064Y011900D02*
X007104Y011900D01*
X007037Y011782D02*
X005095Y011782D01*
X003805Y011545D02*
X002434Y011545D01*
X002202Y011426D02*
X003815Y011426D01*
X002736Y010715D02*
X002684Y010715D01*
X002410Y010410D02*
X001760Y010410D01*
X002030Y010123D02*
X002119Y010123D01*
X002662Y009649D02*
X000718Y009649D01*
X000718Y009767D02*
X002717Y009767D01*
X002847Y009886D02*
X000718Y009886D01*
X000718Y010004D02*
X003077Y010004D01*
X003360Y010060D02*
X003010Y010410D01*
X002719Y010123D02*
X002701Y010123D01*
X002650Y009530D02*
X000718Y009530D01*
X000718Y009412D02*
X002678Y009412D01*
X002754Y009293D02*
X000718Y009293D01*
X000718Y009175D02*
X002782Y009175D01*
X002482Y009056D02*
X000718Y009056D01*
X000718Y008938D02*
X002363Y008938D01*
X002401Y008975D02*
X002401Y008975D01*
X002245Y008819D02*
X000718Y008819D01*
X000718Y008701D02*
X002143Y008701D01*
X002110Y008582D02*
X000718Y008582D01*
X000718Y008464D02*
X002110Y008464D01*
X002110Y008345D02*
X000718Y008345D01*
X000718Y008227D02*
X002110Y008227D01*
X002110Y008108D02*
X000718Y008108D01*
X000718Y007990D02*
X002110Y007990D01*
X002110Y007871D02*
X000718Y007871D01*
X000718Y007753D02*
X002110Y007753D01*
X002110Y007634D02*
X000718Y007634D01*
X000718Y007516D02*
X002110Y007516D01*
X002110Y007397D02*
X000718Y007397D01*
X000718Y007279D02*
X002110Y007279D01*
X002110Y007160D02*
X000718Y007160D01*
X000718Y007041D02*
X002134Y007041D01*
X002223Y006923D02*
X000718Y006923D01*
X000718Y006804D02*
X002341Y006804D01*
X002460Y006686D02*
X000718Y006686D01*
X000718Y006567D02*
X002768Y006567D01*
X002776Y006449D02*
X000718Y006449D01*
X000718Y006330D02*
X002687Y006330D01*
X002652Y006212D02*
X000718Y006212D01*
X000718Y006093D02*
X002658Y006093D01*
X002702Y005975D02*
X000718Y005975D01*
X000718Y005856D02*
X002814Y005856D01*
X002759Y005738D02*
X002661Y005738D01*
X002410Y005410D02*
X001760Y005410D01*
X001530Y005738D02*
X001390Y005738D01*
X001160Y005410D02*
X000860Y005410D01*
X000930Y005738D02*
X000718Y005738D01*
X000860Y004660D02*
X001160Y004660D01*
X000882Y004380D02*
X000804Y004380D01*
X000718Y004416D01*
X000718Y003209D01*
X000936Y003209D01*
X000964Y003181D01*
X000992Y003209D01*
X001120Y003209D01*
X001120Y003478D01*
X001172Y003603D01*
X001672Y004103D01*
X001672Y004103D01*
X001767Y004198D01*
X001892Y004250D01*
X002619Y004250D01*
X002670Y004301D01*
X002670Y004341D01*
X002634Y004305D01*
X002186Y004305D01*
X002074Y004417D01*
X001963Y004305D01*
X001557Y004305D01*
X001460Y004402D01*
X001363Y004305D01*
X000957Y004305D01*
X000882Y004380D01*
X000946Y004316D02*
X000718Y004316D01*
X000718Y004197D02*
X001767Y004197D01*
X001648Y004079D02*
X000718Y004079D01*
X000718Y003960D02*
X001530Y003960D01*
X001411Y003842D02*
X000718Y003842D01*
X000718Y003723D02*
X001293Y003723D01*
X001174Y003605D02*
X000718Y003605D01*
X000718Y003486D02*
X001124Y003486D01*
X001120Y003368D02*
X000718Y003368D01*
X000718Y003249D02*
X001120Y003249D01*
X001800Y003249D02*
X004970Y003249D01*
X004970Y003258D02*
X004970Y003188D01*
X004960Y003178D01*
X004928Y003209D01*
X003992Y003209D01*
X003960Y003178D01*
X003928Y003209D01*
X002992Y003209D01*
X002944Y003162D01*
X002915Y003178D01*
X002875Y003189D01*
X002520Y003189D01*
X002520Y001908D01*
X002400Y001908D01*
X002400Y003189D01*
X002045Y003189D01*
X002005Y003178D01*
X001976Y003162D01*
X001928Y003209D01*
X001800Y003209D01*
X001800Y003269D01*
X002101Y003570D01*
X004974Y003570D01*
X004973Y003569D01*
X004930Y003466D01*
X004930Y003354D01*
X004970Y003258D01*
X004930Y003368D02*
X001899Y003368D01*
X002017Y003486D02*
X004939Y003486D01*
X005210Y003410D02*
X005210Y002910D01*
X005460Y002660D01*
X005460Y001848D01*
X005450Y003249D02*
X015120Y003249D01*
X015021Y003368D02*
X005490Y003368D01*
X005481Y003486D02*
X014903Y003486D01*
X014520Y003131D02*
X014400Y003131D01*
X014400Y003012D02*
X014520Y003012D01*
X014520Y002894D02*
X014400Y002894D01*
X014400Y002775D02*
X014520Y002775D01*
X014520Y002657D02*
X014400Y002657D01*
X014400Y002538D02*
X014520Y002538D01*
X014520Y002420D02*
X014400Y002420D01*
X014400Y002301D02*
X014520Y002301D01*
X014520Y002183D02*
X014400Y002183D01*
X014400Y002064D02*
X014520Y002064D01*
X014520Y001946D02*
X014400Y001946D01*
X015800Y003249D02*
X016202Y003249D01*
X016202Y003368D02*
X015800Y003368D01*
X015796Y003486D02*
X016202Y003486D01*
X016202Y003605D02*
X015746Y003605D01*
X015627Y003723D02*
X016202Y003723D01*
X016202Y003842D02*
X015509Y003842D01*
X015390Y003960D02*
X016202Y003960D01*
X016202Y004079D02*
X015272Y004079D01*
X015153Y004197D02*
X016202Y004197D01*
X012460Y006910D02*
X011960Y006410D01*
X011778Y006567D02*
X011342Y006567D01*
X011460Y006449D02*
X011720Y006449D01*
X011720Y006330D02*
X011579Y006330D01*
X011648Y006212D02*
X011720Y006212D01*
X011410Y006160D02*
X010926Y006644D01*
X010926Y008288D01*
X011401Y008345D02*
X011435Y008345D01*
X011435Y008227D02*
X011401Y008227D01*
X011401Y008108D02*
X011435Y008108D01*
X011435Y007990D02*
X011401Y007990D01*
X011401Y007871D02*
X011435Y007871D01*
X011502Y007753D02*
X011334Y007753D01*
X011166Y007634D02*
X011702Y007634D01*
X011815Y007516D02*
X011166Y007516D01*
X011166Y007397D02*
X011934Y007397D01*
X012011Y007279D02*
X011166Y007279D01*
X011166Y007160D02*
X012132Y007160D01*
X012211Y007041D02*
X011166Y007041D01*
X011166Y006923D02*
X012134Y006923D01*
X012015Y006804D02*
X011166Y006804D01*
X011223Y006686D02*
X011897Y006686D01*
X012260Y007410D02*
X011910Y007760D01*
X011910Y008288D01*
X011435Y008464D02*
X011401Y008464D01*
X011401Y008582D02*
X011435Y008582D01*
X011435Y008701D02*
X011401Y008701D01*
X011338Y008819D02*
X011498Y008819D01*
X011443Y009056D02*
X011393Y009056D01*
X011401Y009175D02*
X011435Y009175D01*
X011435Y009293D02*
X011401Y009293D01*
X011401Y009412D02*
X011435Y009412D01*
X011435Y009530D02*
X011401Y009530D01*
X011401Y009649D02*
X011435Y009649D01*
X011414Y009767D02*
X011401Y009767D01*
X011754Y010106D02*
X012170Y010106D01*
X012170Y010111D01*
X011774Y010507D01*
X011707Y010574D01*
X011670Y010662D01*
X011670Y011714D01*
X011540Y011714D01*
X011435Y011820D01*
X011435Y012620D01*
X011401Y012620D01*
X011401Y011820D01*
X011296Y011714D01*
X011226Y011714D01*
X011226Y011690D01*
X011316Y011690D01*
X011419Y011647D01*
X011497Y011569D01*
X011540Y011466D01*
X011540Y011354D01*
X011500Y011258D01*
X011500Y010359D01*
X011754Y010106D01*
X011737Y010123D02*
X012158Y010123D01*
X012040Y010241D02*
X011618Y010241D01*
X011500Y010360D02*
X011921Y010360D01*
X011803Y010478D02*
X011500Y010478D01*
X011500Y010597D02*
X011697Y010597D01*
X011670Y010715D02*
X011500Y010715D01*
X011500Y010834D02*
X011670Y010834D01*
X011670Y010952D02*
X011500Y010952D01*
X011500Y011071D02*
X011670Y011071D01*
X011670Y011189D02*
X011500Y011189D01*
X011521Y011308D02*
X011670Y011308D01*
X011670Y011426D02*
X011540Y011426D01*
X011507Y011545D02*
X011670Y011545D01*
X011670Y011663D02*
X011381Y011663D01*
X011363Y011782D02*
X011473Y011782D01*
X011435Y011900D02*
X011401Y011900D01*
X011401Y012019D02*
X011435Y012019D01*
X011435Y012137D02*
X011401Y012137D01*
X011401Y012256D02*
X011435Y012256D01*
X011435Y012374D02*
X011401Y012374D01*
X011401Y012493D02*
X011435Y012493D01*
X011435Y012611D02*
X011401Y012611D01*
X010450Y012611D02*
X010100Y012611D01*
X009982Y012493D02*
X010450Y012493D01*
X010450Y012374D02*
X009863Y012374D01*
X009850Y012256D02*
X010450Y012256D01*
X010450Y012137D02*
X009850Y012137D01*
X009850Y012019D02*
X010450Y012019D01*
X010450Y011900D02*
X009850Y011900D01*
X009850Y011782D02*
X010489Y011782D01*
X010626Y011663D02*
X009850Y011663D01*
X009854Y011545D02*
X010626Y011545D01*
X010626Y011426D02*
X009965Y011426D01*
X009965Y011308D02*
X010626Y011308D01*
X010626Y011189D02*
X009965Y011189D01*
X009965Y011071D02*
X010626Y011071D01*
X011260Y011410D02*
X011260Y010260D01*
X011810Y009710D01*
X011810Y009632D01*
X011910Y009532D01*
X013307Y008819D02*
X013720Y008819D01*
X013720Y008701D02*
X013370Y008701D01*
X013370Y008582D02*
X013720Y008582D01*
X013720Y008464D02*
X013370Y008464D01*
X014483Y011426D02*
X014718Y011426D01*
X014486Y011545D02*
X014400Y011545D01*
X015434Y011545D02*
X016202Y011545D01*
X016202Y011663D02*
X015553Y011663D01*
X015637Y011782D02*
X016202Y011782D01*
X016202Y011900D02*
X015686Y011900D01*
X015731Y012019D02*
X016202Y012019D01*
X016202Y012137D02*
X015731Y012137D01*
X015731Y012256D02*
X016202Y012256D01*
X016202Y012374D02*
X015705Y012374D01*
X015656Y012493D02*
X016200Y012493D01*
X016187Y012611D02*
X015599Y012611D01*
X015480Y012730D02*
X016155Y012730D01*
X016117Y012848D02*
X015313Y012848D01*
X015845Y013204D02*
X014206Y013204D01*
X014087Y013322D02*
X015656Y013322D01*
X015964Y013085D02*
X014324Y013085D01*
X014396Y012967D02*
X016048Y012967D01*
X014607Y012848D02*
X014400Y012848D01*
X014400Y012730D02*
X014440Y012730D01*
X012894Y012288D02*
X012894Y011710D01*
X009681Y012870D02*
X009407Y012596D01*
X009370Y012508D01*
X009370Y011549D01*
X009260Y011439D01*
X009150Y011549D01*
X009150Y012711D01*
X009309Y012870D01*
X009681Y012870D01*
X009659Y012848D02*
X009287Y012848D01*
X009169Y012730D02*
X009540Y012730D01*
X009422Y012611D02*
X009150Y012611D01*
X009150Y012493D02*
X009370Y012493D01*
X009370Y012374D02*
X009150Y012374D01*
X009150Y012256D02*
X009370Y012256D01*
X009370Y012137D02*
X009150Y012137D01*
X009150Y012019D02*
X009370Y012019D01*
X009370Y011900D02*
X009150Y011900D01*
X009150Y011782D02*
X009370Y011782D01*
X009370Y011663D02*
X009150Y011663D01*
X009154Y011545D02*
X009366Y011545D01*
X008670Y011549D02*
X008560Y011439D01*
X008500Y011499D01*
X008500Y012661D01*
X008670Y012831D01*
X008670Y011549D01*
X008666Y011545D02*
X008500Y011545D01*
X008500Y011663D02*
X008670Y011663D01*
X008670Y011782D02*
X008500Y011782D01*
X008500Y011900D02*
X008670Y011900D01*
X008670Y012019D02*
X008500Y012019D01*
X008500Y012137D02*
X008670Y012137D01*
X008670Y012256D02*
X008500Y012256D01*
X008500Y012374D02*
X008670Y012374D01*
X008670Y012493D02*
X008500Y012493D01*
X008500Y012611D02*
X008670Y012611D01*
X008670Y012730D02*
X008569Y012730D01*
X008127Y012967D02*
X000872Y012967D01*
X000956Y013085D02*
X008246Y013085D01*
X008364Y013204D02*
X001075Y013204D01*
X001264Y013322D02*
X008483Y013322D01*
X007838Y009767D02*
X007838Y009767D01*
X007838Y009710D02*
X007838Y009710D01*
X002136Y010715D02*
X002013Y010715D01*
X001507Y010715D02*
X001377Y010715D01*
X001175Y010715D02*
X001145Y010715D01*
X001145Y010597D02*
X001175Y010597D01*
X001175Y010478D02*
X001145Y010478D01*
X001145Y010395D02*
X000850Y010395D01*
X000850Y010246D01*
X000863Y010196D01*
X000889Y010151D01*
X000926Y010114D01*
X000971Y010088D01*
X001021Y010075D01*
X001145Y010075D01*
X001145Y010395D01*
X001145Y010360D02*
X001175Y010360D01*
X001175Y010241D02*
X001145Y010241D01*
X001145Y010123D02*
X001175Y010123D01*
X000918Y010123D02*
X000718Y010123D01*
X000718Y010241D02*
X000851Y010241D01*
X000850Y010360D02*
X000718Y010360D01*
X000718Y010478D02*
X000850Y010478D01*
X000856Y010597D02*
X000718Y010597D01*
X000718Y010715D02*
X000943Y010715D01*
X001402Y010123D02*
X001490Y010123D01*
X001990Y005738D02*
X002159Y005738D01*
X002410Y004660D02*
X001760Y004660D01*
X001974Y004316D02*
X002175Y004316D01*
X002645Y004316D02*
X002670Y004316D01*
X001546Y004316D02*
X001374Y004316D01*
X002400Y003131D02*
X002520Y003131D01*
X002520Y003012D02*
X002400Y003012D01*
X002400Y002894D02*
X002520Y002894D01*
X002520Y002775D02*
X002400Y002775D01*
X002400Y002657D02*
X002520Y002657D01*
X002520Y002538D02*
X002400Y002538D01*
X002400Y002420D02*
X002520Y002420D01*
X002520Y002301D02*
X002400Y002301D01*
X002400Y002183D02*
X002520Y002183D01*
X002520Y002064D02*
X002400Y002064D01*
X002400Y001946D02*
X002520Y001946D01*
D28*
X001460Y003160D03*
X000960Y003860D03*
X000860Y004660D03*
X000860Y005410D03*
X002260Y006560D03*
X001210Y007160D03*
X001210Y008660D03*
X002460Y009310D03*
X001210Y009910D03*
X002410Y011060D03*
X003460Y010910D03*
X003460Y012160D03*
X004560Y013210D03*
X005210Y011660D03*
X005210Y010660D03*
X005960Y010160D03*
X006560Y010810D03*
X007510Y010960D03*
X007310Y011710D03*
X008560Y012110D03*
X009460Y012810D03*
X010160Y012310D03*
X011260Y011410D03*
X010560Y010710D03*
X011660Y010510D03*
X012510Y010810D03*
X013310Y010610D03*
X012894Y011710D03*
X013510Y009360D03*
X013560Y008310D03*
X013960Y007410D03*
X014460Y006910D03*
X013010Y006510D03*
X012460Y006910D03*
X012260Y007410D03*
X012410Y007910D03*
X011710Y006960D03*
X010360Y005810D03*
X009260Y005510D03*
X008710Y005660D03*
X008210Y005910D03*
X007710Y005910D03*
X008460Y007160D03*
X009160Y007560D03*
X007710Y008160D03*
X006960Y008660D03*
X006210Y008160D03*
X005210Y008410D03*
X004960Y008010D03*
X004160Y008110D03*
X005210Y009410D03*
X007710Y010160D03*
X008610Y010910D03*
X005460Y006910D03*
X004760Y006685D03*
X005710Y005910D03*
X005210Y004660D03*
X004560Y004610D03*
X004260Y004760D03*
X003760Y005710D03*
X004710Y003410D03*
X005210Y003410D03*
X006660Y004410D03*
X008960Y003410D03*
X010710Y003410D03*
X010910Y004660D03*
X011410Y004910D03*
X012960Y004910D03*
X014210Y005410D03*
X014460Y004660D03*
X014460Y003410D03*
X015460Y003160D03*
X012710Y003410D03*
X002460Y003410D03*
D29*
X006814Y006483D02*
X006814Y007114D01*
X006860Y007160D01*
X007582Y007132D02*
X007610Y007160D01*
X007582Y007132D02*
X007582Y006483D01*
X007326Y006483D02*
X007326Y005494D01*
X007410Y005410D01*
X008606Y005764D02*
X008710Y005660D01*
X008606Y005764D02*
X008606Y006483D01*
X008606Y007014D01*
X008460Y007160D01*
X008860Y007110D02*
X008862Y007108D01*
X008862Y006483D01*
X008862Y005962D01*
X008860Y005960D01*
X007710Y008160D02*
X007838Y008288D01*
X007838Y009337D01*
X007838Y010032D01*
X007710Y010160D01*
X004210Y008510D02*
X004160Y008510D01*
X004148Y008422D01*
X004172Y008422D02*
X004210Y008460D01*
X004160Y008560D02*
X004110Y008610D01*
D30*
X004160Y008560D02*
X004160Y008510D01*
X004172Y008498D01*
X004172Y008422D01*
X004160Y008510D02*
X004160Y008110D01*
X004160Y008560D02*
X004160Y008960D01*
X004460Y009260D01*
X004110Y010060D02*
X004160Y010110D01*
X004160Y010910D01*
X004160Y011660D01*
X003236Y009560D02*
X002710Y009560D01*
X002460Y009310D01*
X002655Y008805D02*
X003440Y008805D01*
X003243Y009553D02*
X003236Y009560D01*
X002655Y008805D02*
X002410Y008560D01*
X002410Y007160D01*
X002660Y006910D01*
X003435Y006910D01*
X003440Y006915D01*
X003805Y006915D01*
X004160Y006560D01*
X004160Y006321D01*
X004149Y006310D01*
X004760Y006321D02*
X004771Y006310D01*
X004771Y005671D01*
X004510Y005410D01*
X003010Y005410D01*
X003243Y006167D02*
X003440Y006364D01*
X003440Y006600D01*
X004760Y006685D02*
X004760Y006321D01*
X009860Y004260D02*
X009910Y008546D01*
X010926Y009532D01*
X010926Y012288D01*
D31*
X004160Y008510D02*
X004148Y008522D01*
X003010Y005410D02*
X003010Y004660D01*
X003010Y004160D01*
X002760Y003910D01*
X002960Y003910D01*
X003010Y003960D01*
X003010Y004160D01*
X003260Y003910D01*
X007110Y003910D01*
X007410Y004210D01*
X007710Y003910D01*
X009860Y003910D01*
X009860Y004260D01*
X009560Y003960D01*
X009860Y003910D02*
X010210Y003910D01*
X009860Y004260D01*
X010210Y003910D02*
X014960Y003910D01*
X015460Y003410D01*
X015460Y003160D01*
X015460Y001848D01*
X007710Y003910D02*
X007360Y003910D01*
X007410Y003960D01*
X007410Y004210D01*
X007410Y005410D01*
X007360Y003910D02*
X007110Y003910D01*
X003260Y003910D02*
X002960Y003910D01*
X002760Y003910D02*
X001960Y003910D01*
X001460Y003410D01*
X001460Y003160D01*
X001460Y001848D01*
M02*
