G75*
G70*
%OFA0B0*%
%FSLAX24Y24*%
%IPPOS*%
%LPD*%
%AMOC8*
5,1,8,0,0,1.08239X$1,22.5*
%
%ADD10C,0.0040*%
%ADD11C,0.0080*%
%ADD12C,0.0050*%
%ADD13C,0.0100*%
%ADD14C,0.0000*%
%ADD15C,0.0300*%
%ADD16R,0.0151X0.0006*%
%ADD17R,0.0239X0.0006*%
%ADD18R,0.0302X0.0006*%
%ADD19R,0.0346X0.0006*%
%ADD20R,0.0391X0.0006*%
%ADD21R,0.0422X0.0006*%
%ADD22R,0.0454X0.0006*%
%ADD23R,0.0479X0.0006*%
%ADD24R,0.0504X0.0006*%
%ADD25R,0.0529X0.0006*%
%ADD26R,0.0548X0.0006*%
%ADD27R,0.0573X0.0006*%
%ADD28R,0.0592X0.0006*%
%ADD29R,0.0611X0.0006*%
%ADD30R,0.0630X0.0006*%
%ADD31R,0.0643X0.0006*%
%ADD32R,0.0661X0.0006*%
%ADD33R,0.0674X0.0006*%
%ADD34R,0.0693X0.0006*%
%ADD35R,0.0706X0.0006*%
%ADD36R,0.0718X0.0006*%
%ADD37R,0.0731X0.0006*%
%ADD38R,0.0743X0.0006*%
%ADD39R,0.0750X0.0006*%
%ADD40R,0.0762X0.0006*%
%ADD41R,0.0775X0.0006*%
%ADD42R,0.0787X0.0006*%
%ADD43R,0.0800X0.0006*%
%ADD44R,0.0813X0.0006*%
%ADD45R,0.0806X0.0006*%
%ADD46R,0.0321X0.0006*%
%ADD47R,0.0359X0.0006*%
%ADD48R,0.0283X0.0006*%
%ADD49R,0.0328X0.0006*%
%ADD50R,0.0246X0.0006*%
%ADD51R,0.0315X0.0006*%
%ADD52R,0.0220X0.0006*%
%ADD53R,0.0296X0.0006*%
%ADD54R,0.0195X0.0006*%
%ADD55R,0.0290X0.0006*%
%ADD56R,0.0170X0.0006*%
%ADD57R,0.0277X0.0006*%
%ADD58R,0.0145X0.0006*%
%ADD59R,0.0126X0.0006*%
%ADD60R,0.0265X0.0006*%
%ADD61R,0.0107X0.0006*%
%ADD62R,0.0088X0.0006*%
%ADD63R,0.0258X0.0006*%
%ADD64R,0.0063X0.0006*%
%ADD65R,0.0252X0.0006*%
%ADD66R,0.0044X0.0006*%
%ADD67R,0.0025X0.0006*%
%ADD68R,0.0069X0.0006*%
%ADD69R,0.0006X0.0006*%
%ADD70R,0.0233X0.0006*%
%ADD71R,0.0227X0.0006*%
%ADD72R,0.0384X0.0006*%
%ADD73R,0.0409X0.0006*%
%ADD74R,0.0189X0.0006*%
%ADD75R,0.0435X0.0006*%
%ADD76R,0.0214X0.0006*%
%ADD77R,0.0460X0.0006*%
%ADD78R,0.0208X0.0006*%
%ADD79R,0.0050X0.0006*%
%ADD80R,0.0271X0.0006*%
%ADD81R,0.0485X0.0006*%
%ADD82R,0.0510X0.0006*%
%ADD83R,0.0523X0.0006*%
%ADD84R,0.0372X0.0006*%
%ADD85R,0.0561X0.0006*%
%ADD86R,0.0586X0.0006*%
%ADD87R,0.0340X0.0006*%
%ADD88R,0.0598X0.0006*%
%ADD89R,0.0365X0.0006*%
%ADD90R,0.0441X0.0006*%
%ADD91R,0.0038X0.0006*%
%ADD92R,0.0624X0.0006*%
%ADD93R,0.0416X0.0006*%
%ADD94R,0.0649X0.0006*%
%ADD95R,0.0428X0.0006*%
%ADD96R,0.0472X0.0006*%
%ADD97R,0.0491X0.0006*%
%ADD98R,0.0466X0.0006*%
%ADD99R,0.0756X0.0006*%
%ADD100R,0.0517X0.0006*%
%ADD101R,0.0769X0.0006*%
%ADD102R,0.0781X0.0006*%
%ADD103R,0.0794X0.0006*%
%ADD104R,0.0825X0.0006*%
%ADD105R,0.0838X0.0006*%
%ADD106R,0.0819X0.0006*%
%ADD107R,0.0353X0.0006*%
%ADD108R,0.0850X0.0006*%
%ADD109R,0.0334X0.0006*%
%ADD110R,0.0712X0.0006*%
%ADD111R,0.0157X0.0006*%
%ADD112R,0.0699X0.0006*%
%ADD113R,0.0309X0.0006*%
%ADD114R,0.0680X0.0006*%
%ADD115R,0.0668X0.0006*%
%ADD116R,0.0120X0.0006*%
%ADD117R,0.0655X0.0006*%
%ADD118R,0.0101X0.0006*%
%ADD119R,0.0082X0.0006*%
%ADD120R,0.0076X0.0006*%
%ADD121R,0.0535X0.0006*%
%ADD122R,0.0057X0.0006*%
%ADD123R,0.0498X0.0006*%
%ADD124R,0.0094X0.0006*%
%ADD125R,0.0132X0.0006*%
%ADD126R,0.0202X0.0006*%
%ADD127R,0.0176X0.0006*%
%ADD128R,0.0031X0.0006*%
%ADD129R,0.0183X0.0006*%
%ADD130R,0.0542X0.0006*%
%ADD131R,0.0554X0.0006*%
%ADD132R,0.0567X0.0006*%
%ADD133R,0.0580X0.0006*%
%ADD134R,0.0605X0.0006*%
%ADD135R,0.0687X0.0006*%
%ADD136R,0.0939X0.0006*%
%ADD137R,0.0932X0.0006*%
%ADD138R,0.0857X0.0006*%
%ADD139R,0.0737X0.0006*%
%ADD140R,0.0844X0.0006*%
%ADD141R,0.0724X0.0006*%
%ADD142R,0.0831X0.0006*%
%ADD143R,0.0164X0.0006*%
%ADD144R,0.0636X0.0006*%
%ADD145R,0.0397X0.0006*%
%ADD146R,0.0403X0.0006*%
%ADD147R,0.0378X0.0006*%
%ADD148R,0.0139X0.0006*%
%ADD149R,0.0113X0.0006*%
%ADD150R,0.0019X0.0006*%
%ADD151R,0.0013X0.0006*%
D10*
X001230Y003280D02*
X001437Y003487D01*
X001437Y003539D01*
X001385Y003590D01*
X001282Y003590D01*
X001230Y003539D01*
X001230Y003280D02*
X001437Y003280D01*
X001552Y003332D02*
X001604Y003280D01*
X001707Y003280D01*
X001759Y003332D01*
X001759Y003539D01*
X001707Y003590D01*
X001604Y003590D01*
X001552Y003539D01*
X001552Y003487D01*
X001604Y003435D01*
X001759Y003435D01*
X003480Y004740D02*
X003687Y004740D01*
X003583Y004740D02*
X003583Y004430D01*
X003802Y004430D02*
X004009Y004740D01*
X003802Y004740D02*
X004009Y004430D01*
X004059Y005180D02*
X003852Y005490D01*
X003737Y005439D02*
X003737Y005335D01*
X003685Y005283D01*
X003530Y005283D01*
X003530Y005180D02*
X003530Y005490D01*
X003685Y005490D01*
X003737Y005439D01*
X003633Y005283D02*
X003737Y005180D01*
X003852Y005180D02*
X004059Y005490D01*
X004585Y005580D02*
X004585Y005890D01*
X004792Y005890D01*
X004908Y005787D02*
X005011Y005890D01*
X005011Y005580D01*
X004908Y005580D02*
X005115Y005580D01*
X004689Y005735D02*
X004585Y005735D01*
X004359Y007530D02*
X004152Y007530D01*
X004359Y007737D01*
X004359Y007789D01*
X004307Y007840D01*
X004204Y007840D01*
X004152Y007789D01*
X004037Y007789D02*
X003985Y007840D01*
X003830Y007840D01*
X003830Y007530D01*
X003830Y007633D02*
X003985Y007633D01*
X004037Y007685D01*
X004037Y007789D01*
X003933Y007633D02*
X004037Y007530D01*
X001115Y007559D02*
X001063Y007508D01*
X001115Y007559D02*
X001115Y007663D01*
X001063Y007715D01*
X001012Y007715D01*
X000960Y007663D01*
X000960Y007559D01*
X000908Y007508D01*
X000856Y007508D01*
X000805Y007559D01*
X000805Y007663D01*
X000856Y007715D01*
X000805Y007830D02*
X000805Y007985D01*
X000856Y008037D01*
X000908Y008037D01*
X000960Y007985D01*
X000960Y007830D01*
X001115Y007830D02*
X001115Y007985D01*
X001063Y008037D01*
X001012Y008037D01*
X000960Y007985D01*
X000908Y008152D02*
X000805Y008256D01*
X001115Y008256D01*
X001115Y008359D02*
X001115Y008152D01*
X001115Y007830D02*
X000805Y007830D01*
X000805Y007392D02*
X001063Y007392D01*
X001115Y007341D01*
X001115Y007237D01*
X001063Y007185D01*
X000805Y007185D01*
X001030Y010830D02*
X001030Y011140D01*
X001185Y011140D01*
X001237Y011089D01*
X001237Y010985D01*
X001185Y010933D01*
X001030Y010933D01*
X001352Y010830D02*
X001456Y010933D01*
X001559Y010830D01*
X001559Y011140D01*
X001675Y011140D02*
X001830Y011140D01*
X001881Y011089D01*
X001881Y010985D01*
X001830Y010933D01*
X001675Y010933D01*
X001778Y010933D02*
X001881Y010830D01*
X001675Y010830D02*
X001675Y011140D01*
X001352Y011140D02*
X001352Y010830D01*
X008283Y003590D02*
X008180Y003487D01*
X008283Y003590D02*
X008283Y003280D01*
X008180Y003280D02*
X008387Y003280D01*
X008502Y003332D02*
X008554Y003280D01*
X008657Y003280D01*
X008709Y003332D01*
X008709Y003435D01*
X008657Y003487D01*
X008606Y003487D01*
X008502Y003435D01*
X008502Y003590D01*
X008709Y003590D01*
X010080Y004632D02*
X010132Y004580D01*
X010235Y004580D01*
X010287Y004632D01*
X010402Y004580D02*
X010402Y004787D01*
X010506Y004890D01*
X010609Y004787D01*
X010609Y004580D01*
X010725Y004580D02*
X010725Y004890D01*
X010880Y004890D01*
X010931Y004839D01*
X010931Y004735D01*
X010880Y004683D01*
X010725Y004683D01*
X010828Y004683D02*
X010931Y004580D01*
X011047Y004580D02*
X011202Y004580D01*
X011254Y004632D01*
X011254Y004839D01*
X011202Y004890D01*
X011047Y004890D01*
X011047Y004580D01*
X010609Y004735D02*
X010402Y004735D01*
X010287Y004839D02*
X010235Y004890D01*
X010132Y004890D01*
X010080Y004839D01*
X010080Y004632D01*
X012830Y004580D02*
X012830Y004890D01*
X012933Y004787D01*
X013037Y004890D01*
X013037Y004580D01*
X013152Y004632D02*
X013204Y004580D01*
X013307Y004580D01*
X013359Y004632D01*
X013475Y004632D02*
X013526Y004580D01*
X013630Y004580D01*
X013681Y004632D01*
X013681Y004890D01*
X013475Y004890D02*
X013475Y004632D01*
X013359Y004839D02*
X013307Y004890D01*
X013204Y004890D01*
X013152Y004839D01*
X013152Y004632D01*
X013930Y005230D02*
X014085Y005230D01*
X014137Y005282D01*
X014137Y005489D01*
X014085Y005540D01*
X013930Y005540D01*
X013930Y005230D01*
X013910Y005620D02*
X014877Y005620D01*
X014781Y005489D02*
X014781Y005385D01*
X014730Y005333D01*
X014575Y005333D01*
X014678Y005333D02*
X014781Y005230D01*
X014575Y005230D02*
X014575Y005540D01*
X014730Y005540D01*
X014781Y005489D01*
X014459Y005540D02*
X014252Y005540D01*
X014356Y005540D02*
X014356Y005230D01*
X014337Y006280D02*
X014233Y006383D01*
X014285Y006383D02*
X014130Y006383D01*
X014130Y006280D02*
X014130Y006590D01*
X014285Y006590D01*
X014337Y006539D01*
X014337Y006435D01*
X014285Y006383D01*
X014452Y006280D02*
X014659Y006590D01*
X014452Y006590D02*
X014659Y006280D01*
X014659Y007280D02*
X014452Y007590D01*
X014337Y007590D02*
X014130Y007590D01*
X014233Y007590D02*
X014233Y007280D01*
X014452Y007280D02*
X014659Y007590D01*
X014626Y008280D02*
X014730Y008280D01*
X014781Y008332D01*
X014626Y008280D02*
X014575Y008332D01*
X014575Y008539D01*
X014626Y008590D01*
X014730Y008590D01*
X014781Y008539D01*
X014459Y008539D02*
X014407Y008590D01*
X014304Y008590D01*
X014252Y008539D01*
X014252Y008332D01*
X014304Y008280D01*
X014407Y008280D01*
X014459Y008332D01*
X014137Y008383D02*
X014137Y008590D01*
X013930Y008590D02*
X013930Y008383D01*
X014033Y008280D01*
X014137Y008383D01*
X014085Y009280D02*
X013982Y009280D01*
X013930Y009332D01*
X013930Y009539D01*
X013982Y009590D01*
X014085Y009590D01*
X014137Y009539D01*
X014252Y009590D02*
X014459Y009590D01*
X014356Y009590D02*
X014356Y009280D01*
X014575Y009332D02*
X014626Y009280D01*
X014730Y009280D01*
X014781Y009332D01*
X014781Y009383D01*
X014730Y009435D01*
X014626Y009435D01*
X014575Y009487D01*
X014575Y009539D01*
X014626Y009590D01*
X014730Y009590D01*
X014781Y009539D01*
X014877Y009670D02*
X013910Y009670D01*
X014137Y009332D02*
X014085Y009280D01*
X014085Y010230D02*
X013982Y010230D01*
X013930Y010282D01*
X013930Y010489D01*
X013982Y010540D01*
X014085Y010540D01*
X014137Y010489D01*
X014137Y010385D02*
X014033Y010385D01*
X014137Y010385D02*
X014137Y010282D01*
X014085Y010230D01*
X014252Y010230D02*
X014252Y010540D01*
X014459Y010230D01*
X014459Y010540D01*
X014575Y010540D02*
X014730Y010540D01*
X014781Y010489D01*
X014781Y010282D01*
X014730Y010230D01*
X014575Y010230D01*
X014575Y010540D01*
X013780Y012980D02*
X013676Y012980D01*
X013625Y013032D01*
X013509Y013083D02*
X013509Y013290D01*
X013625Y013239D02*
X013676Y013290D01*
X013780Y013290D01*
X013831Y013239D01*
X013831Y013187D01*
X013780Y013135D01*
X013831Y013083D01*
X013831Y013032D01*
X013780Y012980D01*
X013780Y013135D02*
X013728Y013135D01*
X013509Y013083D02*
X013406Y012980D01*
X013302Y013083D01*
X013302Y013290D01*
X013187Y013239D02*
X013187Y013187D01*
X013135Y013135D01*
X013187Y013083D01*
X013187Y013032D01*
X013135Y012980D01*
X013032Y012980D01*
X012980Y013032D01*
X013083Y013135D02*
X013135Y013135D01*
X013187Y013239D02*
X013135Y013290D01*
X013032Y013290D01*
X012980Y013239D01*
X010509Y013190D02*
X010509Y012983D01*
X010406Y012880D01*
X010302Y012983D01*
X010302Y013190D01*
X010187Y013190D02*
X009980Y013190D01*
X009980Y013035D01*
X010083Y013087D01*
X010135Y013087D01*
X010187Y013035D01*
X010187Y012932D01*
X010135Y012880D01*
X010032Y012880D01*
X009980Y012932D01*
X015483Y003590D02*
X015483Y003280D01*
X015380Y003280D02*
X015587Y003280D01*
X015380Y003487D02*
X015483Y003590D01*
D11*
X012660Y004710D02*
X012510Y004560D01*
X012660Y004710D02*
X012510Y004860D01*
X012660Y004710D02*
X011410Y004710D01*
X011560Y004560D01*
X011410Y004710D02*
X011560Y004860D01*
X009718Y006886D02*
X005702Y006886D01*
X005702Y008934D01*
X009438Y008934D01*
X009718Y008654D01*
X009718Y006886D01*
X011260Y012960D02*
X011110Y013110D01*
X011260Y013260D01*
X011110Y013110D02*
X012510Y013110D01*
X012360Y012960D01*
X012510Y013110D02*
X012360Y013260D01*
D12*
X013721Y011599D02*
X013721Y010221D01*
X010099Y010221D01*
X010099Y011599D01*
X013721Y011599D01*
X014960Y010910D02*
X015960Y010910D01*
X015960Y004910D01*
X014960Y004910D01*
X014960Y010910D01*
X013721Y007599D02*
X013721Y006221D01*
X010099Y006221D01*
X010099Y007599D01*
X013721Y007599D01*
X009860Y010360D02*
X009360Y010360D01*
X009360Y011460D01*
X009860Y011460D01*
X009860Y010360D01*
X009160Y010360D02*
X008660Y010360D01*
X008660Y011460D01*
X009160Y011460D01*
X009160Y010360D01*
X008460Y010360D02*
X007960Y010360D01*
X007960Y011460D01*
X008460Y011460D01*
X008460Y010360D01*
X005010Y010660D02*
X005010Y011160D01*
X003910Y011160D01*
X003910Y010660D01*
X005010Y010660D01*
X005010Y011410D02*
X005010Y011910D01*
X003910Y011910D01*
X003910Y011410D01*
X005010Y011410D01*
X004535Y009910D02*
X004385Y009910D01*
X003885Y009760D02*
X003885Y009410D01*
X004185Y009410D01*
X004735Y009410D02*
X005035Y009410D01*
X005035Y009760D01*
X005010Y008760D02*
X003910Y008760D01*
X003910Y008260D01*
X005010Y008260D01*
X005010Y008760D01*
X003460Y009632D02*
X003460Y006088D01*
X000566Y006088D01*
X000566Y009632D01*
X003460Y009632D01*
X003260Y010160D02*
X003260Y010660D01*
X002160Y010660D01*
X002160Y010160D01*
X003260Y010160D01*
X001985Y010160D02*
X001985Y010660D01*
X000935Y010660D01*
X000935Y010160D01*
X001985Y010160D01*
X001510Y010260D02*
X001460Y010335D01*
X001460Y010485D01*
X001410Y010410D01*
X001460Y010335D01*
X001485Y010310D02*
X001485Y010510D01*
X001460Y010485D02*
X001510Y010560D01*
X001510Y010260D01*
X004010Y007360D02*
X005110Y007360D01*
X005110Y006860D01*
X004010Y006860D01*
X004010Y007360D01*
X004049Y006621D02*
X004871Y006621D01*
X004871Y005999D01*
X004049Y005999D01*
X004049Y006621D01*
X003260Y005660D02*
X003260Y005160D01*
X002160Y005160D01*
X002160Y005660D01*
X003260Y005660D01*
X003260Y004910D02*
X003260Y004410D01*
X002160Y004410D01*
X002160Y004910D01*
X003260Y004910D01*
X001985Y004910D02*
X001985Y004410D01*
X000935Y004410D01*
X000935Y004910D01*
X001985Y004910D01*
X001985Y005160D02*
X001985Y005660D01*
X000935Y005660D01*
X000935Y005160D01*
X001985Y005160D01*
X001510Y005260D02*
X001510Y005560D01*
X001460Y005485D01*
X001460Y005335D01*
X001510Y005260D01*
X001485Y005310D02*
X001485Y005510D01*
X001460Y005485D02*
X001410Y005410D01*
X001460Y005335D01*
X001510Y004810D02*
X001460Y004735D01*
X001460Y004585D01*
X001510Y004510D01*
X001510Y004810D01*
X001485Y004760D02*
X001485Y004560D01*
X001460Y004585D02*
X001410Y004660D01*
X001460Y004735D01*
X005910Y005160D02*
X005910Y005660D01*
X007010Y005660D01*
X007010Y005160D01*
X005910Y005160D01*
X007160Y005260D02*
X007160Y005560D01*
X007162Y005577D01*
X007166Y005594D01*
X007173Y005610D01*
X007183Y005624D01*
X007196Y005637D01*
X007210Y005647D01*
X007226Y005654D01*
X007243Y005658D01*
X007260Y005660D01*
X008160Y005660D01*
X008177Y005658D01*
X008194Y005654D01*
X008210Y005647D01*
X008224Y005637D01*
X008237Y005624D01*
X008247Y005610D01*
X008254Y005594D01*
X008258Y005577D01*
X008260Y005560D01*
X008260Y005260D01*
X008258Y005243D01*
X008254Y005226D01*
X008247Y005210D01*
X008237Y005196D01*
X008224Y005183D01*
X008210Y005173D01*
X008194Y005166D01*
X008177Y005162D01*
X008160Y005160D01*
X007260Y005160D01*
X007243Y005162D01*
X007226Y005166D01*
X007210Y005173D01*
X007196Y005183D01*
X007183Y005196D01*
X007173Y005210D01*
X007166Y005226D01*
X007162Y005243D01*
X007160Y005260D01*
D13*
X001688Y000664D02*
X015232Y000664D01*
X015299Y000666D01*
X015366Y000672D01*
X015433Y000681D01*
X015499Y000694D01*
X015564Y000711D01*
X015628Y000731D01*
X015691Y000755D01*
X015753Y000783D01*
X015812Y000814D01*
X015870Y000848D01*
X015926Y000885D01*
X015980Y000926D01*
X016032Y000969D01*
X016081Y001015D01*
X016127Y001064D01*
X016170Y001116D01*
X016211Y001170D01*
X016248Y001226D01*
X016282Y001284D01*
X016313Y001343D01*
X016341Y001405D01*
X016365Y001468D01*
X016385Y001532D01*
X016402Y001597D01*
X016415Y001663D01*
X016424Y001730D01*
X016430Y001797D01*
X016432Y001864D01*
X016432Y012456D01*
X016430Y012523D01*
X016424Y012590D01*
X016415Y012657D01*
X016402Y012723D01*
X016385Y012788D01*
X016365Y012852D01*
X016341Y012915D01*
X016313Y012977D01*
X016282Y013036D01*
X016248Y013094D01*
X016211Y013150D01*
X016170Y013204D01*
X016127Y013256D01*
X016081Y013305D01*
X016032Y013351D01*
X015980Y013394D01*
X015926Y013435D01*
X015870Y013472D01*
X015812Y013506D01*
X015753Y013537D01*
X015691Y013565D01*
X015628Y013589D01*
X015564Y013609D01*
X015499Y013626D01*
X015433Y013639D01*
X015366Y013648D01*
X015299Y013654D01*
X015232Y013656D01*
X001688Y013656D01*
X001621Y013654D01*
X001554Y013648D01*
X001487Y013639D01*
X001421Y013626D01*
X001356Y013609D01*
X001292Y013589D01*
X001229Y013565D01*
X001167Y013537D01*
X001108Y013506D01*
X001050Y013472D01*
X000994Y013435D01*
X000940Y013394D01*
X000888Y013351D01*
X000839Y013305D01*
X000793Y013256D01*
X000750Y013204D01*
X000709Y013150D01*
X000672Y013094D01*
X000638Y013036D01*
X000607Y012977D01*
X000579Y012915D01*
X000555Y012852D01*
X000535Y012788D01*
X000518Y012723D01*
X000505Y012657D01*
X000496Y012590D01*
X000490Y012523D01*
X000488Y012456D01*
X000488Y001864D01*
X000490Y001797D01*
X000496Y001730D01*
X000505Y001663D01*
X000518Y001597D01*
X000535Y001532D01*
X000555Y001468D01*
X000579Y001405D01*
X000607Y001343D01*
X000638Y001284D01*
X000672Y001226D01*
X000709Y001170D01*
X000750Y001116D01*
X000793Y001064D01*
X000839Y001015D01*
X000888Y000969D01*
X000940Y000926D01*
X000994Y000885D01*
X001050Y000848D01*
X001108Y000814D01*
X001167Y000783D01*
X001229Y000755D01*
X001292Y000731D01*
X001356Y000711D01*
X001421Y000694D01*
X001487Y000681D01*
X001554Y000672D01*
X001621Y000666D01*
X001688Y000664D01*
X000519Y004207D02*
X016401Y004207D01*
D14*
X014369Y012160D02*
X014371Y012208D01*
X014377Y012256D01*
X014387Y012303D01*
X014400Y012349D01*
X014418Y012394D01*
X014438Y012438D01*
X014463Y012480D01*
X014491Y012519D01*
X014521Y012556D01*
X014555Y012590D01*
X014592Y012622D01*
X014630Y012651D01*
X014671Y012676D01*
X014714Y012698D01*
X014759Y012716D01*
X014805Y012730D01*
X014852Y012741D01*
X014900Y012748D01*
X014948Y012751D01*
X014996Y012750D01*
X015044Y012745D01*
X015092Y012736D01*
X015138Y012724D01*
X015183Y012707D01*
X015227Y012687D01*
X015269Y012664D01*
X015309Y012637D01*
X015347Y012607D01*
X015382Y012574D01*
X015414Y012538D01*
X015444Y012500D01*
X015470Y012459D01*
X015492Y012416D01*
X015512Y012372D01*
X015527Y012327D01*
X015539Y012280D01*
X015547Y012232D01*
X015551Y012184D01*
X015551Y012136D01*
X015547Y012088D01*
X015539Y012040D01*
X015527Y011993D01*
X015512Y011948D01*
X015492Y011904D01*
X015470Y011861D01*
X015444Y011820D01*
X015414Y011782D01*
X015382Y011746D01*
X015347Y011713D01*
X015309Y011683D01*
X015269Y011656D01*
X015227Y011633D01*
X015183Y011613D01*
X015138Y011596D01*
X015092Y011584D01*
X015044Y011575D01*
X014996Y011570D01*
X014948Y011569D01*
X014900Y011572D01*
X014852Y011579D01*
X014805Y011590D01*
X014759Y011604D01*
X014714Y011622D01*
X014671Y011644D01*
X014630Y011669D01*
X014592Y011698D01*
X014555Y011730D01*
X014521Y011764D01*
X014491Y011801D01*
X014463Y011840D01*
X014438Y011882D01*
X014418Y011926D01*
X014400Y011971D01*
X014387Y012017D01*
X014377Y012064D01*
X014371Y012112D01*
X014369Y012160D01*
X002909Y008998D02*
X002911Y009019D01*
X002917Y009039D01*
X002926Y009059D01*
X002938Y009076D01*
X002953Y009090D01*
X002971Y009102D01*
X002991Y009110D01*
X003011Y009115D01*
X003032Y009116D01*
X003053Y009113D01*
X003073Y009107D01*
X003092Y009096D01*
X003109Y009083D01*
X003122Y009067D01*
X003133Y009049D01*
X003141Y009029D01*
X003145Y009009D01*
X003145Y008987D01*
X003141Y008967D01*
X003133Y008947D01*
X003122Y008929D01*
X003109Y008913D01*
X003092Y008900D01*
X003073Y008889D01*
X003053Y008883D01*
X003032Y008880D01*
X003011Y008881D01*
X002991Y008886D01*
X002971Y008894D01*
X002953Y008906D01*
X002938Y008920D01*
X002926Y008937D01*
X002917Y008957D01*
X002911Y008977D01*
X002909Y008998D01*
X002909Y006722D02*
X002911Y006743D01*
X002917Y006763D01*
X002926Y006783D01*
X002938Y006800D01*
X002953Y006814D01*
X002971Y006826D01*
X002991Y006834D01*
X003011Y006839D01*
X003032Y006840D01*
X003053Y006837D01*
X003073Y006831D01*
X003092Y006820D01*
X003109Y006807D01*
X003122Y006791D01*
X003133Y006773D01*
X003141Y006753D01*
X003145Y006733D01*
X003145Y006711D01*
X003141Y006691D01*
X003133Y006671D01*
X003122Y006653D01*
X003109Y006637D01*
X003092Y006624D01*
X003073Y006613D01*
X003053Y006607D01*
X003032Y006604D01*
X003011Y006605D01*
X002991Y006610D01*
X002971Y006618D01*
X002953Y006630D01*
X002938Y006644D01*
X002926Y006661D01*
X002917Y006681D01*
X002911Y006701D01*
X002909Y006722D01*
X001369Y012160D02*
X001371Y012208D01*
X001377Y012256D01*
X001387Y012303D01*
X001400Y012349D01*
X001418Y012394D01*
X001438Y012438D01*
X001463Y012480D01*
X001491Y012519D01*
X001521Y012556D01*
X001555Y012590D01*
X001592Y012622D01*
X001630Y012651D01*
X001671Y012676D01*
X001714Y012698D01*
X001759Y012716D01*
X001805Y012730D01*
X001852Y012741D01*
X001900Y012748D01*
X001948Y012751D01*
X001996Y012750D01*
X002044Y012745D01*
X002092Y012736D01*
X002138Y012724D01*
X002183Y012707D01*
X002227Y012687D01*
X002269Y012664D01*
X002309Y012637D01*
X002347Y012607D01*
X002382Y012574D01*
X002414Y012538D01*
X002444Y012500D01*
X002470Y012459D01*
X002492Y012416D01*
X002512Y012372D01*
X002527Y012327D01*
X002539Y012280D01*
X002547Y012232D01*
X002551Y012184D01*
X002551Y012136D01*
X002547Y012088D01*
X002539Y012040D01*
X002527Y011993D01*
X002512Y011948D01*
X002492Y011904D01*
X002470Y011861D01*
X002444Y011820D01*
X002414Y011782D01*
X002382Y011746D01*
X002347Y011713D01*
X002309Y011683D01*
X002269Y011656D01*
X002227Y011633D01*
X002183Y011613D01*
X002138Y011596D01*
X002092Y011584D01*
X002044Y011575D01*
X001996Y011570D01*
X001948Y011569D01*
X001900Y011572D01*
X001852Y011579D01*
X001805Y011590D01*
X001759Y011604D01*
X001714Y011622D01*
X001671Y011644D01*
X001630Y011669D01*
X001592Y011698D01*
X001555Y011730D01*
X001521Y011764D01*
X001491Y011801D01*
X001463Y011840D01*
X001438Y011882D01*
X001418Y011926D01*
X001400Y011971D01*
X001387Y012017D01*
X001377Y012064D01*
X001371Y012112D01*
X001369Y012160D01*
D15*
X009710Y009160D03*
D16*
X006703Y011876D03*
X006710Y012223D03*
X004826Y013167D03*
X004492Y013161D03*
D17*
X005519Y012796D03*
X005519Y012790D03*
X005897Y013092D03*
X006036Y012878D03*
X006477Y012808D03*
X006477Y012802D03*
X006483Y012815D03*
X006458Y012493D03*
X006464Y012487D03*
X007037Y012160D03*
X006703Y011882D03*
X007100Y012512D03*
X007138Y012802D03*
X007138Y012808D03*
X007529Y012802D03*
X007535Y012808D03*
X007535Y012815D03*
X007541Y012821D03*
X007516Y012468D03*
X007522Y012462D03*
X008146Y012500D03*
X008184Y012790D03*
X008184Y012796D03*
X008656Y012796D03*
X008656Y012790D03*
X009034Y013092D03*
X009173Y012878D03*
D18*
X008700Y012878D03*
X008165Y012865D03*
X008102Y012424D03*
X007755Y012223D03*
X007579Y012399D03*
X007056Y012449D03*
X006703Y011889D03*
X007610Y012897D03*
X006798Y013086D03*
X005563Y012878D03*
D19*
X005585Y012903D03*
X006706Y011895D03*
X007034Y012430D03*
X007097Y012890D03*
X007607Y012386D03*
X007752Y012235D03*
X008149Y012890D03*
X008722Y012903D03*
D20*
X008127Y012909D03*
X007755Y012248D03*
X007012Y012418D03*
X006710Y012267D03*
X006703Y011901D03*
D21*
X006706Y011908D03*
X007752Y012260D03*
D22*
X007831Y013041D03*
X009021Y013016D03*
X006710Y012286D03*
X006703Y011914D03*
X005884Y013016D03*
D23*
X006703Y011920D03*
X004486Y012544D03*
X004486Y012550D03*
X004480Y012563D03*
X004467Y012601D03*
X004486Y012745D03*
X004492Y012758D03*
D24*
X004511Y012802D03*
X004675Y013092D03*
X004669Y013111D03*
X004669Y013117D03*
X006710Y012304D03*
X006703Y011927D03*
X007755Y012292D03*
X006785Y013023D03*
D25*
X006703Y011933D03*
X004688Y013073D03*
X004448Y012714D03*
D26*
X004439Y012708D03*
X004489Y012487D03*
X004722Y012241D03*
X004697Y013060D03*
X006706Y011939D03*
X006782Y013004D03*
X007821Y012997D03*
D27*
X006706Y011945D03*
X004489Y012475D03*
D28*
X004404Y012657D03*
X004410Y012689D03*
X004530Y012853D03*
X006703Y011952D03*
D29*
X006706Y011958D03*
X004722Y012267D03*
X004489Y012456D03*
X004533Y012859D03*
X004722Y013023D03*
D30*
X004543Y012865D03*
X004492Y012449D03*
X006703Y011964D03*
D31*
X006703Y011971D03*
X004492Y012443D03*
D32*
X006706Y011977D03*
D33*
X006706Y011983D03*
X004722Y012997D03*
D34*
X004725Y012985D03*
X006703Y011990D03*
D35*
X006703Y011996D03*
X005777Y012979D03*
X005777Y012985D03*
X004725Y012979D03*
X008914Y012985D03*
D36*
X008921Y012960D03*
X006703Y012002D03*
X005784Y012960D03*
D37*
X005784Y012941D03*
X005784Y012934D03*
X005784Y012928D03*
X004719Y012966D03*
X006703Y012008D03*
X008921Y012928D03*
X008921Y012934D03*
X008921Y012941D03*
X008921Y012947D03*
D38*
X006817Y012317D03*
X006703Y012015D03*
X004681Y012286D03*
D39*
X004684Y012292D03*
X006706Y012021D03*
X006814Y012323D03*
X007866Y012304D03*
D40*
X007859Y012323D03*
X006814Y012330D03*
X006706Y012027D03*
X004697Y012311D03*
X004691Y012304D03*
D41*
X004710Y012336D03*
X004716Y012342D03*
X006706Y012034D03*
X006807Y012342D03*
X006807Y012349D03*
X007853Y012342D03*
X007853Y012336D03*
D42*
X007853Y012349D03*
X006801Y012361D03*
X006706Y012046D03*
X006706Y012040D03*
X004722Y012355D03*
X004722Y012361D03*
D43*
X004722Y012367D03*
X006706Y012053D03*
X006801Y012374D03*
X006883Y012985D03*
X006889Y012991D03*
X007847Y012367D03*
D44*
X007922Y012966D03*
X006877Y012972D03*
X006795Y012393D03*
X006795Y012386D03*
X006706Y012065D03*
X006706Y012059D03*
X004722Y012374D03*
X004722Y012380D03*
D45*
X006716Y012071D03*
X006798Y012380D03*
X006880Y012979D03*
X007925Y012972D03*
X007843Y012380D03*
X007843Y012374D03*
D46*
X008092Y012412D03*
X008155Y012878D03*
X007840Y013079D03*
X007110Y012878D03*
X006486Y012078D03*
X005573Y012890D03*
X004722Y012185D03*
X008710Y012890D03*
D47*
X008143Y012897D03*
X007091Y012897D03*
X006795Y013073D03*
X006946Y012078D03*
X004722Y012191D03*
D48*
X004722Y012179D03*
X005547Y012859D03*
X006014Y012909D03*
X006530Y012871D03*
X006505Y012437D03*
X006480Y012084D03*
X007122Y012853D03*
X007588Y012878D03*
X007595Y012884D03*
X007569Y012405D03*
X008111Y012437D03*
X008117Y012443D03*
X008174Y012846D03*
X008684Y012859D03*
X008691Y012865D03*
X009151Y012909D03*
D49*
X008152Y012884D03*
X007755Y012229D03*
X007043Y012437D03*
X006962Y012084D03*
X006798Y013079D03*
D50*
X006492Y012827D03*
X006486Y012821D03*
X006467Y012481D03*
X006473Y012090D03*
X007034Y012153D03*
X007091Y012500D03*
X007097Y012506D03*
X007525Y012456D03*
X007544Y012827D03*
X007551Y012834D03*
X008187Y012802D03*
X008143Y012493D03*
X008143Y012487D03*
X008136Y012481D03*
X008659Y012802D03*
X008659Y012808D03*
X009169Y012884D03*
X006032Y012884D03*
X005522Y012808D03*
X005522Y012802D03*
D51*
X005998Y012916D03*
X006565Y012897D03*
X007113Y012871D03*
X007050Y012443D03*
X006974Y012090D03*
X006710Y012248D03*
X007591Y012393D03*
X007623Y012903D03*
X009135Y012916D03*
D52*
X009182Y012846D03*
X009182Y012840D03*
X009182Y012834D03*
X009182Y012827D03*
X009182Y012821D03*
X009182Y012815D03*
X009182Y012796D03*
X009182Y012790D03*
X009182Y012783D03*
X009182Y012777D03*
X009182Y012771D03*
X009176Y012720D03*
X009176Y012714D03*
X009169Y012670D03*
X009163Y012626D03*
X009157Y012582D03*
X009157Y012575D03*
X009151Y012531D03*
X009144Y012487D03*
X009138Y012443D03*
X009138Y012437D03*
X009132Y012393D03*
X009125Y012349D03*
X009119Y012304D03*
X009113Y012254D03*
X008621Y012626D03*
X008621Y012632D03*
X008628Y012664D03*
X008628Y012670D03*
X008628Y012676D03*
X008634Y012689D03*
X008634Y012695D03*
X008634Y012701D03*
X008634Y012708D03*
X008634Y012714D03*
X008640Y012727D03*
X008640Y012733D03*
X008584Y012355D03*
X008571Y012260D03*
X008155Y012525D03*
X008162Y012538D03*
X008162Y012544D03*
X008187Y012752D03*
X008225Y012985D03*
X008231Y013029D03*
X008231Y013035D03*
X008237Y013073D03*
X008237Y013079D03*
X008678Y013048D03*
X008678Y013041D03*
X007506Y012752D03*
X007500Y012739D03*
X007500Y012733D03*
X007500Y012727D03*
X007494Y012720D03*
X007494Y012714D03*
X007494Y012708D03*
X007494Y012701D03*
X007488Y012676D03*
X007488Y012670D03*
X007488Y012563D03*
X007488Y012556D03*
X007494Y012538D03*
X007494Y012531D03*
X007494Y012525D03*
X007500Y012512D03*
X007500Y012506D03*
X007116Y012550D03*
X007110Y012544D03*
X007110Y012538D03*
X007066Y012229D03*
X007066Y012223D03*
X007059Y012210D03*
X007059Y012204D03*
X007053Y012191D03*
X006473Y012097D03*
X006442Y012531D03*
X006442Y012538D03*
X006442Y012544D03*
X006436Y012550D03*
X006436Y012556D03*
X006436Y012563D03*
X006442Y012720D03*
X006442Y012727D03*
X006448Y012739D03*
X006448Y012745D03*
X006454Y012758D03*
X006045Y012771D03*
X006045Y012777D03*
X006045Y012783D03*
X006045Y012790D03*
X006045Y012796D03*
X006045Y012802D03*
X006045Y012808D03*
X006045Y012815D03*
X006045Y012821D03*
X006045Y012827D03*
X006045Y012834D03*
X006045Y012840D03*
X006045Y012846D03*
X006039Y012720D03*
X006032Y012670D03*
X006026Y012626D03*
X006020Y012582D03*
X006014Y012538D03*
X006014Y012531D03*
X006007Y012487D03*
X006001Y012443D03*
X005995Y012399D03*
X005995Y012393D03*
X005988Y012349D03*
X005982Y012304D03*
X005976Y012260D03*
X005976Y012254D03*
X005440Y012311D03*
X005447Y012355D03*
X005434Y012260D03*
X005478Y012588D03*
X005484Y012626D03*
X005484Y012632D03*
X005491Y012664D03*
X005491Y012670D03*
X005491Y012676D03*
X005497Y012695D03*
X005497Y012701D03*
X005497Y012708D03*
X005497Y012714D03*
X005503Y012733D03*
X005541Y013048D03*
X003922Y013262D03*
X003929Y013306D03*
X003935Y013356D03*
X003941Y013401D03*
X003916Y013218D03*
X003910Y013167D03*
X003903Y013123D03*
X003897Y013079D03*
X003891Y013035D03*
X003891Y013029D03*
X003884Y012985D03*
X003878Y012941D03*
X003872Y012897D03*
X003872Y012890D03*
X003866Y012846D03*
X003859Y012802D03*
X003853Y012758D03*
X003853Y012752D03*
X003847Y012708D03*
X003840Y012664D03*
X003834Y012619D03*
X003828Y012569D03*
X003821Y012525D03*
X003815Y012481D03*
X003809Y012430D03*
X003803Y012386D03*
X003796Y012342D03*
X003790Y012292D03*
X003784Y012248D03*
X007179Y012997D03*
X007185Y013035D03*
X007185Y013041D03*
X007191Y013079D03*
X007191Y013086D03*
D53*
X007122Y012859D03*
X006549Y012884D03*
X006511Y012430D03*
X006984Y012097D03*
X007840Y013086D03*
X008168Y012859D03*
D54*
X007141Y012676D03*
X007141Y012670D03*
X007141Y012664D03*
X007141Y012657D03*
X007141Y012651D03*
X007141Y012645D03*
X007135Y012632D03*
X007135Y012626D03*
X007135Y012619D03*
X006473Y012103D03*
X004842Y012601D03*
X004842Y012607D03*
X004842Y012676D03*
X004842Y012682D03*
X004514Y013123D03*
D55*
X005551Y012865D03*
X005557Y012871D03*
X005897Y013079D03*
X006540Y012878D03*
X007062Y012456D03*
X007069Y012462D03*
X006710Y012241D03*
X006993Y012103D03*
X007604Y012890D03*
X008171Y012853D03*
X008108Y012430D03*
X008694Y012871D03*
X009034Y013079D03*
D56*
X006473Y012109D03*
X005062Y012878D03*
X004842Y012708D03*
X004842Y012582D03*
X004722Y012166D03*
X004823Y013149D03*
X004502Y013142D03*
D57*
X005544Y012853D03*
X006495Y012443D03*
X007075Y012468D03*
X007125Y012846D03*
X007560Y012412D03*
X007006Y012116D03*
X006999Y012109D03*
X008121Y012449D03*
X008681Y012853D03*
D58*
X006473Y012116D03*
X005081Y012418D03*
X004842Y012569D03*
X004842Y012720D03*
X005081Y012871D03*
X004829Y013174D03*
X004489Y013167D03*
D59*
X004473Y013193D03*
X004832Y013193D03*
X005091Y012424D03*
X006470Y012122D03*
X007755Y012197D03*
D60*
X007554Y012418D03*
X007547Y012424D03*
X007081Y012481D03*
X007132Y012827D03*
X007132Y012834D03*
X006514Y012853D03*
X006483Y012456D03*
X006489Y012449D03*
X007012Y012122D03*
X007018Y012128D03*
X008127Y012462D03*
X008177Y012827D03*
X008177Y012834D03*
X007843Y013092D03*
X008675Y012840D03*
X009034Y013086D03*
X005897Y013086D03*
X005538Y012840D03*
D61*
X005106Y012853D03*
X004842Y012733D03*
X005106Y012437D03*
X005900Y013111D03*
X004836Y013212D03*
X006473Y012128D03*
X009037Y013111D03*
D62*
X006477Y012134D03*
X005129Y012456D03*
X005122Y012449D03*
X004845Y012739D03*
X005129Y012834D03*
X004454Y013224D03*
D63*
X005535Y012834D03*
X006026Y012897D03*
X006505Y012846D03*
X006480Y012462D03*
X007084Y012487D03*
X007135Y012821D03*
X007563Y012853D03*
X007569Y012859D03*
X007538Y012437D03*
X007544Y012430D03*
X007021Y012134D03*
X008130Y012468D03*
X008180Y012821D03*
X008672Y012834D03*
X009163Y012897D03*
D64*
X006477Y012141D03*
X005154Y012493D03*
X005154Y012796D03*
X005147Y012802D03*
X004845Y012544D03*
X004341Y012279D03*
X004442Y013249D03*
X004845Y013249D03*
D65*
X005532Y012827D03*
X005532Y012821D03*
X005525Y012815D03*
X006029Y012890D03*
X006495Y012834D03*
X006502Y012840D03*
X006470Y012475D03*
X006477Y012468D03*
X006710Y012235D03*
X007025Y012141D03*
X007031Y012147D03*
X007088Y012493D03*
X007138Y012815D03*
X007554Y012840D03*
X007560Y012846D03*
X007529Y012449D03*
X007535Y012443D03*
X008133Y012475D03*
X008184Y012808D03*
X008184Y012815D03*
X008662Y012815D03*
X008669Y012821D03*
X008669Y012827D03*
X009166Y012890D03*
D66*
X006480Y012147D03*
X005176Y012538D03*
X005176Y012544D03*
X005182Y012563D03*
X005169Y012525D03*
X005182Y012727D03*
X005176Y012739D03*
X005176Y012745D03*
X005176Y012752D03*
X004848Y013268D03*
X004432Y013268D03*
D67*
X006483Y012153D03*
D68*
X005151Y012487D03*
X005144Y012481D03*
X005144Y012808D03*
X004445Y013243D03*
X004722Y012160D03*
D69*
X006486Y012160D03*
D70*
X006454Y012500D03*
X006467Y012790D03*
X006473Y012796D03*
X006801Y013098D03*
X007141Y012796D03*
X007141Y012790D03*
X007103Y012525D03*
X007103Y012519D03*
X007047Y012172D03*
X007040Y012166D03*
X007513Y012475D03*
X007513Y012481D03*
X007519Y012783D03*
X007525Y012796D03*
X007752Y012210D03*
X008149Y012506D03*
X008149Y012512D03*
X008187Y012777D03*
X008187Y012783D03*
X008647Y012771D03*
X008647Y012764D03*
X008647Y012758D03*
X008653Y012777D03*
X008653Y012783D03*
X009176Y012865D03*
X009176Y012871D03*
X006039Y012871D03*
X006039Y012865D03*
X005516Y012783D03*
X005516Y012777D03*
X005510Y012771D03*
X005510Y012764D03*
X005510Y012758D03*
X004722Y012172D03*
D71*
X005500Y012720D03*
X005500Y012727D03*
X005506Y012739D03*
X005506Y012745D03*
X005506Y012752D03*
X006042Y012853D03*
X006042Y012859D03*
X006451Y012752D03*
X006458Y012764D03*
X006458Y012771D03*
X006464Y012777D03*
X006464Y012783D03*
X006445Y012525D03*
X006445Y012519D03*
X006451Y012512D03*
X006451Y012506D03*
X007056Y012197D03*
X007050Y012185D03*
X007050Y012179D03*
X007106Y012531D03*
X007144Y012771D03*
X007144Y012777D03*
X007144Y012783D03*
X007503Y012745D03*
X007510Y012758D03*
X007510Y012764D03*
X007516Y012771D03*
X007516Y012777D03*
X007522Y012790D03*
X007497Y012519D03*
X007503Y012500D03*
X007503Y012493D03*
X007510Y012487D03*
X008152Y012519D03*
X008158Y012531D03*
X008190Y012758D03*
X008190Y012764D03*
X008190Y012771D03*
X007843Y013098D03*
X008643Y012752D03*
X008643Y012745D03*
X008643Y012739D03*
X008637Y012720D03*
X009179Y012853D03*
X009179Y012859D03*
D72*
X009025Y013048D03*
X008747Y012916D03*
X007084Y012903D03*
X005888Y013048D03*
X005610Y012916D03*
X004722Y012197D03*
D73*
X004722Y012204D03*
X005888Y013035D03*
X007752Y012254D03*
X008042Y012386D03*
X007834Y013054D03*
X009025Y013035D03*
D74*
X007755Y012204D03*
X006804Y013104D03*
X004820Y013136D03*
X004511Y013130D03*
X004845Y012689D03*
D75*
X004722Y012210D03*
D76*
X005431Y012223D03*
X005431Y012229D03*
X005431Y012235D03*
X005431Y012241D03*
X005431Y012248D03*
X005431Y012254D03*
X005437Y012267D03*
X005437Y012273D03*
X005437Y012279D03*
X005437Y012286D03*
X005437Y012292D03*
X005437Y012298D03*
X005437Y012304D03*
X005443Y012317D03*
X005443Y012323D03*
X005443Y012330D03*
X005443Y012336D03*
X005443Y012342D03*
X005443Y012349D03*
X005450Y012361D03*
X005450Y012367D03*
X005450Y012374D03*
X005450Y012380D03*
X005450Y012386D03*
X005450Y012393D03*
X005450Y012399D03*
X005456Y012405D03*
X005456Y012412D03*
X005456Y012418D03*
X005456Y012424D03*
X005456Y012430D03*
X005456Y012437D03*
X005456Y012443D03*
X005456Y012449D03*
X005462Y012456D03*
X005462Y012462D03*
X005462Y012468D03*
X005462Y012475D03*
X005462Y012481D03*
X005462Y012487D03*
X005462Y012493D03*
X005469Y012500D03*
X005469Y012506D03*
X005469Y012512D03*
X005469Y012519D03*
X005469Y012525D03*
X005469Y012531D03*
X005469Y012538D03*
X005475Y012550D03*
X005475Y012556D03*
X005475Y012563D03*
X005475Y012569D03*
X005475Y012575D03*
X005475Y012582D03*
X005481Y012594D03*
X005481Y012601D03*
X005481Y012607D03*
X005481Y012613D03*
X005481Y012619D03*
X005488Y012638D03*
X005488Y012645D03*
X005488Y012651D03*
X005488Y012657D03*
X005494Y012682D03*
X005494Y012689D03*
X005538Y013010D03*
X005538Y013016D03*
X005538Y013023D03*
X005538Y013029D03*
X005538Y013035D03*
X005538Y013041D03*
X005544Y013054D03*
X005544Y013060D03*
X005544Y013067D03*
X005544Y013073D03*
X005544Y013079D03*
X005544Y013086D03*
X006042Y012764D03*
X006042Y012758D03*
X006042Y012752D03*
X006042Y012745D03*
X006042Y012739D03*
X006042Y012733D03*
X006042Y012727D03*
X006036Y012714D03*
X006036Y012708D03*
X006036Y012701D03*
X006036Y012695D03*
X006036Y012689D03*
X006036Y012682D03*
X006036Y012676D03*
X006029Y012664D03*
X006029Y012657D03*
X006029Y012651D03*
X006029Y012645D03*
X006029Y012638D03*
X006029Y012632D03*
X006023Y012619D03*
X006023Y012613D03*
X006023Y012607D03*
X006023Y012601D03*
X006023Y012594D03*
X006023Y012588D03*
X006017Y012575D03*
X006017Y012569D03*
X006017Y012563D03*
X006017Y012556D03*
X006017Y012550D03*
X006017Y012544D03*
X006010Y012525D03*
X006010Y012519D03*
X006010Y012512D03*
X006010Y012506D03*
X006010Y012500D03*
X006010Y012493D03*
X006004Y012481D03*
X006004Y012475D03*
X006004Y012468D03*
X006004Y012462D03*
X006004Y012456D03*
X006004Y012449D03*
X005998Y012437D03*
X005998Y012430D03*
X005998Y012424D03*
X005998Y012418D03*
X005998Y012412D03*
X005998Y012405D03*
X005991Y012386D03*
X005991Y012380D03*
X005991Y012374D03*
X005991Y012367D03*
X005991Y012361D03*
X005991Y012355D03*
X005985Y012342D03*
X005985Y012336D03*
X005985Y012330D03*
X005985Y012323D03*
X005985Y012317D03*
X005985Y012311D03*
X005979Y012298D03*
X005979Y012292D03*
X005979Y012286D03*
X005979Y012279D03*
X005979Y012273D03*
X005979Y012267D03*
X005973Y012248D03*
X005973Y012241D03*
X005973Y012235D03*
X005973Y012229D03*
X005973Y012223D03*
X006432Y012569D03*
X006432Y012575D03*
X006432Y012582D03*
X006432Y012588D03*
X006432Y012594D03*
X006432Y012664D03*
X006432Y012670D03*
X006432Y012676D03*
X006432Y012682D03*
X006432Y012689D03*
X006432Y012695D03*
X006439Y012701D03*
X006439Y012708D03*
X006439Y012714D03*
X006445Y012733D03*
X006710Y012229D03*
X007062Y012216D03*
X007069Y012235D03*
X007069Y012241D03*
X007069Y012248D03*
X007075Y012254D03*
X007075Y012260D03*
X007075Y012267D03*
X007075Y012273D03*
X007081Y012292D03*
X007081Y012298D03*
X007081Y012304D03*
X007119Y012556D03*
X007119Y012563D03*
X007144Y012745D03*
X007144Y012752D03*
X007144Y012758D03*
X007144Y012764D03*
X007182Y013004D03*
X007182Y013010D03*
X007182Y013016D03*
X007182Y013023D03*
X007182Y013029D03*
X007188Y013048D03*
X007188Y013054D03*
X007188Y013060D03*
X007188Y013067D03*
X007188Y013073D03*
X007195Y013092D03*
X007491Y012695D03*
X007491Y012689D03*
X007491Y012682D03*
X007484Y012664D03*
X007484Y012657D03*
X007484Y012651D03*
X007484Y012645D03*
X007484Y012638D03*
X007484Y012632D03*
X007484Y012626D03*
X007484Y012619D03*
X007484Y012613D03*
X007484Y012607D03*
X007484Y012601D03*
X007484Y012594D03*
X007484Y012588D03*
X007484Y012582D03*
X007484Y012575D03*
X007484Y012569D03*
X007491Y012550D03*
X007491Y012544D03*
X008165Y012550D03*
X008165Y012556D03*
X008165Y012563D03*
X008171Y012575D03*
X008190Y012714D03*
X008190Y012720D03*
X008190Y012727D03*
X008190Y012733D03*
X008190Y012739D03*
X008190Y012745D03*
X008221Y012979D03*
X008228Y012991D03*
X008228Y012997D03*
X008228Y013004D03*
X008228Y013010D03*
X008228Y013016D03*
X008228Y013023D03*
X008234Y013041D03*
X008234Y013048D03*
X008234Y013054D03*
X008234Y013060D03*
X008234Y013067D03*
X008240Y013086D03*
X008240Y013092D03*
X008675Y013035D03*
X008675Y013029D03*
X008675Y013023D03*
X008675Y013016D03*
X008675Y013010D03*
X008681Y013054D03*
X008681Y013060D03*
X008681Y013067D03*
X008681Y013073D03*
X008681Y013079D03*
X008681Y013086D03*
X008631Y012682D03*
X008625Y012657D03*
X008625Y012651D03*
X008625Y012645D03*
X008625Y012638D03*
X008618Y012619D03*
X008618Y012613D03*
X008618Y012607D03*
X008618Y012601D03*
X008618Y012594D03*
X008618Y012588D03*
X008612Y012582D03*
X008612Y012575D03*
X008612Y012569D03*
X008612Y012563D03*
X008612Y012556D03*
X008612Y012550D03*
X008612Y012544D03*
X008606Y012538D03*
X008606Y012531D03*
X008606Y012525D03*
X008606Y012519D03*
X008606Y012512D03*
X008606Y012506D03*
X008606Y012500D03*
X008599Y012493D03*
X008599Y012487D03*
X008599Y012481D03*
X008599Y012475D03*
X008599Y012468D03*
X008599Y012462D03*
X008599Y012456D03*
X008599Y012449D03*
X008593Y012443D03*
X008593Y012437D03*
X008593Y012430D03*
X008593Y012424D03*
X008593Y012418D03*
X008593Y012412D03*
X008593Y012405D03*
X008587Y012399D03*
X008587Y012393D03*
X008587Y012386D03*
X008587Y012380D03*
X008587Y012374D03*
X008587Y012367D03*
X008587Y012361D03*
X008580Y012349D03*
X008580Y012342D03*
X008580Y012336D03*
X008580Y012330D03*
X008580Y012323D03*
X008580Y012317D03*
X008580Y012311D03*
X008574Y012304D03*
X008574Y012298D03*
X008574Y012292D03*
X008574Y012286D03*
X008574Y012279D03*
X008574Y012273D03*
X008574Y012267D03*
X008568Y012254D03*
X008568Y012248D03*
X008568Y012241D03*
X008568Y012235D03*
X008568Y012229D03*
X008568Y012223D03*
X008127Y012260D03*
X008127Y012267D03*
X008127Y012273D03*
X008127Y012279D03*
X008127Y012286D03*
X008127Y012292D03*
X008127Y012298D03*
X008121Y012248D03*
X008121Y012241D03*
X008121Y012235D03*
X008121Y012229D03*
X008121Y012223D03*
X009110Y012223D03*
X009110Y012229D03*
X009110Y012235D03*
X009110Y012241D03*
X009110Y012248D03*
X009116Y012260D03*
X009116Y012267D03*
X009116Y012273D03*
X009116Y012279D03*
X009116Y012286D03*
X009116Y012292D03*
X009116Y012298D03*
X009122Y012311D03*
X009122Y012317D03*
X009122Y012323D03*
X009122Y012330D03*
X009122Y012336D03*
X009122Y012342D03*
X009129Y012355D03*
X009129Y012361D03*
X009129Y012367D03*
X009129Y012374D03*
X009129Y012380D03*
X009129Y012386D03*
X009135Y012399D03*
X009135Y012405D03*
X009135Y012412D03*
X009135Y012418D03*
X009135Y012424D03*
X009135Y012430D03*
X009141Y012449D03*
X009141Y012456D03*
X009141Y012462D03*
X009141Y012468D03*
X009141Y012475D03*
X009141Y012481D03*
X009147Y012493D03*
X009147Y012500D03*
X009147Y012506D03*
X009147Y012512D03*
X009147Y012519D03*
X009147Y012525D03*
X009154Y012538D03*
X009154Y012544D03*
X009154Y012550D03*
X009154Y012556D03*
X009154Y012563D03*
X009154Y012569D03*
X009160Y012588D03*
X009160Y012594D03*
X009160Y012601D03*
X009160Y012607D03*
X009160Y012613D03*
X009160Y012619D03*
X009166Y012632D03*
X009166Y012638D03*
X009166Y012645D03*
X009166Y012651D03*
X009166Y012657D03*
X009166Y012664D03*
X009173Y012676D03*
X009173Y012682D03*
X009173Y012689D03*
X009173Y012695D03*
X009173Y012701D03*
X009173Y012708D03*
X009179Y012727D03*
X009179Y012733D03*
X009179Y012739D03*
X009179Y012745D03*
X009179Y012752D03*
X009179Y012758D03*
X009179Y012764D03*
X009185Y012802D03*
X009185Y012808D03*
X009110Y012216D03*
X003881Y012947D03*
X003881Y012953D03*
X003881Y012960D03*
X003881Y012966D03*
X003881Y012972D03*
X003881Y012979D03*
X003888Y012991D03*
X003888Y012997D03*
X003888Y013004D03*
X003888Y013010D03*
X003888Y013016D03*
X003888Y013023D03*
X003894Y013041D03*
X003894Y013048D03*
X003894Y013054D03*
X003894Y013060D03*
X003894Y013067D03*
X003894Y013073D03*
X003900Y013086D03*
X003900Y013092D03*
X003900Y013098D03*
X003900Y013104D03*
X003900Y013111D03*
X003900Y013117D03*
X003906Y013130D03*
X003906Y013136D03*
X003906Y013142D03*
X003906Y013149D03*
X003906Y013155D03*
X003906Y013161D03*
X003913Y013174D03*
X003913Y013180D03*
X003913Y013186D03*
X003913Y013193D03*
X003913Y013199D03*
X003913Y013205D03*
X003913Y013212D03*
X003919Y013224D03*
X003919Y013230D03*
X003919Y013237D03*
X003919Y013243D03*
X003919Y013249D03*
X003919Y013256D03*
X003925Y013268D03*
X003925Y013275D03*
X003925Y013281D03*
X003925Y013287D03*
X003925Y013293D03*
X003925Y013300D03*
X003932Y013312D03*
X003932Y013319D03*
X003932Y013325D03*
X003932Y013331D03*
X003932Y013338D03*
X003932Y013344D03*
X003932Y013350D03*
X003938Y013363D03*
X003938Y013369D03*
X003938Y013375D03*
X003938Y013382D03*
X003938Y013388D03*
X003938Y013394D03*
X003944Y013407D03*
X003944Y013413D03*
X003944Y013419D03*
X003944Y013426D03*
X003875Y012934D03*
X003875Y012928D03*
X003875Y012922D03*
X003875Y012916D03*
X003875Y012909D03*
X003875Y012903D03*
X003869Y012884D03*
X003869Y012878D03*
X003869Y012871D03*
X003869Y012865D03*
X003869Y012859D03*
X003869Y012853D03*
X003862Y012840D03*
X003862Y012834D03*
X003862Y012827D03*
X003862Y012821D03*
X003862Y012815D03*
X003862Y012808D03*
X003856Y012796D03*
X003856Y012790D03*
X003856Y012783D03*
X003856Y012777D03*
X003856Y012771D03*
X003856Y012764D03*
X003850Y012745D03*
X003850Y012739D03*
X003850Y012733D03*
X003850Y012727D03*
X003850Y012720D03*
X003850Y012714D03*
X003843Y012701D03*
X003843Y012695D03*
X003843Y012689D03*
X003843Y012682D03*
X003843Y012676D03*
X003843Y012670D03*
X003837Y012657D03*
X003837Y012651D03*
X003837Y012645D03*
X003837Y012638D03*
X003837Y012632D03*
X003837Y012626D03*
X003831Y012613D03*
X003831Y012607D03*
X003831Y012601D03*
X003831Y012594D03*
X003831Y012588D03*
X003831Y012582D03*
X003831Y012575D03*
X003825Y012563D03*
X003825Y012556D03*
X003825Y012550D03*
X003825Y012544D03*
X003825Y012538D03*
X003825Y012531D03*
X003818Y012519D03*
X003818Y012512D03*
X003818Y012506D03*
X003818Y012500D03*
X003818Y012493D03*
X003818Y012487D03*
X003812Y012475D03*
X003812Y012468D03*
X003812Y012462D03*
X003812Y012456D03*
X003812Y012449D03*
X003812Y012443D03*
X003812Y012437D03*
X003806Y012424D03*
X003806Y012418D03*
X003806Y012412D03*
X003806Y012405D03*
X003806Y012399D03*
X003806Y012393D03*
X003799Y012380D03*
X003799Y012374D03*
X003799Y012367D03*
X003799Y012361D03*
X003799Y012355D03*
X003799Y012349D03*
X003793Y012336D03*
X003793Y012330D03*
X003793Y012323D03*
X003793Y012317D03*
X003793Y012311D03*
X003793Y012304D03*
X003793Y012298D03*
X003787Y012286D03*
X003787Y012279D03*
X003787Y012273D03*
X003787Y012267D03*
X003787Y012260D03*
X003787Y012254D03*
X003780Y012241D03*
X003780Y012235D03*
X003780Y012229D03*
X003780Y012223D03*
X003780Y012216D03*
D77*
X004722Y012216D03*
X005881Y013010D03*
X006788Y013041D03*
X007752Y012273D03*
X009018Y013010D03*
D78*
X009037Y013098D03*
X008684Y013092D03*
X008187Y012708D03*
X008180Y012619D03*
X008174Y012594D03*
X008174Y012588D03*
X008174Y012582D03*
X008168Y012569D03*
X008124Y012254D03*
X008117Y012216D03*
X008565Y012216D03*
X007122Y012569D03*
X007122Y012575D03*
X007129Y012594D03*
X007147Y012727D03*
X007147Y012733D03*
X007147Y012739D03*
X007084Y012311D03*
X007078Y012286D03*
X007078Y012279D03*
X006429Y012601D03*
X006429Y012607D03*
X006429Y012613D03*
X006429Y012619D03*
X006429Y012626D03*
X006429Y012632D03*
X006429Y012638D03*
X006429Y012645D03*
X006429Y012651D03*
X006429Y012657D03*
X005969Y012216D03*
X005428Y012216D03*
X005472Y012544D03*
X005547Y013092D03*
X005900Y013098D03*
X004842Y012664D03*
X004842Y012657D03*
X004842Y012651D03*
X004842Y012645D03*
X004842Y012638D03*
X004842Y012632D03*
X004842Y012626D03*
X004842Y012619D03*
D79*
X004845Y012745D03*
X005166Y012764D03*
X005166Y012771D03*
X005173Y012758D03*
X005173Y012531D03*
X005166Y012519D03*
X004436Y013262D03*
X006710Y012216D03*
D80*
X007078Y012475D03*
X007129Y012840D03*
X006801Y013092D03*
X006524Y012865D03*
X006517Y012859D03*
X006020Y012903D03*
X005541Y012846D03*
X004785Y013123D03*
X007576Y012865D03*
X007582Y012871D03*
X008174Y012840D03*
X008124Y012456D03*
X007752Y012216D03*
X008678Y012846D03*
X009157Y012903D03*
D81*
X007828Y013029D03*
X006713Y012298D03*
X004722Y012223D03*
X004489Y012531D03*
X004489Y012538D03*
X004477Y012733D03*
X004483Y012739D03*
X004489Y012752D03*
X004495Y012764D03*
X004495Y012771D03*
D82*
X004514Y012808D03*
X004458Y012720D03*
X004451Y012613D03*
X004489Y012512D03*
X004722Y012229D03*
X004678Y013086D03*
X004672Y013098D03*
X004672Y013104D03*
X007828Y013016D03*
D83*
X007821Y013010D03*
X006782Y013016D03*
X004722Y012235D03*
X004489Y012500D03*
X004445Y012619D03*
X004521Y012821D03*
D84*
X007658Y012916D03*
X007834Y013067D03*
X008136Y012903D03*
X008061Y012393D03*
X007752Y012241D03*
D85*
X007821Y012991D03*
X004703Y013054D03*
X004527Y012840D03*
X004489Y012481D03*
X004722Y012248D03*
D86*
X004722Y012254D03*
X004489Y012468D03*
X004716Y013035D03*
D87*
X006710Y012254D03*
D88*
X004722Y012260D03*
X004489Y012462D03*
X004407Y012664D03*
X004407Y012682D03*
X004722Y013029D03*
D89*
X005595Y012909D03*
X005891Y013054D03*
X006596Y012909D03*
X007025Y012424D03*
X006710Y012260D03*
X008732Y012909D03*
X009028Y013054D03*
D90*
X009021Y013023D03*
X007755Y012267D03*
X006791Y013048D03*
X005884Y013023D03*
D91*
X005185Y012720D03*
X005185Y012714D03*
X005185Y012708D03*
X005179Y012733D03*
X005185Y012582D03*
X005185Y012575D03*
X005185Y012569D03*
X005179Y012556D03*
X005179Y012550D03*
X004851Y013275D03*
X004429Y013275D03*
X004335Y012273D03*
D92*
X004722Y012273D03*
X004722Y013016D03*
D93*
X006710Y012273D03*
X007069Y012909D03*
X006791Y013054D03*
D94*
X004722Y013004D03*
X004722Y012279D03*
D95*
X005884Y013029D03*
X006710Y012279D03*
X007831Y013048D03*
X008108Y012916D03*
X009021Y013029D03*
D96*
X007752Y012279D03*
X006788Y013035D03*
X004477Y012588D03*
X004477Y012582D03*
X004477Y012575D03*
X004477Y012569D03*
X004483Y012556D03*
X004470Y012594D03*
D97*
X004461Y012607D03*
X004492Y012525D03*
X004499Y012777D03*
X004505Y012783D03*
X004505Y012790D03*
X006785Y013029D03*
X007755Y012286D03*
D98*
X007831Y013035D03*
X006710Y012292D03*
D99*
X007862Y012311D03*
X007862Y012317D03*
X004688Y012298D03*
D100*
X004492Y012506D03*
X004517Y012815D03*
X004681Y013079D03*
X006710Y012311D03*
X007755Y012298D03*
D101*
X007856Y012330D03*
X006810Y012336D03*
X004706Y012330D03*
X004706Y012323D03*
X004700Y012317D03*
D102*
X004719Y012349D03*
X006804Y012355D03*
D103*
X006798Y012367D03*
X007850Y012361D03*
X007850Y012355D03*
D104*
X007916Y012953D03*
X006870Y012960D03*
X006788Y012412D03*
X006788Y012405D03*
X004722Y012386D03*
D105*
X004722Y012393D03*
X004722Y012399D03*
X006858Y012941D03*
X006864Y012947D03*
X007903Y012934D03*
X007903Y012928D03*
X007910Y012941D03*
D106*
X007919Y012960D03*
X006873Y012966D03*
X006791Y012399D03*
D107*
X005891Y013060D03*
X007837Y013073D03*
X008077Y012399D03*
X009028Y013060D03*
D108*
X006851Y012922D03*
X004722Y012405D03*
D109*
X005579Y012897D03*
X005894Y013067D03*
X006580Y012903D03*
X007103Y012884D03*
X007639Y012909D03*
X008086Y012405D03*
X008716Y012897D03*
X009031Y013067D03*
X006536Y012418D03*
D110*
X005780Y012966D03*
X005780Y012972D03*
X004722Y012972D03*
X004540Y012412D03*
X008917Y012966D03*
X008917Y012972D03*
X008917Y012979D03*
D111*
X005069Y012412D03*
X004842Y012575D03*
X004842Y012714D03*
X004829Y013161D03*
X004495Y013155D03*
D112*
X004521Y012418D03*
X005774Y012991D03*
X005774Y012997D03*
X008911Y012997D03*
X008911Y012991D03*
D113*
X009031Y013073D03*
X008703Y012884D03*
X008162Y012871D03*
X008099Y012418D03*
X007116Y012865D03*
X006555Y012890D03*
X006524Y012424D03*
X005894Y013073D03*
X005566Y012884D03*
D114*
X004511Y012424D03*
D115*
X004505Y012430D03*
D116*
X004842Y012556D03*
X005100Y012430D03*
X005100Y012859D03*
X004836Y013199D03*
X004470Y013199D03*
X006807Y013111D03*
X007847Y013111D03*
D117*
X004549Y012871D03*
X004499Y012437D03*
D118*
X005116Y012443D03*
X005116Y012846D03*
X004839Y013218D03*
X004461Y013212D03*
D119*
X004451Y013230D03*
X004842Y013230D03*
X004842Y013237D03*
X005132Y012827D03*
X005132Y012462D03*
D120*
X005135Y012468D03*
X005141Y012475D03*
X005141Y012815D03*
X005135Y012821D03*
X004845Y013243D03*
X004448Y013237D03*
D121*
X004521Y012827D03*
X004439Y012626D03*
X004489Y012493D03*
X006782Y013010D03*
X007821Y013004D03*
D122*
X005163Y012777D03*
X005157Y012783D03*
X005157Y012790D03*
X005163Y012512D03*
X005163Y012506D03*
X005157Y012500D03*
X004848Y013256D03*
X004848Y013262D03*
X004439Y013256D03*
X004180Y012985D03*
D123*
X004508Y012796D03*
X004470Y012727D03*
X004489Y012519D03*
X007828Y013023D03*
D124*
X005119Y012840D03*
X004842Y012550D03*
X004199Y012979D03*
X004458Y013218D03*
X004842Y013224D03*
D125*
X004836Y013186D03*
X004477Y013186D03*
X004218Y012972D03*
X004842Y012727D03*
X004842Y012563D03*
X005088Y012865D03*
D126*
X004845Y012670D03*
X004845Y012613D03*
X004814Y013130D03*
X007144Y012720D03*
X007144Y012714D03*
X007144Y012708D03*
X007144Y012701D03*
X007144Y012695D03*
X007144Y012689D03*
X007144Y012682D03*
X007138Y012638D03*
X007132Y012613D03*
X007132Y012607D03*
X007132Y012601D03*
X007125Y012588D03*
X007125Y012582D03*
X008177Y012601D03*
X008177Y012607D03*
X008177Y012613D03*
X008184Y012626D03*
X008184Y012632D03*
X008184Y012638D03*
X008184Y012645D03*
X008184Y012651D03*
X008184Y012657D03*
X008184Y012664D03*
X008190Y012670D03*
X008190Y012676D03*
X008190Y012682D03*
X008190Y012689D03*
X008190Y012695D03*
X008190Y012701D03*
D127*
X004845Y012701D03*
X004845Y012588D03*
X004505Y013136D03*
D128*
X005188Y012701D03*
X005188Y012695D03*
X005188Y012689D03*
X005188Y012682D03*
X005188Y012676D03*
X005188Y012670D03*
X005195Y012664D03*
X005195Y012657D03*
X005195Y012651D03*
X005195Y012645D03*
X005195Y012638D03*
X005195Y012632D03*
X005195Y012626D03*
X005195Y012619D03*
X005188Y012613D03*
X005188Y012607D03*
X005188Y012601D03*
X005188Y012594D03*
X005188Y012588D03*
D129*
X004842Y012594D03*
X004842Y012695D03*
X004823Y013142D03*
X007847Y013104D03*
D130*
X004694Y013067D03*
X004429Y012632D03*
D131*
X004423Y012638D03*
X004524Y012834D03*
D132*
X004429Y012701D03*
X004417Y012645D03*
X004706Y013048D03*
X006779Y012997D03*
X007818Y012985D03*
D133*
X007818Y012979D03*
X004713Y013041D03*
X004530Y012846D03*
X004417Y012695D03*
X004410Y012651D03*
D134*
X004404Y012670D03*
X004404Y012676D03*
D135*
X004558Y012878D03*
X004722Y012991D03*
X005774Y013004D03*
X008911Y013004D03*
D136*
X004678Y012884D03*
X004666Y012903D03*
X004659Y012909D03*
X004653Y012922D03*
X004647Y012928D03*
X004640Y012934D03*
X004640Y012941D03*
X004634Y012947D03*
X004628Y012953D03*
X004621Y012960D03*
D137*
X004656Y012916D03*
X004669Y012897D03*
X004675Y012890D03*
D138*
X006848Y012916D03*
D139*
X005787Y012922D03*
X008924Y012922D03*
D140*
X007900Y012922D03*
X006854Y012928D03*
X006854Y012934D03*
D141*
X005780Y012947D03*
X005780Y012953D03*
X008917Y012953D03*
D142*
X007913Y012947D03*
X006867Y012953D03*
D143*
X005897Y013104D03*
X004826Y013155D03*
X004499Y013149D03*
X004234Y012966D03*
X009034Y013104D03*
D144*
X004722Y013010D03*
D145*
X005888Y013041D03*
X007834Y013060D03*
X009025Y013041D03*
D146*
X006791Y013060D03*
D147*
X006791Y013067D03*
D148*
X004832Y013180D03*
X004486Y013174D03*
X004480Y013180D03*
D149*
X004467Y013205D03*
X004839Y013205D03*
D150*
X004426Y013281D03*
D151*
X004851Y013281D03*
M02*
