%
M48
M72
T01C0.0100
T02C0.0236
T03C0.0350
T04C0.1181
%
T01
X1460Y3160
X960Y3860
X860Y4660
X860Y5410
X2260Y6560
X3760Y5710
X4260Y4760
X4560Y4610
X5210Y4660
X5710Y5910
X4760Y6685
X5460Y6910
X4960Y8010
X5210Y8410
X6210Y8160
X6960Y8660
X7710Y8160
X8460Y7160
X9160Y7560
X8210Y5910
X7710Y5910
X8710Y5660
X9260Y5510
X10360Y5810
X11410Y4910
X10910Y4660
X10710Y3410
X8960Y3410
X6660Y4410
X5210Y3410
X4710Y3410
X2460Y3410
X1210Y7160
X1210Y8660
X2460Y9310
X4160Y8110
X5210Y9410
X5960Y10160
X6560Y10810
X7510Y10960
X7310Y11710
X8560Y12110
X9460Y12810
X10160Y12310
X11260Y11410
X10560Y10710
X11660Y10510
X12510Y10810
X13310Y10610
X12894Y11710
X13510Y9360
X13560Y8310
X13960Y7410
X14460Y6910
X13010Y6510
X12460Y6910
X12260Y7410
X12410Y7910
X11710Y6960
X12960Y4910
X14210Y5410
X14460Y4660
X14460Y3410
X15460Y3160
X12710Y3410
X7710Y10160
X8610Y10910
X5210Y10660
X5210Y11660
X3460Y12160
X2410Y11060
X3460Y10910
X1210Y9910
X4560Y13210
T02
X1590Y6167
X3027Y6722
X3243Y6167
X3027Y8998
X3243Y9553
X1590Y9553
T03
X15460Y10410
X15460Y9410
X15460Y8410
X15460Y7410
X15460Y6410
X15460Y5410
T04
X1960Y12160
X14960Y12160
M30
