G75*
G70*
%OFA0B0*%
%FSLAX24Y24*%
%IPPOS*%
%LPD*%
%AMOC8*
5,1,8,0,0,1.08239X$1,22.5*
%
%ADD10C,0.0080*%
%ADD11C,0.0050*%
%ADD12C,0.0100*%
%ADD13C,0.0000*%
%ADD14C,0.0040*%
%ADD15R,0.0089X0.0006*%
%ADD16R,0.0094X0.0006*%
%ADD17R,0.0130X0.0006*%
%ADD18R,0.0106X0.0006*%
%ADD19R,0.0201X0.0006*%
%ADD20R,0.0136X0.0006*%
%ADD21R,0.1742X0.0006*%
%ADD22R,0.0154X0.0006*%
%ADD23R,0.0112X0.0006*%
%ADD24R,0.0219X0.0006*%
%ADD25R,0.0165X0.0006*%
%ADD26R,0.1748X0.0006*%
%ADD27R,0.0177X0.0006*%
%ADD28R,0.0100X0.0006*%
%ADD29R,0.0236X0.0006*%
%ADD30R,0.0189X0.0006*%
%ADD31R,0.0195X0.0006*%
%ADD32R,0.0248X0.0006*%
%ADD33R,0.0207X0.0006*%
%ADD34R,0.0213X0.0006*%
%ADD35R,0.0260X0.0006*%
%ADD36R,0.0224X0.0006*%
%ADD37R,0.0266X0.0006*%
%ADD38R,0.0278X0.0006*%
%ADD39R,0.0254X0.0006*%
%ADD40R,0.0283X0.0006*%
%ADD41R,0.0289X0.0006*%
%ADD42R,0.0272X0.0006*%
%ADD43R,0.0295X0.0006*%
%ADD44R,0.0301X0.0006*%
%ADD45R,0.0307X0.0006*%
%ADD46R,0.0313X0.0006*%
%ADD47R,0.0319X0.0006*%
%ADD48R,0.0148X0.0006*%
%ADD49R,0.0159X0.0006*%
%ADD50R,0.0124X0.0006*%
%ADD51R,0.0118X0.0006*%
%ADD52R,0.0242X0.0006*%
%ADD53R,0.0337X0.0006*%
%ADD54R,0.0331X0.0006*%
%ADD55R,0.0325X0.0006*%
%ADD56R,0.0142X0.0006*%
%ADD57R,0.0183X0.0006*%
%ADD58R,0.0230X0.0006*%
%ADD59R,0.0419X0.0006*%
%ADD60R,0.0425X0.0006*%
%ADD61R,0.0171X0.0006*%
%ADD62R,0.0083X0.0006*%
%ADD63R,0.0041X0.0006*%
%ADD64R,0.0047X0.0006*%
%ADD65R,0.1022X0.0006*%
%ADD66R,0.0980X0.0006*%
%ADD67R,0.0957X0.0006*%
%ADD68R,0.0933X0.0006*%
%ADD69R,0.0921X0.0006*%
%ADD70R,0.0904X0.0006*%
%ADD71R,0.0892X0.0006*%
%ADD72R,0.0886X0.0006*%
%ADD73R,0.0874X0.0006*%
%ADD74R,0.0868X0.0006*%
%ADD75R,0.0856X0.0006*%
%ADD76R,0.0850X0.0006*%
%ADD77R,0.0844X0.0006*%
%ADD78R,0.0839X0.0006*%
%ADD79R,0.0833X0.0006*%
%ADD80R,0.0827X0.0006*%
%ADD81R,0.0071X0.0006*%
%ADD82R,0.0862X0.0006*%
%ADD83R,0.0880X0.0006*%
%ADD84R,0.0898X0.0006*%
%ADD85R,0.0915X0.0006*%
%ADD86R,0.0927X0.0006*%
%ADD87R,0.0945X0.0006*%
%ADD88R,0.0969X0.0006*%
%ADD89R,0.0998X0.0006*%
D10*
X005001Y007200D02*
X005211Y007200D01*
X005281Y007270D01*
X005281Y007410D01*
X005211Y007480D01*
X005001Y007480D01*
X005001Y007620D02*
X005001Y007200D01*
X005455Y007480D02*
X005525Y007480D01*
X005665Y007340D01*
X005665Y007200D02*
X005665Y007480D01*
X005845Y007410D02*
X005845Y007200D01*
X006055Y007200D01*
X006125Y007270D01*
X006055Y007340D01*
X005845Y007340D01*
X005845Y007410D02*
X005915Y007480D01*
X006055Y007480D01*
X006306Y007550D02*
X006376Y007620D01*
X006516Y007620D01*
X006586Y007550D01*
X006586Y007270D01*
X006516Y007200D01*
X006376Y007200D01*
X006306Y007270D01*
X007220Y007480D02*
X007290Y007480D01*
X007430Y007340D01*
X007430Y007200D02*
X007430Y007480D01*
X007610Y007410D02*
X007610Y007340D01*
X007890Y007340D01*
X007890Y007270D02*
X007890Y007410D01*
X007820Y007480D01*
X007680Y007480D01*
X007610Y007410D01*
X007820Y007200D02*
X007890Y007270D01*
X007820Y007200D02*
X007680Y007200D01*
X008070Y007200D02*
X008070Y007410D01*
X008141Y007480D01*
X008211Y007410D01*
X008211Y007200D01*
X008351Y007200D02*
X008351Y007480D01*
X008281Y007480D01*
X008211Y007410D01*
X008531Y007410D02*
X008531Y007200D01*
X008671Y007200D02*
X008671Y007410D01*
X008601Y007480D01*
X008531Y007410D01*
X008671Y007410D02*
X008741Y007480D01*
X008811Y007480D01*
X008811Y007200D01*
X008991Y007200D02*
X009201Y007200D01*
X009272Y007270D01*
X009201Y007340D01*
X008991Y007340D01*
X008991Y007410D02*
X008991Y007200D01*
X008991Y007410D02*
X009061Y007480D01*
X009201Y007480D01*
X009445Y007480D02*
X009515Y007480D01*
X009655Y007340D01*
X009655Y007200D02*
X009655Y007480D01*
X009835Y007480D02*
X010045Y007480D01*
X010116Y007410D01*
X010116Y007270D01*
X010045Y007200D01*
X009835Y007200D01*
X009835Y007130D02*
X009835Y007480D01*
X009835Y007130D02*
X009905Y007060D01*
X009975Y007060D01*
X010296Y007270D02*
X010296Y007410D01*
X010366Y007480D01*
X010506Y007480D01*
X010576Y007410D01*
X010576Y007270D01*
X010506Y007200D01*
X010366Y007200D01*
X010296Y007270D01*
X010749Y007480D02*
X010819Y007480D01*
X010960Y007340D01*
X010960Y007200D02*
X010960Y007480D01*
X011140Y007410D02*
X011210Y007340D01*
X011420Y007340D01*
X011420Y007200D02*
X011420Y007620D01*
X011210Y007620D01*
X011140Y007550D01*
X011140Y007410D01*
D11*
X011235Y006735D02*
X011235Y006435D01*
X011435Y006735D01*
X011435Y006435D01*
X011113Y006485D02*
X011063Y006435D01*
X010963Y006435D01*
X010913Y006485D01*
X010913Y006585D01*
X010963Y006635D01*
X011063Y006635D01*
X011113Y006585D01*
X011113Y006485D01*
X010790Y006635D02*
X010690Y006435D01*
X010590Y006635D01*
X010146Y006685D02*
X010096Y006735D01*
X009996Y006735D01*
X009946Y006685D01*
X009946Y006635D01*
X010146Y006435D01*
X009946Y006435D01*
X009824Y006485D02*
X009774Y006435D01*
X009673Y006435D01*
X009623Y006485D01*
X009623Y006535D01*
X009673Y006585D01*
X009724Y006585D01*
X009673Y006585D02*
X009623Y006635D01*
X009623Y006685D01*
X009673Y006735D01*
X009774Y006735D01*
X009824Y006685D01*
X009451Y006485D02*
X009451Y006435D01*
X009401Y006435D01*
X009401Y006485D01*
X009451Y006485D01*
X009401Y006435D02*
X009501Y006335D01*
X008964Y006435D02*
X008764Y006635D01*
X008764Y006685D01*
X008814Y006735D01*
X008914Y006735D01*
X008964Y006685D01*
X008964Y006435D02*
X008764Y006435D01*
X008642Y006485D02*
X008442Y006685D01*
X008442Y006485D01*
X008492Y006435D01*
X008592Y006435D01*
X008642Y006485D01*
X008642Y006685D01*
X008592Y006735D01*
X008492Y006735D01*
X008442Y006685D01*
X008320Y006635D02*
X008220Y006735D01*
X008220Y006435D01*
X008320Y006435D02*
X008120Y006435D01*
X007997Y006485D02*
X007997Y006535D01*
X007947Y006585D01*
X007847Y006585D01*
X007797Y006535D01*
X007797Y006485D01*
X007847Y006435D01*
X007947Y006435D01*
X007997Y006485D01*
X007947Y006585D02*
X007997Y006635D01*
X007997Y006685D01*
X007947Y006735D01*
X007847Y006735D01*
X007797Y006685D01*
X007797Y006635D01*
X007847Y006585D01*
D12*
X001688Y000664D02*
X015232Y000664D01*
X015299Y000666D01*
X015366Y000672D01*
X015433Y000681D01*
X015499Y000694D01*
X015564Y000711D01*
X015628Y000731D01*
X015691Y000755D01*
X015753Y000783D01*
X015812Y000814D01*
X015870Y000848D01*
X015926Y000885D01*
X015980Y000926D01*
X016032Y000969D01*
X016081Y001015D01*
X016127Y001064D01*
X016170Y001116D01*
X016211Y001170D01*
X016248Y001226D01*
X016282Y001284D01*
X016313Y001343D01*
X016341Y001405D01*
X016365Y001468D01*
X016385Y001532D01*
X016402Y001597D01*
X016415Y001663D01*
X016424Y001730D01*
X016430Y001797D01*
X016432Y001864D01*
X016432Y012456D01*
X016430Y012523D01*
X016424Y012590D01*
X016415Y012657D01*
X016402Y012723D01*
X016385Y012788D01*
X016365Y012852D01*
X016341Y012915D01*
X016313Y012977D01*
X016282Y013036D01*
X016248Y013094D01*
X016211Y013150D01*
X016170Y013204D01*
X016127Y013256D01*
X016081Y013305D01*
X016032Y013351D01*
X015980Y013394D01*
X015926Y013435D01*
X015870Y013472D01*
X015812Y013506D01*
X015753Y013537D01*
X015691Y013565D01*
X015628Y013589D01*
X015564Y013609D01*
X015499Y013626D01*
X015433Y013639D01*
X015366Y013648D01*
X015299Y013654D01*
X015232Y013656D01*
X001688Y013656D01*
X001621Y013654D01*
X001554Y013648D01*
X001487Y013639D01*
X001421Y013626D01*
X001356Y013609D01*
X001292Y013589D01*
X001229Y013565D01*
X001167Y013537D01*
X001108Y013506D01*
X001050Y013472D01*
X000994Y013435D01*
X000940Y013394D01*
X000888Y013351D01*
X000839Y013305D01*
X000793Y013256D01*
X000750Y013204D01*
X000709Y013150D01*
X000672Y013094D01*
X000638Y013036D01*
X000607Y012977D01*
X000579Y012915D01*
X000555Y012852D01*
X000535Y012788D01*
X000518Y012723D01*
X000505Y012657D01*
X000496Y012590D01*
X000490Y012523D01*
X000488Y012456D01*
X000488Y001864D01*
X000490Y001797D01*
X000496Y001730D01*
X000505Y001663D01*
X000518Y001597D01*
X000535Y001532D01*
X000555Y001468D01*
X000579Y001405D01*
X000607Y001343D01*
X000638Y001284D01*
X000672Y001226D01*
X000709Y001170D01*
X000750Y001116D01*
X000793Y001064D01*
X000839Y001015D01*
X000888Y000969D01*
X000940Y000926D01*
X000994Y000885D01*
X001050Y000848D01*
X001108Y000814D01*
X001167Y000783D01*
X001229Y000755D01*
X001292Y000731D01*
X001356Y000711D01*
X001421Y000694D01*
X001487Y000681D01*
X001554Y000672D01*
X001621Y000666D01*
X001688Y000664D01*
X000460Y004210D02*
X016410Y004210D01*
D13*
X014369Y012160D02*
X014371Y012208D01*
X014377Y012256D01*
X014387Y012303D01*
X014400Y012349D01*
X014418Y012394D01*
X014438Y012438D01*
X014463Y012480D01*
X014491Y012519D01*
X014521Y012556D01*
X014555Y012590D01*
X014592Y012622D01*
X014630Y012651D01*
X014671Y012676D01*
X014714Y012698D01*
X014759Y012716D01*
X014805Y012730D01*
X014852Y012741D01*
X014900Y012748D01*
X014948Y012751D01*
X014996Y012750D01*
X015044Y012745D01*
X015092Y012736D01*
X015138Y012724D01*
X015183Y012707D01*
X015227Y012687D01*
X015269Y012664D01*
X015309Y012637D01*
X015347Y012607D01*
X015382Y012574D01*
X015414Y012538D01*
X015444Y012500D01*
X015470Y012459D01*
X015492Y012416D01*
X015512Y012372D01*
X015527Y012327D01*
X015539Y012280D01*
X015547Y012232D01*
X015551Y012184D01*
X015551Y012136D01*
X015547Y012088D01*
X015539Y012040D01*
X015527Y011993D01*
X015512Y011948D01*
X015492Y011904D01*
X015470Y011861D01*
X015444Y011820D01*
X015414Y011782D01*
X015382Y011746D01*
X015347Y011713D01*
X015309Y011683D01*
X015269Y011656D01*
X015227Y011633D01*
X015183Y011613D01*
X015138Y011596D01*
X015092Y011584D01*
X015044Y011575D01*
X014996Y011570D01*
X014948Y011569D01*
X014900Y011572D01*
X014852Y011579D01*
X014805Y011590D01*
X014759Y011604D01*
X014714Y011622D01*
X014671Y011644D01*
X014630Y011669D01*
X014592Y011698D01*
X014555Y011730D01*
X014521Y011764D01*
X014491Y011801D01*
X014463Y011840D01*
X014438Y011882D01*
X014418Y011926D01*
X014400Y011971D01*
X014387Y012017D01*
X014377Y012064D01*
X014371Y012112D01*
X014369Y012160D01*
X002909Y008998D02*
X002911Y009019D01*
X002917Y009039D01*
X002926Y009059D01*
X002938Y009076D01*
X002953Y009090D01*
X002971Y009102D01*
X002991Y009110D01*
X003011Y009115D01*
X003032Y009116D01*
X003053Y009113D01*
X003073Y009107D01*
X003092Y009096D01*
X003109Y009083D01*
X003122Y009067D01*
X003133Y009049D01*
X003141Y009029D01*
X003145Y009009D01*
X003145Y008987D01*
X003141Y008967D01*
X003133Y008947D01*
X003122Y008929D01*
X003109Y008913D01*
X003092Y008900D01*
X003073Y008889D01*
X003053Y008883D01*
X003032Y008880D01*
X003011Y008881D01*
X002991Y008886D01*
X002971Y008894D01*
X002953Y008906D01*
X002938Y008920D01*
X002926Y008937D01*
X002917Y008957D01*
X002911Y008977D01*
X002909Y008998D01*
X002909Y006722D02*
X002911Y006743D01*
X002917Y006763D01*
X002926Y006783D01*
X002938Y006800D01*
X002953Y006814D01*
X002971Y006826D01*
X002991Y006834D01*
X003011Y006839D01*
X003032Y006840D01*
X003053Y006837D01*
X003073Y006831D01*
X003092Y006820D01*
X003109Y006807D01*
X003122Y006791D01*
X003133Y006773D01*
X003141Y006753D01*
X003145Y006733D01*
X003145Y006711D01*
X003141Y006691D01*
X003133Y006671D01*
X003122Y006653D01*
X003109Y006637D01*
X003092Y006624D01*
X003073Y006613D01*
X003053Y006607D01*
X003032Y006604D01*
X003011Y006605D01*
X002991Y006610D01*
X002971Y006618D01*
X002953Y006630D01*
X002938Y006644D01*
X002926Y006661D01*
X002917Y006681D01*
X002911Y006701D01*
X002909Y006722D01*
X001369Y012160D02*
X001371Y012208D01*
X001377Y012256D01*
X001387Y012303D01*
X001400Y012349D01*
X001418Y012394D01*
X001438Y012438D01*
X001463Y012480D01*
X001491Y012519D01*
X001521Y012556D01*
X001555Y012590D01*
X001592Y012622D01*
X001630Y012651D01*
X001671Y012676D01*
X001714Y012698D01*
X001759Y012716D01*
X001805Y012730D01*
X001852Y012741D01*
X001900Y012748D01*
X001948Y012751D01*
X001996Y012750D01*
X002044Y012745D01*
X002092Y012736D01*
X002138Y012724D01*
X002183Y012707D01*
X002227Y012687D01*
X002269Y012664D01*
X002309Y012637D01*
X002347Y012607D01*
X002382Y012574D01*
X002414Y012538D01*
X002444Y012500D01*
X002470Y012459D01*
X002492Y012416D01*
X002512Y012372D01*
X002527Y012327D01*
X002539Y012280D01*
X002547Y012232D01*
X002551Y012184D01*
X002551Y012136D01*
X002547Y012088D01*
X002539Y012040D01*
X002527Y011993D01*
X002512Y011948D01*
X002492Y011904D01*
X002470Y011861D01*
X002444Y011820D01*
X002414Y011782D01*
X002382Y011746D01*
X002347Y011713D01*
X002309Y011683D01*
X002269Y011656D01*
X002227Y011633D01*
X002183Y011613D01*
X002138Y011596D01*
X002092Y011584D01*
X002044Y011575D01*
X001996Y011570D01*
X001948Y011569D01*
X001900Y011572D01*
X001852Y011579D01*
X001805Y011590D01*
X001759Y011604D01*
X001714Y011622D01*
X001671Y011644D01*
X001630Y011669D01*
X001592Y011698D01*
X001555Y011730D01*
X001521Y011764D01*
X001491Y011801D01*
X001463Y011840D01*
X001438Y011882D01*
X001418Y011926D01*
X001400Y011971D01*
X001387Y012017D01*
X001377Y012064D01*
X001371Y012112D01*
X001369Y012160D01*
D14*
X001366Y003590D02*
X001263Y003590D01*
X001211Y003539D01*
X001418Y003332D01*
X001366Y003280D01*
X001263Y003280D01*
X001211Y003332D01*
X001211Y003539D01*
X001366Y003590D02*
X001418Y003539D01*
X001418Y003332D01*
X001533Y003332D02*
X001585Y003280D01*
X001688Y003280D01*
X001740Y003332D01*
X001637Y003435D02*
X001585Y003435D01*
X001533Y003383D01*
X001533Y003332D01*
X001585Y003435D02*
X001533Y003487D01*
X001533Y003539D01*
X001585Y003590D01*
X001688Y003590D01*
X001740Y003539D01*
X008161Y003590D02*
X008264Y003539D01*
X008368Y003435D01*
X008213Y003435D01*
X008161Y003383D01*
X008161Y003332D01*
X008213Y003280D01*
X008316Y003280D01*
X008368Y003332D01*
X008368Y003435D01*
X008483Y003280D02*
X008690Y003280D01*
X008587Y003280D02*
X008587Y003590D01*
X008690Y003487D01*
X015383Y003487D02*
X015383Y003539D01*
X015435Y003590D01*
X015538Y003590D01*
X015590Y003539D01*
X015383Y003487D02*
X015590Y003280D01*
X015383Y003280D01*
D15*
X008503Y008355D03*
X007859Y008768D03*
X007853Y008798D03*
X007853Y008804D03*
X007847Y008821D03*
X007847Y008827D03*
X007847Y008833D03*
X007841Y008845D03*
X007841Y008851D03*
X007841Y008857D03*
X007747Y008857D03*
X007741Y008833D03*
X007741Y008827D03*
X007735Y008804D03*
X007729Y008774D03*
X007794Y009069D03*
X005686Y009707D03*
X005680Y009731D03*
X005680Y009737D03*
X005674Y009760D03*
X005674Y009766D03*
X005668Y009784D03*
X005668Y009790D03*
X005668Y009796D03*
X005662Y009814D03*
X005568Y009814D03*
X005568Y009808D03*
X005562Y009790D03*
X005562Y009784D03*
X005556Y009760D03*
X005556Y009754D03*
X005550Y009731D03*
X005615Y010026D03*
X005615Y010032D03*
D16*
X005618Y010020D03*
X005665Y009808D03*
X005665Y009802D03*
X005671Y009778D03*
X005671Y009772D03*
X005677Y009754D03*
X005677Y009749D03*
X005677Y009743D03*
X005683Y009725D03*
X005683Y009719D03*
X005683Y009713D03*
X005689Y009701D03*
X005689Y009695D03*
X005689Y009690D03*
X005689Y009684D03*
X005689Y009678D03*
X005695Y009672D03*
X005695Y009666D03*
X005695Y009660D03*
X005695Y009654D03*
X005701Y009642D03*
X005701Y009636D03*
X005701Y009630D03*
X005701Y009625D03*
X005707Y009613D03*
X005707Y009607D03*
X005707Y009601D03*
X005713Y009583D03*
X005713Y009577D03*
X005713Y009571D03*
X005529Y009625D03*
X005529Y009630D03*
X005529Y009636D03*
X005535Y009648D03*
X005535Y009654D03*
X005535Y009660D03*
X005535Y009666D03*
X005541Y009678D03*
X005541Y009684D03*
X005541Y009690D03*
X005541Y009695D03*
X005547Y009701D03*
X005547Y009707D03*
X005547Y009713D03*
X005547Y009719D03*
X005547Y009725D03*
X005553Y009737D03*
X005553Y009743D03*
X005553Y009749D03*
X005559Y009766D03*
X005559Y009772D03*
X005559Y009778D03*
X005565Y009796D03*
X005565Y009802D03*
X005524Y009607D03*
X005524Y009601D03*
X005518Y009577D03*
X005518Y009571D03*
X004904Y009731D03*
X004898Y009713D03*
X004892Y009695D03*
X004886Y009684D03*
X004880Y009666D03*
X004874Y009648D03*
X004868Y009630D03*
X004862Y009619D03*
X005612Y008355D03*
X007059Y009619D03*
X007065Y009636D03*
X007071Y009648D03*
X007077Y009666D03*
X007083Y009684D03*
X007089Y009701D03*
X007100Y009731D03*
X007791Y009064D03*
X007791Y009058D03*
X007744Y008851D03*
X007744Y008845D03*
X007744Y008839D03*
X007738Y008821D03*
X007738Y008816D03*
X007738Y008810D03*
X007732Y008798D03*
X007732Y008792D03*
X007732Y008786D03*
X007732Y008780D03*
X007726Y008768D03*
X007726Y008762D03*
X007726Y008756D03*
X007726Y008751D03*
X007720Y008745D03*
X007720Y008739D03*
X007720Y008733D03*
X007720Y008727D03*
X007720Y008721D03*
X007715Y008715D03*
X007715Y008709D03*
X007715Y008703D03*
X007715Y008697D03*
X007709Y008686D03*
X007709Y008680D03*
X007709Y008674D03*
X007703Y008656D03*
X007703Y008650D03*
X007703Y008644D03*
X007697Y008621D03*
X007880Y008662D03*
X007880Y008668D03*
X007880Y008674D03*
X007880Y008680D03*
X007874Y008691D03*
X007874Y008697D03*
X007874Y008703D03*
X007874Y008709D03*
X007868Y008715D03*
X007868Y008721D03*
X007868Y008727D03*
X007868Y008733D03*
X007868Y008739D03*
X007862Y008745D03*
X007862Y008751D03*
X007862Y008756D03*
X007862Y008762D03*
X007856Y008774D03*
X007856Y008780D03*
X007856Y008786D03*
X007856Y008792D03*
X007850Y008810D03*
X007850Y008816D03*
X007844Y008839D03*
X007886Y008650D03*
X007886Y008644D03*
X007886Y008638D03*
X007892Y008621D03*
X007892Y008615D03*
D17*
X007791Y008981D03*
X007720Y009424D03*
X007921Y009424D03*
X007921Y009926D03*
X007720Y009926D03*
X007195Y009949D03*
X007195Y009955D03*
X006965Y009406D03*
X006965Y009400D03*
X006965Y009394D03*
X006970Y008969D03*
X006970Y008762D03*
X006250Y008461D03*
X005718Y008461D03*
X005512Y008656D03*
X005512Y008969D03*
X005713Y008969D03*
X006439Y009424D03*
X006439Y009926D03*
X006238Y009926D03*
X004998Y009943D03*
X004998Y009949D03*
X004998Y009955D03*
X004768Y009406D03*
X004768Y009400D03*
X004768Y009394D03*
X008411Y008461D03*
X008506Y008361D03*
X008600Y008461D03*
X008600Y008969D03*
D18*
X008618Y008928D03*
X008618Y008922D03*
X008618Y008916D03*
X008618Y008910D03*
X008618Y008904D03*
X008618Y008898D03*
X008618Y008892D03*
X008618Y008886D03*
X008618Y008880D03*
X008618Y008875D03*
X008618Y008869D03*
X008618Y008863D03*
X008618Y008857D03*
X008618Y008851D03*
X008618Y008845D03*
X008618Y008839D03*
X008618Y008833D03*
X008618Y008827D03*
X008618Y008821D03*
X008618Y008816D03*
X008618Y008810D03*
X008618Y008804D03*
X008618Y008798D03*
X008618Y008792D03*
X008618Y008786D03*
X008618Y008780D03*
X008618Y008774D03*
X008618Y008768D03*
X008618Y008762D03*
X008618Y008756D03*
X008618Y008751D03*
X008618Y008745D03*
X008618Y008739D03*
X008618Y008733D03*
X008618Y008727D03*
X008618Y008721D03*
X008618Y008715D03*
X008618Y008709D03*
X008618Y008703D03*
X008618Y008697D03*
X008618Y008691D03*
X008618Y008686D03*
X008618Y008680D03*
X008618Y008674D03*
X008618Y008668D03*
X008618Y008662D03*
X008618Y008656D03*
X008618Y008650D03*
X008618Y008644D03*
X008618Y008638D03*
X008618Y008632D03*
X008618Y008627D03*
X008618Y008621D03*
X008618Y008615D03*
X008618Y008609D03*
X008618Y008603D03*
X008618Y008597D03*
X008618Y008591D03*
X008618Y008585D03*
X008618Y008579D03*
X008618Y008573D03*
X008618Y008567D03*
X008618Y008562D03*
X008618Y008556D03*
X008618Y008550D03*
X008618Y008544D03*
X008618Y008538D03*
X008618Y008532D03*
X008618Y008526D03*
X008618Y008520D03*
X008618Y008514D03*
X008618Y008508D03*
X008618Y008503D03*
X008388Y008503D03*
X008388Y008508D03*
X008388Y008514D03*
X008388Y008520D03*
X008388Y008526D03*
X008388Y008532D03*
X008388Y008538D03*
X008388Y008544D03*
X008388Y008550D03*
X008388Y008556D03*
X008388Y008875D03*
X008388Y008880D03*
X008388Y008886D03*
X008388Y008892D03*
X008388Y008898D03*
X008388Y008904D03*
X008388Y008910D03*
X008388Y008916D03*
X008388Y008922D03*
X008388Y008928D03*
X007791Y009034D03*
X007821Y009317D03*
X007939Y009453D03*
X007939Y009459D03*
X007939Y009465D03*
X007939Y009471D03*
X007945Y009489D03*
X007945Y009495D03*
X007945Y009501D03*
X007945Y009506D03*
X007945Y009512D03*
X007945Y009518D03*
X007945Y009524D03*
X007945Y009530D03*
X007945Y009536D03*
X007945Y009542D03*
X007945Y009548D03*
X007945Y009554D03*
X007945Y009560D03*
X007945Y009566D03*
X007945Y009571D03*
X007945Y009577D03*
X007945Y009583D03*
X007945Y009589D03*
X007945Y009595D03*
X007945Y009601D03*
X007945Y009607D03*
X007945Y009613D03*
X007945Y009619D03*
X007945Y009625D03*
X007945Y009630D03*
X007945Y009636D03*
X007945Y009642D03*
X007945Y009648D03*
X007945Y009654D03*
X007945Y009660D03*
X007945Y009666D03*
X007945Y009672D03*
X007945Y009678D03*
X007945Y009684D03*
X007945Y009690D03*
X007945Y009695D03*
X007945Y009701D03*
X007945Y009707D03*
X007945Y009713D03*
X007945Y009719D03*
X007945Y009725D03*
X007945Y009731D03*
X007945Y009737D03*
X007945Y009743D03*
X007945Y009749D03*
X007945Y009754D03*
X007945Y009760D03*
X007945Y009766D03*
X007945Y009772D03*
X007945Y009778D03*
X007945Y009784D03*
X007945Y009790D03*
X007945Y009796D03*
X007945Y009802D03*
X007945Y009808D03*
X007945Y009814D03*
X007945Y009819D03*
X007945Y009825D03*
X007945Y009831D03*
X007945Y009837D03*
X007945Y009843D03*
X007945Y009849D03*
X007945Y009855D03*
X007945Y009861D03*
X007939Y009879D03*
X007939Y009884D03*
X007939Y009890D03*
X007939Y009896D03*
X007821Y010032D03*
X007703Y009896D03*
X007703Y009890D03*
X007703Y009884D03*
X007703Y009879D03*
X007703Y009873D03*
X007703Y009867D03*
X007703Y009861D03*
X007703Y009855D03*
X007703Y009849D03*
X007703Y009843D03*
X007703Y009837D03*
X007703Y009831D03*
X007703Y009825D03*
X007703Y009819D03*
X007703Y009814D03*
X007703Y009808D03*
X007703Y009802D03*
X007703Y009796D03*
X007703Y009790D03*
X007703Y009784D03*
X007703Y009778D03*
X007703Y009772D03*
X007703Y009766D03*
X007703Y009760D03*
X007703Y009754D03*
X007703Y009749D03*
X007703Y009743D03*
X007703Y009737D03*
X007703Y009731D03*
X007703Y009725D03*
X007703Y009719D03*
X007703Y009713D03*
X007703Y009707D03*
X007703Y009701D03*
X007703Y009695D03*
X007703Y009690D03*
X007703Y009684D03*
X007703Y009678D03*
X007703Y009672D03*
X007703Y009666D03*
X007703Y009660D03*
X007703Y009654D03*
X007703Y009648D03*
X007703Y009642D03*
X007703Y009636D03*
X007703Y009630D03*
X007703Y009625D03*
X007703Y009619D03*
X007703Y009613D03*
X007703Y009607D03*
X007703Y009601D03*
X007703Y009595D03*
X007703Y009589D03*
X007703Y009583D03*
X007703Y009577D03*
X007703Y009571D03*
X007703Y009566D03*
X007703Y009560D03*
X007703Y009554D03*
X007703Y009548D03*
X007703Y009542D03*
X007703Y009536D03*
X007703Y009530D03*
X007703Y009524D03*
X007703Y009518D03*
X007703Y009512D03*
X007703Y009506D03*
X007703Y009501D03*
X007703Y009495D03*
X007703Y009489D03*
X007703Y009483D03*
X007703Y009477D03*
X007703Y009471D03*
X007703Y009465D03*
X007703Y009459D03*
X007703Y009453D03*
X007207Y009453D03*
X007207Y009447D03*
X007207Y009441D03*
X007207Y009436D03*
X007207Y009430D03*
X007207Y009424D03*
X007207Y009418D03*
X007207Y009412D03*
X007207Y009406D03*
X007207Y009400D03*
X007207Y009394D03*
X007207Y009388D03*
X007207Y009382D03*
X007207Y009377D03*
X007207Y009371D03*
X007207Y009365D03*
X007207Y009359D03*
X007207Y009353D03*
X007207Y009347D03*
X007207Y009341D03*
X007207Y009335D03*
X007207Y009329D03*
X007207Y009323D03*
X007207Y009317D03*
X007207Y009459D03*
X007207Y009465D03*
X007207Y009471D03*
X007207Y009477D03*
X007207Y009483D03*
X007207Y009489D03*
X007207Y009495D03*
X007207Y009501D03*
X007207Y009506D03*
X007207Y009512D03*
X007207Y009518D03*
X007207Y009524D03*
X007207Y009530D03*
X007207Y009536D03*
X007207Y009542D03*
X007207Y009548D03*
X007207Y009554D03*
X007207Y009560D03*
X007207Y009566D03*
X007207Y009571D03*
X007207Y009577D03*
X007207Y009583D03*
X007207Y009589D03*
X007207Y009595D03*
X007207Y009601D03*
X007207Y009607D03*
X007207Y009613D03*
X007207Y009619D03*
X007207Y009625D03*
X007207Y009630D03*
X007207Y009636D03*
X007207Y009642D03*
X007207Y009648D03*
X007207Y009654D03*
X007207Y009660D03*
X007207Y009666D03*
X007207Y009672D03*
X007207Y009678D03*
X007207Y009684D03*
X007207Y009690D03*
X007207Y009695D03*
X007207Y009701D03*
X007207Y009707D03*
X007207Y009713D03*
X007207Y009719D03*
X007207Y009725D03*
X007207Y009731D03*
X006953Y009731D03*
X006953Y009737D03*
X006953Y009743D03*
X006953Y009749D03*
X006953Y009754D03*
X006953Y009760D03*
X006953Y009766D03*
X006953Y009772D03*
X006953Y009778D03*
X006953Y009784D03*
X006953Y009790D03*
X006953Y009796D03*
X006953Y009802D03*
X006953Y009808D03*
X006953Y009814D03*
X006953Y009819D03*
X006953Y009825D03*
X006953Y009831D03*
X006953Y009837D03*
X006953Y009843D03*
X006953Y009849D03*
X006953Y009855D03*
X006953Y009861D03*
X006953Y009867D03*
X006953Y009873D03*
X006953Y009879D03*
X006953Y009884D03*
X006953Y009890D03*
X006953Y009896D03*
X006953Y009902D03*
X006953Y009908D03*
X006953Y009914D03*
X006953Y009920D03*
X006953Y009926D03*
X006953Y009932D03*
X006953Y009938D03*
X006953Y009943D03*
X006953Y009949D03*
X006953Y009955D03*
X006953Y009961D03*
X006953Y009967D03*
X006953Y009973D03*
X006953Y009979D03*
X006953Y009985D03*
X006953Y009991D03*
X006953Y009997D03*
X006953Y010003D03*
X006953Y010008D03*
X006953Y010014D03*
X006953Y010020D03*
X006953Y010026D03*
X006953Y010032D03*
X007207Y010020D03*
X007207Y010014D03*
X006953Y009725D03*
X006953Y009719D03*
X006953Y009713D03*
X006953Y009707D03*
X006953Y009701D03*
X006953Y009695D03*
X006953Y009690D03*
X006953Y009684D03*
X006953Y009678D03*
X006953Y009672D03*
X006953Y009666D03*
X006953Y009660D03*
X006953Y009654D03*
X006953Y009648D03*
X006953Y009642D03*
X006953Y009636D03*
X006953Y009630D03*
X006953Y009625D03*
X006953Y009619D03*
X006953Y009341D03*
X006953Y009335D03*
X006953Y009329D03*
X006953Y008945D03*
X006947Y008934D03*
X006947Y008928D03*
X006947Y008922D03*
X006947Y008916D03*
X006941Y008904D03*
X006941Y008898D03*
X006941Y008892D03*
X006941Y008886D03*
X006941Y008880D03*
X006941Y008875D03*
X006941Y008869D03*
X006941Y008863D03*
X006941Y008857D03*
X006941Y008851D03*
X006941Y008845D03*
X006941Y008839D03*
X006941Y008833D03*
X006941Y008827D03*
X006947Y008816D03*
X006947Y008810D03*
X006947Y008804D03*
X006947Y008798D03*
X006953Y008786D03*
X007018Y008650D03*
X007012Y008632D03*
X007012Y008627D03*
X007006Y008615D03*
X007006Y008609D03*
X007000Y008597D03*
X007000Y008591D03*
X006994Y008579D03*
X006994Y008573D03*
X006988Y008562D03*
X006988Y008556D03*
X006982Y008544D03*
X006982Y008538D03*
X006976Y008526D03*
X006976Y008520D03*
X006970Y008508D03*
X006970Y008503D03*
X006965Y008491D03*
X006965Y008485D03*
X006959Y008473D03*
X006959Y008467D03*
X006953Y008455D03*
X006953Y008449D03*
X006947Y008432D03*
X006941Y008414D03*
X006935Y008396D03*
X006929Y008379D03*
X006923Y008361D03*
X007183Y008361D03*
X007183Y008367D03*
X007183Y008373D03*
X007183Y008379D03*
X007183Y008384D03*
X007183Y008390D03*
X007183Y008396D03*
X007183Y008402D03*
X007183Y008408D03*
X007183Y008414D03*
X007183Y008420D03*
X007183Y008426D03*
X007183Y008432D03*
X007183Y008438D03*
X007183Y008443D03*
X007183Y008449D03*
X007183Y008455D03*
X007183Y008461D03*
X007183Y008467D03*
X007183Y008473D03*
X007183Y008479D03*
X007183Y008485D03*
X007183Y008491D03*
X007183Y008497D03*
X007183Y008503D03*
X007183Y008508D03*
X007183Y008514D03*
X007183Y008520D03*
X007183Y008526D03*
X007183Y008532D03*
X007183Y008538D03*
X007183Y008544D03*
X007183Y008550D03*
X007183Y008556D03*
X007183Y008562D03*
X007183Y008567D03*
X007183Y008573D03*
X007183Y008579D03*
X007183Y008585D03*
X007183Y008591D03*
X007183Y008597D03*
X007183Y008603D03*
X007183Y008609D03*
X007183Y008615D03*
X007183Y008621D03*
X007183Y008627D03*
X007183Y008632D03*
X007183Y008638D03*
X007183Y008644D03*
X007183Y008650D03*
X007183Y008656D03*
X007183Y008756D03*
X007183Y008762D03*
X007183Y008768D03*
X007183Y008774D03*
X007183Y008780D03*
X007183Y008786D03*
X007183Y008792D03*
X007183Y008798D03*
X007183Y008804D03*
X007183Y008810D03*
X007183Y008816D03*
X007183Y008821D03*
X007183Y008827D03*
X007183Y008833D03*
X007183Y008839D03*
X007183Y008845D03*
X007183Y008851D03*
X007183Y008857D03*
X007183Y008863D03*
X007183Y008869D03*
X007183Y008875D03*
X007183Y008880D03*
X007183Y008886D03*
X007183Y008892D03*
X007183Y008898D03*
X007183Y008904D03*
X007183Y008910D03*
X007183Y008916D03*
X007183Y008922D03*
X007183Y008928D03*
X007183Y008934D03*
X007183Y008940D03*
X007183Y008945D03*
X007183Y008951D03*
X007183Y008957D03*
X007183Y008963D03*
X007183Y008969D03*
X007183Y008975D03*
X007673Y008508D03*
X007667Y008479D03*
X007661Y008455D03*
X007661Y008449D03*
X007655Y008426D03*
X007655Y008420D03*
X007650Y008402D03*
X007650Y008396D03*
X007650Y008390D03*
X007644Y008373D03*
X007644Y008367D03*
X007644Y008361D03*
X007927Y008438D03*
X007927Y008443D03*
X007933Y008420D03*
X007933Y008414D03*
X007933Y008408D03*
X007939Y008390D03*
X007939Y008384D03*
X007939Y008379D03*
X007945Y008367D03*
X007945Y008361D03*
X007921Y008467D03*
X007921Y008473D03*
X007915Y008497D03*
X008612Y009424D03*
X008612Y009430D03*
X008612Y009436D03*
X008612Y009441D03*
X008612Y009447D03*
X008612Y009453D03*
X008612Y009459D03*
X008612Y009465D03*
X008612Y009471D03*
X008612Y009477D03*
X008612Y009483D03*
X008612Y009489D03*
X008612Y009495D03*
X008612Y009501D03*
X008612Y009506D03*
X008612Y009512D03*
X008612Y009518D03*
X008612Y009524D03*
X008612Y009530D03*
X008612Y009536D03*
X008612Y009542D03*
X008612Y009548D03*
X008612Y009554D03*
X008612Y009560D03*
X008612Y009566D03*
X008612Y009571D03*
X008612Y009577D03*
X008612Y009583D03*
X008612Y009589D03*
X008612Y009595D03*
X008612Y009601D03*
X008612Y009607D03*
X008612Y009613D03*
X008612Y009619D03*
X008612Y009625D03*
X008612Y009630D03*
X008612Y009636D03*
X008612Y009642D03*
X008612Y009648D03*
X008612Y009654D03*
X008612Y009660D03*
X008612Y009666D03*
X008612Y009672D03*
X008612Y009678D03*
X008612Y009684D03*
X008612Y009690D03*
X008612Y009695D03*
X008612Y009701D03*
X008612Y009707D03*
X008612Y009713D03*
X008612Y009719D03*
X008612Y009725D03*
X008612Y009731D03*
X008612Y009737D03*
X008612Y009743D03*
X008612Y009749D03*
X008612Y009754D03*
X008612Y009760D03*
X008612Y009766D03*
X008612Y009772D03*
X008612Y009778D03*
X008612Y009784D03*
X008612Y009790D03*
X008612Y009796D03*
X008612Y009802D03*
X008612Y009808D03*
X008612Y009814D03*
X008612Y009819D03*
X008612Y009825D03*
X008612Y009831D03*
X008612Y009837D03*
X008612Y009843D03*
X008612Y009849D03*
X008612Y009855D03*
X008612Y009861D03*
X008612Y009867D03*
X008612Y009873D03*
X008612Y009879D03*
X008612Y009884D03*
X008612Y009890D03*
X008612Y009896D03*
X008612Y009902D03*
X008612Y009908D03*
X008612Y009914D03*
X008612Y009920D03*
X008612Y009926D03*
X008612Y009932D03*
X008612Y009938D03*
X008612Y009943D03*
X008612Y009949D03*
X008612Y009955D03*
X008612Y009961D03*
X008612Y009967D03*
X008612Y009973D03*
X008612Y009979D03*
X008612Y009985D03*
X008612Y009991D03*
X008612Y009997D03*
X008612Y010003D03*
X008612Y010008D03*
X008612Y010014D03*
X008612Y010020D03*
X008612Y010026D03*
X008612Y010032D03*
X006457Y009896D03*
X006457Y009890D03*
X006457Y009884D03*
X006457Y009879D03*
X006457Y009873D03*
X006457Y009867D03*
X006457Y009861D03*
X006457Y009855D03*
X006457Y009849D03*
X006457Y009843D03*
X006457Y009837D03*
X006457Y009831D03*
X006457Y009825D03*
X006457Y009819D03*
X006457Y009814D03*
X006457Y009808D03*
X006457Y009802D03*
X006457Y009796D03*
X006457Y009790D03*
X006457Y009784D03*
X006457Y009778D03*
X006457Y009772D03*
X006457Y009766D03*
X006457Y009760D03*
X006457Y009754D03*
X006457Y009749D03*
X006457Y009743D03*
X006457Y009737D03*
X006457Y009731D03*
X006457Y009725D03*
X006457Y009719D03*
X006457Y009713D03*
X006457Y009707D03*
X006457Y009701D03*
X006457Y009695D03*
X006457Y009690D03*
X006457Y009684D03*
X006457Y009678D03*
X006457Y009672D03*
X006457Y009666D03*
X006457Y009660D03*
X006457Y009654D03*
X006457Y009648D03*
X006457Y009642D03*
X006457Y009636D03*
X006457Y009630D03*
X006457Y009625D03*
X006457Y009619D03*
X006457Y009613D03*
X006457Y009607D03*
X006457Y009601D03*
X006457Y009595D03*
X006457Y009589D03*
X006457Y009583D03*
X006457Y009577D03*
X006457Y009571D03*
X006457Y009566D03*
X006457Y009560D03*
X006457Y009554D03*
X006457Y009548D03*
X006457Y009542D03*
X006457Y009536D03*
X006457Y009530D03*
X006457Y009524D03*
X006457Y009518D03*
X006457Y009512D03*
X006457Y009506D03*
X006457Y009501D03*
X006457Y009495D03*
X006457Y009489D03*
X006457Y009483D03*
X006457Y009477D03*
X006457Y009471D03*
X006457Y009465D03*
X006457Y009459D03*
X006457Y009453D03*
X006220Y009453D03*
X006220Y009459D03*
X006220Y009465D03*
X006220Y009471D03*
X006215Y009483D03*
X006215Y009489D03*
X006215Y009495D03*
X006215Y009501D03*
X006215Y009506D03*
X006215Y009512D03*
X006215Y009518D03*
X006215Y009524D03*
X006215Y009530D03*
X006215Y009536D03*
X006215Y009542D03*
X006215Y009548D03*
X006215Y009554D03*
X006215Y009560D03*
X006215Y009566D03*
X006215Y009571D03*
X006215Y009577D03*
X006215Y009583D03*
X006215Y009589D03*
X006215Y009595D03*
X006215Y009601D03*
X006215Y009607D03*
X006215Y009613D03*
X006215Y009619D03*
X006215Y009831D03*
X006215Y009837D03*
X006215Y009843D03*
X006215Y009849D03*
X006215Y009855D03*
X006215Y009861D03*
X006215Y009867D03*
X006220Y009879D03*
X006220Y009884D03*
X006220Y009890D03*
X006220Y009896D03*
X006339Y010032D03*
X005742Y009436D03*
X005748Y009412D03*
X005748Y009406D03*
X005754Y009382D03*
X005754Y009377D03*
X005760Y009359D03*
X005760Y009353D03*
X005760Y009347D03*
X005760Y009341D03*
X005766Y009329D03*
X005766Y009323D03*
X005766Y009317D03*
X005612Y009075D03*
X005730Y008940D03*
X005730Y008934D03*
X005730Y008928D03*
X005730Y008922D03*
X005736Y008916D03*
X005736Y008910D03*
X005736Y008904D03*
X005736Y008898D03*
X005736Y008892D03*
X005736Y008886D03*
X005736Y008880D03*
X005736Y008875D03*
X005736Y008869D03*
X005736Y008863D03*
X005736Y008857D03*
X005736Y008851D03*
X005736Y008845D03*
X005730Y008839D03*
X005730Y008833D03*
X005730Y008827D03*
X005488Y008875D03*
X005488Y008880D03*
X005488Y008886D03*
X005488Y008892D03*
X005488Y008898D03*
X005488Y008904D03*
X005494Y008928D03*
X005494Y008627D03*
X005494Y008621D03*
X005494Y008615D03*
X005494Y008609D03*
X005494Y008603D03*
X005494Y008597D03*
X005494Y008591D03*
X005488Y008573D03*
X005488Y008567D03*
X005488Y008562D03*
X005488Y008556D03*
X005494Y008526D03*
X005494Y008520D03*
X005494Y008514D03*
X005494Y008508D03*
X005494Y008503D03*
X005494Y008497D03*
X005500Y008491D03*
X005500Y008485D03*
X005736Y008497D03*
X005742Y008508D03*
X005742Y008514D03*
X005742Y008520D03*
X005742Y008526D03*
X005742Y008532D03*
X005742Y008538D03*
X005742Y008544D03*
X005742Y008550D03*
X005742Y008556D03*
X006220Y008556D03*
X006220Y008562D03*
X006220Y008567D03*
X006220Y008573D03*
X006220Y008579D03*
X006220Y008585D03*
X006220Y008591D03*
X006220Y008597D03*
X006220Y008603D03*
X006220Y008609D03*
X006220Y008615D03*
X006220Y008621D03*
X006220Y008627D03*
X006220Y008632D03*
X006220Y008638D03*
X006220Y008644D03*
X006220Y008650D03*
X006220Y008656D03*
X006220Y008662D03*
X006220Y008668D03*
X006220Y008674D03*
X006220Y008680D03*
X006220Y008686D03*
X006220Y008691D03*
X006220Y008697D03*
X006220Y008703D03*
X006220Y008709D03*
X006220Y008715D03*
X006220Y008721D03*
X006220Y008727D03*
X006220Y008733D03*
X006220Y008739D03*
X006220Y008745D03*
X006220Y008751D03*
X006220Y008756D03*
X006220Y008762D03*
X006220Y008768D03*
X006220Y008774D03*
X006220Y008780D03*
X006220Y008786D03*
X006220Y008792D03*
X006220Y008798D03*
X006220Y008804D03*
X006220Y008810D03*
X006220Y008816D03*
X006220Y008821D03*
X006220Y008827D03*
X006220Y008833D03*
X006220Y008839D03*
X006220Y008845D03*
X006220Y008851D03*
X006220Y008857D03*
X006220Y008863D03*
X006220Y008869D03*
X006220Y008875D03*
X006220Y008880D03*
X006220Y008886D03*
X006220Y008892D03*
X006226Y008910D03*
X006226Y008916D03*
X006226Y008922D03*
X006226Y008928D03*
X006226Y008934D03*
X006451Y008934D03*
X006451Y008940D03*
X006451Y008945D03*
X006451Y008951D03*
X006451Y008957D03*
X006451Y008963D03*
X006451Y008969D03*
X006451Y008975D03*
X006451Y008928D03*
X006451Y008922D03*
X006451Y008916D03*
X006451Y008910D03*
X006451Y008904D03*
X006451Y008898D03*
X006451Y008892D03*
X006451Y008886D03*
X006451Y008880D03*
X006451Y008875D03*
X006451Y008869D03*
X006451Y008863D03*
X006451Y008857D03*
X006451Y008851D03*
X006451Y008845D03*
X006451Y008839D03*
X006451Y008833D03*
X006451Y008827D03*
X006451Y008821D03*
X006451Y008816D03*
X006451Y008810D03*
X006451Y008804D03*
X006451Y008798D03*
X006451Y008792D03*
X006451Y008786D03*
X006451Y008780D03*
X006451Y008774D03*
X006451Y008768D03*
X006451Y008762D03*
X006451Y008756D03*
X006451Y008751D03*
X006451Y008745D03*
X006451Y008739D03*
X006451Y008733D03*
X006451Y008727D03*
X006451Y008721D03*
X006451Y008715D03*
X006451Y008709D03*
X006451Y008703D03*
X006451Y008697D03*
X006451Y008691D03*
X006451Y008686D03*
X006451Y008680D03*
X006451Y008674D03*
X006451Y008668D03*
X006451Y008662D03*
X006451Y008656D03*
X006451Y008650D03*
X006451Y008644D03*
X006451Y008638D03*
X006451Y008632D03*
X006451Y008627D03*
X006451Y008621D03*
X006451Y008615D03*
X006451Y008609D03*
X006451Y008603D03*
X006451Y008597D03*
X006451Y008591D03*
X006451Y008585D03*
X006451Y008579D03*
X006451Y008573D03*
X006451Y008567D03*
X006451Y008562D03*
X006451Y008556D03*
X006451Y008550D03*
X006451Y008544D03*
X006451Y008538D03*
X006451Y008532D03*
X006451Y008526D03*
X006451Y008520D03*
X006451Y008514D03*
X006451Y008508D03*
X006451Y008503D03*
X006451Y008497D03*
X006451Y008491D03*
X006451Y008485D03*
X006451Y008479D03*
X006451Y008473D03*
X006451Y008467D03*
X006451Y008461D03*
X006451Y008455D03*
X006232Y008485D03*
X006232Y008491D03*
X006226Y008497D03*
X006226Y008503D03*
X006226Y008508D03*
X006226Y008514D03*
X006226Y008520D03*
X006226Y008526D03*
X006220Y008550D03*
X005465Y009317D03*
X005465Y009323D03*
X005465Y009329D03*
X005470Y009341D03*
X005470Y009347D03*
X005470Y009353D03*
X005476Y009371D03*
X005476Y009377D03*
X005476Y009382D03*
X005482Y009400D03*
X005482Y009406D03*
X005488Y009430D03*
X005488Y009436D03*
X005494Y009459D03*
X005010Y009459D03*
X005010Y009453D03*
X005010Y009447D03*
X005010Y009441D03*
X005010Y009436D03*
X005010Y009430D03*
X005010Y009424D03*
X005010Y009418D03*
X005010Y009412D03*
X005010Y009406D03*
X005010Y009400D03*
X005010Y009394D03*
X005010Y009388D03*
X005010Y009382D03*
X005010Y009377D03*
X005010Y009371D03*
X005010Y009365D03*
X005010Y009359D03*
X005010Y009353D03*
X005010Y009347D03*
X005010Y009341D03*
X005010Y009335D03*
X005010Y009329D03*
X005010Y009323D03*
X005010Y009317D03*
X005010Y009465D03*
X005010Y009471D03*
X005010Y009477D03*
X005010Y009483D03*
X005010Y009489D03*
X005010Y009495D03*
X005010Y009501D03*
X005010Y009506D03*
X005010Y009512D03*
X005010Y009518D03*
X005010Y009524D03*
X005010Y009530D03*
X005010Y009536D03*
X005010Y009542D03*
X005010Y009548D03*
X005010Y009554D03*
X005010Y009560D03*
X005010Y009566D03*
X005010Y009571D03*
X005010Y009577D03*
X005010Y009583D03*
X005010Y009589D03*
X005010Y009595D03*
X005010Y009601D03*
X005010Y009607D03*
X005010Y009613D03*
X005010Y009619D03*
X005010Y009625D03*
X005010Y009630D03*
X005010Y009636D03*
X005010Y009642D03*
X005010Y009648D03*
X005010Y009654D03*
X005010Y009660D03*
X005010Y009666D03*
X005010Y009672D03*
X005010Y009678D03*
X005010Y009684D03*
X005010Y009690D03*
X005010Y009695D03*
X005010Y009701D03*
X005010Y009707D03*
X005010Y009713D03*
X005010Y009719D03*
X005010Y009725D03*
X005010Y009731D03*
X004756Y009731D03*
X004756Y009737D03*
X004756Y009743D03*
X004756Y009749D03*
X004756Y009754D03*
X004756Y009760D03*
X004756Y009766D03*
X004756Y009772D03*
X004756Y009778D03*
X004756Y009784D03*
X004756Y009790D03*
X004756Y009796D03*
X004756Y009802D03*
X004756Y009808D03*
X004756Y009814D03*
X004756Y009819D03*
X004756Y009825D03*
X004756Y009831D03*
X004756Y009837D03*
X004756Y009843D03*
X004756Y009849D03*
X004756Y009855D03*
X004756Y009861D03*
X004756Y009867D03*
X004756Y009873D03*
X004756Y009879D03*
X004756Y009884D03*
X004756Y009890D03*
X004756Y009896D03*
X004756Y009902D03*
X004756Y009908D03*
X004756Y009914D03*
X004756Y009920D03*
X004756Y009926D03*
X004756Y009932D03*
X004756Y009938D03*
X004756Y009943D03*
X004756Y009949D03*
X004756Y009955D03*
X004756Y009961D03*
X004756Y009967D03*
X004756Y009973D03*
X004756Y009979D03*
X004756Y009985D03*
X004756Y009991D03*
X004756Y009997D03*
X004756Y010003D03*
X004756Y010008D03*
X004756Y010014D03*
X004756Y010020D03*
X004756Y010026D03*
X004756Y010032D03*
X005010Y010020D03*
X005010Y010014D03*
X005010Y010008D03*
X004756Y009725D03*
X004756Y009719D03*
X004756Y009713D03*
X004756Y009707D03*
X004756Y009701D03*
X004756Y009695D03*
X004756Y009690D03*
X004756Y009684D03*
X004756Y009678D03*
X004756Y009672D03*
X004756Y009666D03*
X004756Y009660D03*
X004756Y009654D03*
X004756Y009648D03*
X004756Y009642D03*
X004756Y009636D03*
X004756Y009630D03*
X004756Y009625D03*
X004756Y009619D03*
X004756Y009341D03*
X004756Y009335D03*
X004756Y009329D03*
D19*
X004803Y009589D03*
X004803Y009595D03*
X004803Y009601D03*
X004963Y009749D03*
X004963Y009754D03*
X004963Y009760D03*
X005612Y009052D03*
X005559Y008691D03*
X006404Y008361D03*
X007000Y009589D03*
X007000Y009595D03*
X007000Y009601D03*
X007159Y009749D03*
X007159Y009754D03*
X007159Y009760D03*
X008506Y009052D03*
D20*
X008503Y009069D03*
X008591Y008975D03*
X007794Y008975D03*
X007794Y008969D03*
X007794Y008963D03*
X006967Y009412D03*
X006967Y009418D03*
X006967Y009424D03*
X007192Y009932D03*
X007192Y009938D03*
X007192Y009943D03*
X007729Y009932D03*
X006430Y009932D03*
X005615Y009932D03*
X005615Y009938D03*
X005615Y009926D03*
X005615Y009920D03*
X004995Y009926D03*
X004995Y009932D03*
X004995Y009938D03*
X004771Y009424D03*
X004771Y009418D03*
X004771Y009412D03*
X005704Y008975D03*
X005710Y008798D03*
X005615Y008361D03*
D21*
X010103Y010032D03*
X010647Y009642D03*
X010647Y008367D03*
D22*
X008506Y008367D03*
X008423Y008455D03*
X007791Y008928D03*
X006982Y008756D03*
X006976Y009459D03*
X006976Y009465D03*
X006976Y009471D03*
X007183Y009879D03*
X007183Y009884D03*
X007183Y009890D03*
X005529Y008455D03*
X004779Y009459D03*
X004779Y009465D03*
X004779Y009471D03*
X004986Y009879D03*
X004986Y009884D03*
X004986Y009890D03*
D23*
X005007Y009997D03*
X005007Y010003D03*
X005615Y009991D03*
X005615Y009985D03*
X005615Y009979D03*
X005615Y009973D03*
X006223Y009908D03*
X006223Y009902D03*
X006229Y009914D03*
X006448Y009914D03*
X006454Y009908D03*
X006454Y009902D03*
X006454Y009447D03*
X006454Y009441D03*
X006448Y009436D03*
X006336Y009317D03*
X006223Y009441D03*
X006223Y009447D03*
X006235Y008951D03*
X006229Y008945D03*
X006229Y008940D03*
X006235Y008479D03*
X005739Y008503D03*
X005733Y008491D03*
X005733Y008485D03*
X005503Y008479D03*
X005503Y008473D03*
X005497Y008632D03*
X005497Y008638D03*
X005503Y008644D03*
X005727Y008821D03*
X005727Y008945D03*
X005721Y008951D03*
X005721Y008957D03*
X005497Y008940D03*
X005497Y008934D03*
X005491Y008922D03*
X005491Y008916D03*
X005491Y008910D03*
X004759Y009347D03*
X004759Y009353D03*
X004759Y009359D03*
X006956Y009359D03*
X006956Y009353D03*
X006956Y009347D03*
X006956Y008951D03*
X006950Y008940D03*
X006950Y008792D03*
X006956Y008780D03*
X006979Y008532D03*
X006973Y008514D03*
X006967Y008497D03*
X006962Y008479D03*
X006956Y008461D03*
X006950Y008443D03*
X006950Y008438D03*
X006944Y008426D03*
X006944Y008420D03*
X006938Y008408D03*
X006938Y008402D03*
X006932Y008390D03*
X006932Y008384D03*
X006926Y008373D03*
X006926Y008367D03*
X007794Y009016D03*
X007794Y009022D03*
X007794Y009028D03*
X007712Y009436D03*
X007706Y009441D03*
X007706Y009447D03*
X007936Y009447D03*
X007936Y009441D03*
X007936Y009902D03*
X007936Y009908D03*
X007930Y009914D03*
X007712Y009914D03*
X007706Y009908D03*
X007706Y009902D03*
X007204Y009997D03*
X007204Y010003D03*
X007204Y010008D03*
X008397Y008951D03*
X008397Y008945D03*
X008391Y008940D03*
X008391Y008934D03*
X008609Y008951D03*
X008609Y008957D03*
X008615Y008945D03*
X008615Y008940D03*
X008615Y008934D03*
X008615Y008497D03*
X008615Y008491D03*
X008615Y008485D03*
X008609Y008479D03*
X008609Y008473D03*
X008397Y008479D03*
X008397Y008485D03*
X008391Y008491D03*
X008391Y008497D03*
D24*
X008503Y009046D03*
X009879Y009270D03*
X009879Y009276D03*
X009879Y009282D03*
X009879Y009288D03*
X009879Y009294D03*
X009879Y009300D03*
X009879Y009306D03*
X009879Y009312D03*
X009879Y009317D03*
X011408Y009317D03*
X011408Y009312D03*
X011408Y009306D03*
X011408Y009300D03*
X011408Y009294D03*
X011408Y009288D03*
X011408Y009282D03*
X011408Y009276D03*
X011408Y009270D03*
X011408Y009264D03*
X011408Y009258D03*
X011408Y009323D03*
X011408Y009329D03*
X006395Y008367D03*
D25*
X005612Y008367D03*
X005612Y009064D03*
X006339Y009329D03*
X006982Y009495D03*
X006982Y009501D03*
X006982Y009506D03*
X007177Y009849D03*
X007177Y009855D03*
X007177Y009861D03*
X007821Y010020D03*
X007821Y009329D03*
X007791Y008904D03*
X007791Y008898D03*
X006339Y010020D03*
X005618Y009861D03*
X004980Y009855D03*
X004980Y009849D03*
X004785Y009501D03*
X004785Y009495D03*
D26*
X010100Y009766D03*
X010100Y009772D03*
X010100Y009778D03*
X010100Y009784D03*
X010100Y009790D03*
X010100Y009796D03*
X010100Y009802D03*
X010100Y009808D03*
X010100Y009814D03*
X010100Y009819D03*
X010100Y009825D03*
X010100Y009831D03*
X010100Y009837D03*
X010100Y009843D03*
X010100Y009849D03*
X010100Y009855D03*
X010100Y009861D03*
X010100Y009867D03*
X010100Y009873D03*
X010100Y009879D03*
X010100Y009884D03*
X010100Y009890D03*
X010100Y009896D03*
X010100Y009902D03*
X010100Y009908D03*
X010100Y009914D03*
X010100Y009920D03*
X010100Y009926D03*
X010100Y009932D03*
X010100Y009938D03*
X010100Y009943D03*
X010100Y009949D03*
X010100Y009955D03*
X010100Y009961D03*
X010100Y009967D03*
X010100Y009973D03*
X010100Y009979D03*
X010100Y009985D03*
X010100Y009991D03*
X010100Y009997D03*
X010100Y010003D03*
X010100Y010008D03*
X010100Y010014D03*
X010100Y010020D03*
X010100Y010026D03*
X010644Y009636D03*
X010644Y009630D03*
X010644Y009625D03*
X010644Y009619D03*
X010644Y009613D03*
X010644Y009607D03*
X010644Y009601D03*
X010644Y009595D03*
X010644Y009589D03*
X010644Y009583D03*
X010644Y009577D03*
X010644Y009571D03*
X010644Y009566D03*
X010644Y009560D03*
X010644Y009554D03*
X010644Y009548D03*
X010644Y009542D03*
X010644Y009536D03*
X010644Y009530D03*
X010644Y009524D03*
X010644Y009518D03*
X010644Y009512D03*
X010644Y009506D03*
X010644Y009501D03*
X010644Y009495D03*
X010644Y009489D03*
X010644Y009483D03*
X010644Y009477D03*
X010644Y009471D03*
X010644Y009465D03*
X010644Y009459D03*
X010644Y009453D03*
X010644Y009447D03*
X010644Y009441D03*
X010644Y009436D03*
X010644Y009430D03*
X010644Y009424D03*
X010644Y009418D03*
X010644Y009170D03*
X010644Y009164D03*
X010644Y009158D03*
X010644Y009152D03*
X010644Y009146D03*
X010644Y009140D03*
X010644Y009134D03*
X010644Y009129D03*
X010644Y009123D03*
X010644Y009117D03*
X010644Y009111D03*
X010644Y009105D03*
X010644Y009099D03*
X010644Y009093D03*
X010644Y009087D03*
X010644Y009081D03*
X010644Y009075D03*
X010644Y009069D03*
X010644Y009064D03*
X010644Y009058D03*
X010644Y009052D03*
X010644Y009046D03*
X010644Y009040D03*
X010644Y009034D03*
X010644Y009028D03*
X010644Y009022D03*
X010644Y009016D03*
X010644Y009010D03*
X010644Y009004D03*
X010644Y008999D03*
X010644Y008993D03*
X010644Y008987D03*
X010644Y008981D03*
X010644Y008975D03*
X010644Y008969D03*
X010644Y008963D03*
X010644Y008957D03*
X010644Y008951D03*
X010644Y008945D03*
X010644Y008940D03*
X010644Y008934D03*
X010644Y008928D03*
X010644Y008922D03*
X010644Y008916D03*
X010644Y008910D03*
X010644Y008904D03*
X010644Y008898D03*
X010644Y008892D03*
X010644Y008886D03*
X010644Y008880D03*
X010644Y008875D03*
X010644Y008869D03*
X010644Y008863D03*
X010644Y008857D03*
X010644Y008851D03*
X010644Y008845D03*
X010644Y008839D03*
X010644Y008833D03*
X010644Y008485D03*
X010644Y008479D03*
X010644Y008473D03*
X010644Y008467D03*
X010644Y008461D03*
X010644Y008455D03*
X010644Y008449D03*
X010644Y008443D03*
X010644Y008438D03*
X010644Y008432D03*
X010644Y008426D03*
X010644Y008420D03*
X010644Y008414D03*
X010644Y008408D03*
X010644Y008402D03*
X010644Y008396D03*
X010644Y008390D03*
X010644Y008384D03*
X010644Y008379D03*
X010644Y008373D03*
D27*
X010650Y008491D03*
X010650Y008497D03*
X010650Y008503D03*
X010650Y008508D03*
X010650Y008514D03*
X010650Y008520D03*
X010650Y008526D03*
X010650Y008532D03*
X010650Y008538D03*
X010650Y008544D03*
X010650Y008550D03*
X010650Y008556D03*
X010650Y008562D03*
X010650Y008567D03*
X010650Y008573D03*
X010650Y008579D03*
X010650Y008585D03*
X010650Y008591D03*
X010650Y008597D03*
X010650Y008603D03*
X010650Y008609D03*
X010650Y008615D03*
X010650Y008621D03*
X010650Y008627D03*
X010650Y008632D03*
X010650Y008638D03*
X010650Y008644D03*
X010650Y008650D03*
X010650Y008656D03*
X010650Y008662D03*
X010650Y008668D03*
X010650Y008674D03*
X010650Y008680D03*
X010650Y008686D03*
X010650Y008691D03*
X010650Y008697D03*
X010650Y008703D03*
X010650Y008709D03*
X010650Y008715D03*
X010650Y008721D03*
X010650Y008727D03*
X010650Y008733D03*
X010650Y008739D03*
X010650Y008745D03*
X010650Y008751D03*
X010650Y008756D03*
X010650Y008762D03*
X010650Y008768D03*
X010650Y008774D03*
X010650Y008780D03*
X010650Y008786D03*
X010650Y008792D03*
X010650Y008798D03*
X010650Y008804D03*
X010650Y008810D03*
X010650Y008816D03*
X010650Y008821D03*
X010650Y008827D03*
X011004Y008827D03*
X011004Y008821D03*
X011004Y008816D03*
X011004Y008810D03*
X011004Y008804D03*
X011004Y008798D03*
X011004Y008792D03*
X011004Y008786D03*
X011004Y008780D03*
X011004Y008774D03*
X011004Y008768D03*
X011004Y008762D03*
X011004Y008756D03*
X011004Y008751D03*
X011004Y008745D03*
X011004Y008739D03*
X011004Y008733D03*
X011004Y008727D03*
X011004Y008721D03*
X011004Y008715D03*
X011004Y008709D03*
X011004Y008703D03*
X011004Y008697D03*
X011004Y008691D03*
X011004Y008686D03*
X011004Y008680D03*
X011004Y008674D03*
X011004Y008668D03*
X011004Y008662D03*
X011004Y008656D03*
X011004Y008650D03*
X011004Y008644D03*
X011004Y008638D03*
X011004Y008632D03*
X011004Y008627D03*
X011004Y008621D03*
X011004Y008615D03*
X011004Y008609D03*
X011004Y008603D03*
X011004Y008597D03*
X011004Y008591D03*
X011004Y008585D03*
X011004Y008579D03*
X011004Y008573D03*
X011004Y008567D03*
X011004Y008562D03*
X011004Y008556D03*
X011004Y008550D03*
X011004Y008544D03*
X011004Y008538D03*
X011004Y008532D03*
X011004Y008526D03*
X011004Y008520D03*
X011004Y008514D03*
X011004Y008508D03*
X011004Y008503D03*
X011004Y008497D03*
X011004Y008491D03*
X010289Y008491D03*
X010289Y008497D03*
X010289Y008503D03*
X010289Y008508D03*
X010289Y008514D03*
X010289Y008520D03*
X010289Y008526D03*
X010289Y008532D03*
X010289Y008538D03*
X010289Y008544D03*
X010289Y008550D03*
X010289Y008556D03*
X010289Y008562D03*
X010289Y008567D03*
X010289Y008573D03*
X010289Y008579D03*
X010289Y008585D03*
X010289Y008591D03*
X010289Y008597D03*
X010289Y008603D03*
X010289Y008609D03*
X010289Y008615D03*
X010289Y008621D03*
X010289Y008627D03*
X010289Y008632D03*
X010289Y008638D03*
X010289Y008644D03*
X010289Y008650D03*
X010289Y008656D03*
X010289Y008662D03*
X010289Y008668D03*
X010289Y008674D03*
X010289Y008680D03*
X010289Y008686D03*
X010289Y008691D03*
X010289Y008697D03*
X010289Y008703D03*
X010289Y008709D03*
X010289Y008715D03*
X010289Y008721D03*
X010289Y008727D03*
X010289Y008733D03*
X010289Y008739D03*
X010289Y008745D03*
X010289Y008751D03*
X010289Y008756D03*
X010289Y008762D03*
X010289Y008768D03*
X010289Y008774D03*
X010289Y008780D03*
X010289Y008786D03*
X010289Y008792D03*
X010289Y008798D03*
X010289Y008804D03*
X010289Y008810D03*
X010289Y008816D03*
X010289Y008821D03*
X010289Y008827D03*
X008506Y008373D03*
X007791Y008875D03*
X006988Y009524D03*
X006988Y009530D03*
X006988Y009536D03*
X007171Y009814D03*
X007171Y009819D03*
X007171Y009825D03*
X006415Y009075D03*
X005541Y008680D03*
X004791Y009524D03*
X004791Y009530D03*
X004791Y009536D03*
X004974Y009814D03*
X004974Y009819D03*
X004974Y009825D03*
D28*
X004901Y009725D03*
X004901Y009719D03*
X004895Y009707D03*
X004895Y009701D03*
X004889Y009690D03*
X004883Y009678D03*
X004883Y009672D03*
X004877Y009660D03*
X004877Y009654D03*
X004871Y009642D03*
X004871Y009636D03*
X004865Y009625D03*
X004753Y009323D03*
X004753Y009317D03*
X005467Y009335D03*
X005473Y009359D03*
X005473Y009365D03*
X005479Y009388D03*
X005479Y009394D03*
X005485Y009412D03*
X005485Y009418D03*
X005485Y009424D03*
X005491Y009441D03*
X005491Y009447D03*
X005491Y009453D03*
X005497Y009465D03*
X005521Y009583D03*
X005521Y009589D03*
X005521Y009595D03*
X005527Y009613D03*
X005527Y009619D03*
X005532Y009642D03*
X005538Y009672D03*
X005698Y009648D03*
X005704Y009619D03*
X005710Y009595D03*
X005710Y009589D03*
X005733Y009465D03*
X005739Y009459D03*
X005739Y009453D03*
X005739Y009447D03*
X005739Y009441D03*
X005745Y009430D03*
X005745Y009424D03*
X005745Y009418D03*
X005751Y009400D03*
X005751Y009394D03*
X005751Y009388D03*
X005757Y009371D03*
X005757Y009365D03*
X005763Y009335D03*
X006217Y009477D03*
X006217Y009873D03*
X005615Y009997D03*
X005615Y010003D03*
X005615Y010008D03*
X005615Y010014D03*
X005013Y010026D03*
X005013Y010032D03*
X005491Y008869D03*
X005491Y008585D03*
X005491Y008579D03*
X005491Y008550D03*
X005491Y008544D03*
X005491Y008538D03*
X005491Y008532D03*
X006223Y008532D03*
X006223Y008538D03*
X006223Y008544D03*
X006223Y008898D03*
X006223Y008904D03*
X006944Y008910D03*
X006944Y008821D03*
X007021Y008656D03*
X007015Y008644D03*
X007015Y008638D03*
X007009Y008621D03*
X007003Y008603D03*
X006997Y008585D03*
X006991Y008567D03*
X006985Y008550D03*
X007653Y008414D03*
X007653Y008408D03*
X007658Y008432D03*
X007658Y008438D03*
X007658Y008443D03*
X007664Y008461D03*
X007664Y008467D03*
X007664Y008473D03*
X007670Y008485D03*
X007670Y008491D03*
X007670Y008497D03*
X007670Y008503D03*
X007694Y008615D03*
X007700Y008627D03*
X007700Y008632D03*
X007700Y008638D03*
X007706Y008662D03*
X007706Y008668D03*
X007712Y008691D03*
X007877Y008686D03*
X007883Y008656D03*
X007889Y008632D03*
X007889Y008627D03*
X007912Y008508D03*
X007912Y008503D03*
X007918Y008491D03*
X007918Y008485D03*
X007918Y008479D03*
X007924Y008461D03*
X007924Y008455D03*
X007924Y008449D03*
X007930Y008432D03*
X007930Y008426D03*
X007936Y008402D03*
X007936Y008396D03*
X007942Y008373D03*
X007647Y008379D03*
X007647Y008384D03*
X008391Y008562D03*
X008391Y008869D03*
X008503Y009075D03*
X007942Y009477D03*
X007942Y009483D03*
X007942Y009867D03*
X007942Y009873D03*
X007210Y010026D03*
X007210Y010032D03*
X007097Y009725D03*
X007097Y009719D03*
X007091Y009713D03*
X007091Y009707D03*
X007086Y009695D03*
X007086Y009690D03*
X007080Y009678D03*
X007080Y009672D03*
X007074Y009660D03*
X007074Y009654D03*
X007068Y009642D03*
X007062Y009630D03*
X007062Y009625D03*
X006950Y009323D03*
X006950Y009317D03*
X007794Y009052D03*
X007794Y009046D03*
X007794Y009040D03*
D29*
X007821Y009353D03*
X007821Y009997D03*
X006339Y009997D03*
X006339Y009353D03*
X005612Y009040D03*
X005624Y008739D03*
X005606Y008727D03*
X005600Y008721D03*
X005612Y008390D03*
X006386Y008373D03*
X008506Y008396D03*
X009888Y009229D03*
X009888Y009235D03*
X009888Y009359D03*
X011400Y009359D03*
X011400Y009365D03*
X011400Y009229D03*
X011400Y009223D03*
D30*
X007821Y009335D03*
X007142Y009075D03*
X006994Y009560D03*
X006994Y009566D03*
X006994Y009571D03*
X007165Y009784D03*
X007165Y009790D03*
X007821Y010014D03*
X006339Y010014D03*
X006256Y009707D03*
X006256Y009701D03*
X006256Y009695D03*
X006256Y009690D03*
X006256Y009684D03*
X006256Y009678D03*
X006256Y009672D03*
X006256Y009666D03*
X006256Y009660D03*
X006256Y009654D03*
X006256Y009648D03*
X006256Y009642D03*
X006256Y009636D03*
X006256Y009630D03*
X006256Y009625D03*
X006339Y009335D03*
X005612Y009058D03*
X005612Y008373D03*
X004797Y009560D03*
X004797Y009566D03*
X004968Y009778D03*
X004968Y009784D03*
X004968Y009790D03*
D31*
X004966Y009772D03*
X004966Y009766D03*
X004800Y009583D03*
X004800Y009577D03*
X004800Y009571D03*
X005668Y008768D03*
X006997Y009577D03*
X006997Y009583D03*
X007162Y009766D03*
X007162Y009772D03*
X007162Y009778D03*
X008509Y008379D03*
D32*
X008506Y008402D03*
X007821Y009359D03*
X007821Y009991D03*
X006339Y009991D03*
X006339Y009359D03*
X006380Y009058D03*
X005612Y009034D03*
X006380Y008379D03*
X009894Y009217D03*
X009894Y009377D03*
X011394Y009377D03*
X011394Y009211D03*
D33*
X007156Y009737D03*
X007156Y009743D03*
X007003Y009613D03*
X007003Y009607D03*
X006336Y009341D03*
X005656Y008762D03*
X005568Y008697D03*
X005615Y008379D03*
X004806Y009607D03*
X004806Y009613D03*
X004960Y009737D03*
X004960Y009743D03*
D34*
X005648Y008756D03*
X006398Y009069D03*
X006339Y010008D03*
X007821Y010008D03*
X007821Y009341D03*
X008506Y008384D03*
D35*
X008506Y008408D03*
X007821Y009365D03*
X007821Y009985D03*
X007106Y009058D03*
X007106Y008686D03*
X007106Y008680D03*
X007106Y008674D03*
X006374Y008384D03*
X005612Y009028D03*
X006339Y009365D03*
X006339Y009985D03*
X009900Y009388D03*
X009900Y009205D03*
X011388Y009199D03*
X011388Y009388D03*
D36*
X011405Y009347D03*
X011405Y009341D03*
X011405Y009335D03*
X011405Y009253D03*
X011405Y009247D03*
X009882Y009253D03*
X009882Y009258D03*
X009882Y009264D03*
X009882Y009323D03*
X009882Y009329D03*
X009882Y009335D03*
X008506Y008390D03*
X007821Y009347D03*
X007124Y009069D03*
X006339Y009347D03*
X005612Y009046D03*
X005577Y008703D03*
X005612Y008384D03*
X006339Y010003D03*
X007821Y010003D03*
D37*
X007103Y009052D03*
X007103Y008668D03*
X007103Y008662D03*
X006371Y008390D03*
X005615Y008402D03*
X006371Y009046D03*
X008503Y009022D03*
X009903Y009199D03*
X011385Y009394D03*
D38*
X011379Y009400D03*
X011379Y009188D03*
X009908Y009400D03*
X008503Y009010D03*
X008503Y008420D03*
X007097Y008697D03*
X007097Y009046D03*
X006365Y009034D03*
X005609Y009016D03*
X005615Y008414D03*
X006365Y008396D03*
D39*
X005615Y008396D03*
X006377Y009052D03*
X008503Y009028D03*
X009897Y009211D03*
X009897Y009382D03*
X009897Y008827D03*
X009897Y008821D03*
X009897Y008816D03*
X009897Y008810D03*
X009897Y008804D03*
X009897Y008798D03*
X009897Y008792D03*
X009897Y008786D03*
X009897Y008780D03*
X009897Y008774D03*
X009897Y008768D03*
X009897Y008762D03*
X009897Y008756D03*
X009897Y008751D03*
X009897Y008745D03*
X009897Y008739D03*
X009897Y008733D03*
X009897Y008727D03*
X009897Y008721D03*
X009897Y008715D03*
X009897Y008709D03*
X009897Y008703D03*
X009897Y008697D03*
X009897Y008691D03*
X009897Y008686D03*
X009897Y008680D03*
X009897Y008674D03*
X009897Y008668D03*
X009897Y008662D03*
X009897Y008656D03*
X009897Y008650D03*
X009897Y008644D03*
X009897Y008638D03*
X009897Y008632D03*
X009897Y008627D03*
X009897Y008621D03*
X009897Y008615D03*
X009897Y008609D03*
X009897Y008603D03*
X009897Y008597D03*
X009897Y008591D03*
X009897Y008585D03*
X009897Y008579D03*
X009897Y008573D03*
X009897Y008567D03*
X009897Y008562D03*
X009897Y008556D03*
X009897Y008550D03*
X009897Y008544D03*
X009897Y008538D03*
X009897Y008532D03*
X009897Y008526D03*
X009897Y008520D03*
X009897Y008514D03*
X009897Y008508D03*
X009897Y008503D03*
X009897Y008497D03*
X009897Y008491D03*
X011391Y009205D03*
X011391Y009382D03*
D40*
X009911Y009188D03*
X008506Y008426D03*
X007821Y009377D03*
X007821Y009967D03*
X007821Y009973D03*
X007094Y009040D03*
X006362Y009028D03*
X006339Y009377D03*
X006339Y009973D03*
X005612Y009010D03*
X006362Y008402D03*
D41*
X006359Y008408D03*
X006359Y009022D03*
X006336Y009382D03*
X006336Y009967D03*
X007091Y009034D03*
X007091Y008703D03*
X007824Y009382D03*
X008503Y009004D03*
X009914Y009406D03*
X011373Y009406D03*
X005615Y008420D03*
D42*
X005612Y008408D03*
X005612Y009022D03*
X006368Y009040D03*
X006339Y009371D03*
X006339Y009979D03*
X007100Y008691D03*
X007821Y009371D03*
X007821Y009979D03*
X008506Y009016D03*
X008506Y008414D03*
X009905Y009193D03*
X009905Y009394D03*
X011382Y009193D03*
D43*
X011370Y009182D03*
X009917Y009182D03*
X008506Y008999D03*
X008506Y008438D03*
X008506Y008432D03*
X007791Y008609D03*
X007089Y008709D03*
X007089Y009028D03*
X007821Y009388D03*
X007821Y009961D03*
X006339Y009961D03*
X006339Y009388D03*
X006356Y009016D03*
X006356Y008420D03*
X006356Y008414D03*
X005612Y009004D03*
D44*
X005609Y008999D03*
X005615Y009548D03*
X005615Y009554D03*
X005615Y009560D03*
X005615Y009566D03*
X006353Y009010D03*
X006353Y008426D03*
X005615Y008426D03*
X005615Y008432D03*
X007086Y008715D03*
X007086Y009022D03*
X007794Y008603D03*
X007794Y008597D03*
X007794Y008591D03*
X008503Y008987D03*
X008503Y008993D03*
X011367Y009412D03*
D45*
X009923Y009412D03*
X008512Y009418D03*
X007821Y009400D03*
X007821Y009394D03*
X007821Y009949D03*
X007821Y009955D03*
X007083Y009016D03*
X007083Y008721D03*
X006350Y008999D03*
X006350Y009004D03*
X006339Y009394D03*
X006339Y009400D03*
X006339Y009949D03*
X006339Y009955D03*
X005612Y008993D03*
X006350Y008438D03*
X006350Y008432D03*
X007791Y008585D03*
X008506Y008449D03*
X008506Y008443D03*
D46*
X008503Y008981D03*
X008509Y009317D03*
X008509Y009323D03*
X008509Y009329D03*
X008509Y009335D03*
X008509Y009341D03*
X008509Y009347D03*
X008509Y009353D03*
X008509Y009359D03*
X008509Y009365D03*
X008509Y009371D03*
X008509Y009377D03*
X008509Y009382D03*
X008509Y009388D03*
X008509Y009394D03*
X008509Y009400D03*
X008509Y009406D03*
X008509Y009412D03*
X007794Y008579D03*
X007794Y008573D03*
X007794Y008567D03*
X007080Y008727D03*
X007080Y008733D03*
X007080Y009004D03*
X007080Y009010D03*
X006347Y008993D03*
X006347Y008987D03*
X006347Y008449D03*
X006347Y008443D03*
X005615Y008438D03*
X005609Y008987D03*
X005615Y009518D03*
X005615Y009524D03*
X005615Y009530D03*
X005615Y009536D03*
X005615Y009542D03*
X009926Y009176D03*
X011361Y009176D03*
D47*
X007821Y009406D03*
X007821Y009412D03*
X007821Y009938D03*
X007821Y009943D03*
X007077Y008999D03*
X007077Y008739D03*
X006344Y008981D03*
X006339Y009406D03*
X006339Y009412D03*
X006339Y009938D03*
X006339Y009943D03*
X005612Y008981D03*
X005618Y008449D03*
X005618Y008443D03*
X007791Y008556D03*
X007791Y008562D03*
D48*
X007794Y008934D03*
X007794Y008940D03*
X007794Y008945D03*
X008586Y008455D03*
X006979Y008975D03*
X006973Y009447D03*
X006973Y009453D03*
X007186Y009896D03*
X007186Y009902D03*
X007186Y009908D03*
X006259Y008975D03*
X005521Y008975D03*
X005527Y008668D03*
X004777Y009441D03*
X004777Y009447D03*
X004777Y009453D03*
X004989Y009896D03*
X004989Y009902D03*
X004989Y009908D03*
X005615Y009908D03*
X005615Y009902D03*
X005615Y009896D03*
X005615Y009890D03*
D49*
X005615Y009884D03*
X005615Y009879D03*
X005615Y009873D03*
X005615Y009867D03*
X004983Y009867D03*
X004983Y009873D03*
X004983Y009861D03*
X004782Y009489D03*
X004782Y009483D03*
X004782Y009477D03*
X005692Y008786D03*
X005532Y008674D03*
X005704Y008455D03*
X006265Y008455D03*
X006979Y009477D03*
X006979Y009483D03*
X006979Y009489D03*
X007180Y009867D03*
X007180Y009873D03*
X007794Y008922D03*
X007794Y008916D03*
X007794Y008910D03*
X008503Y009064D03*
D50*
X008408Y008969D03*
X008403Y008963D03*
X008403Y008467D03*
X007794Y008987D03*
X007794Y008993D03*
X007794Y008999D03*
X006962Y008963D03*
X006962Y009382D03*
X006962Y009388D03*
X007198Y009961D03*
X007198Y009967D03*
X007198Y009973D03*
X006235Y009424D03*
X005615Y009943D03*
X005615Y009949D03*
X005615Y009955D03*
X005615Y009961D03*
X005001Y009961D03*
X005001Y009967D03*
X005001Y009973D03*
X004765Y009388D03*
X004765Y009382D03*
X004765Y009377D03*
X005503Y008957D03*
X005509Y008963D03*
X005716Y008804D03*
X005721Y008467D03*
X005515Y008461D03*
X006241Y008963D03*
X006247Y008969D03*
D51*
X006238Y008957D03*
X006238Y008473D03*
X006244Y008467D03*
X005730Y008473D03*
X005730Y008479D03*
X005512Y008467D03*
X005506Y008650D03*
X005718Y008810D03*
X005724Y008816D03*
X005718Y008963D03*
X005500Y008951D03*
X005500Y008945D03*
X004762Y009365D03*
X004762Y009371D03*
X005004Y009979D03*
X005004Y009985D03*
X005004Y009991D03*
X005618Y009967D03*
X006232Y009920D03*
X006445Y009920D03*
X006445Y009430D03*
X006232Y009430D03*
X006226Y009436D03*
X006959Y009377D03*
X006959Y009371D03*
X006959Y009365D03*
X006959Y008957D03*
X006959Y008774D03*
X006965Y008768D03*
X007791Y009004D03*
X007791Y009010D03*
X007715Y009430D03*
X007927Y009430D03*
X007933Y009436D03*
X007927Y009920D03*
X007715Y009920D03*
X007201Y009979D03*
X007201Y009985D03*
X007201Y009991D03*
X008400Y008957D03*
X008606Y008963D03*
X008606Y008467D03*
X008400Y008473D03*
D52*
X008503Y009034D03*
X007115Y009064D03*
X005615Y008733D03*
X009891Y009223D03*
X009891Y009365D03*
X009891Y009371D03*
X011397Y009371D03*
X011397Y009217D03*
X011397Y008827D03*
X011397Y008821D03*
X011397Y008816D03*
X011397Y008810D03*
X011397Y008804D03*
X011397Y008798D03*
X011397Y008792D03*
X011397Y008786D03*
X011397Y008780D03*
X011397Y008774D03*
X011397Y008768D03*
X011397Y008762D03*
X011397Y008756D03*
X011397Y008751D03*
X011397Y008745D03*
X011397Y008739D03*
X011397Y008733D03*
X011397Y008727D03*
X011397Y008721D03*
X011397Y008715D03*
X011397Y008709D03*
X011397Y008703D03*
X011397Y008697D03*
X011397Y008691D03*
X011397Y008686D03*
X011397Y008680D03*
X011397Y008674D03*
X011397Y008668D03*
X011397Y008662D03*
X011397Y008656D03*
X011397Y008650D03*
X011397Y008644D03*
X011397Y008638D03*
X011397Y008632D03*
X011397Y008627D03*
X011397Y008621D03*
X011397Y008615D03*
X011397Y008609D03*
X011397Y008603D03*
X011397Y008597D03*
X011397Y008591D03*
X011397Y008585D03*
X011397Y008579D03*
X011397Y008573D03*
X011397Y008567D03*
X011397Y008562D03*
X011397Y008556D03*
X011397Y008550D03*
X011397Y008544D03*
X011397Y008538D03*
X011397Y008532D03*
X011397Y008526D03*
X011397Y008520D03*
X011397Y008514D03*
X011397Y008508D03*
X011397Y008503D03*
X011397Y008497D03*
X011397Y008491D03*
D53*
X007794Y008514D03*
X007794Y008520D03*
X007794Y008526D03*
X005615Y009471D03*
X005615Y009477D03*
X005615Y009483D03*
X005615Y009489D03*
D54*
X007791Y008532D03*
D55*
X007794Y008538D03*
X007794Y008544D03*
X007794Y008550D03*
X007074Y008745D03*
X007074Y008751D03*
X007074Y008981D03*
X007074Y008987D03*
X007074Y008993D03*
X005615Y009495D03*
X005615Y009501D03*
X005615Y009506D03*
X005615Y009512D03*
D56*
X005618Y009914D03*
X004992Y009914D03*
X004992Y009920D03*
X004774Y009436D03*
X004774Y009430D03*
X005612Y009069D03*
X005701Y008792D03*
X005518Y008662D03*
X006339Y009323D03*
X006433Y009418D03*
X006244Y009418D03*
X006244Y009932D03*
X006339Y010026D03*
X006970Y009441D03*
X006970Y009436D03*
X006970Y009430D03*
X007189Y009914D03*
X007189Y009920D03*
X007189Y009926D03*
X007726Y009418D03*
X007821Y009323D03*
X007915Y009418D03*
X007915Y009932D03*
X007821Y010026D03*
X007791Y008957D03*
X007791Y008951D03*
X008417Y008975D03*
D57*
X008503Y009058D03*
X007794Y008869D03*
X007794Y008863D03*
X006991Y009542D03*
X006991Y009548D03*
X006991Y009554D03*
X007168Y009796D03*
X007168Y009802D03*
X007168Y009808D03*
X005615Y009819D03*
X005615Y009825D03*
X005615Y009831D03*
X004971Y009808D03*
X004971Y009802D03*
X004971Y009796D03*
X004794Y009554D03*
X004794Y009548D03*
X004794Y009542D03*
X005674Y008774D03*
X005550Y008686D03*
D58*
X005586Y008709D03*
X005591Y008715D03*
X005633Y008745D03*
X005639Y008751D03*
X006389Y009064D03*
X008503Y009040D03*
X009885Y009241D03*
X009885Y009247D03*
X009885Y009341D03*
X009885Y009347D03*
X009885Y009353D03*
X011403Y009353D03*
X011403Y009241D03*
X011403Y009235D03*
D59*
X009442Y008756D03*
D60*
X009439Y008762D03*
X009439Y008768D03*
X009439Y008774D03*
X009439Y008780D03*
X009439Y008786D03*
X009439Y008792D03*
X009439Y008798D03*
X009439Y008804D03*
X009439Y008810D03*
X009439Y008816D03*
X009439Y008821D03*
X009439Y008827D03*
X009439Y008833D03*
X009439Y008839D03*
X009439Y008845D03*
X009439Y008851D03*
X009439Y008857D03*
X009439Y008863D03*
X009439Y008869D03*
X009439Y008875D03*
X009439Y008880D03*
X009439Y008886D03*
X009439Y008892D03*
X009439Y008898D03*
X009439Y008904D03*
X009439Y008910D03*
X009439Y008916D03*
X009439Y008922D03*
X009439Y008928D03*
X009439Y008934D03*
X009439Y008940D03*
X009439Y008945D03*
X009439Y008951D03*
X009439Y008957D03*
X009439Y008963D03*
X009439Y008969D03*
X009439Y008975D03*
X009439Y008981D03*
X009439Y008987D03*
X009439Y008993D03*
X009439Y008999D03*
X009439Y009004D03*
X009439Y009010D03*
X009439Y009016D03*
X009439Y009022D03*
X009439Y009028D03*
X009439Y009034D03*
X009439Y009040D03*
X009439Y009046D03*
X009439Y009052D03*
X009439Y009058D03*
X009439Y009064D03*
X009439Y009069D03*
X009439Y009075D03*
X009439Y009081D03*
X009439Y009087D03*
X009439Y009093D03*
X009439Y009099D03*
X009439Y009105D03*
X009439Y009111D03*
X009439Y009117D03*
X009439Y009123D03*
X009439Y009129D03*
X009439Y009134D03*
X009439Y009140D03*
X009439Y009146D03*
X009439Y009152D03*
X009439Y009158D03*
X009439Y009164D03*
X009439Y009170D03*
X009439Y009176D03*
X009439Y009182D03*
X009439Y009188D03*
X009439Y009193D03*
X009439Y009199D03*
X009439Y009205D03*
X009439Y009211D03*
X009439Y009217D03*
X009439Y009223D03*
X009439Y009229D03*
X009439Y009235D03*
X009439Y009241D03*
X009439Y009247D03*
X009439Y009253D03*
X009439Y009258D03*
X009439Y009264D03*
X009439Y009270D03*
X009439Y009276D03*
X009439Y009282D03*
X009439Y009288D03*
X009439Y009294D03*
X009439Y009300D03*
X009439Y009306D03*
X009439Y009312D03*
X009439Y009317D03*
X009439Y009323D03*
X009439Y009329D03*
X009439Y009335D03*
X009439Y009341D03*
X009439Y009347D03*
X009439Y009353D03*
X009439Y009359D03*
X009439Y009365D03*
X009439Y009371D03*
X009439Y009377D03*
X009439Y009382D03*
X009439Y009388D03*
X009439Y009394D03*
X009439Y009400D03*
X009439Y009406D03*
X009439Y009412D03*
X009439Y009418D03*
X009439Y009424D03*
X009439Y009430D03*
X009439Y009436D03*
X009439Y009441D03*
X009439Y009447D03*
X009439Y009453D03*
X009439Y009459D03*
X009439Y009465D03*
X009439Y009471D03*
X009439Y009477D03*
X009439Y009483D03*
X009439Y009489D03*
X009439Y009495D03*
X009439Y009501D03*
X009439Y009506D03*
X009439Y009512D03*
X009439Y009518D03*
X009439Y009524D03*
X009439Y009530D03*
X009439Y009536D03*
X009439Y009542D03*
X009439Y009548D03*
X009439Y009554D03*
X009439Y009560D03*
X009439Y009566D03*
X009439Y009571D03*
X009439Y009577D03*
X009439Y009583D03*
X009439Y009589D03*
X009439Y009595D03*
X009439Y009601D03*
X009439Y009607D03*
X009439Y009613D03*
X009439Y009619D03*
X009439Y009625D03*
X009439Y009630D03*
X009439Y009636D03*
X009439Y009642D03*
X009439Y009648D03*
X009439Y009654D03*
X009439Y009660D03*
X009439Y009666D03*
X009439Y009672D03*
X009439Y009678D03*
X009439Y009684D03*
X009439Y009690D03*
X009439Y009695D03*
X009439Y009701D03*
X009439Y009707D03*
X009439Y009713D03*
X009439Y009719D03*
X009439Y009725D03*
X009439Y009731D03*
X009439Y009737D03*
X009439Y009743D03*
X009439Y009749D03*
X009439Y009754D03*
X009439Y009760D03*
D61*
X007794Y008892D03*
X007794Y008886D03*
X007794Y008880D03*
X006985Y009512D03*
X006985Y009518D03*
X007174Y009831D03*
X007174Y009837D03*
X007174Y009843D03*
X005615Y009843D03*
X005615Y009837D03*
X005615Y009849D03*
X005615Y009855D03*
X004977Y009843D03*
X004977Y009837D03*
X004977Y009831D03*
X004788Y009518D03*
X004788Y009512D03*
X004788Y009506D03*
X005686Y008780D03*
D62*
X007791Y009075D03*
D63*
X008503Y009081D03*
D64*
X005612Y009081D03*
D65*
X010647Y009176D03*
D66*
X010644Y009182D03*
D67*
X010644Y009188D03*
D68*
X010644Y009193D03*
D69*
X010644Y009199D03*
D70*
X010647Y009205D03*
D71*
X010647Y009211D03*
X010647Y009377D03*
D72*
X010644Y009217D03*
D73*
X010644Y009223D03*
D74*
X010647Y009229D03*
X010647Y009365D03*
D75*
X010647Y009353D03*
X010647Y009235D03*
D76*
X010644Y009241D03*
X010644Y009347D03*
D77*
X010647Y009341D03*
X010647Y009253D03*
X010647Y009247D03*
D78*
X010644Y009258D03*
X010644Y009329D03*
X010644Y009335D03*
D79*
X010647Y009323D03*
X010647Y009317D03*
X010647Y009276D03*
X010647Y009270D03*
X010647Y009264D03*
D80*
X010644Y009282D03*
X010644Y009288D03*
X010644Y009294D03*
X010644Y009300D03*
X010644Y009306D03*
X010644Y009312D03*
D81*
X007821Y009312D03*
X007821Y010038D03*
X006339Y010038D03*
X006339Y009312D03*
D82*
X010644Y009359D03*
D83*
X010647Y009371D03*
D84*
X010644Y009382D03*
D85*
X010647Y009388D03*
D86*
X010647Y009394D03*
D87*
X010644Y009400D03*
D88*
X010644Y009406D03*
D89*
X010647Y009412D03*
M02*
