G75*
G70*
%OFA0B0*%
%FSLAX24Y24*%
%IPPOS*%
%LPD*%
%AMOC8*
5,1,8,0,0,1.08239X$1,22.5*
%
%ADD10C,0.0088*%
%ADD11C,0.0075*%
%ADD12R,0.0400X0.0450*%
%ADD13R,0.0591X0.0787*%
%ADD14C,0.0100*%
%ADD15R,0.0787X0.2362*%
%ADD16R,0.0394X0.2362*%
%ADD17C,0.0000*%
%ADD18R,0.0157X0.0591*%
%ADD19C,0.0071*%
%ADD20C,0.0035*%
%ADD21C,0.0001*%
%ADD22C,0.0236*%
%ADD23C,0.0081*%
D10*
X002279Y004529D02*
X002541Y004529D01*
X002279Y004529D02*
X002279Y004791D01*
X002541Y004791D01*
X002541Y004529D01*
X002541Y004616D02*
X002279Y004616D01*
X002279Y004703D02*
X002541Y004703D01*
X002541Y004790D02*
X002279Y004790D01*
X002279Y005279D02*
X002541Y005279D01*
X002279Y005279D02*
X002279Y005541D01*
X002541Y005541D01*
X002541Y005279D01*
X002541Y005366D02*
X002279Y005366D01*
X002279Y005453D02*
X002541Y005453D01*
X002541Y005540D02*
X002279Y005540D01*
X002879Y005279D02*
X003141Y005279D01*
X002879Y005279D02*
X002879Y005541D01*
X003141Y005541D01*
X003141Y005279D01*
X003141Y005366D02*
X002879Y005366D01*
X002879Y005453D02*
X003141Y005453D01*
X003141Y005540D02*
X002879Y005540D01*
X002879Y004529D02*
X003141Y004529D01*
X002879Y004529D02*
X002879Y004791D01*
X003141Y004791D01*
X003141Y004529D01*
X003141Y004616D02*
X002879Y004616D01*
X002879Y004703D02*
X003141Y004703D01*
X003141Y004790D02*
X002879Y004790D01*
X004129Y007241D02*
X004391Y007241D01*
X004391Y006979D01*
X004129Y006979D01*
X004129Y007241D01*
X004129Y007066D02*
X004391Y007066D01*
X004391Y007153D02*
X004129Y007153D01*
X004129Y007240D02*
X004391Y007240D01*
X004729Y007241D02*
X004991Y007241D01*
X004991Y006979D01*
X004729Y006979D01*
X004729Y007241D01*
X004729Y007066D02*
X004991Y007066D01*
X004991Y007153D02*
X004729Y007153D01*
X004729Y007240D02*
X004991Y007240D01*
X004891Y008641D02*
X004629Y008641D01*
X004891Y008641D02*
X004891Y008379D01*
X004629Y008379D01*
X004629Y008641D01*
X004629Y008466D02*
X004891Y008466D01*
X004891Y008553D02*
X004629Y008553D01*
X004629Y008640D02*
X004891Y008640D01*
X004291Y008641D02*
X004029Y008641D01*
X004291Y008641D02*
X004291Y008379D01*
X004029Y008379D01*
X004029Y008641D01*
X004029Y008466D02*
X004291Y008466D01*
X004291Y008553D02*
X004029Y008553D01*
X004029Y008640D02*
X004291Y008640D01*
X003141Y010541D02*
X002879Y010541D01*
X003141Y010541D02*
X003141Y010279D01*
X002879Y010279D01*
X002879Y010541D01*
X002879Y010366D02*
X003141Y010366D01*
X003141Y010453D02*
X002879Y010453D01*
X002879Y010540D02*
X003141Y010540D01*
X002541Y010541D02*
X002279Y010541D01*
X002541Y010541D02*
X002541Y010279D01*
X002279Y010279D01*
X002279Y010541D01*
X002279Y010366D02*
X002541Y010366D01*
X002541Y010453D02*
X002279Y010453D01*
X002279Y010540D02*
X002541Y010540D01*
X004029Y011041D02*
X004291Y011041D01*
X004291Y010779D01*
X004029Y010779D01*
X004029Y011041D01*
X004029Y010866D02*
X004291Y010866D01*
X004291Y010953D02*
X004029Y010953D01*
X004029Y011040D02*
X004291Y011040D01*
X004629Y011041D02*
X004891Y011041D01*
X004891Y010779D01*
X004629Y010779D01*
X004629Y011041D01*
X004629Y010866D02*
X004891Y010866D01*
X004891Y010953D02*
X004629Y010953D01*
X004629Y011040D02*
X004891Y011040D01*
X004891Y011791D02*
X004629Y011791D01*
X004891Y011791D02*
X004891Y011529D01*
X004629Y011529D01*
X004629Y011791D01*
X004629Y011616D02*
X004891Y011616D01*
X004891Y011703D02*
X004629Y011703D01*
X004629Y011790D02*
X004891Y011790D01*
X004291Y011791D02*
X004029Y011791D01*
X004291Y011791D02*
X004291Y011529D01*
X004029Y011529D01*
X004029Y011791D01*
X004029Y011616D02*
X004291Y011616D01*
X004291Y011703D02*
X004029Y011703D01*
X004029Y011790D02*
X004291Y011790D01*
X008341Y011341D02*
X008341Y011079D01*
X008079Y011079D01*
X008079Y011341D01*
X008341Y011341D01*
X008341Y011166D02*
X008079Y011166D01*
X008079Y011253D02*
X008341Y011253D01*
X008341Y011340D02*
X008079Y011340D01*
X008341Y010741D02*
X008341Y010479D01*
X008079Y010479D01*
X008079Y010741D01*
X008341Y010741D01*
X008341Y010566D02*
X008079Y010566D01*
X008079Y010653D02*
X008341Y010653D01*
X008341Y010740D02*
X008079Y010740D01*
X008779Y010741D02*
X008779Y010479D01*
X008779Y010741D02*
X009041Y010741D01*
X009041Y010479D01*
X008779Y010479D01*
X008779Y010566D02*
X009041Y010566D01*
X009041Y010653D02*
X008779Y010653D01*
X008779Y010740D02*
X009041Y010740D01*
X008779Y011079D02*
X008779Y011341D01*
X009041Y011341D01*
X009041Y011079D01*
X008779Y011079D01*
X008779Y011166D02*
X009041Y011166D01*
X009041Y011253D02*
X008779Y011253D01*
X008779Y011340D02*
X009041Y011340D01*
X009741Y011341D02*
X009741Y011079D01*
X009479Y011079D01*
X009479Y011341D01*
X009741Y011341D01*
X009741Y011166D02*
X009479Y011166D01*
X009479Y011253D02*
X009741Y011253D01*
X009741Y011340D02*
X009479Y011340D01*
X009741Y010741D02*
X009741Y010479D01*
X009479Y010479D01*
X009479Y010741D01*
X009741Y010741D01*
X009741Y010566D02*
X009479Y010566D01*
X009479Y010653D02*
X009741Y010653D01*
X009741Y010740D02*
X009479Y010740D01*
X008141Y005279D02*
X007879Y005279D01*
X007879Y005541D01*
X008141Y005541D01*
X008141Y005279D01*
X008141Y005366D02*
X007879Y005366D01*
X007879Y005453D02*
X008141Y005453D01*
X008141Y005540D02*
X007879Y005540D01*
X007541Y005279D02*
X007279Y005279D01*
X007279Y005541D01*
X007541Y005541D01*
X007541Y005279D01*
X007541Y005366D02*
X007279Y005366D01*
X007279Y005453D02*
X007541Y005453D01*
X007541Y005540D02*
X007279Y005540D01*
X006891Y005541D02*
X006629Y005541D01*
X006891Y005541D02*
X006891Y005279D01*
X006629Y005279D01*
X006629Y005541D01*
X006629Y005366D02*
X006891Y005366D01*
X006891Y005453D02*
X006629Y005453D01*
X006629Y005540D02*
X006891Y005540D01*
X006291Y005541D02*
X006029Y005541D01*
X006291Y005541D02*
X006291Y005279D01*
X006029Y005279D01*
X006029Y005541D01*
X006029Y005366D02*
X006291Y005366D01*
X006291Y005453D02*
X006029Y005453D01*
X006029Y005540D02*
X006291Y005540D01*
D11*
X001873Y005548D02*
X001647Y005548D01*
X001873Y005548D02*
X001873Y005272D01*
X001647Y005272D01*
X001647Y005548D01*
X001647Y005346D02*
X001873Y005346D01*
X001873Y005420D02*
X001647Y005420D01*
X001647Y005494D02*
X001873Y005494D01*
X001273Y005548D02*
X001047Y005548D01*
X001273Y005548D02*
X001273Y005272D01*
X001047Y005272D01*
X001047Y005548D01*
X001047Y005346D02*
X001273Y005346D01*
X001273Y005420D02*
X001047Y005420D01*
X001047Y005494D02*
X001273Y005494D01*
X001273Y004798D02*
X001047Y004798D01*
X001273Y004798D02*
X001273Y004522D01*
X001047Y004522D01*
X001047Y004798D01*
X001047Y004596D02*
X001273Y004596D01*
X001273Y004670D02*
X001047Y004670D01*
X001047Y004744D02*
X001273Y004744D01*
X001647Y004798D02*
X001873Y004798D01*
X001873Y004522D01*
X001647Y004522D01*
X001647Y004798D01*
X001647Y004596D02*
X001873Y004596D01*
X001873Y004670D02*
X001647Y004670D01*
X001647Y004744D02*
X001873Y004744D01*
X001873Y010548D02*
X001647Y010548D01*
X001873Y010548D02*
X001873Y010272D01*
X001647Y010272D01*
X001647Y010548D01*
X001647Y010346D02*
X001873Y010346D01*
X001873Y010420D02*
X001647Y010420D01*
X001647Y010494D02*
X001873Y010494D01*
X001273Y010548D02*
X001047Y010548D01*
X001273Y010548D02*
X001273Y010272D01*
X001047Y010272D01*
X001047Y010548D01*
X001047Y010346D02*
X001273Y010346D01*
X001273Y010420D02*
X001047Y010420D01*
X001047Y010494D02*
X001273Y010494D01*
D12*
X004110Y010060D03*
X004810Y010060D03*
X004460Y009260D03*
D13*
X010926Y009532D03*
X011910Y009532D03*
X012894Y009532D03*
X012894Y008288D03*
X011910Y008288D03*
X010926Y008288D03*
X010926Y005532D03*
X011910Y005532D03*
X012894Y005532D03*
X012894Y012288D03*
X011910Y012288D03*
X010926Y012288D03*
D14*
X015232Y000664D02*
X001688Y000664D01*
X001621Y000666D01*
X001554Y000672D01*
X001487Y000681D01*
X001421Y000694D01*
X001356Y000711D01*
X001292Y000731D01*
X001229Y000755D01*
X001167Y000783D01*
X001108Y000814D01*
X001050Y000848D01*
X000994Y000885D01*
X000940Y000926D01*
X000888Y000969D01*
X000839Y001015D01*
X000793Y001064D01*
X000750Y001116D01*
X000709Y001170D01*
X000672Y001226D01*
X000638Y001284D01*
X000607Y001343D01*
X000579Y001405D01*
X000555Y001468D01*
X000535Y001532D01*
X000518Y001597D01*
X000505Y001663D01*
X000496Y001730D01*
X000490Y001797D01*
X000488Y001864D01*
X000488Y012456D01*
X000490Y012523D01*
X000496Y012590D01*
X000505Y012657D01*
X000518Y012723D01*
X000535Y012788D01*
X000555Y012852D01*
X000579Y012915D01*
X000607Y012977D01*
X000638Y013036D01*
X000672Y013094D01*
X000709Y013150D01*
X000750Y013204D01*
X000793Y013256D01*
X000839Y013305D01*
X000888Y013351D01*
X000940Y013394D01*
X000994Y013435D01*
X001050Y013472D01*
X001108Y013506D01*
X001167Y013537D01*
X001229Y013565D01*
X001292Y013589D01*
X001356Y013609D01*
X001421Y013626D01*
X001487Y013639D01*
X001554Y013648D01*
X001621Y013654D01*
X001688Y013656D01*
X015232Y013656D01*
X015299Y013654D01*
X015366Y013648D01*
X015433Y013639D01*
X015499Y013626D01*
X015564Y013609D01*
X015628Y013589D01*
X015691Y013565D01*
X015753Y013537D01*
X015812Y013506D01*
X015870Y013472D01*
X015926Y013435D01*
X015980Y013394D01*
X016032Y013351D01*
X016081Y013305D01*
X016127Y013256D01*
X016170Y013204D01*
X016211Y013150D01*
X016248Y013094D01*
X016282Y013036D01*
X016313Y012977D01*
X016341Y012915D01*
X016365Y012852D01*
X016385Y012788D01*
X016402Y012723D01*
X016415Y012657D01*
X016424Y012590D01*
X016430Y012523D01*
X016432Y012456D01*
X016432Y001864D01*
X016430Y001797D01*
X016424Y001730D01*
X016415Y001663D01*
X016402Y001597D01*
X016385Y001532D01*
X016365Y001468D01*
X016341Y001405D01*
X016313Y001343D01*
X016282Y001284D01*
X016248Y001226D01*
X016211Y001170D01*
X016170Y001116D01*
X016127Y001064D01*
X016081Y001015D01*
X016032Y000969D01*
X015980Y000926D01*
X015926Y000885D01*
X015870Y000848D01*
X015812Y000814D01*
X015753Y000783D01*
X015691Y000755D01*
X015628Y000731D01*
X015564Y000711D01*
X015499Y000694D01*
X015433Y000681D01*
X015366Y000672D01*
X015299Y000666D01*
X015232Y000664D01*
D15*
X015460Y001848D03*
X014460Y001848D03*
X013460Y001848D03*
X012460Y001848D03*
X011460Y001848D03*
X010460Y001848D03*
X009460Y001848D03*
X008460Y001848D03*
X007460Y001848D03*
X006460Y001848D03*
X005460Y001848D03*
X004460Y001848D03*
X003460Y001848D03*
X002460Y001848D03*
X001460Y001848D03*
D16*
X000665Y001848D03*
X016255Y001848D03*
D17*
X014369Y012160D02*
X014371Y012208D01*
X014377Y012256D01*
X014387Y012303D01*
X014400Y012349D01*
X014418Y012394D01*
X014438Y012438D01*
X014463Y012480D01*
X014491Y012519D01*
X014521Y012556D01*
X014555Y012590D01*
X014592Y012622D01*
X014630Y012651D01*
X014671Y012676D01*
X014714Y012698D01*
X014759Y012716D01*
X014805Y012730D01*
X014852Y012741D01*
X014900Y012748D01*
X014948Y012751D01*
X014996Y012750D01*
X015044Y012745D01*
X015092Y012736D01*
X015138Y012724D01*
X015183Y012707D01*
X015227Y012687D01*
X015269Y012664D01*
X015309Y012637D01*
X015347Y012607D01*
X015382Y012574D01*
X015414Y012538D01*
X015444Y012500D01*
X015470Y012459D01*
X015492Y012416D01*
X015512Y012372D01*
X015527Y012327D01*
X015539Y012280D01*
X015547Y012232D01*
X015551Y012184D01*
X015551Y012136D01*
X015547Y012088D01*
X015539Y012040D01*
X015527Y011993D01*
X015512Y011948D01*
X015492Y011904D01*
X015470Y011861D01*
X015444Y011820D01*
X015414Y011782D01*
X015382Y011746D01*
X015347Y011713D01*
X015309Y011683D01*
X015269Y011656D01*
X015227Y011633D01*
X015183Y011613D01*
X015138Y011596D01*
X015092Y011584D01*
X015044Y011575D01*
X014996Y011570D01*
X014948Y011569D01*
X014900Y011572D01*
X014852Y011579D01*
X014805Y011590D01*
X014759Y011604D01*
X014714Y011622D01*
X014671Y011644D01*
X014630Y011669D01*
X014592Y011698D01*
X014555Y011730D01*
X014521Y011764D01*
X014491Y011801D01*
X014463Y011840D01*
X014438Y011882D01*
X014418Y011926D01*
X014400Y011971D01*
X014387Y012017D01*
X014377Y012064D01*
X014371Y012112D01*
X014369Y012160D01*
X003671Y009601D02*
X003677Y009553D01*
X003672Y009511D01*
X003660Y009470D01*
X003640Y009433D01*
X003613Y009400D01*
X003580Y009373D01*
X003543Y009353D01*
X003502Y009341D01*
X003460Y009336D01*
X003027Y009336D01*
X002985Y009341D01*
X002944Y009353D01*
X002907Y009373D01*
X002874Y009400D01*
X002847Y009433D01*
X002827Y009470D01*
X002815Y009511D01*
X002810Y009553D01*
X002816Y009601D01*
X002832Y009647D01*
X002858Y009688D01*
X002892Y009722D01*
X002933Y009748D01*
X002979Y009764D01*
X003027Y009769D01*
X003460Y009769D01*
X003508Y009764D01*
X003554Y009748D01*
X003595Y009722D01*
X003629Y009688D01*
X003655Y009647D01*
X003671Y009601D01*
X002909Y008998D02*
X002911Y009019D01*
X002917Y009039D01*
X002926Y009059D01*
X002938Y009076D01*
X002953Y009090D01*
X002971Y009102D01*
X002991Y009110D01*
X003011Y009115D01*
X003032Y009116D01*
X003053Y009113D01*
X003073Y009107D01*
X003092Y009096D01*
X003109Y009083D01*
X003122Y009067D01*
X003133Y009049D01*
X003141Y009029D01*
X003145Y009009D01*
X003145Y008987D01*
X003141Y008967D01*
X003133Y008947D01*
X003122Y008929D01*
X003109Y008913D01*
X003092Y008900D01*
X003073Y008889D01*
X003053Y008883D01*
X003032Y008880D01*
X003011Y008881D01*
X002991Y008886D01*
X002971Y008894D01*
X002953Y008906D01*
X002938Y008920D01*
X002926Y008937D01*
X002917Y008957D01*
X002911Y008977D01*
X002909Y008998D01*
X001964Y009468D02*
X001941Y009430D01*
X001910Y009399D01*
X001872Y009376D01*
X001831Y009361D01*
X001787Y009356D01*
X001393Y009356D01*
X001349Y009361D01*
X001308Y009376D01*
X001270Y009399D01*
X001239Y009430D01*
X001216Y009468D01*
X001201Y009509D01*
X001196Y009553D01*
X001201Y009597D01*
X001216Y009638D01*
X001239Y009676D01*
X001270Y009707D01*
X001308Y009730D01*
X001349Y009745D01*
X001393Y009750D01*
X001787Y009750D01*
X001831Y009745D01*
X001872Y009730D01*
X001910Y009707D01*
X001941Y009676D01*
X001964Y009638D01*
X001979Y009597D01*
X001984Y009553D01*
X001979Y009509D01*
X001964Y009468D01*
X001369Y012160D02*
X001371Y012208D01*
X001377Y012256D01*
X001387Y012303D01*
X001400Y012349D01*
X001418Y012394D01*
X001438Y012438D01*
X001463Y012480D01*
X001491Y012519D01*
X001521Y012556D01*
X001555Y012590D01*
X001592Y012622D01*
X001630Y012651D01*
X001671Y012676D01*
X001714Y012698D01*
X001759Y012716D01*
X001805Y012730D01*
X001852Y012741D01*
X001900Y012748D01*
X001948Y012751D01*
X001996Y012750D01*
X002044Y012745D01*
X002092Y012736D01*
X002138Y012724D01*
X002183Y012707D01*
X002227Y012687D01*
X002269Y012664D01*
X002309Y012637D01*
X002347Y012607D01*
X002382Y012574D01*
X002414Y012538D01*
X002444Y012500D01*
X002470Y012459D01*
X002492Y012416D01*
X002512Y012372D01*
X002527Y012327D01*
X002539Y012280D01*
X002547Y012232D01*
X002551Y012184D01*
X002551Y012136D01*
X002547Y012088D01*
X002539Y012040D01*
X002527Y011993D01*
X002512Y011948D01*
X002492Y011904D01*
X002470Y011861D01*
X002444Y011820D01*
X002414Y011782D01*
X002382Y011746D01*
X002347Y011713D01*
X002309Y011683D01*
X002269Y011656D01*
X002227Y011633D01*
X002183Y011613D01*
X002138Y011596D01*
X002092Y011584D01*
X002044Y011575D01*
X001996Y011570D01*
X001948Y011569D01*
X001900Y011572D01*
X001852Y011579D01*
X001805Y011590D01*
X001759Y011604D01*
X001714Y011622D01*
X001671Y011644D01*
X001630Y011669D01*
X001592Y011698D01*
X001555Y011730D01*
X001521Y011764D01*
X001491Y011801D01*
X001463Y011840D01*
X001438Y011882D01*
X001418Y011926D01*
X001400Y011971D01*
X001387Y012017D01*
X001377Y012064D01*
X001371Y012112D01*
X001369Y012160D01*
X002909Y006722D02*
X002911Y006743D01*
X002917Y006763D01*
X002926Y006783D01*
X002938Y006800D01*
X002953Y006814D01*
X002971Y006826D01*
X002991Y006834D01*
X003011Y006839D01*
X003032Y006840D01*
X003053Y006837D01*
X003073Y006831D01*
X003092Y006820D01*
X003109Y006807D01*
X003122Y006791D01*
X003133Y006773D01*
X003141Y006753D01*
X003145Y006733D01*
X003145Y006711D01*
X003141Y006691D01*
X003133Y006671D01*
X003122Y006653D01*
X003109Y006637D01*
X003092Y006624D01*
X003073Y006613D01*
X003053Y006607D01*
X003032Y006604D01*
X003011Y006605D01*
X002991Y006610D01*
X002971Y006618D01*
X002953Y006630D01*
X002938Y006644D01*
X002926Y006661D01*
X002917Y006681D01*
X002911Y006701D01*
X002909Y006722D01*
X002979Y006378D02*
X003027Y006384D01*
X003460Y006384D01*
X003508Y006378D01*
X003554Y006362D01*
X003595Y006336D01*
X003629Y006302D01*
X003655Y006261D01*
X003671Y006215D01*
X003677Y006167D01*
X003672Y006125D01*
X003660Y006084D01*
X003640Y006047D01*
X003613Y006014D01*
X003580Y005987D01*
X003543Y005967D01*
X003502Y005955D01*
X003460Y005951D01*
X003027Y005951D01*
X002985Y005955D01*
X002944Y005967D01*
X002907Y005987D01*
X002874Y006014D01*
X002847Y006047D01*
X002827Y006084D01*
X002815Y006125D01*
X002810Y006167D01*
X002816Y006215D01*
X002832Y006261D01*
X002858Y006302D01*
X002892Y006336D01*
X002933Y006362D01*
X002979Y006378D01*
X001979Y006211D02*
X001984Y006167D01*
X001979Y006123D01*
X001964Y006082D01*
X001941Y006044D01*
X001910Y006013D01*
X001872Y005990D01*
X001831Y005975D01*
X001787Y005970D01*
X001393Y005970D01*
X001349Y005975D01*
X001308Y005990D01*
X001270Y006013D01*
X001239Y006044D01*
X001216Y006082D01*
X001201Y006123D01*
X001196Y006167D01*
X001201Y006211D01*
X001216Y006252D01*
X001239Y006290D01*
X001270Y006321D01*
X001308Y006344D01*
X001349Y006359D01*
X001393Y006364D01*
X001787Y006364D01*
X001831Y006359D01*
X001872Y006344D01*
X001910Y006321D01*
X001941Y006290D01*
X001964Y006252D01*
X001979Y006211D01*
D18*
X006047Y006483D03*
X006303Y006483D03*
X006558Y006483D03*
X006814Y006483D03*
X007070Y006483D03*
X007326Y006483D03*
X007582Y006483D03*
X007838Y006483D03*
X008094Y006483D03*
X008350Y006483D03*
X008606Y006483D03*
X008862Y006483D03*
X009117Y006483D03*
X009373Y006483D03*
X009373Y009337D03*
X009117Y009337D03*
X008862Y009337D03*
X008606Y009337D03*
X008350Y009337D03*
X008094Y009337D03*
X007838Y009337D03*
X007582Y009337D03*
X007326Y009337D03*
X007070Y009337D03*
X006814Y009337D03*
X006558Y009337D03*
X006303Y009337D03*
X006047Y009337D03*
D19*
X003602Y009057D02*
X003278Y009057D01*
X003278Y009223D01*
X003602Y009223D01*
X003602Y009057D01*
X003602Y009127D02*
X003278Y009127D01*
X003278Y009197D02*
X003602Y009197D01*
X003602Y008722D02*
X003278Y008722D01*
X003278Y008888D01*
X003602Y008888D01*
X003602Y008722D01*
X003602Y008792D02*
X003278Y008792D01*
X003278Y008862D02*
X003602Y008862D01*
X003602Y006832D02*
X003278Y006832D01*
X003278Y006998D01*
X003602Y006998D01*
X003602Y006832D01*
X003602Y006902D02*
X003278Y006902D01*
X003278Y006972D02*
X003602Y006972D01*
X003602Y006517D02*
X003278Y006517D01*
X003278Y006683D01*
X003602Y006683D01*
X003602Y006517D01*
X003602Y006587D02*
X003278Y006587D01*
X003278Y006657D02*
X003602Y006657D01*
D20*
X003620Y007129D02*
X003260Y007129D01*
X003260Y007213D01*
X003620Y007213D01*
X003620Y007129D01*
X003620Y007163D02*
X003260Y007163D01*
X003260Y007197D02*
X003620Y007197D01*
X003620Y007326D02*
X003260Y007326D01*
X003260Y007410D01*
X003620Y007410D01*
X003620Y007326D01*
X003620Y007360D02*
X003260Y007360D01*
X003260Y007394D02*
X003620Y007394D01*
X003620Y007523D02*
X003260Y007523D01*
X003260Y007607D01*
X003620Y007607D01*
X003620Y007523D01*
X003620Y007557D02*
X003260Y007557D01*
X003260Y007591D02*
X003620Y007591D01*
X003620Y007720D02*
X003260Y007720D01*
X003260Y007804D01*
X003620Y007804D01*
X003620Y007720D01*
X003620Y007754D02*
X003260Y007754D01*
X003260Y007788D02*
X003620Y007788D01*
X003620Y007916D02*
X003260Y007916D01*
X003260Y008000D01*
X003620Y008000D01*
X003620Y007916D01*
X003620Y007950D02*
X003260Y007950D01*
X003260Y007984D02*
X003620Y007984D01*
X003620Y008113D02*
X003260Y008113D01*
X003260Y008197D01*
X003620Y008197D01*
X003620Y008113D01*
X003620Y008147D02*
X003260Y008147D01*
X003260Y008181D02*
X003620Y008181D01*
X003620Y008310D02*
X003260Y008310D01*
X003260Y008394D01*
X003620Y008394D01*
X003620Y008310D01*
X003620Y008344D02*
X003260Y008344D01*
X003260Y008378D02*
X003620Y008378D01*
X003620Y008507D02*
X003260Y008507D01*
X003260Y008591D01*
X003620Y008591D01*
X003620Y008507D01*
X003620Y008541D02*
X003260Y008541D01*
X003260Y008575D02*
X003620Y008575D01*
D21*
X003503Y009341D02*
X002984Y009341D01*
X002980Y009342D02*
X003507Y009342D01*
X003510Y009343D02*
X002977Y009343D01*
X002974Y009344D02*
X003513Y009344D01*
X003516Y009345D02*
X002970Y009345D01*
X002967Y009346D02*
X003520Y009346D01*
X003523Y009347D02*
X002964Y009347D01*
X002961Y009348D02*
X003526Y009348D01*
X003530Y009349D02*
X002957Y009349D01*
X002954Y009350D02*
X003533Y009350D01*
X003536Y009351D02*
X002951Y009351D01*
X002947Y009352D02*
X003540Y009352D01*
X003543Y009353D02*
X002944Y009353D01*
X002942Y009354D02*
X003545Y009354D01*
X003547Y009355D02*
X002940Y009355D01*
X002938Y009356D02*
X003548Y009356D01*
X003550Y009357D02*
X002937Y009357D01*
X002935Y009358D02*
X003552Y009358D01*
X003554Y009359D02*
X002933Y009359D01*
X002931Y009360D02*
X003556Y009360D01*
X003558Y009361D02*
X002929Y009361D01*
X002927Y009362D02*
X003560Y009362D01*
X003562Y009363D02*
X002925Y009363D01*
X002924Y009364D02*
X003563Y009364D01*
X003565Y009365D02*
X002922Y009365D01*
X002920Y009366D02*
X003567Y009366D01*
X003569Y009367D02*
X002918Y009367D01*
X002916Y009368D02*
X003571Y009368D01*
X003573Y009369D02*
X002914Y009369D01*
X002912Y009370D02*
X003575Y009370D01*
X003576Y009371D02*
X002910Y009371D01*
X002909Y009372D02*
X003578Y009372D01*
X003580Y009373D02*
X002907Y009373D01*
X002905Y009374D02*
X003581Y009374D01*
X003583Y009375D02*
X002904Y009375D01*
X002903Y009376D02*
X003584Y009376D01*
X003585Y009377D02*
X002902Y009377D01*
X002901Y009378D02*
X003586Y009378D01*
X003588Y009379D02*
X002899Y009379D01*
X002898Y009380D02*
X003589Y009380D01*
X003590Y009381D02*
X002897Y009381D01*
X002896Y009382D02*
X003591Y009382D01*
X003592Y009383D02*
X002895Y009383D01*
X002893Y009384D02*
X003594Y009384D01*
X003595Y009385D02*
X002892Y009385D01*
X002891Y009386D02*
X003596Y009386D01*
X003597Y009387D02*
X002890Y009387D01*
X002888Y009388D02*
X003598Y009388D01*
X003600Y009389D02*
X002887Y009389D01*
X002886Y009390D02*
X003601Y009390D01*
X003602Y009391D02*
X002885Y009391D01*
X002884Y009392D02*
X003603Y009392D01*
X003605Y009393D02*
X002882Y009393D01*
X002881Y009394D02*
X003606Y009394D01*
X003607Y009395D02*
X002880Y009395D01*
X002879Y009396D02*
X003608Y009396D01*
X003609Y009397D02*
X002877Y009397D01*
X002876Y009398D02*
X003611Y009398D01*
X003612Y009399D02*
X002875Y009399D01*
X002874Y009400D02*
X003613Y009400D01*
X003614Y009401D02*
X002873Y009401D01*
X002872Y009402D02*
X003615Y009402D01*
X003616Y009403D02*
X002871Y009403D01*
X002871Y009404D02*
X003616Y009404D01*
X003617Y009405D02*
X002870Y009405D01*
X002869Y009406D02*
X003618Y009406D01*
X003619Y009407D02*
X002868Y009407D01*
X002867Y009408D02*
X003620Y009408D01*
X003620Y009409D02*
X002866Y009409D01*
X002866Y009410D02*
X003621Y009410D01*
X003622Y009411D02*
X002865Y009411D01*
X002864Y009412D02*
X003623Y009412D01*
X003624Y009413D02*
X002863Y009413D01*
X002862Y009414D02*
X003625Y009414D01*
X003625Y009415D02*
X002862Y009415D01*
X002861Y009416D02*
X003626Y009416D01*
X003627Y009417D02*
X002860Y009417D01*
X002859Y009418D02*
X003628Y009418D01*
X003629Y009419D02*
X002858Y009419D01*
X002857Y009420D02*
X003630Y009420D01*
X003630Y009421D02*
X002857Y009421D01*
X002856Y009422D02*
X003631Y009422D01*
X003632Y009423D02*
X002855Y009423D01*
X002854Y009424D02*
X003633Y009424D01*
X003634Y009425D02*
X002853Y009425D01*
X002853Y009426D02*
X003634Y009426D01*
X003635Y009427D02*
X002852Y009427D01*
X002851Y009428D02*
X003636Y009428D01*
X003637Y009429D02*
X002850Y009429D01*
X002849Y009430D02*
X003638Y009430D01*
X003639Y009431D02*
X002848Y009431D01*
X002848Y009432D02*
X003639Y009432D01*
X003640Y009433D02*
X002847Y009433D01*
X002846Y009434D02*
X003641Y009434D01*
X003641Y009435D02*
X002846Y009435D01*
X002845Y009436D02*
X003642Y009436D01*
X003642Y009437D02*
X002845Y009437D01*
X002844Y009438D02*
X003643Y009438D01*
X003643Y009439D02*
X002844Y009439D01*
X002843Y009440D02*
X003644Y009440D01*
X003644Y009441D02*
X002843Y009441D01*
X002842Y009442D02*
X003645Y009442D01*
X003645Y009443D02*
X002841Y009443D01*
X002841Y009444D02*
X003646Y009444D01*
X003647Y009445D02*
X002840Y009445D01*
X002840Y009446D02*
X003647Y009446D01*
X003648Y009447D02*
X002839Y009447D01*
X002839Y009448D02*
X003648Y009448D01*
X003649Y009449D02*
X002838Y009449D01*
X002838Y009450D02*
X003649Y009450D01*
X003650Y009451D02*
X002837Y009451D01*
X002837Y009452D02*
X003650Y009452D01*
X003651Y009453D02*
X002836Y009453D01*
X002836Y009454D02*
X003651Y009454D01*
X003652Y009455D02*
X002835Y009455D01*
X002835Y009456D02*
X003652Y009456D01*
X003653Y009457D02*
X002834Y009457D01*
X002833Y009458D02*
X003653Y009458D01*
X003654Y009459D02*
X002833Y009459D01*
X002832Y009460D02*
X003655Y009460D01*
X003655Y009461D02*
X002832Y009461D01*
X002831Y009462D02*
X003656Y009462D01*
X003656Y009463D02*
X002831Y009463D01*
X002830Y009464D02*
X003657Y009464D01*
X003657Y009465D02*
X002830Y009465D01*
X002829Y009466D02*
X003658Y009466D01*
X003658Y009467D02*
X002829Y009467D01*
X002828Y009468D02*
X003659Y009468D01*
X003659Y009469D02*
X002828Y009469D01*
X002827Y009470D02*
X003660Y009470D01*
X003660Y009471D02*
X002827Y009471D01*
X002826Y009472D02*
X003661Y009472D01*
X003661Y009473D02*
X002826Y009473D01*
X002826Y009474D02*
X003661Y009474D01*
X003661Y009475D02*
X002825Y009475D01*
X002825Y009476D02*
X003662Y009476D01*
X003662Y009477D02*
X002825Y009477D01*
X002825Y009478D02*
X003662Y009478D01*
X003663Y009479D02*
X002824Y009479D01*
X002824Y009480D02*
X003663Y009480D01*
X003663Y009481D02*
X002824Y009481D01*
X002823Y009482D02*
X003664Y009482D01*
X003664Y009483D02*
X002823Y009483D01*
X002823Y009484D02*
X003664Y009484D01*
X003665Y009485D02*
X002822Y009485D01*
X002822Y009486D02*
X003665Y009486D01*
X003665Y009487D02*
X002822Y009487D01*
X002822Y009488D02*
X003665Y009488D01*
X003666Y009489D02*
X002821Y009489D01*
X002821Y009490D02*
X003666Y009490D01*
X003666Y009491D02*
X002821Y009491D01*
X002820Y009492D02*
X003667Y009492D01*
X003667Y009493D02*
X002820Y009493D01*
X002820Y009494D02*
X003667Y009494D01*
X003668Y009495D02*
X002819Y009495D01*
X002819Y009496D02*
X003668Y009496D01*
X003668Y009497D02*
X002819Y009497D01*
X002818Y009498D02*
X003668Y009498D01*
X003669Y009499D02*
X002818Y009499D01*
X002818Y009500D02*
X003669Y009500D01*
X003669Y009501D02*
X002818Y009501D01*
X002817Y009502D02*
X003670Y009502D01*
X003670Y009503D02*
X002817Y009503D01*
X002817Y009504D02*
X003670Y009504D01*
X003671Y009505D02*
X002816Y009505D01*
X002816Y009506D02*
X003671Y009506D01*
X003671Y009507D02*
X002816Y009507D01*
X002815Y009508D02*
X003671Y009508D01*
X003672Y009509D02*
X002815Y009509D01*
X002815Y009510D02*
X003672Y009510D01*
X003672Y009511D02*
X002815Y009511D01*
X002814Y009512D02*
X003672Y009512D01*
X003673Y009513D02*
X002814Y009513D01*
X002814Y009514D02*
X003673Y009514D01*
X003673Y009515D02*
X002814Y009515D01*
X002814Y009516D02*
X003673Y009516D01*
X003673Y009517D02*
X002814Y009517D01*
X002814Y009518D02*
X003673Y009518D01*
X003673Y009519D02*
X002814Y009519D01*
X002814Y009520D02*
X003673Y009520D01*
X003673Y009521D02*
X002814Y009521D01*
X002813Y009522D02*
X003673Y009522D01*
X003674Y009523D02*
X002813Y009523D01*
X002813Y009524D02*
X003674Y009524D01*
X003674Y009525D02*
X002813Y009525D01*
X002813Y009526D02*
X003674Y009526D01*
X003674Y009527D02*
X002813Y009527D01*
X002813Y009528D02*
X003674Y009528D01*
X003674Y009529D02*
X002813Y009529D01*
X002813Y009530D02*
X003674Y009530D01*
X003674Y009531D02*
X002813Y009531D01*
X002812Y009532D02*
X003674Y009532D01*
X003675Y009533D02*
X002812Y009533D01*
X002812Y009534D02*
X003675Y009534D01*
X003675Y009535D02*
X002812Y009535D01*
X002812Y009536D02*
X003675Y009536D01*
X003675Y009537D02*
X002812Y009537D01*
X002812Y009538D02*
X003675Y009538D01*
X003675Y009539D02*
X002812Y009539D01*
X002812Y009540D02*
X003675Y009540D01*
X003675Y009541D02*
X002812Y009541D01*
X002812Y009542D02*
X003675Y009542D01*
X003676Y009543D02*
X002811Y009543D01*
X002811Y009544D02*
X003676Y009544D01*
X003676Y009545D02*
X002811Y009545D01*
X002811Y009546D02*
X003676Y009546D01*
X003676Y009547D02*
X002811Y009547D01*
X002811Y009548D02*
X003676Y009548D01*
X003676Y009549D02*
X002811Y009549D01*
X002811Y009550D02*
X003676Y009550D01*
X003676Y009551D02*
X002811Y009551D01*
X002811Y009552D02*
X003676Y009552D01*
X003677Y009553D02*
X002810Y009553D01*
X002810Y009554D02*
X003676Y009554D01*
X003676Y009555D02*
X002811Y009555D01*
X002811Y009556D02*
X003676Y009556D01*
X003676Y009557D02*
X002811Y009557D01*
X002811Y009558D02*
X003676Y009558D01*
X003676Y009559D02*
X002811Y009559D01*
X002811Y009560D02*
X003676Y009560D01*
X003676Y009561D02*
X002811Y009561D01*
X002811Y009562D02*
X003676Y009562D01*
X003675Y009563D02*
X002811Y009563D01*
X002812Y009564D02*
X003675Y009564D01*
X003675Y009565D02*
X002812Y009565D01*
X002812Y009566D02*
X003675Y009566D01*
X003675Y009567D02*
X002812Y009567D01*
X002812Y009568D02*
X003675Y009568D01*
X003675Y009569D02*
X002812Y009569D01*
X002812Y009570D02*
X003675Y009570D01*
X003675Y009571D02*
X002812Y009571D01*
X002813Y009572D02*
X003674Y009572D01*
X003674Y009573D02*
X002813Y009573D01*
X002813Y009574D02*
X003674Y009574D01*
X003674Y009575D02*
X002813Y009575D01*
X002813Y009576D02*
X003674Y009576D01*
X003674Y009577D02*
X002813Y009577D01*
X002813Y009578D02*
X003674Y009578D01*
X003674Y009579D02*
X002813Y009579D01*
X002813Y009580D02*
X003674Y009580D01*
X003673Y009581D02*
X002814Y009581D01*
X002814Y009582D02*
X003673Y009582D01*
X003673Y009583D02*
X002814Y009583D01*
X002814Y009584D02*
X003673Y009584D01*
X003673Y009585D02*
X002814Y009585D01*
X002814Y009586D02*
X003673Y009586D01*
X003673Y009587D02*
X002814Y009587D01*
X002814Y009588D02*
X003673Y009588D01*
X003673Y009589D02*
X002814Y009589D01*
X002815Y009590D02*
X003672Y009590D01*
X003672Y009591D02*
X002815Y009591D01*
X002815Y009592D02*
X003672Y009592D01*
X003672Y009593D02*
X002815Y009593D01*
X002815Y009594D02*
X003672Y009594D01*
X003672Y009595D02*
X002815Y009595D01*
X002815Y009596D02*
X003672Y009596D01*
X003672Y009597D02*
X002815Y009597D01*
X002815Y009598D02*
X003671Y009598D01*
X003671Y009599D02*
X002816Y009599D01*
X002816Y009600D02*
X003671Y009600D01*
X003671Y009601D02*
X002816Y009601D01*
X002816Y009602D02*
X003671Y009602D01*
X003671Y009603D02*
X002816Y009603D01*
X002817Y009604D02*
X003670Y009604D01*
X003670Y009605D02*
X002817Y009605D01*
X002817Y009606D02*
X003670Y009606D01*
X003669Y009607D02*
X002818Y009607D01*
X002818Y009608D02*
X003669Y009608D01*
X003668Y009609D02*
X002818Y009609D01*
X002819Y009610D02*
X003668Y009610D01*
X003668Y009611D02*
X002819Y009611D01*
X002819Y009612D02*
X003667Y009612D01*
X003667Y009613D02*
X002820Y009613D01*
X002820Y009614D02*
X003667Y009614D01*
X003666Y009615D02*
X002821Y009615D01*
X002821Y009616D02*
X003666Y009616D01*
X003666Y009617D02*
X002821Y009617D01*
X002822Y009618D02*
X003665Y009618D01*
X003665Y009619D02*
X002822Y009619D01*
X002822Y009620D02*
X003665Y009620D01*
X003664Y009621D02*
X002823Y009621D01*
X002823Y009622D02*
X003664Y009622D01*
X003664Y009623D02*
X002823Y009623D01*
X002824Y009624D02*
X003663Y009624D01*
X003663Y009625D02*
X002824Y009625D01*
X002824Y009626D02*
X003663Y009626D01*
X003662Y009627D02*
X002825Y009627D01*
X002825Y009628D02*
X003662Y009628D01*
X003661Y009629D02*
X002825Y009629D01*
X002826Y009630D02*
X003661Y009630D01*
X003661Y009631D02*
X002826Y009631D01*
X002826Y009632D02*
X003660Y009632D01*
X003660Y009633D02*
X002827Y009633D01*
X002827Y009634D02*
X003660Y009634D01*
X003659Y009635D02*
X002828Y009635D01*
X002828Y009636D02*
X003659Y009636D01*
X003659Y009637D02*
X002828Y009637D01*
X002829Y009638D02*
X003658Y009638D01*
X003658Y009639D02*
X002829Y009639D01*
X002829Y009640D02*
X003658Y009640D01*
X003657Y009641D02*
X002830Y009641D01*
X002830Y009642D02*
X003657Y009642D01*
X003657Y009643D02*
X002830Y009643D01*
X002831Y009644D02*
X003656Y009644D01*
X003656Y009645D02*
X002831Y009645D01*
X002831Y009646D02*
X003656Y009646D01*
X003655Y009647D02*
X002832Y009647D01*
X002832Y009648D02*
X003655Y009648D01*
X003654Y009649D02*
X002833Y009649D01*
X002834Y009650D02*
X003653Y009650D01*
X003653Y009651D02*
X002834Y009651D01*
X002835Y009652D02*
X003652Y009652D01*
X003652Y009653D02*
X002835Y009653D01*
X002836Y009654D02*
X003651Y009654D01*
X003650Y009655D02*
X002837Y009655D01*
X002837Y009656D02*
X003650Y009656D01*
X003649Y009657D02*
X002838Y009657D01*
X002839Y009658D02*
X003648Y009658D01*
X003648Y009659D02*
X002839Y009659D01*
X002840Y009660D02*
X003647Y009660D01*
X003647Y009661D02*
X002840Y009661D01*
X002841Y009662D02*
X003646Y009662D01*
X003645Y009663D02*
X002842Y009663D01*
X002842Y009664D02*
X003645Y009664D01*
X003644Y009665D02*
X002843Y009665D01*
X002844Y009666D02*
X003643Y009666D01*
X003643Y009667D02*
X002844Y009667D01*
X002845Y009668D02*
X003642Y009668D01*
X003641Y009669D02*
X002845Y009669D01*
X002846Y009670D02*
X003641Y009670D01*
X003640Y009671D02*
X002847Y009671D01*
X002847Y009672D02*
X003640Y009672D01*
X003639Y009673D02*
X002848Y009673D01*
X002849Y009674D02*
X003638Y009674D01*
X003638Y009675D02*
X002849Y009675D01*
X002850Y009676D02*
X003637Y009676D01*
X003636Y009677D02*
X002850Y009677D01*
X002851Y009678D02*
X003636Y009678D01*
X003635Y009679D02*
X002852Y009679D01*
X002852Y009680D02*
X003635Y009680D01*
X003634Y009681D02*
X002853Y009681D01*
X002854Y009682D02*
X003633Y009682D01*
X003633Y009683D02*
X002854Y009683D01*
X002855Y009684D02*
X003632Y009684D01*
X003631Y009685D02*
X002855Y009685D01*
X002856Y009686D02*
X003631Y009686D01*
X003630Y009687D02*
X002857Y009687D01*
X002857Y009688D02*
X003630Y009688D01*
X003629Y009689D02*
X002858Y009689D01*
X002859Y009690D02*
X003628Y009690D01*
X003627Y009691D02*
X002860Y009691D01*
X002861Y009692D02*
X003626Y009692D01*
X003625Y009693D02*
X002862Y009693D01*
X002863Y009694D02*
X003624Y009694D01*
X003623Y009695D02*
X002864Y009695D01*
X002865Y009696D02*
X003622Y009696D01*
X003621Y009697D02*
X002866Y009697D01*
X002867Y009698D02*
X003620Y009698D01*
X003619Y009698D02*
X002868Y009698D01*
X002869Y009699D02*
X003618Y009699D01*
X003617Y009700D02*
X002870Y009700D01*
X002871Y009701D02*
X003616Y009701D01*
X003615Y009702D02*
X002872Y009702D01*
X002873Y009703D02*
X003614Y009703D01*
X003613Y009704D02*
X002874Y009704D01*
X002875Y009705D02*
X003612Y009705D01*
X003611Y009706D02*
X002876Y009706D01*
X002877Y009707D02*
X003610Y009707D01*
X003609Y009708D02*
X002878Y009708D01*
X002879Y009709D02*
X003608Y009709D01*
X003607Y009710D02*
X002880Y009710D01*
X002881Y009711D02*
X003606Y009711D01*
X003605Y009712D02*
X002882Y009712D01*
X002883Y009713D02*
X003604Y009713D01*
X003603Y009714D02*
X002884Y009714D01*
X002885Y009715D02*
X003602Y009715D01*
X003601Y009716D02*
X002886Y009716D01*
X002887Y009717D02*
X003600Y009717D01*
X003599Y009718D02*
X002888Y009718D01*
X002889Y009719D02*
X003598Y009719D01*
X003597Y009720D02*
X002890Y009720D01*
X002891Y009721D02*
X003596Y009721D01*
X003595Y009722D02*
X002892Y009722D01*
X002894Y009723D02*
X003593Y009723D01*
X003591Y009724D02*
X002896Y009724D01*
X002897Y009725D02*
X003590Y009725D01*
X003588Y009726D02*
X002899Y009726D01*
X002900Y009727D02*
X003587Y009727D01*
X003585Y009728D02*
X002902Y009728D01*
X002903Y009729D02*
X003583Y009729D01*
X003582Y009730D02*
X002905Y009730D01*
X002907Y009731D02*
X003580Y009731D01*
X003579Y009732D02*
X002908Y009732D01*
X002910Y009733D02*
X003577Y009733D01*
X003576Y009734D02*
X002911Y009734D01*
X002913Y009735D02*
X003574Y009735D01*
X003572Y009736D02*
X002915Y009736D01*
X002916Y009737D02*
X003571Y009737D01*
X003569Y009738D02*
X002918Y009738D01*
X002919Y009739D02*
X003568Y009739D01*
X003566Y009740D02*
X002921Y009740D01*
X002923Y009741D02*
X003564Y009741D01*
X003563Y009742D02*
X002924Y009742D01*
X002926Y009743D02*
X003561Y009743D01*
X003560Y009744D02*
X002927Y009744D01*
X002929Y009745D02*
X003558Y009745D01*
X003556Y009746D02*
X002931Y009746D01*
X002932Y009747D02*
X003555Y009747D01*
X003553Y009748D02*
X002934Y009748D01*
X002937Y009749D02*
X003550Y009749D01*
X003547Y009750D02*
X002940Y009750D01*
X002943Y009751D02*
X003544Y009751D01*
X003541Y009752D02*
X002946Y009752D01*
X002949Y009753D02*
X003538Y009753D01*
X003536Y009754D02*
X002951Y009754D01*
X002954Y009755D02*
X003533Y009755D01*
X003530Y009756D02*
X002957Y009756D01*
X002960Y009757D02*
X003527Y009757D01*
X003524Y009758D02*
X002963Y009758D01*
X002966Y009759D02*
X003521Y009759D01*
X003518Y009760D02*
X002969Y009760D01*
X002971Y009761D02*
X003516Y009761D01*
X003513Y009762D02*
X002974Y009762D01*
X002977Y009763D02*
X003510Y009763D01*
X003505Y009764D02*
X002982Y009764D01*
X002991Y009765D02*
X003496Y009765D01*
X003487Y009766D02*
X003000Y009766D01*
X003009Y009767D02*
X003478Y009767D01*
X003469Y009768D02*
X003018Y009768D01*
X003027Y009769D02*
X003460Y009769D01*
X003495Y009340D02*
X002992Y009340D01*
X003002Y009339D02*
X003485Y009339D01*
X003475Y009338D02*
X003012Y009338D01*
X003022Y009337D02*
X003465Y009337D01*
X001979Y009510D02*
X001201Y009510D01*
X001201Y009511D02*
X001979Y009511D01*
X001979Y009512D02*
X001201Y009512D01*
X001201Y009513D02*
X001979Y009513D01*
X001979Y009514D02*
X001201Y009514D01*
X001201Y009515D02*
X001979Y009515D01*
X001979Y009516D02*
X001200Y009516D01*
X001200Y009517D02*
X001980Y009517D01*
X001980Y009518D02*
X001200Y009518D01*
X001200Y009519D02*
X001980Y009519D01*
X001980Y009520D02*
X001200Y009520D01*
X001200Y009521D02*
X001980Y009521D01*
X001980Y009522D02*
X001200Y009522D01*
X001200Y009523D02*
X001980Y009523D01*
X001980Y009524D02*
X001200Y009524D01*
X001199Y009525D02*
X001980Y009525D01*
X001981Y009526D02*
X001199Y009526D01*
X001199Y009527D02*
X001981Y009527D01*
X001981Y009528D02*
X001199Y009528D01*
X001199Y009529D02*
X001981Y009529D01*
X001981Y009530D02*
X001199Y009530D01*
X001199Y009531D02*
X001981Y009531D01*
X001981Y009532D02*
X001199Y009532D01*
X001199Y009533D02*
X001981Y009533D01*
X001981Y009534D02*
X001198Y009534D01*
X001198Y009535D02*
X001982Y009535D01*
X001982Y009536D02*
X001198Y009536D01*
X001198Y009537D02*
X001982Y009537D01*
X001982Y009538D02*
X001198Y009538D01*
X001198Y009539D02*
X001982Y009539D01*
X001982Y009540D02*
X001198Y009540D01*
X001198Y009541D02*
X001982Y009541D01*
X001982Y009542D02*
X001197Y009542D01*
X001197Y009543D02*
X001982Y009543D01*
X001983Y009544D02*
X001197Y009544D01*
X001197Y009545D02*
X001983Y009545D01*
X001983Y009546D02*
X001197Y009546D01*
X001197Y009547D02*
X001983Y009547D01*
X001983Y009548D02*
X001197Y009548D01*
X001197Y009549D02*
X001983Y009549D01*
X001983Y009550D02*
X001197Y009550D01*
X001196Y009551D02*
X001983Y009551D01*
X001983Y009552D02*
X001196Y009552D01*
X001196Y009553D02*
X001984Y009553D01*
X001984Y009554D02*
X001196Y009554D01*
X001196Y009555D02*
X001983Y009555D01*
X001983Y009556D02*
X001197Y009556D01*
X001197Y009557D02*
X001983Y009557D01*
X001983Y009558D02*
X001197Y009558D01*
X001197Y009559D02*
X001983Y009559D01*
X001983Y009560D02*
X001197Y009560D01*
X001197Y009561D02*
X001983Y009561D01*
X001983Y009562D02*
X001197Y009562D01*
X001197Y009563D02*
X001983Y009563D01*
X001982Y009564D02*
X001197Y009564D01*
X001198Y009565D02*
X001982Y009565D01*
X001982Y009566D02*
X001198Y009566D01*
X001198Y009567D02*
X001982Y009567D01*
X001982Y009568D02*
X001198Y009568D01*
X001198Y009569D02*
X001982Y009569D01*
X001982Y009570D02*
X001198Y009570D01*
X001198Y009571D02*
X001982Y009571D01*
X001982Y009572D02*
X001198Y009572D01*
X001198Y009573D02*
X001981Y009573D01*
X001981Y009574D02*
X001199Y009574D01*
X001199Y009575D02*
X001981Y009575D01*
X001981Y009576D02*
X001199Y009576D01*
X001199Y009577D02*
X001981Y009577D01*
X001981Y009578D02*
X001199Y009578D01*
X001199Y009579D02*
X001981Y009579D01*
X001981Y009580D02*
X001199Y009580D01*
X001199Y009581D02*
X001980Y009581D01*
X001980Y009582D02*
X001199Y009582D01*
X001200Y009583D02*
X001980Y009583D01*
X001980Y009584D02*
X001200Y009584D01*
X001200Y009585D02*
X001980Y009585D01*
X001980Y009586D02*
X001200Y009586D01*
X001200Y009587D02*
X001980Y009587D01*
X001980Y009588D02*
X001200Y009588D01*
X001200Y009589D02*
X001980Y009589D01*
X001979Y009590D02*
X001200Y009590D01*
X001200Y009591D02*
X001979Y009591D01*
X001979Y009592D02*
X001201Y009592D01*
X001201Y009593D02*
X001979Y009593D01*
X001979Y009594D02*
X001201Y009594D01*
X001201Y009595D02*
X001979Y009595D01*
X001979Y009596D02*
X001201Y009596D01*
X001201Y009597D02*
X001979Y009597D01*
X001978Y009598D02*
X001201Y009598D01*
X001202Y009599D02*
X001978Y009599D01*
X001978Y009600D02*
X001202Y009600D01*
X001203Y009601D02*
X001977Y009601D01*
X001977Y009602D02*
X001203Y009602D01*
X001203Y009603D02*
X001977Y009603D01*
X001976Y009604D02*
X001204Y009604D01*
X001204Y009605D02*
X001976Y009605D01*
X001976Y009606D02*
X001204Y009606D01*
X001205Y009607D02*
X001975Y009607D01*
X001975Y009608D02*
X001205Y009608D01*
X001205Y009609D02*
X001975Y009609D01*
X001974Y009610D02*
X001206Y009610D01*
X001206Y009611D02*
X001974Y009611D01*
X001973Y009612D02*
X001206Y009612D01*
X001207Y009613D02*
X001973Y009613D01*
X001973Y009614D02*
X001207Y009614D01*
X001207Y009615D02*
X001972Y009615D01*
X001972Y009616D02*
X001208Y009616D01*
X001208Y009617D02*
X001972Y009617D01*
X001971Y009618D02*
X001208Y009618D01*
X001209Y009619D02*
X001971Y009619D01*
X001971Y009620D02*
X001209Y009620D01*
X001210Y009621D02*
X001970Y009621D01*
X001970Y009622D02*
X001210Y009622D01*
X001210Y009623D02*
X001970Y009623D01*
X001969Y009624D02*
X001211Y009624D01*
X001211Y009625D02*
X001969Y009625D01*
X001969Y009626D02*
X001211Y009626D01*
X001212Y009627D02*
X001968Y009627D01*
X001968Y009628D02*
X001212Y009628D01*
X001212Y009629D02*
X001968Y009629D01*
X001967Y009630D02*
X001213Y009630D01*
X001213Y009631D02*
X001967Y009631D01*
X001966Y009632D02*
X001213Y009632D01*
X001214Y009633D02*
X001966Y009633D01*
X001966Y009634D02*
X001214Y009634D01*
X001214Y009635D02*
X001965Y009635D01*
X001965Y009636D02*
X001215Y009636D01*
X001215Y009637D02*
X001965Y009637D01*
X001964Y009638D02*
X001215Y009638D01*
X001216Y009639D02*
X001964Y009639D01*
X001963Y009640D02*
X001216Y009640D01*
X001217Y009641D02*
X001963Y009641D01*
X001962Y009642D02*
X001218Y009642D01*
X001218Y009643D02*
X001961Y009643D01*
X001961Y009644D02*
X001219Y009644D01*
X001220Y009645D02*
X001960Y009645D01*
X001960Y009646D02*
X001220Y009646D01*
X001221Y009647D02*
X001959Y009647D01*
X001958Y009648D02*
X001222Y009648D01*
X001222Y009649D02*
X001958Y009649D01*
X001957Y009650D02*
X001223Y009650D01*
X001223Y009651D02*
X001956Y009651D01*
X001956Y009652D02*
X001224Y009652D01*
X001225Y009653D02*
X001955Y009653D01*
X001955Y009654D02*
X001225Y009654D01*
X001226Y009655D02*
X001954Y009655D01*
X001953Y009656D02*
X001227Y009656D01*
X001227Y009657D02*
X001953Y009657D01*
X001952Y009658D02*
X001228Y009658D01*
X001228Y009659D02*
X001951Y009659D01*
X001951Y009660D02*
X001229Y009660D01*
X001230Y009661D02*
X001950Y009661D01*
X001950Y009662D02*
X001230Y009662D01*
X001231Y009663D02*
X001949Y009663D01*
X001948Y009664D02*
X001232Y009664D01*
X001232Y009665D02*
X001948Y009665D01*
X001947Y009666D02*
X001233Y009666D01*
X001233Y009667D02*
X001946Y009667D01*
X001946Y009668D02*
X001234Y009668D01*
X001235Y009669D02*
X001945Y009669D01*
X001945Y009670D02*
X001235Y009670D01*
X001236Y009671D02*
X001944Y009671D01*
X001943Y009672D02*
X001237Y009672D01*
X001237Y009673D02*
X001943Y009673D01*
X001942Y009674D02*
X001238Y009674D01*
X001238Y009675D02*
X001941Y009675D01*
X001941Y009676D02*
X001239Y009676D01*
X001240Y009677D02*
X001940Y009677D01*
X001939Y009678D02*
X001241Y009678D01*
X001242Y009679D02*
X001938Y009679D01*
X001937Y009680D02*
X001243Y009680D01*
X001244Y009681D02*
X001936Y009681D01*
X001935Y009682D02*
X001245Y009682D01*
X001246Y009683D02*
X001934Y009683D01*
X001933Y009684D02*
X001247Y009684D01*
X001248Y009685D02*
X001932Y009685D01*
X001931Y009686D02*
X001249Y009686D01*
X001250Y009687D02*
X001930Y009687D01*
X001929Y009688D02*
X001251Y009688D01*
X001252Y009689D02*
X001928Y009689D01*
X001927Y009690D02*
X001253Y009690D01*
X001254Y009691D02*
X001926Y009691D01*
X001925Y009692D02*
X001255Y009692D01*
X001256Y009693D02*
X001924Y009693D01*
X001923Y009694D02*
X001257Y009694D01*
X001258Y009695D02*
X001922Y009695D01*
X001921Y009696D02*
X001259Y009696D01*
X001260Y009697D02*
X001920Y009697D01*
X001919Y009698D02*
X001261Y009698D01*
X001262Y009698D02*
X001918Y009698D01*
X001917Y009699D02*
X001263Y009699D01*
X001264Y009700D02*
X001916Y009700D01*
X001915Y009701D02*
X001265Y009701D01*
X001266Y009702D02*
X001914Y009702D01*
X001913Y009703D02*
X001267Y009703D01*
X001268Y009704D02*
X001912Y009704D01*
X001911Y009705D02*
X001269Y009705D01*
X001270Y009706D02*
X001910Y009706D01*
X001908Y009707D02*
X001271Y009707D01*
X001273Y009708D02*
X001907Y009708D01*
X001905Y009709D02*
X001275Y009709D01*
X001276Y009710D02*
X001904Y009710D01*
X001902Y009711D02*
X001278Y009711D01*
X001279Y009712D02*
X001900Y009712D01*
X001899Y009713D02*
X001281Y009713D01*
X001283Y009714D02*
X001897Y009714D01*
X001896Y009715D02*
X001284Y009715D01*
X001286Y009716D02*
X001894Y009716D01*
X001893Y009717D02*
X001287Y009717D01*
X001289Y009718D02*
X001891Y009718D01*
X001889Y009719D02*
X001290Y009719D01*
X001292Y009720D02*
X001888Y009720D01*
X001886Y009721D02*
X001294Y009721D01*
X001295Y009722D02*
X001885Y009722D01*
X001883Y009723D02*
X001297Y009723D01*
X001298Y009724D02*
X001881Y009724D01*
X001880Y009725D02*
X001300Y009725D01*
X001302Y009726D02*
X001878Y009726D01*
X001877Y009727D02*
X001303Y009727D01*
X001305Y009728D02*
X001875Y009728D01*
X001873Y009729D02*
X001306Y009729D01*
X001308Y009730D02*
X001872Y009730D01*
X001869Y009731D02*
X001311Y009731D01*
X001314Y009732D02*
X001866Y009732D01*
X001863Y009733D02*
X001317Y009733D01*
X001320Y009734D02*
X001860Y009734D01*
X001857Y009735D02*
X001323Y009735D01*
X001325Y009736D02*
X001854Y009736D01*
X001852Y009737D02*
X001328Y009737D01*
X001331Y009738D02*
X001849Y009738D01*
X001846Y009739D02*
X001334Y009739D01*
X001337Y009740D02*
X001843Y009740D01*
X001840Y009741D02*
X001340Y009741D01*
X001342Y009742D02*
X001837Y009742D01*
X001834Y009743D02*
X001345Y009743D01*
X001348Y009744D02*
X001832Y009744D01*
X001825Y009745D02*
X001355Y009745D01*
X001364Y009746D02*
X001816Y009746D01*
X001807Y009747D02*
X001373Y009747D01*
X001381Y009748D02*
X001798Y009748D01*
X001790Y009749D02*
X001390Y009749D01*
X001201Y009509D02*
X001979Y009509D01*
X001978Y009508D02*
X001202Y009508D01*
X001202Y009507D02*
X001978Y009507D01*
X001977Y009506D02*
X001202Y009506D01*
X001203Y009505D02*
X001977Y009505D01*
X001977Y009504D02*
X001203Y009504D01*
X001203Y009503D02*
X001976Y009503D01*
X001976Y009502D02*
X001204Y009502D01*
X001204Y009501D02*
X001976Y009501D01*
X001975Y009500D02*
X001204Y009500D01*
X001205Y009499D02*
X001975Y009499D01*
X001975Y009498D02*
X001205Y009498D01*
X001206Y009497D02*
X001974Y009497D01*
X001974Y009496D02*
X001206Y009496D01*
X001206Y009495D02*
X001974Y009495D01*
X001973Y009494D02*
X001207Y009494D01*
X001207Y009493D02*
X001973Y009493D01*
X001973Y009492D02*
X001207Y009492D01*
X001208Y009491D02*
X001972Y009491D01*
X001972Y009490D02*
X001208Y009490D01*
X001208Y009489D02*
X001972Y009489D01*
X001971Y009488D02*
X001209Y009488D01*
X001209Y009487D02*
X001971Y009487D01*
X001970Y009486D02*
X001209Y009486D01*
X001210Y009485D02*
X001970Y009485D01*
X001970Y009484D02*
X001210Y009484D01*
X001210Y009483D02*
X001969Y009483D01*
X001969Y009482D02*
X001211Y009482D01*
X001211Y009481D02*
X001969Y009481D01*
X001968Y009480D02*
X001211Y009480D01*
X001212Y009479D02*
X001968Y009479D01*
X001968Y009478D02*
X001212Y009478D01*
X001212Y009477D02*
X001967Y009477D01*
X001967Y009476D02*
X001213Y009476D01*
X001213Y009475D02*
X001967Y009475D01*
X001966Y009474D02*
X001214Y009474D01*
X001214Y009473D02*
X001966Y009473D01*
X001966Y009472D02*
X001214Y009472D01*
X001215Y009471D02*
X001965Y009471D01*
X001965Y009470D02*
X001215Y009470D01*
X001215Y009469D02*
X001965Y009469D01*
X001964Y009468D02*
X001216Y009468D01*
X001216Y009467D02*
X001964Y009467D01*
X001963Y009466D02*
X001217Y009466D01*
X001217Y009465D02*
X001962Y009465D01*
X001962Y009464D02*
X001218Y009464D01*
X001219Y009463D02*
X001961Y009463D01*
X001961Y009462D02*
X001219Y009462D01*
X001220Y009461D02*
X001960Y009461D01*
X001959Y009460D02*
X001221Y009460D01*
X001221Y009459D02*
X001959Y009459D01*
X001958Y009458D02*
X001222Y009458D01*
X001222Y009457D02*
X001957Y009457D01*
X001957Y009456D02*
X001223Y009456D01*
X001224Y009455D02*
X001956Y009455D01*
X001955Y009454D02*
X001224Y009454D01*
X001225Y009453D02*
X001955Y009453D01*
X001954Y009452D02*
X001226Y009452D01*
X001226Y009451D02*
X001954Y009451D01*
X001953Y009450D02*
X001227Y009450D01*
X001228Y009449D02*
X001952Y009449D01*
X001952Y009448D02*
X001228Y009448D01*
X001229Y009447D02*
X001951Y009447D01*
X001950Y009446D02*
X001229Y009446D01*
X001230Y009445D02*
X001950Y009445D01*
X001949Y009444D02*
X001231Y009444D01*
X001231Y009443D02*
X001949Y009443D01*
X001948Y009442D02*
X001232Y009442D01*
X001233Y009441D02*
X001947Y009441D01*
X001947Y009440D02*
X001233Y009440D01*
X001234Y009439D02*
X001946Y009439D01*
X001945Y009438D02*
X001234Y009438D01*
X001235Y009437D02*
X001945Y009437D01*
X001944Y009436D02*
X001236Y009436D01*
X001236Y009435D02*
X001944Y009435D01*
X001943Y009434D02*
X001237Y009434D01*
X001238Y009433D02*
X001942Y009433D01*
X001942Y009432D02*
X001238Y009432D01*
X001239Y009431D02*
X001941Y009431D01*
X001940Y009430D02*
X001240Y009430D01*
X001241Y009429D02*
X001939Y009429D01*
X001938Y009428D02*
X001242Y009428D01*
X001243Y009427D02*
X001937Y009427D01*
X001936Y009426D02*
X001244Y009426D01*
X001245Y009425D02*
X001935Y009425D01*
X001934Y009424D02*
X001246Y009424D01*
X001247Y009423D02*
X001933Y009423D01*
X001932Y009422D02*
X001248Y009422D01*
X001249Y009421D02*
X001931Y009421D01*
X001930Y009420D02*
X001250Y009420D01*
X001251Y009419D02*
X001929Y009419D01*
X001928Y009418D02*
X001252Y009418D01*
X001253Y009417D02*
X001927Y009417D01*
X001926Y009416D02*
X001254Y009416D01*
X001255Y009415D02*
X001925Y009415D01*
X001924Y009414D02*
X001256Y009414D01*
X001257Y009413D02*
X001923Y009413D01*
X001922Y009412D02*
X001258Y009412D01*
X001259Y009411D02*
X001921Y009411D01*
X001920Y009410D02*
X001260Y009410D01*
X001261Y009409D02*
X001919Y009409D01*
X001918Y009408D02*
X001262Y009408D01*
X001263Y009407D02*
X001917Y009407D01*
X001916Y009406D02*
X001264Y009406D01*
X001265Y009405D02*
X001915Y009405D01*
X001914Y009404D02*
X001266Y009404D01*
X001267Y009403D02*
X001913Y009403D01*
X001912Y009402D02*
X001268Y009402D01*
X001269Y009401D02*
X001911Y009401D01*
X001910Y009400D02*
X001270Y009400D01*
X001271Y009399D02*
X001909Y009399D01*
X001908Y009398D02*
X001272Y009398D01*
X001274Y009397D02*
X001906Y009397D01*
X001904Y009396D02*
X001275Y009396D01*
X001277Y009395D02*
X001903Y009395D01*
X001901Y009394D02*
X001279Y009394D01*
X001280Y009393D02*
X001900Y009393D01*
X001898Y009392D02*
X001282Y009392D01*
X001283Y009391D02*
X001896Y009391D01*
X001895Y009390D02*
X001285Y009390D01*
X001287Y009389D02*
X001893Y009389D01*
X001892Y009388D02*
X001288Y009388D01*
X001290Y009387D02*
X001890Y009387D01*
X001888Y009386D02*
X001291Y009386D01*
X001293Y009385D02*
X001887Y009385D01*
X001885Y009384D02*
X001295Y009384D01*
X001296Y009383D02*
X001884Y009383D01*
X001882Y009382D02*
X001298Y009382D01*
X001299Y009381D02*
X001881Y009381D01*
X001879Y009380D02*
X001301Y009380D01*
X001302Y009379D02*
X001877Y009379D01*
X001876Y009378D02*
X001304Y009378D01*
X001306Y009377D02*
X001874Y009377D01*
X001873Y009376D02*
X001307Y009376D01*
X001310Y009375D02*
X001870Y009375D01*
X001867Y009374D02*
X001313Y009374D01*
X001315Y009373D02*
X001864Y009373D01*
X001862Y009372D02*
X001318Y009372D01*
X001321Y009371D02*
X001859Y009371D01*
X001856Y009370D02*
X001324Y009370D01*
X001327Y009369D02*
X001853Y009369D01*
X001850Y009368D02*
X001330Y009368D01*
X001333Y009367D02*
X001847Y009367D01*
X001844Y009366D02*
X001335Y009366D01*
X001338Y009365D02*
X001842Y009365D01*
X001839Y009364D02*
X001341Y009364D01*
X001344Y009363D02*
X001836Y009363D01*
X001833Y009362D02*
X001347Y009362D01*
X001351Y009361D02*
X001829Y009361D01*
X001820Y009360D02*
X001360Y009360D01*
X001368Y009359D02*
X001811Y009359D01*
X001802Y009358D02*
X001377Y009358D01*
X001386Y009357D02*
X001794Y009357D01*
X002955Y006370D02*
X003532Y006370D01*
X003529Y006371D02*
X002958Y006371D01*
X002960Y006372D02*
X003527Y006372D01*
X003524Y006373D02*
X002963Y006373D01*
X002966Y006374D02*
X003521Y006374D01*
X003518Y006375D02*
X002969Y006375D01*
X002972Y006376D02*
X003515Y006376D01*
X003512Y006377D02*
X002975Y006377D01*
X002978Y006378D02*
X003509Y006378D01*
X003503Y006379D02*
X002984Y006379D01*
X002993Y006380D02*
X003494Y006380D01*
X003485Y006381D02*
X003002Y006381D01*
X003010Y006382D02*
X003476Y006382D01*
X003468Y006383D02*
X003019Y006383D01*
X002952Y006369D02*
X003535Y006369D01*
X003538Y006368D02*
X002949Y006368D01*
X002946Y006367D02*
X003541Y006367D01*
X003544Y006366D02*
X002943Y006366D01*
X002940Y006365D02*
X003547Y006365D01*
X003549Y006364D02*
X002938Y006364D01*
X002935Y006363D02*
X003552Y006363D01*
X003555Y006362D02*
X002932Y006362D01*
X002931Y006361D02*
X003556Y006361D01*
X003558Y006360D02*
X002929Y006360D01*
X002928Y006359D02*
X003559Y006359D01*
X003561Y006358D02*
X002926Y006358D01*
X002924Y006357D02*
X003563Y006357D01*
X003564Y006356D02*
X002923Y006356D01*
X002921Y006355D02*
X003566Y006355D01*
X003567Y006354D02*
X002920Y006354D01*
X002918Y006353D02*
X003569Y006353D01*
X003570Y006352D02*
X002916Y006352D01*
X002915Y006351D02*
X003572Y006351D01*
X003574Y006350D02*
X002913Y006350D01*
X002912Y006349D02*
X003575Y006349D01*
X003577Y006348D02*
X002910Y006348D01*
X002909Y006347D02*
X003578Y006347D01*
X003580Y006346D02*
X002907Y006346D01*
X002905Y006345D02*
X003582Y006345D01*
X003583Y006344D02*
X002904Y006344D01*
X002902Y006343D02*
X003585Y006343D01*
X003586Y006342D02*
X002901Y006342D01*
X002899Y006341D02*
X003588Y006341D01*
X003590Y006340D02*
X002897Y006340D01*
X002896Y006339D02*
X003591Y006339D01*
X003593Y006338D02*
X002894Y006338D01*
X002893Y006337D02*
X003594Y006337D01*
X003596Y006336D02*
X002891Y006336D01*
X002890Y006335D02*
X003597Y006335D01*
X003598Y006334D02*
X002889Y006334D01*
X002888Y006333D02*
X003599Y006333D01*
X003600Y006332D02*
X002887Y006332D01*
X002886Y006331D02*
X003601Y006331D01*
X003602Y006330D02*
X002885Y006330D01*
X002884Y006329D02*
X003603Y006329D01*
X003604Y006328D02*
X002883Y006328D01*
X002882Y006327D02*
X003605Y006327D01*
X003606Y006326D02*
X002881Y006326D01*
X002880Y006325D02*
X003607Y006325D01*
X003608Y006324D02*
X002879Y006324D01*
X002878Y006323D02*
X003609Y006323D01*
X003610Y006322D02*
X002877Y006322D01*
X002876Y006321D02*
X003611Y006321D01*
X003612Y006320D02*
X002875Y006320D01*
X002874Y006319D02*
X003613Y006319D01*
X003614Y006318D02*
X002873Y006318D01*
X002872Y006317D02*
X003615Y006317D01*
X003616Y006316D02*
X002871Y006316D01*
X002870Y006315D02*
X003617Y006315D01*
X003618Y006314D02*
X002869Y006314D01*
X002868Y006313D02*
X003619Y006313D01*
X003620Y006312D02*
X002867Y006312D01*
X002866Y006311D02*
X003621Y006311D01*
X003622Y006310D02*
X002865Y006310D01*
X002864Y006309D02*
X003623Y006309D01*
X003624Y006308D02*
X002863Y006308D01*
X002862Y006307D02*
X003625Y006307D01*
X003626Y006306D02*
X002861Y006306D01*
X002860Y006305D02*
X003627Y006305D01*
X003628Y006304D02*
X002859Y006304D01*
X002858Y006303D02*
X003629Y006303D01*
X003629Y006302D02*
X002857Y006302D01*
X002857Y006301D02*
X003630Y006301D01*
X003631Y006300D02*
X002856Y006300D01*
X002856Y006299D02*
X003631Y006299D01*
X003632Y006298D02*
X002855Y006298D01*
X002854Y006297D02*
X003633Y006297D01*
X003633Y006296D02*
X002854Y006296D01*
X002853Y006295D02*
X003634Y006295D01*
X003634Y006294D02*
X002852Y006294D01*
X002852Y006293D02*
X003635Y006293D01*
X003636Y006292D02*
X002851Y006292D01*
X002851Y006291D02*
X003636Y006291D01*
X003637Y006290D02*
X002850Y006290D01*
X002849Y006289D02*
X003638Y006289D01*
X003638Y006288D02*
X002849Y006288D01*
X002848Y006287D02*
X003639Y006287D01*
X003639Y006286D02*
X002847Y006286D01*
X002847Y006285D02*
X003640Y006285D01*
X003641Y006284D02*
X002846Y006284D01*
X002846Y006283D02*
X003641Y006283D01*
X003642Y006282D02*
X002845Y006282D01*
X002844Y006281D02*
X003643Y006281D01*
X003643Y006280D02*
X002844Y006280D01*
X002843Y006279D02*
X003644Y006279D01*
X003645Y006278D02*
X002842Y006278D01*
X002842Y006277D02*
X003645Y006277D01*
X003646Y006276D02*
X002841Y006276D01*
X002841Y006275D02*
X003646Y006275D01*
X003647Y006274D02*
X002840Y006274D01*
X002839Y006273D02*
X003648Y006273D01*
X003648Y006272D02*
X002839Y006272D01*
X002838Y006271D02*
X003649Y006271D01*
X003650Y006270D02*
X002837Y006270D01*
X002837Y006269D02*
X003650Y006269D01*
X003651Y006268D02*
X002836Y006268D01*
X002836Y006267D02*
X003651Y006267D01*
X003652Y006266D02*
X002835Y006266D01*
X002834Y006265D02*
X003653Y006265D01*
X003653Y006264D02*
X002834Y006264D01*
X002833Y006263D02*
X003654Y006263D01*
X003655Y006262D02*
X002832Y006262D01*
X002832Y006261D02*
X003655Y006261D01*
X003655Y006260D02*
X002831Y006260D01*
X002831Y006259D02*
X003656Y006259D01*
X003656Y006258D02*
X002831Y006258D01*
X002830Y006257D02*
X003657Y006257D01*
X003657Y006256D02*
X002830Y006256D01*
X002830Y006255D02*
X003657Y006255D01*
X003658Y006254D02*
X002829Y006254D01*
X002829Y006253D02*
X003658Y006253D01*
X003658Y006252D02*
X002829Y006252D01*
X002828Y006251D02*
X003659Y006251D01*
X003659Y006250D02*
X002828Y006250D01*
X002828Y006249D02*
X003659Y006249D01*
X003660Y006248D02*
X002827Y006248D01*
X002827Y006247D02*
X003660Y006247D01*
X003660Y006246D02*
X002827Y006246D01*
X002826Y006245D02*
X003661Y006245D01*
X003661Y006244D02*
X002826Y006244D01*
X002825Y006243D02*
X003661Y006243D01*
X003662Y006242D02*
X002825Y006242D01*
X002825Y006241D02*
X003662Y006241D01*
X003662Y006240D02*
X002824Y006240D01*
X002824Y006239D02*
X003663Y006239D01*
X003663Y006238D02*
X002824Y006238D01*
X002823Y006237D02*
X003664Y006237D01*
X003664Y006236D02*
X002823Y006236D01*
X002823Y006235D02*
X003664Y006235D01*
X003665Y006234D02*
X002822Y006234D01*
X002822Y006233D02*
X003665Y006233D01*
X003665Y006232D02*
X002822Y006232D01*
X002821Y006231D02*
X003666Y006231D01*
X003666Y006230D02*
X002821Y006230D01*
X002821Y006229D02*
X003666Y006229D01*
X003667Y006228D02*
X002820Y006228D01*
X002820Y006227D02*
X003667Y006227D01*
X003667Y006226D02*
X002820Y006226D01*
X002819Y006225D02*
X003668Y006225D01*
X003668Y006224D02*
X002819Y006224D01*
X002819Y006223D02*
X003668Y006223D01*
X003669Y006222D02*
X002818Y006222D01*
X002818Y006221D02*
X003669Y006221D01*
X003669Y006220D02*
X002817Y006220D01*
X002817Y006219D02*
X003670Y006219D01*
X003670Y006218D02*
X002817Y006218D01*
X002816Y006217D02*
X003671Y006217D01*
X003671Y006216D02*
X002816Y006216D01*
X002816Y006215D02*
X003671Y006215D01*
X003671Y006214D02*
X002816Y006214D01*
X002816Y006213D02*
X003671Y006213D01*
X003671Y006212D02*
X002815Y006212D01*
X002815Y006211D02*
X003672Y006211D01*
X003672Y006210D02*
X002815Y006210D01*
X002815Y006209D02*
X003672Y006209D01*
X003672Y006208D02*
X002815Y006208D01*
X002815Y006207D02*
X003672Y006207D01*
X003672Y006206D02*
X002815Y006206D01*
X002815Y006205D02*
X003672Y006205D01*
X003672Y006204D02*
X002815Y006204D01*
X002814Y006203D02*
X003672Y006203D01*
X003673Y006202D02*
X002814Y006202D01*
X002814Y006201D02*
X003673Y006201D01*
X003673Y006200D02*
X002814Y006200D01*
X002814Y006199D02*
X003673Y006199D01*
X003673Y006198D02*
X002814Y006198D01*
X002814Y006197D02*
X003673Y006197D01*
X003673Y006196D02*
X002814Y006196D01*
X002814Y006195D02*
X003673Y006195D01*
X003674Y006194D02*
X002813Y006194D01*
X002813Y006193D02*
X003674Y006193D01*
X003674Y006192D02*
X002813Y006192D01*
X002813Y006191D02*
X003674Y006191D01*
X003674Y006190D02*
X002813Y006190D01*
X002813Y006189D02*
X003674Y006189D01*
X003674Y006188D02*
X002813Y006188D01*
X002813Y006187D02*
X003674Y006187D01*
X003674Y006186D02*
X002813Y006186D01*
X002812Y006185D02*
X003675Y006185D01*
X003675Y006184D02*
X002812Y006184D01*
X002812Y006183D02*
X003675Y006183D01*
X003675Y006182D02*
X002812Y006182D01*
X002812Y006181D02*
X003675Y006181D01*
X003675Y006180D02*
X002812Y006180D01*
X002812Y006179D02*
X003675Y006179D01*
X003675Y006178D02*
X002812Y006178D01*
X002812Y006177D02*
X003675Y006177D01*
X003676Y006176D02*
X002811Y006176D01*
X002811Y006175D02*
X003676Y006175D01*
X003676Y006174D02*
X002811Y006174D01*
X002811Y006173D02*
X003676Y006173D01*
X003676Y006172D02*
X002811Y006172D01*
X002811Y006171D02*
X003676Y006171D01*
X003676Y006170D02*
X002811Y006170D01*
X002811Y006169D02*
X003676Y006169D01*
X003676Y006168D02*
X002810Y006168D01*
X002810Y006167D02*
X003677Y006167D01*
X003676Y006166D02*
X002811Y006166D01*
X002811Y006165D02*
X003676Y006165D01*
X003676Y006164D02*
X002811Y006164D01*
X002811Y006163D02*
X003676Y006163D01*
X003676Y006162D02*
X002811Y006162D01*
X002811Y006161D02*
X003676Y006161D01*
X003676Y006160D02*
X002811Y006160D01*
X002811Y006159D02*
X003676Y006159D01*
X003676Y006158D02*
X002811Y006158D01*
X002811Y006157D02*
X003676Y006157D01*
X003675Y006156D02*
X002811Y006156D01*
X002812Y006155D02*
X003675Y006155D01*
X003675Y006154D02*
X002812Y006154D01*
X002812Y006153D02*
X003675Y006153D01*
X003675Y006152D02*
X002812Y006152D01*
X002812Y006151D02*
X003675Y006151D01*
X003675Y006150D02*
X002812Y006150D01*
X002812Y006149D02*
X003675Y006149D01*
X003675Y006148D02*
X002812Y006148D01*
X002812Y006147D02*
X003675Y006147D01*
X003674Y006146D02*
X002812Y006146D01*
X002813Y006145D02*
X003674Y006145D01*
X003674Y006144D02*
X002813Y006144D01*
X002813Y006143D02*
X003674Y006143D01*
X003674Y006142D02*
X002813Y006142D01*
X002813Y006141D02*
X003674Y006141D01*
X003674Y006140D02*
X002813Y006140D01*
X002813Y006139D02*
X003674Y006139D01*
X003674Y006138D02*
X002813Y006138D01*
X002813Y006137D02*
X003674Y006137D01*
X003673Y006136D02*
X002813Y006136D01*
X002814Y006135D02*
X003673Y006135D01*
X003673Y006134D02*
X002814Y006134D01*
X002814Y006133D02*
X003673Y006133D01*
X003673Y006132D02*
X002814Y006132D01*
X002814Y006131D02*
X003673Y006131D01*
X003673Y006130D02*
X002814Y006130D01*
X002814Y006129D02*
X003673Y006129D01*
X003673Y006128D02*
X002814Y006128D01*
X002814Y006127D02*
X003673Y006127D01*
X003672Y006126D02*
X002814Y006126D01*
X002815Y006125D02*
X003672Y006125D01*
X003672Y006124D02*
X002815Y006124D01*
X002815Y006123D02*
X003672Y006123D01*
X003672Y006122D02*
X002815Y006122D01*
X002816Y006121D02*
X003671Y006121D01*
X003671Y006120D02*
X002816Y006120D01*
X002816Y006119D02*
X003671Y006119D01*
X003670Y006118D02*
X002817Y006118D01*
X002817Y006117D02*
X003670Y006117D01*
X003670Y006116D02*
X002817Y006116D01*
X002818Y006115D02*
X003669Y006115D01*
X003669Y006114D02*
X002818Y006114D01*
X002818Y006113D02*
X003669Y006113D01*
X003668Y006112D02*
X002818Y006112D01*
X002819Y006111D02*
X003668Y006111D01*
X003668Y006110D02*
X002819Y006110D01*
X002819Y006109D02*
X003668Y006109D01*
X003667Y006108D02*
X002820Y006108D01*
X002820Y006107D02*
X003667Y006107D01*
X003667Y006106D02*
X002820Y006106D01*
X002821Y006105D02*
X003666Y006105D01*
X003666Y006104D02*
X002821Y006104D01*
X002821Y006103D02*
X003666Y006103D01*
X003665Y006102D02*
X002821Y006102D01*
X002822Y006101D02*
X003665Y006101D01*
X003665Y006100D02*
X002822Y006100D01*
X002822Y006099D02*
X003665Y006099D01*
X003664Y006098D02*
X002823Y006098D01*
X002823Y006097D02*
X003664Y006097D01*
X003664Y006096D02*
X002823Y006096D01*
X002824Y006095D02*
X003663Y006095D01*
X003663Y006094D02*
X002824Y006094D01*
X002824Y006093D02*
X003663Y006093D01*
X003662Y006092D02*
X002825Y006092D01*
X002825Y006091D02*
X003662Y006091D01*
X003662Y006090D02*
X002825Y006090D01*
X002825Y006089D02*
X003662Y006089D01*
X003661Y006088D02*
X002826Y006088D01*
X002826Y006087D02*
X003661Y006087D01*
X003661Y006086D02*
X002826Y006086D01*
X002827Y006085D02*
X003660Y006085D01*
X003660Y006084D02*
X002827Y006084D01*
X002827Y006083D02*
X003659Y006083D01*
X003659Y006082D02*
X002828Y006082D01*
X002829Y006081D02*
X003658Y006081D01*
X003658Y006080D02*
X002829Y006080D01*
X002830Y006079D02*
X003657Y006079D01*
X003657Y006078D02*
X002830Y006078D01*
X002831Y006077D02*
X003656Y006077D01*
X003656Y006076D02*
X002831Y006076D01*
X002832Y006075D02*
X003655Y006075D01*
X003655Y006074D02*
X002832Y006074D01*
X002833Y006073D02*
X003654Y006073D01*
X003654Y006072D02*
X002833Y006072D01*
X002834Y006071D02*
X003653Y006071D01*
X003652Y006070D02*
X002834Y006070D01*
X002835Y006069D02*
X003652Y006069D01*
X003651Y006068D02*
X002836Y006068D01*
X002836Y006067D02*
X003651Y006067D01*
X003650Y006066D02*
X002837Y006066D01*
X002837Y006065D02*
X003650Y006065D01*
X003649Y006064D02*
X002838Y006064D01*
X002838Y006063D02*
X003649Y006063D01*
X003648Y006062D02*
X002839Y006062D01*
X002839Y006061D02*
X003648Y006061D01*
X003647Y006060D02*
X002840Y006060D01*
X002840Y006059D02*
X003647Y006059D01*
X003646Y006058D02*
X002841Y006058D01*
X002841Y006057D02*
X003646Y006057D01*
X003645Y006056D02*
X002842Y006056D01*
X002842Y006055D02*
X003644Y006055D01*
X003644Y006054D02*
X002843Y006054D01*
X002844Y006053D02*
X003643Y006053D01*
X003643Y006052D02*
X002844Y006052D01*
X002845Y006051D02*
X003642Y006051D01*
X003642Y006050D02*
X002845Y006050D01*
X002846Y006049D02*
X003641Y006049D01*
X003641Y006048D02*
X002846Y006048D01*
X002847Y006047D02*
X003640Y006047D01*
X003639Y006046D02*
X002847Y006046D01*
X002848Y006045D02*
X003639Y006045D01*
X003638Y006044D02*
X002849Y006044D01*
X002850Y006043D02*
X003637Y006043D01*
X003636Y006042D02*
X002851Y006042D01*
X002852Y006041D02*
X003635Y006041D01*
X003635Y006040D02*
X002852Y006040D01*
X002853Y006039D02*
X003634Y006039D01*
X003633Y006038D02*
X002854Y006038D01*
X002855Y006037D02*
X003632Y006037D01*
X003631Y006036D02*
X002856Y006036D01*
X002856Y006035D02*
X003630Y006035D01*
X003630Y006034D02*
X002857Y006034D01*
X002858Y006033D02*
X003629Y006033D01*
X003628Y006032D02*
X002859Y006032D01*
X002860Y006031D02*
X003627Y006031D01*
X003626Y006030D02*
X002861Y006030D01*
X002861Y006029D02*
X003626Y006029D01*
X003625Y006028D02*
X002862Y006028D01*
X002863Y006027D02*
X003624Y006027D01*
X003623Y006026D02*
X002864Y006026D01*
X002865Y006025D02*
X003622Y006025D01*
X003621Y006024D02*
X002865Y006024D01*
X002866Y006023D02*
X003621Y006023D01*
X003620Y006022D02*
X002867Y006022D01*
X002868Y006021D02*
X003619Y006021D01*
X003618Y006020D02*
X002869Y006020D01*
X002870Y006019D02*
X003617Y006019D01*
X003617Y006018D02*
X002870Y006018D01*
X002871Y006017D02*
X003616Y006017D01*
X003615Y006016D02*
X002872Y006016D01*
X002873Y006015D02*
X003614Y006015D01*
X003613Y006014D02*
X002874Y006014D01*
X002875Y006013D02*
X003612Y006013D01*
X003611Y006012D02*
X002876Y006012D01*
X002877Y006011D02*
X003610Y006011D01*
X003608Y006010D02*
X002878Y006010D01*
X002880Y006009D02*
X003607Y006009D01*
X003606Y006008D02*
X002881Y006008D01*
X002882Y006007D02*
X003605Y006007D01*
X003604Y006006D02*
X002883Y006006D01*
X002885Y006005D02*
X003602Y006005D01*
X003601Y006004D02*
X002886Y006004D01*
X002887Y006003D02*
X003600Y006003D01*
X003599Y006002D02*
X002888Y006002D01*
X002889Y006001D02*
X003597Y006001D01*
X003596Y006000D02*
X002891Y006000D01*
X002892Y005999D02*
X003595Y005999D01*
X003594Y005998D02*
X002893Y005998D01*
X002894Y005997D02*
X003593Y005997D01*
X003591Y005996D02*
X002896Y005996D01*
X002897Y005995D02*
X003590Y005995D01*
X003589Y005994D02*
X002898Y005994D01*
X002899Y005993D02*
X003588Y005993D01*
X003587Y005992D02*
X002900Y005992D01*
X002902Y005991D02*
X003585Y005991D01*
X003584Y005990D02*
X002903Y005990D01*
X002904Y005989D02*
X003583Y005989D01*
X003582Y005988D02*
X002905Y005988D01*
X002906Y005987D02*
X003580Y005987D01*
X003579Y005986D02*
X002908Y005986D01*
X002910Y005985D02*
X003577Y005985D01*
X003575Y005984D02*
X002912Y005984D01*
X002914Y005983D02*
X003573Y005983D01*
X003571Y005982D02*
X002916Y005982D01*
X002918Y005981D02*
X003569Y005981D01*
X003567Y005980D02*
X002920Y005980D01*
X002921Y005979D02*
X003566Y005979D01*
X003564Y005978D02*
X002923Y005978D01*
X002925Y005977D02*
X003562Y005977D01*
X003560Y005976D02*
X002927Y005976D01*
X002929Y005975D02*
X003558Y005975D01*
X003556Y005974D02*
X002931Y005974D01*
X002933Y005973D02*
X003554Y005973D01*
X003552Y005972D02*
X002934Y005972D01*
X002936Y005971D02*
X003551Y005971D01*
X003549Y005970D02*
X002938Y005970D01*
X002940Y005969D02*
X003547Y005969D01*
X003545Y005968D02*
X002942Y005968D01*
X002944Y005967D02*
X003543Y005967D01*
X003540Y005966D02*
X002947Y005966D01*
X002950Y005965D02*
X003537Y005965D01*
X003533Y005964D02*
X002953Y005964D01*
X002957Y005963D02*
X003530Y005963D01*
X003527Y005962D02*
X002960Y005962D01*
X002963Y005961D02*
X003524Y005961D01*
X003520Y005960D02*
X002967Y005960D01*
X002970Y005959D02*
X003517Y005959D01*
X003514Y005958D02*
X002973Y005958D01*
X002977Y005957D02*
X003510Y005957D01*
X003507Y005956D02*
X002980Y005956D01*
X002983Y005955D02*
X003504Y005955D01*
X003497Y005954D02*
X002990Y005954D01*
X003000Y005953D02*
X003487Y005953D01*
X003477Y005952D02*
X003010Y005952D01*
X003020Y005951D02*
X003466Y005951D01*
X001979Y006124D02*
X001201Y006124D01*
X001201Y006123D02*
X001979Y006123D01*
X001978Y006122D02*
X001202Y006122D01*
X001202Y006121D02*
X001978Y006121D01*
X001978Y006120D02*
X001202Y006120D01*
X001203Y006119D02*
X001977Y006119D01*
X001977Y006118D02*
X001203Y006118D01*
X001203Y006117D02*
X001976Y006117D01*
X001976Y006116D02*
X001204Y006116D01*
X001204Y006115D02*
X001976Y006115D01*
X001975Y006114D02*
X001204Y006114D01*
X001205Y006113D02*
X001975Y006113D01*
X001975Y006112D02*
X001205Y006112D01*
X001205Y006111D02*
X001974Y006111D01*
X001974Y006110D02*
X001206Y006110D01*
X001206Y006109D02*
X001974Y006109D01*
X001973Y006108D02*
X001206Y006108D01*
X001207Y006107D02*
X001973Y006107D01*
X001973Y006106D02*
X001207Y006106D01*
X001208Y006105D02*
X001972Y006105D01*
X001972Y006104D02*
X001208Y006104D01*
X001208Y006103D02*
X001972Y006103D01*
X001971Y006102D02*
X001209Y006102D01*
X001209Y006101D02*
X001971Y006101D01*
X001971Y006100D02*
X001209Y006100D01*
X001210Y006099D02*
X001970Y006099D01*
X001970Y006098D02*
X001210Y006098D01*
X001210Y006097D02*
X001970Y006097D01*
X001969Y006096D02*
X001211Y006096D01*
X001211Y006095D02*
X001969Y006095D01*
X001968Y006094D02*
X001211Y006094D01*
X001212Y006093D02*
X001968Y006093D01*
X001968Y006092D02*
X001212Y006092D01*
X001212Y006091D02*
X001967Y006091D01*
X001967Y006090D02*
X001213Y006090D01*
X001213Y006089D02*
X001967Y006089D01*
X001966Y006088D02*
X001213Y006088D01*
X001214Y006087D02*
X001966Y006087D01*
X001966Y006086D02*
X001214Y006086D01*
X001215Y006085D02*
X001965Y006085D01*
X001965Y006084D02*
X001215Y006084D01*
X001215Y006083D02*
X001965Y006083D01*
X001964Y006082D02*
X001216Y006082D01*
X001216Y006081D02*
X001964Y006081D01*
X001963Y006080D02*
X001217Y006080D01*
X001217Y006079D02*
X001962Y006079D01*
X001962Y006078D02*
X001218Y006078D01*
X001219Y006077D02*
X001961Y006077D01*
X001961Y006076D02*
X001219Y006076D01*
X001220Y006075D02*
X001960Y006075D01*
X001959Y006074D02*
X001220Y006074D01*
X001221Y006073D02*
X001959Y006073D01*
X001958Y006072D02*
X001222Y006072D01*
X001222Y006071D02*
X001957Y006071D01*
X001957Y006070D02*
X001223Y006070D01*
X001224Y006069D02*
X001956Y006069D01*
X001956Y006068D02*
X001224Y006068D01*
X001225Y006067D02*
X001955Y006067D01*
X001954Y006066D02*
X001226Y006066D01*
X001226Y006065D02*
X001954Y006065D01*
X001953Y006064D02*
X001227Y006064D01*
X001227Y006063D02*
X001952Y006063D01*
X001952Y006062D02*
X001228Y006062D01*
X001229Y006061D02*
X001951Y006061D01*
X001951Y006060D02*
X001229Y006060D01*
X001230Y006059D02*
X001950Y006059D01*
X001949Y006058D02*
X001231Y006058D01*
X001231Y006057D02*
X001949Y006057D01*
X001948Y006056D02*
X001232Y006056D01*
X001232Y006055D02*
X001947Y006055D01*
X001947Y006054D02*
X001233Y006054D01*
X001234Y006053D02*
X001946Y006053D01*
X001946Y006052D02*
X001234Y006052D01*
X001235Y006051D02*
X001945Y006051D01*
X001944Y006050D02*
X001236Y006050D01*
X001236Y006049D02*
X001944Y006049D01*
X001943Y006048D02*
X001237Y006048D01*
X001237Y006047D02*
X001942Y006047D01*
X001942Y006046D02*
X001238Y006046D01*
X001239Y006045D02*
X001941Y006045D01*
X001940Y006044D02*
X001239Y006044D01*
X001240Y006043D02*
X001939Y006043D01*
X001938Y006042D02*
X001241Y006042D01*
X001242Y006041D02*
X001937Y006041D01*
X001936Y006040D02*
X001243Y006040D01*
X001244Y006039D02*
X001935Y006039D01*
X001934Y006038D02*
X001245Y006038D01*
X001246Y006037D02*
X001933Y006037D01*
X001932Y006036D02*
X001247Y006036D01*
X001248Y006035D02*
X001931Y006035D01*
X001930Y006034D02*
X001249Y006034D01*
X001250Y006033D02*
X001929Y006033D01*
X001928Y006032D02*
X001251Y006032D01*
X001252Y006031D02*
X001927Y006031D01*
X001926Y006030D02*
X001253Y006030D01*
X001254Y006029D02*
X001925Y006029D01*
X001924Y006028D02*
X001255Y006028D01*
X001256Y006027D02*
X001923Y006027D01*
X001922Y006026D02*
X001257Y006026D01*
X001258Y006025D02*
X001921Y006025D01*
X001920Y006024D02*
X001259Y006024D01*
X001260Y006023D02*
X001919Y006023D01*
X001918Y006022D02*
X001261Y006022D01*
X001262Y006021D02*
X001917Y006021D01*
X001916Y006020D02*
X001263Y006020D01*
X001264Y006019D02*
X001915Y006019D01*
X001914Y006018D02*
X001265Y006018D01*
X001266Y006017D02*
X001913Y006017D01*
X001912Y006016D02*
X001267Y006016D01*
X001268Y006015D02*
X001911Y006015D01*
X001910Y006014D02*
X001269Y006014D01*
X001270Y006013D02*
X001909Y006013D01*
X001908Y006012D02*
X001272Y006012D01*
X001274Y006011D02*
X001906Y006011D01*
X001905Y006010D02*
X001275Y006010D01*
X001277Y006009D02*
X001903Y006009D01*
X001901Y006008D02*
X001278Y006008D01*
X001280Y006007D02*
X001900Y006007D01*
X001898Y006006D02*
X001282Y006006D01*
X001283Y006005D02*
X001897Y006005D01*
X001895Y006004D02*
X001285Y006004D01*
X001286Y006003D02*
X001894Y006003D01*
X001892Y006002D02*
X001288Y006002D01*
X001290Y006001D02*
X001890Y006001D01*
X001889Y006000D02*
X001291Y006000D01*
X001293Y005999D02*
X001887Y005999D01*
X001886Y005998D02*
X001294Y005998D01*
X001296Y005997D02*
X001884Y005997D01*
X001882Y005996D02*
X001297Y005996D01*
X001299Y005995D02*
X001881Y005995D01*
X001879Y005994D02*
X001301Y005994D01*
X001302Y005993D02*
X001878Y005993D01*
X001876Y005992D02*
X001304Y005992D01*
X001305Y005991D02*
X001874Y005991D01*
X001873Y005990D02*
X001307Y005990D01*
X001309Y005989D02*
X001871Y005989D01*
X001868Y005988D02*
X001312Y005988D01*
X001315Y005987D02*
X001865Y005987D01*
X001862Y005986D02*
X001318Y005986D01*
X001321Y005985D02*
X001859Y005985D01*
X001856Y005984D02*
X001324Y005984D01*
X001326Y005983D02*
X001853Y005983D01*
X001851Y005982D02*
X001329Y005982D01*
X001332Y005981D02*
X001848Y005981D01*
X001845Y005980D02*
X001335Y005980D01*
X001338Y005979D02*
X001842Y005979D01*
X001839Y005978D02*
X001341Y005978D01*
X001344Y005977D02*
X001836Y005977D01*
X001833Y005976D02*
X001346Y005976D01*
X001349Y005975D02*
X001831Y005975D01*
X001822Y005974D02*
X001358Y005974D01*
X001367Y005973D02*
X001813Y005973D01*
X001804Y005972D02*
X001376Y005972D01*
X001385Y005971D02*
X001795Y005971D01*
X001979Y006125D02*
X001201Y006125D01*
X001201Y006126D02*
X001979Y006126D01*
X001979Y006127D02*
X001201Y006127D01*
X001201Y006128D02*
X001979Y006128D01*
X001979Y006129D02*
X001201Y006129D01*
X001200Y006130D02*
X001979Y006130D01*
X001980Y006131D02*
X001200Y006131D01*
X001200Y006132D02*
X001980Y006132D01*
X001980Y006133D02*
X001200Y006133D01*
X001200Y006134D02*
X001980Y006134D01*
X001980Y006135D02*
X001200Y006135D01*
X001200Y006136D02*
X001980Y006136D01*
X001980Y006137D02*
X001200Y006137D01*
X001199Y006138D02*
X001980Y006138D01*
X001980Y006139D02*
X001199Y006139D01*
X001199Y006140D02*
X001981Y006140D01*
X001981Y006141D02*
X001199Y006141D01*
X001199Y006142D02*
X001981Y006142D01*
X001981Y006143D02*
X001199Y006143D01*
X001199Y006144D02*
X001981Y006144D01*
X001981Y006145D02*
X001199Y006145D01*
X001199Y006146D02*
X001981Y006146D01*
X001981Y006147D02*
X001198Y006147D01*
X001198Y006148D02*
X001981Y006148D01*
X001982Y006149D02*
X001198Y006149D01*
X001198Y006150D02*
X001982Y006150D01*
X001982Y006151D02*
X001198Y006151D01*
X001198Y006152D02*
X001982Y006152D01*
X001982Y006153D02*
X001198Y006153D01*
X001198Y006154D02*
X001982Y006154D01*
X001982Y006155D02*
X001198Y006155D01*
X001197Y006156D02*
X001982Y006156D01*
X001982Y006157D02*
X001197Y006157D01*
X001197Y006158D02*
X001983Y006158D01*
X001983Y006159D02*
X001197Y006159D01*
X001197Y006160D02*
X001983Y006160D01*
X001983Y006161D02*
X001197Y006161D01*
X001197Y006162D02*
X001983Y006162D01*
X001983Y006163D02*
X001197Y006163D01*
X001197Y006164D02*
X001983Y006164D01*
X001983Y006165D02*
X001196Y006165D01*
X001196Y006166D02*
X001983Y006166D01*
X001984Y006167D02*
X001196Y006167D01*
X001196Y006168D02*
X001984Y006168D01*
X001983Y006169D02*
X001196Y006169D01*
X001197Y006170D02*
X001983Y006170D01*
X001983Y006171D02*
X001197Y006171D01*
X001197Y006172D02*
X001983Y006172D01*
X001983Y006173D02*
X001197Y006173D01*
X001197Y006174D02*
X001983Y006174D01*
X001983Y006175D02*
X001197Y006175D01*
X001197Y006176D02*
X001983Y006176D01*
X001983Y006177D02*
X001197Y006177D01*
X001197Y006178D02*
X001982Y006178D01*
X001982Y006179D02*
X001198Y006179D01*
X001198Y006180D02*
X001982Y006180D01*
X001982Y006181D02*
X001198Y006181D01*
X001198Y006182D02*
X001982Y006182D01*
X001982Y006183D02*
X001198Y006183D01*
X001198Y006184D02*
X001982Y006184D01*
X001982Y006185D02*
X001198Y006185D01*
X001198Y006186D02*
X001981Y006186D01*
X001981Y006187D02*
X001198Y006187D01*
X001199Y006188D02*
X001981Y006188D01*
X001981Y006189D02*
X001199Y006189D01*
X001199Y006190D02*
X001981Y006190D01*
X001981Y006191D02*
X001199Y006191D01*
X001199Y006192D02*
X001981Y006192D01*
X001981Y006193D02*
X001199Y006193D01*
X001199Y006194D02*
X001981Y006194D01*
X001980Y006195D02*
X001199Y006195D01*
X001199Y006196D02*
X001980Y006196D01*
X001980Y006197D02*
X001200Y006197D01*
X001200Y006198D02*
X001980Y006198D01*
X001980Y006199D02*
X001200Y006199D01*
X001200Y006200D02*
X001980Y006200D01*
X001980Y006201D02*
X001200Y006201D01*
X001200Y006202D02*
X001980Y006202D01*
X001980Y006203D02*
X001200Y006203D01*
X001200Y006204D02*
X001979Y006204D01*
X001979Y006205D02*
X001200Y006205D01*
X001201Y006206D02*
X001979Y006206D01*
X001979Y006207D02*
X001201Y006207D01*
X001201Y006208D02*
X001979Y006208D01*
X001979Y006209D02*
X001201Y006209D01*
X001201Y006210D02*
X001979Y006210D01*
X001979Y006211D02*
X001201Y006211D01*
X001202Y006212D02*
X001978Y006212D01*
X001978Y006213D02*
X001202Y006213D01*
X001202Y006214D02*
X001978Y006214D01*
X001977Y006215D02*
X001203Y006215D01*
X001203Y006216D02*
X001977Y006216D01*
X001977Y006217D02*
X001203Y006217D01*
X001204Y006218D02*
X001976Y006218D01*
X001976Y006219D02*
X001204Y006219D01*
X001204Y006220D02*
X001976Y006220D01*
X001975Y006221D02*
X001205Y006221D01*
X001205Y006222D02*
X001975Y006222D01*
X001974Y006223D02*
X001205Y006223D01*
X001206Y006224D02*
X001974Y006224D01*
X001974Y006225D02*
X001206Y006225D01*
X001206Y006226D02*
X001973Y006226D01*
X001973Y006227D02*
X001207Y006227D01*
X001207Y006228D02*
X001973Y006228D01*
X001972Y006229D02*
X001207Y006229D01*
X001208Y006230D02*
X001972Y006230D01*
X001972Y006231D02*
X001208Y006231D01*
X001209Y006232D02*
X001971Y006232D01*
X001971Y006233D02*
X001209Y006233D01*
X001209Y006234D02*
X001971Y006234D01*
X001970Y006235D02*
X001210Y006235D01*
X001210Y006236D02*
X001970Y006236D01*
X001970Y006237D02*
X001210Y006237D01*
X001211Y006238D02*
X001969Y006238D01*
X001969Y006239D02*
X001211Y006239D01*
X001211Y006240D02*
X001969Y006240D01*
X001968Y006241D02*
X001212Y006241D01*
X001212Y006242D02*
X001968Y006242D01*
X001967Y006243D02*
X001212Y006243D01*
X001213Y006244D02*
X001967Y006244D01*
X001967Y006245D02*
X001213Y006245D01*
X001213Y006246D02*
X001966Y006246D01*
X001966Y006247D02*
X001214Y006247D01*
X001214Y006248D02*
X001966Y006248D01*
X001965Y006249D02*
X001214Y006249D01*
X001215Y006250D02*
X001965Y006250D01*
X001965Y006251D02*
X001215Y006251D01*
X001216Y006252D02*
X001964Y006252D01*
X001964Y006253D02*
X001216Y006253D01*
X001217Y006254D02*
X001963Y006254D01*
X001963Y006255D02*
X001217Y006255D01*
X001218Y006256D02*
X001962Y006256D01*
X001961Y006257D02*
X001218Y006257D01*
X001219Y006258D02*
X001961Y006258D01*
X001960Y006259D02*
X001220Y006259D01*
X001220Y006260D02*
X001959Y006260D01*
X001959Y006261D02*
X001221Y006261D01*
X001222Y006262D02*
X001958Y006262D01*
X001958Y006263D02*
X001222Y006263D01*
X001223Y006264D02*
X001957Y006264D01*
X001956Y006265D02*
X001223Y006265D01*
X001224Y006266D02*
X001956Y006266D01*
X001955Y006267D02*
X001225Y006267D01*
X001225Y006268D02*
X001954Y006268D01*
X001954Y006269D02*
X001226Y006269D01*
X001227Y006270D02*
X001953Y006270D01*
X001953Y006271D02*
X001227Y006271D01*
X001228Y006272D02*
X001952Y006272D01*
X001951Y006273D02*
X001229Y006273D01*
X001229Y006274D02*
X001951Y006274D01*
X001950Y006275D02*
X001230Y006275D01*
X001230Y006276D02*
X001949Y006276D01*
X001949Y006277D02*
X001231Y006277D01*
X001232Y006278D02*
X001948Y006278D01*
X001948Y006279D02*
X001232Y006279D01*
X001233Y006280D02*
X001947Y006280D01*
X001946Y006281D02*
X001234Y006281D01*
X001234Y006282D02*
X001946Y006282D01*
X001945Y006283D02*
X001235Y006283D01*
X001235Y006284D02*
X001944Y006284D01*
X001944Y006285D02*
X001236Y006285D01*
X001237Y006286D02*
X001943Y006286D01*
X001943Y006287D02*
X001237Y006287D01*
X001238Y006288D02*
X001942Y006288D01*
X001941Y006289D02*
X001239Y006289D01*
X001239Y006290D02*
X001941Y006290D01*
X001940Y006291D02*
X001240Y006291D01*
X001241Y006292D02*
X001939Y006292D01*
X001938Y006293D02*
X001242Y006293D01*
X001243Y006294D02*
X001937Y006294D01*
X001936Y006295D02*
X001244Y006295D01*
X001245Y006296D02*
X001935Y006296D01*
X001934Y006297D02*
X001246Y006297D01*
X001247Y006298D02*
X001933Y006298D01*
X001932Y006299D02*
X001248Y006299D01*
X001249Y006300D02*
X001931Y006300D01*
X001930Y006301D02*
X001250Y006301D01*
X001251Y006302D02*
X001929Y006302D01*
X001928Y006303D02*
X001252Y006303D01*
X001253Y006304D02*
X001927Y006304D01*
X001926Y006305D02*
X001254Y006305D01*
X001255Y006306D02*
X001925Y006306D01*
X001924Y006307D02*
X001256Y006307D01*
X001257Y006308D02*
X001923Y006308D01*
X001922Y006309D02*
X001258Y006309D01*
X001259Y006310D02*
X001921Y006310D01*
X001920Y006311D02*
X001260Y006311D01*
X001261Y006312D02*
X001919Y006312D01*
X001918Y006313D02*
X001262Y006313D01*
X001263Y006314D02*
X001917Y006314D01*
X001916Y006315D02*
X001264Y006315D01*
X001265Y006316D02*
X001915Y006316D01*
X001914Y006317D02*
X001266Y006317D01*
X001267Y006318D02*
X001913Y006318D01*
X001912Y006319D02*
X001268Y006319D01*
X001269Y006320D02*
X001911Y006320D01*
X001910Y006321D02*
X001270Y006321D01*
X001272Y006322D02*
X001908Y006322D01*
X001907Y006323D02*
X001273Y006323D01*
X001275Y006324D02*
X001905Y006324D01*
X001903Y006325D02*
X001276Y006325D01*
X001278Y006326D02*
X001902Y006326D01*
X001900Y006327D02*
X001280Y006327D01*
X001281Y006328D02*
X001899Y006328D01*
X001897Y006329D02*
X001283Y006329D01*
X001284Y006330D02*
X001895Y006330D01*
X001894Y006331D02*
X001286Y006331D01*
X001288Y006332D02*
X001892Y006332D01*
X001891Y006333D02*
X001289Y006333D01*
X001291Y006334D02*
X001889Y006334D01*
X001888Y006335D02*
X001292Y006335D01*
X001294Y006336D02*
X001886Y006336D01*
X001884Y006337D02*
X001296Y006337D01*
X001297Y006338D02*
X001883Y006338D01*
X001881Y006339D02*
X001299Y006339D01*
X001300Y006340D02*
X001880Y006340D01*
X001878Y006341D02*
X001302Y006341D01*
X001303Y006342D02*
X001876Y006342D01*
X001875Y006343D02*
X001305Y006343D01*
X001307Y006344D02*
X001873Y006344D01*
X001871Y006345D02*
X001309Y006345D01*
X001312Y006346D02*
X001868Y006346D01*
X001865Y006347D02*
X001314Y006347D01*
X001317Y006348D02*
X001863Y006348D01*
X001860Y006349D02*
X001320Y006349D01*
X001323Y006350D02*
X001857Y006350D01*
X001854Y006351D02*
X001326Y006351D01*
X001329Y006352D02*
X001851Y006352D01*
X001848Y006353D02*
X001332Y006353D01*
X001334Y006354D02*
X001845Y006354D01*
X001843Y006355D02*
X001337Y006355D01*
X001340Y006356D02*
X001840Y006356D01*
X001837Y006357D02*
X001343Y006357D01*
X001346Y006358D02*
X001834Y006358D01*
X001831Y006359D02*
X001349Y006359D01*
X001356Y006360D02*
X001824Y006360D01*
X001815Y006361D02*
X001365Y006361D01*
X001374Y006362D02*
X001806Y006362D01*
X001797Y006363D02*
X001383Y006363D01*
X001392Y006364D02*
X001788Y006364D01*
D22*
X001963Y006994D02*
X001413Y006994D01*
X001413Y007544D01*
X001963Y007544D01*
X001963Y006994D01*
X001963Y007229D02*
X001413Y007229D01*
X001413Y007464D02*
X001963Y007464D01*
X001963Y008176D02*
X001413Y008176D01*
X001413Y008726D01*
X001963Y008726D01*
X001963Y008176D01*
X001963Y008411D02*
X001413Y008411D01*
X001413Y008646D02*
X001963Y008646D01*
D23*
X004028Y006520D02*
X004270Y006520D01*
X004270Y006100D01*
X004028Y006100D01*
X004028Y006520D01*
X004028Y006180D02*
X004270Y006180D01*
X004270Y006260D02*
X004028Y006260D01*
X004028Y006340D02*
X004270Y006340D01*
X004270Y006420D02*
X004028Y006420D01*
X004028Y006500D02*
X004270Y006500D01*
X004650Y006520D02*
X004892Y006520D01*
X004892Y006100D01*
X004650Y006100D01*
X004650Y006520D01*
X004650Y006180D02*
X004892Y006180D01*
X004892Y006260D02*
X004650Y006260D01*
X004650Y006340D02*
X004892Y006340D01*
X004892Y006420D02*
X004650Y006420D01*
X004650Y006500D02*
X004892Y006500D01*
M02*
