G75*
G70*
%OFA0B0*%
%FSLAX24Y24*%
%IPPOS*%
%LPD*%
%AMOC8*
5,1,8,0,0,1.08239X$1,22.5*
%
%ADD10C,0.0098*%
%ADD11C,0.0085*%
%ADD12R,0.0440X0.0490*%
%ADD13R,0.0631X0.0827*%
%ADD14C,0.0100*%
%ADD15R,0.0827X0.2402*%
%ADD16R,0.0434X0.2402*%
%ADD17C,0.0000*%
%ADD18C,0.1221*%
%ADD19R,0.0197X0.0631*%
%ADD20R,0.0690X0.0690*%
%ADD21C,0.0690*%
%ADD22C,0.0083*%
%ADD23C,0.0047*%
%ADD24C,0.0276*%
%ADD25C,0.0434*%
%ADD26C,0.0473*%
%ADD27C,0.0248*%
%ADD28C,0.0091*%
D10*
X002264Y004514D02*
X002556Y004514D01*
X002264Y004514D02*
X002264Y004806D01*
X002556Y004806D01*
X002556Y004514D01*
X002556Y004611D02*
X002264Y004611D01*
X002264Y004708D02*
X002556Y004708D01*
X002556Y004805D02*
X002264Y004805D01*
X002264Y005264D02*
X002556Y005264D01*
X002264Y005264D02*
X002264Y005556D01*
X002556Y005556D01*
X002556Y005264D01*
X002556Y005361D02*
X002264Y005361D01*
X002264Y005458D02*
X002556Y005458D01*
X002556Y005555D02*
X002264Y005555D01*
X002864Y005264D02*
X003156Y005264D01*
X002864Y005264D02*
X002864Y005556D01*
X003156Y005556D01*
X003156Y005264D01*
X003156Y005361D02*
X002864Y005361D01*
X002864Y005458D02*
X003156Y005458D01*
X003156Y005555D02*
X002864Y005555D01*
X002864Y004514D02*
X003156Y004514D01*
X002864Y004514D02*
X002864Y004806D01*
X003156Y004806D01*
X003156Y004514D01*
X003156Y004611D02*
X002864Y004611D01*
X002864Y004708D02*
X003156Y004708D01*
X003156Y004805D02*
X002864Y004805D01*
X004114Y007256D02*
X004406Y007256D01*
X004406Y006964D01*
X004114Y006964D01*
X004114Y007256D01*
X004114Y007061D02*
X004406Y007061D01*
X004406Y007158D02*
X004114Y007158D01*
X004114Y007255D02*
X004406Y007255D01*
X004714Y007256D02*
X005006Y007256D01*
X005006Y006964D01*
X004714Y006964D01*
X004714Y007256D01*
X004714Y007061D02*
X005006Y007061D01*
X005006Y007158D02*
X004714Y007158D01*
X004714Y007255D02*
X005006Y007255D01*
X004906Y008656D02*
X004614Y008656D01*
X004906Y008656D02*
X004906Y008364D01*
X004614Y008364D01*
X004614Y008656D01*
X004614Y008461D02*
X004906Y008461D01*
X004906Y008558D02*
X004614Y008558D01*
X004614Y008655D02*
X004906Y008655D01*
X004306Y008656D02*
X004014Y008656D01*
X004306Y008656D02*
X004306Y008364D01*
X004014Y008364D01*
X004014Y008656D01*
X004014Y008461D02*
X004306Y008461D01*
X004306Y008558D02*
X004014Y008558D01*
X004014Y008655D02*
X004306Y008655D01*
X003156Y010556D02*
X002864Y010556D01*
X003156Y010556D02*
X003156Y010264D01*
X002864Y010264D01*
X002864Y010556D01*
X002864Y010361D02*
X003156Y010361D01*
X003156Y010458D02*
X002864Y010458D01*
X002864Y010555D02*
X003156Y010555D01*
X002556Y010556D02*
X002264Y010556D01*
X002556Y010556D02*
X002556Y010264D01*
X002264Y010264D01*
X002264Y010556D01*
X002264Y010361D02*
X002556Y010361D01*
X002556Y010458D02*
X002264Y010458D01*
X002264Y010555D02*
X002556Y010555D01*
X004014Y011056D02*
X004306Y011056D01*
X004306Y010764D01*
X004014Y010764D01*
X004014Y011056D01*
X004014Y010861D02*
X004306Y010861D01*
X004306Y010958D02*
X004014Y010958D01*
X004014Y011055D02*
X004306Y011055D01*
X004614Y011056D02*
X004906Y011056D01*
X004906Y010764D01*
X004614Y010764D01*
X004614Y011056D01*
X004614Y010861D02*
X004906Y010861D01*
X004906Y010958D02*
X004614Y010958D01*
X004614Y011055D02*
X004906Y011055D01*
X004906Y011806D02*
X004614Y011806D01*
X004906Y011806D02*
X004906Y011514D01*
X004614Y011514D01*
X004614Y011806D01*
X004614Y011611D02*
X004906Y011611D01*
X004906Y011708D02*
X004614Y011708D01*
X004614Y011805D02*
X004906Y011805D01*
X004306Y011806D02*
X004014Y011806D01*
X004306Y011806D02*
X004306Y011514D01*
X004014Y011514D01*
X004014Y011806D01*
X004014Y011611D02*
X004306Y011611D01*
X004306Y011708D02*
X004014Y011708D01*
X004014Y011805D02*
X004306Y011805D01*
X008356Y011356D02*
X008356Y011064D01*
X008064Y011064D01*
X008064Y011356D01*
X008356Y011356D01*
X008356Y011161D02*
X008064Y011161D01*
X008064Y011258D02*
X008356Y011258D01*
X008356Y011355D02*
X008064Y011355D01*
X008356Y010756D02*
X008356Y010464D01*
X008064Y010464D01*
X008064Y010756D01*
X008356Y010756D01*
X008356Y010561D02*
X008064Y010561D01*
X008064Y010658D02*
X008356Y010658D01*
X008356Y010755D02*
X008064Y010755D01*
X008764Y010756D02*
X008764Y010464D01*
X008764Y010756D02*
X009056Y010756D01*
X009056Y010464D01*
X008764Y010464D01*
X008764Y010561D02*
X009056Y010561D01*
X009056Y010658D02*
X008764Y010658D01*
X008764Y010755D02*
X009056Y010755D01*
X008764Y011064D02*
X008764Y011356D01*
X009056Y011356D01*
X009056Y011064D01*
X008764Y011064D01*
X008764Y011161D02*
X009056Y011161D01*
X009056Y011258D02*
X008764Y011258D01*
X008764Y011355D02*
X009056Y011355D01*
X009756Y011356D02*
X009756Y011064D01*
X009464Y011064D01*
X009464Y011356D01*
X009756Y011356D01*
X009756Y011161D02*
X009464Y011161D01*
X009464Y011258D02*
X009756Y011258D01*
X009756Y011355D02*
X009464Y011355D01*
X009756Y010756D02*
X009756Y010464D01*
X009464Y010464D01*
X009464Y010756D01*
X009756Y010756D01*
X009756Y010561D02*
X009464Y010561D01*
X009464Y010658D02*
X009756Y010658D01*
X009756Y010755D02*
X009464Y010755D01*
X008156Y005264D02*
X007864Y005264D01*
X007864Y005556D01*
X008156Y005556D01*
X008156Y005264D01*
X008156Y005361D02*
X007864Y005361D01*
X007864Y005458D02*
X008156Y005458D01*
X008156Y005555D02*
X007864Y005555D01*
X007556Y005264D02*
X007264Y005264D01*
X007264Y005556D01*
X007556Y005556D01*
X007556Y005264D01*
X007556Y005361D02*
X007264Y005361D01*
X007264Y005458D02*
X007556Y005458D01*
X007556Y005555D02*
X007264Y005555D01*
X006906Y005556D02*
X006614Y005556D01*
X006906Y005556D02*
X006906Y005264D01*
X006614Y005264D01*
X006614Y005556D01*
X006614Y005361D02*
X006906Y005361D01*
X006906Y005458D02*
X006614Y005458D01*
X006614Y005555D02*
X006906Y005555D01*
X006306Y005556D02*
X006014Y005556D01*
X006306Y005556D02*
X006306Y005264D01*
X006014Y005264D01*
X006014Y005556D01*
X006014Y005361D02*
X006306Y005361D01*
X006306Y005458D02*
X006014Y005458D01*
X006014Y005555D02*
X006306Y005555D01*
D11*
X001888Y005563D02*
X001632Y005563D01*
X001888Y005563D02*
X001888Y005257D01*
X001632Y005257D01*
X001632Y005563D01*
X001632Y005341D02*
X001888Y005341D01*
X001888Y005425D02*
X001632Y005425D01*
X001632Y005509D02*
X001888Y005509D01*
X001288Y005563D02*
X001032Y005563D01*
X001288Y005563D02*
X001288Y005257D01*
X001032Y005257D01*
X001032Y005563D01*
X001032Y005341D02*
X001288Y005341D01*
X001288Y005425D02*
X001032Y005425D01*
X001032Y005509D02*
X001288Y005509D01*
X001288Y004813D02*
X001032Y004813D01*
X001288Y004813D02*
X001288Y004507D01*
X001032Y004507D01*
X001032Y004813D01*
X001032Y004591D02*
X001288Y004591D01*
X001288Y004675D02*
X001032Y004675D01*
X001032Y004759D02*
X001288Y004759D01*
X001632Y004813D02*
X001888Y004813D01*
X001888Y004507D01*
X001632Y004507D01*
X001632Y004813D01*
X001632Y004591D02*
X001888Y004591D01*
X001888Y004675D02*
X001632Y004675D01*
X001632Y004759D02*
X001888Y004759D01*
X001888Y010563D02*
X001632Y010563D01*
X001888Y010563D02*
X001888Y010257D01*
X001632Y010257D01*
X001632Y010563D01*
X001632Y010341D02*
X001888Y010341D01*
X001888Y010425D02*
X001632Y010425D01*
X001632Y010509D02*
X001888Y010509D01*
X001288Y010563D02*
X001032Y010563D01*
X001288Y010563D02*
X001288Y010257D01*
X001032Y010257D01*
X001032Y010563D01*
X001032Y010341D02*
X001288Y010341D01*
X001288Y010425D02*
X001032Y010425D01*
X001032Y010509D02*
X001288Y010509D01*
D12*
X004110Y010060D03*
X004810Y010060D03*
X004460Y009260D03*
D13*
X010926Y009532D03*
X011910Y009532D03*
X012894Y009532D03*
X012894Y008288D03*
X011910Y008288D03*
X010926Y008288D03*
X010926Y005532D03*
X011910Y005532D03*
X012894Y005532D03*
X012894Y012288D03*
X011910Y012288D03*
X010926Y012288D03*
D14*
X015232Y000664D02*
X001688Y000664D01*
X001621Y000666D01*
X001554Y000672D01*
X001487Y000681D01*
X001421Y000694D01*
X001356Y000711D01*
X001292Y000731D01*
X001229Y000755D01*
X001167Y000783D01*
X001108Y000814D01*
X001050Y000848D01*
X000994Y000885D01*
X000940Y000926D01*
X000888Y000969D01*
X000839Y001015D01*
X000793Y001064D01*
X000750Y001116D01*
X000709Y001170D01*
X000672Y001226D01*
X000638Y001284D01*
X000607Y001343D01*
X000579Y001405D01*
X000555Y001468D01*
X000535Y001532D01*
X000518Y001597D01*
X000505Y001663D01*
X000496Y001730D01*
X000490Y001797D01*
X000488Y001864D01*
X000488Y012456D01*
X000490Y012523D01*
X000496Y012590D01*
X000505Y012657D01*
X000518Y012723D01*
X000535Y012788D01*
X000555Y012852D01*
X000579Y012915D01*
X000607Y012977D01*
X000638Y013036D01*
X000672Y013094D01*
X000709Y013150D01*
X000750Y013204D01*
X000793Y013256D01*
X000839Y013305D01*
X000888Y013351D01*
X000940Y013394D01*
X000994Y013435D01*
X001050Y013472D01*
X001108Y013506D01*
X001167Y013537D01*
X001229Y013565D01*
X001292Y013589D01*
X001356Y013609D01*
X001421Y013626D01*
X001487Y013639D01*
X001554Y013648D01*
X001621Y013654D01*
X001688Y013656D01*
X015232Y013656D01*
X015299Y013654D01*
X015366Y013648D01*
X015433Y013639D01*
X015499Y013626D01*
X015564Y013609D01*
X015628Y013589D01*
X015691Y013565D01*
X015753Y013537D01*
X015812Y013506D01*
X015870Y013472D01*
X015926Y013435D01*
X015980Y013394D01*
X016032Y013351D01*
X016081Y013305D01*
X016127Y013256D01*
X016170Y013204D01*
X016211Y013150D01*
X016248Y013094D01*
X016282Y013036D01*
X016313Y012977D01*
X016341Y012915D01*
X016365Y012852D01*
X016385Y012788D01*
X016402Y012723D01*
X016415Y012657D01*
X016424Y012590D01*
X016430Y012523D01*
X016432Y012456D01*
X016432Y001864D01*
X016430Y001797D01*
X016424Y001730D01*
X016415Y001663D01*
X016402Y001597D01*
X016385Y001532D01*
X016365Y001468D01*
X016341Y001405D01*
X016313Y001343D01*
X016282Y001284D01*
X016248Y001226D01*
X016211Y001170D01*
X016170Y001116D01*
X016127Y001064D01*
X016081Y001015D01*
X016032Y000969D01*
X015980Y000926D01*
X015926Y000885D01*
X015870Y000848D01*
X015812Y000814D01*
X015753Y000783D01*
X015691Y000755D01*
X015628Y000731D01*
X015564Y000711D01*
X015499Y000694D01*
X015433Y000681D01*
X015366Y000672D01*
X015299Y000666D01*
X015232Y000664D01*
D15*
X015460Y001848D03*
X014460Y001848D03*
X013460Y001848D03*
X012460Y001848D03*
X011460Y001848D03*
X010460Y001848D03*
X009460Y001848D03*
X008460Y001848D03*
X007460Y001848D03*
X006460Y001848D03*
X005460Y001848D03*
X004460Y001848D03*
X003460Y001848D03*
X002460Y001848D03*
X001460Y001848D03*
D16*
X000665Y001848D03*
X016255Y001848D03*
D17*
X014369Y012160D02*
X014371Y012208D01*
X014377Y012256D01*
X014387Y012303D01*
X014400Y012349D01*
X014418Y012394D01*
X014438Y012438D01*
X014463Y012480D01*
X014491Y012519D01*
X014521Y012556D01*
X014555Y012590D01*
X014592Y012622D01*
X014630Y012651D01*
X014671Y012676D01*
X014714Y012698D01*
X014759Y012716D01*
X014805Y012730D01*
X014852Y012741D01*
X014900Y012748D01*
X014948Y012751D01*
X014996Y012750D01*
X015044Y012745D01*
X015092Y012736D01*
X015138Y012724D01*
X015183Y012707D01*
X015227Y012687D01*
X015269Y012664D01*
X015309Y012637D01*
X015347Y012607D01*
X015382Y012574D01*
X015414Y012538D01*
X015444Y012500D01*
X015470Y012459D01*
X015492Y012416D01*
X015512Y012372D01*
X015527Y012327D01*
X015539Y012280D01*
X015547Y012232D01*
X015551Y012184D01*
X015551Y012136D01*
X015547Y012088D01*
X015539Y012040D01*
X015527Y011993D01*
X015512Y011948D01*
X015492Y011904D01*
X015470Y011861D01*
X015444Y011820D01*
X015414Y011782D01*
X015382Y011746D01*
X015347Y011713D01*
X015309Y011683D01*
X015269Y011656D01*
X015227Y011633D01*
X015183Y011613D01*
X015138Y011596D01*
X015092Y011584D01*
X015044Y011575D01*
X014996Y011570D01*
X014948Y011569D01*
X014900Y011572D01*
X014852Y011579D01*
X014805Y011590D01*
X014759Y011604D01*
X014714Y011622D01*
X014671Y011644D01*
X014630Y011669D01*
X014592Y011698D01*
X014555Y011730D01*
X014521Y011764D01*
X014491Y011801D01*
X014463Y011840D01*
X014438Y011882D01*
X014418Y011926D01*
X014400Y011971D01*
X014387Y012017D01*
X014377Y012064D01*
X014371Y012112D01*
X014369Y012160D01*
X002909Y008998D02*
X002911Y009019D01*
X002917Y009039D01*
X002926Y009059D01*
X002938Y009076D01*
X002953Y009090D01*
X002971Y009102D01*
X002991Y009110D01*
X003011Y009115D01*
X003032Y009116D01*
X003053Y009113D01*
X003073Y009107D01*
X003092Y009096D01*
X003109Y009083D01*
X003122Y009067D01*
X003133Y009049D01*
X003141Y009029D01*
X003145Y009009D01*
X003145Y008987D01*
X003141Y008967D01*
X003133Y008947D01*
X003122Y008929D01*
X003109Y008913D01*
X003092Y008900D01*
X003073Y008889D01*
X003053Y008883D01*
X003032Y008880D01*
X003011Y008881D01*
X002991Y008886D01*
X002971Y008894D01*
X002953Y008906D01*
X002938Y008920D01*
X002926Y008937D01*
X002917Y008957D01*
X002911Y008977D01*
X002909Y008998D01*
X002909Y006722D02*
X002911Y006743D01*
X002917Y006763D01*
X002926Y006783D01*
X002938Y006800D01*
X002953Y006814D01*
X002971Y006826D01*
X002991Y006834D01*
X003011Y006839D01*
X003032Y006840D01*
X003053Y006837D01*
X003073Y006831D01*
X003092Y006820D01*
X003109Y006807D01*
X003122Y006791D01*
X003133Y006773D01*
X003141Y006753D01*
X003145Y006733D01*
X003145Y006711D01*
X003141Y006691D01*
X003133Y006671D01*
X003122Y006653D01*
X003109Y006637D01*
X003092Y006624D01*
X003073Y006613D01*
X003053Y006607D01*
X003032Y006604D01*
X003011Y006605D01*
X002991Y006610D01*
X002971Y006618D01*
X002953Y006630D01*
X002938Y006644D01*
X002926Y006661D01*
X002917Y006681D01*
X002911Y006701D01*
X002909Y006722D01*
X001369Y012160D02*
X001371Y012208D01*
X001377Y012256D01*
X001387Y012303D01*
X001400Y012349D01*
X001418Y012394D01*
X001438Y012438D01*
X001463Y012480D01*
X001491Y012519D01*
X001521Y012556D01*
X001555Y012590D01*
X001592Y012622D01*
X001630Y012651D01*
X001671Y012676D01*
X001714Y012698D01*
X001759Y012716D01*
X001805Y012730D01*
X001852Y012741D01*
X001900Y012748D01*
X001948Y012751D01*
X001996Y012750D01*
X002044Y012745D01*
X002092Y012736D01*
X002138Y012724D01*
X002183Y012707D01*
X002227Y012687D01*
X002269Y012664D01*
X002309Y012637D01*
X002347Y012607D01*
X002382Y012574D01*
X002414Y012538D01*
X002444Y012500D01*
X002470Y012459D01*
X002492Y012416D01*
X002512Y012372D01*
X002527Y012327D01*
X002539Y012280D01*
X002547Y012232D01*
X002551Y012184D01*
X002551Y012136D01*
X002547Y012088D01*
X002539Y012040D01*
X002527Y011993D01*
X002512Y011948D01*
X002492Y011904D01*
X002470Y011861D01*
X002444Y011820D01*
X002414Y011782D01*
X002382Y011746D01*
X002347Y011713D01*
X002309Y011683D01*
X002269Y011656D01*
X002227Y011633D01*
X002183Y011613D01*
X002138Y011596D01*
X002092Y011584D01*
X002044Y011575D01*
X001996Y011570D01*
X001948Y011569D01*
X001900Y011572D01*
X001852Y011579D01*
X001805Y011590D01*
X001759Y011604D01*
X001714Y011622D01*
X001671Y011644D01*
X001630Y011669D01*
X001592Y011698D01*
X001555Y011730D01*
X001521Y011764D01*
X001491Y011801D01*
X001463Y011840D01*
X001438Y011882D01*
X001418Y011926D01*
X001400Y011971D01*
X001387Y012017D01*
X001377Y012064D01*
X001371Y012112D01*
X001369Y012160D01*
D18*
X001960Y012160D03*
X014960Y012160D03*
D19*
X009373Y009337D03*
X009117Y009337D03*
X008862Y009337D03*
X008606Y009337D03*
X008350Y009337D03*
X008094Y009337D03*
X007838Y009337D03*
X007582Y009337D03*
X007326Y009337D03*
X007070Y009337D03*
X006814Y009337D03*
X006558Y009337D03*
X006303Y009337D03*
X006047Y009337D03*
X006047Y006483D03*
X006303Y006483D03*
X006558Y006483D03*
X006814Y006483D03*
X007070Y006483D03*
X007326Y006483D03*
X007582Y006483D03*
X007838Y006483D03*
X008094Y006483D03*
X008350Y006483D03*
X008606Y006483D03*
X008862Y006483D03*
X009117Y006483D03*
X009373Y006483D03*
D20*
X015460Y005410D03*
D21*
X015460Y006410D03*
X015460Y007410D03*
X015460Y008410D03*
X015460Y009410D03*
X015460Y010410D03*
D22*
X003616Y009043D02*
X003264Y009043D01*
X003264Y009237D01*
X003616Y009237D01*
X003616Y009043D01*
X003616Y009125D02*
X003264Y009125D01*
X003264Y009207D02*
X003616Y009207D01*
X003616Y008708D02*
X003264Y008708D01*
X003264Y008902D01*
X003616Y008902D01*
X003616Y008708D01*
X003616Y008790D02*
X003264Y008790D01*
X003264Y008872D02*
X003616Y008872D01*
X003616Y006818D02*
X003264Y006818D01*
X003264Y007012D01*
X003616Y007012D01*
X003616Y006818D01*
X003616Y006900D02*
X003264Y006900D01*
X003264Y006982D02*
X003616Y006982D01*
X003616Y006503D02*
X003264Y006503D01*
X003264Y006697D01*
X003616Y006697D01*
X003616Y006503D01*
X003616Y006585D02*
X003264Y006585D01*
X003264Y006667D02*
X003616Y006667D01*
D23*
X003634Y007115D02*
X003246Y007115D01*
X003246Y007227D01*
X003634Y007227D01*
X003634Y007115D01*
X003634Y007161D02*
X003246Y007161D01*
X003246Y007207D02*
X003634Y007207D01*
X003634Y007312D02*
X003246Y007312D01*
X003246Y007424D01*
X003634Y007424D01*
X003634Y007312D01*
X003634Y007358D02*
X003246Y007358D01*
X003246Y007404D02*
X003634Y007404D01*
X003634Y007509D02*
X003246Y007509D01*
X003246Y007621D01*
X003634Y007621D01*
X003634Y007509D01*
X003634Y007555D02*
X003246Y007555D01*
X003246Y007601D02*
X003634Y007601D01*
X003634Y007706D02*
X003246Y007706D01*
X003246Y007818D01*
X003634Y007818D01*
X003634Y007706D01*
X003634Y007752D02*
X003246Y007752D01*
X003246Y007798D02*
X003634Y007798D01*
X003634Y007902D02*
X003246Y007902D01*
X003246Y008014D01*
X003634Y008014D01*
X003634Y007902D01*
X003634Y007948D02*
X003246Y007948D01*
X003246Y007994D02*
X003634Y007994D01*
X003634Y008099D02*
X003246Y008099D01*
X003246Y008211D01*
X003634Y008211D01*
X003634Y008099D01*
X003634Y008145D02*
X003246Y008145D01*
X003246Y008191D02*
X003634Y008191D01*
X003634Y008296D02*
X003246Y008296D01*
X003246Y008408D01*
X003634Y008408D01*
X003634Y008296D01*
X003634Y008342D02*
X003246Y008342D01*
X003246Y008388D02*
X003634Y008388D01*
X003634Y008493D02*
X003246Y008493D01*
X003246Y008605D01*
X003634Y008605D01*
X003634Y008493D01*
X003634Y008539D02*
X003246Y008539D01*
X003246Y008585D02*
X003634Y008585D01*
D24*
X003027Y008998D03*
X003027Y006722D03*
D25*
X001787Y006167D02*
X001393Y006167D01*
X001393Y009553D02*
X001787Y009553D01*
D26*
X003027Y009553D02*
X003460Y009553D01*
X003460Y006167D02*
X003027Y006167D01*
D27*
X001977Y006980D02*
X001399Y006980D01*
X001399Y007558D01*
X001977Y007558D01*
X001977Y006980D01*
X001977Y007227D02*
X001399Y007227D01*
X001399Y007474D02*
X001977Y007474D01*
X001977Y008162D02*
X001399Y008162D01*
X001399Y008740D01*
X001977Y008740D01*
X001977Y008162D01*
X001977Y008409D02*
X001399Y008409D01*
X001399Y008656D02*
X001977Y008656D01*
D28*
X004013Y006535D02*
X004285Y006535D01*
X004285Y006085D01*
X004013Y006085D01*
X004013Y006535D01*
X004013Y006175D02*
X004285Y006175D01*
X004285Y006265D02*
X004013Y006265D01*
X004013Y006355D02*
X004285Y006355D01*
X004285Y006445D02*
X004013Y006445D01*
X004013Y006535D02*
X004285Y006535D01*
X004635Y006535D02*
X004907Y006535D01*
X004907Y006085D01*
X004635Y006085D01*
X004635Y006535D01*
X004635Y006175D02*
X004907Y006175D01*
X004907Y006265D02*
X004635Y006265D01*
X004635Y006355D02*
X004907Y006355D01*
X004907Y006445D02*
X004635Y006445D01*
X004635Y006535D02*
X004907Y006535D01*
M02*
