G75*
G70*
%OFA0B0*%
%FSLAX24Y24*%
%IPPOS*%
%LPD*%
%AMOC8*
5,1,8,0,0,1.08239X$1,22.5*
%
%ADD10C,0.0080*%
%ADD11C,0.0050*%
%ADD12C,0.0150*%
%ADD13C,0.0100*%
%ADD14C,0.0000*%
%ADD15C,0.0040*%
%ADD16C,0.0059*%
%ADD17R,0.0089X0.0006*%
%ADD18R,0.0094X0.0006*%
%ADD19R,0.0130X0.0006*%
%ADD20R,0.0106X0.0006*%
%ADD21R,0.0201X0.0006*%
%ADD22R,0.0136X0.0006*%
%ADD23R,0.1742X0.0006*%
%ADD24R,0.0154X0.0006*%
%ADD25R,0.0112X0.0006*%
%ADD26R,0.0219X0.0006*%
%ADD27R,0.0165X0.0006*%
%ADD28R,0.1748X0.0006*%
%ADD29R,0.0177X0.0006*%
%ADD30R,0.0100X0.0006*%
%ADD31R,0.0236X0.0006*%
%ADD32R,0.0189X0.0006*%
%ADD33R,0.0195X0.0006*%
%ADD34R,0.0248X0.0006*%
%ADD35R,0.0207X0.0006*%
%ADD36R,0.0213X0.0006*%
%ADD37R,0.0260X0.0006*%
%ADD38R,0.0224X0.0006*%
%ADD39R,0.0266X0.0006*%
%ADD40R,0.0278X0.0006*%
%ADD41R,0.0254X0.0006*%
%ADD42R,0.0283X0.0006*%
%ADD43R,0.0289X0.0006*%
%ADD44R,0.0272X0.0006*%
%ADD45R,0.0295X0.0006*%
%ADD46R,0.0301X0.0006*%
%ADD47R,0.0307X0.0006*%
%ADD48R,0.0313X0.0006*%
%ADD49R,0.0319X0.0006*%
%ADD50R,0.0148X0.0006*%
%ADD51R,0.0159X0.0006*%
%ADD52R,0.0124X0.0006*%
%ADD53R,0.0118X0.0006*%
%ADD54R,0.0242X0.0006*%
%ADD55R,0.0337X0.0006*%
%ADD56R,0.0331X0.0006*%
%ADD57R,0.0325X0.0006*%
%ADD58R,0.0142X0.0006*%
%ADD59R,0.0183X0.0006*%
%ADD60R,0.0230X0.0006*%
%ADD61R,0.0419X0.0006*%
%ADD62R,0.0425X0.0006*%
%ADD63R,0.0171X0.0006*%
%ADD64R,0.0083X0.0006*%
%ADD65R,0.0041X0.0006*%
%ADD66R,0.0047X0.0006*%
%ADD67R,0.1022X0.0006*%
%ADD68R,0.0980X0.0006*%
%ADD69R,0.0957X0.0006*%
%ADD70R,0.0933X0.0006*%
%ADD71R,0.0921X0.0006*%
%ADD72R,0.0904X0.0006*%
%ADD73R,0.0892X0.0006*%
%ADD74R,0.0886X0.0006*%
%ADD75R,0.0874X0.0006*%
%ADD76R,0.0868X0.0006*%
%ADD77R,0.0856X0.0006*%
%ADD78R,0.0850X0.0006*%
%ADD79R,0.0844X0.0006*%
%ADD80R,0.0839X0.0006*%
%ADD81R,0.0833X0.0006*%
%ADD82R,0.0827X0.0006*%
%ADD83R,0.0071X0.0006*%
%ADD84R,0.0862X0.0006*%
%ADD85R,0.0880X0.0006*%
%ADD86R,0.0898X0.0006*%
%ADD87R,0.0915X0.0006*%
%ADD88R,0.0927X0.0006*%
%ADD89R,0.0945X0.0006*%
%ADD90R,0.0969X0.0006*%
%ADD91R,0.0998X0.0006*%
D10*
X006569Y004310D02*
X006569Y004910D01*
X006619Y004910D02*
X006619Y004310D01*
X006669Y004310D02*
X006669Y004910D01*
X006719Y004910D02*
X006719Y004310D01*
X007415Y007200D02*
X007415Y007480D01*
X007415Y007340D02*
X007275Y007480D01*
X007205Y007480D01*
X007595Y007410D02*
X007595Y007270D01*
X007665Y007200D01*
X007805Y007200D01*
X007875Y007270D01*
X007875Y007410D01*
X007805Y007480D01*
X007665Y007480D01*
X007595Y007410D01*
X008055Y007480D02*
X008266Y007480D01*
X008336Y007410D01*
X008266Y007340D01*
X008125Y007340D01*
X008055Y007270D01*
X008125Y007200D01*
X008336Y007200D01*
X008516Y007200D02*
X008516Y007410D01*
X008586Y007480D01*
X008796Y007480D01*
X008796Y007200D01*
X008976Y007340D02*
X009256Y007340D01*
X009256Y007270D02*
X009256Y007410D01*
X009186Y007480D01*
X009046Y007480D01*
X008976Y007410D01*
X008976Y007340D01*
X009046Y007200D02*
X009186Y007200D01*
X009256Y007270D01*
X009437Y007270D02*
X009507Y007200D01*
X009647Y007200D01*
X009717Y007270D01*
X009647Y007410D02*
X009507Y007410D01*
X009437Y007340D01*
X009437Y007270D01*
X009647Y007410D02*
X009717Y007480D01*
X009717Y007550D01*
X009647Y007620D01*
X009507Y007620D01*
X009437Y007550D01*
X010357Y007480D02*
X010568Y007480D01*
X010638Y007410D01*
X010638Y007270D01*
X010568Y007200D01*
X010357Y007200D01*
X010357Y007620D01*
X010818Y007410D02*
X010818Y007200D01*
X010818Y007410D02*
X010888Y007480D01*
X011098Y007480D01*
X011098Y007200D01*
X011278Y007200D02*
X011278Y007480D01*
X011558Y007480D02*
X011558Y007270D01*
X011488Y007200D01*
X011278Y007200D01*
X011739Y007270D02*
X011739Y007410D01*
X011809Y007480D01*
X011949Y007480D01*
X012019Y007410D01*
X012019Y007270D01*
X011949Y007200D01*
X011809Y007200D01*
X011739Y007270D01*
X012199Y007270D02*
X012269Y007200D01*
X012409Y007200D01*
X012479Y007270D01*
X012409Y007410D02*
X012269Y007410D01*
X012199Y007340D01*
X012199Y007270D01*
X012409Y007410D02*
X012479Y007480D01*
X012479Y007550D01*
X012409Y007620D01*
X012269Y007620D01*
X012199Y007550D01*
D11*
X012229Y006785D02*
X012279Y006735D01*
X012229Y006785D02*
X012129Y006785D01*
X012079Y006735D01*
X012079Y006685D01*
X012279Y006485D01*
X012079Y006485D01*
X011957Y006535D02*
X011907Y006485D01*
X011807Y006485D01*
X011757Y006535D01*
X011957Y006535D02*
X011957Y006735D01*
X011907Y006785D01*
X011807Y006785D01*
X011757Y006735D01*
X011312Y006685D02*
X011312Y006485D01*
X011312Y006635D02*
X011112Y006635D01*
X011112Y006685D02*
X011112Y006485D01*
X010990Y006485D02*
X010840Y006485D01*
X010790Y006535D01*
X010790Y006735D01*
X010840Y006785D01*
X010990Y006785D01*
X010990Y006485D01*
X011112Y006685D02*
X011212Y006785D01*
X011312Y006685D01*
X010668Y006785D02*
X010668Y006485D01*
X010518Y006485D01*
X010468Y006535D01*
X010468Y006735D01*
X010518Y006785D01*
X010668Y006785D01*
X010346Y006785D02*
X010196Y006785D01*
X010145Y006735D01*
X010145Y006635D01*
X010196Y006585D01*
X010346Y006585D01*
X010346Y006485D02*
X010346Y006785D01*
X010246Y006585D02*
X010145Y006485D01*
X010023Y006485D02*
X010023Y006535D01*
X009973Y006535D01*
X009973Y006485D01*
X010023Y006485D01*
X010023Y006635D02*
X009973Y006635D01*
X009973Y006685D01*
X010023Y006685D01*
X010023Y006635D01*
X009540Y006535D02*
X009340Y006735D01*
X009340Y006535D01*
X009390Y006485D01*
X009490Y006485D01*
X009540Y006535D01*
X009540Y006735D01*
X009490Y006785D01*
X009390Y006785D01*
X009340Y006735D01*
X009218Y006685D02*
X009018Y006485D01*
X008895Y006535D02*
X008695Y006735D01*
X008695Y006535D01*
X008745Y006485D01*
X008845Y006485D01*
X008895Y006535D01*
X008895Y006735D01*
X008845Y006785D01*
X008745Y006785D01*
X008695Y006735D01*
X008573Y006735D02*
X008523Y006785D01*
X008423Y006785D01*
X008373Y006735D01*
X008373Y006685D01*
X008573Y006485D01*
X008373Y006485D01*
X009018Y006685D02*
X009218Y006485D01*
X009279Y005985D02*
X009279Y005685D01*
X009379Y005685D02*
X009179Y005685D01*
X009057Y005735D02*
X009057Y005785D01*
X009007Y005835D01*
X008906Y005835D01*
X008856Y005785D01*
X008856Y005735D01*
X008906Y005685D01*
X009007Y005685D01*
X009057Y005735D01*
X009007Y005835D02*
X009057Y005885D01*
X009057Y005935D01*
X009007Y005985D01*
X008906Y005985D01*
X008856Y005935D01*
X008856Y005885D01*
X008906Y005835D01*
X009279Y005985D02*
X009379Y005885D01*
X009501Y005935D02*
X009501Y005735D01*
X009551Y005685D01*
X009651Y005685D01*
X009701Y005735D01*
X009501Y005935D01*
X009551Y005985D01*
X009651Y005985D01*
X009701Y005935D01*
X009701Y005735D01*
X009823Y005685D02*
X010023Y005685D01*
X009823Y005885D01*
X009823Y005935D01*
X009873Y005985D01*
X009973Y005985D01*
X010023Y005935D01*
X010460Y005735D02*
X010460Y005685D01*
X010510Y005685D01*
X010510Y005735D01*
X010460Y005735D01*
X010460Y005685D02*
X010560Y005585D01*
X010683Y005735D02*
X010733Y005685D01*
X010833Y005685D01*
X010883Y005735D01*
X010883Y005785D01*
X010833Y005835D01*
X010733Y005835D01*
X010683Y005785D01*
X010683Y005735D01*
X010733Y005835D02*
X010683Y005885D01*
X010683Y005935D01*
X010733Y005985D01*
X010833Y005985D01*
X010883Y005935D01*
X010883Y005885D01*
X010833Y005835D01*
X011005Y005685D02*
X011205Y005685D01*
X011105Y005685D02*
X011105Y005985D01*
X011205Y005885D01*
X011649Y005935D02*
X011699Y005985D01*
X011800Y005985D01*
X011850Y005935D01*
X011850Y005735D01*
X011800Y005685D01*
X011699Y005685D01*
X011649Y005735D01*
X011972Y005685D02*
X012172Y005685D01*
X012172Y005985D01*
X011972Y005985D01*
X012072Y005835D02*
X012172Y005835D01*
X012294Y005735D02*
X012294Y005935D01*
X012344Y005985D01*
X012494Y005985D01*
X012494Y005685D01*
X012344Y005685D01*
X012294Y005735D01*
X012394Y006485D02*
X012494Y006485D01*
X012444Y006485D02*
X012444Y006785D01*
X012494Y006785D02*
X012394Y006785D01*
X007269Y004960D02*
X007269Y004260D01*
X006769Y004260D01*
X006769Y004960D01*
X007269Y004960D01*
X006519Y004960D02*
X006019Y004960D01*
X006019Y004260D01*
X006519Y004260D01*
X006519Y004960D01*
X005794Y004735D02*
X005794Y004485D01*
X005744Y004435D01*
X005644Y004435D01*
X005594Y004485D01*
X005594Y004735D01*
X005472Y004635D02*
X005372Y004735D01*
X005272Y004635D01*
X005272Y004435D01*
X005150Y004435D02*
X005150Y004735D01*
X004999Y004735D01*
X004949Y004685D01*
X004949Y004585D01*
X004999Y004535D01*
X005150Y004535D01*
X005050Y004535D02*
X004949Y004435D01*
X004727Y004435D02*
X004727Y004735D01*
X004827Y004735D02*
X004627Y004735D01*
X005272Y004585D02*
X005472Y004585D01*
X005472Y004635D02*
X005472Y004435D01*
D12*
X005969Y004210D02*
X005969Y005010D01*
X007319Y005010D01*
X007319Y004210D01*
X005969Y004210D01*
X004469Y004210D01*
X004469Y005010D01*
X005969Y005010D01*
D13*
X001547Y001364D02*
X001547Y011956D01*
X001549Y012023D01*
X001555Y012090D01*
X001564Y012157D01*
X001577Y012223D01*
X001594Y012288D01*
X001614Y012352D01*
X001638Y012415D01*
X001666Y012477D01*
X001697Y012536D01*
X001731Y012594D01*
X001768Y012650D01*
X001809Y012704D01*
X001852Y012756D01*
X001898Y012805D01*
X001947Y012851D01*
X001999Y012894D01*
X002053Y012935D01*
X002109Y012972D01*
X002167Y013006D01*
X002226Y013037D01*
X002288Y013065D01*
X002351Y013089D01*
X002415Y013109D01*
X002480Y013126D01*
X002546Y013139D01*
X002613Y013148D01*
X002680Y013154D01*
X002747Y013156D01*
X016292Y013156D01*
X016359Y013154D01*
X016426Y013148D01*
X016493Y013139D01*
X016559Y013126D01*
X016624Y013109D01*
X016688Y013089D01*
X016751Y013065D01*
X016813Y013037D01*
X016872Y013006D01*
X016930Y012972D01*
X016986Y012935D01*
X017040Y012894D01*
X017092Y012851D01*
X017141Y012805D01*
X017187Y012756D01*
X017230Y012704D01*
X017271Y012650D01*
X017308Y012594D01*
X017342Y012536D01*
X017373Y012477D01*
X017401Y012415D01*
X017425Y012352D01*
X017445Y012288D01*
X017462Y012223D01*
X017475Y012157D01*
X017484Y012090D01*
X017490Y012023D01*
X017492Y011956D01*
X017492Y001364D01*
X017490Y001297D01*
X017484Y001230D01*
X017475Y001163D01*
X017462Y001097D01*
X017445Y001032D01*
X017425Y000968D01*
X017401Y000905D01*
X017373Y000843D01*
X017342Y000784D01*
X017308Y000726D01*
X017271Y000670D01*
X017230Y000616D01*
X017187Y000564D01*
X017141Y000515D01*
X017092Y000469D01*
X017040Y000426D01*
X016986Y000385D01*
X016930Y000348D01*
X016872Y000314D01*
X016813Y000283D01*
X016751Y000255D01*
X016688Y000231D01*
X016624Y000211D01*
X016559Y000194D01*
X016493Y000181D01*
X016426Y000172D01*
X016359Y000166D01*
X016292Y000164D01*
X002747Y000164D01*
X002680Y000166D01*
X002613Y000172D01*
X002546Y000181D01*
X002480Y000194D01*
X002415Y000211D01*
X002351Y000231D01*
X002288Y000255D01*
X002226Y000283D01*
X002167Y000314D01*
X002109Y000348D01*
X002053Y000385D01*
X001999Y000426D01*
X001947Y000469D01*
X001898Y000515D01*
X001852Y000564D01*
X001809Y000616D01*
X001768Y000670D01*
X001731Y000726D01*
X001697Y000784D01*
X001666Y000843D01*
X001638Y000905D01*
X001614Y000968D01*
X001594Y001032D01*
X001577Y001097D01*
X001564Y001163D01*
X001555Y001230D01*
X001549Y001297D01*
X001547Y001364D01*
X001519Y003710D02*
X017519Y003710D01*
D14*
X015428Y011660D02*
X015430Y011708D01*
X015436Y011756D01*
X015446Y011803D01*
X015459Y011849D01*
X015477Y011894D01*
X015497Y011938D01*
X015522Y011980D01*
X015550Y012019D01*
X015580Y012056D01*
X015614Y012090D01*
X015651Y012122D01*
X015689Y012151D01*
X015730Y012176D01*
X015773Y012198D01*
X015818Y012216D01*
X015864Y012230D01*
X015911Y012241D01*
X015959Y012248D01*
X016007Y012251D01*
X016055Y012250D01*
X016103Y012245D01*
X016151Y012236D01*
X016197Y012224D01*
X016242Y012207D01*
X016286Y012187D01*
X016328Y012164D01*
X016368Y012137D01*
X016406Y012107D01*
X016441Y012074D01*
X016473Y012038D01*
X016503Y012000D01*
X016529Y011959D01*
X016551Y011916D01*
X016571Y011872D01*
X016586Y011827D01*
X016598Y011780D01*
X016606Y011732D01*
X016610Y011684D01*
X016610Y011636D01*
X016606Y011588D01*
X016598Y011540D01*
X016586Y011493D01*
X016571Y011448D01*
X016551Y011404D01*
X016529Y011361D01*
X016503Y011320D01*
X016473Y011282D01*
X016441Y011246D01*
X016406Y011213D01*
X016368Y011183D01*
X016328Y011156D01*
X016286Y011133D01*
X016242Y011113D01*
X016197Y011096D01*
X016151Y011084D01*
X016103Y011075D01*
X016055Y011070D01*
X016007Y011069D01*
X015959Y011072D01*
X015911Y011079D01*
X015864Y011090D01*
X015818Y011104D01*
X015773Y011122D01*
X015730Y011144D01*
X015689Y011169D01*
X015651Y011198D01*
X015614Y011230D01*
X015580Y011264D01*
X015550Y011301D01*
X015522Y011340D01*
X015497Y011382D01*
X015477Y011426D01*
X015459Y011471D01*
X015446Y011517D01*
X015436Y011564D01*
X015430Y011612D01*
X015428Y011660D01*
X002428Y011660D02*
X002430Y011708D01*
X002436Y011756D01*
X002446Y011803D01*
X002459Y011849D01*
X002477Y011894D01*
X002497Y011938D01*
X002522Y011980D01*
X002550Y012019D01*
X002580Y012056D01*
X002614Y012090D01*
X002651Y012122D01*
X002689Y012151D01*
X002730Y012176D01*
X002773Y012198D01*
X002818Y012216D01*
X002864Y012230D01*
X002911Y012241D01*
X002959Y012248D01*
X003007Y012251D01*
X003055Y012250D01*
X003103Y012245D01*
X003151Y012236D01*
X003197Y012224D01*
X003242Y012207D01*
X003286Y012187D01*
X003328Y012164D01*
X003368Y012137D01*
X003406Y012107D01*
X003441Y012074D01*
X003473Y012038D01*
X003503Y012000D01*
X003529Y011959D01*
X003551Y011916D01*
X003571Y011872D01*
X003586Y011827D01*
X003598Y011780D01*
X003606Y011732D01*
X003610Y011684D01*
X003610Y011636D01*
X003606Y011588D01*
X003598Y011540D01*
X003586Y011493D01*
X003571Y011448D01*
X003551Y011404D01*
X003529Y011361D01*
X003503Y011320D01*
X003473Y011282D01*
X003441Y011246D01*
X003406Y011213D01*
X003368Y011183D01*
X003328Y011156D01*
X003286Y011133D01*
X003242Y011113D01*
X003197Y011096D01*
X003151Y011084D01*
X003103Y011075D01*
X003055Y011070D01*
X003007Y011069D01*
X002959Y011072D01*
X002911Y011079D01*
X002864Y011090D01*
X002818Y011104D01*
X002773Y011122D01*
X002730Y011144D01*
X002689Y011169D01*
X002651Y011198D01*
X002614Y011230D01*
X002580Y011264D01*
X002550Y011301D01*
X002522Y011340D01*
X002497Y011382D01*
X002477Y011426D01*
X002459Y011471D01*
X002446Y011517D01*
X002436Y011564D01*
X002430Y011612D01*
X002428Y011660D01*
D15*
X002425Y003090D02*
X002322Y003090D01*
X002270Y003039D01*
X002477Y002832D01*
X002425Y002780D01*
X002322Y002780D01*
X002270Y002832D01*
X002270Y003039D01*
X002425Y003090D02*
X002477Y003039D01*
X002477Y002832D01*
X002592Y002832D02*
X002644Y002780D01*
X002747Y002780D01*
X002799Y002832D01*
X002696Y002935D02*
X002644Y002935D01*
X002592Y002883D01*
X002592Y002832D01*
X002644Y002935D02*
X002592Y002987D01*
X002592Y003039D01*
X002644Y003090D01*
X002747Y003090D01*
X002799Y003039D01*
X009220Y003090D02*
X009323Y003039D01*
X009427Y002935D01*
X009427Y002832D01*
X009375Y002780D01*
X009272Y002780D01*
X009220Y002832D01*
X009220Y002883D01*
X009272Y002935D01*
X009427Y002935D01*
X009542Y002780D02*
X009749Y002780D01*
X009646Y002780D02*
X009646Y003090D01*
X009749Y002987D01*
X016442Y002987D02*
X016442Y003039D01*
X016494Y003090D01*
X016597Y003090D01*
X016649Y003039D01*
X016442Y002987D02*
X016649Y002780D01*
X016442Y002780D01*
D16*
X016733Y004145D02*
X016584Y004266D01*
X016525Y004235D01*
X016440Y004439D01*
X016478Y004461D01*
X016509Y004490D01*
X016534Y004526D01*
X016549Y004567D01*
X016554Y004610D01*
X016548Y004654D01*
X016533Y004695D01*
X016508Y004732D01*
X016475Y004761D01*
X016436Y004782D01*
X016393Y004793D01*
X016349Y004793D01*
X016306Y004783D01*
X016267Y004763D01*
X016233Y004735D01*
X016207Y004699D01*
X016191Y004658D01*
X016185Y004614D01*
X016189Y004570D01*
X016204Y004528D01*
X016228Y004491D01*
X016260Y004461D01*
X016299Y004439D01*
X016214Y004235D01*
X016154Y004266D01*
X016006Y004145D01*
X015904Y004246D01*
X016025Y004395D01*
X015994Y004455D01*
X015974Y004519D01*
X015783Y004538D01*
X015783Y004682D01*
X015974Y004701D01*
X015994Y004765D01*
X016025Y004825D01*
X015904Y004974D01*
X016006Y005075D01*
X016154Y004954D01*
X016214Y004985D01*
X016278Y005006D01*
X016297Y005196D01*
X016441Y005196D01*
X016460Y005006D01*
X016525Y004985D01*
X016584Y004954D01*
X016733Y005075D01*
X016835Y004974D01*
X016713Y004825D01*
X016744Y004765D01*
X016765Y004701D01*
X016955Y004682D01*
X016955Y004538D01*
X016765Y004519D01*
X016744Y004455D01*
X016713Y004395D01*
X016835Y004246D01*
X016733Y004145D01*
X016773Y004185D02*
X016683Y004185D01*
X016613Y004243D02*
X016831Y004243D01*
X016791Y004300D02*
X016497Y004300D01*
X016521Y004243D02*
X016540Y004243D01*
X016474Y004358D02*
X016744Y004358D01*
X016724Y004415D02*
X016450Y004415D01*
X016491Y004473D02*
X016750Y004473D01*
X016881Y004530D02*
X016535Y004530D01*
X016551Y004588D02*
X016955Y004588D01*
X016955Y004646D02*
X016549Y004646D01*
X016527Y004703D02*
X016764Y004703D01*
X016746Y004761D02*
X016476Y004761D01*
X016263Y004761D02*
X015993Y004761D01*
X015974Y004703D02*
X016211Y004703D01*
X016189Y004646D02*
X015783Y004646D01*
X015783Y004588D02*
X016187Y004588D01*
X016203Y004530D02*
X015858Y004530D01*
X015988Y004473D02*
X016248Y004473D01*
X016289Y004415D02*
X016014Y004415D01*
X015995Y004358D02*
X016265Y004358D01*
X016241Y004300D02*
X015948Y004300D01*
X015908Y004243D02*
X016126Y004243D01*
X016199Y004243D02*
X016217Y004243D01*
X016055Y004185D02*
X015965Y004185D01*
X016021Y004818D02*
X016717Y004818D01*
X016755Y004876D02*
X015984Y004876D01*
X015937Y004933D02*
X016802Y004933D01*
X016817Y004991D02*
X016629Y004991D01*
X016700Y005048D02*
X016760Y005048D01*
X016507Y004991D02*
X016232Y004991D01*
X016282Y005048D02*
X016456Y005048D01*
X016450Y005106D02*
X016288Y005106D01*
X016294Y005164D02*
X016444Y005164D01*
X016109Y004991D02*
X015921Y004991D01*
X015979Y005048D02*
X016039Y005048D01*
D17*
X009562Y008355D03*
X008918Y008768D03*
X008912Y008798D03*
X008912Y008804D03*
X008907Y008821D03*
X008907Y008827D03*
X008907Y008833D03*
X008901Y008845D03*
X008901Y008851D03*
X008901Y008857D03*
X008806Y008857D03*
X008800Y008833D03*
X008800Y008827D03*
X008794Y008804D03*
X008788Y008774D03*
X008853Y009069D03*
X006745Y009707D03*
X006739Y009731D03*
X006739Y009737D03*
X006733Y009760D03*
X006733Y009766D03*
X006727Y009784D03*
X006727Y009790D03*
X006727Y009796D03*
X006722Y009814D03*
X006627Y009814D03*
X006627Y009808D03*
X006621Y009790D03*
X006621Y009784D03*
X006615Y009760D03*
X006615Y009754D03*
X006609Y009731D03*
X006674Y010026D03*
X006674Y010032D03*
D18*
X006677Y010020D03*
X006724Y009808D03*
X006724Y009802D03*
X006730Y009778D03*
X006730Y009772D03*
X006736Y009754D03*
X006736Y009749D03*
X006736Y009743D03*
X006742Y009725D03*
X006742Y009719D03*
X006742Y009713D03*
X006748Y009701D03*
X006748Y009695D03*
X006748Y009690D03*
X006748Y009684D03*
X006748Y009678D03*
X006754Y009672D03*
X006754Y009666D03*
X006754Y009660D03*
X006754Y009654D03*
X006760Y009642D03*
X006760Y009636D03*
X006760Y009630D03*
X006760Y009625D03*
X006766Y009613D03*
X006766Y009607D03*
X006766Y009601D03*
X006772Y009583D03*
X006772Y009577D03*
X006772Y009571D03*
X006589Y009625D03*
X006589Y009630D03*
X006589Y009636D03*
X006595Y009648D03*
X006595Y009654D03*
X006595Y009660D03*
X006595Y009666D03*
X006600Y009678D03*
X006600Y009684D03*
X006600Y009690D03*
X006600Y009695D03*
X006606Y009701D03*
X006606Y009707D03*
X006606Y009713D03*
X006606Y009719D03*
X006606Y009725D03*
X006612Y009737D03*
X006612Y009743D03*
X006612Y009749D03*
X006618Y009766D03*
X006618Y009772D03*
X006618Y009778D03*
X006624Y009796D03*
X006624Y009802D03*
X006583Y009607D03*
X006583Y009601D03*
X006577Y009577D03*
X006577Y009571D03*
X005963Y009731D03*
X005957Y009713D03*
X005951Y009695D03*
X005945Y009684D03*
X005939Y009666D03*
X005933Y009648D03*
X005927Y009630D03*
X005921Y009619D03*
X006671Y008355D03*
X008118Y009619D03*
X008124Y009636D03*
X008130Y009648D03*
X008136Y009666D03*
X008142Y009684D03*
X008148Y009701D03*
X008160Y009731D03*
X008850Y009064D03*
X008850Y009058D03*
X008803Y008851D03*
X008803Y008845D03*
X008803Y008839D03*
X008797Y008821D03*
X008797Y008816D03*
X008797Y008810D03*
X008791Y008798D03*
X008791Y008792D03*
X008791Y008786D03*
X008791Y008780D03*
X008785Y008768D03*
X008785Y008762D03*
X008785Y008756D03*
X008785Y008751D03*
X008780Y008745D03*
X008780Y008739D03*
X008780Y008733D03*
X008780Y008727D03*
X008780Y008721D03*
X008774Y008715D03*
X008774Y008709D03*
X008774Y008703D03*
X008774Y008697D03*
X008768Y008686D03*
X008768Y008680D03*
X008768Y008674D03*
X008762Y008656D03*
X008762Y008650D03*
X008762Y008644D03*
X008756Y008621D03*
X008939Y008662D03*
X008939Y008668D03*
X008939Y008674D03*
X008939Y008680D03*
X008933Y008691D03*
X008933Y008697D03*
X008933Y008703D03*
X008933Y008709D03*
X008927Y008715D03*
X008927Y008721D03*
X008927Y008727D03*
X008927Y008733D03*
X008927Y008739D03*
X008921Y008745D03*
X008921Y008751D03*
X008921Y008756D03*
X008921Y008762D03*
X008915Y008774D03*
X008915Y008780D03*
X008915Y008786D03*
X008915Y008792D03*
X008910Y008810D03*
X008910Y008816D03*
X008904Y008839D03*
X008945Y008650D03*
X008945Y008644D03*
X008945Y008638D03*
X008951Y008621D03*
X008951Y008615D03*
D19*
X008850Y008981D03*
X008780Y009424D03*
X008980Y009424D03*
X008980Y009926D03*
X008780Y009926D03*
X008254Y009949D03*
X008254Y009955D03*
X008024Y009406D03*
X008024Y009400D03*
X008024Y009394D03*
X007498Y009424D03*
X008030Y008969D03*
X008030Y008762D03*
X007309Y008461D03*
X006778Y008461D03*
X006571Y008656D03*
X006571Y008969D03*
X006772Y008969D03*
X005827Y009394D03*
X005827Y009400D03*
X005827Y009406D03*
X006057Y009943D03*
X006057Y009949D03*
X006057Y009955D03*
X007297Y009926D03*
X007498Y009926D03*
X009471Y008461D03*
X009565Y008361D03*
X009660Y008461D03*
X009660Y008969D03*
D20*
X009677Y008928D03*
X009677Y008922D03*
X009677Y008916D03*
X009677Y008910D03*
X009677Y008904D03*
X009677Y008898D03*
X009677Y008892D03*
X009677Y008886D03*
X009677Y008880D03*
X009677Y008875D03*
X009677Y008869D03*
X009677Y008863D03*
X009677Y008857D03*
X009677Y008851D03*
X009677Y008845D03*
X009677Y008839D03*
X009677Y008833D03*
X009677Y008827D03*
X009677Y008821D03*
X009677Y008816D03*
X009677Y008810D03*
X009677Y008804D03*
X009677Y008798D03*
X009677Y008792D03*
X009677Y008786D03*
X009677Y008780D03*
X009677Y008774D03*
X009677Y008768D03*
X009677Y008762D03*
X009677Y008756D03*
X009677Y008751D03*
X009677Y008745D03*
X009677Y008739D03*
X009677Y008733D03*
X009677Y008727D03*
X009677Y008721D03*
X009677Y008715D03*
X009677Y008709D03*
X009677Y008703D03*
X009677Y008697D03*
X009677Y008691D03*
X009677Y008686D03*
X009677Y008680D03*
X009677Y008674D03*
X009677Y008668D03*
X009677Y008662D03*
X009677Y008656D03*
X009677Y008650D03*
X009677Y008644D03*
X009677Y008638D03*
X009677Y008632D03*
X009677Y008627D03*
X009677Y008621D03*
X009677Y008615D03*
X009677Y008609D03*
X009677Y008603D03*
X009677Y008597D03*
X009677Y008591D03*
X009677Y008585D03*
X009677Y008579D03*
X009677Y008573D03*
X009677Y008567D03*
X009677Y008562D03*
X009677Y008556D03*
X009677Y008550D03*
X009677Y008544D03*
X009677Y008538D03*
X009677Y008532D03*
X009677Y008526D03*
X009677Y008520D03*
X009677Y008514D03*
X009677Y008508D03*
X009677Y008503D03*
X009447Y008503D03*
X009447Y008508D03*
X009447Y008514D03*
X009447Y008520D03*
X009447Y008526D03*
X009447Y008532D03*
X009447Y008538D03*
X009447Y008544D03*
X009447Y008550D03*
X009447Y008556D03*
X009447Y008875D03*
X009447Y008880D03*
X009447Y008886D03*
X009447Y008892D03*
X009447Y008898D03*
X009447Y008904D03*
X009447Y008910D03*
X009447Y008916D03*
X009447Y008922D03*
X009447Y008928D03*
X008850Y009034D03*
X008880Y009317D03*
X008998Y009453D03*
X008998Y009459D03*
X008998Y009465D03*
X008998Y009471D03*
X009004Y009489D03*
X009004Y009495D03*
X009004Y009501D03*
X009004Y009506D03*
X009004Y009512D03*
X009004Y009518D03*
X009004Y009524D03*
X009004Y009530D03*
X009004Y009536D03*
X009004Y009542D03*
X009004Y009548D03*
X009004Y009554D03*
X009004Y009560D03*
X009004Y009566D03*
X009004Y009571D03*
X009004Y009577D03*
X009004Y009583D03*
X009004Y009589D03*
X009004Y009595D03*
X009004Y009601D03*
X009004Y009607D03*
X009004Y009613D03*
X009004Y009619D03*
X009004Y009625D03*
X009004Y009630D03*
X009004Y009636D03*
X009004Y009642D03*
X009004Y009648D03*
X009004Y009654D03*
X009004Y009660D03*
X009004Y009666D03*
X009004Y009672D03*
X009004Y009678D03*
X009004Y009684D03*
X009004Y009690D03*
X009004Y009695D03*
X009004Y009701D03*
X009004Y009707D03*
X009004Y009713D03*
X009004Y009719D03*
X009004Y009725D03*
X009004Y009731D03*
X009004Y009737D03*
X009004Y009743D03*
X009004Y009749D03*
X009004Y009754D03*
X009004Y009760D03*
X009004Y009766D03*
X009004Y009772D03*
X009004Y009778D03*
X009004Y009784D03*
X009004Y009790D03*
X009004Y009796D03*
X009004Y009802D03*
X009004Y009808D03*
X009004Y009814D03*
X009004Y009819D03*
X009004Y009825D03*
X009004Y009831D03*
X009004Y009837D03*
X009004Y009843D03*
X009004Y009849D03*
X009004Y009855D03*
X009004Y009861D03*
X008998Y009879D03*
X008998Y009884D03*
X008998Y009890D03*
X008998Y009896D03*
X008880Y010032D03*
X008762Y009896D03*
X008762Y009890D03*
X008762Y009884D03*
X008762Y009879D03*
X008762Y009873D03*
X008762Y009867D03*
X008762Y009861D03*
X008762Y009855D03*
X008762Y009849D03*
X008762Y009843D03*
X008762Y009837D03*
X008762Y009831D03*
X008762Y009825D03*
X008762Y009819D03*
X008762Y009814D03*
X008762Y009808D03*
X008762Y009802D03*
X008762Y009796D03*
X008762Y009790D03*
X008762Y009784D03*
X008762Y009778D03*
X008762Y009772D03*
X008762Y009766D03*
X008762Y009760D03*
X008762Y009754D03*
X008762Y009749D03*
X008762Y009743D03*
X008762Y009737D03*
X008762Y009731D03*
X008762Y009725D03*
X008762Y009719D03*
X008762Y009713D03*
X008762Y009707D03*
X008762Y009701D03*
X008762Y009695D03*
X008762Y009690D03*
X008762Y009684D03*
X008762Y009678D03*
X008762Y009672D03*
X008762Y009666D03*
X008762Y009660D03*
X008762Y009654D03*
X008762Y009648D03*
X008762Y009642D03*
X008762Y009636D03*
X008762Y009630D03*
X008762Y009625D03*
X008762Y009619D03*
X008762Y009613D03*
X008762Y009607D03*
X008762Y009601D03*
X008762Y009595D03*
X008762Y009589D03*
X008762Y009583D03*
X008762Y009577D03*
X008762Y009571D03*
X008762Y009566D03*
X008762Y009560D03*
X008762Y009554D03*
X008762Y009548D03*
X008762Y009542D03*
X008762Y009536D03*
X008762Y009530D03*
X008762Y009524D03*
X008762Y009518D03*
X008762Y009512D03*
X008762Y009506D03*
X008762Y009501D03*
X008762Y009495D03*
X008762Y009489D03*
X008762Y009483D03*
X008762Y009477D03*
X008762Y009471D03*
X008762Y009465D03*
X008762Y009459D03*
X008762Y009453D03*
X008266Y009453D03*
X008266Y009447D03*
X008266Y009441D03*
X008266Y009436D03*
X008266Y009430D03*
X008266Y009424D03*
X008266Y009418D03*
X008266Y009412D03*
X008266Y009406D03*
X008266Y009400D03*
X008266Y009394D03*
X008266Y009388D03*
X008266Y009382D03*
X008266Y009377D03*
X008266Y009371D03*
X008266Y009365D03*
X008266Y009359D03*
X008266Y009353D03*
X008266Y009347D03*
X008266Y009341D03*
X008266Y009335D03*
X008266Y009329D03*
X008266Y009323D03*
X008266Y009317D03*
X008266Y009459D03*
X008266Y009465D03*
X008266Y009471D03*
X008266Y009477D03*
X008266Y009483D03*
X008266Y009489D03*
X008266Y009495D03*
X008266Y009501D03*
X008266Y009506D03*
X008266Y009512D03*
X008266Y009518D03*
X008266Y009524D03*
X008266Y009530D03*
X008266Y009536D03*
X008266Y009542D03*
X008266Y009548D03*
X008266Y009554D03*
X008266Y009560D03*
X008266Y009566D03*
X008266Y009571D03*
X008266Y009577D03*
X008266Y009583D03*
X008266Y009589D03*
X008266Y009595D03*
X008266Y009601D03*
X008266Y009607D03*
X008266Y009613D03*
X008266Y009619D03*
X008266Y009625D03*
X008266Y009630D03*
X008266Y009636D03*
X008266Y009642D03*
X008266Y009648D03*
X008266Y009654D03*
X008266Y009660D03*
X008266Y009666D03*
X008266Y009672D03*
X008266Y009678D03*
X008266Y009684D03*
X008266Y009690D03*
X008266Y009695D03*
X008266Y009701D03*
X008266Y009707D03*
X008266Y009713D03*
X008266Y009719D03*
X008266Y009725D03*
X008266Y009731D03*
X008012Y009731D03*
X008012Y009737D03*
X008012Y009743D03*
X008012Y009749D03*
X008012Y009754D03*
X008012Y009760D03*
X008012Y009766D03*
X008012Y009772D03*
X008012Y009778D03*
X008012Y009784D03*
X008012Y009790D03*
X008012Y009796D03*
X008012Y009802D03*
X008012Y009808D03*
X008012Y009814D03*
X008012Y009819D03*
X008012Y009825D03*
X008012Y009831D03*
X008012Y009837D03*
X008012Y009843D03*
X008012Y009849D03*
X008012Y009855D03*
X008012Y009861D03*
X008012Y009867D03*
X008012Y009873D03*
X008012Y009879D03*
X008012Y009884D03*
X008012Y009890D03*
X008012Y009896D03*
X008012Y009902D03*
X008012Y009908D03*
X008012Y009914D03*
X008012Y009920D03*
X008012Y009926D03*
X008012Y009932D03*
X008012Y009938D03*
X008012Y009943D03*
X008012Y009949D03*
X008012Y009955D03*
X008012Y009961D03*
X008012Y009967D03*
X008012Y009973D03*
X008012Y009979D03*
X008012Y009985D03*
X008012Y009991D03*
X008012Y009997D03*
X008012Y010003D03*
X008012Y010008D03*
X008012Y010014D03*
X008012Y010020D03*
X008012Y010026D03*
X008012Y010032D03*
X008266Y010020D03*
X008266Y010014D03*
X008012Y009725D03*
X008012Y009719D03*
X008012Y009713D03*
X008012Y009707D03*
X008012Y009701D03*
X008012Y009695D03*
X008012Y009690D03*
X008012Y009684D03*
X008012Y009678D03*
X008012Y009672D03*
X008012Y009666D03*
X008012Y009660D03*
X008012Y009654D03*
X008012Y009648D03*
X008012Y009642D03*
X008012Y009636D03*
X008012Y009630D03*
X008012Y009625D03*
X008012Y009619D03*
X008012Y009341D03*
X008012Y009335D03*
X008012Y009329D03*
X008012Y008945D03*
X008006Y008934D03*
X008006Y008928D03*
X008006Y008922D03*
X008006Y008916D03*
X008000Y008904D03*
X008000Y008898D03*
X008000Y008892D03*
X008000Y008886D03*
X008000Y008880D03*
X008000Y008875D03*
X008000Y008869D03*
X008000Y008863D03*
X008000Y008857D03*
X008000Y008851D03*
X008000Y008845D03*
X008000Y008839D03*
X008000Y008833D03*
X008000Y008827D03*
X008006Y008816D03*
X008006Y008810D03*
X008006Y008804D03*
X008006Y008798D03*
X008012Y008786D03*
X008077Y008650D03*
X008071Y008632D03*
X008071Y008627D03*
X008065Y008615D03*
X008065Y008609D03*
X008059Y008597D03*
X008059Y008591D03*
X008053Y008579D03*
X008053Y008573D03*
X008047Y008562D03*
X008047Y008556D03*
X008041Y008544D03*
X008041Y008538D03*
X008035Y008526D03*
X008035Y008520D03*
X008030Y008508D03*
X008030Y008503D03*
X008024Y008491D03*
X008024Y008485D03*
X008018Y008473D03*
X008018Y008467D03*
X008012Y008455D03*
X008012Y008449D03*
X008006Y008432D03*
X008000Y008414D03*
X007994Y008396D03*
X007988Y008379D03*
X007982Y008361D03*
X008242Y008361D03*
X008242Y008367D03*
X008242Y008373D03*
X008242Y008379D03*
X008242Y008384D03*
X008242Y008390D03*
X008242Y008396D03*
X008242Y008402D03*
X008242Y008408D03*
X008242Y008414D03*
X008242Y008420D03*
X008242Y008426D03*
X008242Y008432D03*
X008242Y008438D03*
X008242Y008443D03*
X008242Y008449D03*
X008242Y008455D03*
X008242Y008461D03*
X008242Y008467D03*
X008242Y008473D03*
X008242Y008479D03*
X008242Y008485D03*
X008242Y008491D03*
X008242Y008497D03*
X008242Y008503D03*
X008242Y008508D03*
X008242Y008514D03*
X008242Y008520D03*
X008242Y008526D03*
X008242Y008532D03*
X008242Y008538D03*
X008242Y008544D03*
X008242Y008550D03*
X008242Y008556D03*
X008242Y008562D03*
X008242Y008567D03*
X008242Y008573D03*
X008242Y008579D03*
X008242Y008585D03*
X008242Y008591D03*
X008242Y008597D03*
X008242Y008603D03*
X008242Y008609D03*
X008242Y008615D03*
X008242Y008621D03*
X008242Y008627D03*
X008242Y008632D03*
X008242Y008638D03*
X008242Y008644D03*
X008242Y008650D03*
X008242Y008656D03*
X008242Y008756D03*
X008242Y008762D03*
X008242Y008768D03*
X008242Y008774D03*
X008242Y008780D03*
X008242Y008786D03*
X008242Y008792D03*
X008242Y008798D03*
X008242Y008804D03*
X008242Y008810D03*
X008242Y008816D03*
X008242Y008821D03*
X008242Y008827D03*
X008242Y008833D03*
X008242Y008839D03*
X008242Y008845D03*
X008242Y008851D03*
X008242Y008857D03*
X008242Y008863D03*
X008242Y008869D03*
X008242Y008875D03*
X008242Y008880D03*
X008242Y008886D03*
X008242Y008892D03*
X008242Y008898D03*
X008242Y008904D03*
X008242Y008910D03*
X008242Y008916D03*
X008242Y008922D03*
X008242Y008928D03*
X008242Y008934D03*
X008242Y008940D03*
X008242Y008945D03*
X008242Y008951D03*
X008242Y008957D03*
X008242Y008963D03*
X008242Y008969D03*
X008242Y008975D03*
X008732Y008508D03*
X008726Y008479D03*
X008721Y008455D03*
X008721Y008449D03*
X008715Y008426D03*
X008715Y008420D03*
X008709Y008402D03*
X008709Y008396D03*
X008709Y008390D03*
X008703Y008373D03*
X008703Y008367D03*
X008703Y008361D03*
X008992Y008408D03*
X008992Y008414D03*
X008992Y008420D03*
X008986Y008438D03*
X008986Y008443D03*
X008980Y008467D03*
X008980Y008473D03*
X008974Y008497D03*
X008998Y008390D03*
X008998Y008384D03*
X008998Y008379D03*
X009004Y008367D03*
X009004Y008361D03*
X009671Y009424D03*
X009671Y009430D03*
X009671Y009436D03*
X009671Y009441D03*
X009671Y009447D03*
X009671Y009453D03*
X009671Y009459D03*
X009671Y009465D03*
X009671Y009471D03*
X009671Y009477D03*
X009671Y009483D03*
X009671Y009489D03*
X009671Y009495D03*
X009671Y009501D03*
X009671Y009506D03*
X009671Y009512D03*
X009671Y009518D03*
X009671Y009524D03*
X009671Y009530D03*
X009671Y009536D03*
X009671Y009542D03*
X009671Y009548D03*
X009671Y009554D03*
X009671Y009560D03*
X009671Y009566D03*
X009671Y009571D03*
X009671Y009577D03*
X009671Y009583D03*
X009671Y009589D03*
X009671Y009595D03*
X009671Y009601D03*
X009671Y009607D03*
X009671Y009613D03*
X009671Y009619D03*
X009671Y009625D03*
X009671Y009630D03*
X009671Y009636D03*
X009671Y009642D03*
X009671Y009648D03*
X009671Y009654D03*
X009671Y009660D03*
X009671Y009666D03*
X009671Y009672D03*
X009671Y009678D03*
X009671Y009684D03*
X009671Y009690D03*
X009671Y009695D03*
X009671Y009701D03*
X009671Y009707D03*
X009671Y009713D03*
X009671Y009719D03*
X009671Y009725D03*
X009671Y009731D03*
X009671Y009737D03*
X009671Y009743D03*
X009671Y009749D03*
X009671Y009754D03*
X009671Y009760D03*
X009671Y009766D03*
X009671Y009772D03*
X009671Y009778D03*
X009671Y009784D03*
X009671Y009790D03*
X009671Y009796D03*
X009671Y009802D03*
X009671Y009808D03*
X009671Y009814D03*
X009671Y009819D03*
X009671Y009825D03*
X009671Y009831D03*
X009671Y009837D03*
X009671Y009843D03*
X009671Y009849D03*
X009671Y009855D03*
X009671Y009861D03*
X009671Y009867D03*
X009671Y009873D03*
X009671Y009879D03*
X009671Y009884D03*
X009671Y009890D03*
X009671Y009896D03*
X009671Y009902D03*
X009671Y009908D03*
X009671Y009914D03*
X009671Y009920D03*
X009671Y009926D03*
X009671Y009932D03*
X009671Y009938D03*
X009671Y009943D03*
X009671Y009949D03*
X009671Y009955D03*
X009671Y009961D03*
X009671Y009967D03*
X009671Y009973D03*
X009671Y009979D03*
X009671Y009985D03*
X009671Y009991D03*
X009671Y009997D03*
X009671Y010003D03*
X009671Y010008D03*
X009671Y010014D03*
X009671Y010020D03*
X009671Y010026D03*
X009671Y010032D03*
X007516Y009896D03*
X007516Y009890D03*
X007516Y009884D03*
X007516Y009879D03*
X007516Y009873D03*
X007516Y009867D03*
X007516Y009861D03*
X007516Y009855D03*
X007516Y009849D03*
X007516Y009843D03*
X007516Y009837D03*
X007516Y009831D03*
X007516Y009825D03*
X007516Y009819D03*
X007516Y009814D03*
X007516Y009808D03*
X007516Y009802D03*
X007516Y009796D03*
X007516Y009790D03*
X007516Y009784D03*
X007516Y009778D03*
X007516Y009772D03*
X007516Y009766D03*
X007516Y009760D03*
X007516Y009754D03*
X007516Y009749D03*
X007516Y009743D03*
X007516Y009737D03*
X007516Y009731D03*
X007516Y009725D03*
X007516Y009719D03*
X007516Y009713D03*
X007516Y009707D03*
X007516Y009701D03*
X007516Y009695D03*
X007516Y009690D03*
X007516Y009684D03*
X007516Y009678D03*
X007516Y009672D03*
X007516Y009666D03*
X007516Y009660D03*
X007516Y009654D03*
X007516Y009648D03*
X007516Y009642D03*
X007516Y009636D03*
X007516Y009630D03*
X007516Y009625D03*
X007516Y009619D03*
X007516Y009613D03*
X007516Y009607D03*
X007516Y009601D03*
X007516Y009595D03*
X007516Y009589D03*
X007516Y009583D03*
X007516Y009577D03*
X007516Y009571D03*
X007516Y009566D03*
X007516Y009560D03*
X007516Y009554D03*
X007516Y009548D03*
X007516Y009542D03*
X007516Y009536D03*
X007516Y009530D03*
X007516Y009524D03*
X007516Y009518D03*
X007516Y009512D03*
X007516Y009506D03*
X007516Y009501D03*
X007516Y009495D03*
X007516Y009489D03*
X007516Y009483D03*
X007516Y009477D03*
X007516Y009471D03*
X007516Y009465D03*
X007516Y009459D03*
X007516Y009453D03*
X007280Y009453D03*
X007280Y009459D03*
X007280Y009465D03*
X007280Y009471D03*
X007274Y009483D03*
X007274Y009489D03*
X007274Y009495D03*
X007274Y009501D03*
X007274Y009506D03*
X007274Y009512D03*
X007274Y009518D03*
X007274Y009524D03*
X007274Y009530D03*
X007274Y009536D03*
X007274Y009542D03*
X007274Y009548D03*
X007274Y009554D03*
X007274Y009560D03*
X007274Y009566D03*
X007274Y009571D03*
X007274Y009577D03*
X007274Y009583D03*
X007274Y009589D03*
X007274Y009595D03*
X007274Y009601D03*
X007274Y009607D03*
X007274Y009613D03*
X007274Y009619D03*
X007274Y009831D03*
X007274Y009837D03*
X007274Y009843D03*
X007274Y009849D03*
X007274Y009855D03*
X007274Y009861D03*
X007274Y009867D03*
X007280Y009879D03*
X007280Y009884D03*
X007280Y009890D03*
X007280Y009896D03*
X007398Y010032D03*
X006801Y009436D03*
X006807Y009412D03*
X006807Y009406D03*
X006813Y009382D03*
X006813Y009377D03*
X006819Y009359D03*
X006819Y009353D03*
X006819Y009347D03*
X006819Y009341D03*
X006825Y009329D03*
X006825Y009323D03*
X006825Y009317D03*
X006671Y009075D03*
X006789Y008940D03*
X006789Y008934D03*
X006789Y008928D03*
X006789Y008922D03*
X006795Y008916D03*
X006795Y008910D03*
X006795Y008904D03*
X006795Y008898D03*
X006795Y008892D03*
X006795Y008886D03*
X006795Y008880D03*
X006795Y008875D03*
X006795Y008869D03*
X006795Y008863D03*
X006795Y008857D03*
X006795Y008851D03*
X006795Y008845D03*
X006789Y008839D03*
X006789Y008833D03*
X006789Y008827D03*
X006547Y008875D03*
X006547Y008880D03*
X006547Y008886D03*
X006547Y008892D03*
X006547Y008898D03*
X006547Y008904D03*
X006553Y008928D03*
X006553Y008627D03*
X006553Y008621D03*
X006553Y008615D03*
X006553Y008609D03*
X006553Y008603D03*
X006553Y008597D03*
X006553Y008591D03*
X006547Y008573D03*
X006547Y008567D03*
X006547Y008562D03*
X006547Y008556D03*
X006553Y008526D03*
X006553Y008520D03*
X006553Y008514D03*
X006553Y008508D03*
X006553Y008503D03*
X006553Y008497D03*
X006559Y008491D03*
X006559Y008485D03*
X006795Y008497D03*
X006801Y008508D03*
X006801Y008514D03*
X006801Y008520D03*
X006801Y008526D03*
X006801Y008532D03*
X006801Y008538D03*
X006801Y008544D03*
X006801Y008550D03*
X006801Y008556D03*
X007280Y008556D03*
X007280Y008562D03*
X007280Y008567D03*
X007280Y008573D03*
X007280Y008579D03*
X007280Y008585D03*
X007280Y008591D03*
X007280Y008597D03*
X007280Y008603D03*
X007280Y008609D03*
X007280Y008615D03*
X007280Y008621D03*
X007280Y008627D03*
X007280Y008632D03*
X007280Y008638D03*
X007280Y008644D03*
X007280Y008650D03*
X007280Y008656D03*
X007280Y008662D03*
X007280Y008668D03*
X007280Y008674D03*
X007280Y008680D03*
X007280Y008686D03*
X007280Y008691D03*
X007280Y008697D03*
X007280Y008703D03*
X007280Y008709D03*
X007280Y008715D03*
X007280Y008721D03*
X007280Y008727D03*
X007280Y008733D03*
X007280Y008739D03*
X007280Y008745D03*
X007280Y008751D03*
X007280Y008756D03*
X007280Y008762D03*
X007280Y008768D03*
X007280Y008774D03*
X007280Y008780D03*
X007280Y008786D03*
X007280Y008792D03*
X007280Y008798D03*
X007280Y008804D03*
X007280Y008810D03*
X007280Y008816D03*
X007280Y008821D03*
X007280Y008827D03*
X007280Y008833D03*
X007280Y008839D03*
X007280Y008845D03*
X007280Y008851D03*
X007280Y008857D03*
X007280Y008863D03*
X007280Y008869D03*
X007280Y008875D03*
X007280Y008880D03*
X007280Y008886D03*
X007280Y008892D03*
X007285Y008910D03*
X007285Y008916D03*
X007285Y008922D03*
X007285Y008928D03*
X007285Y008934D03*
X007510Y008934D03*
X007510Y008940D03*
X007510Y008945D03*
X007510Y008951D03*
X007510Y008957D03*
X007510Y008963D03*
X007510Y008969D03*
X007510Y008975D03*
X007510Y008928D03*
X007510Y008922D03*
X007510Y008916D03*
X007510Y008910D03*
X007510Y008904D03*
X007510Y008898D03*
X007510Y008892D03*
X007510Y008886D03*
X007510Y008880D03*
X007510Y008875D03*
X007510Y008869D03*
X007510Y008863D03*
X007510Y008857D03*
X007510Y008851D03*
X007510Y008845D03*
X007510Y008839D03*
X007510Y008833D03*
X007510Y008827D03*
X007510Y008821D03*
X007510Y008816D03*
X007510Y008810D03*
X007510Y008804D03*
X007510Y008798D03*
X007510Y008792D03*
X007510Y008786D03*
X007510Y008780D03*
X007510Y008774D03*
X007510Y008768D03*
X007510Y008762D03*
X007510Y008756D03*
X007510Y008751D03*
X007510Y008745D03*
X007510Y008739D03*
X007510Y008733D03*
X007510Y008727D03*
X007510Y008721D03*
X007510Y008715D03*
X007510Y008709D03*
X007510Y008703D03*
X007510Y008697D03*
X007510Y008691D03*
X007510Y008686D03*
X007510Y008680D03*
X007510Y008674D03*
X007510Y008668D03*
X007510Y008662D03*
X007510Y008656D03*
X007510Y008650D03*
X007510Y008644D03*
X007510Y008638D03*
X007510Y008632D03*
X007510Y008627D03*
X007510Y008621D03*
X007510Y008615D03*
X007510Y008609D03*
X007510Y008603D03*
X007510Y008597D03*
X007510Y008591D03*
X007510Y008585D03*
X007510Y008579D03*
X007510Y008573D03*
X007510Y008567D03*
X007510Y008562D03*
X007510Y008556D03*
X007510Y008550D03*
X007510Y008544D03*
X007510Y008538D03*
X007510Y008532D03*
X007510Y008526D03*
X007510Y008520D03*
X007510Y008514D03*
X007510Y008508D03*
X007510Y008503D03*
X007510Y008497D03*
X007510Y008491D03*
X007510Y008485D03*
X007510Y008479D03*
X007510Y008473D03*
X007510Y008467D03*
X007510Y008461D03*
X007510Y008455D03*
X007291Y008485D03*
X007291Y008491D03*
X007285Y008497D03*
X007285Y008503D03*
X007285Y008508D03*
X007285Y008514D03*
X007285Y008520D03*
X007285Y008526D03*
X007280Y008550D03*
X006524Y009317D03*
X006524Y009323D03*
X006524Y009329D03*
X006530Y009341D03*
X006530Y009347D03*
X006530Y009353D03*
X006535Y009371D03*
X006535Y009377D03*
X006535Y009382D03*
X006541Y009400D03*
X006541Y009406D03*
X006547Y009430D03*
X006547Y009436D03*
X006553Y009459D03*
X006069Y009459D03*
X006069Y009453D03*
X006069Y009447D03*
X006069Y009441D03*
X006069Y009436D03*
X006069Y009430D03*
X006069Y009424D03*
X006069Y009418D03*
X006069Y009412D03*
X006069Y009406D03*
X006069Y009400D03*
X006069Y009394D03*
X006069Y009388D03*
X006069Y009382D03*
X006069Y009377D03*
X006069Y009371D03*
X006069Y009365D03*
X006069Y009359D03*
X006069Y009353D03*
X006069Y009347D03*
X006069Y009341D03*
X006069Y009335D03*
X006069Y009329D03*
X006069Y009323D03*
X006069Y009317D03*
X006069Y009465D03*
X006069Y009471D03*
X006069Y009477D03*
X006069Y009483D03*
X006069Y009489D03*
X006069Y009495D03*
X006069Y009501D03*
X006069Y009506D03*
X006069Y009512D03*
X006069Y009518D03*
X006069Y009524D03*
X006069Y009530D03*
X006069Y009536D03*
X006069Y009542D03*
X006069Y009548D03*
X006069Y009554D03*
X006069Y009560D03*
X006069Y009566D03*
X006069Y009571D03*
X006069Y009577D03*
X006069Y009583D03*
X006069Y009589D03*
X006069Y009595D03*
X006069Y009601D03*
X006069Y009607D03*
X006069Y009613D03*
X006069Y009619D03*
X006069Y009625D03*
X006069Y009630D03*
X006069Y009636D03*
X006069Y009642D03*
X006069Y009648D03*
X006069Y009654D03*
X006069Y009660D03*
X006069Y009666D03*
X006069Y009672D03*
X006069Y009678D03*
X006069Y009684D03*
X006069Y009690D03*
X006069Y009695D03*
X006069Y009701D03*
X006069Y009707D03*
X006069Y009713D03*
X006069Y009719D03*
X006069Y009725D03*
X006069Y009731D03*
X005815Y009731D03*
X005815Y009737D03*
X005815Y009743D03*
X005815Y009749D03*
X005815Y009754D03*
X005815Y009760D03*
X005815Y009766D03*
X005815Y009772D03*
X005815Y009778D03*
X005815Y009784D03*
X005815Y009790D03*
X005815Y009796D03*
X005815Y009802D03*
X005815Y009808D03*
X005815Y009814D03*
X005815Y009819D03*
X005815Y009825D03*
X005815Y009831D03*
X005815Y009837D03*
X005815Y009843D03*
X005815Y009849D03*
X005815Y009855D03*
X005815Y009861D03*
X005815Y009867D03*
X005815Y009873D03*
X005815Y009879D03*
X005815Y009884D03*
X005815Y009890D03*
X005815Y009896D03*
X005815Y009902D03*
X005815Y009908D03*
X005815Y009914D03*
X005815Y009920D03*
X005815Y009926D03*
X005815Y009932D03*
X005815Y009938D03*
X005815Y009943D03*
X005815Y009949D03*
X005815Y009955D03*
X005815Y009961D03*
X005815Y009967D03*
X005815Y009973D03*
X005815Y009979D03*
X005815Y009985D03*
X005815Y009991D03*
X005815Y009997D03*
X005815Y010003D03*
X005815Y010008D03*
X005815Y010014D03*
X005815Y010020D03*
X005815Y010026D03*
X005815Y010032D03*
X006069Y010020D03*
X006069Y010014D03*
X006069Y010008D03*
X005815Y009725D03*
X005815Y009719D03*
X005815Y009713D03*
X005815Y009707D03*
X005815Y009701D03*
X005815Y009695D03*
X005815Y009690D03*
X005815Y009684D03*
X005815Y009678D03*
X005815Y009672D03*
X005815Y009666D03*
X005815Y009660D03*
X005815Y009654D03*
X005815Y009648D03*
X005815Y009642D03*
X005815Y009636D03*
X005815Y009630D03*
X005815Y009625D03*
X005815Y009619D03*
X005815Y009341D03*
X005815Y009335D03*
X005815Y009329D03*
D21*
X005862Y009589D03*
X005862Y009595D03*
X005862Y009601D03*
X006022Y009749D03*
X006022Y009754D03*
X006022Y009760D03*
X006671Y009052D03*
X006618Y008691D03*
X007463Y008361D03*
X008059Y009589D03*
X008059Y009595D03*
X008059Y009601D03*
X008219Y009749D03*
X008219Y009754D03*
X008219Y009760D03*
X009565Y009052D03*
D22*
X009562Y009069D03*
X009651Y008975D03*
X008853Y008975D03*
X008853Y008969D03*
X008853Y008963D03*
X008027Y009412D03*
X008027Y009418D03*
X008027Y009424D03*
X008251Y009932D03*
X008251Y009938D03*
X008251Y009943D03*
X008788Y009932D03*
X007489Y009932D03*
X006674Y009932D03*
X006674Y009938D03*
X006674Y009926D03*
X006674Y009920D03*
X006054Y009926D03*
X006054Y009932D03*
X006054Y009938D03*
X005830Y009424D03*
X005830Y009418D03*
X005830Y009412D03*
X006763Y008975D03*
X006769Y008798D03*
X006674Y008361D03*
D23*
X011162Y010032D03*
X011706Y009642D03*
X011706Y008367D03*
D24*
X009565Y008367D03*
X009482Y008455D03*
X008850Y008928D03*
X008041Y008756D03*
X008035Y009459D03*
X008035Y009465D03*
X008035Y009471D03*
X008242Y009879D03*
X008242Y009884D03*
X008242Y009890D03*
X006589Y008455D03*
X005839Y009459D03*
X005839Y009465D03*
X005839Y009471D03*
X006045Y009879D03*
X006045Y009884D03*
X006045Y009890D03*
D25*
X006066Y009997D03*
X006066Y010003D03*
X006674Y009991D03*
X006674Y009985D03*
X006674Y009979D03*
X006674Y009973D03*
X007283Y009908D03*
X007283Y009902D03*
X007288Y009914D03*
X007507Y009914D03*
X007513Y009908D03*
X007513Y009902D03*
X007513Y009447D03*
X007513Y009441D03*
X007507Y009436D03*
X007395Y009317D03*
X007283Y009441D03*
X007283Y009447D03*
X007294Y008951D03*
X007288Y008945D03*
X007288Y008940D03*
X006786Y008945D03*
X006781Y008951D03*
X006781Y008957D03*
X006786Y008821D03*
X006550Y008910D03*
X006550Y008916D03*
X006550Y008922D03*
X006556Y008934D03*
X006556Y008940D03*
X006562Y008644D03*
X006556Y008638D03*
X006556Y008632D03*
X006562Y008479D03*
X006562Y008473D03*
X006792Y008485D03*
X006792Y008491D03*
X006798Y008503D03*
X007294Y008479D03*
X007985Y008373D03*
X007985Y008367D03*
X007991Y008384D03*
X007991Y008390D03*
X007997Y008402D03*
X007997Y008408D03*
X008003Y008420D03*
X008003Y008426D03*
X008009Y008438D03*
X008009Y008443D03*
X008015Y008461D03*
X008021Y008479D03*
X008027Y008497D03*
X008033Y008514D03*
X008038Y008532D03*
X008015Y008780D03*
X008009Y008792D03*
X008009Y008940D03*
X008015Y008951D03*
X008015Y009347D03*
X008015Y009353D03*
X008015Y009359D03*
X008263Y009997D03*
X008263Y010003D03*
X008263Y010008D03*
X008765Y009908D03*
X008765Y009902D03*
X008771Y009914D03*
X008989Y009914D03*
X008995Y009908D03*
X008995Y009902D03*
X008995Y009447D03*
X008995Y009441D03*
X008771Y009436D03*
X008765Y009441D03*
X008765Y009447D03*
X008853Y009028D03*
X008853Y009022D03*
X008853Y009016D03*
X009450Y008940D03*
X009450Y008934D03*
X009456Y008945D03*
X009456Y008951D03*
X009668Y008951D03*
X009668Y008957D03*
X009674Y008945D03*
X009674Y008940D03*
X009674Y008934D03*
X009674Y008497D03*
X009674Y008491D03*
X009674Y008485D03*
X009668Y008479D03*
X009668Y008473D03*
X009456Y008479D03*
X009456Y008485D03*
X009450Y008491D03*
X009450Y008497D03*
X005818Y009347D03*
X005818Y009353D03*
X005818Y009359D03*
D26*
X007454Y008367D03*
X009562Y009046D03*
X010938Y009270D03*
X010938Y009276D03*
X010938Y009282D03*
X010938Y009288D03*
X010938Y009294D03*
X010938Y009300D03*
X010938Y009306D03*
X010938Y009312D03*
X010938Y009317D03*
X012468Y009317D03*
X012468Y009312D03*
X012468Y009306D03*
X012468Y009300D03*
X012468Y009294D03*
X012468Y009288D03*
X012468Y009282D03*
X012468Y009276D03*
X012468Y009270D03*
X012468Y009264D03*
X012468Y009258D03*
X012468Y009323D03*
X012468Y009329D03*
D27*
X008880Y009329D03*
X008850Y008904D03*
X008850Y008898D03*
X008041Y009495D03*
X008041Y009501D03*
X008041Y009506D03*
X008236Y009849D03*
X008236Y009855D03*
X008236Y009861D03*
X008880Y010020D03*
X007398Y010020D03*
X006677Y009861D03*
X006039Y009855D03*
X006039Y009849D03*
X005845Y009501D03*
X005845Y009495D03*
X006671Y009064D03*
X007398Y009329D03*
X006671Y008367D03*
D28*
X011160Y009766D03*
X011160Y009772D03*
X011160Y009778D03*
X011160Y009784D03*
X011160Y009790D03*
X011160Y009796D03*
X011160Y009802D03*
X011160Y009808D03*
X011160Y009814D03*
X011160Y009819D03*
X011160Y009825D03*
X011160Y009831D03*
X011160Y009837D03*
X011160Y009843D03*
X011160Y009849D03*
X011160Y009855D03*
X011160Y009861D03*
X011160Y009867D03*
X011160Y009873D03*
X011160Y009879D03*
X011160Y009884D03*
X011160Y009890D03*
X011160Y009896D03*
X011160Y009902D03*
X011160Y009908D03*
X011160Y009914D03*
X011160Y009920D03*
X011160Y009926D03*
X011160Y009932D03*
X011160Y009938D03*
X011160Y009943D03*
X011160Y009949D03*
X011160Y009955D03*
X011160Y009961D03*
X011160Y009967D03*
X011160Y009973D03*
X011160Y009979D03*
X011160Y009985D03*
X011160Y009991D03*
X011160Y009997D03*
X011160Y010003D03*
X011160Y010008D03*
X011160Y010014D03*
X011160Y010020D03*
X011160Y010026D03*
X011703Y009636D03*
X011703Y009630D03*
X011703Y009625D03*
X011703Y009619D03*
X011703Y009613D03*
X011703Y009607D03*
X011703Y009601D03*
X011703Y009595D03*
X011703Y009589D03*
X011703Y009583D03*
X011703Y009577D03*
X011703Y009571D03*
X011703Y009566D03*
X011703Y009560D03*
X011703Y009554D03*
X011703Y009548D03*
X011703Y009542D03*
X011703Y009536D03*
X011703Y009530D03*
X011703Y009524D03*
X011703Y009518D03*
X011703Y009512D03*
X011703Y009506D03*
X011703Y009501D03*
X011703Y009495D03*
X011703Y009489D03*
X011703Y009483D03*
X011703Y009477D03*
X011703Y009471D03*
X011703Y009465D03*
X011703Y009459D03*
X011703Y009453D03*
X011703Y009447D03*
X011703Y009441D03*
X011703Y009436D03*
X011703Y009430D03*
X011703Y009424D03*
X011703Y009418D03*
X011703Y009170D03*
X011703Y009164D03*
X011703Y009158D03*
X011703Y009152D03*
X011703Y009146D03*
X011703Y009140D03*
X011703Y009134D03*
X011703Y009129D03*
X011703Y009123D03*
X011703Y009117D03*
X011703Y009111D03*
X011703Y009105D03*
X011703Y009099D03*
X011703Y009093D03*
X011703Y009087D03*
X011703Y009081D03*
X011703Y009075D03*
X011703Y009069D03*
X011703Y009064D03*
X011703Y009058D03*
X011703Y009052D03*
X011703Y009046D03*
X011703Y009040D03*
X011703Y009034D03*
X011703Y009028D03*
X011703Y009022D03*
X011703Y009016D03*
X011703Y009010D03*
X011703Y009004D03*
X011703Y008999D03*
X011703Y008993D03*
X011703Y008987D03*
X011703Y008981D03*
X011703Y008975D03*
X011703Y008969D03*
X011703Y008963D03*
X011703Y008957D03*
X011703Y008951D03*
X011703Y008945D03*
X011703Y008940D03*
X011703Y008934D03*
X011703Y008928D03*
X011703Y008922D03*
X011703Y008916D03*
X011703Y008910D03*
X011703Y008904D03*
X011703Y008898D03*
X011703Y008892D03*
X011703Y008886D03*
X011703Y008880D03*
X011703Y008875D03*
X011703Y008869D03*
X011703Y008863D03*
X011703Y008857D03*
X011703Y008851D03*
X011703Y008845D03*
X011703Y008839D03*
X011703Y008833D03*
X011703Y008485D03*
X011703Y008479D03*
X011703Y008473D03*
X011703Y008467D03*
X011703Y008461D03*
X011703Y008455D03*
X011703Y008449D03*
X011703Y008443D03*
X011703Y008438D03*
X011703Y008432D03*
X011703Y008426D03*
X011703Y008420D03*
X011703Y008414D03*
X011703Y008408D03*
X011703Y008402D03*
X011703Y008396D03*
X011703Y008390D03*
X011703Y008384D03*
X011703Y008379D03*
X011703Y008373D03*
D29*
X011709Y008491D03*
X011709Y008497D03*
X011709Y008503D03*
X011709Y008508D03*
X011709Y008514D03*
X011709Y008520D03*
X011709Y008526D03*
X011709Y008532D03*
X011709Y008538D03*
X011709Y008544D03*
X011709Y008550D03*
X011709Y008556D03*
X011709Y008562D03*
X011709Y008567D03*
X011709Y008573D03*
X011709Y008579D03*
X011709Y008585D03*
X011709Y008591D03*
X011709Y008597D03*
X011709Y008603D03*
X011709Y008609D03*
X011709Y008615D03*
X011709Y008621D03*
X011709Y008627D03*
X011709Y008632D03*
X011709Y008638D03*
X011709Y008644D03*
X011709Y008650D03*
X011709Y008656D03*
X011709Y008662D03*
X011709Y008668D03*
X011709Y008674D03*
X011709Y008680D03*
X011709Y008686D03*
X011709Y008691D03*
X011709Y008697D03*
X011709Y008703D03*
X011709Y008709D03*
X011709Y008715D03*
X011709Y008721D03*
X011709Y008727D03*
X011709Y008733D03*
X011709Y008739D03*
X011709Y008745D03*
X011709Y008751D03*
X011709Y008756D03*
X011709Y008762D03*
X011709Y008768D03*
X011709Y008774D03*
X011709Y008780D03*
X011709Y008786D03*
X011709Y008792D03*
X011709Y008798D03*
X011709Y008804D03*
X011709Y008810D03*
X011709Y008816D03*
X011709Y008821D03*
X011709Y008827D03*
X012063Y008827D03*
X012063Y008821D03*
X012063Y008816D03*
X012063Y008810D03*
X012063Y008804D03*
X012063Y008798D03*
X012063Y008792D03*
X012063Y008786D03*
X012063Y008780D03*
X012063Y008774D03*
X012063Y008768D03*
X012063Y008762D03*
X012063Y008756D03*
X012063Y008751D03*
X012063Y008745D03*
X012063Y008739D03*
X012063Y008733D03*
X012063Y008727D03*
X012063Y008721D03*
X012063Y008715D03*
X012063Y008709D03*
X012063Y008703D03*
X012063Y008697D03*
X012063Y008691D03*
X012063Y008686D03*
X012063Y008680D03*
X012063Y008674D03*
X012063Y008668D03*
X012063Y008662D03*
X012063Y008656D03*
X012063Y008650D03*
X012063Y008644D03*
X012063Y008638D03*
X012063Y008632D03*
X012063Y008627D03*
X012063Y008621D03*
X012063Y008615D03*
X012063Y008609D03*
X012063Y008603D03*
X012063Y008597D03*
X012063Y008591D03*
X012063Y008585D03*
X012063Y008579D03*
X012063Y008573D03*
X012063Y008567D03*
X012063Y008562D03*
X012063Y008556D03*
X012063Y008550D03*
X012063Y008544D03*
X012063Y008538D03*
X012063Y008532D03*
X012063Y008526D03*
X012063Y008520D03*
X012063Y008514D03*
X012063Y008508D03*
X012063Y008503D03*
X012063Y008497D03*
X012063Y008491D03*
X011348Y008491D03*
X011348Y008497D03*
X011348Y008503D03*
X011348Y008508D03*
X011348Y008514D03*
X011348Y008520D03*
X011348Y008526D03*
X011348Y008532D03*
X011348Y008538D03*
X011348Y008544D03*
X011348Y008550D03*
X011348Y008556D03*
X011348Y008562D03*
X011348Y008567D03*
X011348Y008573D03*
X011348Y008579D03*
X011348Y008585D03*
X011348Y008591D03*
X011348Y008597D03*
X011348Y008603D03*
X011348Y008609D03*
X011348Y008615D03*
X011348Y008621D03*
X011348Y008627D03*
X011348Y008632D03*
X011348Y008638D03*
X011348Y008644D03*
X011348Y008650D03*
X011348Y008656D03*
X011348Y008662D03*
X011348Y008668D03*
X011348Y008674D03*
X011348Y008680D03*
X011348Y008686D03*
X011348Y008691D03*
X011348Y008697D03*
X011348Y008703D03*
X011348Y008709D03*
X011348Y008715D03*
X011348Y008721D03*
X011348Y008727D03*
X011348Y008733D03*
X011348Y008739D03*
X011348Y008745D03*
X011348Y008751D03*
X011348Y008756D03*
X011348Y008762D03*
X011348Y008768D03*
X011348Y008774D03*
X011348Y008780D03*
X011348Y008786D03*
X011348Y008792D03*
X011348Y008798D03*
X011348Y008804D03*
X011348Y008810D03*
X011348Y008816D03*
X011348Y008821D03*
X011348Y008827D03*
X009565Y008373D03*
X008850Y008875D03*
X008047Y009524D03*
X008047Y009530D03*
X008047Y009536D03*
X008230Y009814D03*
X008230Y009819D03*
X008230Y009825D03*
X007474Y009075D03*
X006600Y008680D03*
X005850Y009524D03*
X005850Y009530D03*
X005850Y009536D03*
X006034Y009814D03*
X006034Y009819D03*
X006034Y009825D03*
D30*
X005960Y009725D03*
X005960Y009719D03*
X005954Y009707D03*
X005954Y009701D03*
X005948Y009690D03*
X005942Y009678D03*
X005942Y009672D03*
X005936Y009660D03*
X005936Y009654D03*
X005930Y009642D03*
X005930Y009636D03*
X005924Y009625D03*
X005812Y009323D03*
X005812Y009317D03*
X006527Y009335D03*
X006533Y009359D03*
X006533Y009365D03*
X006538Y009388D03*
X006538Y009394D03*
X006544Y009412D03*
X006544Y009418D03*
X006544Y009424D03*
X006550Y009441D03*
X006550Y009447D03*
X006550Y009453D03*
X006556Y009465D03*
X006580Y009583D03*
X006580Y009589D03*
X006580Y009595D03*
X006586Y009613D03*
X006586Y009619D03*
X006592Y009642D03*
X006597Y009672D03*
X006757Y009648D03*
X006763Y009619D03*
X006769Y009595D03*
X006769Y009589D03*
X006792Y009465D03*
X006798Y009459D03*
X006798Y009453D03*
X006798Y009447D03*
X006798Y009441D03*
X006804Y009430D03*
X006804Y009424D03*
X006804Y009418D03*
X006810Y009400D03*
X006810Y009394D03*
X006810Y009388D03*
X006816Y009371D03*
X006816Y009365D03*
X006822Y009335D03*
X007277Y009477D03*
X007277Y009873D03*
X006674Y009997D03*
X006674Y010003D03*
X006674Y010008D03*
X006674Y010014D03*
X006072Y010026D03*
X006072Y010032D03*
X006550Y008869D03*
X006550Y008585D03*
X006550Y008579D03*
X006550Y008550D03*
X006550Y008544D03*
X006550Y008538D03*
X006550Y008532D03*
X007283Y008532D03*
X007283Y008538D03*
X007283Y008544D03*
X007283Y008898D03*
X007283Y008904D03*
X008003Y008910D03*
X008003Y008821D03*
X008080Y008656D03*
X008074Y008644D03*
X008074Y008638D03*
X008068Y008621D03*
X008062Y008603D03*
X008056Y008585D03*
X008050Y008567D03*
X008044Y008550D03*
X008712Y008414D03*
X008712Y008408D03*
X008718Y008432D03*
X008718Y008438D03*
X008718Y008443D03*
X008723Y008461D03*
X008723Y008467D03*
X008723Y008473D03*
X008729Y008485D03*
X008729Y008491D03*
X008729Y008497D03*
X008729Y008503D03*
X008753Y008615D03*
X008759Y008627D03*
X008759Y008632D03*
X008759Y008638D03*
X008765Y008662D03*
X008765Y008668D03*
X008771Y008691D03*
X008936Y008686D03*
X008942Y008656D03*
X008948Y008632D03*
X008948Y008627D03*
X008972Y008508D03*
X008972Y008503D03*
X008977Y008491D03*
X008977Y008485D03*
X008977Y008479D03*
X008983Y008461D03*
X008983Y008455D03*
X008983Y008449D03*
X008989Y008432D03*
X008989Y008426D03*
X008995Y008402D03*
X008995Y008396D03*
X009001Y008373D03*
X008706Y008379D03*
X008706Y008384D03*
X009450Y008562D03*
X009450Y008869D03*
X009562Y009075D03*
X009001Y009477D03*
X009001Y009483D03*
X009001Y009867D03*
X009001Y009873D03*
X008269Y010026D03*
X008269Y010032D03*
X008157Y009725D03*
X008157Y009719D03*
X008151Y009713D03*
X008151Y009707D03*
X008145Y009695D03*
X008145Y009690D03*
X008139Y009678D03*
X008139Y009672D03*
X008133Y009660D03*
X008133Y009654D03*
X008127Y009642D03*
X008121Y009630D03*
X008121Y009625D03*
X008009Y009323D03*
X008009Y009317D03*
X008853Y009052D03*
X008853Y009046D03*
X008853Y009040D03*
D31*
X008880Y009353D03*
X008880Y009997D03*
X007398Y009997D03*
X007398Y009353D03*
X006671Y009040D03*
X006683Y008739D03*
X006665Y008727D03*
X006660Y008721D03*
X006671Y008390D03*
X007445Y008373D03*
X009565Y008396D03*
X010947Y009229D03*
X010947Y009235D03*
X010947Y009359D03*
X012459Y009359D03*
X012459Y009365D03*
X012459Y009229D03*
X012459Y009223D03*
D32*
X008880Y009335D03*
X008201Y009075D03*
X008053Y009560D03*
X008053Y009566D03*
X008053Y009571D03*
X008224Y009784D03*
X008224Y009790D03*
X008880Y010014D03*
X007398Y010014D03*
X007315Y009707D03*
X007315Y009701D03*
X007315Y009695D03*
X007315Y009690D03*
X007315Y009684D03*
X007315Y009678D03*
X007315Y009672D03*
X007315Y009666D03*
X007315Y009660D03*
X007315Y009654D03*
X007315Y009648D03*
X007315Y009642D03*
X007315Y009636D03*
X007315Y009630D03*
X007315Y009625D03*
X007398Y009335D03*
X006671Y009058D03*
X006671Y008373D03*
X005856Y009560D03*
X005856Y009566D03*
X006028Y009778D03*
X006028Y009784D03*
X006028Y009790D03*
D33*
X006025Y009772D03*
X006025Y009766D03*
X005859Y009583D03*
X005859Y009577D03*
X005859Y009571D03*
X006727Y008768D03*
X008056Y009577D03*
X008056Y009583D03*
X008222Y009766D03*
X008222Y009772D03*
X008222Y009778D03*
X009568Y008379D03*
D34*
X009565Y008402D03*
X008880Y009359D03*
X008880Y009991D03*
X007398Y009991D03*
X007398Y009359D03*
X007439Y009058D03*
X006671Y009034D03*
X007439Y008379D03*
X010953Y009217D03*
X010953Y009377D03*
X012453Y009377D03*
X012453Y009211D03*
D35*
X008216Y009737D03*
X008216Y009743D03*
X008062Y009613D03*
X008062Y009607D03*
X007395Y009341D03*
X006716Y008762D03*
X006627Y008697D03*
X006674Y008379D03*
X005865Y009607D03*
X005865Y009613D03*
X006019Y009737D03*
X006019Y009743D03*
D36*
X006707Y008756D03*
X007457Y009069D03*
X007398Y010008D03*
X008880Y010008D03*
X008880Y009341D03*
X009565Y008384D03*
D37*
X009565Y008408D03*
X008880Y009365D03*
X008880Y009985D03*
X008165Y009058D03*
X008165Y008686D03*
X008165Y008680D03*
X008165Y008674D03*
X007433Y008384D03*
X006671Y009028D03*
X007398Y009365D03*
X007398Y009985D03*
X010959Y009388D03*
X010959Y009205D03*
X012447Y009199D03*
X012447Y009388D03*
D38*
X012465Y009347D03*
X012465Y009341D03*
X012465Y009335D03*
X012465Y009253D03*
X012465Y009247D03*
X010941Y009253D03*
X010941Y009258D03*
X010941Y009264D03*
X010941Y009323D03*
X010941Y009329D03*
X010941Y009335D03*
X009565Y008390D03*
X008880Y009347D03*
X008183Y009069D03*
X007398Y009347D03*
X006671Y009046D03*
X006636Y008703D03*
X006671Y008384D03*
X007398Y010003D03*
X008880Y010003D03*
D39*
X008162Y009052D03*
X008162Y008668D03*
X008162Y008662D03*
X007430Y008390D03*
X007430Y009046D03*
X006674Y008402D03*
X009562Y009022D03*
X010962Y009199D03*
X012444Y009394D03*
D40*
X012438Y009400D03*
X012438Y009188D03*
X010968Y009400D03*
X009562Y009010D03*
X009562Y008420D03*
X008157Y008697D03*
X008157Y009046D03*
X007424Y009034D03*
X007424Y008396D03*
X006674Y008414D03*
X006668Y009016D03*
D41*
X006674Y008396D03*
X007436Y009052D03*
X009562Y009028D03*
X010956Y009211D03*
X010956Y009382D03*
X010956Y008827D03*
X010956Y008821D03*
X010956Y008816D03*
X010956Y008810D03*
X010956Y008804D03*
X010956Y008798D03*
X010956Y008792D03*
X010956Y008786D03*
X010956Y008780D03*
X010956Y008774D03*
X010956Y008768D03*
X010956Y008762D03*
X010956Y008756D03*
X010956Y008751D03*
X010956Y008745D03*
X010956Y008739D03*
X010956Y008733D03*
X010956Y008727D03*
X010956Y008721D03*
X010956Y008715D03*
X010956Y008709D03*
X010956Y008703D03*
X010956Y008697D03*
X010956Y008691D03*
X010956Y008686D03*
X010956Y008680D03*
X010956Y008674D03*
X010956Y008668D03*
X010956Y008662D03*
X010956Y008656D03*
X010956Y008650D03*
X010956Y008644D03*
X010956Y008638D03*
X010956Y008632D03*
X010956Y008627D03*
X010956Y008621D03*
X010956Y008615D03*
X010956Y008609D03*
X010956Y008603D03*
X010956Y008597D03*
X010956Y008591D03*
X010956Y008585D03*
X010956Y008579D03*
X010956Y008573D03*
X010956Y008567D03*
X010956Y008562D03*
X010956Y008556D03*
X010956Y008550D03*
X010956Y008544D03*
X010956Y008538D03*
X010956Y008532D03*
X010956Y008526D03*
X010956Y008520D03*
X010956Y008514D03*
X010956Y008508D03*
X010956Y008503D03*
X010956Y008497D03*
X010956Y008491D03*
X012450Y009205D03*
X012450Y009382D03*
D42*
X010971Y009188D03*
X009565Y008426D03*
X008880Y009377D03*
X008880Y009967D03*
X008880Y009973D03*
X008154Y009040D03*
X007421Y009028D03*
X007398Y009377D03*
X007398Y009973D03*
X006671Y009010D03*
X007421Y008402D03*
D43*
X007418Y008408D03*
X007418Y009022D03*
X007395Y009382D03*
X007395Y009967D03*
X008151Y009034D03*
X008151Y008703D03*
X008883Y009382D03*
X009562Y009004D03*
X010973Y009406D03*
X012432Y009406D03*
X006674Y008420D03*
D44*
X006671Y008408D03*
X006671Y009022D03*
X007427Y009040D03*
X007398Y009371D03*
X007398Y009979D03*
X008880Y009979D03*
X008880Y009371D03*
X009565Y009016D03*
X009565Y008414D03*
X008160Y008691D03*
X010965Y009193D03*
X010965Y009394D03*
X012441Y009193D03*
D45*
X012429Y009182D03*
X010976Y009182D03*
X009565Y008999D03*
X009565Y008438D03*
X009565Y008432D03*
X008850Y008609D03*
X008148Y008709D03*
X008148Y009028D03*
X007415Y009016D03*
X007398Y009388D03*
X007398Y009961D03*
X006671Y009004D03*
X007415Y008420D03*
X007415Y008414D03*
X008880Y009388D03*
X008880Y009961D03*
D46*
X009562Y008993D03*
X009562Y008987D03*
X008853Y008603D03*
X008853Y008597D03*
X008853Y008591D03*
X008145Y008715D03*
X008145Y009022D03*
X007412Y009010D03*
X007412Y008426D03*
X006674Y008426D03*
X006674Y008432D03*
X006668Y008999D03*
X006674Y009548D03*
X006674Y009554D03*
X006674Y009560D03*
X006674Y009566D03*
X012426Y009412D03*
D47*
X010982Y009412D03*
X009571Y009418D03*
X008880Y009400D03*
X008880Y009394D03*
X008880Y009949D03*
X008880Y009955D03*
X008142Y009016D03*
X008142Y008721D03*
X008850Y008585D03*
X009565Y008449D03*
X009565Y008443D03*
X007410Y008438D03*
X007410Y008432D03*
X007410Y008999D03*
X007410Y009004D03*
X007398Y009394D03*
X007398Y009400D03*
X007398Y009949D03*
X007398Y009955D03*
X006671Y008993D03*
D48*
X006668Y008987D03*
X006674Y009518D03*
X006674Y009524D03*
X006674Y009530D03*
X006674Y009536D03*
X006674Y009542D03*
X007407Y008993D03*
X007407Y008987D03*
X007407Y008449D03*
X007407Y008443D03*
X006674Y008438D03*
X008139Y008727D03*
X008139Y008733D03*
X008139Y009004D03*
X008139Y009010D03*
X008853Y008579D03*
X008853Y008573D03*
X008853Y008567D03*
X009562Y008981D03*
X009568Y009317D03*
X009568Y009323D03*
X009568Y009329D03*
X009568Y009335D03*
X009568Y009341D03*
X009568Y009347D03*
X009568Y009353D03*
X009568Y009359D03*
X009568Y009365D03*
X009568Y009371D03*
X009568Y009377D03*
X009568Y009382D03*
X009568Y009388D03*
X009568Y009394D03*
X009568Y009400D03*
X009568Y009406D03*
X009568Y009412D03*
X010985Y009176D03*
X012420Y009176D03*
D49*
X008880Y009406D03*
X008880Y009412D03*
X008880Y009938D03*
X008880Y009943D03*
X008136Y008999D03*
X008136Y008739D03*
X008850Y008562D03*
X008850Y008556D03*
X007404Y008981D03*
X007398Y009406D03*
X007398Y009412D03*
X007398Y009938D03*
X007398Y009943D03*
X006671Y008981D03*
X006677Y008449D03*
X006677Y008443D03*
D50*
X006586Y008668D03*
X006580Y008975D03*
X005836Y009441D03*
X005836Y009447D03*
X005836Y009453D03*
X006048Y009896D03*
X006048Y009902D03*
X006048Y009908D03*
X006674Y009908D03*
X006674Y009902D03*
X006674Y009896D03*
X006674Y009890D03*
X007318Y008975D03*
X008038Y008975D03*
X008033Y009447D03*
X008033Y009453D03*
X008245Y009896D03*
X008245Y009902D03*
X008245Y009908D03*
X008853Y008945D03*
X008853Y008940D03*
X008853Y008934D03*
X009645Y008455D03*
D51*
X009562Y009064D03*
X008853Y008922D03*
X008853Y008916D03*
X008853Y008910D03*
X008038Y009477D03*
X008038Y009483D03*
X008038Y009489D03*
X008239Y009867D03*
X008239Y009873D03*
X006674Y009873D03*
X006674Y009879D03*
X006674Y009884D03*
X006674Y009867D03*
X006042Y009867D03*
X006042Y009873D03*
X006042Y009861D03*
X005842Y009489D03*
X005842Y009483D03*
X005842Y009477D03*
X006592Y008674D03*
X006751Y008786D03*
X006763Y008455D03*
X007324Y008455D03*
D52*
X006781Y008467D03*
X006574Y008461D03*
X006775Y008804D03*
X006568Y008963D03*
X006562Y008957D03*
X007300Y008963D03*
X007306Y008969D03*
X007294Y009424D03*
X008021Y009388D03*
X008021Y009382D03*
X008021Y008963D03*
X008853Y008987D03*
X008853Y008993D03*
X008853Y008999D03*
X009462Y008963D03*
X009468Y008969D03*
X009462Y008467D03*
X008257Y009961D03*
X008257Y009967D03*
X008257Y009973D03*
X006674Y009961D03*
X006674Y009955D03*
X006674Y009949D03*
X006674Y009943D03*
X006060Y009961D03*
X006060Y009967D03*
X006060Y009973D03*
X005824Y009388D03*
X005824Y009382D03*
X005824Y009377D03*
D53*
X005821Y009371D03*
X005821Y009365D03*
X006063Y009979D03*
X006063Y009985D03*
X006063Y009991D03*
X006677Y009967D03*
X007291Y009920D03*
X007504Y009920D03*
X007504Y009430D03*
X007291Y009430D03*
X007285Y009436D03*
X007297Y008957D03*
X006778Y008963D03*
X006784Y008816D03*
X006778Y008810D03*
X006559Y008945D03*
X006559Y008951D03*
X006565Y008650D03*
X006571Y008467D03*
X006789Y008473D03*
X006789Y008479D03*
X007297Y008473D03*
X007303Y008467D03*
X008018Y008774D03*
X008024Y008768D03*
X008018Y008957D03*
X008018Y009365D03*
X008018Y009371D03*
X008018Y009377D03*
X008260Y009979D03*
X008260Y009985D03*
X008260Y009991D03*
X008774Y009920D03*
X008986Y009920D03*
X008992Y009436D03*
X008986Y009430D03*
X008774Y009430D03*
X008850Y009010D03*
X008850Y009004D03*
X009459Y008957D03*
X009665Y008963D03*
X009665Y008467D03*
X009459Y008473D03*
D54*
X009562Y009034D03*
X008174Y009064D03*
X006674Y008733D03*
X010950Y009223D03*
X010950Y009365D03*
X010950Y009371D03*
X012456Y009371D03*
X012456Y009217D03*
X012456Y008827D03*
X012456Y008821D03*
X012456Y008816D03*
X012456Y008810D03*
X012456Y008804D03*
X012456Y008798D03*
X012456Y008792D03*
X012456Y008786D03*
X012456Y008780D03*
X012456Y008774D03*
X012456Y008768D03*
X012456Y008762D03*
X012456Y008756D03*
X012456Y008751D03*
X012456Y008745D03*
X012456Y008739D03*
X012456Y008733D03*
X012456Y008727D03*
X012456Y008721D03*
X012456Y008715D03*
X012456Y008709D03*
X012456Y008703D03*
X012456Y008697D03*
X012456Y008691D03*
X012456Y008686D03*
X012456Y008680D03*
X012456Y008674D03*
X012456Y008668D03*
X012456Y008662D03*
X012456Y008656D03*
X012456Y008650D03*
X012456Y008644D03*
X012456Y008638D03*
X012456Y008632D03*
X012456Y008627D03*
X012456Y008621D03*
X012456Y008615D03*
X012456Y008609D03*
X012456Y008603D03*
X012456Y008597D03*
X012456Y008591D03*
X012456Y008585D03*
X012456Y008579D03*
X012456Y008573D03*
X012456Y008567D03*
X012456Y008562D03*
X012456Y008556D03*
X012456Y008550D03*
X012456Y008544D03*
X012456Y008538D03*
X012456Y008532D03*
X012456Y008526D03*
X012456Y008520D03*
X012456Y008514D03*
X012456Y008508D03*
X012456Y008503D03*
X012456Y008497D03*
X012456Y008491D03*
D55*
X008853Y008514D03*
X008853Y008520D03*
X008853Y008526D03*
X006674Y009471D03*
X006674Y009477D03*
X006674Y009483D03*
X006674Y009489D03*
D56*
X008850Y008532D03*
D57*
X008853Y008538D03*
X008853Y008544D03*
X008853Y008550D03*
X008133Y008745D03*
X008133Y008751D03*
X008133Y008981D03*
X008133Y008987D03*
X008133Y008993D03*
X006674Y009495D03*
X006674Y009501D03*
X006674Y009506D03*
X006674Y009512D03*
D58*
X006677Y009914D03*
X007303Y009932D03*
X007398Y010026D03*
X007492Y009418D03*
X007398Y009323D03*
X007303Y009418D03*
X006671Y009069D03*
X006760Y008792D03*
X006577Y008662D03*
X005833Y009430D03*
X005833Y009436D03*
X006051Y009914D03*
X006051Y009920D03*
X008030Y009441D03*
X008030Y009436D03*
X008030Y009430D03*
X008248Y009914D03*
X008248Y009920D03*
X008248Y009926D03*
X008880Y010026D03*
X008974Y009932D03*
X008974Y009418D03*
X008880Y009323D03*
X008785Y009418D03*
X008850Y008957D03*
X008850Y008951D03*
X009476Y008975D03*
D59*
X009562Y009058D03*
X008853Y008869D03*
X008853Y008863D03*
X008050Y009542D03*
X008050Y009548D03*
X008050Y009554D03*
X008227Y009796D03*
X008227Y009802D03*
X008227Y009808D03*
X006674Y009819D03*
X006674Y009825D03*
X006674Y009831D03*
X006031Y009808D03*
X006031Y009802D03*
X006031Y009796D03*
X005853Y009554D03*
X005853Y009548D03*
X005853Y009542D03*
X006609Y008686D03*
X006733Y008774D03*
D60*
X006698Y008751D03*
X006692Y008745D03*
X006651Y008715D03*
X006645Y008709D03*
X007448Y009064D03*
X009562Y009040D03*
X010944Y009241D03*
X010944Y009247D03*
X010944Y009341D03*
X010944Y009347D03*
X010944Y009353D03*
X012462Y009353D03*
X012462Y009241D03*
X012462Y009235D03*
D61*
X010501Y008756D03*
D62*
X010498Y008762D03*
X010498Y008768D03*
X010498Y008774D03*
X010498Y008780D03*
X010498Y008786D03*
X010498Y008792D03*
X010498Y008798D03*
X010498Y008804D03*
X010498Y008810D03*
X010498Y008816D03*
X010498Y008821D03*
X010498Y008827D03*
X010498Y008833D03*
X010498Y008839D03*
X010498Y008845D03*
X010498Y008851D03*
X010498Y008857D03*
X010498Y008863D03*
X010498Y008869D03*
X010498Y008875D03*
X010498Y008880D03*
X010498Y008886D03*
X010498Y008892D03*
X010498Y008898D03*
X010498Y008904D03*
X010498Y008910D03*
X010498Y008916D03*
X010498Y008922D03*
X010498Y008928D03*
X010498Y008934D03*
X010498Y008940D03*
X010498Y008945D03*
X010498Y008951D03*
X010498Y008957D03*
X010498Y008963D03*
X010498Y008969D03*
X010498Y008975D03*
X010498Y008981D03*
X010498Y008987D03*
X010498Y008993D03*
X010498Y008999D03*
X010498Y009004D03*
X010498Y009010D03*
X010498Y009016D03*
X010498Y009022D03*
X010498Y009028D03*
X010498Y009034D03*
X010498Y009040D03*
X010498Y009046D03*
X010498Y009052D03*
X010498Y009058D03*
X010498Y009064D03*
X010498Y009069D03*
X010498Y009075D03*
X010498Y009081D03*
X010498Y009087D03*
X010498Y009093D03*
X010498Y009099D03*
X010498Y009105D03*
X010498Y009111D03*
X010498Y009117D03*
X010498Y009123D03*
X010498Y009129D03*
X010498Y009134D03*
X010498Y009140D03*
X010498Y009146D03*
X010498Y009152D03*
X010498Y009158D03*
X010498Y009164D03*
X010498Y009170D03*
X010498Y009176D03*
X010498Y009182D03*
X010498Y009188D03*
X010498Y009193D03*
X010498Y009199D03*
X010498Y009205D03*
X010498Y009211D03*
X010498Y009217D03*
X010498Y009223D03*
X010498Y009229D03*
X010498Y009235D03*
X010498Y009241D03*
X010498Y009247D03*
X010498Y009253D03*
X010498Y009258D03*
X010498Y009264D03*
X010498Y009270D03*
X010498Y009276D03*
X010498Y009282D03*
X010498Y009288D03*
X010498Y009294D03*
X010498Y009300D03*
X010498Y009306D03*
X010498Y009312D03*
X010498Y009317D03*
X010498Y009323D03*
X010498Y009329D03*
X010498Y009335D03*
X010498Y009341D03*
X010498Y009347D03*
X010498Y009353D03*
X010498Y009359D03*
X010498Y009365D03*
X010498Y009371D03*
X010498Y009377D03*
X010498Y009382D03*
X010498Y009388D03*
X010498Y009394D03*
X010498Y009400D03*
X010498Y009406D03*
X010498Y009412D03*
X010498Y009418D03*
X010498Y009424D03*
X010498Y009430D03*
X010498Y009436D03*
X010498Y009441D03*
X010498Y009447D03*
X010498Y009453D03*
X010498Y009459D03*
X010498Y009465D03*
X010498Y009471D03*
X010498Y009477D03*
X010498Y009483D03*
X010498Y009489D03*
X010498Y009495D03*
X010498Y009501D03*
X010498Y009506D03*
X010498Y009512D03*
X010498Y009518D03*
X010498Y009524D03*
X010498Y009530D03*
X010498Y009536D03*
X010498Y009542D03*
X010498Y009548D03*
X010498Y009554D03*
X010498Y009560D03*
X010498Y009566D03*
X010498Y009571D03*
X010498Y009577D03*
X010498Y009583D03*
X010498Y009589D03*
X010498Y009595D03*
X010498Y009601D03*
X010498Y009607D03*
X010498Y009613D03*
X010498Y009619D03*
X010498Y009625D03*
X010498Y009630D03*
X010498Y009636D03*
X010498Y009642D03*
X010498Y009648D03*
X010498Y009654D03*
X010498Y009660D03*
X010498Y009666D03*
X010498Y009672D03*
X010498Y009678D03*
X010498Y009684D03*
X010498Y009690D03*
X010498Y009695D03*
X010498Y009701D03*
X010498Y009707D03*
X010498Y009713D03*
X010498Y009719D03*
X010498Y009725D03*
X010498Y009731D03*
X010498Y009737D03*
X010498Y009743D03*
X010498Y009749D03*
X010498Y009754D03*
X010498Y009760D03*
D63*
X008853Y008892D03*
X008853Y008886D03*
X008853Y008880D03*
X008044Y009512D03*
X008044Y009518D03*
X008233Y009831D03*
X008233Y009837D03*
X008233Y009843D03*
X006674Y009843D03*
X006674Y009837D03*
X006674Y009849D03*
X006674Y009855D03*
X006036Y009843D03*
X006036Y009837D03*
X006036Y009831D03*
X005847Y009518D03*
X005847Y009512D03*
X005847Y009506D03*
X006745Y008780D03*
D64*
X008850Y009075D03*
D65*
X009562Y009081D03*
D66*
X006671Y009081D03*
D67*
X011706Y009176D03*
D68*
X011703Y009182D03*
D69*
X011703Y009188D03*
D70*
X011703Y009193D03*
D71*
X011703Y009199D03*
D72*
X011706Y009205D03*
D73*
X011706Y009211D03*
X011706Y009377D03*
D74*
X011703Y009217D03*
D75*
X011703Y009223D03*
D76*
X011706Y009229D03*
X011706Y009365D03*
D77*
X011706Y009353D03*
X011706Y009235D03*
D78*
X011703Y009241D03*
X011703Y009347D03*
D79*
X011706Y009341D03*
X011706Y009253D03*
X011706Y009247D03*
D80*
X011703Y009258D03*
X011703Y009329D03*
X011703Y009335D03*
D81*
X011706Y009323D03*
X011706Y009317D03*
X011706Y009276D03*
X011706Y009270D03*
X011706Y009264D03*
D82*
X011703Y009282D03*
X011703Y009288D03*
X011703Y009294D03*
X011703Y009300D03*
X011703Y009306D03*
X011703Y009312D03*
D83*
X008880Y009312D03*
X008880Y010038D03*
X007398Y010038D03*
X007398Y009312D03*
D84*
X011703Y009359D03*
D85*
X011706Y009371D03*
D86*
X011703Y009382D03*
D87*
X011706Y009388D03*
D88*
X011706Y009394D03*
D89*
X011703Y009400D03*
D90*
X011703Y009406D03*
D91*
X011706Y009412D03*
M02*
