G75*
G70*
%OFA0B0*%
%FSLAX24Y24*%
%IPPOS*%
%LPD*%
%AMOC8*
5,1,8,0,0,1.08239X$1,22.5*
%
%ADD10C,0.0100*%
%ADD11C,0.0000*%
D10*
X001547Y001364D02*
X001547Y011956D01*
X001549Y012023D01*
X001555Y012090D01*
X001564Y012157D01*
X001577Y012223D01*
X001594Y012288D01*
X001614Y012352D01*
X001638Y012415D01*
X001666Y012477D01*
X001697Y012536D01*
X001731Y012594D01*
X001768Y012650D01*
X001809Y012704D01*
X001852Y012756D01*
X001898Y012805D01*
X001947Y012851D01*
X001999Y012894D01*
X002053Y012935D01*
X002109Y012972D01*
X002167Y013006D01*
X002226Y013037D01*
X002288Y013065D01*
X002351Y013089D01*
X002415Y013109D01*
X002480Y013126D01*
X002546Y013139D01*
X002613Y013148D01*
X002680Y013154D01*
X002747Y013156D01*
X016292Y013156D01*
X016359Y013154D01*
X016426Y013148D01*
X016493Y013139D01*
X016559Y013126D01*
X016624Y013109D01*
X016688Y013089D01*
X016751Y013065D01*
X016813Y013037D01*
X016872Y013006D01*
X016930Y012972D01*
X016986Y012935D01*
X017040Y012894D01*
X017092Y012851D01*
X017141Y012805D01*
X017187Y012756D01*
X017230Y012704D01*
X017271Y012650D01*
X017308Y012594D01*
X017342Y012536D01*
X017373Y012477D01*
X017401Y012415D01*
X017425Y012352D01*
X017445Y012288D01*
X017462Y012223D01*
X017475Y012157D01*
X017484Y012090D01*
X017490Y012023D01*
X017492Y011956D01*
X017492Y001364D01*
X017490Y001297D01*
X017484Y001230D01*
X017475Y001163D01*
X017462Y001097D01*
X017445Y001032D01*
X017425Y000968D01*
X017401Y000905D01*
X017373Y000843D01*
X017342Y000784D01*
X017308Y000726D01*
X017271Y000670D01*
X017230Y000616D01*
X017187Y000564D01*
X017141Y000515D01*
X017092Y000469D01*
X017040Y000426D01*
X016986Y000385D01*
X016930Y000348D01*
X016872Y000314D01*
X016813Y000283D01*
X016751Y000255D01*
X016688Y000231D01*
X016624Y000211D01*
X016559Y000194D01*
X016493Y000181D01*
X016426Y000172D01*
X016359Y000166D01*
X016292Y000164D01*
X002747Y000164D01*
X002680Y000166D01*
X002613Y000172D01*
X002546Y000181D01*
X002480Y000194D01*
X002415Y000211D01*
X002351Y000231D01*
X002288Y000255D01*
X002226Y000283D01*
X002167Y000314D01*
X002109Y000348D01*
X002053Y000385D01*
X001999Y000426D01*
X001947Y000469D01*
X001898Y000515D01*
X001852Y000564D01*
X001809Y000616D01*
X001768Y000670D01*
X001731Y000726D01*
X001697Y000784D01*
X001666Y000843D01*
X001638Y000905D01*
X001614Y000968D01*
X001594Y001032D01*
X001577Y001097D01*
X001564Y001163D01*
X001555Y001230D01*
X001549Y001297D01*
X001547Y001364D01*
D11*
X002428Y011660D02*
X002430Y011708D01*
X002436Y011756D01*
X002446Y011803D01*
X002459Y011849D01*
X002477Y011894D01*
X002497Y011938D01*
X002522Y011980D01*
X002550Y012019D01*
X002580Y012056D01*
X002614Y012090D01*
X002651Y012122D01*
X002689Y012151D01*
X002730Y012176D01*
X002773Y012198D01*
X002818Y012216D01*
X002864Y012230D01*
X002911Y012241D01*
X002959Y012248D01*
X003007Y012251D01*
X003055Y012250D01*
X003103Y012245D01*
X003151Y012236D01*
X003197Y012224D01*
X003242Y012207D01*
X003286Y012187D01*
X003328Y012164D01*
X003368Y012137D01*
X003406Y012107D01*
X003441Y012074D01*
X003473Y012038D01*
X003503Y012000D01*
X003529Y011959D01*
X003551Y011916D01*
X003571Y011872D01*
X003586Y011827D01*
X003598Y011780D01*
X003606Y011732D01*
X003610Y011684D01*
X003610Y011636D01*
X003606Y011588D01*
X003598Y011540D01*
X003586Y011493D01*
X003571Y011448D01*
X003551Y011404D01*
X003529Y011361D01*
X003503Y011320D01*
X003473Y011282D01*
X003441Y011246D01*
X003406Y011213D01*
X003368Y011183D01*
X003328Y011156D01*
X003286Y011133D01*
X003242Y011113D01*
X003197Y011096D01*
X003151Y011084D01*
X003103Y011075D01*
X003055Y011070D01*
X003007Y011069D01*
X002959Y011072D01*
X002911Y011079D01*
X002864Y011090D01*
X002818Y011104D01*
X002773Y011122D01*
X002730Y011144D01*
X002689Y011169D01*
X002651Y011198D01*
X002614Y011230D01*
X002580Y011264D01*
X002550Y011301D01*
X002522Y011340D01*
X002497Y011382D01*
X002477Y011426D01*
X002459Y011471D01*
X002446Y011517D01*
X002436Y011564D01*
X002430Y011612D01*
X002428Y011660D01*
X015428Y011660D02*
X015430Y011708D01*
X015436Y011756D01*
X015446Y011803D01*
X015459Y011849D01*
X015477Y011894D01*
X015497Y011938D01*
X015522Y011980D01*
X015550Y012019D01*
X015580Y012056D01*
X015614Y012090D01*
X015651Y012122D01*
X015689Y012151D01*
X015730Y012176D01*
X015773Y012198D01*
X015818Y012216D01*
X015864Y012230D01*
X015911Y012241D01*
X015959Y012248D01*
X016007Y012251D01*
X016055Y012250D01*
X016103Y012245D01*
X016151Y012236D01*
X016197Y012224D01*
X016242Y012207D01*
X016286Y012187D01*
X016328Y012164D01*
X016368Y012137D01*
X016406Y012107D01*
X016441Y012074D01*
X016473Y012038D01*
X016503Y012000D01*
X016529Y011959D01*
X016551Y011916D01*
X016571Y011872D01*
X016586Y011827D01*
X016598Y011780D01*
X016606Y011732D01*
X016610Y011684D01*
X016610Y011636D01*
X016606Y011588D01*
X016598Y011540D01*
X016586Y011493D01*
X016571Y011448D01*
X016551Y011404D01*
X016529Y011361D01*
X016503Y011320D01*
X016473Y011282D01*
X016441Y011246D01*
X016406Y011213D01*
X016368Y011183D01*
X016328Y011156D01*
X016286Y011133D01*
X016242Y011113D01*
X016197Y011096D01*
X016151Y011084D01*
X016103Y011075D01*
X016055Y011070D01*
X016007Y011069D01*
X015959Y011072D01*
X015911Y011079D01*
X015864Y011090D01*
X015818Y011104D01*
X015773Y011122D01*
X015730Y011144D01*
X015689Y011169D01*
X015651Y011198D01*
X015614Y011230D01*
X015580Y011264D01*
X015550Y011301D01*
X015522Y011340D01*
X015497Y011382D01*
X015477Y011426D01*
X015459Y011471D01*
X015446Y011517D01*
X015436Y011564D01*
X015430Y011612D01*
X015428Y011660D01*
M02*
