G75*
G70*
%OFA0B0*%
%FSLAX24Y24*%
%IPPOS*%
%LPD*%
%AMOC8*
5,1,8,0,0,1.08239X$1,22.5*
%
%ADD10C,0.0100*%
%ADD11R,0.0787X0.2362*%
%ADD12R,0.0394X0.2362*%
%ADD13C,0.0000*%
%ADD14R,0.0550X0.0550*%
%ADD15C,0.0550*%
%ADD16R,0.0394X0.0591*%
%ADD17R,0.0591X0.0394*%
%ADD18C,0.0088*%
%ADD19R,0.0433X0.0157*%
%ADD20C,0.0394*%
%ADD21C,0.0010*%
%ADD22C,0.0118*%
%ADD23C,0.0120*%
%ADD24C,0.0200*%
%ADD25C,0.0240*%
D10*
X001547Y001364D02*
X001547Y011956D01*
X001549Y012023D01*
X001555Y012090D01*
X001564Y012157D01*
X001577Y012223D01*
X001594Y012288D01*
X001614Y012352D01*
X001638Y012415D01*
X001666Y012477D01*
X001697Y012536D01*
X001731Y012594D01*
X001768Y012650D01*
X001809Y012704D01*
X001852Y012756D01*
X001898Y012805D01*
X001947Y012851D01*
X001999Y012894D01*
X002053Y012935D01*
X002109Y012972D01*
X002167Y013006D01*
X002226Y013037D01*
X002288Y013065D01*
X002351Y013089D01*
X002415Y013109D01*
X002480Y013126D01*
X002546Y013139D01*
X002613Y013148D01*
X002680Y013154D01*
X002747Y013156D01*
X016292Y013156D01*
X016359Y013154D01*
X016426Y013148D01*
X016493Y013139D01*
X016559Y013126D01*
X016624Y013109D01*
X016688Y013089D01*
X016751Y013065D01*
X016813Y013037D01*
X016872Y013006D01*
X016930Y012972D01*
X016986Y012935D01*
X017040Y012894D01*
X017092Y012851D01*
X017141Y012805D01*
X017187Y012756D01*
X017230Y012704D01*
X017271Y012650D01*
X017308Y012594D01*
X017342Y012536D01*
X017373Y012477D01*
X017401Y012415D01*
X017425Y012352D01*
X017445Y012288D01*
X017462Y012223D01*
X017475Y012157D01*
X017484Y012090D01*
X017490Y012023D01*
X017492Y011956D01*
X017492Y001364D01*
X017490Y001297D01*
X017484Y001230D01*
X017475Y001163D01*
X017462Y001097D01*
X017445Y001032D01*
X017425Y000968D01*
X017401Y000905D01*
X017373Y000843D01*
X017342Y000784D01*
X017308Y000726D01*
X017271Y000670D01*
X017230Y000616D01*
X017187Y000564D01*
X017141Y000515D01*
X017092Y000469D01*
X017040Y000426D01*
X016986Y000385D01*
X016930Y000348D01*
X016872Y000314D01*
X016813Y000283D01*
X016751Y000255D01*
X016688Y000231D01*
X016624Y000211D01*
X016559Y000194D01*
X016493Y000181D01*
X016426Y000172D01*
X016359Y000166D01*
X016292Y000164D01*
X002747Y000164D01*
X002680Y000166D01*
X002613Y000172D01*
X002546Y000181D01*
X002480Y000194D01*
X002415Y000211D01*
X002351Y000231D01*
X002288Y000255D01*
X002226Y000283D01*
X002167Y000314D01*
X002109Y000348D01*
X002053Y000385D01*
X001999Y000426D01*
X001947Y000469D01*
X001898Y000515D01*
X001852Y000564D01*
X001809Y000616D01*
X001768Y000670D01*
X001731Y000726D01*
X001697Y000784D01*
X001666Y000843D01*
X001638Y000905D01*
X001614Y000968D01*
X001594Y001032D01*
X001577Y001097D01*
X001564Y001163D01*
X001555Y001230D01*
X001549Y001297D01*
X001547Y001364D01*
D11*
X002519Y001348D03*
X003519Y001348D03*
X004519Y001348D03*
X005519Y001348D03*
X006519Y001348D03*
X007519Y001348D03*
X008519Y001348D03*
X009519Y001348D03*
X010519Y001348D03*
X011519Y001348D03*
X012519Y001348D03*
X013519Y001348D03*
X014519Y001348D03*
X015519Y001348D03*
X016519Y001348D03*
D12*
X017314Y001348D03*
X001724Y001348D03*
D13*
X002428Y011660D02*
X002430Y011708D01*
X002436Y011756D01*
X002446Y011803D01*
X002459Y011849D01*
X002477Y011894D01*
X002497Y011938D01*
X002522Y011980D01*
X002550Y012019D01*
X002580Y012056D01*
X002614Y012090D01*
X002651Y012122D01*
X002689Y012151D01*
X002730Y012176D01*
X002773Y012198D01*
X002818Y012216D01*
X002864Y012230D01*
X002911Y012241D01*
X002959Y012248D01*
X003007Y012251D01*
X003055Y012250D01*
X003103Y012245D01*
X003151Y012236D01*
X003197Y012224D01*
X003242Y012207D01*
X003286Y012187D01*
X003328Y012164D01*
X003368Y012137D01*
X003406Y012107D01*
X003441Y012074D01*
X003473Y012038D01*
X003503Y012000D01*
X003529Y011959D01*
X003551Y011916D01*
X003571Y011872D01*
X003586Y011827D01*
X003598Y011780D01*
X003606Y011732D01*
X003610Y011684D01*
X003610Y011636D01*
X003606Y011588D01*
X003598Y011540D01*
X003586Y011493D01*
X003571Y011448D01*
X003551Y011404D01*
X003529Y011361D01*
X003503Y011320D01*
X003473Y011282D01*
X003441Y011246D01*
X003406Y011213D01*
X003368Y011183D01*
X003328Y011156D01*
X003286Y011133D01*
X003242Y011113D01*
X003197Y011096D01*
X003151Y011084D01*
X003103Y011075D01*
X003055Y011070D01*
X003007Y011069D01*
X002959Y011072D01*
X002911Y011079D01*
X002864Y011090D01*
X002818Y011104D01*
X002773Y011122D01*
X002730Y011144D01*
X002689Y011169D01*
X002651Y011198D01*
X002614Y011230D01*
X002580Y011264D01*
X002550Y011301D01*
X002522Y011340D01*
X002497Y011382D01*
X002477Y011426D01*
X002459Y011471D01*
X002446Y011517D01*
X002436Y011564D01*
X002430Y011612D01*
X002428Y011660D01*
X015428Y011660D02*
X015430Y011708D01*
X015436Y011756D01*
X015446Y011803D01*
X015459Y011849D01*
X015477Y011894D01*
X015497Y011938D01*
X015522Y011980D01*
X015550Y012019D01*
X015580Y012056D01*
X015614Y012090D01*
X015651Y012122D01*
X015689Y012151D01*
X015730Y012176D01*
X015773Y012198D01*
X015818Y012216D01*
X015864Y012230D01*
X015911Y012241D01*
X015959Y012248D01*
X016007Y012251D01*
X016055Y012250D01*
X016103Y012245D01*
X016151Y012236D01*
X016197Y012224D01*
X016242Y012207D01*
X016286Y012187D01*
X016328Y012164D01*
X016368Y012137D01*
X016406Y012107D01*
X016441Y012074D01*
X016473Y012038D01*
X016503Y012000D01*
X016529Y011959D01*
X016551Y011916D01*
X016571Y011872D01*
X016586Y011827D01*
X016598Y011780D01*
X016606Y011732D01*
X016610Y011684D01*
X016610Y011636D01*
X016606Y011588D01*
X016598Y011540D01*
X016586Y011493D01*
X016571Y011448D01*
X016551Y011404D01*
X016529Y011361D01*
X016503Y011320D01*
X016473Y011282D01*
X016441Y011246D01*
X016406Y011213D01*
X016368Y011183D01*
X016328Y011156D01*
X016286Y011133D01*
X016242Y011113D01*
X016197Y011096D01*
X016151Y011084D01*
X016103Y011075D01*
X016055Y011070D01*
X016007Y011069D01*
X015959Y011072D01*
X015911Y011079D01*
X015864Y011090D01*
X015818Y011104D01*
X015773Y011122D01*
X015730Y011144D01*
X015689Y011169D01*
X015651Y011198D01*
X015614Y011230D01*
X015580Y011264D01*
X015550Y011301D01*
X015522Y011340D01*
X015497Y011382D01*
X015477Y011426D01*
X015459Y011471D01*
X015446Y011517D01*
X015436Y011564D01*
X015430Y011612D01*
X015428Y011660D01*
D14*
X007019Y012160D03*
D15*
X008019Y012160D03*
X009019Y012160D03*
X010019Y012160D03*
X011019Y012160D03*
X012019Y012160D03*
D16*
X012551Y009379D03*
X013338Y009379D03*
X014125Y009379D03*
X014913Y009379D03*
X015700Y009379D03*
X016488Y009379D03*
X016488Y005441D03*
X015700Y005441D03*
X014913Y005441D03*
X014125Y005441D03*
X013338Y005441D03*
X012551Y005441D03*
D17*
X011566Y006229D03*
X011566Y007016D03*
X011566Y007804D03*
X011566Y008591D03*
D18*
X010200Y008641D02*
X009938Y008641D01*
X010200Y008641D02*
X010200Y008379D01*
X009938Y008379D01*
X009938Y008641D01*
X009938Y008466D02*
X010200Y008466D01*
X010200Y008553D02*
X009938Y008553D01*
X009938Y008640D02*
X010200Y008640D01*
X009600Y008641D02*
X009338Y008641D01*
X009600Y008641D02*
X009600Y008379D01*
X009338Y008379D01*
X009338Y008641D01*
X009338Y008466D02*
X009600Y008466D01*
X009600Y008553D02*
X009338Y008553D01*
X009338Y008640D02*
X009600Y008640D01*
X009600Y008041D02*
X009338Y008041D01*
X009600Y008041D02*
X009600Y007779D01*
X009338Y007779D01*
X009338Y008041D01*
X009338Y007866D02*
X009600Y007866D01*
X009600Y007953D02*
X009338Y007953D01*
X009338Y008040D02*
X009600Y008040D01*
X009938Y008041D02*
X010200Y008041D01*
X010200Y007779D01*
X009938Y007779D01*
X009938Y008041D01*
X009938Y007866D02*
X010200Y007866D01*
X010200Y007953D02*
X009938Y007953D01*
X009938Y008040D02*
X010200Y008040D01*
X010200Y007179D02*
X009938Y007179D01*
X009938Y007441D01*
X010200Y007441D01*
X010200Y007179D01*
X010200Y007266D02*
X009938Y007266D01*
X009938Y007353D02*
X010200Y007353D01*
X010200Y007440D02*
X009938Y007440D01*
X009600Y007179D02*
X009338Y007179D01*
X009338Y007441D01*
X009600Y007441D01*
X009600Y007179D01*
X009600Y007266D02*
X009338Y007266D01*
X009338Y007353D02*
X009600Y007353D01*
X009600Y007440D02*
X009338Y007440D01*
X009338Y006579D02*
X009600Y006579D01*
X009338Y006579D02*
X009338Y006841D01*
X009600Y006841D01*
X009600Y006579D01*
X009600Y006666D02*
X009338Y006666D01*
X009338Y006753D02*
X009600Y006753D01*
X009600Y006840D02*
X009338Y006840D01*
X009938Y006579D02*
X010200Y006579D01*
X009938Y006579D02*
X009938Y006841D01*
X010200Y006841D01*
X010200Y006579D01*
X010200Y006666D02*
X009938Y006666D01*
X009938Y006753D02*
X010200Y006753D01*
X010200Y006840D02*
X009938Y006840D01*
X009938Y005979D02*
X010200Y005979D01*
X009938Y005979D02*
X009938Y006241D01*
X010200Y006241D01*
X010200Y005979D01*
X010200Y006066D02*
X009938Y006066D01*
X009938Y006153D02*
X010200Y006153D01*
X010200Y006240D02*
X009938Y006240D01*
X009600Y005979D02*
X009338Y005979D01*
X009338Y006241D01*
X009600Y006241D01*
X009600Y005979D01*
X009600Y006066D02*
X009338Y006066D01*
X009338Y006153D02*
X009600Y006153D01*
X009600Y006240D02*
X009338Y006240D01*
X009338Y005379D02*
X009600Y005379D01*
X009338Y005379D02*
X009338Y005641D01*
X009600Y005641D01*
X009600Y005379D01*
X009600Y005466D02*
X009338Y005466D01*
X009338Y005553D02*
X009600Y005553D01*
X009600Y005640D02*
X009338Y005640D01*
X009938Y005379D02*
X010200Y005379D01*
X009938Y005379D02*
X009938Y005641D01*
X010200Y005641D01*
X010200Y005379D01*
X010200Y005466D02*
X009938Y005466D01*
X009938Y005553D02*
X010200Y005553D01*
X010200Y005640D02*
X009938Y005640D01*
X008288Y005741D02*
X008288Y005479D01*
X008288Y005741D02*
X008550Y005741D01*
X008550Y005479D01*
X008288Y005479D01*
X008288Y005566D02*
X008550Y005566D01*
X008550Y005653D02*
X008288Y005653D01*
X008288Y005740D02*
X008550Y005740D01*
X008288Y006079D02*
X008288Y006341D01*
X008550Y006341D01*
X008550Y006079D01*
X008288Y006079D01*
X008288Y006166D02*
X008550Y006166D01*
X008550Y006253D02*
X008288Y006253D01*
X008288Y006340D02*
X008550Y006340D01*
X007950Y006341D02*
X007950Y006079D01*
X007688Y006079D01*
X007688Y006341D01*
X007950Y006341D01*
X007950Y006166D02*
X007688Y006166D01*
X007688Y006253D02*
X007950Y006253D01*
X007950Y006340D02*
X007688Y006340D01*
X007350Y006341D02*
X007350Y006079D01*
X007088Y006079D01*
X007088Y006341D01*
X007350Y006341D01*
X007350Y006166D02*
X007088Y006166D01*
X007088Y006253D02*
X007350Y006253D01*
X007350Y006340D02*
X007088Y006340D01*
X006750Y006341D02*
X006750Y006079D01*
X006488Y006079D01*
X006488Y006341D01*
X006750Y006341D01*
X006750Y006166D02*
X006488Y006166D01*
X006488Y006253D02*
X006750Y006253D01*
X006750Y006340D02*
X006488Y006340D01*
X006750Y005741D02*
X006750Y005479D01*
X006488Y005479D01*
X006488Y005741D01*
X006750Y005741D01*
X006750Y005566D02*
X006488Y005566D01*
X006488Y005653D02*
X006750Y005653D01*
X006750Y005740D02*
X006488Y005740D01*
X007350Y005741D02*
X007350Y005479D01*
X007088Y005479D01*
X007088Y005741D01*
X007350Y005741D01*
X007350Y005566D02*
X007088Y005566D01*
X007088Y005653D02*
X007350Y005653D01*
X007350Y005740D02*
X007088Y005740D01*
X007950Y005741D02*
X007950Y005479D01*
X007688Y005479D01*
X007688Y005741D01*
X007950Y005741D01*
X007950Y005566D02*
X007688Y005566D01*
X007688Y005653D02*
X007950Y005653D01*
X007950Y005740D02*
X007688Y005740D01*
X005438Y006354D02*
X005438Y006616D01*
X005700Y006616D01*
X005700Y006354D01*
X005438Y006354D01*
X005438Y006441D02*
X005700Y006441D01*
X005700Y006528D02*
X005438Y006528D01*
X005438Y006615D02*
X005700Y006615D01*
X005438Y006954D02*
X005438Y007216D01*
X005700Y007216D01*
X005700Y006954D01*
X005438Y006954D01*
X005438Y007041D02*
X005700Y007041D01*
X005700Y007128D02*
X005438Y007128D01*
X005438Y007215D02*
X005700Y007215D01*
X005700Y007654D02*
X005438Y007654D01*
X005438Y007916D01*
X005700Y007916D01*
X005700Y007654D01*
X005700Y007741D02*
X005438Y007741D01*
X005438Y007828D02*
X005700Y007828D01*
X005700Y007915D02*
X005438Y007915D01*
X005100Y007654D02*
X004838Y007654D01*
X004838Y007916D01*
X005100Y007916D01*
X005100Y007654D01*
X005100Y007741D02*
X004838Y007741D01*
X004838Y007828D02*
X005100Y007828D01*
X005100Y007915D02*
X004838Y007915D01*
X004138Y007916D02*
X004138Y007654D01*
X004138Y007916D02*
X004400Y007916D01*
X004400Y007654D01*
X004138Y007654D01*
X004138Y007741D02*
X004400Y007741D01*
X004400Y007828D02*
X004138Y007828D01*
X004138Y007915D02*
X004400Y007915D01*
X004138Y008254D02*
X004138Y008516D01*
X004400Y008516D01*
X004400Y008254D01*
X004138Y008254D01*
X004138Y008341D02*
X004400Y008341D01*
X004400Y008428D02*
X004138Y008428D01*
X004138Y008515D02*
X004400Y008515D01*
X005438Y008616D02*
X005438Y008354D01*
X005438Y008616D02*
X005700Y008616D01*
X005700Y008354D01*
X005438Y008354D01*
X005438Y008441D02*
X005700Y008441D01*
X005700Y008528D02*
X005438Y008528D01*
X005438Y008615D02*
X005700Y008615D01*
X005438Y008954D02*
X005438Y009216D01*
X005700Y009216D01*
X005700Y008954D01*
X005438Y008954D01*
X005438Y009041D02*
X005700Y009041D01*
X005700Y009128D02*
X005438Y009128D01*
X005438Y009215D02*
X005700Y009215D01*
X007088Y009129D02*
X007350Y009129D01*
X007088Y009129D02*
X007088Y009391D01*
X007350Y009391D01*
X007350Y009129D01*
X007350Y009216D02*
X007088Y009216D01*
X007088Y009303D02*
X007350Y009303D01*
X007350Y009390D02*
X007088Y009390D01*
X007088Y009729D02*
X007350Y009729D01*
X007088Y009729D02*
X007088Y009991D01*
X007350Y009991D01*
X007350Y009729D01*
X007350Y009816D02*
X007088Y009816D01*
X007088Y009903D02*
X007350Y009903D01*
X007350Y009990D02*
X007088Y009990D01*
X007688Y009729D02*
X007950Y009729D01*
X007688Y009729D02*
X007688Y009991D01*
X007950Y009991D01*
X007950Y009729D01*
X007950Y009816D02*
X007688Y009816D01*
X007688Y009903D02*
X007950Y009903D01*
X007950Y009990D02*
X007688Y009990D01*
X007688Y009129D02*
X007950Y009129D01*
X007688Y009129D02*
X007688Y009391D01*
X007950Y009391D01*
X007950Y009129D01*
X007950Y009216D02*
X007688Y009216D01*
X007688Y009303D02*
X007950Y009303D01*
X007950Y009390D02*
X007688Y009390D01*
X007688Y008529D02*
X007950Y008529D01*
X007688Y008529D02*
X007688Y008791D01*
X007950Y008791D01*
X007950Y008529D01*
X007950Y008616D02*
X007688Y008616D01*
X007688Y008703D02*
X007950Y008703D01*
X007950Y008790D02*
X007688Y008790D01*
X007350Y008529D02*
X007088Y008529D01*
X007088Y008791D01*
X007350Y008791D01*
X007350Y008529D01*
X007350Y008616D02*
X007088Y008616D01*
X007088Y008703D02*
X007350Y008703D01*
X007350Y008790D02*
X007088Y008790D01*
D19*
X006594Y007794D03*
X006594Y007538D03*
X006594Y007282D03*
X006594Y007026D03*
X008444Y007026D03*
X008444Y007282D03*
X008444Y007538D03*
X008444Y007794D03*
D20*
X002769Y007785D02*
X002770Y007785D01*
X002770Y007784D01*
X002769Y007784D01*
X002768Y007784D01*
X002768Y007785D01*
X002768Y007786D01*
X002769Y007786D01*
X002770Y007786D01*
X002770Y007785D01*
D21*
X002782Y007254D02*
X002783Y007254D01*
X002783Y007334D01*
X002782Y007334D02*
X002782Y007254D01*
X002781Y007254D02*
X002781Y007334D01*
X002779Y007334D02*
X002779Y007254D01*
X002778Y007254D02*
X002778Y007334D01*
X002777Y007334D02*
X002777Y007254D01*
X002776Y007254D02*
X002776Y007334D01*
X002774Y007335D02*
X002774Y007254D01*
X002773Y007254D02*
X002773Y007335D01*
X002772Y007335D02*
X002772Y007254D01*
X002771Y007254D02*
X002771Y007335D01*
X002769Y007336D02*
X002769Y007254D01*
X002768Y007254D02*
X002768Y007336D01*
X002767Y007337D02*
X002767Y007254D01*
X002766Y007254D02*
X002766Y007337D01*
X002764Y007338D02*
X002764Y007254D01*
X002763Y007254D02*
X002763Y007338D01*
X002762Y007339D02*
X002762Y007254D01*
X002761Y007254D02*
X002761Y007340D01*
X002759Y007340D02*
X002759Y007254D01*
X002758Y007254D02*
X002758Y007341D01*
X002757Y007342D02*
X002757Y007254D01*
X002756Y007254D02*
X002756Y007343D01*
X002754Y007344D02*
X002754Y007254D01*
X002753Y007254D02*
X002753Y007345D01*
X002752Y007347D02*
X002752Y007254D01*
X002751Y007254D02*
X002751Y007348D01*
X002749Y007349D02*
X002749Y007254D01*
X002748Y007254D02*
X002748Y007351D01*
X002747Y007353D02*
X002747Y007254D01*
X002746Y007254D02*
X002746Y007355D01*
X002744Y007358D02*
X002744Y007254D01*
X002743Y007254D02*
X002743Y007361D01*
X002742Y007365D02*
X002742Y007254D01*
X002741Y007254D02*
X002741Y007429D01*
X002742Y007429D02*
X002742Y007382D01*
X002743Y007387D02*
X002743Y007429D01*
X002744Y007429D02*
X002744Y007390D01*
X002746Y007393D02*
X002746Y007429D01*
X002747Y007429D02*
X002747Y007395D01*
X002748Y007397D02*
X002748Y007429D01*
X002749Y007428D02*
X002749Y007398D01*
X002751Y007400D02*
X002751Y007428D01*
X002752Y007428D02*
X002752Y007401D01*
X002753Y007403D02*
X002753Y007428D01*
X002754Y007428D02*
X002754Y007404D01*
X002756Y007405D02*
X002756Y007428D01*
X002757Y007428D02*
X002757Y007406D01*
X002758Y007407D02*
X002758Y007428D01*
X002759Y007428D02*
X002759Y007408D01*
X002761Y007408D02*
X002761Y007428D01*
X002762Y007428D02*
X002762Y007409D01*
X002763Y007410D02*
X002763Y007428D01*
X002764Y007428D02*
X002764Y007410D01*
X002766Y007411D02*
X002766Y007428D01*
X002767Y007428D02*
X002767Y007411D01*
X002768Y007412D02*
X002768Y007428D01*
X002769Y007428D02*
X002769Y007412D01*
X002771Y007412D02*
X002771Y007428D01*
X002772Y007428D02*
X002772Y007413D01*
X002773Y007413D02*
X002773Y007428D01*
X002774Y007428D02*
X002774Y007413D01*
X002776Y007413D02*
X002776Y007428D01*
X002777Y007428D02*
X002777Y007414D01*
X002778Y007414D02*
X002778Y007428D01*
X002779Y007428D02*
X002779Y007414D01*
X002781Y007414D02*
X002781Y007428D01*
X002782Y007428D02*
X002782Y007414D01*
X002783Y007414D02*
X002783Y007428D01*
X002784Y007428D02*
X002784Y007414D01*
X002786Y007414D02*
X002786Y007428D01*
X002787Y007428D02*
X002787Y007413D01*
X002788Y007413D02*
X002788Y007428D01*
X002789Y007428D02*
X002789Y007413D01*
X002791Y007413D02*
X002791Y007429D01*
X002792Y007429D02*
X002792Y007412D01*
X002793Y007412D02*
X002793Y007429D01*
X002794Y007429D02*
X002794Y007411D01*
X002796Y007411D02*
X002796Y007429D01*
X002797Y007429D02*
X002797Y007410D01*
X002798Y007410D02*
X002798Y007429D01*
X002799Y007429D02*
X002799Y007409D01*
X002801Y007409D02*
X002801Y007429D01*
X002802Y007429D02*
X002802Y007408D01*
X002803Y007407D02*
X002803Y007430D01*
X002804Y007430D02*
X002804Y007406D01*
X002806Y007405D02*
X002806Y007430D01*
X002807Y007430D02*
X002807Y007404D01*
X002808Y007403D02*
X002808Y007430D01*
X002809Y007430D02*
X002809Y007402D01*
X002811Y007400D02*
X002811Y007430D01*
X002812Y007430D02*
X002812Y007399D01*
X002813Y007397D02*
X002813Y007431D01*
X002814Y007431D02*
X002814Y007395D01*
X002816Y007393D02*
X002816Y007431D01*
X002817Y007431D02*
X002817Y007391D01*
X002818Y007388D02*
X002818Y007431D01*
X002819Y007431D02*
X002819Y007384D01*
X002821Y007376D02*
X002821Y007432D01*
X002822Y007432D02*
X002822Y007256D01*
X002823Y007256D02*
X002823Y007432D01*
X002824Y007432D02*
X002824Y007256D01*
X002826Y007257D02*
X002826Y007432D01*
X002827Y007433D02*
X002827Y007257D01*
X002828Y007257D02*
X002828Y007433D01*
X002829Y007433D02*
X002829Y007257D01*
X002831Y007257D02*
X002831Y007433D01*
X002832Y007433D02*
X002832Y007257D01*
X002833Y007257D02*
X002833Y007434D01*
X002834Y007434D02*
X002834Y007258D01*
X002836Y007258D02*
X002836Y007434D01*
X002837Y007434D02*
X002837Y007258D01*
X002838Y007258D02*
X002838Y007435D01*
X002839Y007435D02*
X002839Y007258D01*
X002841Y007258D02*
X002841Y007435D01*
X002842Y007435D02*
X002842Y007259D01*
X002843Y007259D02*
X002843Y007436D01*
X002844Y007436D02*
X002844Y007259D01*
X002846Y007259D02*
X002846Y007436D01*
X002847Y007436D02*
X002847Y007259D01*
X002848Y007259D02*
X002848Y007437D01*
X002849Y007437D02*
X002849Y007260D01*
X002851Y007260D02*
X002851Y007437D01*
X002852Y007438D02*
X002852Y007260D01*
X002853Y007260D02*
X002853Y007438D01*
X002854Y007438D02*
X002854Y007260D01*
X002856Y007261D02*
X002856Y007439D01*
X002857Y007439D02*
X002857Y007261D01*
X002858Y007261D02*
X002858Y007439D01*
X002859Y007440D02*
X002859Y007261D01*
X002861Y007261D02*
X002861Y007440D01*
X002862Y007440D02*
X002862Y007262D01*
X002863Y007262D02*
X002863Y007441D01*
X002864Y007441D02*
X002864Y007262D01*
X002866Y007262D02*
X002866Y007441D01*
X002867Y007442D02*
X002867Y007263D01*
X002868Y007263D02*
X002868Y007442D01*
X002869Y007442D02*
X002869Y007263D01*
X002871Y007263D02*
X002871Y007443D01*
X002872Y007443D02*
X002872Y007264D01*
X002873Y007264D02*
X002873Y007443D01*
X002874Y007444D02*
X002874Y007264D01*
X002876Y007264D02*
X002876Y007444D01*
X002877Y007445D02*
X002877Y007265D01*
X002878Y007265D02*
X002878Y007445D01*
X002879Y007445D02*
X002879Y007265D01*
X002881Y007265D02*
X002881Y007446D01*
X002882Y007446D02*
X002882Y007266D01*
X002883Y007266D02*
X002883Y007447D01*
X002884Y007447D02*
X002884Y007266D01*
X002886Y007266D02*
X002886Y007447D01*
X002887Y007448D02*
X002887Y007267D01*
X002888Y007267D02*
X002888Y007448D01*
X002889Y007449D02*
X002889Y007267D01*
X002891Y007268D02*
X002891Y007449D01*
X002892Y007450D02*
X002892Y007268D01*
X002893Y007268D02*
X002893Y007450D01*
X002894Y007451D02*
X002894Y007268D01*
X002896Y007269D02*
X002896Y007451D01*
X002897Y007452D02*
X002897Y007269D01*
X002898Y007269D02*
X002898Y007452D01*
X002899Y007453D02*
X002899Y007270D01*
X002901Y007270D02*
X002901Y007453D01*
X002902Y007454D02*
X002902Y007270D01*
X002903Y007271D02*
X002903Y007454D01*
X002904Y007455D02*
X002904Y007271D01*
X002906Y007271D02*
X002906Y007455D01*
X002907Y007456D02*
X002907Y007272D01*
X002908Y007272D02*
X002908Y007456D01*
X002909Y007457D02*
X002909Y007272D01*
X002911Y007273D02*
X002911Y007457D01*
X002912Y007458D02*
X002912Y007273D01*
X002913Y007273D02*
X002913Y007458D01*
X002914Y007459D02*
X002914Y007274D01*
X002916Y007274D02*
X002916Y007459D01*
X002917Y007460D02*
X002917Y007274D01*
X002918Y007275D02*
X002918Y007460D01*
X002919Y007461D02*
X002919Y007275D01*
X002921Y007276D02*
X002921Y007462D01*
X002922Y007462D02*
X002922Y007276D01*
X002923Y007276D02*
X002923Y007463D01*
X002924Y007463D02*
X002924Y007277D01*
X002926Y007277D02*
X002926Y007464D01*
X002927Y007465D02*
X002927Y007277D01*
X002928Y007278D02*
X002928Y007465D01*
X002929Y007466D02*
X002929Y007278D01*
X002931Y007279D02*
X002931Y007467D01*
X002932Y007467D02*
X002932Y007279D01*
X002933Y007279D02*
X002933Y007468D01*
X002934Y007468D02*
X002934Y007280D01*
X002936Y007280D02*
X002936Y007469D01*
X002937Y007470D02*
X002937Y007281D01*
X002938Y007281D02*
X002938Y007470D01*
X002939Y007471D02*
X002939Y007282D01*
X002941Y007282D02*
X002941Y007472D01*
X002942Y007472D02*
X002942Y007282D01*
X002943Y007283D02*
X002943Y007473D01*
X002944Y007474D02*
X002944Y007283D01*
X002946Y007284D02*
X002946Y007475D01*
X002947Y007475D02*
X002947Y007284D01*
X002948Y007285D02*
X002948Y007476D01*
X002949Y007477D02*
X002949Y007285D01*
X002951Y007285D02*
X002951Y007477D01*
X002952Y007478D02*
X002952Y007286D01*
X002953Y007286D02*
X002953Y007479D01*
X002954Y007480D02*
X002954Y007287D01*
X002956Y007287D02*
X002956Y007481D01*
X002957Y007481D02*
X002957Y007288D01*
X002958Y007288D02*
X002958Y007482D01*
X002959Y007483D02*
X002959Y007289D01*
X002961Y007289D02*
X002961Y007484D01*
X002962Y007484D02*
X002962Y007290D01*
X002963Y007290D02*
X002963Y007485D01*
X002964Y007486D02*
X002964Y007291D01*
X002966Y007291D02*
X002966Y007487D01*
X002967Y007488D02*
X002967Y007292D01*
X002968Y007292D02*
X002968Y007489D01*
X002969Y007489D02*
X002969Y007293D01*
X002971Y007293D02*
X002971Y007490D01*
X002972Y007491D02*
X002972Y007294D01*
X002973Y007294D02*
X002973Y007492D01*
X002974Y007493D02*
X002974Y007295D01*
X002976Y007295D02*
X002976Y007494D01*
X002977Y007495D02*
X002977Y007296D01*
X002978Y007296D02*
X002978Y007495D01*
X002979Y007496D02*
X002979Y007297D01*
X002981Y007297D02*
X002981Y007497D01*
X002982Y007498D02*
X002982Y007298D01*
X002983Y007299D02*
X002983Y007499D01*
X002984Y007500D02*
X002984Y007299D01*
X002986Y007300D02*
X002986Y007501D01*
X002987Y007502D02*
X002987Y007300D01*
X002988Y007301D02*
X002988Y007503D01*
X002989Y007504D02*
X002989Y007301D01*
X002991Y007302D02*
X002991Y007505D01*
X002992Y007506D02*
X002992Y007302D01*
X002993Y007303D02*
X002993Y007507D01*
X002994Y007508D02*
X002994Y007304D01*
X002996Y007304D02*
X002996Y007509D01*
X002997Y007510D02*
X002997Y007305D01*
X002998Y007305D02*
X002998Y007511D01*
X002999Y007512D02*
X002999Y007306D01*
X003001Y007307D02*
X003001Y007513D01*
X003002Y007514D02*
X003002Y007307D01*
X003003Y007308D02*
X003003Y007515D01*
X003004Y007516D02*
X003004Y007308D01*
X003006Y007309D02*
X003006Y007517D01*
X003007Y007519D02*
X003007Y007310D01*
X003008Y007310D02*
X003008Y007520D01*
X003009Y007521D02*
X003009Y007311D01*
X003011Y007312D02*
X003011Y007522D01*
X003012Y007523D02*
X003012Y007312D01*
X003013Y007313D02*
X003013Y007524D01*
X003014Y007525D02*
X003014Y007313D01*
X003016Y007314D02*
X003016Y007527D01*
X003017Y007528D02*
X003017Y007315D01*
X003018Y007315D02*
X003018Y007529D01*
X003019Y007530D02*
X003019Y007316D01*
X003021Y007317D02*
X003021Y007532D01*
X003022Y007532D02*
X003022Y007317D01*
X003023Y007318D02*
X003023Y007531D01*
X003022Y007532D01*
X003023Y007531D02*
X003024Y007530D01*
X003024Y007319D01*
X003026Y007320D02*
X003026Y007528D01*
X003024Y007530D01*
X003026Y007528D02*
X003027Y007527D01*
X003027Y007320D01*
X003028Y007321D02*
X003028Y007526D01*
X003027Y007527D01*
X003028Y007526D02*
X003029Y007525D01*
X003029Y007322D01*
X003031Y007322D02*
X003031Y007523D01*
X003029Y007525D01*
X003031Y007523D02*
X003032Y007522D01*
X003032Y007323D01*
X003033Y007324D02*
X003033Y007521D01*
X003032Y007522D01*
X003033Y007521D02*
X003034Y007520D01*
X003034Y007324D01*
X003036Y007325D02*
X003036Y007518D01*
X003034Y007520D01*
X003036Y007518D02*
X003037Y007517D01*
X003037Y007326D01*
X003038Y007327D02*
X003038Y007516D01*
X003037Y007517D01*
X003038Y007516D02*
X003039Y007515D01*
X003039Y007327D01*
X003041Y007328D02*
X003041Y007513D01*
X003039Y007515D01*
X003041Y007513D02*
X003042Y007512D01*
X003042Y007329D01*
X003043Y007330D02*
X003043Y007511D01*
X003042Y007512D01*
X003043Y007511D02*
X003044Y007510D01*
X003044Y007330D01*
X003046Y007331D02*
X003046Y007508D01*
X003044Y007510D01*
X003046Y007508D02*
X003047Y007507D01*
X003047Y007332D01*
X003048Y007333D02*
X003048Y007506D01*
X003047Y007507D01*
X003048Y007506D02*
X003049Y007505D01*
X003049Y007333D01*
X003051Y007334D02*
X003051Y007503D01*
X003049Y007505D01*
X003051Y007503D02*
X003052Y007502D01*
X003052Y007335D01*
X003053Y007336D02*
X003053Y007501D01*
X003052Y007502D01*
X003053Y007501D02*
X003054Y007500D01*
X003054Y007337D01*
X003056Y007337D02*
X003056Y007498D01*
X003054Y007500D01*
X003056Y007498D02*
X003057Y007497D01*
X003057Y007338D01*
X003058Y007339D02*
X003058Y007496D01*
X003057Y007497D01*
X003058Y007496D02*
X003059Y007495D01*
X003059Y007340D01*
X003061Y007341D02*
X003061Y007493D01*
X003059Y007495D01*
X003061Y007493D02*
X003062Y007492D01*
X003062Y007341D01*
X003063Y007342D02*
X003063Y007491D01*
X003062Y007492D01*
X003063Y007491D02*
X003064Y007490D01*
X003064Y007343D01*
X003066Y007344D02*
X003066Y007488D01*
X003064Y007490D01*
X003066Y007488D02*
X003067Y007487D01*
X003067Y007345D01*
X003068Y007346D02*
X003068Y007486D01*
X003067Y007487D01*
X003068Y007486D02*
X003069Y007485D01*
X003069Y007346D01*
X003071Y007347D02*
X003071Y007483D01*
X003069Y007485D01*
X003071Y007483D02*
X003072Y007482D01*
X003072Y007348D01*
X003073Y007349D02*
X003073Y007481D01*
X003072Y007482D01*
X003073Y007481D02*
X003074Y007480D01*
X003074Y007350D01*
X003076Y007351D02*
X003076Y007478D01*
X003074Y007480D01*
X003076Y007478D02*
X003077Y007477D01*
X003077Y007352D01*
X003078Y007353D02*
X003078Y007476D01*
X003077Y007477D01*
X003078Y007476D02*
X003079Y007475D01*
X003079Y007353D01*
X003081Y007354D02*
X003081Y007473D01*
X003079Y007475D01*
X003081Y007473D02*
X003082Y007472D01*
X003082Y007355D01*
X003083Y007356D02*
X003083Y007471D01*
X003082Y007472D01*
X003083Y007471D02*
X003084Y007470D01*
X003084Y007357D01*
X003086Y007358D02*
X003086Y007468D01*
X003084Y007470D01*
X003086Y007468D02*
X003087Y007467D01*
X003087Y007359D01*
X003088Y007360D02*
X003088Y007466D01*
X003087Y007467D01*
X003088Y007466D02*
X003089Y007465D01*
X003089Y007361D01*
X003091Y007362D02*
X003091Y007463D01*
X003089Y007465D01*
X003091Y007463D02*
X003092Y007462D01*
X003092Y007363D01*
X003093Y007364D02*
X003093Y007461D01*
X003092Y007462D01*
X003093Y007461D02*
X003094Y007460D01*
X003094Y007365D01*
X003096Y007366D02*
X003096Y007458D01*
X003094Y007460D01*
X003096Y007458D02*
X003097Y007457D01*
X003097Y007367D01*
X003098Y007368D02*
X003098Y007456D01*
X003097Y007457D01*
X003098Y007456D02*
X003099Y007455D01*
X003099Y007369D01*
X003101Y007370D02*
X003101Y007453D01*
X003099Y007455D01*
X003101Y007453D02*
X003102Y007452D01*
X003102Y007371D01*
X003103Y007372D02*
X003103Y007451D01*
X003102Y007452D01*
X003103Y007451D02*
X003104Y007450D01*
X003104Y007373D01*
X003106Y007374D02*
X003106Y007448D01*
X003104Y007450D01*
X003106Y007448D02*
X003107Y007447D01*
X003107Y007375D01*
X003108Y007376D02*
X003108Y007446D01*
X003107Y007447D01*
X003108Y007446D02*
X003109Y007445D01*
X003109Y007377D01*
X003111Y007378D02*
X003111Y007443D01*
X003109Y007445D01*
X003111Y007443D02*
X003112Y007442D01*
X003112Y007379D01*
X003113Y007380D02*
X003113Y007441D01*
X003112Y007442D01*
X003113Y007441D02*
X003114Y007440D01*
X003114Y007381D01*
X003116Y007382D02*
X003116Y007438D01*
X003114Y007440D01*
X003116Y007438D02*
X003117Y007437D01*
X003117Y007383D01*
X003118Y007384D02*
X003118Y007436D01*
X003117Y007437D01*
X003118Y007436D02*
X003119Y007435D01*
X003119Y007385D01*
X003121Y007386D02*
X003121Y007433D01*
X003119Y007435D01*
X003121Y007433D02*
X003122Y007432D01*
X003122Y007387D01*
X003123Y007389D02*
X003123Y007431D01*
X003122Y007432D01*
X003123Y007431D02*
X003124Y007430D01*
X003124Y007390D01*
X003126Y007391D02*
X003126Y007428D01*
X003124Y007430D01*
X003126Y007428D02*
X003127Y007427D01*
X003127Y007392D01*
X003128Y007393D02*
X003128Y007426D01*
X003127Y007427D01*
X003128Y007426D02*
X003129Y007425D01*
X003129Y007394D01*
X003131Y007395D02*
X003131Y007423D01*
X003129Y007425D01*
X003131Y007423D02*
X003132Y007422D01*
X003132Y007397D01*
X003133Y007398D02*
X003133Y007421D01*
X003132Y007422D01*
X003133Y007421D02*
X003134Y007420D01*
X003134Y007399D01*
X003136Y007400D02*
X003136Y007418D01*
X003134Y007420D01*
X003136Y007418D02*
X003137Y007417D01*
X003137Y007401D01*
X003138Y007403D02*
X003138Y007416D01*
X003137Y007417D01*
X003138Y007416D02*
X003139Y007415D01*
X003139Y007404D01*
X003141Y007405D02*
X003141Y007413D01*
X003139Y007415D01*
X003141Y007413D02*
X003142Y007412D01*
X003142Y007406D01*
X003143Y007407D02*
X003143Y007411D01*
X003142Y007412D01*
X003143Y007411D02*
X003144Y007410D01*
X003144Y007409D01*
X003145Y007409D02*
X003144Y007410D01*
X002821Y007372D02*
X002821Y007256D01*
X002819Y007256D02*
X002819Y007364D01*
X002818Y007360D02*
X002818Y007256D01*
X002817Y007256D02*
X002817Y007357D01*
X002816Y007355D02*
X002816Y007256D01*
X002814Y007255D02*
X002814Y007352D01*
X002813Y007351D02*
X002813Y007255D01*
X002812Y007255D02*
X002812Y007349D01*
X002811Y007347D02*
X002811Y007255D01*
X002809Y007255D02*
X002809Y007346D01*
X002808Y007345D02*
X002808Y007255D01*
X002807Y007255D02*
X002807Y007344D01*
X002806Y007343D02*
X002806Y007255D01*
X002804Y007255D02*
X002804Y007342D01*
X002803Y007341D02*
X002803Y007255D01*
X002802Y007255D02*
X002802Y007340D01*
X002801Y007339D02*
X002801Y007254D01*
X002799Y007254D02*
X002799Y007339D01*
X002798Y007338D02*
X002798Y007254D01*
X002797Y007254D02*
X002797Y007337D01*
X002796Y007337D02*
X002796Y007254D01*
X002794Y007254D02*
X002794Y007336D01*
X002793Y007336D02*
X002793Y007254D01*
X002792Y007254D02*
X002792Y007336D01*
X002791Y007335D02*
X002791Y007254D01*
X002789Y007254D02*
X002789Y007335D01*
X002788Y007335D02*
X002788Y007254D01*
X002787Y007254D02*
X002787Y007335D01*
X002786Y007334D02*
X002786Y007254D01*
X002784Y007254D02*
X002784Y007334D01*
X002741Y007374D02*
X002743Y007386D01*
X002749Y007398D01*
X002757Y007406D01*
X002769Y007412D01*
X002781Y007414D01*
X002793Y007412D01*
X002805Y007406D01*
X002813Y007398D01*
X002819Y007386D01*
X002821Y007374D01*
X002819Y007362D01*
X002813Y007350D01*
X002805Y007342D01*
X002793Y007336D01*
X002781Y007334D01*
X002769Y007336D01*
X002757Y007342D01*
X002749Y007350D01*
X002743Y007362D01*
X002741Y007374D01*
X002739Y007429D02*
X002739Y007254D01*
X002738Y007254D02*
X002738Y007429D01*
X002737Y007429D02*
X002737Y007254D01*
X002736Y007255D02*
X002736Y007429D01*
X002734Y007430D02*
X002734Y007255D01*
X002733Y007255D02*
X002733Y007430D01*
X002732Y007430D02*
X002732Y007255D01*
X002731Y007255D02*
X002731Y007430D01*
X002729Y007430D02*
X002729Y007255D01*
X002728Y007255D02*
X002728Y007430D01*
X002727Y007430D02*
X002727Y007255D01*
X002726Y007255D02*
X002726Y007431D01*
X002724Y007431D02*
X002724Y007255D01*
X002723Y007255D02*
X002723Y007431D01*
X002722Y007431D02*
X002722Y007256D01*
X002721Y007256D02*
X002721Y007431D01*
X002719Y007431D02*
X002719Y007256D01*
X002718Y007256D02*
X002718Y007432D01*
X002717Y007432D02*
X002717Y007256D01*
X002716Y007256D02*
X002716Y007432D01*
X002714Y007432D02*
X002714Y007256D01*
X002713Y007256D02*
X002713Y007432D01*
X002712Y007433D02*
X002712Y007257D01*
X002711Y007257D02*
X002711Y007433D01*
X002709Y007433D02*
X002709Y007257D01*
X002708Y007257D02*
X002708Y007433D01*
X002707Y007433D02*
X002707Y007257D01*
X002706Y007257D02*
X002706Y007434D01*
X002704Y007434D02*
X002704Y007257D01*
X002703Y007258D02*
X002703Y007434D01*
X002702Y007434D02*
X002702Y007258D01*
X002701Y007258D02*
X002701Y007435D01*
X002699Y007435D02*
X002699Y007258D01*
X002698Y007258D02*
X002698Y007435D01*
X002697Y007435D02*
X002697Y007258D01*
X002696Y007259D02*
X002696Y007436D01*
X002694Y007436D02*
X002694Y007259D01*
X002693Y007259D02*
X002693Y007436D01*
X002692Y007436D02*
X002692Y007259D01*
X002691Y007259D02*
X002691Y007437D01*
X002689Y007437D02*
X002689Y007260D01*
X002688Y007260D02*
X002688Y007437D01*
X002687Y007437D02*
X002687Y007260D01*
X002686Y007260D02*
X002686Y007438D01*
X002684Y007438D02*
X002684Y007260D01*
X002683Y007261D02*
X002683Y007438D01*
X002682Y007439D02*
X002682Y007261D01*
X002681Y007261D02*
X002681Y007439D01*
X002679Y007439D02*
X002679Y007261D01*
X002678Y007261D02*
X002678Y007440D01*
X002677Y007440D02*
X002677Y007262D01*
X002676Y007262D02*
X002676Y007440D01*
X002674Y007441D02*
X002674Y007262D01*
X002673Y007262D02*
X002673Y007441D01*
X002672Y007441D02*
X002672Y007262D01*
X002671Y007263D02*
X002671Y007442D01*
X002669Y007442D02*
X002669Y007263D01*
X002668Y007263D02*
X002668Y007442D01*
X002667Y007443D02*
X002667Y007263D01*
X002666Y007264D02*
X002666Y007443D01*
X002664Y007444D02*
X002664Y007264D01*
X002663Y007264D02*
X002663Y007444D01*
X002662Y007444D02*
X002662Y007264D01*
X002661Y007265D02*
X002661Y007445D01*
X002659Y007445D02*
X002659Y007265D01*
X002658Y007265D02*
X002658Y007446D01*
X002657Y007446D02*
X002657Y007265D01*
X002656Y007266D02*
X002656Y007446D01*
X002654Y007447D02*
X002654Y007266D01*
X002653Y007266D02*
X002653Y007447D01*
X002652Y007448D02*
X002652Y007267D01*
X002651Y007267D02*
X002651Y007448D01*
X002649Y007449D02*
X002649Y007267D01*
X002648Y007267D02*
X002648Y007449D01*
X002647Y007449D02*
X002647Y007268D01*
X002646Y007268D02*
X002646Y007450D01*
X002644Y007450D02*
X002644Y007268D01*
X002643Y007269D02*
X002643Y007451D01*
X002642Y007451D02*
X002642Y007269D01*
X002641Y007269D02*
X002641Y007452D01*
X002639Y007452D02*
X002639Y007270D01*
X002638Y007270D02*
X002638Y007453D01*
X002637Y007453D02*
X002637Y007270D01*
X002636Y007271D02*
X002636Y007454D01*
X002634Y007454D02*
X002634Y007271D01*
X002633Y007271D02*
X002633Y007455D01*
X002632Y007455D02*
X002632Y007272D01*
X002631Y007272D02*
X002631Y007456D01*
X002629Y007456D02*
X002629Y007272D01*
X002628Y007273D02*
X002628Y007457D01*
X002627Y007457D02*
X002627Y007273D01*
X002626Y007273D02*
X002626Y007458D01*
X002624Y007459D02*
X002624Y007274D01*
X002623Y007274D02*
X002623Y007459D01*
X002622Y007460D02*
X002622Y007274D01*
X002621Y007275D02*
X002621Y007460D01*
X002619Y007461D02*
X002619Y007275D01*
X002618Y007275D02*
X002618Y007461D01*
X002617Y007462D02*
X002617Y007276D01*
X002616Y007276D02*
X002616Y007463D01*
X002614Y007463D02*
X002614Y007277D01*
X002613Y007277D02*
X002613Y007464D01*
X002612Y007464D02*
X002612Y007277D01*
X002611Y007278D02*
X002611Y007465D01*
X002609Y007466D02*
X002609Y007278D01*
X002608Y007278D02*
X002608Y007466D01*
X002607Y007467D02*
X002607Y007279D01*
X002606Y007279D02*
X002606Y007468D01*
X002604Y007468D02*
X002604Y007280D01*
X002603Y007280D02*
X002603Y007469D01*
X002602Y007469D02*
X002602Y007280D01*
X002601Y007281D02*
X002601Y007470D01*
X002599Y007471D02*
X002599Y007281D01*
X002598Y007282D02*
X002598Y007471D01*
X002597Y007472D02*
X002597Y007282D01*
X002596Y007283D02*
X002596Y007473D01*
X002594Y007474D02*
X002594Y007283D01*
X002593Y007283D02*
X002593Y007474D01*
X002592Y007475D02*
X002592Y007284D01*
X002591Y007284D02*
X002591Y007476D01*
X002589Y007476D02*
X002589Y007285D01*
X002588Y007285D02*
X002588Y007477D01*
X002587Y007478D02*
X002587Y007286D01*
X002586Y007286D02*
X002586Y007479D01*
X002584Y007479D02*
X002584Y007287D01*
X002583Y007287D02*
X002583Y007480D01*
X002582Y007481D02*
X002582Y007288D01*
X002581Y007288D02*
X002581Y007482D01*
X002579Y007482D02*
X002579Y007289D01*
X002578Y007289D02*
X002578Y007483D01*
X002577Y007484D02*
X002577Y007289D01*
X002576Y007290D02*
X002576Y007485D01*
X002574Y007486D02*
X002574Y007290D01*
X002573Y007291D02*
X002573Y007486D01*
X002572Y007487D02*
X002572Y007291D01*
X002571Y007292D02*
X002571Y007488D01*
X002569Y007489D02*
X002569Y007292D01*
X002568Y007293D02*
X002568Y007490D01*
X002567Y007491D02*
X002567Y007293D01*
X002566Y007294D02*
X002566Y007492D01*
X002564Y007492D02*
X002564Y007295D01*
X002563Y007295D02*
X002563Y007493D01*
X002562Y007494D02*
X002562Y007296D01*
X002561Y007296D02*
X002561Y007495D01*
X002559Y007496D02*
X002559Y007297D01*
X002558Y007297D02*
X002558Y007497D01*
X002557Y007498D02*
X002557Y007298D01*
X002556Y007298D02*
X002556Y007499D01*
X002554Y007500D02*
X002554Y007299D01*
X002553Y007299D02*
X002553Y007501D01*
X002552Y007502D02*
X002552Y007300D01*
X002551Y007300D02*
X002551Y007503D01*
X002549Y007503D02*
X002549Y007301D01*
X002548Y007302D02*
X002548Y007504D01*
X002547Y007505D02*
X002547Y007302D01*
X002546Y007303D02*
X002546Y007506D01*
X002544Y007507D02*
X002544Y007303D01*
X002543Y007304D02*
X002543Y007508D01*
X002542Y007510D02*
X002542Y007305D01*
X002541Y007305D02*
X002541Y007511D01*
X002539Y007512D02*
X002539Y007306D01*
X002538Y007306D02*
X002538Y007513D01*
X002537Y007514D02*
X002537Y007307D01*
X002536Y007308D02*
X002536Y007515D01*
X002534Y007516D02*
X002534Y007308D01*
X002533Y007309D02*
X002533Y007517D01*
X002532Y007518D02*
X002532Y007309D01*
X002531Y007310D02*
X002531Y007519D01*
X002529Y007520D02*
X002529Y007311D01*
X002528Y007311D02*
X002528Y007521D01*
X002527Y007523D02*
X002527Y007312D01*
X002526Y007313D02*
X002526Y007524D01*
X002524Y007525D02*
X002524Y007313D01*
X002523Y007314D02*
X002523Y007526D01*
X002522Y007527D02*
X002522Y007314D01*
X002521Y007315D02*
X002521Y007529D01*
X002519Y007530D02*
X002519Y007316D01*
X002518Y007316D02*
X002518Y007531D01*
X002517Y007532D02*
X002517Y007317D01*
X002516Y007318D02*
X002516Y007533D01*
X002514Y007535D02*
X002514Y007319D01*
X002513Y007319D02*
X002513Y007536D01*
X002512Y007537D02*
X002512Y007320D01*
X002511Y007321D02*
X002511Y007539D01*
X002509Y007540D02*
X002509Y007321D01*
X002508Y007322D02*
X002508Y007541D01*
X002507Y007543D02*
X002507Y007323D01*
X002506Y007323D02*
X002506Y007544D01*
X002504Y007545D02*
X002504Y007324D01*
X002503Y007325D02*
X002503Y007547D01*
X002502Y007548D02*
X002502Y007326D01*
X002501Y007326D02*
X002501Y007550D01*
X002499Y007551D02*
X002499Y007327D01*
X002498Y007328D02*
X002498Y007552D01*
X002497Y007554D02*
X002497Y007328D01*
X002496Y007329D02*
X002496Y007555D01*
X002494Y007557D02*
X002494Y007330D01*
X002493Y007331D02*
X002493Y007558D01*
X002492Y007560D02*
X002492Y007332D01*
X002491Y007332D02*
X002491Y007561D01*
X002489Y007563D02*
X002489Y007333D01*
X002488Y007334D02*
X002488Y007565D01*
X002487Y007566D02*
X002487Y007335D01*
X002486Y007335D02*
X002486Y007568D01*
X002484Y007569D02*
X002484Y007336D01*
X002483Y007337D02*
X002483Y007571D01*
X002482Y007573D02*
X002482Y007338D01*
X002481Y007339D02*
X002481Y007574D01*
X002479Y007576D02*
X002479Y007339D01*
X002478Y007340D02*
X002478Y007578D01*
X002477Y007580D02*
X002477Y007341D01*
X002476Y007342D02*
X002476Y007582D01*
X002474Y007583D02*
X002474Y007343D01*
X002473Y007344D02*
X002473Y007585D01*
X002472Y007587D02*
X002472Y007344D01*
X002471Y007345D02*
X002471Y007589D01*
X002469Y007591D02*
X002469Y007346D01*
X002468Y007347D02*
X002468Y007593D01*
X002467Y007595D02*
X002467Y007348D01*
X002466Y007349D02*
X002466Y007597D01*
X002464Y007599D02*
X002464Y007350D01*
X002463Y007350D02*
X002463Y007601D01*
X002462Y007603D02*
X002462Y007351D01*
X002461Y007352D02*
X002461Y007605D01*
X002459Y007607D02*
X002459Y007353D01*
X002458Y007354D02*
X002458Y007609D01*
X002457Y007612D02*
X002457Y007355D01*
X002456Y007356D02*
X002456Y007614D01*
X002454Y007616D02*
X002454Y007357D01*
X002453Y007358D02*
X002453Y007619D01*
X002452Y007621D02*
X002452Y007359D01*
X002451Y007359D02*
X002451Y007623D01*
X002449Y007626D02*
X002449Y007360D01*
X002448Y007361D02*
X002448Y007628D01*
X002447Y007631D02*
X002447Y007362D01*
X002446Y007363D02*
X002446Y007634D01*
X002444Y007636D02*
X002444Y007364D01*
X002443Y007365D02*
X002443Y007639D01*
X002442Y007642D02*
X002442Y007366D01*
X002441Y007367D02*
X002441Y007645D01*
X002439Y007648D02*
X002439Y007368D01*
X002438Y007369D02*
X002438Y007651D01*
X002437Y007654D02*
X002437Y007370D01*
X002436Y007371D02*
X002436Y007657D01*
X002434Y007661D02*
X002434Y007372D01*
X002433Y007373D02*
X002433Y007664D01*
X002432Y007667D02*
X002432Y007374D01*
X002431Y007375D02*
X002431Y007671D01*
X002429Y007675D02*
X002429Y007376D01*
X002428Y007377D02*
X002428Y007679D01*
X002427Y007683D02*
X002427Y007378D01*
X002426Y007379D02*
X002426Y007687D01*
X002424Y007692D02*
X002424Y007380D01*
X002423Y007382D02*
X002423Y007696D01*
X002422Y007702D02*
X002422Y007383D01*
X002421Y007384D02*
X002421Y007707D01*
X002419Y007713D02*
X002419Y007385D01*
X002418Y007386D02*
X002418Y007719D01*
X002417Y007726D02*
X002417Y007387D01*
X002416Y007388D02*
X002416Y007734D01*
X002414Y007744D02*
X002414Y007389D01*
X002413Y007390D02*
X002413Y007756D01*
X002413Y007814D02*
X002413Y007980D01*
X002412Y007980D02*
X002412Y007391D01*
X002411Y007393D02*
X002411Y007981D01*
X002409Y007981D02*
X002409Y007394D01*
X002408Y007395D02*
X002408Y007981D01*
X002407Y007981D02*
X002407Y007396D01*
X002406Y007397D02*
X002406Y007982D01*
X002404Y007982D02*
X002404Y007398D01*
X002403Y007400D02*
X002403Y007982D01*
X002402Y007983D02*
X002402Y007401D01*
X002401Y007402D02*
X002401Y007983D01*
X002399Y007984D02*
X002399Y007403D01*
X002398Y007404D02*
X002398Y007985D01*
X002397Y007985D02*
X002397Y007406D01*
X002396Y007407D02*
X002396Y007986D01*
X002394Y007987D02*
X002394Y007408D01*
X002393Y007409D02*
X002393Y007988D01*
X002392Y007989D02*
X002392Y007411D01*
X002391Y007412D02*
X002391Y007990D01*
X002389Y007991D02*
X002389Y007413D01*
X002388Y007414D02*
X002388Y007992D01*
X002387Y007993D02*
X002387Y007416D01*
X002386Y007417D02*
X002386Y007995D01*
X002384Y007997D02*
X002384Y007418D01*
X002383Y007420D02*
X002383Y007998D01*
X002382Y008001D02*
X002382Y007421D01*
X002381Y007422D02*
X002381Y008003D01*
X002379Y008006D02*
X002379Y007424D01*
X002378Y007425D02*
X002378Y008010D01*
X002378Y008030D02*
X002378Y008145D01*
X002377Y008144D02*
X002377Y007426D01*
X002376Y007428D02*
X002376Y008142D01*
X002374Y008141D02*
X002374Y007429D01*
X002373Y007430D02*
X002373Y008140D01*
X002372Y008138D02*
X002372Y007432D01*
X002371Y007433D02*
X002371Y008137D01*
X002369Y008135D02*
X002369Y007435D01*
X002368Y007436D02*
X002368Y008134D01*
X002367Y008132D02*
X002367Y007438D01*
X002366Y007439D02*
X002366Y008131D01*
X002364Y008130D02*
X002364Y007440D01*
X002363Y007442D02*
X002363Y008128D01*
X002362Y008127D02*
X002362Y007443D01*
X002361Y007445D02*
X002361Y008125D01*
X002359Y008124D02*
X002359Y007446D01*
X002358Y007448D02*
X002358Y008122D01*
X002357Y008121D02*
X002357Y007449D01*
X002356Y007451D02*
X002356Y008119D01*
X002354Y008117D02*
X002354Y007453D01*
X002353Y007454D02*
X002353Y008116D01*
X002352Y008114D02*
X002352Y007456D01*
X002351Y007457D02*
X002351Y008113D01*
X002349Y008111D02*
X002349Y007459D01*
X002348Y007461D02*
X002348Y008109D01*
X002347Y008108D02*
X002347Y007462D01*
X002346Y007464D02*
X002346Y008106D01*
X002344Y008105D02*
X002344Y007465D01*
X002343Y007467D02*
X002343Y008103D01*
X002342Y008101D02*
X002342Y007469D01*
X002341Y007470D02*
X002341Y008100D01*
X002339Y008098D02*
X002339Y007472D01*
X002338Y007474D02*
X002338Y008096D01*
X002337Y008094D02*
X002337Y007476D01*
X002336Y007477D02*
X002336Y008093D01*
X002334Y008091D02*
X002334Y007479D01*
X002333Y007481D02*
X002333Y008089D01*
X002332Y008087D02*
X002332Y007483D01*
X002331Y007485D02*
X002331Y008085D01*
X002329Y008084D02*
X002329Y007486D01*
X002328Y007488D02*
X002328Y008082D01*
X002327Y008080D02*
X002327Y007490D01*
X002326Y007492D02*
X002326Y008078D01*
X002324Y008076D02*
X002324Y007494D01*
X002323Y007496D02*
X002323Y008074D01*
X002322Y008072D02*
X002322Y007498D01*
X002321Y007500D02*
X002321Y008070D01*
X002319Y008068D02*
X002319Y007502D01*
X002318Y007504D02*
X002318Y008066D01*
X002317Y008064D02*
X002317Y007506D01*
X002316Y007508D02*
X002316Y008062D01*
X002314Y008060D02*
X002314Y007510D01*
X002313Y007512D02*
X002313Y008058D01*
X002312Y008056D02*
X002312Y007514D01*
X002311Y007516D02*
X002311Y008054D01*
X002309Y008052D02*
X002309Y007518D01*
X002308Y007520D02*
X002308Y008050D01*
X002307Y008047D02*
X002307Y007523D01*
X002306Y007525D02*
X002306Y008045D01*
X002304Y008043D02*
X002304Y007527D01*
X002303Y007529D02*
X002303Y008041D01*
X002302Y008038D02*
X002302Y007532D01*
X002301Y007534D02*
X002301Y008036D01*
X002299Y008034D02*
X002299Y007536D01*
X002298Y007539D02*
X002298Y008031D01*
X002297Y008029D02*
X002297Y007541D01*
X002296Y007543D02*
X002296Y008027D01*
X002294Y008024D02*
X002294Y007546D01*
X002293Y007548D02*
X002293Y008022D01*
X002292Y008019D02*
X002292Y007551D01*
X002291Y007554D02*
X002291Y008016D01*
X002289Y008014D02*
X002289Y007556D01*
X002288Y007559D02*
X002288Y008011D01*
X002287Y008009D02*
X002287Y007561D01*
X002286Y007564D02*
X002286Y008006D01*
X002284Y008003D02*
X002284Y007567D01*
X002283Y007570D02*
X002283Y008000D01*
X002282Y007997D02*
X002282Y007573D01*
X002281Y007575D02*
X002281Y007995D01*
X002279Y007992D02*
X002279Y007578D01*
X002278Y007581D02*
X002278Y007989D01*
X002277Y007986D02*
X002277Y007584D01*
X002276Y007588D02*
X002276Y007982D01*
X002274Y007979D02*
X002274Y007591D01*
X002273Y007594D02*
X002273Y007976D01*
X002272Y007973D02*
X002272Y007597D01*
X002271Y007601D02*
X002271Y007969D01*
X002269Y007966D02*
X002269Y007604D01*
X002268Y007607D02*
X002268Y007963D01*
X002267Y007959D02*
X002267Y007611D01*
X002266Y007615D02*
X002266Y007955D01*
X002264Y007952D02*
X002264Y007618D01*
X002263Y007622D02*
X002263Y007948D01*
X002262Y007944D02*
X002262Y007626D01*
X002261Y007630D02*
X002261Y007940D01*
X002259Y007936D02*
X002259Y007634D01*
X002258Y007639D02*
X002258Y007931D01*
X002257Y007927D02*
X002257Y007643D01*
X002256Y007648D02*
X002256Y007922D01*
X002254Y007918D02*
X002254Y007652D01*
X002253Y007657D02*
X002253Y007913D01*
X002252Y007907D02*
X002252Y007663D01*
X002251Y007668D02*
X002251Y007902D01*
X002249Y007896D02*
X002249Y007674D01*
X002248Y007680D02*
X002248Y007890D01*
X002247Y007884D02*
X002247Y007686D01*
X002246Y007693D02*
X002246Y007877D01*
X002244Y007870D02*
X002244Y007700D01*
X002243Y007708D02*
X002243Y007862D01*
X002242Y007852D02*
X002242Y007718D01*
X002241Y007728D02*
X002241Y007842D01*
X002239Y007829D02*
X002239Y007741D01*
X002238Y007761D02*
X002238Y007809D01*
X002414Y007826D02*
X002414Y007980D01*
X002416Y007980D02*
X002416Y007836D01*
X002417Y007844D02*
X002417Y007980D01*
X002418Y007980D02*
X002418Y007851D01*
X002419Y007857D02*
X002419Y007980D01*
X002421Y007980D02*
X002421Y007863D01*
X002422Y007868D02*
X002422Y007980D01*
X002423Y007981D02*
X002423Y007874D01*
X002424Y007878D02*
X002424Y007981D01*
X002426Y007981D02*
X002426Y007883D01*
X002427Y007887D02*
X002427Y007981D01*
X002428Y007982D02*
X002428Y007891D01*
X002429Y007895D02*
X002429Y007982D01*
X002431Y007983D02*
X002431Y007899D01*
X002432Y007903D02*
X002432Y007983D01*
X002433Y007984D02*
X002433Y007906D01*
X002434Y007909D02*
X002434Y007984D01*
X002436Y007985D02*
X002436Y007913D01*
X002437Y007916D02*
X002437Y007985D01*
X002438Y007986D02*
X002438Y007919D01*
X002439Y007922D02*
X002439Y007987D01*
X002441Y007988D02*
X002441Y007925D01*
X002442Y007928D02*
X002442Y007989D01*
X002443Y007990D02*
X002443Y007931D01*
X002444Y007934D02*
X002444Y007991D01*
X002446Y007992D02*
X002446Y007936D01*
X002447Y007939D02*
X002447Y007994D01*
X002448Y007995D02*
X002448Y007942D01*
X002449Y007944D02*
X002449Y007997D01*
X002451Y007999D02*
X002451Y007947D01*
X002452Y007949D02*
X002452Y008001D01*
X002453Y008004D02*
X002453Y007951D01*
X002454Y007954D02*
X002454Y008007D01*
X002456Y008011D02*
X002456Y007956D01*
X002457Y007958D02*
X002457Y008215D01*
X002456Y008214D02*
X002456Y008029D01*
X002454Y008033D02*
X002454Y008213D01*
X002453Y008212D02*
X002453Y008036D01*
X002452Y008039D02*
X002452Y008211D01*
X002451Y008211D02*
X002451Y008041D01*
X002449Y008043D02*
X002449Y008210D01*
X002448Y008209D02*
X002448Y008044D01*
X002447Y008046D02*
X002447Y008208D01*
X002446Y008207D02*
X002446Y008047D01*
X002444Y008049D02*
X002444Y008206D01*
X002443Y008205D02*
X002443Y008050D01*
X002442Y008051D02*
X002442Y008204D01*
X002441Y008203D02*
X002441Y008052D01*
X002439Y008053D02*
X002439Y008202D01*
X002438Y008201D02*
X002438Y008054D01*
X002437Y008054D02*
X002437Y008200D01*
X002436Y008199D02*
X002436Y008055D01*
X002434Y008056D02*
X002434Y008198D01*
X002433Y008197D02*
X002433Y008056D01*
X002432Y008057D02*
X002432Y008196D01*
X002431Y008195D02*
X002431Y008057D01*
X002429Y008058D02*
X002429Y008194D01*
X002428Y008193D02*
X002428Y008058D01*
X002427Y008058D02*
X002427Y008192D01*
X002426Y008191D02*
X002426Y008059D01*
X002424Y008059D02*
X002424Y008190D01*
X002423Y008188D02*
X002423Y008059D01*
X002422Y008059D02*
X002422Y008187D01*
X002421Y008186D02*
X002421Y008060D01*
X002419Y008060D02*
X002419Y008185D01*
X002418Y008184D02*
X002418Y008060D01*
X002417Y008060D02*
X002417Y008183D01*
X002416Y008182D02*
X002416Y008060D01*
X002414Y008060D02*
X002414Y008181D01*
X002413Y008180D02*
X002413Y008060D01*
X002412Y008059D02*
X002412Y008179D01*
X002411Y008177D02*
X002411Y008059D01*
X002409Y008059D02*
X002409Y008176D01*
X002408Y008175D02*
X002408Y008059D01*
X002407Y008059D02*
X002407Y008174D01*
X002406Y008173D02*
X002406Y008058D01*
X002404Y008058D02*
X002404Y008172D01*
X002403Y008170D02*
X002403Y008057D01*
X002402Y008057D02*
X002402Y008169D01*
X002401Y008168D02*
X002401Y008056D01*
X002399Y008056D02*
X002399Y008167D01*
X002398Y008166D02*
X002398Y008055D01*
X002397Y008054D02*
X002397Y008164D01*
X002396Y008163D02*
X002396Y008054D01*
X002394Y008053D02*
X002394Y008162D01*
X002393Y008161D02*
X002393Y008052D01*
X002392Y008051D02*
X002392Y008159D01*
X002391Y008158D02*
X002391Y008050D01*
X002389Y008049D02*
X002389Y008157D01*
X002388Y008156D02*
X002388Y008048D01*
X002387Y008046D02*
X002387Y008154D01*
X002386Y008153D02*
X002386Y008045D01*
X002384Y008043D02*
X002384Y008152D01*
X002383Y008150D02*
X002383Y008041D01*
X002382Y008039D02*
X002382Y008149D01*
X002381Y008148D02*
X002381Y008037D01*
X002379Y008034D02*
X002379Y008146D01*
X002458Y008216D02*
X002458Y007961D01*
X002459Y007963D02*
X002459Y008217D01*
X002461Y008218D02*
X002461Y007965D01*
X002462Y007967D02*
X002462Y008219D01*
X002463Y008220D02*
X002463Y007969D01*
X002464Y007971D02*
X002464Y008220D01*
X002466Y008221D02*
X002466Y007973D01*
X002467Y007975D02*
X002467Y008222D01*
X002468Y008223D02*
X002468Y007977D01*
X002469Y007979D02*
X002469Y008224D01*
X002471Y008225D02*
X002471Y007981D01*
X002472Y007983D02*
X002472Y008226D01*
X002473Y008226D02*
X002473Y007985D01*
X002474Y007987D02*
X002474Y008227D01*
X002476Y008228D02*
X002476Y007988D01*
X002477Y007990D02*
X002477Y008229D01*
X002478Y008230D02*
X002478Y007992D01*
X002479Y007994D02*
X002479Y008231D01*
X002481Y008231D02*
X002481Y007996D01*
X002482Y007997D02*
X002482Y008232D01*
X002483Y008233D02*
X002483Y007999D01*
X002484Y008001D02*
X002484Y008234D01*
X002486Y008235D02*
X002486Y008002D01*
X002487Y008004D02*
X002487Y008235D01*
X002488Y008236D02*
X002488Y008005D01*
X002489Y008007D02*
X002489Y008237D01*
X002491Y008238D02*
X002491Y008009D01*
X002492Y008010D02*
X002492Y008238D01*
X002493Y008239D02*
X002493Y008012D01*
X002494Y008013D02*
X002494Y008240D01*
X002496Y008241D02*
X002496Y008015D01*
X002497Y008016D02*
X002497Y008242D01*
X002498Y008242D02*
X002498Y008018D01*
X002499Y008019D02*
X002499Y008243D01*
X002501Y008244D02*
X002501Y008020D01*
X002502Y008022D02*
X002502Y008244D01*
X002503Y008245D02*
X002503Y008023D01*
X002504Y008025D02*
X002504Y008246D01*
X002506Y008247D02*
X002506Y008026D01*
X002507Y008027D02*
X002507Y008247D01*
X002508Y008248D02*
X002508Y008029D01*
X002509Y008030D02*
X002509Y008249D01*
X002511Y008249D02*
X002511Y008031D01*
X002512Y008033D02*
X002512Y008250D01*
X002513Y008251D02*
X002513Y008034D01*
X002514Y008035D02*
X002514Y008251D01*
X002516Y008252D02*
X002516Y008037D01*
X002517Y008038D02*
X002517Y008253D01*
X002518Y008254D02*
X002518Y008039D01*
X002519Y008040D02*
X002519Y008254D01*
X002521Y008255D02*
X002521Y008041D01*
X002522Y008043D02*
X002522Y008256D01*
X002523Y008256D02*
X002523Y008044D01*
X002524Y008045D02*
X002524Y008257D01*
X002526Y008257D02*
X002526Y008046D01*
X002527Y008047D02*
X002527Y008258D01*
X002528Y008259D02*
X002528Y008049D01*
X002529Y008050D02*
X002529Y008259D01*
X002531Y008260D02*
X002531Y008051D01*
X002532Y008052D02*
X002532Y008261D01*
X002533Y008261D02*
X002533Y008053D01*
X002534Y008054D02*
X002534Y008262D01*
X002536Y008262D02*
X002536Y008055D01*
X002537Y008056D02*
X002537Y008263D01*
X002538Y008264D02*
X002538Y008057D01*
X002539Y008058D02*
X002539Y008264D01*
X002541Y008265D02*
X002541Y008059D01*
X002542Y008060D02*
X002542Y008265D01*
X002543Y008266D02*
X002543Y008062D01*
X002544Y008063D02*
X002544Y008267D01*
X002546Y008267D02*
X002546Y008064D01*
X002547Y008065D02*
X002547Y008268D01*
X002548Y008268D02*
X002548Y008066D01*
X002549Y008067D02*
X002549Y008269D01*
X002551Y008270D02*
X002551Y008067D01*
X002552Y008068D02*
X002552Y008270D01*
X002553Y008271D02*
X002553Y008069D01*
X002554Y008070D02*
X002554Y008271D01*
X002556Y008272D02*
X002556Y008071D01*
X002557Y008072D02*
X002557Y008272D01*
X002558Y008273D02*
X002558Y008073D01*
X002559Y008074D02*
X002559Y008273D01*
X002561Y008274D02*
X002561Y008075D01*
X002562Y008076D02*
X002562Y008274D01*
X002563Y008275D02*
X002563Y008077D01*
X002564Y008078D02*
X002564Y008275D01*
X002566Y008276D02*
X002566Y008078D01*
X002567Y008079D02*
X002567Y008277D01*
X002568Y008277D02*
X002568Y008080D01*
X002569Y008081D02*
X002569Y008278D01*
X002571Y008278D02*
X002571Y008082D01*
X002572Y008083D02*
X002572Y008279D01*
X002573Y008279D02*
X002573Y008084D01*
X002574Y008084D02*
X002574Y008280D01*
X002576Y008280D02*
X002576Y008085D01*
X002577Y008086D02*
X002577Y008281D01*
X002578Y008281D02*
X002578Y008087D01*
X002579Y008088D02*
X002579Y008281D01*
X002581Y008282D02*
X002581Y008088D01*
X002582Y008089D02*
X002582Y008282D01*
X002583Y008283D02*
X002583Y008090D01*
X002584Y008091D02*
X002584Y008283D01*
X002586Y008284D02*
X002586Y008091D01*
X002587Y008092D02*
X002587Y008284D01*
X002588Y008285D02*
X002588Y008093D01*
X002589Y008094D02*
X002589Y008285D01*
X002591Y008286D02*
X002591Y008094D01*
X002592Y008095D02*
X002592Y008286D01*
X002593Y008287D02*
X002593Y008096D01*
X002594Y008096D02*
X002594Y008287D01*
X002596Y008287D02*
X002596Y008097D01*
X002597Y008098D02*
X002597Y008288D01*
X002598Y008288D02*
X002598Y008099D01*
X002599Y008099D02*
X002599Y008289D01*
X002601Y008289D02*
X002601Y008100D01*
X002602Y008101D02*
X002602Y008290D01*
X002603Y008290D02*
X002603Y008101D01*
X002604Y008102D02*
X002604Y008290D01*
X002606Y008291D02*
X002606Y008102D01*
X002607Y008103D02*
X002607Y008291D01*
X002608Y008292D02*
X002608Y008104D01*
X002609Y008104D02*
X002609Y008292D01*
X002611Y008292D02*
X002611Y008105D01*
X002612Y008106D02*
X002612Y008293D01*
X002613Y008293D02*
X002613Y008106D01*
X002614Y008107D02*
X002614Y008293D01*
X002616Y008294D02*
X002616Y008107D01*
X002617Y008108D02*
X002617Y008294D01*
X002618Y008295D02*
X002618Y008109D01*
X002619Y008109D02*
X002619Y008295D01*
X002621Y008295D02*
X002621Y008110D01*
X002622Y008110D02*
X002622Y008296D01*
X002623Y008296D02*
X002623Y008111D01*
X002624Y008111D02*
X002624Y008296D01*
X002626Y008297D02*
X002626Y008112D01*
X002627Y008113D02*
X002627Y008297D01*
X002628Y008297D02*
X002628Y008113D01*
X002629Y008114D02*
X002629Y008298D01*
X002631Y008298D02*
X002631Y008114D01*
X002632Y008115D02*
X002632Y008298D01*
X002633Y008299D02*
X002633Y008115D01*
X002634Y008116D02*
X002634Y008299D01*
X002636Y008299D02*
X002636Y008116D01*
X002637Y008117D02*
X002637Y008300D01*
X002638Y008300D02*
X002638Y008117D01*
X002639Y008118D02*
X002639Y008300D01*
X002641Y008301D02*
X002641Y008118D01*
X002642Y008119D02*
X002642Y008301D01*
X002643Y008301D02*
X002643Y008119D01*
X002644Y008120D02*
X002644Y008302D01*
X002646Y008302D02*
X002646Y008120D01*
X002647Y008121D02*
X002647Y008302D01*
X002648Y008303D02*
X002648Y008121D01*
X002649Y008121D02*
X002649Y008303D01*
X002651Y008303D02*
X002651Y008122D01*
X002652Y008122D02*
X002652Y008303D01*
X002653Y008304D02*
X002653Y008123D01*
X002654Y008123D02*
X002654Y008304D01*
X002656Y008304D02*
X002656Y008124D01*
X002657Y008124D02*
X002657Y008305D01*
X002658Y008305D02*
X002658Y008124D01*
X002659Y008125D02*
X002659Y008305D01*
X002661Y008305D02*
X002661Y008125D01*
X002662Y008126D02*
X002662Y008306D01*
X002663Y008306D02*
X002663Y008126D01*
X002664Y008126D02*
X002664Y008306D01*
X002666Y008306D02*
X002666Y008127D01*
X002667Y008127D02*
X002667Y008307D01*
X002668Y008307D02*
X002668Y008128D01*
X002669Y008128D02*
X002669Y008307D01*
X002671Y008307D02*
X002671Y008128D01*
X002672Y008129D02*
X002672Y008308D01*
X002673Y008308D02*
X002673Y008129D01*
X002674Y008129D02*
X002674Y008308D01*
X002676Y008308D02*
X002676Y008130D01*
X002677Y008130D02*
X002677Y008308D01*
X002678Y008309D02*
X002678Y008130D01*
X002679Y008131D02*
X002679Y008309D01*
X002681Y008309D02*
X002681Y008131D01*
X002682Y008131D02*
X002682Y008309D01*
X002683Y008310D02*
X002683Y008132D01*
X002684Y008132D02*
X002684Y008310D01*
X002686Y008310D02*
X002686Y008132D01*
X002687Y008133D02*
X002687Y008310D01*
X002688Y008310D02*
X002688Y008133D01*
X002689Y008133D02*
X002689Y008310D01*
X002691Y008311D02*
X002691Y008133D01*
X002692Y008134D02*
X002692Y008311D01*
X002693Y008311D02*
X002693Y008134D01*
X002694Y008134D02*
X002694Y008311D01*
X002696Y008311D02*
X002696Y008134D01*
X002697Y008135D02*
X002697Y008312D01*
X002698Y008312D02*
X002698Y008135D01*
X002699Y008135D02*
X002699Y008312D01*
X002701Y008312D02*
X002701Y008135D01*
X002702Y008136D02*
X002702Y008312D01*
X002703Y008312D02*
X002703Y008136D01*
X002704Y008136D02*
X002704Y008313D01*
X002706Y008313D02*
X002706Y008136D01*
X002707Y008137D02*
X002707Y008313D01*
X002708Y008313D02*
X002708Y008137D01*
X002709Y008137D02*
X002709Y008313D01*
X002711Y008313D02*
X002711Y008137D01*
X002712Y008137D02*
X002712Y008313D01*
X002713Y008314D02*
X002713Y008138D01*
X002714Y008138D02*
X002714Y008314D01*
X002716Y008314D02*
X002716Y008138D01*
X002717Y008138D02*
X002717Y008314D01*
X002718Y008314D02*
X002718Y008138D01*
X002719Y008139D02*
X002719Y008314D01*
X002721Y008314D02*
X002721Y008139D01*
X002722Y008139D02*
X002722Y008314D01*
X002723Y008315D02*
X002723Y008139D01*
X002724Y008139D02*
X002724Y008315D01*
X002726Y008315D02*
X002726Y008139D01*
X002727Y008140D02*
X002727Y008315D01*
X002728Y008315D02*
X002728Y008140D01*
X002729Y008140D02*
X002729Y008315D01*
X002731Y008315D02*
X002731Y008140D01*
X002732Y008140D02*
X002732Y008315D01*
X002733Y008315D02*
X002733Y008140D01*
X002734Y008140D02*
X002734Y008315D01*
X002736Y008315D02*
X002736Y008141D01*
X002737Y008141D02*
X002737Y008316D01*
X002738Y008316D02*
X002738Y008141D01*
X002739Y008141D02*
X002739Y008316D01*
X002741Y008316D02*
X002741Y008141D01*
X002742Y008141D02*
X002742Y008316D01*
X002743Y008316D02*
X002743Y008141D01*
X002744Y008141D02*
X002744Y008316D01*
X002746Y008316D02*
X002746Y008141D01*
X002747Y008141D02*
X002747Y008316D01*
X002748Y008316D02*
X002748Y008141D01*
X002749Y008142D02*
X002749Y008316D01*
X002751Y008316D02*
X002751Y008142D01*
X002752Y008142D02*
X002752Y008316D01*
X002753Y008316D02*
X002753Y008142D01*
X002754Y008142D02*
X002754Y008316D01*
X002756Y008316D02*
X002756Y008142D01*
X002757Y008142D02*
X002757Y008316D01*
X002758Y008316D02*
X002758Y008142D01*
X002759Y008142D02*
X002759Y008316D01*
X002761Y008316D02*
X002761Y008142D01*
X002762Y008142D02*
X002762Y008316D01*
X002763Y008316D02*
X002763Y008142D01*
X002764Y008142D02*
X002764Y008316D01*
X002766Y008316D02*
X002766Y008142D01*
X002767Y008142D02*
X002767Y008316D01*
X002768Y008316D02*
X002768Y008142D01*
X002769Y008142D02*
X002769Y008316D01*
X002771Y008316D02*
X002771Y008142D01*
X002772Y008142D02*
X002772Y008316D01*
X002773Y008316D02*
X002773Y008142D01*
X002774Y008142D02*
X002774Y008316D01*
X002776Y008316D02*
X002776Y008142D01*
X002777Y008142D02*
X002777Y008316D01*
X002778Y008316D02*
X002778Y008142D01*
X002779Y008142D02*
X002779Y008316D01*
X002781Y008316D02*
X002781Y008142D01*
X002782Y008142D02*
X002782Y008316D01*
X002783Y008316D02*
X002783Y008142D01*
X002784Y008142D02*
X002784Y008316D01*
X002786Y008316D02*
X002786Y008142D01*
X002787Y008142D02*
X002787Y008316D01*
X002788Y008316D02*
X002788Y008142D01*
X002789Y008142D02*
X002789Y008316D01*
X002791Y008316D02*
X002791Y008141D01*
X002792Y008141D02*
X002792Y008316D01*
X002793Y008316D02*
X002793Y008141D01*
X002794Y008141D02*
X002794Y008316D01*
X002796Y008316D02*
X002796Y008141D01*
X002797Y008141D02*
X002797Y008316D01*
X002798Y008316D02*
X002798Y008141D01*
X002799Y008141D02*
X002799Y008316D01*
X002801Y008316D02*
X002801Y008141D01*
X002802Y008141D02*
X002802Y008315D01*
X002803Y008315D02*
X002803Y008140D01*
X002804Y008140D02*
X002804Y008315D01*
X002806Y008315D02*
X002806Y008140D01*
X002807Y008140D02*
X002807Y008315D01*
X002808Y008315D02*
X002808Y008140D01*
X002809Y008140D02*
X002809Y008315D01*
X002811Y008315D02*
X002811Y008140D01*
X002812Y008140D02*
X002812Y008315D01*
X002813Y008315D02*
X002813Y008139D01*
X002814Y008139D02*
X002814Y008315D01*
X002816Y008314D02*
X002816Y008139D01*
X002817Y008139D02*
X002817Y008314D01*
X002818Y008314D02*
X002818Y008139D01*
X002819Y008139D02*
X002819Y008314D01*
X002821Y008314D02*
X002821Y008138D01*
X002822Y008138D02*
X002822Y008314D01*
X002823Y008314D02*
X002823Y008138D01*
X002824Y008138D02*
X002824Y008314D01*
X002826Y008313D02*
X002826Y008138D01*
X002827Y008137D02*
X002827Y008313D01*
X002828Y008313D02*
X002828Y008137D01*
X002829Y008137D02*
X002829Y008313D01*
X002831Y008313D02*
X002831Y008137D01*
X002832Y008137D02*
X002832Y008313D01*
X002833Y008313D02*
X002833Y008136D01*
X002834Y008136D02*
X002834Y008312D01*
X002836Y008312D02*
X002836Y008136D01*
X002837Y008136D02*
X002837Y008312D01*
X002838Y008312D02*
X002838Y008135D01*
X002839Y008135D02*
X002839Y008312D01*
X002841Y008312D02*
X002841Y008135D01*
X002842Y008135D02*
X002842Y008311D01*
X002843Y008311D02*
X002843Y008134D01*
X002844Y008134D02*
X002844Y008311D01*
X002846Y008311D02*
X002846Y008134D01*
X002847Y008134D02*
X002847Y008311D01*
X002848Y008311D02*
X002848Y008133D01*
X002849Y008133D02*
X002849Y008310D01*
X002851Y008310D02*
X002851Y008133D01*
X002852Y008132D02*
X002852Y008310D01*
X002853Y008310D02*
X002853Y008132D01*
X002854Y008132D02*
X002854Y008310D01*
X002856Y008309D02*
X002856Y008131D01*
X002857Y008131D02*
X002857Y008309D01*
X002858Y008309D02*
X002858Y008131D01*
X002859Y008130D02*
X002859Y008309D01*
X002861Y008309D02*
X002861Y008130D01*
X002862Y008130D02*
X002862Y008308D01*
X002863Y008308D02*
X002863Y008129D01*
X002864Y008129D02*
X002864Y008308D01*
X002866Y008308D02*
X002866Y008129D01*
X002867Y008128D02*
X002867Y008307D01*
X002868Y008307D02*
X002868Y008128D01*
X002869Y008128D02*
X002869Y008307D01*
X002871Y008307D02*
X002871Y008127D01*
X002872Y008127D02*
X002872Y008306D01*
X002873Y008306D02*
X002873Y008127D01*
X002874Y008126D02*
X002874Y008306D01*
X002876Y008306D02*
X002876Y008126D01*
X002877Y008125D02*
X002877Y008305D01*
X002878Y008305D02*
X002878Y008125D01*
X002879Y008125D02*
X002879Y008305D01*
X002881Y008305D02*
X002881Y008124D01*
X002882Y008124D02*
X002882Y008304D01*
X002883Y008304D02*
X002883Y008123D01*
X002884Y008123D02*
X002884Y008304D01*
X002886Y008304D02*
X002886Y008123D01*
X002887Y008122D02*
X002887Y008303D01*
X002888Y008303D02*
X002888Y008122D01*
X002889Y008121D02*
X002889Y008303D01*
X002891Y008302D02*
X002891Y008121D01*
X002892Y008120D02*
X002892Y008302D01*
X002893Y008302D02*
X002893Y008120D01*
X002894Y008119D02*
X002894Y008302D01*
X002896Y008301D02*
X002896Y008119D01*
X002897Y008118D02*
X002897Y008301D01*
X002898Y008301D02*
X002898Y008118D01*
X002899Y008117D02*
X002899Y008300D01*
X002901Y008300D02*
X002901Y008117D01*
X002902Y008116D02*
X002902Y008300D01*
X002903Y008299D02*
X002903Y008116D01*
X002904Y008115D02*
X002904Y008299D01*
X002906Y008299D02*
X002906Y008115D01*
X002907Y008114D02*
X002907Y008298D01*
X002908Y008298D02*
X002908Y008114D01*
X002909Y008113D02*
X002909Y008298D01*
X002911Y008297D02*
X002911Y008113D01*
X002912Y008112D02*
X002912Y008297D01*
X002913Y008297D02*
X002913Y008112D01*
X002914Y008111D02*
X002914Y008296D01*
X002916Y008296D02*
X002916Y008111D01*
X002917Y008110D02*
X002917Y008296D01*
X002918Y008295D02*
X002918Y008110D01*
X002919Y008109D02*
X002919Y008295D01*
X002921Y008294D02*
X002921Y008108D01*
X002922Y008108D02*
X002922Y008294D01*
X002923Y008294D02*
X002923Y008107D01*
X002924Y008107D02*
X002924Y008293D01*
X002926Y008293D02*
X002926Y008106D01*
X002927Y008105D02*
X002927Y008293D01*
X002928Y008292D02*
X002928Y008105D01*
X002929Y008104D02*
X002929Y008292D01*
X002931Y008291D02*
X002931Y008103D01*
X002932Y008103D02*
X002932Y008291D01*
X002933Y008291D02*
X002933Y008102D01*
X002934Y008102D02*
X002934Y008290D01*
X002936Y008290D02*
X002936Y008101D01*
X002937Y008100D02*
X002937Y008289D01*
X002938Y008289D02*
X002938Y008100D01*
X002939Y008099D02*
X002939Y008288D01*
X002941Y008288D02*
X002941Y008098D01*
X002942Y008098D02*
X002942Y008288D01*
X002943Y008287D02*
X002943Y008097D01*
X002944Y008096D02*
X002944Y008287D01*
X002946Y008286D02*
X002946Y008095D01*
X002947Y008095D02*
X002947Y008286D01*
X002948Y008285D02*
X002948Y008094D01*
X002949Y008093D02*
X002949Y008285D01*
X002951Y008285D02*
X002951Y008093D01*
X002952Y008092D02*
X002952Y008284D01*
X002953Y008284D02*
X002953Y008091D01*
X002954Y008090D02*
X002954Y008283D01*
X002956Y008283D02*
X002956Y008090D01*
X002957Y008089D02*
X002957Y008282D01*
X002958Y008282D02*
X002958Y008088D01*
X002959Y008087D02*
X002959Y008281D01*
X002961Y008281D02*
X002961Y008086D01*
X002962Y008086D02*
X002962Y008280D01*
X002963Y008280D02*
X002963Y008085D01*
X002964Y008084D02*
X002964Y008279D01*
X002966Y008279D02*
X002966Y008083D01*
X002967Y008082D02*
X002967Y008278D01*
X002968Y008278D02*
X002968Y008081D01*
X002969Y008081D02*
X002969Y008277D01*
X002971Y008277D02*
X002971Y008080D01*
X002972Y008079D02*
X002972Y008276D01*
X002973Y008276D02*
X002973Y008078D01*
X002974Y008077D02*
X002974Y008275D01*
X002976Y008275D02*
X002976Y008076D01*
X002977Y008075D02*
X002977Y008274D01*
X002978Y008274D02*
X002978Y008075D01*
X002979Y008074D02*
X002979Y008273D01*
X002981Y008273D02*
X002981Y008073D01*
X002982Y008072D02*
X002982Y008272D01*
X002983Y008271D02*
X002983Y008071D01*
X002984Y008070D02*
X002984Y008271D01*
X002986Y008270D02*
X002986Y008069D01*
X002987Y008068D02*
X002987Y008270D01*
X002988Y008269D02*
X002988Y008067D01*
X002989Y008066D02*
X002989Y008269D01*
X002991Y008268D02*
X002991Y008065D01*
X002992Y008064D02*
X002992Y008268D01*
X002993Y008267D02*
X002993Y008063D01*
X002994Y008062D02*
X002994Y008266D01*
X002996Y008266D02*
X002996Y008061D01*
X002997Y008060D02*
X002997Y008265D01*
X002998Y008265D02*
X002998Y008059D01*
X002999Y008058D02*
X002999Y008264D01*
X003001Y008263D02*
X003001Y008057D01*
X003002Y008056D02*
X003002Y008263D01*
X003003Y008262D02*
X003003Y008055D01*
X003004Y008054D02*
X003004Y008262D01*
X003006Y008261D02*
X003006Y008053D01*
X003007Y008051D02*
X003007Y008260D01*
X003008Y008260D02*
X003008Y008050D01*
X003009Y008049D02*
X003009Y008259D01*
X003011Y008258D02*
X003011Y008048D01*
X003012Y008047D02*
X003012Y008258D01*
X003013Y008257D02*
X003013Y008046D01*
X003014Y008045D02*
X003014Y008257D01*
X003016Y008256D02*
X003016Y008043D01*
X003017Y008042D02*
X003017Y008255D01*
X003018Y008255D02*
X003018Y008041D01*
X003019Y008040D02*
X003019Y008254D01*
X003021Y008253D02*
X003021Y008038D01*
X003022Y008038D02*
X003022Y008038D01*
X003022Y008253D01*
X003023Y008252D02*
X003023Y008039D01*
X003024Y008040D01*
X003024Y008251D01*
X003026Y008250D02*
X003026Y008042D01*
X003027Y008043D01*
X003027Y008250D01*
X003028Y008249D02*
X003028Y008044D01*
X003029Y008045D01*
X003029Y008248D01*
X003031Y008248D02*
X003031Y008047D01*
X003032Y008048D01*
X003032Y008247D01*
X003033Y008246D02*
X003033Y008049D01*
X003034Y008050D01*
X003034Y008246D01*
X003036Y008245D02*
X003036Y008052D01*
X003037Y008053D01*
X003037Y008244D01*
X003038Y008243D02*
X003038Y008054D01*
X003039Y008055D01*
X003039Y008243D01*
X003041Y008242D02*
X003041Y008057D01*
X003042Y008058D01*
X003042Y008241D01*
X003043Y008240D02*
X003043Y008059D01*
X003044Y008060D01*
X003044Y008240D01*
X003046Y008239D02*
X003046Y008062D01*
X003047Y008063D01*
X003047Y008238D01*
X003048Y008237D02*
X003048Y008064D01*
X003049Y008065D01*
X003049Y008237D01*
X003051Y008236D02*
X003051Y008067D01*
X003052Y008068D01*
X003052Y008235D01*
X003053Y008234D02*
X003053Y008069D01*
X003054Y008070D01*
X003054Y008233D01*
X003056Y008233D02*
X003056Y008072D01*
X003057Y008073D01*
X003057Y008232D01*
X003058Y008231D02*
X003058Y008074D01*
X003059Y008075D01*
X003059Y008230D01*
X003061Y008229D02*
X003061Y008077D01*
X003062Y008078D01*
X003062Y008229D01*
X003063Y008228D02*
X003063Y008079D01*
X003064Y008080D01*
X003064Y008227D01*
X003066Y008226D02*
X003066Y008082D01*
X003067Y008083D01*
X003067Y008225D01*
X003068Y008224D02*
X003068Y008084D01*
X003069Y008085D01*
X003069Y008224D01*
X003071Y008223D02*
X003071Y008087D01*
X003072Y008088D01*
X003072Y008222D01*
X003073Y008221D02*
X003073Y008089D01*
X003074Y008090D01*
X003074Y008220D01*
X003076Y008219D02*
X003076Y008092D01*
X003077Y008093D01*
X003077Y008218D01*
X003078Y008217D02*
X003078Y008094D01*
X003079Y008095D01*
X003079Y008217D01*
X003081Y008216D02*
X003081Y008097D01*
X003082Y008098D01*
X003082Y008215D01*
X003083Y008214D02*
X003083Y008099D01*
X003084Y008100D01*
X003084Y008213D01*
X003086Y008212D02*
X003086Y008102D01*
X003087Y008103D01*
X003087Y008211D01*
X003088Y008210D02*
X003088Y008104D01*
X003089Y008105D01*
X003089Y008209D01*
X003091Y008208D02*
X003091Y008107D01*
X003092Y008108D01*
X003092Y008207D01*
X003093Y008206D02*
X003093Y008109D01*
X003094Y008110D01*
X003094Y008205D01*
X003096Y008204D02*
X003096Y008112D01*
X003097Y008113D01*
X003097Y008203D01*
X003098Y008202D02*
X003098Y008114D01*
X003099Y008115D01*
X003099Y008201D01*
X003101Y008200D02*
X003101Y008117D01*
X003102Y008118D01*
X003102Y008199D01*
X003103Y008198D02*
X003103Y008119D01*
X003104Y008120D01*
X003104Y008197D01*
X003106Y008196D02*
X003106Y008122D01*
X003107Y008123D01*
X003107Y008195D01*
X003108Y008194D02*
X003108Y008124D01*
X003109Y008125D01*
X003109Y008193D01*
X003111Y008192D02*
X003111Y008127D01*
X003112Y008128D01*
X003112Y008191D01*
X003113Y008190D02*
X003113Y008129D01*
X003114Y008130D01*
X003114Y008189D01*
X003116Y008188D02*
X003116Y008132D01*
X003117Y008133D01*
X003117Y008187D01*
X003118Y008186D02*
X003118Y008134D01*
X003119Y008135D01*
X003119Y008185D01*
X003121Y008184D02*
X003121Y008137D01*
X003122Y008138D01*
X003122Y008183D01*
X003123Y008181D02*
X003123Y008139D01*
X003124Y008140D01*
X003124Y008180D01*
X003126Y008179D02*
X003126Y008142D01*
X003127Y008143D01*
X003127Y008178D01*
X003128Y008177D02*
X003128Y008144D01*
X003129Y008145D01*
X003129Y008176D01*
X003131Y008175D02*
X003131Y008147D01*
X003132Y008148D01*
X003132Y008173D01*
X003133Y008172D02*
X003133Y008149D01*
X003134Y008150D01*
X003134Y008171D01*
X003136Y008170D02*
X003136Y008152D01*
X003137Y008153D01*
X003137Y008169D01*
X003138Y008167D02*
X003138Y008154D01*
X003139Y008155D01*
X003139Y008166D01*
X003141Y008165D02*
X003141Y008157D01*
X003142Y008158D01*
X003142Y008164D01*
X003143Y008163D02*
X003143Y008159D01*
X003144Y008160D01*
X003144Y008161D01*
X003144Y008160D02*
X003145Y008161D01*
X003143Y008159D02*
X003142Y008158D01*
X003141Y008157D02*
X003139Y008155D01*
X003138Y008154D02*
X003137Y008153D01*
X003136Y008152D02*
X003134Y008150D01*
X003133Y008149D02*
X003132Y008148D01*
X003131Y008147D02*
X003129Y008145D01*
X003128Y008144D02*
X003127Y008143D01*
X003126Y008142D02*
X003124Y008140D01*
X003123Y008139D02*
X003122Y008138D01*
X003121Y008137D02*
X003119Y008135D01*
X003118Y008134D02*
X003117Y008133D01*
X003116Y008132D02*
X003114Y008130D01*
X003113Y008129D02*
X003112Y008128D01*
X003111Y008127D02*
X003109Y008125D01*
X003108Y008124D02*
X003107Y008123D01*
X003106Y008122D02*
X003104Y008120D01*
X003103Y008119D02*
X003102Y008118D01*
X003101Y008117D02*
X003099Y008115D01*
X003098Y008114D02*
X003097Y008113D01*
X003096Y008112D02*
X003094Y008110D01*
X003093Y008109D02*
X003092Y008108D01*
X003091Y008107D02*
X003089Y008105D01*
X003088Y008104D02*
X003087Y008103D01*
X003086Y008102D02*
X003084Y008100D01*
X003083Y008099D02*
X003082Y008098D01*
X003081Y008097D02*
X003079Y008095D01*
X003078Y008094D02*
X003077Y008093D01*
X003076Y008092D02*
X003074Y008090D01*
X003073Y008089D02*
X003072Y008088D01*
X003071Y008087D02*
X003069Y008085D01*
X003068Y008084D02*
X003067Y008083D01*
X003066Y008082D02*
X003064Y008080D01*
X003063Y008079D02*
X003062Y008078D01*
X003061Y008077D02*
X003059Y008075D01*
X003058Y008074D02*
X003057Y008073D01*
X003056Y008072D02*
X003054Y008070D01*
X003053Y008069D02*
X003052Y008068D01*
X003051Y008067D02*
X003049Y008065D01*
X003048Y008064D02*
X003047Y008063D01*
X003046Y008062D02*
X003044Y008060D01*
X003043Y008059D02*
X003042Y008058D01*
X003041Y008057D02*
X003039Y008055D01*
X003038Y008054D02*
X003037Y008053D01*
X003036Y008052D02*
X003034Y008050D01*
X003033Y008049D02*
X003032Y008048D01*
X003031Y008047D02*
X003029Y008045D01*
X003028Y008044D02*
X003027Y008043D01*
X003026Y008042D02*
X003024Y008040D01*
X003023Y008039D02*
X003022Y008038D01*
X002902Y007270D02*
X002904Y007270D01*
X002801Y007255D02*
X002800Y007255D01*
X002772Y008142D02*
X002771Y008142D01*
X002466Y007348D02*
X002467Y007347D01*
X002904Y007271D02*
X002905Y007272D01*
X002617Y007276D02*
X002616Y007277D01*
X003094Y007365D02*
X003095Y007366D01*
X002665Y007264D02*
X002664Y007264D01*
X003050Y007335D02*
X003052Y007335D01*
X002455Y007356D02*
X002454Y007356D01*
X002783Y007254D02*
X002786Y007254D01*
X002498Y007328D02*
X002497Y007329D01*
X002780Y007254D02*
X002782Y007254D01*
X003102Y007371D02*
X003105Y007374D01*
X002591Y007285D02*
X002589Y007285D01*
X002791Y007254D02*
X002792Y007255D01*
X002790Y007254D02*
X002788Y007254D01*
X002668Y007264D02*
X002666Y007264D01*
X002759Y007254D02*
X002762Y007254D01*
X002876Y007265D02*
X002878Y007265D01*
X003110Y007378D02*
X003113Y007380D01*
X003064Y007343D02*
X003063Y007343D01*
X002734Y007255D02*
X002733Y007255D01*
X003095Y007366D02*
X003097Y007367D01*
X002442Y007367D02*
X002440Y007369D01*
X002690Y007260D02*
X002691Y007260D01*
X002767Y007254D02*
X002771Y007254D01*
X002969Y007293D02*
X002974Y007295D01*
X003129Y007395D02*
X003130Y007396D01*
X003045Y007332D02*
X003044Y007331D01*
X002928Y007278D02*
X002924Y007277D01*
X002829Y007257D02*
X002825Y007257D01*
X002912Y007458D02*
X002913Y007458D01*
X002857Y007439D02*
X002854Y007438D01*
X002728Y007256D02*
X002722Y007256D01*
X002596Y007283D02*
X002592Y007284D01*
X002455Y007357D02*
X002454Y007358D01*
X003097Y007366D02*
X003099Y007367D01*
X003025Y007320D02*
X003022Y007318D01*
X002375Y007427D02*
X002371Y007432D01*
X002591Y007285D02*
X002592Y007284D01*
X002846Y007436D02*
X002849Y007437D01*
X002889Y007449D02*
X002894Y007451D01*
X002812Y007431D02*
X002809Y007430D01*
X002987Y007301D02*
X002989Y007302D01*
X002768Y007428D02*
X002764Y007428D01*
X002574Y007291D02*
X002572Y007292D01*
X002861Y007262D02*
X002862Y007262D01*
X003085Y007358D02*
X003088Y007360D01*
X003099Y007369D02*
X003100Y007370D01*
X003044Y007331D02*
X003043Y007330D01*
X002689Y007260D02*
X002679Y007262D01*
X003079Y007354D02*
X003085Y007358D01*
X003015Y007315D02*
X003010Y007312D01*
X002857Y007261D02*
X002847Y007260D01*
X002943Y007283D02*
X002945Y007284D01*
X002719Y007256D02*
X002706Y007258D01*
X002817Y007256D02*
X002818Y007256D01*
X002889Y007268D02*
X002902Y007271D01*
X002913Y007458D02*
X002915Y007459D01*
X002702Y007258D02*
X002693Y007259D01*
X002428Y007679D02*
X002424Y007692D01*
X003145Y008161D02*
X003144Y008163D01*
X003129Y007394D02*
X003128Y007393D01*
X002775Y007253D02*
X002774Y007253D01*
X003003Y007308D02*
X003004Y007309D01*
X002813Y007256D02*
X002804Y007255D01*
X002466Y007349D02*
X002456Y007356D01*
X003088Y007360D02*
X003091Y007361D01*
X002845Y007436D02*
X002842Y007435D01*
X003064Y007343D02*
X003065Y007344D01*
X002572Y007291D02*
X002567Y007293D01*
X002992Y007303D02*
X002997Y007305D01*
X003067Y007345D02*
X003077Y007352D01*
X002485Y007337D02*
X002467Y007348D01*
X003131Y007395D02*
X003138Y007402D01*
X002767Y007253D02*
X002762Y007253D01*
X002838Y007435D02*
X002842Y007436D01*
X002641Y007270D02*
X002621Y007275D01*
X002986Y007299D02*
X002987Y007300D01*
X002789Y007429D02*
X002779Y007428D01*
X002916Y007459D02*
X002923Y007463D01*
X002913Y007274D02*
X002904Y007271D01*
X002838Y007435D02*
X002831Y007433D01*
X002444Y007636D02*
X002441Y007645D01*
X003145Y008161D02*
X003145Y008161D01*
X003079Y007353D02*
X003077Y007351D01*
X003005Y007309D02*
X003004Y007309D01*
X002869Y007442D02*
X002863Y007441D01*
X002928Y007278D02*
X002939Y007282D01*
X002974Y007295D02*
X002983Y007299D01*
X002744Y007254D02*
X002735Y007254D01*
X003016Y007314D02*
X003022Y007317D01*
X002453Y007357D02*
X002448Y007361D01*
X002922Y007276D02*
X002925Y007276D01*
X002567Y007294D02*
X002548Y007302D01*
X003058Y007339D02*
X003063Y007342D01*
X003090Y007362D02*
X003094Y007365D01*
X002876Y007264D02*
X002862Y007261D01*
X002797Y007429D02*
X002789Y007429D01*
X002816Y007431D02*
X002826Y007433D01*
X002441Y007645D02*
X002434Y007661D01*
X002857Y007260D02*
X002861Y007261D01*
X002548Y007302D02*
X002518Y007317D01*
X003006Y007309D02*
X003011Y007311D01*
X003118Y007385D02*
X003128Y007393D01*
X003138Y007403D02*
X003144Y007409D01*
X002943Y007282D02*
X002939Y007281D01*
X003000Y007513D02*
X003021Y007533D01*
X002803Y007430D02*
X002797Y007429D01*
X002869Y007442D02*
X002876Y007444D01*
X002970Y007490D02*
X002986Y007501D01*
X003000Y007513D01*
X002841Y007258D02*
X002834Y007257D01*
X003138Y008168D02*
X003112Y008192D01*
X002786Y007253D02*
X002788Y007253D01*
X002478Y007992D02*
X002496Y008015D01*
X002515Y008036D01*
X002536Y008055D01*
X002734Y007254D02*
X002736Y007254D01*
X002393Y007410D02*
X002376Y007428D01*
X002728Y007255D02*
X002733Y007254D01*
X002943Y007473D02*
X002952Y007478D01*
X002798Y007255D02*
X002792Y007254D01*
X002759Y007254D02*
X002744Y007255D01*
X002894Y007451D02*
X002896Y007451D01*
X002928Y007465D02*
X002943Y007473D01*
X002969Y007293D02*
X002962Y007290D01*
X002434Y007661D02*
X002428Y007679D01*
X002802Y007254D02*
X002804Y007254D01*
X002372Y007432D02*
X002350Y007459D01*
X003066Y007344D02*
X003067Y007344D01*
X002608Y007278D02*
X002595Y007282D01*
X002997Y007304D02*
X003003Y007307D01*
X002419Y007713D02*
X002414Y007749D01*
X002412Y007786D01*
X002414Y007822D01*
X002420Y007858D01*
X002429Y007894D01*
X002442Y007928D01*
X002458Y007961D01*
X002478Y007992D01*
X002691Y007259D02*
X002693Y007258D01*
X003026Y007319D02*
X003040Y007327D01*
X002952Y007478D02*
X002965Y007487D01*
X002912Y007458D02*
X002902Y007454D01*
X002350Y007459D02*
X002324Y007496D01*
X002301Y007535D01*
X002281Y007576D01*
X002265Y007618D01*
X002253Y007661D01*
X002244Y007706D01*
X002239Y007751D01*
X002238Y007796D01*
X002241Y007841D01*
X002248Y007885D01*
X002258Y007929D01*
X002272Y007972D01*
X002290Y008014D01*
X002311Y008054D01*
X002336Y008092D01*
X002363Y008127D01*
X002394Y008161D01*
X002427Y008191D01*
X002463Y008219D01*
X002501Y008243D01*
X002541Y008264D01*
X002582Y008282D01*
X002625Y008296D01*
X002669Y008307D01*
X002714Y008313D01*
X002759Y008316D01*
X002804Y008315D01*
X002849Y008310D01*
X002893Y008301D01*
X002937Y008289D01*
X002979Y008273D01*
X003020Y008253D01*
X003058Y008230D01*
X003095Y008204D01*
X002722Y007255D02*
X002719Y007255D01*
X002435Y007373D02*
X002414Y007391D01*
X002393Y007410D01*
X002829Y007256D02*
X002834Y007257D01*
X002913Y007274D02*
X002922Y007276D01*
X002886Y008122D02*
X002851Y008132D01*
X002816Y008139D01*
X002781Y008142D01*
X003098Y007367D02*
X003100Y007368D01*
X002854Y007438D02*
X002849Y007437D01*
X002764Y007428D02*
X002728Y007430D01*
X002691Y007437D01*
X002656Y007446D01*
X002622Y007460D01*
X002589Y007477D01*
X002558Y007497D01*
X002530Y007520D01*
X002504Y007546D01*
X002481Y007574D01*
X002461Y007605D01*
X002617Y007275D02*
X002621Y007274D01*
X002966Y007487D02*
X002971Y007490D01*
X003053Y007336D02*
X003058Y007339D01*
X002508Y007322D02*
X002498Y007327D01*
X002608Y007279D02*
X002616Y007277D01*
X002881Y007446D02*
X002889Y007449D01*
X002536Y008055D02*
X002564Y008078D01*
X002595Y008097D01*
X002628Y008113D01*
X002663Y008126D01*
X002698Y008135D01*
X002734Y008140D01*
X002771Y008142D01*
X002989Y007301D02*
X002992Y007302D01*
X002454Y007616D02*
X002447Y007631D01*
X002442Y007367D02*
X002448Y007362D01*
X002878Y007264D02*
X002884Y007266D01*
X003021Y008037D02*
X002998Y008059D01*
X002972Y008079D01*
X002944Y008096D01*
X002916Y008111D01*
X002886Y008122D01*
X002798Y007254D02*
X002801Y007254D01*
X002781Y008142D02*
X002772Y008142D01*
X003052Y007335D02*
X003053Y007335D01*
X002880Y007446D02*
X002875Y007444D01*
X002779Y007428D02*
X002773Y007428D01*
X002896Y007451D02*
X002902Y007454D01*
X002497Y007328D02*
X002484Y007336D01*
X002826Y007433D02*
X002831Y007433D01*
X002847Y007259D02*
X002841Y007258D01*
X002809Y007430D02*
X002803Y007430D01*
X002818Y007255D02*
X002826Y007256D01*
X002664Y007263D02*
X002657Y007265D01*
X002768Y007428D02*
X002773Y007428D01*
X002923Y007463D02*
X002928Y007465D01*
X002424Y007692D02*
X002419Y007713D01*
X002702Y007257D02*
X002706Y007257D01*
X003101Y007369D02*
X003102Y007370D01*
X002589Y007284D02*
X002574Y007290D01*
X002946Y007283D02*
X002962Y007289D01*
X003111Y008191D02*
X003095Y008204D01*
X002986Y007299D02*
X002983Y007298D01*
X002657Y007265D02*
X002640Y007269D01*
X002458Y007609D02*
X002454Y007616D01*
X002771Y007253D02*
X002774Y007253D01*
X002518Y007316D02*
X002508Y007322D01*
X002857Y007439D02*
X002863Y007441D01*
X003106Y007373D02*
X003111Y007377D01*
X002817Y007255D02*
X002813Y007255D01*
X003040Y007327D02*
X003043Y007329D01*
X002779Y007253D02*
X002776Y007253D01*
X002679Y007261D02*
X002668Y007263D01*
X003046Y007331D02*
X003051Y007334D01*
X002439Y007368D02*
X002434Y007372D01*
X002447Y007631D02*
X002444Y007636D01*
X003138Y008167D02*
X003143Y008162D01*
X003118Y007384D02*
X003113Y007379D01*
X002816Y007431D02*
X002812Y007431D01*
X002461Y007605D02*
X002458Y007609D01*
X002884Y007266D02*
X002889Y007267D01*
D22*
X002781Y007374D02*
X002781Y007374D01*
X002781Y007374D01*
X002781Y007374D01*
X002781Y007374D01*
X002781Y007374D01*
X002781Y007374D01*
X002781Y007374D01*
X002781Y007374D01*
X003017Y007396D02*
X003018Y007396D01*
X003018Y007395D01*
X003017Y007395D01*
X003016Y007395D01*
X003016Y007396D01*
X003016Y007397D01*
X003017Y007397D01*
X003018Y007397D01*
X003018Y007396D01*
X002451Y007467D02*
X002452Y007467D01*
X002452Y007466D01*
X002451Y007466D01*
X002450Y007466D01*
X002450Y007467D01*
X002450Y007468D01*
X002451Y007468D01*
X002452Y007468D01*
X002452Y007467D01*
X002417Y008020D02*
X002417Y008020D01*
X002417Y008020D01*
X002417Y008020D01*
X002417Y008020D01*
X002417Y008020D01*
X002417Y008020D01*
X002417Y008020D01*
X002417Y008020D01*
X002522Y008174D02*
X002523Y008174D01*
X002523Y008173D01*
X002522Y008173D01*
X002521Y008173D01*
X002521Y008174D01*
X002521Y008175D01*
X002522Y008175D01*
X002523Y008175D01*
X002523Y008174D01*
X003017Y008174D02*
X003018Y008174D01*
X003018Y008173D01*
X003017Y008173D01*
X003016Y008173D01*
X003016Y008174D01*
X003016Y008175D01*
X003017Y008175D01*
X003018Y008175D01*
X003018Y008174D01*
D23*
X003017Y008174D02*
X003017Y008807D01*
X003069Y008860D01*
X002975Y008486D02*
X002974Y008486D01*
X002974Y008486D01*
X002973Y008486D01*
X002972Y008486D01*
X002971Y008486D01*
X002971Y008487D01*
X002970Y008487D01*
X002969Y008487D01*
X002969Y008487D01*
X002968Y008487D01*
X002967Y008487D01*
X002966Y008487D01*
X002966Y008488D01*
X002965Y008488D01*
X002964Y008488D01*
X002964Y008488D01*
X002963Y008488D01*
X002962Y008489D01*
X002961Y008489D01*
X002960Y008489D01*
X002960Y008489D01*
X002959Y008489D01*
X002959Y008489D01*
X002958Y008489D01*
X002957Y008490D01*
X002956Y008490D01*
X002955Y008490D01*
X002955Y008490D01*
X002954Y008490D01*
X002954Y008490D01*
X002953Y008490D01*
X002952Y008491D01*
X002951Y008491D01*
X002950Y008491D01*
X002950Y008491D01*
X002949Y008491D01*
X002949Y008491D01*
X002948Y008491D01*
X002947Y008492D01*
X002946Y008492D01*
X002945Y008492D01*
X002945Y008492D01*
X002944Y008492D01*
X002944Y008492D01*
X002943Y008492D01*
X002942Y008493D01*
X002941Y008493D01*
X002940Y008493D01*
X002940Y008493D01*
X002939Y008493D01*
X002939Y008493D01*
X002938Y008493D01*
X002937Y008494D01*
X002936Y008494D01*
X002935Y008494D01*
X002934Y008494D01*
X002934Y008494D01*
X002933Y008494D01*
X002932Y008494D01*
X002931Y008494D01*
X002931Y008495D01*
X002930Y008495D01*
X002929Y008495D01*
X002929Y008495D01*
X002928Y008495D01*
X002927Y008495D01*
X002926Y008495D01*
X002926Y008495D01*
X002925Y008495D01*
X002925Y008496D01*
X002924Y008496D01*
X002924Y008496D01*
X002923Y008496D01*
X002922Y008496D01*
X002921Y008496D01*
X002920Y008496D01*
X002920Y008496D01*
X002919Y008496D01*
X002919Y008496D01*
X002917Y008496D01*
X002917Y008497D01*
X002916Y008497D01*
X002915Y008497D01*
X002915Y008497D01*
X002914Y008497D01*
X002914Y008497D01*
X002912Y008497D01*
X002911Y008497D01*
X002911Y008497D01*
X002910Y008497D01*
X002910Y008498D01*
X002909Y008498D01*
X002909Y008498D01*
X002907Y008498D01*
X002906Y008498D01*
X002905Y008498D01*
X002905Y008498D01*
X002904Y008498D01*
X002904Y008498D01*
X002902Y008498D01*
X002902Y008498D01*
X002901Y008498D01*
X002901Y008499D01*
X002900Y008499D01*
X002899Y008499D01*
X002899Y008499D01*
X002897Y008499D01*
X002896Y008499D01*
X002895Y008499D01*
X002895Y008499D01*
X002894Y008499D01*
X002894Y008499D01*
X002892Y008499D01*
X002892Y008499D01*
X002891Y008499D01*
X002891Y008500D01*
X002890Y008500D01*
X002889Y008500D01*
X002889Y008500D01*
X002887Y008500D01*
X002886Y008500D01*
X002885Y008500D01*
X002885Y008500D01*
X002884Y008500D01*
X002884Y008500D01*
X002882Y008500D01*
X002881Y008500D01*
X002881Y008500D01*
X002880Y008500D01*
X002880Y008500D01*
X002879Y008500D01*
X002879Y008500D01*
X002877Y008500D01*
X002877Y008501D01*
X002876Y008501D01*
X002875Y008501D01*
X002874Y008501D01*
X002874Y008501D01*
X002872Y008501D01*
X002871Y008501D01*
X002870Y008501D01*
X002870Y008501D01*
X002869Y008501D01*
X002869Y008501D01*
X002867Y008501D01*
X002866Y008501D01*
X002865Y008501D01*
X002865Y008501D01*
X002864Y008501D01*
X002864Y008501D01*
X002862Y008501D01*
X002861Y008501D01*
X002861Y008501D01*
X002860Y008501D01*
X002860Y008501D01*
X002859Y008501D01*
X002800Y008516D01*
X002800Y008516D01*
X002710Y008501D01*
X002692Y008501D01*
X002690Y008501D01*
X002689Y008501D01*
X002688Y008501D01*
X002687Y008501D01*
X002685Y008501D01*
X002684Y008501D01*
X002683Y008501D01*
X002682Y008501D01*
X002682Y008501D01*
X002680Y008501D01*
X002679Y008501D01*
X002678Y008501D01*
X002677Y008501D01*
X002677Y008501D01*
X002675Y008501D01*
X002674Y008501D01*
X002673Y008501D01*
X002673Y008501D01*
X002672Y008501D01*
X002672Y008501D01*
X002670Y008501D01*
X002669Y008501D01*
X002669Y008501D01*
X002668Y008501D01*
X002668Y008501D01*
X002667Y008501D01*
X002667Y008501D01*
X002665Y008501D01*
X002664Y008501D01*
X002664Y008501D01*
X002663Y008501D01*
X002663Y008501D01*
X002662Y008501D01*
X002661Y008501D01*
X002660Y008501D01*
X002660Y008500D01*
X002659Y008500D01*
X002658Y008500D01*
X002657Y008500D01*
X002656Y008500D01*
X002655Y008500D01*
X002654Y008500D01*
X002653Y008500D01*
X002653Y008500D01*
X002652Y008500D01*
X002651Y008500D01*
X002650Y008500D01*
X002649Y008500D01*
X002649Y008500D01*
X002648Y008500D01*
X002648Y008500D01*
X002647Y008500D01*
X002646Y008499D01*
X002645Y008499D01*
X002644Y008499D01*
X002643Y008499D01*
X002643Y008499D01*
X002642Y008499D01*
X002641Y008499D01*
X002640Y008499D01*
X002639Y008499D01*
X002639Y008499D01*
X002638Y008499D01*
X002638Y008499D01*
X002637Y008499D01*
X002636Y008498D01*
X002635Y008498D01*
X002634Y008498D01*
X002633Y008498D01*
X002633Y008498D01*
X002632Y008498D01*
X002631Y008498D01*
X002630Y008498D01*
X002629Y008498D01*
X002629Y008498D01*
X002628Y008498D01*
X002628Y008497D01*
X002627Y008497D01*
X002626Y008497D01*
X002625Y008497D01*
X002624Y008497D01*
X002624Y008497D01*
X002623Y008497D01*
X002623Y008497D01*
X002622Y008497D01*
X002621Y008497D01*
X002620Y008497D01*
X002620Y008496D01*
X002619Y008496D01*
X002618Y008496D01*
X002618Y008496D01*
X002617Y008496D01*
X002616Y008496D01*
X002615Y008496D01*
X002615Y008496D01*
X002614Y008496D01*
X002614Y008495D01*
X002613Y008495D01*
X002612Y008495D01*
X002611Y008495D01*
X002610Y008495D01*
X002609Y008495D01*
X002609Y008495D01*
X002608Y008495D01*
X002608Y008495D01*
X002607Y008495D01*
X002606Y008494D01*
X002605Y008494D01*
X002604Y008494D01*
X002604Y008494D01*
X002603Y008494D01*
X002603Y008494D01*
X002602Y008494D01*
X002601Y008493D01*
X002600Y008493D01*
X002599Y008493D01*
X002598Y008493D01*
X002598Y008493D01*
X002597Y008493D01*
X002596Y008493D01*
X002595Y008493D01*
X002595Y008492D01*
X002594Y008492D01*
X002593Y008492D01*
X002593Y008492D01*
X002592Y008492D01*
X002591Y008492D01*
X002590Y008492D01*
X002590Y008491D01*
X002589Y008491D01*
X002588Y008491D01*
X002588Y008491D01*
X002587Y008491D01*
X002586Y008491D01*
X002585Y008491D01*
X002585Y008490D01*
X002584Y008490D01*
X002583Y008490D01*
X002583Y008490D01*
X002582Y008490D01*
X002581Y008490D01*
X002580Y008490D01*
X002580Y008489D01*
X002579Y008489D01*
X002578Y008489D01*
X002578Y008489D01*
X002577Y008489D01*
X002576Y008488D01*
X002575Y008488D01*
X002574Y008488D01*
X002574Y008488D01*
X002573Y008488D01*
X002573Y008488D01*
X002572Y008488D01*
X002571Y008487D01*
X002570Y008487D01*
X002569Y008487D01*
X002569Y008487D01*
X002568Y008487D01*
X002568Y008486D01*
X002567Y008486D01*
X002566Y008486D01*
X002565Y008486D01*
X002564Y008486D01*
X002564Y008485D01*
X002563Y008485D01*
X002562Y008485D01*
X002561Y008485D01*
X002560Y008485D01*
X002560Y008484D01*
X002559Y008484D01*
X002558Y008484D01*
X002557Y008484D01*
X002556Y008483D01*
X002555Y008483D01*
X002554Y008483D01*
X002554Y008483D01*
X002553Y008483D01*
X002552Y008482D01*
X002551Y008482D01*
X002550Y008482D01*
X002549Y008482D01*
X002549Y008481D01*
X002548Y008481D01*
X002547Y008481D01*
X002546Y008481D01*
X002545Y008481D01*
X002545Y008480D01*
X002544Y008480D01*
X002543Y008480D01*
X002542Y008480D01*
X002541Y008479D01*
X002540Y008479D01*
X002539Y008479D01*
X002539Y008478D01*
X002538Y008478D01*
X002537Y008478D01*
X002537Y008478D01*
X002536Y008478D01*
X002535Y008478D01*
X002535Y008477D01*
X002534Y008477D01*
X002534Y008477D01*
X002533Y008477D01*
X002532Y008477D01*
X002532Y008477D01*
X002531Y008476D01*
X002530Y008476D01*
X002529Y008476D01*
X002529Y008475D01*
X002528Y008475D01*
X002527Y008475D01*
X002527Y008475D01*
X002526Y008475D01*
X002525Y008475D01*
X002525Y008474D01*
X002524Y008474D01*
X002524Y008474D01*
X002523Y008474D01*
X002522Y008473D01*
X002522Y008473D01*
X002521Y008473D01*
X002520Y008473D01*
X002520Y008472D01*
X002519Y008472D01*
X002518Y008472D01*
X002517Y008472D01*
X002517Y008472D01*
X002516Y008471D01*
X002515Y008471D01*
X002515Y008471D01*
X002514Y008471D01*
X002514Y008470D01*
X002513Y008470D01*
X002512Y008470D01*
X002512Y008470D01*
X002511Y008469D01*
X002510Y008469D01*
X002509Y008469D01*
X002509Y008468D01*
X002508Y008468D01*
X002507Y008468D01*
X002507Y008468D01*
X002506Y008468D01*
X002503Y008467D01*
X002502Y008466D01*
X002502Y008466D01*
X002501Y008466D01*
X002501Y008466D01*
X002500Y008466D01*
X002500Y008465D01*
X002499Y008465D01*
X002499Y008465D01*
X002498Y008465D01*
X002497Y008464D01*
X002497Y008464D01*
X002496Y008464D01*
X002495Y008464D01*
X002495Y008463D01*
X002494Y008463D01*
X002494Y008463D01*
X002493Y008463D01*
X002492Y008462D01*
X002492Y008462D01*
X002491Y008462D01*
X002490Y008462D01*
X002490Y008461D01*
X002489Y008461D01*
X002489Y008460D01*
X002488Y008460D01*
X002487Y008460D01*
X002487Y008460D01*
X002486Y008459D01*
X002485Y008459D01*
X002484Y008459D01*
X002484Y008458D01*
X002483Y008458D01*
X002482Y008458D01*
X002482Y008458D01*
X002481Y008457D01*
X002480Y008457D01*
X002479Y008457D01*
X002479Y008456D01*
X002478Y008456D01*
X002477Y008456D01*
X002477Y008456D01*
X002476Y008455D01*
X002475Y008455D01*
X002475Y008455D01*
X002474Y008455D01*
X002474Y008454D01*
X002473Y008454D01*
X002472Y008453D01*
X002472Y008453D01*
X002471Y008453D01*
X002470Y008453D01*
X002470Y008452D01*
X002469Y008452D01*
X002468Y008452D01*
X002467Y008451D01*
X002467Y008451D01*
X002466Y008450D01*
X002465Y008450D01*
X002464Y008450D01*
X002463Y008449D01*
X002462Y008449D01*
X002462Y008449D01*
X002461Y008448D01*
X002460Y008448D01*
X002460Y008447D01*
X002459Y008447D01*
X002458Y008447D01*
X002457Y008446D01*
X002457Y008446D01*
X002456Y008446D01*
X002455Y008446D01*
X002455Y008445D01*
X002454Y008445D01*
X002453Y008444D01*
X002452Y008444D01*
X002452Y008444D01*
X002451Y008443D01*
X002450Y008443D01*
X002450Y008442D01*
X002449Y008442D01*
X002448Y008442D01*
X002447Y008441D01*
X002447Y008441D01*
X002446Y008441D01*
X002445Y008441D01*
X002445Y008440D01*
X002444Y008440D01*
X002443Y008439D01*
X002442Y008439D01*
X002442Y008439D01*
X002441Y008438D01*
X002440Y008438D01*
X002440Y008437D01*
X002439Y008437D01*
X002438Y008436D01*
X002437Y008436D01*
X002437Y008436D01*
X002436Y008435D01*
X002435Y008435D01*
X002435Y008434D01*
X002434Y008434D01*
X002433Y008434D01*
X002432Y008433D01*
X002432Y008433D01*
X002431Y008432D01*
X002430Y008432D01*
X002430Y008432D01*
X002429Y008432D01*
X002428Y008431D01*
X002427Y008430D01*
X002427Y008430D01*
X002426Y008429D01*
X002425Y008429D01*
X002424Y008429D01*
X002423Y008428D01*
X002422Y008427D01*
X002422Y008427D01*
X002421Y008426D01*
X002420Y008426D01*
X002419Y008426D01*
X002418Y008425D01*
X002417Y008424D01*
X002417Y008424D01*
X002416Y008423D01*
X002415Y008423D01*
X002414Y008423D01*
X002413Y008422D01*
X002412Y008421D01*
X002412Y008421D01*
X002411Y008420D01*
X002410Y008420D01*
X002410Y008420D01*
X002409Y008420D01*
X002408Y008419D01*
X002407Y008418D01*
X002407Y008418D01*
X002406Y008417D01*
X002405Y008417D01*
X002405Y008416D01*
X002404Y008416D01*
X002403Y008416D01*
X002402Y008415D01*
X002402Y008415D01*
X002401Y008414D01*
X002400Y008414D01*
X002399Y008413D01*
X002398Y008412D01*
X002397Y008411D01*
X002397Y008411D01*
X002396Y008411D01*
X002395Y008411D01*
X002394Y008410D01*
X002393Y008409D01*
X002392Y008408D01*
X002392Y008408D01*
X002391Y008407D01*
X002390Y008407D01*
X002389Y008406D01*
X002388Y008405D01*
X002387Y008405D01*
X002387Y008405D01*
X002386Y008404D01*
X002385Y008404D01*
X002384Y008403D01*
X002383Y008402D01*
X002383Y008402D01*
X002382Y008401D01*
X002382Y008401D01*
X002381Y008400D01*
X002380Y008400D01*
X002379Y008399D01*
X002378Y008398D01*
X002378Y008398D01*
X002377Y008397D01*
X002377Y008397D01*
X002376Y008396D01*
X002375Y008396D01*
X002374Y008396D01*
X002373Y008395D01*
X002373Y008395D01*
X002372Y008394D01*
X002372Y008394D01*
X002371Y008393D01*
X002370Y008393D01*
X002369Y008392D01*
X002368Y008391D01*
X002368Y008391D01*
X002367Y008390D01*
X002367Y008390D01*
X002366Y008389D01*
X002365Y008389D01*
X002364Y008388D01*
X002363Y008387D01*
X002363Y008387D01*
X002362Y008386D01*
X002362Y008386D01*
X002361Y008385D01*
X002360Y008385D01*
X002359Y008384D01*
X002358Y008383D01*
X002358Y008383D01*
X002357Y008382D01*
X002357Y008382D01*
X002356Y008381D01*
X002355Y008381D01*
X002354Y008380D01*
X002353Y008379D01*
X002353Y008379D01*
X002352Y008378D01*
X002352Y008378D01*
X002351Y008377D01*
X002350Y008377D01*
X002349Y008376D01*
X002348Y008375D01*
X002348Y008375D01*
X002347Y008373D01*
X002347Y008373D01*
X002345Y008372D01*
X002344Y008371D01*
X002343Y008370D01*
X002343Y008370D01*
X002342Y008369D01*
X002342Y008369D01*
X002340Y008368D01*
X002339Y008367D01*
X002338Y008366D01*
X002338Y008366D01*
X002337Y008365D01*
X002337Y008365D01*
X002335Y008364D01*
X002334Y008362D01*
X002333Y008361D01*
X002333Y008361D01*
X002332Y008360D01*
X002332Y008360D01*
X002330Y008359D01*
X002329Y008358D01*
X002328Y008357D01*
X002328Y008357D01*
X002327Y008355D01*
X002327Y008355D01*
X002325Y008354D01*
X002324Y008353D01*
X002323Y008352D01*
X002323Y008352D01*
X002322Y008351D01*
X002322Y008351D01*
X002320Y008349D01*
X002319Y008348D01*
X002318Y008347D01*
X002318Y008347D01*
X002315Y008344D01*
X002252Y008303D01*
X002252Y008303D01*
X002210Y008239D01*
X002208Y008237D01*
X002207Y008236D01*
X002206Y008235D01*
X002206Y008235D01*
X002204Y008234D01*
X002204Y008234D01*
X002203Y008232D01*
X002202Y008231D01*
X002202Y008231D01*
X002201Y008230D01*
X002201Y008230D01*
X002199Y008228D01*
X002198Y008227D01*
X002197Y008226D01*
X002197Y008226D01*
X002196Y008224D01*
X002194Y008223D01*
X002194Y008223D01*
X002193Y008222D01*
X002193Y008222D01*
X002192Y008220D01*
X002191Y008219D01*
X002191Y008219D01*
X002189Y008218D01*
X002189Y008217D01*
X002188Y008216D01*
X002187Y008215D01*
X002187Y008215D01*
X002186Y008213D01*
X002184Y008212D01*
X002184Y008212D01*
X002183Y008211D01*
X002183Y008210D01*
X002182Y008209D01*
X002182Y008209D01*
X002181Y008208D01*
X002181Y008207D01*
X002179Y008206D01*
X002178Y008205D01*
X002178Y008204D01*
X002177Y008203D01*
X002176Y008202D01*
X002176Y008201D01*
X002174Y008200D01*
X002173Y008199D01*
X002173Y008198D01*
X002172Y008197D01*
X002171Y008196D01*
X002171Y008195D01*
X002169Y008194D01*
X002169Y008194D01*
X002168Y008192D01*
X002167Y008191D01*
X002167Y008191D01*
X002166Y008189D01*
X002164Y008188D01*
X002164Y008187D01*
X002163Y008186D01*
X002163Y008186D01*
X002162Y008184D01*
X002161Y008183D01*
X002161Y008182D01*
X002159Y008181D01*
X002159Y008181D01*
X002158Y008180D01*
X002158Y008179D01*
X002157Y008178D01*
X002157Y008177D01*
X002156Y008176D01*
X002156Y008176D01*
X002154Y008174D01*
X002153Y008173D01*
X002153Y008172D01*
X002152Y008171D01*
X002152Y008170D01*
X002151Y008169D01*
X002151Y008169D01*
X002149Y008167D01*
X002148Y008166D01*
X002148Y008165D01*
X002147Y008164D01*
X002147Y008163D01*
X002146Y008162D01*
X002146Y008161D01*
X002144Y008160D01*
X002144Y008160D01*
X002143Y008158D01*
X002142Y008156D01*
X002141Y008155D01*
X002141Y008154D01*
X002139Y008153D01*
X002139Y008152D01*
X002138Y008151D01*
X002138Y008150D01*
X002137Y008149D01*
X002137Y008148D01*
X002136Y008147D01*
X002136Y008146D01*
X002134Y008145D01*
X002134Y008144D01*
X002133Y008143D01*
X002133Y008142D01*
X002132Y008141D01*
X002132Y008140D01*
X002131Y008139D01*
X002131Y008138D01*
X002129Y008137D01*
X002129Y008136D01*
X002128Y008135D01*
X002128Y008134D01*
X002127Y008133D01*
X002127Y008132D01*
X002126Y008131D01*
X002126Y008130D01*
X002124Y008128D01*
X002124Y008127D01*
X002123Y008126D01*
X002123Y008125D01*
X002122Y008124D01*
X002122Y008123D01*
X002121Y008122D01*
X002121Y008121D01*
X002119Y008120D01*
X002119Y008119D01*
X002118Y008117D01*
X002118Y008116D01*
X002117Y008115D01*
X002117Y008114D01*
X002116Y008113D01*
X002116Y008112D01*
X002114Y008110D01*
X002114Y008109D01*
X002113Y008108D01*
X002113Y008107D01*
X002112Y008106D01*
X002112Y008104D01*
X002111Y008103D01*
X002111Y008102D01*
X002109Y008101D01*
X002109Y008099D01*
X002108Y008098D01*
X002108Y008097D01*
X002107Y008096D01*
X002107Y008094D01*
X002106Y008093D01*
X002106Y008092D01*
X002104Y008090D01*
X002104Y008089D01*
X002103Y008088D01*
X002103Y008086D01*
X002102Y008085D01*
X002102Y008084D01*
X002101Y008082D01*
X001777Y008082D01*
X001777Y007964D02*
X002063Y007964D01*
X002063Y007962D02*
X002062Y007961D01*
X002062Y007955D01*
X002061Y007954D01*
X002061Y007948D01*
X002059Y007946D01*
X002059Y007939D01*
X002058Y007938D01*
X002058Y007930D01*
X002057Y007929D01*
X002057Y007920D01*
X002056Y007918D01*
X002056Y007907D01*
X002054Y007905D01*
X002054Y007887D01*
X002053Y007886D01*
X002053Y007848D01*
X002038Y007755D01*
X002053Y007694D01*
X002053Y007684D01*
X002054Y007683D01*
X002054Y007665D01*
X002056Y007664D01*
X002056Y007652D01*
X002057Y007650D01*
X002057Y007641D01*
X002058Y007640D01*
X002058Y007632D01*
X002059Y007631D01*
X002059Y007624D01*
X002061Y007622D01*
X002061Y007616D01*
X002062Y007615D01*
X002062Y007609D01*
X002063Y007608D01*
X001777Y007608D01*
X001777Y007490D02*
X002100Y007490D01*
X002099Y007490D02*
X002101Y007489D01*
X002101Y007488D01*
X002102Y007486D01*
X002102Y007485D01*
X002103Y007484D01*
X002103Y007482D01*
X002104Y007481D01*
X002104Y007480D01*
X002106Y007478D01*
X002106Y007477D01*
X002107Y007476D01*
X002107Y007474D01*
X002108Y007473D01*
X002108Y007472D01*
X002109Y007471D01*
X002109Y007469D01*
X002110Y007469D01*
X002111Y007464D01*
X002114Y007460D01*
X002114Y007460D01*
X002115Y007459D01*
X002116Y007458D01*
X002116Y007457D01*
X002117Y007456D01*
X002117Y007455D01*
X002118Y007454D01*
X002118Y007453D01*
X002119Y007451D01*
X002119Y007450D01*
X002121Y007449D01*
X002121Y007448D01*
X002122Y007447D01*
X002122Y007446D01*
X002123Y007445D01*
X002123Y007444D01*
X002124Y007443D01*
X002124Y007442D01*
X002126Y007440D01*
X002126Y007439D01*
X002127Y007438D01*
X002127Y007437D01*
X002128Y007436D01*
X002128Y007435D01*
X002129Y007434D01*
X002129Y007433D01*
X002131Y007432D01*
X002131Y007431D01*
X002132Y007430D01*
X002132Y007429D01*
X002133Y007428D01*
X002133Y007427D01*
X002134Y007426D01*
X002134Y007425D01*
X002136Y007424D01*
X002136Y007423D01*
X002137Y007422D01*
X002137Y007421D01*
X002138Y007420D01*
X002138Y007419D01*
X002139Y007418D01*
X002139Y007417D01*
X002141Y007416D01*
X002141Y007415D01*
X002142Y007414D01*
X002142Y007414D01*
X002143Y007412D01*
X002143Y007412D01*
X002144Y007410D01*
X002146Y007409D01*
X002146Y007408D01*
X002147Y007407D01*
X002147Y007406D01*
X002148Y007405D01*
X002148Y007404D01*
X002149Y007403D01*
X002149Y007403D01*
X002151Y007401D01*
X002152Y007400D01*
X002152Y007399D01*
X002153Y007398D01*
X002153Y007397D01*
X002154Y007396D01*
X002154Y007396D01*
X002156Y007394D01*
X002157Y007393D01*
X002157Y007392D01*
X002158Y007391D01*
X002158Y007390D01*
X002159Y007389D01*
X002161Y007388D01*
X002161Y007387D01*
X002162Y007386D01*
X002162Y007386D01*
X002163Y007384D01*
X002164Y007383D01*
X002164Y007382D01*
X002166Y007381D01*
X002166Y007381D01*
X002167Y007379D01*
X002168Y007378D01*
X002168Y007378D01*
X002169Y007376D01*
X002171Y007375D01*
X002171Y007374D01*
X002172Y007373D01*
X002172Y007373D01*
X002173Y007372D01*
X002173Y007371D01*
X002174Y007370D01*
X002174Y007370D01*
X002176Y007369D01*
X002176Y007368D01*
X002177Y007367D01*
X002177Y007367D01*
X002178Y007366D01*
X002178Y007365D01*
X002179Y007364D01*
X002179Y007364D01*
X002181Y007363D01*
X002181Y007362D01*
X002182Y007361D01*
X002183Y007360D01*
X002183Y007359D01*
X002184Y007358D01*
X002186Y007357D01*
X002186Y007357D01*
X002187Y007355D01*
X002188Y007354D01*
X002188Y007354D01*
X002189Y007353D01*
X002189Y007352D01*
X002191Y007351D01*
X002192Y007350D01*
X002192Y007350D01*
X002193Y007348D01*
X002194Y007347D01*
X002196Y007346D01*
X002196Y007346D01*
X002197Y007344D01*
X002198Y007343D01*
X002198Y007343D01*
X002199Y007342D01*
X002199Y007342D01*
X002201Y007340D01*
X002202Y007339D01*
X002203Y007338D01*
X002203Y007338D01*
X002204Y007336D01*
X002206Y007335D01*
X002207Y007334D01*
X002207Y007334D01*
X002208Y007333D01*
X002208Y007333D01*
X002231Y007310D01*
X002250Y007285D01*
X002256Y007284D01*
X002258Y007282D01*
X002258Y007277D01*
X002264Y007272D01*
X002265Y007271D01*
X002268Y007268D01*
X002268Y007268D01*
X002275Y007262D01*
X002275Y007260D01*
X002280Y007256D01*
X002282Y007255D01*
X002282Y007254D01*
X002283Y007253D01*
X002284Y007253D01*
X002285Y007252D01*
X002285Y007252D01*
X002285Y007252D01*
X002288Y007249D01*
X002290Y007247D01*
X002292Y007247D01*
X002297Y007243D01*
X002297Y007240D01*
X002299Y007239D01*
X002308Y007233D01*
X002317Y007224D01*
X002318Y007223D01*
X002319Y007222D01*
X002319Y007222D01*
X002320Y007221D01*
X002320Y007221D01*
X002322Y007219D01*
X002323Y007218D01*
X002324Y007217D01*
X002324Y007217D01*
X002325Y007216D01*
X002325Y007216D01*
X002327Y007215D01*
X002328Y007213D01*
X002329Y007212D01*
X002329Y007212D01*
X002330Y007211D01*
X002330Y007211D01*
X002332Y007210D01*
X002333Y007209D01*
X002334Y007208D01*
X002334Y007208D01*
X002335Y007206D01*
X002335Y007206D01*
X002337Y007205D01*
X002338Y007204D01*
X002339Y007203D01*
X002339Y007203D01*
X002340Y007202D01*
X002340Y007202D01*
X002342Y007201D01*
X002343Y007200D01*
X002344Y007199D01*
X002344Y007199D01*
X002345Y007198D01*
X002345Y007198D01*
X002347Y007197D01*
X002348Y007195D01*
X002349Y007194D01*
X002349Y007194D01*
X002350Y007193D01*
X002351Y007193D01*
X002352Y007192D01*
X002353Y007191D01*
X002354Y007190D01*
X002354Y007190D01*
X002355Y007189D01*
X002356Y007189D01*
X002357Y007188D01*
X002358Y007187D01*
X002359Y007186D01*
X002359Y007186D01*
X002360Y007185D01*
X002361Y007185D01*
X002362Y007184D01*
X002363Y007183D01*
X002364Y007182D01*
X002364Y007182D01*
X002365Y007181D01*
X002366Y007181D01*
X002367Y007180D01*
X002368Y007179D01*
X002369Y007178D01*
X002369Y007178D01*
X002370Y007177D01*
X002371Y007177D01*
X002372Y007176D01*
X002373Y007175D01*
X002374Y007174D01*
X002374Y007174D01*
X002375Y007174D01*
X002376Y007174D01*
X002377Y007173D01*
X002378Y007172D01*
X002379Y007171D01*
X002379Y007171D01*
X002380Y007170D01*
X002381Y007170D01*
X002382Y007169D01*
X002383Y007168D01*
X002384Y007167D01*
X002384Y007167D01*
X002385Y007166D01*
X002386Y007166D01*
X002387Y007165D01*
X002388Y007165D01*
X002388Y007165D01*
X002389Y007164D01*
X002389Y007164D01*
X002390Y007163D01*
X002391Y007163D01*
X002392Y007162D01*
X002393Y007161D01*
X002393Y007161D01*
X002394Y007160D01*
X002394Y007160D01*
X002395Y007159D01*
X002396Y007159D01*
X002397Y007159D01*
X002398Y007158D01*
X002398Y007158D01*
X002399Y007157D01*
X002399Y007157D01*
X002400Y007156D01*
X002401Y007156D01*
X002402Y007155D01*
X002403Y007154D01*
X002403Y007154D01*
X002404Y007154D01*
X002405Y007154D01*
X002405Y007153D01*
X002406Y007153D01*
X002407Y007152D01*
X002408Y007151D01*
X002408Y007151D01*
X002409Y007150D01*
X002410Y007150D01*
X002411Y007150D01*
X002412Y007149D01*
X002413Y007148D01*
X002413Y007148D01*
X002414Y007147D01*
X002415Y007147D01*
X002415Y007147D01*
X002416Y007147D01*
X002417Y007146D01*
X002418Y007145D01*
X002418Y007145D01*
X002419Y007144D01*
X002420Y007144D01*
X002420Y007143D01*
X002421Y007143D01*
X002422Y007143D01*
X002423Y007142D01*
X002423Y007142D01*
X002424Y007141D01*
X002425Y007141D01*
X002425Y007141D01*
X002426Y007141D01*
X002427Y007140D01*
X002428Y007139D01*
X002428Y007139D01*
X002429Y007138D01*
X002430Y007138D01*
X002431Y007138D01*
X002432Y007137D01*
X002433Y007136D01*
X002433Y007136D01*
X002434Y007136D01*
X002435Y007136D01*
X002435Y007135D01*
X002436Y007135D01*
X002437Y007134D01*
X002438Y007134D01*
X002438Y007134D01*
X002439Y007133D01*
X002440Y007133D01*
X002440Y007132D01*
X002441Y007132D01*
X002442Y007131D01*
X002443Y007131D01*
X002443Y007131D01*
X002444Y007130D01*
X002445Y007130D01*
X002445Y007129D01*
X002446Y007129D01*
X002447Y007129D01*
X002448Y007128D01*
X002448Y007128D01*
X002449Y007128D01*
X002450Y007128D01*
X002450Y007127D01*
X002451Y007127D01*
X002452Y007126D01*
X002453Y007126D01*
X002453Y007126D01*
X002454Y007125D01*
X002455Y007125D01*
X002455Y007124D01*
X002456Y007124D01*
X002457Y007124D01*
X002458Y007123D01*
X002458Y007123D01*
X002459Y007123D01*
X002460Y007123D01*
X002460Y007122D01*
X002461Y007122D01*
X002462Y007121D01*
X002463Y007121D01*
X002463Y007121D01*
X002464Y007120D01*
X002465Y007120D01*
X002465Y007120D01*
X002466Y007120D01*
X002467Y007119D01*
X002468Y007118D01*
X002468Y007118D01*
X002469Y007118D01*
X002470Y007118D01*
X002470Y007117D01*
X002471Y007117D01*
X002472Y007117D01*
X002473Y007116D01*
X002474Y007116D01*
X002474Y007115D01*
X002475Y007115D01*
X002476Y007115D01*
X002477Y007114D01*
X002478Y007114D01*
X002479Y007114D01*
X002479Y007113D01*
X002480Y007113D01*
X002480Y007113D01*
X002481Y007113D01*
X002482Y007112D01*
X002483Y007112D01*
X002484Y007112D01*
X002484Y007111D01*
X002485Y007111D01*
X002485Y007111D01*
X002486Y007111D01*
X002487Y007110D01*
X002488Y007110D01*
X002489Y007110D01*
X002489Y007109D01*
X002490Y007109D01*
X002490Y007108D01*
X002491Y007108D01*
X002492Y007108D01*
X002493Y007107D01*
X002494Y007107D01*
X002495Y007107D01*
X002495Y007106D01*
X002496Y007106D01*
X002497Y007106D01*
X002497Y007106D01*
X002498Y007105D01*
X002499Y007105D01*
X002500Y007105D01*
X002500Y007104D01*
X002501Y007104D01*
X002502Y007104D01*
X002503Y007104D01*
X002504Y007104D01*
X002504Y007103D01*
X002505Y007103D01*
X002505Y007103D01*
X002506Y007103D01*
X002507Y007102D01*
X002508Y007102D01*
X002509Y007102D01*
X002509Y007101D01*
X002510Y007101D01*
X002510Y007101D01*
X002511Y007101D01*
X002512Y007100D01*
X002513Y007100D01*
X002514Y007100D01*
X002514Y007099D01*
X002515Y007099D01*
X002516Y007099D01*
X002517Y007098D01*
X002518Y007098D01*
X002519Y007098D01*
X002519Y007098D01*
X002520Y007098D01*
X002520Y007097D01*
X002521Y007097D01*
X002522Y007097D01*
X002523Y007096D01*
X002524Y007096D01*
X002525Y007096D01*
X002525Y007095D01*
X002526Y007095D01*
X002527Y007095D01*
X002528Y007095D01*
X002529Y007095D01*
X002529Y007094D01*
X002530Y007094D01*
X002530Y007094D01*
X002531Y007094D01*
X002532Y007093D01*
X002533Y007093D01*
X002534Y007093D01*
X002535Y007093D01*
X002535Y007092D01*
X002536Y007092D01*
X002537Y007092D01*
X002538Y007092D01*
X002539Y007092D01*
X002539Y007091D01*
X002540Y007091D01*
X002540Y007091D01*
X002541Y007091D01*
X002542Y007090D01*
X002542Y007090D01*
X002543Y007090D01*
X002544Y007090D01*
X002544Y007090D01*
X002545Y007090D01*
X002545Y007089D01*
X002546Y007089D01*
X002547Y007089D01*
X002547Y007089D01*
X002548Y007089D01*
X002549Y007089D01*
X002549Y007088D01*
X002550Y007088D01*
X002550Y007088D01*
X002551Y007088D01*
X002552Y007088D01*
X002552Y007088D01*
X002553Y007087D01*
X002554Y007087D01*
X002555Y007087D01*
X002555Y007087D01*
X002556Y007087D01*
X002557Y007086D01*
X002557Y007086D01*
X002558Y007086D01*
X002559Y007086D01*
X002559Y007086D01*
X002560Y007086D01*
X002560Y007085D01*
X002561Y007085D01*
X002562Y007085D01*
X002563Y007085D01*
X002564Y007085D01*
X002564Y007084D01*
X002565Y007084D01*
X002565Y007084D01*
X002566Y007084D01*
X002567Y007084D01*
X002568Y007084D01*
X002568Y007083D01*
X002569Y007083D01*
X002570Y007083D01*
X002570Y007083D01*
X002571Y007083D01*
X002572Y007082D01*
X002573Y007082D01*
X002574Y007082D01*
X002575Y007082D01*
X002575Y007082D01*
X002576Y007082D01*
X002577Y007081D01*
X002578Y007081D01*
X002579Y007081D01*
X002579Y007081D01*
X002580Y007081D01*
X002580Y007080D01*
X002581Y007080D01*
X002582Y007080D01*
X002583Y007080D01*
X002584Y007080D01*
X002584Y007080D01*
X002585Y007080D01*
X002585Y007079D01*
X002586Y007079D01*
X002587Y007079D01*
X002588Y007079D01*
X002589Y007079D01*
X002589Y007079D01*
X002590Y007079D01*
X002590Y007078D01*
X002591Y007078D01*
X002592Y007078D01*
X002593Y007078D01*
X002594Y007078D01*
X002594Y007078D01*
X002595Y007078D01*
X002595Y007077D01*
X002596Y007077D01*
X002597Y007077D01*
X002598Y007077D01*
X002599Y007077D01*
X002599Y007077D01*
X002600Y007077D01*
X002600Y007077D01*
X002601Y007077D01*
X002602Y007076D01*
X002603Y007076D01*
X002604Y007076D01*
X002605Y007076D01*
X002605Y007076D01*
X002606Y007076D01*
X002607Y007076D01*
X002608Y007076D01*
X002608Y007075D01*
X002609Y007075D01*
X002610Y007075D01*
X002610Y007075D01*
X002611Y007075D01*
X002612Y007075D01*
X002613Y007075D01*
X002613Y007075D01*
X002614Y007075D01*
X002614Y007074D01*
X002615Y007074D01*
X002616Y007074D01*
X002617Y007074D01*
X002618Y007074D01*
X002619Y007074D01*
X002619Y007074D01*
X002620Y007074D01*
X002620Y007073D01*
X002621Y007073D01*
X002622Y007073D01*
X002623Y007073D01*
X002624Y007073D01*
X002625Y007073D01*
X002625Y007073D01*
X002626Y007073D01*
X002627Y007073D01*
X002628Y007073D01*
X002628Y007072D01*
X002629Y007072D01*
X002630Y007072D01*
X002630Y007072D01*
X002631Y007072D01*
X002632Y007072D01*
X002633Y007072D01*
X002634Y007072D01*
X002634Y007072D01*
X002635Y007072D01*
X002635Y007072D01*
X002636Y007072D01*
X002637Y007071D01*
X002638Y007071D01*
X002639Y007071D01*
X002640Y007071D01*
X002640Y007071D01*
X002641Y007071D01*
X002642Y007071D01*
X002643Y007071D01*
X002644Y007071D01*
X002644Y007071D01*
X002645Y007071D01*
X002645Y007071D01*
X002646Y007071D01*
X002647Y007070D01*
X002648Y007070D01*
X002649Y007070D01*
X002650Y007070D01*
X002650Y007070D01*
X002651Y007070D01*
X002652Y007070D01*
X002653Y007070D01*
X002654Y007070D01*
X002654Y007070D01*
X002655Y007070D01*
X002655Y007070D01*
X002656Y007070D01*
X002657Y007070D01*
X002658Y007070D01*
X002658Y007070D01*
X002659Y007070D01*
X002659Y007070D01*
X002660Y007070D01*
X002660Y007069D01*
X002661Y007069D01*
X002662Y007069D01*
X002663Y007069D01*
X002664Y007069D01*
X002665Y007069D01*
X002665Y007069D01*
X002667Y007069D01*
X002668Y007069D01*
X002669Y007069D01*
X002670Y007069D01*
X002670Y007069D01*
X002672Y007069D01*
X002673Y007069D01*
X002674Y007069D01*
X002674Y007069D01*
X002675Y007069D01*
X002675Y007069D01*
X002677Y007069D01*
X002678Y007069D01*
X002678Y007069D01*
X002679Y007069D01*
X002679Y007069D01*
X002680Y007069D01*
X002680Y007069D01*
X002682Y007069D01*
X002683Y007069D01*
X002683Y007069D01*
X002684Y007069D01*
X002684Y007069D01*
X002685Y007069D01*
X002685Y007069D01*
X002687Y007069D01*
X002688Y007069D01*
X002688Y007069D01*
X002689Y007069D01*
X002689Y007069D01*
X002690Y007069D01*
X002690Y007069D01*
X002692Y007069D01*
X002693Y007069D01*
X002694Y007069D01*
X002695Y007068D01*
X002699Y007068D01*
X002700Y007068D01*
X002701Y007068D01*
X002701Y007068D01*
X002702Y007068D01*
X002703Y007067D01*
X002703Y007068D01*
X002705Y007067D01*
X002705Y007068D01*
X002706Y007067D01*
X002706Y007067D01*
X002708Y007067D01*
X002709Y007067D01*
X002709Y007067D01*
X002709Y007067D01*
X002711Y007067D01*
X002712Y007067D01*
X002715Y007067D01*
X002715Y007066D01*
X002718Y007067D01*
X002718Y007066D01*
X002721Y007066D01*
X002721Y007066D01*
X002722Y007066D01*
X002723Y007066D01*
X002723Y007066D01*
X002723Y007066D01*
X002724Y007066D01*
X002730Y007066D01*
X002731Y007066D01*
X002732Y007065D01*
X002735Y007066D01*
X002735Y007065D01*
X002736Y007065D01*
X002737Y007065D01*
X002737Y007065D01*
X002737Y007065D01*
X002737Y007065D01*
X002738Y007065D01*
X002739Y007065D01*
X002740Y007065D01*
X002742Y007065D01*
X002743Y007065D01*
X002747Y007065D01*
X002752Y007065D01*
X002752Y007065D01*
X002753Y007065D01*
X002755Y007065D01*
X002756Y007065D01*
X002757Y007065D01*
X002757Y007065D01*
X002759Y007065D01*
X002759Y007064D01*
X002759Y007065D01*
X002759Y007065D01*
X002760Y007064D01*
X002760Y007065D01*
X002768Y007065D01*
X002769Y007064D01*
X002774Y007065D01*
X002774Y007064D01*
X002776Y007065D01*
X002778Y007064D01*
X002779Y007065D01*
X002781Y007065D01*
X002781Y007065D01*
X002781Y007065D01*
X002782Y007065D01*
X002786Y007065D01*
X002790Y007065D01*
X002790Y007065D01*
X002790Y007065D01*
X002790Y007065D01*
X002790Y007065D01*
X002793Y007065D01*
X002797Y007065D01*
X002797Y007065D01*
X002798Y007065D01*
X002798Y007065D01*
X002798Y007065D01*
X002799Y007065D01*
X002799Y007065D01*
X002799Y007065D01*
X002801Y007065D01*
X002805Y007066D01*
X002812Y007066D01*
X002812Y007066D01*
X002812Y007066D01*
X002812Y007066D01*
X002812Y007066D01*
X002816Y007066D01*
X002817Y007066D01*
X002819Y007066D01*
X002826Y007067D01*
X002833Y007067D01*
X002833Y007068D01*
X002836Y007068D01*
X002837Y007068D01*
X002838Y007068D01*
X002840Y007068D01*
X002841Y007068D01*
X002842Y007068D01*
X002843Y007068D01*
X002843Y007068D01*
X002843Y007069D01*
X002846Y007069D01*
X002847Y007069D01*
X002849Y007069D01*
X002850Y007069D01*
X002851Y007069D01*
X002852Y007069D01*
X002854Y007069D01*
X002855Y007069D01*
X002856Y007069D01*
X002857Y007069D01*
X002859Y007069D01*
X002860Y007069D01*
X002861Y007069D01*
X002862Y007069D01*
X002862Y007069D01*
X002864Y007069D01*
X002865Y007069D01*
X002866Y007069D01*
X002866Y007069D01*
X002867Y007069D01*
X002867Y007069D01*
X002869Y007069D01*
X002870Y007069D01*
X002871Y007069D01*
X002871Y007069D01*
X002872Y007069D01*
X002872Y007069D01*
X002874Y007069D01*
X002875Y007069D01*
X002875Y007069D01*
X002876Y007069D01*
X002876Y007069D01*
X002877Y007069D01*
X002877Y007070D01*
X002879Y007070D01*
X002880Y007070D01*
X002881Y007070D01*
X002882Y007070D01*
X002882Y007070D01*
X002884Y007070D01*
X002885Y007070D01*
X002886Y007070D01*
X002886Y007070D01*
X002887Y007070D01*
X002887Y007070D01*
X002889Y007070D01*
X002890Y007070D01*
X002890Y007070D01*
X002891Y007070D01*
X002891Y007071D01*
X002892Y007071D01*
X002894Y007071D01*
X002895Y007071D01*
X002896Y007071D01*
X002896Y007071D01*
X002897Y007071D01*
X002897Y007071D01*
X002899Y007071D01*
X002900Y007071D01*
X002900Y007071D01*
X002901Y007071D01*
X002901Y007072D01*
X002902Y007072D01*
X002904Y007072D01*
X002905Y007072D01*
X002906Y007072D01*
X002906Y007072D01*
X002907Y007072D01*
X002907Y007072D01*
X002909Y007072D01*
X002910Y007072D01*
X002910Y007073D01*
X002911Y007073D01*
X002912Y007073D01*
X002912Y007073D01*
X002914Y007073D01*
X002915Y007073D01*
X002916Y007073D01*
X002916Y007073D01*
X002917Y007073D01*
X002917Y007074D01*
X002919Y007074D01*
X002920Y007074D01*
X002921Y007074D01*
X002921Y007074D01*
X002922Y007074D01*
X002923Y007074D01*
X002924Y007074D01*
X002925Y007074D01*
X002925Y007075D01*
X002926Y007075D01*
X002927Y007075D01*
X002928Y007075D01*
X002929Y007075D01*
X002930Y007075D01*
X002930Y007075D01*
X002931Y007075D01*
X002931Y007076D01*
X002932Y007076D01*
X002933Y007076D01*
X002934Y007076D01*
X002935Y007076D01*
X002935Y007076D01*
X002936Y007076D01*
X002936Y007076D01*
X002937Y007076D01*
X002938Y007077D01*
X002939Y007077D01*
X002940Y007077D01*
X002941Y007077D01*
X002941Y007077D01*
X002942Y007077D01*
X002943Y007078D01*
X002944Y007078D01*
X002945Y007078D01*
X002946Y007078D01*
X002946Y007078D01*
X002947Y007078D01*
X002948Y007079D01*
X002949Y007079D01*
X002950Y007079D01*
X002951Y007079D01*
X002951Y007079D01*
X002952Y007079D01*
X002953Y007080D01*
X002954Y007080D01*
X002955Y007080D01*
X002956Y007080D01*
X002956Y007080D01*
X002957Y007080D01*
X002958Y007081D01*
X002959Y007081D01*
X002960Y007081D01*
X002961Y007081D01*
X002961Y007081D01*
X002962Y007081D01*
X002963Y007082D01*
X002964Y007082D01*
X002965Y007082D01*
X002965Y007082D01*
X002966Y007082D01*
X002966Y007083D01*
X002967Y007083D01*
X002968Y007083D01*
X002969Y007083D01*
X002970Y007083D01*
X002970Y007083D01*
X002971Y007083D01*
X002971Y007084D01*
X002972Y007084D01*
X002973Y007084D01*
X002974Y007084D01*
X002975Y007084D01*
X002975Y007085D01*
X002976Y007085D01*
X002976Y007085D01*
X002977Y007085D01*
X002978Y007085D01*
X002979Y007085D01*
X002979Y007086D01*
X002980Y007086D01*
X002981Y007086D01*
X002981Y007086D01*
X002982Y007086D01*
X002983Y007087D01*
X002984Y007087D01*
X002985Y007087D01*
X002985Y007087D01*
X002986Y007087D01*
X002986Y007088D01*
X002987Y007088D01*
X002988Y007088D01*
X002989Y007088D01*
X002990Y007088D01*
X002990Y007089D01*
X002991Y007089D01*
X002991Y007089D01*
X002992Y007089D01*
X002993Y007089D01*
X002994Y007089D01*
X002994Y007090D01*
X002995Y007090D01*
X002995Y007090D01*
X002996Y007090D01*
X002996Y007091D01*
X002997Y007091D01*
X002998Y007091D01*
X002999Y007091D01*
X003000Y007091D01*
X003000Y007092D01*
X003001Y007092D01*
X003001Y007092D01*
X003002Y007092D01*
X003003Y007092D01*
X003004Y007092D01*
X003004Y007093D01*
X003005Y007093D01*
X003005Y007093D01*
X003006Y007093D01*
X003006Y007094D01*
X003007Y007094D01*
X003008Y007094D01*
X003009Y007094D01*
X003009Y007094D01*
X003010Y007094D01*
X003010Y007095D01*
X003011Y007095D01*
X003011Y007095D01*
X003012Y007095D01*
X003013Y007096D01*
X003014Y007096D01*
X003015Y007096D01*
X003015Y007097D01*
X003016Y007097D01*
X003017Y007097D01*
X003018Y007097D01*
X003019Y007097D01*
X003019Y007098D01*
X003020Y007098D01*
X003020Y007098D01*
X003021Y007098D01*
X003022Y007099D01*
X003023Y007099D01*
X003024Y007099D01*
X003024Y007100D01*
X003025Y007100D01*
X003026Y007100D01*
X003027Y007100D01*
X003028Y007101D01*
X003029Y007101D01*
X003030Y007101D01*
X003030Y007102D01*
X003031Y007102D01*
X003032Y007102D01*
X003032Y007102D01*
X003033Y007103D01*
X003034Y007103D01*
X003035Y007103D01*
X003035Y007104D01*
X003036Y007104D01*
X003037Y007104D01*
X003038Y007105D01*
X003039Y007105D01*
X003040Y007105D01*
X003040Y007106D01*
X003041Y007106D01*
X003042Y007106D01*
X003043Y007107D01*
X003044Y007107D01*
X003045Y007107D01*
X003045Y007108D01*
X003046Y007108D01*
X003047Y007108D01*
X003048Y007109D01*
X003049Y007109D01*
X003050Y007109D01*
X003050Y007110D01*
X003051Y007110D01*
X003052Y007110D01*
X003053Y007111D01*
X003054Y007111D01*
X003055Y007111D01*
X003055Y007112D01*
X003056Y007112D01*
X003057Y007112D01*
X003058Y007113D01*
X003059Y007113D01*
X003059Y007114D01*
X003060Y007114D01*
X003061Y007114D01*
X003062Y007115D01*
X003063Y007115D01*
X003064Y007115D01*
X003064Y007116D01*
X003065Y007116D01*
X003065Y007116D01*
X003066Y007116D01*
X003067Y007117D01*
X003068Y007117D01*
X003069Y007117D01*
X003069Y007118D01*
X003070Y007118D01*
X003070Y007119D01*
X003071Y007119D01*
X003072Y007119D01*
X003073Y007120D01*
X003074Y007120D01*
X003075Y007120D01*
X003075Y007121D01*
X003076Y007121D01*
X003077Y007122D01*
X003078Y007122D01*
X003079Y007122D01*
X003079Y007123D01*
X003080Y007123D01*
X003080Y007123D01*
X003081Y007123D01*
X003082Y007124D01*
X003082Y007124D01*
X003083Y007125D01*
X003084Y007125D01*
X003085Y007125D01*
X003085Y007126D01*
X003086Y007126D01*
X003087Y007127D01*
X003087Y007127D01*
X003088Y007127D01*
X003089Y007127D01*
X003089Y007128D01*
X003090Y007128D01*
X003090Y007128D01*
X003091Y007128D01*
X003092Y007129D01*
X003092Y007129D01*
X003093Y007130D01*
X003094Y007130D01*
X003094Y007130D01*
X003095Y007130D01*
X003095Y007131D01*
X003096Y007131D01*
X003097Y007132D01*
X003097Y007132D01*
X003098Y007132D01*
X003099Y007132D01*
X003099Y007133D01*
X003100Y007133D01*
X003101Y007134D01*
X003102Y007135D01*
X003102Y007135D01*
X003103Y007135D01*
X003104Y007135D01*
X003104Y007136D01*
X003105Y007136D01*
X003106Y007137D01*
X003107Y007137D01*
X003107Y007137D01*
X003108Y007138D01*
X003109Y007138D01*
X003109Y007139D01*
X003110Y007139D01*
X003111Y007139D01*
X003112Y007140D01*
X003112Y007140D01*
X003113Y007141D01*
X003114Y007141D01*
X003114Y007142D01*
X003115Y007142D01*
X003116Y007142D01*
X003117Y007143D01*
X003117Y007143D01*
X003118Y007144D01*
X003119Y007144D01*
X003119Y007145D01*
X003120Y007145D01*
X003121Y007145D01*
X003122Y007146D01*
X003122Y007146D01*
X003123Y007147D01*
X003124Y007147D01*
X003124Y007148D01*
X003125Y007148D01*
X003126Y007148D01*
X003127Y007149D01*
X003127Y007149D01*
X003128Y007150D01*
X003129Y007150D01*
X003129Y007151D01*
X003130Y007151D01*
X003131Y007152D01*
X003132Y007152D01*
X003132Y007152D01*
X003133Y007153D01*
X003134Y007153D01*
X003134Y007154D01*
X003135Y007154D01*
X003136Y007155D01*
X003137Y007156D01*
X003137Y007156D01*
X003138Y007156D01*
X003139Y007156D01*
X003139Y007157D01*
X003140Y007157D01*
X003141Y007158D01*
X003142Y007159D01*
X003142Y007159D01*
X003143Y007160D01*
X003144Y007160D01*
X003144Y007161D01*
X003145Y007161D01*
X003146Y007161D01*
X003147Y007162D01*
X003147Y007162D01*
X003148Y007163D01*
X003149Y007163D01*
X003149Y007164D01*
X003150Y007164D01*
X003151Y007165D01*
X003152Y007166D01*
X003152Y007166D01*
X003153Y007167D01*
X003154Y007167D01*
X003154Y007168D01*
X003155Y007168D01*
X003156Y007168D01*
X003157Y007169D01*
X003157Y007169D01*
X003158Y007170D01*
X003159Y007170D01*
X003159Y007171D01*
X003160Y007171D01*
X003161Y007172D01*
X003162Y007173D01*
X003162Y007173D01*
X003163Y007174D01*
X003164Y007174D01*
X003165Y007175D01*
X003166Y007176D01*
X003167Y007177D01*
X003167Y007177D01*
X003168Y007178D01*
X003169Y007178D01*
X003170Y007179D01*
X003171Y007180D01*
X003172Y007181D01*
X003172Y007181D01*
X003173Y007182D01*
X003174Y007182D01*
X003175Y007183D01*
X003176Y007184D01*
X003177Y007185D01*
X003177Y007185D01*
X003178Y007186D01*
X003179Y007186D01*
X003180Y007187D01*
X003181Y007188D01*
X003182Y007189D01*
X003182Y007189D01*
X003183Y007190D01*
X003184Y007190D01*
X003185Y007191D01*
X003186Y007192D01*
X003187Y007193D01*
X003187Y007193D01*
X003188Y007194D01*
X003189Y007194D01*
X003190Y007195D01*
X003191Y007196D01*
X003192Y007197D01*
X003192Y007197D01*
X003193Y007198D01*
X003194Y007198D01*
X003195Y007199D01*
X003196Y007200D01*
X003196Y007200D01*
X003197Y007201D01*
X003197Y007201D01*
X003198Y007202D01*
X003199Y007202D01*
X003200Y007204D01*
X003201Y007205D01*
X003201Y007205D01*
X003202Y007206D01*
X003202Y007206D01*
X003203Y007207D01*
X003204Y007207D01*
X003205Y007208D01*
X003206Y007209D01*
X003206Y007209D01*
X003207Y007210D01*
X003207Y007210D01*
X003208Y007212D01*
X003209Y007212D01*
X003210Y007213D01*
X003211Y007214D01*
X003211Y007214D01*
X003212Y007215D01*
X003212Y007215D01*
X003214Y007216D01*
X003215Y007218D01*
X003216Y007219D01*
X003216Y007219D01*
X003217Y007220D01*
X003217Y007220D01*
X003220Y007222D01*
X003221Y007224D01*
X003222Y007224D01*
X003223Y007225D01*
X003223Y007225D01*
X003223Y007225D01*
X003226Y007228D01*
X003229Y007231D01*
X003231Y007232D01*
X003233Y007233D01*
X003233Y007233D01*
X003234Y007234D01*
X003235Y007237D01*
X003247Y007245D01*
X003247Y007246D01*
X003250Y007248D01*
X003250Y007249D01*
X003257Y007255D01*
X003258Y007256D01*
X003261Y007258D01*
X003261Y007259D01*
X003264Y007261D01*
X003264Y007262D01*
X003268Y007265D01*
X003268Y007266D01*
X003270Y007267D01*
X003271Y007268D01*
X003271Y007269D01*
X003273Y007270D01*
X003274Y007271D01*
X003274Y007272D01*
X003276Y007273D01*
X003278Y007274D01*
X003278Y007275D01*
X003282Y007279D01*
X003282Y007280D01*
X003288Y007285D01*
X003288Y007286D01*
X003291Y007288D01*
X003291Y007290D01*
X003297Y007295D01*
X003298Y007297D01*
X003310Y007308D01*
X003310Y007309D01*
X003311Y007310D01*
X003311Y007311D01*
X003313Y007312D01*
X003313Y007314D01*
X003322Y007323D01*
X003322Y007324D01*
X003330Y007333D01*
X003330Y007409D01*
X003330Y007486D01*
X003329Y007486D01*
X003329Y007487D01*
X003276Y007540D01*
X003273Y007543D01*
X003271Y007545D01*
X003930Y007545D01*
X004045Y007430D01*
X004493Y007430D01*
X004608Y007545D01*
X004630Y007545D01*
X004745Y007430D01*
X005193Y007430D01*
X005269Y007506D01*
X005329Y007446D01*
X005329Y007424D01*
X005214Y007309D01*
X005214Y006861D01*
X005304Y006771D01*
X005275Y006741D01*
X005248Y006695D01*
X005234Y006643D01*
X005234Y006513D01*
X005542Y006513D01*
X005542Y006457D01*
X005597Y006457D01*
X005597Y006150D01*
X005719Y006150D01*
X005765Y006040D01*
X005849Y005956D01*
X005959Y005910D01*
X006340Y005910D01*
X006354Y005896D01*
X006325Y005866D01*
X006298Y005820D01*
X006284Y005768D01*
X006284Y005638D01*
X006592Y005638D01*
X006592Y005582D01*
X006647Y005582D01*
X006647Y005275D01*
X006777Y005275D01*
X006829Y005289D01*
X006876Y005316D01*
X006913Y005354D01*
X006919Y005364D01*
X006925Y005354D01*
X006963Y005316D01*
X007009Y005289D01*
X007061Y005275D01*
X007192Y005275D01*
X007192Y005582D01*
X007247Y005582D01*
X007247Y005275D01*
X007377Y005275D01*
X007429Y005289D01*
X007476Y005316D01*
X007505Y005345D01*
X007579Y005271D01*
X007579Y005062D01*
X007616Y004974D01*
X007683Y004907D01*
X008133Y004457D01*
X008221Y004420D01*
X008415Y004420D01*
X008361Y004397D01*
X008282Y004319D01*
X008239Y004216D01*
X008239Y004104D01*
X008258Y004060D01*
X002909Y004060D01*
X002799Y004014D01*
X002715Y003930D01*
X002265Y003480D01*
X002219Y003370D01*
X002219Y002709D01*
X002051Y002709D01*
X002023Y002681D01*
X001995Y002709D01*
X001777Y002709D01*
X001777Y011956D01*
X001785Y012083D01*
X001851Y012327D01*
X001977Y012547D01*
X002156Y012726D01*
X002376Y012852D01*
X002620Y012918D01*
X002747Y012926D01*
X016292Y012926D01*
X016418Y012918D01*
X016663Y012852D01*
X016882Y012726D01*
X017061Y012547D01*
X017188Y012327D01*
X017253Y012083D01*
X017262Y011956D01*
X017262Y002709D01*
X017043Y002709D01*
X017015Y002681D01*
X016987Y002709D01*
X016819Y002709D01*
X016819Y003220D01*
X016773Y003330D01*
X016689Y003414D01*
X016149Y003954D01*
X016155Y003957D01*
X016624Y004425D01*
X016691Y004493D01*
X016728Y004581D01*
X016728Y004966D01*
X016759Y004966D01*
X016865Y005072D01*
X016865Y005811D01*
X016759Y005917D01*
X016216Y005917D01*
X016111Y005811D01*
X016111Y005072D01*
X016216Y004966D01*
X016248Y004966D01*
X016248Y004728D01*
X015920Y004400D01*
X015699Y004400D01*
X015904Y004605D01*
X015940Y004693D01*
X015940Y004966D01*
X015972Y004966D01*
X016077Y005072D01*
X016077Y005811D01*
X015972Y005917D01*
X015429Y005917D01*
X015323Y005811D01*
X015323Y005072D01*
X015429Y004966D01*
X015460Y004966D01*
X015460Y004841D01*
X015270Y004650D01*
X014997Y004650D01*
X015116Y004769D01*
X015153Y004857D01*
X015153Y004966D01*
X015184Y004966D01*
X015290Y005072D01*
X015290Y005811D01*
X015184Y005917D01*
X014641Y005917D01*
X014536Y005811D01*
X014536Y005072D01*
X014638Y004970D01*
X014599Y004930D01*
X014575Y004940D01*
X014463Y004940D01*
X014365Y004899D01*
X014365Y004966D01*
X014397Y004966D01*
X014502Y005072D01*
X014502Y005811D01*
X014397Y005917D01*
X013854Y005917D01*
X013749Y005811D01*
X013749Y005072D01*
X013854Y004966D01*
X013885Y004966D01*
X013885Y004866D01*
X013670Y004650D01*
X013449Y004650D01*
X013542Y004743D01*
X013578Y004831D01*
X013578Y004966D01*
X013609Y004966D01*
X013715Y005072D01*
X013715Y005811D01*
X013609Y005917D01*
X013067Y005917D01*
X012961Y005811D01*
X012961Y005072D01*
X013067Y004966D01*
X013086Y004966D01*
X013020Y004900D01*
X012449Y004900D01*
X012515Y004966D01*
X012822Y004966D01*
X012927Y005072D01*
X012927Y005811D01*
X012822Y005917D01*
X012279Y005917D01*
X012174Y005811D01*
X012174Y005304D01*
X012020Y005150D01*
X010349Y005150D01*
X010349Y005211D01*
X010424Y005286D01*
X010424Y005734D01*
X010348Y005810D01*
X010424Y005886D01*
X010424Y006334D01*
X010348Y006410D01*
X010424Y006486D01*
X010424Y006934D01*
X010348Y007010D01*
X010424Y007086D01*
X010424Y007534D01*
X010348Y007610D01*
X010424Y007686D01*
X010424Y008134D01*
X010348Y008210D01*
X010424Y008286D01*
X010424Y008734D01*
X010293Y008865D01*
X009845Y008865D01*
X009755Y008775D01*
X009726Y008804D01*
X009679Y008831D01*
X009627Y008845D01*
X009497Y008845D01*
X009497Y008538D01*
X009442Y008538D01*
X009442Y008845D01*
X009311Y008845D01*
X009259Y008831D01*
X009213Y008804D01*
X009175Y008766D01*
X009148Y008720D01*
X009134Y008668D01*
X009134Y008538D01*
X009442Y008538D01*
X009442Y008482D01*
X009134Y008482D01*
X009134Y008352D01*
X009148Y008300D01*
X009175Y008254D01*
X009204Y008224D01*
X009114Y008134D01*
X009114Y007686D01*
X009190Y007610D01*
X009114Y007534D01*
X009114Y007522D01*
X008841Y007522D01*
X008841Y007691D01*
X008821Y007711D01*
X008821Y007794D01*
X008821Y007894D01*
X008810Y007934D01*
X008789Y007971D01*
X008759Y008001D01*
X008723Y008022D01*
X008682Y008033D01*
X008444Y008033D01*
X008207Y008033D01*
X008166Y008022D01*
X008130Y008001D01*
X008100Y007971D01*
X008079Y007934D01*
X008068Y007894D01*
X008068Y007794D01*
X008150Y007794D01*
X008068Y007794D01*
X008068Y007778D01*
X008059Y007778D01*
X008059Y008321D01*
X008174Y008436D01*
X008174Y008884D01*
X008098Y008960D01*
X008174Y009036D01*
X008174Y009484D01*
X008098Y009560D01*
X008174Y009636D01*
X008174Y010084D01*
X008043Y010215D01*
X007595Y010215D01*
X007505Y010125D01*
X007476Y010154D01*
X007429Y010181D01*
X007377Y010195D01*
X007247Y010195D01*
X007247Y009888D01*
X007192Y009888D01*
X007192Y010195D01*
X007061Y010195D01*
X007009Y010181D01*
X006963Y010154D01*
X006925Y010116D01*
X006898Y010070D01*
X006884Y010018D01*
X006884Y009888D01*
X007192Y009888D01*
X007192Y009832D01*
X006884Y009832D01*
X006884Y009702D01*
X006898Y009650D01*
X006925Y009604D01*
X006954Y009574D01*
X006864Y009484D01*
X006864Y009036D01*
X006940Y008960D01*
X006864Y008884D01*
X006864Y008436D01*
X006979Y008321D01*
X006979Y007958D01*
X006885Y008053D01*
X006303Y008053D01*
X006284Y008034D01*
X005899Y008034D01*
X005809Y008124D01*
X005809Y008146D01*
X005924Y008261D01*
X005924Y008709D01*
X005848Y008785D01*
X006079Y008785D01*
X006189Y008831D01*
X006273Y008915D01*
X006291Y008958D01*
X006439Y009106D01*
X006523Y009190D01*
X006569Y009300D01*
X006569Y010286D01*
X007543Y011260D01*
X009995Y011260D01*
X010369Y010886D01*
X010369Y009700D01*
X010415Y009590D01*
X010499Y009506D01*
X010881Y009124D01*
X010991Y009079D01*
X012174Y009079D01*
X012174Y009009D01*
X012279Y008903D01*
X012822Y008903D01*
X012927Y009009D01*
X012927Y009079D01*
X012961Y009079D01*
X012961Y009009D01*
X013019Y008951D01*
X013019Y008850D01*
X013065Y008740D01*
X013149Y008656D01*
X013259Y008610D01*
X013379Y008610D01*
X013489Y008656D01*
X013592Y008759D01*
X013638Y008869D01*
X013638Y008932D01*
X013715Y009009D01*
X013715Y009748D01*
X013609Y009854D01*
X013067Y009854D01*
X012961Y009748D01*
X012961Y009679D01*
X012927Y009679D01*
X012927Y009748D01*
X012822Y009854D01*
X012279Y009854D01*
X012174Y009748D01*
X012174Y009679D01*
X011184Y009679D01*
X011257Y009751D01*
X011299Y009854D01*
X011299Y009966D01*
X011259Y010062D01*
X011259Y010170D01*
X011739Y010170D01*
X011739Y010104D01*
X011782Y010001D01*
X011861Y009923D01*
X011963Y009880D01*
X012075Y009880D01*
X012171Y009920D01*
X015370Y009920D01*
X015436Y009854D01*
X015429Y009854D01*
X015323Y009748D01*
X015323Y009009D01*
X015429Y008903D01*
X015972Y008903D01*
X016077Y009009D01*
X016077Y009748D01*
X015972Y009854D01*
X015940Y009854D01*
X015940Y009977D01*
X015904Y010065D01*
X015799Y010170D01*
X016020Y010170D01*
X016248Y009942D01*
X016248Y009854D01*
X016216Y009854D01*
X016111Y009748D01*
X016111Y009009D01*
X016216Y008903D01*
X016759Y008903D01*
X016865Y009009D01*
X016865Y009748D01*
X016759Y009854D01*
X016728Y009854D01*
X016728Y010089D01*
X016691Y010177D01*
X016323Y010546D01*
X016255Y010613D01*
X016167Y010650D01*
X011259Y010650D01*
X011259Y011767D01*
X011277Y011774D01*
X011405Y011902D01*
X011474Y012069D01*
X011474Y012251D01*
X011405Y012418D01*
X011277Y012546D01*
X011110Y012615D01*
X010929Y012615D01*
X010761Y012546D01*
X010633Y012418D01*
X010564Y012251D01*
X010564Y012069D01*
X010633Y011902D01*
X010761Y011774D01*
X010779Y011767D01*
X010779Y011324D01*
X010373Y011730D01*
X010303Y011800D01*
X010405Y011902D01*
X010474Y012069D01*
X010474Y012251D01*
X010405Y012418D01*
X010277Y012546D01*
X010110Y012615D01*
X009929Y012615D01*
X009761Y012546D01*
X009633Y012418D01*
X009564Y012251D01*
X009564Y012069D01*
X009633Y011902D01*
X009676Y011860D01*
X009363Y011860D01*
X009405Y011902D01*
X009474Y012069D01*
X009474Y012251D01*
X009405Y012418D01*
X009277Y012546D01*
X009110Y012615D01*
X008929Y012615D01*
X008761Y012546D01*
X008633Y012418D01*
X008564Y012251D01*
X008564Y012069D01*
X008633Y011902D01*
X008676Y011860D01*
X008363Y011860D01*
X008405Y011902D01*
X008474Y012069D01*
X008474Y012251D01*
X008405Y012418D01*
X008277Y012546D01*
X008110Y012615D01*
X007929Y012615D01*
X007761Y012546D01*
X007633Y012418D01*
X007564Y012251D01*
X007564Y012069D01*
X007633Y011902D01*
X007676Y011860D01*
X007453Y011860D01*
X007454Y011864D01*
X007454Y012132D01*
X007047Y012132D01*
X007047Y011725D01*
X007160Y011725D01*
X006099Y010664D01*
X006015Y010580D01*
X005969Y010470D01*
X005969Y009484D01*
X005870Y009385D01*
X005848Y009385D01*
X005793Y009440D01*
X005345Y009440D01*
X005214Y009309D01*
X005214Y009229D01*
X004670Y008685D01*
X004548Y008685D01*
X004493Y008740D01*
X004045Y008740D01*
X003914Y008609D01*
X003914Y008161D01*
X003990Y008085D01*
X003930Y008025D01*
X003271Y008025D01*
X003275Y008029D01*
X003277Y008031D01*
X003277Y008031D01*
X003277Y008032D01*
X003330Y008084D01*
X003330Y008084D01*
X003330Y008084D01*
X003330Y008161D01*
X003330Y008237D01*
X003330Y008237D01*
X003330Y008237D01*
X003329Y008238D01*
X003329Y008238D01*
X003329Y008238D01*
X003329Y008238D01*
X003328Y008240D01*
X003322Y008246D01*
X003322Y008247D01*
X003290Y008278D01*
X003290Y008283D01*
X003270Y008300D01*
X003270Y008303D01*
X003244Y008323D01*
X003222Y008346D01*
X003222Y008346D01*
X003220Y008348D01*
X003220Y008348D01*
X003219Y008349D01*
X003219Y008349D01*
X003217Y008350D01*
X003216Y008351D01*
X003215Y008352D01*
X003215Y008352D01*
X003214Y008354D01*
X003213Y008354D01*
X003212Y008355D01*
X003211Y008356D01*
X003210Y008357D01*
X003210Y008357D01*
X003209Y008358D01*
X003208Y008358D01*
X003207Y008360D01*
X003206Y008361D01*
X003205Y008362D01*
X003205Y008362D01*
X003204Y008363D01*
X003203Y008363D01*
X003202Y008364D01*
X003201Y008365D01*
X003200Y008366D01*
X003200Y008366D01*
X003199Y008368D01*
X003198Y008368D01*
X003197Y008369D01*
X003196Y008370D01*
X003196Y008370D01*
X003195Y008371D01*
X003195Y008371D01*
X003194Y008372D01*
X003193Y008372D01*
X003192Y008373D01*
X003191Y008374D01*
X003191Y008374D01*
X003190Y008375D01*
X003190Y008375D01*
X003189Y008376D01*
X003188Y008376D01*
X003187Y008377D01*
X003186Y008378D01*
X003186Y008378D01*
X003185Y008379D01*
X003185Y008379D01*
X003184Y008380D01*
X003183Y008380D01*
X003182Y008381D01*
X003181Y008382D01*
X003181Y008382D01*
X003180Y008383D01*
X003180Y008383D01*
X003179Y008384D01*
X003178Y008384D01*
X003177Y008385D01*
X003176Y008386D01*
X003176Y008386D01*
X003175Y008387D01*
X003175Y008387D01*
X003174Y008388D01*
X003173Y008388D01*
X003172Y008389D01*
X003171Y008390D01*
X003171Y008390D01*
X003170Y008391D01*
X003170Y008391D01*
X003169Y008392D01*
X003168Y008392D01*
X003167Y008393D01*
X003166Y008394D01*
X003166Y008394D01*
X003165Y008395D01*
X003165Y008395D01*
X003164Y008396D01*
X003163Y008396D01*
X003162Y008397D01*
X003161Y008398D01*
X003161Y008398D01*
X003160Y008399D01*
X003159Y008399D01*
X003159Y008400D01*
X003158Y008400D01*
X003157Y008401D01*
X003156Y008402D01*
X003156Y008402D01*
X003155Y008402D01*
X003154Y008402D01*
X003154Y008403D01*
X003153Y008403D01*
X003152Y008404D01*
X003151Y008405D01*
X003151Y008405D01*
X003150Y008406D01*
X003149Y008406D01*
X003149Y008407D01*
X003148Y008407D01*
X003147Y008408D01*
X003146Y008409D01*
X003146Y008409D01*
X003145Y008409D01*
X003144Y008409D01*
X003144Y008410D01*
X003143Y008410D01*
X003142Y008411D01*
X003141Y008412D01*
X003141Y008412D01*
X003140Y008413D01*
X003139Y008413D01*
X003139Y008414D01*
X003138Y008414D01*
X003137Y008414D01*
X003136Y008415D01*
X003136Y008415D01*
X003135Y008416D01*
X003134Y008416D01*
X003134Y008417D01*
X003133Y008417D01*
X003132Y008418D01*
X003131Y008418D01*
X003131Y008418D01*
X003130Y008419D01*
X003129Y008419D01*
X003129Y008420D01*
X003128Y008420D01*
X003127Y008421D01*
X003126Y008422D01*
X003126Y008422D01*
X003125Y008422D01*
X003124Y008422D01*
X003124Y008423D01*
X003123Y008423D01*
X003122Y008424D01*
X003121Y008425D01*
X003121Y008425D01*
X003120Y008425D01*
X003119Y008425D01*
X003119Y008426D01*
X003118Y008426D01*
X003117Y008427D01*
X003116Y008428D01*
X003116Y008428D01*
X003115Y008428D01*
X003114Y008428D01*
X003114Y008429D01*
X003113Y008429D01*
X003112Y008430D01*
X003111Y008431D01*
X003111Y008431D01*
X003110Y008431D01*
X003109Y008431D01*
X003109Y008432D01*
X003108Y008432D01*
X003107Y008433D01*
X003106Y008433D01*
X003106Y008433D01*
X003105Y008434D01*
X003104Y008434D01*
X003104Y008435D01*
X003103Y008435D01*
X003102Y008435D01*
X003101Y008436D01*
X003101Y008436D01*
X003100Y008437D01*
X003099Y008437D01*
X003099Y008438D01*
X003098Y008438D01*
X003097Y008438D01*
X003096Y008439D01*
X003096Y008439D01*
X003095Y008439D01*
X003095Y008440D01*
X003095Y008440D01*
X003091Y008443D01*
X003086Y008444D01*
X003085Y008444D01*
X003085Y008445D01*
X003084Y008445D01*
X003084Y008445D01*
X003083Y008445D01*
X003082Y008446D01*
X003081Y008447D01*
X003080Y008447D01*
X003079Y008447D01*
X003079Y008448D01*
X003078Y008448D01*
X003077Y008448D01*
X003077Y008448D01*
X003076Y008449D01*
X003075Y008449D01*
X003075Y008450D01*
X003074Y008450D01*
X003074Y008450D01*
X003073Y008450D01*
X003072Y008451D01*
X003072Y008451D01*
X003071Y008451D01*
X003070Y008451D01*
X003070Y008452D01*
X003069Y008452D01*
X003069Y008453D01*
X003068Y008453D01*
X003067Y008453D01*
X003067Y008453D01*
X003066Y008454D01*
X003065Y008454D01*
X003064Y008454D01*
X003064Y008455D01*
X003063Y008455D01*
X003062Y008455D01*
X003062Y008455D01*
X003061Y008456D01*
X003060Y008456D01*
X003060Y008456D01*
X003059Y008456D01*
X003059Y008457D01*
X003058Y008457D01*
X003057Y008458D01*
X003057Y008458D01*
X003056Y008458D01*
X003055Y008458D01*
X003055Y008459D01*
X003054Y008459D01*
X003054Y008459D01*
X003053Y008459D01*
X003052Y008460D01*
X003052Y008460D01*
X003051Y008460D01*
X003050Y008460D01*
X003050Y008461D01*
X003049Y008461D01*
X003049Y008461D01*
X003048Y008461D01*
X003047Y008462D01*
X003047Y008462D01*
X003046Y008462D01*
X003045Y008462D01*
X003045Y008463D01*
X003044Y008463D01*
X003044Y008463D01*
X003043Y008463D01*
X003042Y008464D01*
X003042Y008464D01*
X003041Y008464D01*
X003040Y008464D01*
X003040Y008465D01*
X003039Y008465D01*
X003039Y008465D01*
X003038Y008465D01*
X003037Y008466D01*
X003037Y008466D01*
X003036Y008466D01*
X003035Y008466D01*
X003035Y008467D01*
X003034Y008467D01*
X003034Y008467D01*
X003033Y008467D01*
X003032Y008468D01*
X003032Y008468D01*
X003031Y008468D01*
X003030Y008468D01*
X003030Y008469D01*
X003029Y008469D01*
X003029Y008469D01*
X003028Y008469D01*
X003027Y008470D01*
X003027Y008470D01*
X003026Y008470D01*
X003025Y008470D01*
X003025Y008470D01*
X003024Y008470D01*
X003024Y008471D01*
X003023Y008471D01*
X003022Y008471D01*
X003022Y008471D01*
X003021Y008472D01*
X003020Y008472D01*
X003019Y008472D01*
X003019Y008473D01*
X003018Y008473D01*
X003017Y008473D01*
X003016Y008473D01*
X003015Y008473D01*
X003015Y008474D01*
X003014Y008474D01*
X003014Y008474D01*
X003013Y008474D01*
X003012Y008475D01*
X003011Y008475D01*
X003010Y008475D01*
X003010Y008476D01*
X003009Y008476D01*
X003008Y008476D01*
X003007Y008476D01*
X003006Y008476D01*
X003006Y008477D01*
X003005Y008477D01*
X003004Y008477D01*
X003004Y008478D01*
X003003Y008478D01*
X003002Y008478D01*
X003001Y008478D01*
X003000Y008478D01*
X003000Y008479D01*
X002999Y008479D01*
X002999Y008479D01*
X002998Y008479D01*
X002997Y008479D01*
X002996Y008479D01*
X002996Y008480D01*
X002995Y008480D01*
X002994Y008480D01*
X002994Y008481D01*
X002993Y008481D01*
X002992Y008481D01*
X002991Y008481D01*
X002990Y008481D01*
X002990Y008482D01*
X002989Y008482D01*
X002989Y008482D01*
X002988Y008482D01*
X002987Y008482D01*
X002986Y008482D01*
X002986Y008483D01*
X002985Y008483D01*
X002984Y008483D01*
X002984Y008483D01*
X002983Y008483D01*
X002982Y008484D01*
X002981Y008484D01*
X002980Y008484D01*
X002980Y008484D01*
X002979Y008484D01*
X002979Y008485D01*
X002978Y008485D01*
X002977Y008485D01*
X002976Y008485D01*
X002975Y008485D01*
X002975Y008486D01*
X002976Y008485D02*
X002976Y008485D01*
X002981Y008484D02*
X002981Y008484D01*
X002985Y008483D02*
X002985Y008483D01*
X002991Y008481D02*
X002991Y008481D01*
X002995Y008480D02*
X002995Y008480D01*
X003001Y008478D02*
X003001Y008478D01*
X003005Y008477D02*
X003005Y008477D01*
X003009Y008476D02*
X003009Y008476D01*
X003011Y008475D02*
X003011Y008475D01*
X003016Y008473D02*
X003016Y008473D01*
X003020Y008472D02*
X003020Y008472D01*
X003065Y008454D02*
X003065Y008454D01*
X003080Y008447D02*
X003080Y008447D01*
X003082Y008446D02*
X003082Y008446D01*
X003086Y008444D02*
X003086Y008444D01*
X003091Y008443D02*
X003091Y008443D01*
X003097Y008438D02*
X003097Y008438D01*
X003099Y008438D02*
X003914Y008438D01*
X003914Y008556D02*
X001777Y008556D01*
X001777Y008438D02*
X002440Y008438D01*
X002438Y008436D02*
X002438Y008436D01*
X002433Y008434D02*
X002433Y008434D01*
X002428Y008431D02*
X002428Y008431D01*
X002425Y008429D02*
X002425Y008429D01*
X002423Y008428D02*
X002423Y008428D01*
X002420Y008426D02*
X002420Y008426D01*
X002418Y008425D02*
X002418Y008425D01*
X002415Y008423D02*
X002415Y008423D01*
X002413Y008422D02*
X002413Y008422D01*
X002408Y008419D02*
X002408Y008419D01*
X002403Y008416D02*
X002403Y008416D01*
X002399Y008413D02*
X002399Y008413D01*
X002398Y008412D02*
X002398Y008412D01*
X002394Y008410D02*
X002394Y008410D01*
X002393Y008409D02*
X002393Y008409D01*
X002389Y008406D02*
X002389Y008406D01*
X002388Y008405D02*
X002388Y008405D01*
X002384Y008403D02*
X002384Y008403D01*
X002379Y008399D02*
X002379Y008399D01*
X002374Y008396D02*
X002374Y008396D01*
X002369Y008392D02*
X002369Y008392D01*
X002364Y008388D02*
X002364Y008388D01*
X002359Y008384D02*
X002359Y008384D01*
X002354Y008380D02*
X002354Y008380D01*
X002349Y008376D02*
X002349Y008376D01*
X002345Y008372D02*
X002345Y008372D01*
X002344Y008371D02*
X002344Y008371D01*
X002340Y008368D02*
X002340Y008368D01*
X002339Y008367D02*
X002339Y008367D01*
X002335Y008364D02*
X002335Y008364D01*
X002334Y008362D02*
X002334Y008362D01*
X002330Y008359D02*
X002330Y008359D01*
X002329Y008358D02*
X002329Y008358D01*
X002325Y008354D02*
X002325Y008354D01*
X002324Y008353D02*
X002324Y008353D01*
X002320Y008349D02*
X002320Y008349D01*
X002319Y008348D02*
X002319Y008348D01*
X002276Y008319D02*
X001777Y008319D01*
X001777Y008201D02*
X002175Y008201D01*
X002174Y008200D02*
X002174Y008200D01*
X002172Y008197D02*
X002172Y008197D01*
X002168Y008192D02*
X002168Y008192D01*
X002166Y008189D02*
X002166Y008189D01*
X002162Y008184D02*
X002162Y008184D01*
X002154Y008174D02*
X002154Y008174D01*
X002149Y008167D02*
X002149Y008167D01*
X002143Y008158D02*
X002143Y008158D01*
X002142Y008156D02*
X002142Y008156D01*
X002177Y008203D02*
X002177Y008203D01*
X002179Y008206D02*
X002179Y008206D01*
X002186Y008213D02*
X002186Y008213D01*
X002188Y008216D02*
X002188Y008216D01*
X002192Y008220D02*
X002192Y008220D01*
X002196Y008224D02*
X002196Y008224D01*
X002198Y008227D02*
X002198Y008227D01*
X002199Y008228D02*
X002199Y008228D01*
X002203Y008232D02*
X002203Y008232D01*
X002207Y008236D02*
X002207Y008236D01*
X002208Y008237D02*
X002208Y008237D01*
X002252Y008303D02*
X002252Y008303D01*
X002443Y008439D02*
X002443Y008439D01*
X002448Y008442D02*
X002448Y008442D01*
X002453Y008444D02*
X002453Y008444D01*
X002458Y008447D02*
X002458Y008447D01*
X002463Y008449D02*
X002463Y008449D01*
X002465Y008450D02*
X002465Y008450D01*
X002468Y008452D02*
X002468Y008452D01*
X002480Y008457D02*
X002480Y008457D01*
X002485Y008459D02*
X002485Y008459D01*
X002503Y008467D02*
X002503Y008467D01*
X002510Y008469D02*
X002510Y008469D01*
X002519Y008472D02*
X002519Y008472D01*
X002530Y008476D02*
X002530Y008476D01*
X002540Y008479D02*
X002540Y008479D01*
X002542Y008480D02*
X002542Y008480D01*
X002544Y008480D02*
X002544Y008480D01*
X002547Y008481D02*
X002547Y008481D01*
X002550Y008482D02*
X002550Y008482D01*
X002552Y008482D02*
X002552Y008482D01*
X002555Y008483D02*
X002555Y008483D01*
X002557Y008484D02*
X002557Y008484D01*
X002559Y008484D02*
X002559Y008484D01*
X002562Y008485D02*
X002562Y008485D01*
X002565Y008486D02*
X002565Y008486D01*
X002570Y008487D02*
X002570Y008487D01*
X002575Y008488D02*
X002575Y008488D01*
X002579Y008489D02*
X002579Y008489D01*
X002584Y008490D02*
X002584Y008490D01*
X002589Y008491D02*
X002589Y008491D01*
X002594Y008492D02*
X002594Y008492D01*
X002599Y008493D02*
X002599Y008493D01*
X002600Y008493D02*
X002600Y008493D01*
X002605Y008494D02*
X002605Y008494D01*
X002610Y008495D02*
X002610Y008495D01*
X002613Y008495D02*
X002613Y008495D01*
X002619Y008496D02*
X002619Y008496D01*
X002625Y008497D02*
X002625Y008497D01*
X002630Y008498D02*
X002630Y008498D01*
X002634Y008498D02*
X002634Y008498D01*
X002635Y008498D02*
X002635Y008498D01*
X002640Y008499D02*
X002640Y008499D01*
X002644Y008499D02*
X002644Y008499D01*
X002645Y008499D02*
X002645Y008499D01*
X002650Y008500D02*
X002650Y008500D01*
X002654Y008500D02*
X002654Y008500D01*
X002655Y008500D02*
X002655Y008500D01*
X002658Y008500D02*
X002658Y008500D01*
X002659Y008500D02*
X002659Y008500D01*
X002665Y008501D02*
X002665Y008501D01*
X002670Y008501D02*
X002670Y008501D01*
X002674Y008501D02*
X002674Y008501D01*
X002675Y008501D02*
X002675Y008501D01*
X002678Y008501D02*
X002678Y008501D01*
X002679Y008501D02*
X002679Y008501D01*
X002680Y008501D02*
X002680Y008501D01*
X002683Y008501D02*
X002683Y008501D01*
X002684Y008501D02*
X002684Y008501D01*
X002685Y008501D02*
X002685Y008501D01*
X002687Y008501D02*
X002687Y008501D01*
X002688Y008501D02*
X002688Y008501D01*
X002689Y008501D02*
X002689Y008501D01*
X002690Y008501D02*
X002690Y008501D01*
X002692Y008501D02*
X002692Y008501D01*
X002862Y008501D02*
X002862Y008501D01*
X002866Y008501D02*
X002866Y008501D01*
X002867Y008501D02*
X002867Y008501D01*
X002871Y008501D02*
X002871Y008501D01*
X002872Y008501D02*
X002872Y008501D01*
X002875Y008501D02*
X002875Y008501D01*
X002876Y008501D02*
X002876Y008501D01*
X002882Y008500D02*
X002882Y008500D01*
X002886Y008500D02*
X002886Y008500D01*
X002887Y008500D02*
X002887Y008500D01*
X002890Y008500D02*
X002890Y008500D01*
X002896Y008499D02*
X002896Y008499D01*
X002897Y008499D02*
X002897Y008499D01*
X002900Y008499D02*
X002900Y008499D01*
X002906Y008498D02*
X002906Y008498D01*
X002907Y008498D02*
X002907Y008498D01*
X002912Y008497D02*
X002912Y008497D01*
X002916Y008497D02*
X002916Y008497D01*
X002921Y008496D02*
X002921Y008496D01*
X002930Y008495D02*
X002930Y008495D01*
X002935Y008494D02*
X002935Y008494D01*
X002936Y008494D02*
X002936Y008494D01*
X002941Y008493D02*
X002941Y008493D01*
X002946Y008492D02*
X002946Y008492D01*
X002951Y008491D02*
X002951Y008491D01*
X002956Y008490D02*
X002956Y008490D01*
X002961Y008489D02*
X002961Y008489D01*
X002965Y008488D02*
X002965Y008488D01*
X002970Y008487D02*
X002970Y008487D01*
X003102Y008435D02*
X003102Y008435D01*
X003107Y008433D02*
X003107Y008433D01*
X003112Y008430D02*
X003112Y008430D01*
X003117Y008427D02*
X003117Y008427D01*
X003122Y008424D02*
X003122Y008424D01*
X003127Y008421D02*
X003127Y008421D01*
X003132Y008418D02*
X003132Y008418D01*
X003137Y008414D02*
X003137Y008414D01*
X003142Y008411D02*
X003142Y008411D01*
X003147Y008408D02*
X003147Y008408D01*
X003152Y008404D02*
X003152Y008404D01*
X003157Y008401D02*
X003157Y008401D01*
X003162Y008397D02*
X003162Y008397D01*
X003167Y008393D02*
X003167Y008393D01*
X003172Y008389D02*
X003172Y008389D01*
X003177Y008385D02*
X003177Y008385D01*
X003182Y008381D02*
X003182Y008381D01*
X003187Y008377D02*
X003187Y008377D01*
X003192Y008373D02*
X003192Y008373D01*
X003197Y008369D02*
X003197Y008369D01*
X003201Y008365D02*
X003201Y008365D01*
X003202Y008364D02*
X003202Y008364D01*
X003206Y008361D02*
X003206Y008361D01*
X003207Y008360D02*
X003207Y008360D01*
X003211Y008356D02*
X003211Y008356D01*
X003212Y008355D02*
X003212Y008355D01*
X003216Y008351D02*
X003216Y008351D01*
X003217Y008350D02*
X003217Y008350D01*
X003250Y008319D02*
X003914Y008319D01*
X003914Y008201D02*
X003330Y008201D01*
X003328Y008240D02*
X003328Y008240D01*
X003328Y008082D02*
X003987Y008082D01*
X004269Y007785D02*
X002769Y007785D01*
X002451Y007467D02*
X002451Y006728D01*
X002469Y006710D01*
X002569Y006610D01*
X002469Y006710D01*
X002563Y007085D02*
X002563Y007085D01*
X002569Y007083D02*
X002569Y007083D01*
X002573Y007082D02*
X002573Y007082D01*
X002574Y007082D02*
X002574Y007082D01*
X002578Y007081D02*
X002578Y007081D01*
X002583Y007080D02*
X002583Y007080D01*
X002588Y007079D02*
X002588Y007079D01*
X002593Y007078D02*
X002593Y007078D01*
X002598Y007077D02*
X002598Y007077D01*
X002603Y007076D02*
X002603Y007076D01*
X002604Y007076D02*
X002604Y007076D01*
X002609Y007075D02*
X002609Y007075D01*
X002615Y007074D02*
X002615Y007074D01*
X002618Y007074D02*
X002618Y007074D01*
X002623Y007073D02*
X002623Y007073D01*
X002624Y007073D02*
X002624Y007073D01*
X002629Y007072D02*
X002629Y007072D01*
X002633Y007072D02*
X002633Y007072D01*
X002638Y007071D02*
X002638Y007071D01*
X002639Y007071D02*
X002639Y007071D01*
X002643Y007071D02*
X002643Y007071D01*
X002648Y007070D02*
X002648Y007070D01*
X002649Y007070D02*
X002649Y007070D01*
X002653Y007070D02*
X002653Y007070D01*
X002663Y007069D02*
X002663Y007069D01*
X002664Y007069D02*
X002664Y007069D01*
X002667Y007069D02*
X002667Y007069D01*
X002668Y007069D02*
X002668Y007069D01*
X002669Y007069D02*
X002669Y007069D01*
X002672Y007069D02*
X002672Y007069D01*
X002673Y007069D02*
X002673Y007069D01*
X002677Y007069D02*
X002677Y007069D01*
X002682Y007069D02*
X002682Y007069D01*
X002687Y007069D02*
X002687Y007069D01*
X002692Y007069D02*
X002692Y007069D01*
X002693Y007069D02*
X002693Y007068D01*
X002693Y007069D01*
X002699Y007068D02*
X002699Y007068D01*
X002708Y007067D02*
X002708Y007067D01*
X002724Y007066D02*
X002724Y007066D01*
X002724Y007066D01*
X002735Y007066D02*
X002735Y007066D01*
X002738Y007065D02*
X002738Y007065D01*
X002740Y007065D02*
X002740Y007065D01*
X002740Y007065D01*
X002743Y007065D02*
X002743Y007065D01*
X002755Y007065D02*
X002755Y007065D01*
X002782Y007065D02*
X002782Y007065D01*
X002801Y007065D02*
X002801Y007065D01*
X002819Y007066D02*
X002819Y007066D01*
X002837Y007068D02*
X002837Y007068D01*
X002841Y007068D02*
X002841Y007068D01*
X002846Y007069D02*
X002846Y007069D01*
X002847Y007069D02*
X002847Y007069D01*
X002849Y007069D02*
X002849Y007069D01*
X002850Y007069D02*
X002850Y007069D01*
X002851Y007069D02*
X002851Y007069D01*
X002852Y007069D02*
X002852Y007069D01*
X002854Y007069D02*
X002854Y007069D01*
X002855Y007069D02*
X002855Y007069D01*
X002856Y007069D02*
X002856Y007069D01*
X002857Y007069D02*
X002857Y007069D01*
X002859Y007069D02*
X002859Y007069D01*
X002860Y007069D02*
X002860Y007069D01*
X002861Y007069D02*
X002861Y007069D01*
X002864Y007069D02*
X002864Y007069D01*
X002865Y007069D02*
X002865Y007069D01*
X002869Y007069D02*
X002869Y007069D01*
X002870Y007069D02*
X002870Y007069D01*
X002874Y007069D02*
X002874Y007069D01*
X002879Y007070D02*
X002879Y007070D01*
X002880Y007070D02*
X002880Y007070D01*
X002881Y007070D02*
X002881Y007070D01*
X002884Y007070D02*
X002884Y007070D01*
X002885Y007070D02*
X002885Y007070D01*
X002889Y007070D02*
X002889Y007070D01*
X002892Y007071D02*
X002892Y007071D01*
X002894Y007071D02*
X002894Y007071D01*
X002895Y007071D02*
X002895Y007071D01*
X002899Y007071D02*
X002899Y007071D01*
X002902Y007072D02*
X002902Y007072D01*
X002904Y007072D02*
X002904Y007072D01*
X002905Y007072D02*
X002905Y007072D01*
X002909Y007072D02*
X002909Y007072D01*
X002911Y007073D02*
X002911Y007073D01*
X002914Y007073D02*
X002914Y007073D01*
X002915Y007073D02*
X002915Y007073D01*
X002919Y007074D02*
X002919Y007074D01*
X002920Y007074D02*
X002920Y007074D01*
X002924Y007074D02*
X002924Y007074D01*
X002926Y007075D02*
X002926Y007075D01*
X002929Y007075D02*
X002929Y007075D01*
X002934Y007076D02*
X002934Y007076D01*
X002939Y007077D02*
X002939Y007077D01*
X002940Y007077D02*
X002940Y007077D01*
X002944Y007078D02*
X002944Y007078D01*
X002945Y007078D02*
X002945Y007078D01*
X002949Y007079D02*
X002949Y007079D01*
X002950Y007079D02*
X002950Y007079D01*
X002954Y007080D02*
X002954Y007080D01*
X002955Y007080D02*
X002955Y007080D01*
X002959Y007081D02*
X002959Y007081D01*
X002960Y007081D02*
X002960Y007081D01*
X002964Y007082D02*
X002964Y007082D01*
X002969Y007083D02*
X002969Y007083D01*
X002974Y007084D02*
X002974Y007084D01*
X002980Y007086D02*
X002980Y007086D01*
X002984Y007087D02*
X002984Y007087D01*
X002989Y007088D02*
X002989Y007088D01*
X002999Y007091D02*
X002999Y007091D01*
X003014Y007096D02*
X003014Y007096D01*
X003017Y007097D02*
X003017Y007097D01*
X003022Y007099D02*
X003022Y007099D01*
X003025Y007100D02*
X003025Y007100D01*
X003027Y007100D02*
X003027Y007100D01*
X003029Y007101D02*
X003029Y007101D01*
X003034Y007103D02*
X003034Y007103D01*
X003037Y007104D02*
X003037Y007104D01*
X003039Y007105D02*
X003039Y007105D01*
X003042Y007106D02*
X003042Y007106D01*
X003044Y007107D02*
X003044Y007107D01*
X003047Y007108D02*
X003047Y007108D01*
X003049Y007109D02*
X003049Y007109D01*
X003052Y007110D02*
X003052Y007110D01*
X003054Y007111D02*
X003054Y007111D01*
X003057Y007112D02*
X003057Y007112D01*
X003060Y007114D02*
X003060Y007114D01*
X003062Y007115D02*
X003062Y007115D01*
X003067Y007117D02*
X003067Y007117D01*
X003072Y007119D02*
X003072Y007119D01*
X003074Y007120D02*
X003074Y007120D01*
X003077Y007122D02*
X003077Y007122D01*
X003084Y007125D02*
X003084Y007125D01*
X003101Y007134D02*
X003101Y007134D01*
X005214Y007134D01*
X005214Y007016D02*
X001777Y007016D01*
X001777Y007134D02*
X002437Y007134D01*
X002437Y007134D01*
X002442Y007131D02*
X002442Y007131D01*
X002447Y007129D02*
X002447Y007129D01*
X002452Y007126D02*
X002452Y007126D01*
X002457Y007124D02*
X002457Y007124D01*
X002462Y007121D02*
X002462Y007121D01*
X002467Y007119D02*
X002467Y007119D01*
X002472Y007117D02*
X002472Y007117D01*
X002475Y007115D02*
X002475Y007115D01*
X002477Y007114D02*
X002477Y007114D01*
X002482Y007112D02*
X002482Y007112D01*
X002487Y007110D02*
X002487Y007110D01*
X002492Y007108D02*
X002492Y007108D01*
X002494Y007107D02*
X002494Y007107D01*
X002499Y007105D02*
X002499Y007105D01*
X002502Y007104D02*
X002502Y007104D01*
X002507Y007102D02*
X002507Y007102D01*
X002512Y007100D02*
X002512Y007100D01*
X002515Y007099D02*
X002515Y007099D01*
X002517Y007098D02*
X002517Y007098D01*
X002522Y007097D02*
X002522Y007097D01*
X002524Y007096D02*
X002524Y007096D01*
X002527Y007095D02*
X002527Y007095D01*
X002532Y007093D02*
X002532Y007093D01*
X002534Y007093D02*
X002534Y007093D01*
X002537Y007092D02*
X002537Y007092D01*
X002554Y007087D02*
X002554Y007087D01*
X002432Y007137D02*
X002432Y007137D01*
X002430Y007138D02*
X002430Y007138D01*
X002427Y007140D02*
X002427Y007140D01*
X002422Y007143D02*
X002422Y007143D01*
X002417Y007146D02*
X002417Y007146D01*
X002412Y007149D02*
X002412Y007149D01*
X002410Y007150D02*
X002410Y007150D01*
X002407Y007152D02*
X002407Y007152D01*
X002402Y007155D02*
X002402Y007155D01*
X002397Y007159D02*
X002397Y007159D01*
X002392Y007162D02*
X002392Y007162D01*
X002387Y007165D02*
X002387Y007165D01*
X002383Y007168D02*
X002383Y007168D01*
X002382Y007169D02*
X002382Y007169D01*
X002378Y007172D02*
X002378Y007172D01*
X002377Y007173D02*
X002377Y007173D01*
X002373Y007175D02*
X002373Y007175D01*
X002372Y007176D02*
X002372Y007176D01*
X002368Y007179D02*
X002368Y007179D01*
X002367Y007180D02*
X002367Y007180D01*
X002363Y007183D02*
X002363Y007183D01*
X002362Y007184D02*
X002362Y007184D01*
X002358Y007187D02*
X002358Y007187D01*
X002357Y007188D02*
X002357Y007188D01*
X002353Y007191D02*
X002353Y007191D01*
X002352Y007192D02*
X002352Y007192D01*
X002348Y007195D02*
X002348Y007195D01*
X002347Y007197D02*
X002347Y007197D01*
X002343Y007200D02*
X002343Y007200D01*
X002342Y007201D02*
X002342Y007201D01*
X002338Y007204D02*
X002338Y007204D01*
X002337Y007205D02*
X002337Y007205D01*
X002333Y007209D02*
X002333Y007209D01*
X002332Y007210D02*
X002332Y007210D01*
X002328Y007213D02*
X002328Y007213D01*
X002327Y007215D02*
X002327Y007215D01*
X002323Y007218D02*
X002323Y007218D01*
X002322Y007219D02*
X002322Y007219D01*
X002318Y007223D02*
X002318Y007223D01*
X002317Y007224D02*
X002317Y007224D01*
X002317Y007224D01*
X002317Y007224D01*
X002299Y007239D02*
X002299Y007239D01*
X002284Y007253D02*
X001777Y007253D01*
X001777Y007371D02*
X002174Y007371D01*
X002169Y007376D02*
X002169Y007376D01*
X002167Y007379D02*
X002167Y007379D01*
X002163Y007384D02*
X002163Y007384D01*
X002159Y007389D02*
X002159Y007389D01*
X002156Y007394D02*
X002156Y007394D01*
X002151Y007401D02*
X002151Y007401D01*
X002144Y007410D02*
X002144Y007410D01*
X002182Y007361D02*
X002182Y007361D01*
X002184Y007358D02*
X002184Y007358D01*
X002187Y007355D02*
X002187Y007355D01*
X002191Y007351D02*
X002191Y007351D01*
X002193Y007348D02*
X002193Y007348D01*
X002194Y007347D02*
X002194Y007347D01*
X002197Y007344D02*
X002197Y007344D01*
X002201Y007340D02*
X002201Y007340D01*
X002202Y007339D02*
X002202Y007339D01*
X002204Y007336D02*
X002204Y007336D01*
X002206Y007335D02*
X002206Y007335D01*
X002283Y007253D02*
X002283Y007253D01*
X002111Y007464D02*
X002111Y007464D01*
X002099Y007490D02*
X002099Y007492D01*
X002098Y007493D01*
X002098Y007495D01*
X002097Y007496D01*
X002097Y007498D01*
X002096Y007499D01*
X002096Y007501D01*
X002094Y007502D01*
X002094Y007504D01*
X002093Y007505D01*
X002093Y007507D01*
X002092Y007508D01*
X002092Y007510D01*
X002091Y007511D01*
X002091Y007513D01*
X002089Y007514D01*
X002089Y007516D01*
X002088Y007517D01*
X002088Y007519D01*
X002087Y007521D01*
X002087Y007523D01*
X002086Y007524D01*
X002086Y007526D01*
X002084Y007527D01*
X002084Y007530D01*
X002083Y007531D01*
X002083Y007533D01*
X002082Y007534D01*
X002082Y007537D01*
X002081Y007538D01*
X002081Y007540D01*
X002079Y007542D01*
X002079Y007544D01*
X002078Y007546D01*
X002078Y007548D01*
X002077Y007550D01*
X002077Y007552D01*
X002076Y007554D01*
X002076Y007556D01*
X002074Y007558D01*
X002074Y007561D01*
X002073Y007562D01*
X002073Y007565D01*
X002072Y007566D01*
X002072Y007570D01*
X002071Y007571D01*
X002071Y007575D01*
X002069Y007576D01*
X002069Y007580D01*
X002068Y007581D01*
X002068Y007585D01*
X002067Y007586D01*
X002067Y007590D01*
X002066Y007591D01*
X002066Y007596D01*
X002064Y007597D01*
X002064Y007602D01*
X002063Y007603D01*
X002063Y007608D01*
X002045Y007727D02*
X001777Y007727D01*
X001777Y007845D02*
X002053Y007845D01*
X002038Y007755D02*
X002038Y007755D01*
X002063Y007962D02*
X002063Y007967D01*
X002064Y007968D01*
X002064Y007973D01*
X002066Y007974D01*
X002066Y007979D01*
X002067Y007980D01*
X002067Y007984D01*
X002068Y007985D01*
X002068Y007989D01*
X002069Y007990D01*
X002069Y007994D01*
X002071Y007995D01*
X002071Y007999D01*
X002072Y008000D01*
X002072Y008004D01*
X002073Y008005D01*
X002073Y008008D01*
X002074Y008009D01*
X002074Y008012D01*
X002076Y008014D01*
X002076Y008016D01*
X002077Y008018D01*
X002077Y008020D01*
X002078Y008022D01*
X002078Y008024D01*
X002079Y008026D01*
X002079Y008028D01*
X002081Y008030D01*
X002081Y008032D01*
X002082Y008033D01*
X002082Y008036D01*
X002083Y008037D01*
X002083Y008039D01*
X002084Y008040D01*
X002084Y008043D01*
X002086Y008044D01*
X002086Y008046D01*
X002087Y008047D01*
X002087Y008049D01*
X002087Y008049D01*
X002087Y008049D01*
X002087Y008052D01*
X002087Y008052D01*
X002089Y008055D01*
X002089Y008056D01*
X002091Y008057D01*
X002091Y008059D01*
X002092Y008060D01*
X002092Y008062D01*
X002093Y008063D01*
X002093Y008065D01*
X002094Y008066D01*
X002094Y008068D01*
X002096Y008069D01*
X002096Y008071D01*
X002097Y008072D01*
X002097Y008074D01*
X002098Y008075D01*
X002098Y008077D01*
X002099Y008078D01*
X002099Y008080D01*
X002101Y008081D01*
X002101Y008082D01*
X002522Y008174D02*
X002522Y008807D01*
X002519Y008810D01*
X001777Y008793D02*
X004778Y008793D01*
X004896Y008912D02*
X001777Y008912D01*
X001777Y009030D02*
X005015Y009030D01*
X005133Y009149D02*
X001777Y009149D01*
X001777Y009267D02*
X005214Y009267D01*
X005291Y009386D02*
X001777Y009386D01*
X001777Y009504D02*
X005969Y009504D01*
X005969Y009623D02*
X001777Y009623D01*
X001777Y009741D02*
X005969Y009741D01*
X005969Y009860D02*
X001777Y009860D01*
X001777Y009978D02*
X005969Y009978D01*
X005969Y010097D02*
X001777Y010097D01*
X001777Y010215D02*
X005969Y010215D01*
X005969Y010334D02*
X001777Y010334D01*
X001777Y010452D02*
X005969Y010452D01*
X006011Y010571D02*
X001777Y010571D01*
X001777Y010689D02*
X006124Y010689D01*
X006099Y010664D02*
X006099Y010664D01*
X006242Y010808D02*
X001777Y010808D01*
X001777Y010926D02*
X002778Y010926D01*
X002866Y010889D02*
X003172Y010889D01*
X003456Y011007D01*
X003672Y011224D01*
X003790Y011507D01*
X003790Y011813D01*
X003672Y012096D01*
X003456Y012313D01*
X003172Y012431D01*
X002866Y012431D01*
X002583Y012313D01*
X002366Y012096D01*
X002249Y011813D01*
X002249Y011507D01*
X002366Y011224D01*
X002583Y011007D01*
X002866Y010889D01*
X002545Y011045D02*
X001777Y011045D01*
X001777Y011163D02*
X002426Y011163D01*
X002342Y011282D02*
X001777Y011282D01*
X001777Y011400D02*
X002293Y011400D01*
X002249Y011519D02*
X001777Y011519D01*
X001777Y011637D02*
X002249Y011637D01*
X002249Y011756D02*
X001777Y011756D01*
X001777Y011874D02*
X002274Y011874D01*
X002323Y011993D02*
X001779Y011993D01*
X001793Y012111D02*
X002380Y012111D01*
X002499Y012230D02*
X001824Y012230D01*
X001863Y012348D02*
X002667Y012348D01*
X002323Y012822D02*
X016715Y012822D01*
X016904Y012704D02*
X002134Y012704D01*
X002016Y012585D02*
X006686Y012585D01*
X006682Y012584D02*
X006646Y012563D01*
X006616Y012533D01*
X006595Y012497D01*
X006584Y012456D01*
X006584Y012188D01*
X006992Y012188D01*
X006992Y012595D01*
X006723Y012595D01*
X006682Y012584D01*
X006587Y012467D02*
X001931Y012467D01*
X003372Y012348D02*
X006584Y012348D01*
X006584Y012230D02*
X003539Y012230D01*
X003658Y012111D02*
X006584Y012111D01*
X006584Y012132D02*
X006584Y011864D01*
X006595Y011823D01*
X006616Y011787D01*
X006646Y011757D01*
X006682Y011736D01*
X006723Y011725D01*
X006992Y011725D01*
X006992Y012132D01*
X007047Y012132D01*
X007047Y012188D01*
X006992Y012188D01*
X006992Y012132D01*
X006584Y012132D01*
X006584Y011993D02*
X003715Y011993D01*
X003765Y011874D02*
X006584Y011874D01*
X006648Y011756D02*
X003790Y011756D01*
X003790Y011637D02*
X007072Y011637D01*
X007047Y011756D02*
X006992Y011756D01*
X006992Y011874D02*
X007047Y011874D01*
X007047Y011993D02*
X006992Y011993D01*
X006992Y012111D02*
X007047Y012111D01*
X007047Y012188D02*
X007454Y012188D01*
X007454Y012456D01*
X007443Y012497D01*
X007422Y012533D01*
X007392Y012563D01*
X007356Y012584D01*
X007315Y012595D01*
X007047Y012595D01*
X007047Y012188D01*
X007047Y012230D02*
X006992Y012230D01*
X006992Y012348D02*
X007047Y012348D01*
X007047Y012467D02*
X006992Y012467D01*
X006992Y012585D02*
X007047Y012585D01*
X007352Y012585D02*
X007856Y012585D01*
X007682Y012467D02*
X007451Y012467D01*
X007454Y012348D02*
X007605Y012348D01*
X007564Y012230D02*
X007454Y012230D01*
X007454Y012111D02*
X007564Y012111D01*
X007596Y011993D02*
X007454Y011993D01*
X007454Y011874D02*
X007662Y011874D01*
X008377Y011874D02*
X008662Y011874D01*
X008596Y011993D02*
X008442Y011993D01*
X008474Y012111D02*
X008564Y012111D01*
X008564Y012230D02*
X008474Y012230D01*
X008434Y012348D02*
X008605Y012348D01*
X008682Y012467D02*
X008356Y012467D01*
X008182Y012585D02*
X008856Y012585D01*
X009182Y012585D02*
X009856Y012585D01*
X009682Y012467D02*
X009356Y012467D01*
X009434Y012348D02*
X009605Y012348D01*
X009564Y012230D02*
X009474Y012230D01*
X009474Y012111D02*
X009564Y012111D01*
X009596Y011993D02*
X009442Y011993D01*
X009377Y011874D02*
X009662Y011874D01*
X010348Y011756D02*
X010779Y011756D01*
X010779Y011637D02*
X010466Y011637D01*
X010585Y011519D02*
X010779Y011519D01*
X010779Y011400D02*
X010703Y011400D01*
X010662Y011874D02*
X010377Y011874D01*
X010442Y011993D02*
X010596Y011993D01*
X010564Y012111D02*
X010474Y012111D01*
X010474Y012230D02*
X010564Y012230D01*
X010605Y012348D02*
X010434Y012348D01*
X010356Y012467D02*
X010682Y012467D01*
X010856Y012585D02*
X010182Y012585D01*
X011019Y012160D02*
X011019Y010510D01*
X011119Y010410D01*
X011019Y010310D01*
X011019Y009910D01*
X011246Y009741D02*
X012174Y009741D01*
X011805Y009978D02*
X011294Y009978D01*
X011299Y009860D02*
X015430Y009860D01*
X015323Y009741D02*
X015256Y009741D01*
X015259Y009736D02*
X015238Y009772D01*
X015208Y009802D01*
X015171Y009823D01*
X015131Y009834D01*
X014951Y009834D01*
X014951Y009417D01*
X014874Y009417D01*
X014874Y009340D01*
X014556Y009340D01*
X014556Y009062D01*
X014567Y009021D01*
X014588Y008985D01*
X014618Y008955D01*
X014654Y008934D01*
X014695Y008923D01*
X014874Y008923D01*
X014874Y009340D01*
X014951Y009340D01*
X014951Y008923D01*
X015131Y008923D01*
X015171Y008934D01*
X015208Y008955D01*
X015238Y008985D01*
X015259Y009021D01*
X015270Y009062D01*
X015270Y009340D01*
X014951Y009340D01*
X014951Y009417D01*
X015270Y009417D01*
X015270Y009695D01*
X015259Y009736D01*
X015270Y009623D02*
X015323Y009623D01*
X015323Y009504D02*
X015270Y009504D01*
X015323Y009386D02*
X014951Y009386D01*
X014874Y009386D02*
X014502Y009386D01*
X014556Y009417D02*
X014874Y009417D01*
X014874Y009834D01*
X014695Y009834D01*
X014654Y009823D01*
X014618Y009802D01*
X014588Y009772D01*
X014567Y009736D01*
X014556Y009695D01*
X014556Y009417D01*
X014556Y009504D02*
X014502Y009504D01*
X014502Y009623D02*
X014556Y009623D01*
X014570Y009741D02*
X014502Y009741D01*
X014502Y009748D02*
X014397Y009854D01*
X013854Y009854D01*
X013749Y009748D01*
X013749Y009009D01*
X013854Y008903D01*
X014397Y008903D01*
X014502Y009009D01*
X014502Y009748D01*
X014874Y009741D02*
X014951Y009741D01*
X014951Y009623D02*
X014874Y009623D01*
X014874Y009504D02*
X014951Y009504D01*
X014951Y009267D02*
X014874Y009267D01*
X014874Y009149D02*
X014951Y009149D01*
X014951Y009030D02*
X014874Y009030D01*
X014565Y009030D02*
X014502Y009030D01*
X014502Y009149D02*
X014556Y009149D01*
X014556Y009267D02*
X014502Y009267D01*
X014405Y008912D02*
X015421Y008912D01*
X015323Y009030D02*
X015261Y009030D01*
X015270Y009149D02*
X015323Y009149D01*
X015323Y009267D02*
X015270Y009267D01*
X015700Y009379D02*
X015700Y009929D01*
X015469Y010160D01*
X012019Y010160D01*
X011742Y010097D02*
X011259Y010097D01*
X011019Y010310D02*
X011019Y010460D01*
X011069Y010410D01*
X011119Y010410D01*
X016119Y010410D01*
X016488Y010041D01*
X016488Y009379D01*
X016865Y009386D02*
X017262Y009386D01*
X017262Y009504D02*
X016865Y009504D01*
X016865Y009623D02*
X017262Y009623D01*
X017262Y009741D02*
X016865Y009741D01*
X016728Y009860D02*
X017262Y009860D01*
X017262Y009978D02*
X016728Y009978D01*
X016725Y010097D02*
X017262Y010097D01*
X017262Y010215D02*
X016654Y010215D01*
X016535Y010334D02*
X017262Y010334D01*
X017262Y010452D02*
X016417Y010452D01*
X016323Y010546D02*
X016323Y010546D01*
X016298Y010571D02*
X017262Y010571D01*
X017262Y010689D02*
X011259Y010689D01*
X011259Y010808D02*
X017262Y010808D01*
X017262Y010926D02*
X016261Y010926D01*
X016172Y010889D02*
X016456Y011007D01*
X016672Y011224D01*
X016790Y011507D01*
X016790Y011813D01*
X016672Y012096D01*
X016456Y012313D01*
X016172Y012431D01*
X015866Y012431D01*
X015583Y012313D01*
X015366Y012096D01*
X015249Y011813D01*
X015249Y011507D01*
X015366Y011224D01*
X015583Y011007D01*
X015866Y010889D01*
X016172Y010889D01*
X016493Y011045D02*
X017262Y011045D01*
X017262Y011163D02*
X016612Y011163D01*
X016696Y011282D02*
X017262Y011282D01*
X017262Y011400D02*
X016745Y011400D01*
X016790Y011519D02*
X017262Y011519D01*
X017262Y011637D02*
X016790Y011637D01*
X016790Y011756D02*
X017262Y011756D01*
X017262Y011874D02*
X016765Y011874D01*
X016715Y011993D02*
X017259Y011993D01*
X017246Y012111D02*
X016658Y012111D01*
X016539Y012230D02*
X017214Y012230D01*
X017176Y012348D02*
X016372Y012348D01*
X017023Y012585D02*
X012182Y012585D01*
X012110Y012615D02*
X012277Y012546D01*
X012405Y012418D01*
X012474Y012251D01*
X012474Y012069D01*
X012405Y011902D01*
X012277Y011774D01*
X012110Y011705D01*
X011929Y011705D01*
X011761Y011774D01*
X011633Y011902D01*
X011564Y012069D01*
X011564Y012251D01*
X011633Y012418D01*
X011761Y012546D01*
X011929Y012615D01*
X012110Y012615D01*
X011856Y012585D02*
X011182Y012585D01*
X011356Y012467D02*
X011682Y012467D01*
X011605Y012348D02*
X011434Y012348D01*
X011474Y012230D02*
X011564Y012230D01*
X011564Y012111D02*
X011474Y012111D01*
X011442Y011993D02*
X011596Y011993D01*
X011662Y011874D02*
X011377Y011874D01*
X011259Y011756D02*
X011807Y011756D01*
X012232Y011756D02*
X015249Y011756D01*
X015249Y011637D02*
X011259Y011637D01*
X011259Y011519D02*
X015249Y011519D01*
X015293Y011400D02*
X011259Y011400D01*
X011259Y011282D02*
X015342Y011282D01*
X015426Y011163D02*
X011259Y011163D01*
X011259Y011045D02*
X015545Y011045D01*
X015778Y010926D02*
X011259Y010926D01*
X011019Y010510D02*
X011019Y010460D01*
X010369Y010452D02*
X006735Y010452D01*
X006617Y010334D02*
X010369Y010334D01*
X010369Y010215D02*
X006569Y010215D01*
X006569Y010097D02*
X006913Y010097D01*
X006884Y009978D02*
X006569Y009978D01*
X006569Y009860D02*
X007192Y009860D01*
X007192Y009978D02*
X007247Y009978D01*
X007247Y010097D02*
X007192Y010097D01*
X006884Y009741D02*
X006569Y009741D01*
X006569Y009623D02*
X006914Y009623D01*
X006884Y009504D02*
X006569Y009504D01*
X006569Y009386D02*
X006864Y009386D01*
X006864Y009267D02*
X006555Y009267D01*
X006482Y009149D02*
X006864Y009149D01*
X006870Y009030D02*
X006363Y009030D01*
X006270Y008912D02*
X006892Y008912D01*
X006864Y008793D02*
X006098Y008793D01*
X005924Y008675D02*
X006864Y008675D01*
X006864Y008556D02*
X005924Y008556D01*
X005924Y008438D02*
X006864Y008438D01*
X006979Y008319D02*
X005924Y008319D01*
X005864Y008201D02*
X006979Y008201D01*
X006979Y008082D02*
X005851Y008082D01*
X005578Y007794D02*
X005569Y007785D01*
X005569Y008485D01*
X005625Y009085D02*
X005494Y009085D01*
X005848Y009386D02*
X005870Y009386D01*
X007219Y009260D02*
X007219Y008660D01*
X007219Y007710D01*
X007047Y007538D01*
X006594Y007538D01*
X006594Y007282D02*
X007691Y007282D01*
X007691Y007282D01*
X007697Y007282D01*
X007819Y007160D01*
X007819Y006210D01*
X008133Y006475D02*
X008059Y006549D01*
X008059Y006862D01*
X008153Y006767D01*
X008735Y006767D01*
X008754Y006786D01*
X009054Y006786D01*
X009114Y006726D01*
X009114Y006486D01*
X009204Y006396D01*
X009175Y006366D01*
X009148Y006320D01*
X009134Y006268D01*
X009134Y006138D01*
X009442Y006138D01*
X009442Y006082D01*
X009497Y006082D01*
X009497Y005775D01*
X009497Y005538D01*
X009442Y005538D01*
X009442Y006082D01*
X009134Y006082D01*
X009134Y005952D01*
X009148Y005900D01*
X009175Y005854D01*
X009213Y005816D01*
X009223Y005810D01*
X009213Y005804D01*
X009175Y005766D01*
X009148Y005720D01*
X009134Y005668D01*
X009134Y005538D01*
X009442Y005538D01*
X009442Y005482D01*
X009497Y005482D01*
X009497Y005175D01*
X009627Y005175D01*
X009679Y005189D01*
X009726Y005216D01*
X009755Y005245D01*
X009789Y005211D01*
X009789Y005150D01*
X008921Y005150D01*
X008825Y005190D01*
X008713Y005190D01*
X008611Y005147D01*
X008532Y005069D01*
X008489Y004966D01*
X008489Y004900D01*
X008369Y004900D01*
X008059Y005209D01*
X008059Y005271D01*
X008108Y005320D01*
X008130Y005320D01*
X008195Y005255D01*
X008643Y005255D01*
X008774Y005386D01*
X008774Y005834D01*
X008684Y005924D01*
X008713Y005954D01*
X008740Y006000D01*
X008754Y006052D01*
X008754Y006182D01*
X008447Y006182D01*
X008447Y006238D01*
X008392Y006238D01*
X008392Y006545D01*
X008261Y006545D01*
X008209Y006531D01*
X008163Y006504D01*
X008133Y006475D01*
X008067Y006541D02*
X008248Y006541D01*
X008392Y006541D02*
X008447Y006541D01*
X008447Y006545D02*
X008447Y006238D01*
X008754Y006238D01*
X008754Y006368D01*
X008740Y006420D01*
X008713Y006466D01*
X008676Y006504D01*
X008629Y006531D01*
X008577Y006545D01*
X008447Y006545D01*
X008447Y006423D02*
X008392Y006423D01*
X008392Y006304D02*
X008447Y006304D01*
X008447Y006186D02*
X009134Y006186D01*
X009134Y006067D02*
X008754Y006067D01*
X008709Y005949D02*
X009135Y005949D01*
X009198Y005830D02*
X008774Y005830D01*
X008774Y005712D02*
X009146Y005712D01*
X009134Y005593D02*
X008774Y005593D01*
X008774Y005475D02*
X009134Y005475D01*
X009134Y005482D02*
X009134Y005352D01*
X009148Y005300D01*
X009175Y005254D01*
X009213Y005216D01*
X009259Y005189D01*
X009311Y005175D01*
X009442Y005175D01*
X009442Y005482D01*
X009134Y005482D01*
X009134Y005356D02*
X008745Y005356D01*
X008583Y005119D02*
X008149Y005119D01*
X008059Y005238D02*
X009191Y005238D01*
X009442Y005238D02*
X009497Y005238D01*
X009497Y005356D02*
X009442Y005356D01*
X009442Y005475D02*
X009497Y005475D01*
X009497Y005593D02*
X009442Y005593D01*
X009442Y005712D02*
X009497Y005712D01*
X009497Y005830D02*
X009442Y005830D01*
X009442Y005949D02*
X009497Y005949D01*
X009497Y006067D02*
X009442Y006067D01*
X009144Y006304D02*
X008754Y006304D01*
X008738Y006423D02*
X009177Y006423D01*
X009114Y006541D02*
X008590Y006541D01*
X008747Y006779D02*
X009061Y006779D01*
X009114Y006660D02*
X008059Y006660D01*
X008059Y006779D02*
X008142Y006779D01*
X008444Y007026D02*
X009153Y007026D01*
X009469Y006710D01*
X010069Y007310D01*
X010424Y007253D02*
X010873Y007253D01*
X010861Y007247D02*
X010782Y007169D01*
X010739Y007066D01*
X010739Y006954D01*
X010782Y006851D01*
X010861Y006773D01*
X010963Y006730D01*
X011075Y006730D01*
X011097Y006739D01*
X011197Y006639D01*
X011936Y006639D01*
X012042Y006745D01*
X012042Y007288D01*
X011936Y007393D01*
X011197Y007393D01*
X011091Y007288D01*
X011091Y007283D01*
X011075Y007290D01*
X010963Y007290D01*
X010861Y007247D01*
X010767Y007134D02*
X010424Y007134D01*
X010354Y007016D02*
X010739Y007016D01*
X010763Y006897D02*
X010424Y006897D01*
X010424Y006779D02*
X010855Y006779D01*
X011019Y007010D02*
X011025Y007016D01*
X011566Y007016D01*
X011174Y007371D02*
X010424Y007371D01*
X010424Y007490D02*
X011134Y007490D01*
X011091Y007532D02*
X011197Y007427D01*
X011936Y007427D01*
X012042Y007532D01*
X012042Y008075D01*
X011936Y008181D01*
X011197Y008181D01*
X011091Y008075D01*
X011091Y007532D01*
X011091Y007608D02*
X010350Y007608D01*
X010424Y007727D02*
X011091Y007727D01*
X011091Y007845D02*
X010424Y007845D01*
X010424Y007964D02*
X011091Y007964D01*
X011098Y008082D02*
X010424Y008082D01*
X010358Y008201D02*
X017262Y008201D01*
X017262Y008319D02*
X012041Y008319D01*
X012042Y008320D02*
X011936Y008214D01*
X011197Y008214D01*
X011091Y008320D01*
X011091Y008863D01*
X011197Y008968D01*
X011936Y008968D01*
X012042Y008863D01*
X012042Y008320D01*
X012042Y008438D02*
X017262Y008438D01*
X017262Y008556D02*
X012042Y008556D01*
X012042Y008675D02*
X013130Y008675D01*
X013043Y008793D02*
X012042Y008793D01*
X011993Y008912D02*
X012271Y008912D01*
X012174Y009030D02*
X008168Y009030D01*
X008174Y009149D02*
X010856Y009149D01*
X010738Y009267D02*
X008174Y009267D01*
X008174Y009386D02*
X010619Y009386D01*
X010501Y009504D02*
X008154Y009504D01*
X008161Y009623D02*
X010401Y009623D01*
X010369Y009741D02*
X008174Y009741D01*
X008174Y009860D02*
X010369Y009860D01*
X010369Y009978D02*
X008174Y009978D01*
X008162Y010097D02*
X010369Y010097D01*
X010369Y010571D02*
X006854Y010571D01*
X006972Y010689D02*
X010369Y010689D01*
X010369Y010808D02*
X007091Y010808D01*
X007209Y010926D02*
X010329Y010926D01*
X010210Y011045D02*
X007328Y011045D01*
X007446Y011163D02*
X010092Y011163D01*
X012377Y011874D02*
X015274Y011874D01*
X015323Y011993D02*
X012442Y011993D01*
X012474Y012111D02*
X015380Y012111D01*
X015499Y012230D02*
X012474Y012230D01*
X012434Y012348D02*
X015667Y012348D01*
X017107Y012467D02*
X012356Y012467D01*
X015872Y010097D02*
X016093Y010097D01*
X016212Y009978D02*
X015940Y009978D01*
X015940Y009860D02*
X016248Y009860D01*
X016111Y009741D02*
X016077Y009741D01*
X016077Y009623D02*
X016111Y009623D01*
X016111Y009504D02*
X016077Y009504D01*
X016077Y009386D02*
X016111Y009386D01*
X016111Y009267D02*
X016077Y009267D01*
X016077Y009149D02*
X016111Y009149D01*
X016111Y009030D02*
X016077Y009030D01*
X015980Y008912D02*
X016208Y008912D01*
X016767Y008912D02*
X017262Y008912D01*
X017262Y009030D02*
X016865Y009030D01*
X016865Y009149D02*
X017262Y009149D01*
X017262Y009267D02*
X016865Y009267D01*
X017262Y008793D02*
X013606Y008793D01*
X013638Y008912D02*
X013846Y008912D01*
X013749Y009030D02*
X013715Y009030D01*
X013715Y009149D02*
X013749Y009149D01*
X013749Y009267D02*
X013715Y009267D01*
X013715Y009386D02*
X013749Y009386D01*
X013749Y009504D02*
X013715Y009504D01*
X013715Y009623D02*
X013749Y009623D01*
X013749Y009741D02*
X013715Y009741D01*
X012961Y009741D02*
X012927Y009741D01*
X012927Y009030D02*
X012961Y009030D01*
X013019Y008912D02*
X012830Y008912D01*
X013508Y008675D02*
X017262Y008675D01*
X017262Y008082D02*
X012035Y008082D01*
X012042Y007964D02*
X017262Y007964D01*
X017262Y007845D02*
X012042Y007845D01*
X012042Y007727D02*
X017262Y007727D01*
X017262Y007608D02*
X012042Y007608D01*
X011999Y007490D02*
X017262Y007490D01*
X017262Y007371D02*
X011958Y007371D01*
X012042Y007253D02*
X017262Y007253D01*
X017262Y007134D02*
X012042Y007134D01*
X012042Y007016D02*
X017262Y007016D01*
X017262Y006897D02*
X012042Y006897D01*
X012042Y006779D02*
X017262Y006779D01*
X017262Y006660D02*
X011957Y006660D01*
X011936Y006606D02*
X012042Y006500D01*
X012042Y005957D01*
X011936Y005852D01*
X011197Y005852D01*
X011106Y005943D01*
X011075Y005930D01*
X010963Y005930D01*
X010861Y005973D01*
X010782Y006051D01*
X010739Y006154D01*
X010739Y006266D01*
X010782Y006369D01*
X010861Y006447D01*
X010963Y006490D01*
X011075Y006490D01*
X011091Y006483D01*
X011091Y006500D01*
X011197Y006606D01*
X011936Y006606D01*
X012000Y006541D02*
X017262Y006541D01*
X017262Y006423D02*
X012042Y006423D01*
X012042Y006304D02*
X017262Y006304D01*
X017262Y006186D02*
X012042Y006186D01*
X012042Y006067D02*
X017262Y006067D01*
X017262Y005949D02*
X012033Y005949D01*
X012193Y005830D02*
X010369Y005830D01*
X010424Y005712D02*
X012174Y005712D01*
X012174Y005593D02*
X010424Y005593D01*
X010424Y005475D02*
X012174Y005475D01*
X012174Y005356D02*
X010424Y005356D01*
X010376Y005238D02*
X012108Y005238D01*
X012119Y004910D02*
X008769Y004910D01*
X008504Y005001D02*
X008268Y005001D01*
X008269Y004660D02*
X007819Y005110D01*
X007819Y005560D01*
X008369Y005560D01*
X008419Y005610D01*
X007819Y005610D02*
X007819Y005560D01*
X007579Y005238D02*
X001777Y005238D01*
X001777Y005356D02*
X006323Y005356D01*
X006325Y005354D02*
X006363Y005316D01*
X006409Y005289D01*
X006461Y005275D01*
X006592Y005275D01*
X006592Y005582D01*
X006284Y005582D01*
X006284Y005452D01*
X006298Y005400D01*
X006325Y005354D01*
X006284Y005475D02*
X001777Y005475D01*
X001777Y005593D02*
X006592Y005593D01*
X006647Y005593D02*
X007192Y005593D01*
X007192Y005582D02*
X007192Y005638D01*
X006884Y005638D01*
X006647Y005638D01*
X006647Y005582D01*
X007192Y005582D01*
X007192Y005475D02*
X007247Y005475D01*
X007247Y005356D02*
X007192Y005356D01*
X006923Y005356D02*
X006915Y005356D01*
X006647Y005356D02*
X006592Y005356D01*
X006592Y005475D02*
X006647Y005475D01*
X006284Y005712D02*
X001777Y005712D01*
X001777Y005830D02*
X006304Y005830D01*
X005865Y005949D02*
X001777Y005949D01*
X001777Y006067D02*
X005753Y006067D01*
X005597Y006186D02*
X005542Y006186D01*
X005542Y006150D02*
X005542Y006457D01*
X005234Y006457D01*
X005234Y006327D01*
X005248Y006275D01*
X005275Y006229D01*
X005313Y006191D01*
X005359Y006164D01*
X005411Y006150D01*
X005542Y006150D01*
X005542Y006304D02*
X005597Y006304D01*
X005597Y006423D02*
X005542Y006423D01*
X005597Y006457D02*
X005597Y006513D01*
X005904Y006513D01*
X005904Y006643D01*
X005890Y006695D01*
X005863Y006741D01*
X005834Y006771D01*
X005924Y006861D01*
X005924Y007309D01*
X005809Y007424D01*
X005809Y007446D01*
X005917Y007554D01*
X006197Y007554D01*
X006197Y007435D01*
X006197Y006873D01*
X006303Y006767D01*
X006354Y006767D01*
X006354Y006524D01*
X006340Y006510D01*
X005959Y006510D01*
X005849Y006464D01*
X005842Y006457D01*
X005597Y006457D01*
X005904Y006541D02*
X006354Y006541D01*
X006354Y006660D02*
X005900Y006660D01*
X005842Y006779D02*
X006292Y006779D01*
X006197Y006897D02*
X005924Y006897D01*
X005924Y007016D02*
X006197Y007016D01*
X006197Y007134D02*
X005924Y007134D01*
X005924Y007253D02*
X006197Y007253D01*
X006197Y007371D02*
X005862Y007371D01*
X005853Y007490D02*
X006197Y007490D01*
X006594Y007794D02*
X005578Y007794D01*
X005569Y007785D02*
X005569Y007085D01*
X005214Y007253D02*
X003254Y007253D01*
X003270Y007267D02*
X003270Y007267D01*
X003273Y007270D02*
X003273Y007270D01*
X003276Y007273D02*
X003276Y007273D01*
X003231Y007232D02*
X003231Y007232D01*
X003229Y007231D02*
X003229Y007231D01*
X003220Y007222D02*
X003220Y007222D01*
X003215Y007218D02*
X003215Y007218D01*
X003214Y007216D02*
X003214Y007216D01*
X003210Y007213D02*
X003210Y007213D01*
X003205Y007208D02*
X003205Y007208D01*
X003200Y007204D02*
X003200Y007204D01*
X003195Y007199D02*
X003195Y007199D01*
X003191Y007196D02*
X003191Y007196D01*
X003190Y007195D02*
X003190Y007195D01*
X003186Y007192D02*
X003186Y007192D01*
X003185Y007191D02*
X003185Y007191D01*
X003181Y007188D02*
X003181Y007188D01*
X003180Y007187D02*
X003180Y007187D01*
X003176Y007184D02*
X003176Y007184D01*
X003175Y007183D02*
X003175Y007183D01*
X003171Y007180D02*
X003171Y007180D01*
X003170Y007179D02*
X003170Y007179D01*
X003166Y007176D02*
X003166Y007176D01*
X003165Y007175D02*
X003165Y007175D01*
X003161Y007172D02*
X003161Y007172D01*
X003156Y007168D02*
X003156Y007168D01*
X003151Y007165D02*
X003151Y007165D01*
X003146Y007161D02*
X003146Y007161D01*
X003141Y007158D02*
X003141Y007158D01*
X003136Y007155D02*
X003136Y007155D01*
X003131Y007152D02*
X003131Y007152D01*
X003126Y007148D02*
X003126Y007148D01*
X003121Y007145D02*
X003121Y007145D01*
X003116Y007142D02*
X003116Y007142D01*
X003111Y007139D02*
X003111Y007139D01*
X003106Y007137D02*
X003106Y007137D01*
X003017Y007396D02*
X003017Y006563D01*
X003019Y006560D01*
X003069Y006560D01*
X003330Y007333D02*
X003330Y007333D01*
X003330Y007333D01*
X003330Y007371D02*
X005276Y007371D01*
X005286Y007490D02*
X005253Y007490D01*
X004969Y007785D02*
X004269Y007785D01*
X003986Y007490D02*
X003327Y007490D01*
X003329Y007487D02*
X003329Y007487D01*
X003330Y007486D02*
X003330Y007486D01*
X003330Y007486D01*
X003273Y007543D02*
X003273Y007543D01*
X004553Y007490D02*
X004686Y007490D01*
X005214Y006897D02*
X001777Y006897D01*
X001777Y006779D02*
X005297Y006779D01*
X005239Y006660D02*
X001777Y006660D01*
X001777Y006541D02*
X005234Y006541D01*
X005234Y006423D02*
X001777Y006423D01*
X001777Y006304D02*
X005240Y006304D01*
X005321Y006186D02*
X001777Y006186D01*
X001777Y005119D02*
X007579Y005119D01*
X007605Y005001D02*
X001777Y005001D01*
X001777Y004882D02*
X007707Y004882D01*
X007826Y004764D02*
X001777Y004764D01*
X001777Y004645D02*
X007944Y004645D01*
X008063Y004527D02*
X001777Y004527D01*
X001777Y004408D02*
X008387Y004408D01*
X008270Y004290D02*
X001777Y004290D01*
X001777Y004171D02*
X008239Y004171D01*
X008519Y004160D02*
X016019Y004160D01*
X016488Y004629D01*
X016488Y005441D01*
X016865Y005475D02*
X017262Y005475D01*
X017262Y005593D02*
X016865Y005593D01*
X016865Y005712D02*
X017262Y005712D01*
X017262Y005830D02*
X016845Y005830D01*
X016865Y005356D02*
X017262Y005356D01*
X017262Y005238D02*
X016865Y005238D01*
X016865Y005119D02*
X017262Y005119D01*
X017262Y005001D02*
X016794Y005001D01*
X016728Y004882D02*
X017262Y004882D01*
X017262Y004764D02*
X016728Y004764D01*
X016728Y004645D02*
X017262Y004645D01*
X017262Y004527D02*
X016705Y004527D01*
X016607Y004408D02*
X017262Y004408D01*
X017262Y004290D02*
X016489Y004290D01*
X016370Y004171D02*
X017262Y004171D01*
X017262Y004053D02*
X016252Y004053D01*
X016169Y003934D02*
X017262Y003934D01*
X017262Y003816D02*
X016287Y003816D01*
X016406Y003697D02*
X017262Y003697D01*
X017262Y003579D02*
X016524Y003579D01*
X016643Y003460D02*
X017262Y003460D01*
X017262Y003342D02*
X016761Y003342D01*
X016818Y003223D02*
X017262Y003223D01*
X017262Y003105D02*
X016819Y003105D01*
X016819Y002986D02*
X017262Y002986D01*
X017262Y002868D02*
X016819Y002868D01*
X016819Y002749D02*
X017262Y002749D01*
X016219Y002749D02*
X014759Y002749D01*
X014759Y002709D02*
X014759Y003258D01*
X014723Y003346D01*
X014609Y003460D01*
X015795Y003460D01*
X016219Y003036D01*
X016219Y002709D01*
X016051Y002709D01*
X016003Y002662D01*
X015975Y002678D01*
X015934Y002689D01*
X015579Y002689D01*
X015579Y001408D01*
X015459Y001408D01*
X015459Y002689D01*
X015104Y002689D01*
X015064Y002678D01*
X015035Y002662D01*
X014987Y002709D01*
X014759Y002709D01*
X014759Y002868D02*
X016219Y002868D01*
X016219Y002986D02*
X014759Y002986D01*
X014759Y003105D02*
X016150Y003105D01*
X016031Y003223D02*
X014759Y003223D01*
X014724Y003342D02*
X015913Y003342D01*
X015579Y002631D02*
X015459Y002631D01*
X015459Y002512D02*
X015579Y002512D01*
X015579Y002394D02*
X015459Y002394D01*
X015459Y002275D02*
X015579Y002275D01*
X015579Y002157D02*
X015459Y002157D01*
X015459Y002038D02*
X015579Y002038D01*
X015579Y001920D02*
X015459Y001920D01*
X015459Y001801D02*
X015579Y001801D01*
X015579Y001683D02*
X015459Y001683D01*
X015459Y001564D02*
X015579Y001564D01*
X015579Y001446D02*
X015459Y001446D01*
X014519Y001348D02*
X014519Y003210D01*
X014319Y003410D01*
X005019Y003410D01*
X004519Y002910D01*
X004519Y002660D01*
X004519Y001348D01*
X003579Y001408D02*
X003459Y001408D01*
X003459Y002689D01*
X003104Y002689D01*
X003064Y002678D01*
X003035Y002662D01*
X002987Y002709D01*
X002819Y002709D01*
X002819Y003186D01*
X003093Y003460D01*
X004730Y003460D01*
X004383Y003113D01*
X004316Y003046D01*
X004279Y002958D01*
X004279Y002812D01*
X004239Y002716D01*
X004239Y002709D01*
X004051Y002709D01*
X004003Y002662D01*
X003975Y002678D01*
X003934Y002689D01*
X003579Y002689D01*
X003579Y001408D01*
X003579Y001446D02*
X003459Y001446D01*
X003459Y001564D02*
X003579Y001564D01*
X003579Y001683D02*
X003459Y001683D01*
X003459Y001801D02*
X003579Y001801D01*
X003579Y001920D02*
X003459Y001920D01*
X003459Y002038D02*
X003579Y002038D01*
X003579Y002157D02*
X003459Y002157D01*
X003459Y002275D02*
X003579Y002275D01*
X003579Y002394D02*
X003459Y002394D01*
X003459Y002512D02*
X003579Y002512D01*
X003579Y002631D02*
X003459Y002631D01*
X002819Y002749D02*
X004253Y002749D01*
X004279Y002868D02*
X002819Y002868D01*
X002819Y002986D02*
X004291Y002986D01*
X004375Y003105D02*
X002819Y003105D01*
X002857Y003223D02*
X004493Y003223D01*
X004612Y003342D02*
X002975Y003342D01*
X002482Y003697D02*
X001777Y003697D01*
X001777Y003579D02*
X002364Y003579D01*
X002257Y003460D02*
X001777Y003460D01*
X001777Y003342D02*
X002219Y003342D01*
X002219Y003223D02*
X001777Y003223D01*
X001777Y003105D02*
X002219Y003105D01*
X002219Y002986D02*
X001777Y002986D01*
X001777Y002868D02*
X002219Y002868D01*
X002219Y002749D02*
X001777Y002749D01*
X001777Y003816D02*
X002601Y003816D01*
X002719Y003934D02*
X001777Y003934D01*
X001777Y004053D02*
X002893Y004053D01*
X005519Y002910D02*
X005519Y002660D01*
X005519Y001348D01*
X006519Y001348D02*
X006519Y002910D01*
X005769Y003160D02*
X005519Y002910D01*
X005769Y003160D02*
X013069Y003160D01*
X013269Y003160D01*
X013519Y002910D01*
X013519Y002860D01*
X013519Y001348D01*
X013469Y001298D01*
X013469Y001060D01*
X013519Y001110D01*
X013519Y001348D01*
X013119Y003160D02*
X013069Y003160D01*
X013769Y004410D02*
X010069Y004410D01*
X010069Y005160D02*
X010069Y005510D01*
X010069Y006110D01*
X010069Y006710D01*
X010424Y006660D02*
X011176Y006660D01*
X011132Y006541D02*
X010424Y006541D01*
X010361Y006423D02*
X010836Y006423D01*
X010755Y006304D02*
X010424Y006304D01*
X010424Y006186D02*
X010739Y006186D01*
X010775Y006067D02*
X010424Y006067D01*
X010424Y005949D02*
X010918Y005949D01*
X011019Y006210D02*
X011038Y006229D01*
X011566Y006229D01*
X012551Y005441D02*
X012551Y005341D01*
X012119Y004910D01*
X012857Y005001D02*
X013032Y005001D01*
X012961Y005119D02*
X012927Y005119D01*
X012927Y005238D02*
X012961Y005238D01*
X012961Y005356D02*
X012927Y005356D01*
X012927Y005475D02*
X012961Y005475D01*
X012961Y005593D02*
X012927Y005593D01*
X012927Y005712D02*
X012961Y005712D01*
X012980Y005830D02*
X012908Y005830D01*
X013338Y005441D02*
X013338Y004879D01*
X013119Y004660D01*
X008269Y004660D01*
X009748Y005238D02*
X009762Y005238D01*
X007819Y007160D02*
X007819Y007310D01*
X007791Y007282D01*
X007691Y007282D01*
X007819Y007410D01*
X007819Y007310D01*
X007819Y007410D02*
X007819Y007460D01*
X007897Y007538D01*
X007979Y007538D01*
X007891Y007538D01*
X007819Y007610D01*
X007819Y007560D01*
X007841Y007538D01*
X007979Y007538D01*
X008444Y007538D01*
X008444Y007282D02*
X009441Y007282D01*
X009469Y007310D01*
X009469Y007910D01*
X009114Y007964D02*
X008793Y007964D01*
X008821Y007845D02*
X009114Y007845D01*
X009114Y007727D02*
X008821Y007727D01*
X008821Y007794D02*
X008738Y007794D01*
X008821Y007794D01*
X008738Y007794D02*
X008738Y007794D01*
X008841Y007608D02*
X009188Y007608D01*
X009114Y008082D02*
X008059Y008082D01*
X008059Y007964D02*
X008096Y007964D01*
X008068Y007845D02*
X008059Y007845D01*
X008150Y007794D02*
X008150Y007794D01*
X008444Y007797D02*
X008444Y008033D01*
X008444Y007797D01*
X008444Y007797D01*
X008444Y007845D02*
X008444Y007845D01*
X008444Y007964D02*
X008444Y007964D01*
X008059Y008201D02*
X009181Y008201D01*
X009143Y008319D02*
X008059Y008319D01*
X008174Y008438D02*
X009134Y008438D01*
X009134Y008556D02*
X008174Y008556D01*
X008174Y008675D02*
X009136Y008675D01*
X009202Y008793D02*
X008174Y008793D01*
X008147Y008912D02*
X011140Y008912D01*
X011091Y008793D02*
X010365Y008793D01*
X010424Y008675D02*
X011091Y008675D01*
X011091Y008556D02*
X010424Y008556D01*
X010424Y008438D02*
X011091Y008438D01*
X011092Y008319D02*
X010424Y008319D01*
X010069Y008510D02*
X010069Y007910D01*
X009497Y008556D02*
X009442Y008556D01*
X009442Y008675D02*
X009497Y008675D01*
X009497Y008793D02*
X009442Y008793D01*
X009737Y008793D02*
X009773Y008793D01*
X007819Y008660D02*
X007819Y007610D01*
X007819Y007560D02*
X007819Y007460D01*
X006979Y007964D02*
X006974Y007964D01*
X006594Y007026D02*
X006594Y006235D01*
X006619Y006210D01*
X003980Y008675D02*
X001777Y008675D01*
X003261Y010926D02*
X006361Y010926D01*
X006479Y011045D02*
X003493Y011045D01*
X003612Y011163D02*
X006598Y011163D01*
X006716Y011282D02*
X003696Y011282D01*
X003745Y011400D02*
X006835Y011400D01*
X006953Y011519D02*
X003790Y011519D01*
X007819Y009860D02*
X007819Y009260D01*
X013550Y004764D02*
X013784Y004764D01*
X013885Y004882D02*
X013578Y004882D01*
X013644Y005001D02*
X013819Y005001D01*
X013749Y005119D02*
X013715Y005119D01*
X013715Y005238D02*
X013749Y005238D01*
X013749Y005356D02*
X013715Y005356D01*
X013715Y005475D02*
X013749Y005475D01*
X013749Y005593D02*
X013715Y005593D01*
X013715Y005712D02*
X013749Y005712D01*
X013768Y005830D02*
X013696Y005830D01*
X014125Y005441D02*
X014125Y004766D01*
X013769Y004410D01*
X014269Y004410D02*
X015369Y004410D01*
X015700Y004741D01*
X015700Y005441D01*
X016077Y005475D02*
X016111Y005475D01*
X016111Y005593D02*
X016077Y005593D01*
X016077Y005712D02*
X016111Y005712D01*
X016130Y005830D02*
X016058Y005830D01*
X016077Y005356D02*
X016111Y005356D01*
X016111Y005238D02*
X016077Y005238D01*
X016077Y005119D02*
X016111Y005119D01*
X016181Y005001D02*
X016006Y005001D01*
X015940Y004882D02*
X016248Y004882D01*
X016248Y004764D02*
X015940Y004764D01*
X015920Y004645D02*
X016165Y004645D01*
X016047Y004527D02*
X015826Y004527D01*
X015928Y004408D02*
X015707Y004408D01*
X015384Y004764D02*
X015111Y004764D01*
X015153Y004882D02*
X015460Y004882D01*
X015394Y005001D02*
X015219Y005001D01*
X015290Y005119D02*
X015323Y005119D01*
X015323Y005238D02*
X015290Y005238D01*
X015290Y005356D02*
X015323Y005356D01*
X015323Y005475D02*
X015290Y005475D01*
X015290Y005593D02*
X015323Y005593D01*
X015323Y005712D02*
X015290Y005712D01*
X015271Y005830D02*
X015343Y005830D01*
X014913Y005441D02*
X014913Y004905D01*
X014668Y004660D01*
X014519Y004660D01*
X014432Y005001D02*
X014607Y005001D01*
X014536Y005119D02*
X014502Y005119D01*
X014502Y005238D02*
X014536Y005238D01*
X014536Y005356D02*
X014502Y005356D01*
X014502Y005475D02*
X014536Y005475D01*
X014536Y005593D02*
X014502Y005593D01*
X014502Y005712D02*
X014536Y005712D01*
X014555Y005830D02*
X014483Y005830D01*
X009519Y002910D02*
X009519Y001348D01*
X008769Y001598D02*
X008519Y001348D01*
X008769Y001598D02*
X008769Y002910D01*
D24*
X008769Y002910D03*
X009519Y002910D03*
X008519Y004160D03*
X008169Y004410D03*
X007519Y004460D03*
X008769Y004910D03*
X010069Y005160D03*
X010769Y005660D03*
X011019Y006210D03*
X011019Y007010D03*
X010769Y007410D03*
X010769Y008410D03*
X009519Y009160D03*
X008269Y009660D03*
X006769Y009660D03*
X006019Y009085D03*
X005519Y009660D03*
X004519Y008910D03*
X005019Y007160D03*
X005019Y006160D03*
X006019Y006210D03*
X006019Y005660D03*
X003769Y007160D03*
X002019Y005660D03*
X003269Y002910D03*
X003769Y002910D03*
X004519Y002660D03*
X005519Y002660D03*
X006519Y002910D03*
X010069Y004410D03*
X011569Y005210D03*
X012019Y005660D03*
X012519Y006410D03*
X013769Y007410D03*
X015019Y007410D03*
X015019Y008660D03*
X016519Y007410D03*
X015019Y006160D03*
X013769Y004910D03*
X014269Y004410D03*
X014519Y004660D03*
X013319Y003760D03*
X013519Y002860D03*
X014319Y003410D03*
X015019Y002910D03*
X015769Y002910D03*
X016519Y002660D03*
X017019Y002910D03*
X017019Y004160D03*
X012819Y004960D03*
X012519Y008410D03*
X013319Y008910D03*
X012019Y010160D03*
X011519Y009810D03*
X011019Y009910D03*
X010019Y010660D03*
X008269Y008160D03*
X006769Y008410D03*
X008219Y006560D03*
X013519Y010910D03*
X015019Y010910D03*
X002519Y002660D03*
D25*
X002519Y003310D01*
X002969Y003760D01*
X013319Y003760D01*
X015919Y003760D01*
X016519Y003160D01*
X016519Y002660D01*
X016519Y001348D01*
X007219Y006210D02*
X006619Y006210D01*
X006019Y006210D01*
X004794Y008385D02*
X004269Y008385D01*
X004794Y008385D02*
X005494Y009085D01*
X005569Y009085D02*
X005625Y009085D01*
X006019Y009085D01*
X006019Y009110D01*
X006269Y009360D01*
X006269Y010410D01*
X007419Y011560D01*
X007769Y011560D01*
X007819Y011560D01*
X008019Y011760D01*
X008219Y011560D01*
X007969Y011560D01*
X008019Y011610D01*
X008019Y011760D01*
X008019Y012160D01*
X007969Y011560D02*
X007769Y011560D01*
X008219Y011560D02*
X008619Y011560D01*
X010119Y011560D01*
X010669Y011010D01*
X010669Y009760D01*
X011051Y009379D01*
X012551Y009379D01*
X013338Y009379D01*
X013338Y008929D01*
X013319Y008910D01*
X002519Y002660D02*
X002519Y001348D01*
M02*
