%
M48
M72
T01C0.0100
T02C0.0350
T03C0.1181
%
T01
X5519Y9660
X6019Y9085
X6769Y9660
X6769Y8410
X8269Y8160
X9519Y9160
X8269Y9660
X10019Y10660
X11019Y9910
X11519Y9810
X12019Y10160
X13519Y10910
X15019Y10910
X13319Y8910
X12519Y8410
X13769Y7410
X15019Y7410
X15019Y8660
X16519Y7410
X15019Y6160
X13769Y4910
X14269Y4410
X14519Y4660
X13319Y3760
X13519Y2860
X14319Y3410
X15019Y2910
X15769Y2910
X16519Y2660
X17019Y2910
X17019Y4160
X12819Y4960
X12019Y5660
X11569Y5210
X10769Y5660
X11019Y6210
X11019Y7010
X10769Y7410
X10769Y8410
X8219Y6560
X10069Y5160
X10069Y4410
X8769Y4910
X8169Y4410
X8519Y4160
X7519Y4460
X6019Y5660
X6019Y6210
X5019Y6160
X5019Y7160
X3769Y7160
X2019Y5660
X3269Y2910
X3769Y2910
X4519Y2660
X5519Y2660
X6519Y2910
X8769Y2910
X9519Y2910
X12519Y6410
X4519Y8910
X2519Y2660
T02
X7019Y12160
X8019Y12160
X9019Y12160
X10019Y12160
X11019Y12160
X12019Y12160
T03
X3019Y11660
X16019Y11660
M30
