G75*
G70*
%OFA0B0*%
%FSLAX24Y24*%
%IPPOS*%
%LPD*%
%AMOC8*
5,1,8,0,0,1.08239X$1,22.5*
%
%ADD10C,0.0050*%
%ADD11C,0.0100*%
%ADD12R,0.0450X0.0450*%
%ADD13C,0.0000*%
%ADD14C,0.0040*%
D10*
X004586Y005588D02*
X004586Y009132D01*
X007480Y009132D01*
X007480Y005588D01*
X004586Y005588D01*
X008230Y007335D02*
X008230Y007835D01*
X009330Y007835D01*
X009330Y007335D01*
X008230Y007335D01*
X008369Y007999D02*
X009191Y007999D01*
X009191Y008621D01*
X008369Y008621D01*
X008369Y007999D01*
X009430Y007560D02*
X009930Y007560D01*
X009930Y008660D01*
X009430Y008660D01*
X009430Y007560D01*
X011152Y006393D02*
X011152Y008838D01*
X013908Y008838D01*
X013908Y006082D01*
X011463Y006082D01*
X011152Y006393D01*
X011052Y006082D02*
X011054Y006102D01*
X011060Y006120D01*
X011069Y006138D01*
X011081Y006153D01*
X011096Y006165D01*
X011114Y006174D01*
X011132Y006180D01*
X011152Y006182D01*
X011172Y006180D01*
X011190Y006174D01*
X011208Y006165D01*
X011223Y006153D01*
X011235Y006138D01*
X011244Y006120D01*
X011250Y006102D01*
X011252Y006082D01*
X011250Y006062D01*
X011244Y006044D01*
X011235Y006026D01*
X011223Y006011D01*
X011208Y005999D01*
X011190Y005990D01*
X011172Y005984D01*
X011152Y005982D01*
X011132Y005984D01*
X011114Y005990D01*
X011096Y005999D01*
X011081Y006011D01*
X011069Y006026D01*
X011060Y006044D01*
X011054Y006062D01*
X011052Y006082D01*
X011630Y005085D02*
X011630Y004585D01*
X012730Y004585D01*
X012730Y005085D01*
X011630Y005085D01*
X014980Y004910D02*
X014980Y006010D01*
X015480Y006010D01*
X015480Y004910D01*
X014980Y004910D01*
X014980Y006160D02*
X015480Y006160D01*
X015480Y007260D01*
X014980Y007260D01*
X014980Y006160D01*
X015650Y006351D02*
X015650Y008319D01*
X015808Y008319D01*
X015480Y008510D02*
X014980Y008510D01*
X014980Y007410D01*
X015480Y007410D01*
X015480Y008510D01*
X016280Y007785D02*
X016280Y007585D01*
X016780Y007585D01*
X016680Y007435D02*
X015880Y007435D01*
X015880Y007235D01*
X016680Y007235D01*
X016680Y007435D01*
X016780Y007085D02*
X016280Y007085D01*
X016280Y006885D01*
X016280Y007085D02*
X015780Y007085D01*
X015780Y007585D02*
X016280Y007585D01*
X016752Y008319D02*
X016910Y008319D01*
X016910Y006351D01*
X016752Y006351D01*
X015808Y006351D02*
X015650Y006351D01*
X018455Y007085D02*
X018455Y007235D01*
X018505Y007285D01*
X018605Y007285D01*
X018655Y007235D01*
X018655Y007085D01*
X018755Y007085D02*
X018455Y007085D01*
X018655Y007185D02*
X018755Y007285D01*
X018705Y007407D02*
X018755Y007457D01*
X018755Y007557D01*
X018705Y007607D01*
X018655Y007607D01*
X018605Y007557D01*
X018605Y007457D01*
X018555Y007407D01*
X018505Y007407D01*
X018455Y007457D01*
X018455Y007557D01*
X018505Y007607D01*
X018455Y007730D02*
X018455Y007930D01*
X018455Y007830D02*
X018755Y007830D01*
X019289Y008591D02*
X019585Y008591D01*
X019782Y008788D01*
X020274Y008788D01*
X020274Y007804D01*
X020372Y007705D01*
X020569Y007705D01*
X020667Y007607D01*
X020667Y007213D01*
X020569Y007115D01*
X020372Y007115D01*
X020274Y007016D01*
X020274Y006032D01*
X019782Y006032D01*
X019585Y006229D01*
X019289Y006229D01*
X019289Y008591D01*
X020274Y007804D02*
X020274Y007016D01*
X019780Y004410D02*
X019280Y004410D01*
X019530Y003910D01*
X019780Y004410D01*
X019765Y004380D02*
X019295Y004380D01*
X019319Y004332D02*
X019741Y004332D01*
X019717Y004283D02*
X019343Y004283D01*
X019368Y004235D02*
X019692Y004235D01*
X019668Y004186D02*
X019392Y004186D01*
X019416Y004138D02*
X019644Y004138D01*
X019620Y004089D02*
X019440Y004089D01*
X019465Y004041D02*
X019595Y004041D01*
X019571Y003992D02*
X019489Y003992D01*
X019513Y003944D02*
X019547Y003944D01*
X019437Y010485D02*
X019337Y010485D01*
X019287Y010535D01*
X019287Y010585D01*
X019337Y010635D01*
X019437Y010635D01*
X019487Y010585D01*
X019487Y010535D01*
X019437Y010485D01*
X019437Y010635D02*
X019487Y010685D01*
X019487Y010735D01*
X019437Y010785D01*
X019337Y010785D01*
X019287Y010735D01*
X019287Y010685D01*
X019337Y010635D01*
X019165Y010785D02*
X018965Y010485D01*
X018843Y010735D02*
X018643Y010535D01*
X018643Y010485D01*
X018520Y010535D02*
X018520Y010735D01*
X018470Y010785D01*
X018320Y010785D01*
X018320Y010485D01*
X018470Y010485D01*
X018520Y010535D01*
X018643Y010785D02*
X018843Y010785D01*
X018843Y010735D01*
X018306Y011035D02*
X018306Y011235D01*
X018256Y011285D01*
X018105Y011285D01*
X018105Y010985D01*
X018256Y010985D01*
X018306Y011035D01*
X017983Y010985D02*
X017883Y011085D01*
X017933Y011085D02*
X017783Y011085D01*
X017783Y010985D02*
X017783Y011285D01*
X017933Y011285D01*
X017983Y011235D01*
X017983Y011135D01*
X017933Y011085D01*
X017661Y011135D02*
X017461Y011135D01*
X017461Y011185D02*
X017561Y011285D01*
X017661Y011185D01*
X017661Y010985D01*
X017461Y010985D02*
X017461Y011185D01*
X017339Y011235D02*
X017289Y011285D01*
X017189Y011285D01*
X017139Y011235D01*
X017139Y011035D01*
X017189Y010985D01*
X017289Y010985D01*
X017339Y011035D01*
X017339Y011235D01*
X017017Y011235D02*
X016967Y011285D01*
X016816Y011285D01*
X016816Y010985D01*
X016967Y010985D01*
X017017Y011035D01*
X017017Y011085D01*
X016967Y011135D01*
X016816Y011135D01*
X016967Y011135D02*
X017017Y011185D01*
X017017Y011235D01*
X016909Y010785D02*
X016909Y010485D01*
X016909Y010635D02*
X016709Y010635D01*
X016709Y010485D02*
X016709Y010785D01*
X016587Y010735D02*
X016537Y010785D01*
X016437Y010785D01*
X016387Y010735D01*
X016387Y010535D01*
X016437Y010485D01*
X016537Y010485D01*
X016587Y010535D01*
X016265Y010785D02*
X016064Y010785D01*
X016164Y010785D02*
X016164Y010485D01*
X015950Y010485D02*
X015850Y010485D01*
X015900Y010485D02*
X015900Y010785D01*
X015850Y010785D02*
X015950Y010785D01*
X015727Y010785D02*
X015727Y010485D01*
X015627Y010585D01*
X015527Y010485D01*
X015527Y010785D01*
X015405Y010735D02*
X015355Y010785D01*
X015255Y010785D01*
X015205Y010735D01*
X015205Y010685D01*
X015255Y010635D01*
X015355Y010635D01*
X015405Y010585D01*
X015405Y010535D01*
X015355Y010485D01*
X015255Y010485D01*
X015205Y010535D01*
X015255Y010985D02*
X015355Y010985D01*
X015405Y011035D01*
X015405Y011135D01*
X015305Y011135D01*
X015205Y011235D02*
X015205Y011035D01*
X015255Y010985D01*
X015205Y011235D02*
X015255Y011285D01*
X015355Y011285D01*
X015405Y011235D01*
X015527Y011185D02*
X015627Y011285D01*
X015727Y011185D01*
X015727Y010985D01*
X015850Y010985D02*
X015850Y011285D01*
X015950Y011185D01*
X016050Y011285D01*
X016050Y010985D01*
X016172Y010985D02*
X016372Y010985D01*
X016272Y011135D02*
X016172Y011135D01*
X016172Y011285D02*
X016172Y010985D01*
X015727Y011135D02*
X015527Y011135D01*
X015527Y011185D02*
X015527Y010985D01*
X016172Y011285D02*
X016372Y011285D01*
X017353Y010785D02*
X017554Y010785D01*
X017454Y010785D02*
X017454Y010485D01*
X017676Y010535D02*
X017676Y010735D01*
X017726Y010785D01*
X017826Y010785D01*
X017876Y010735D01*
X017876Y010535D01*
X017826Y010485D01*
X017726Y010485D01*
X017676Y010535D01*
X014561Y010885D02*
X014361Y010685D01*
X014361Y010635D01*
X014239Y010685D02*
X014239Y010885D01*
X014189Y010935D01*
X014039Y010935D01*
X014039Y010635D01*
X014189Y010635D01*
X014239Y010685D01*
X014361Y010935D02*
X014561Y010935D01*
X014561Y010885D01*
X014511Y011385D02*
X014411Y011385D01*
X014361Y011435D01*
X014361Y011485D01*
X014411Y011535D01*
X014511Y011535D01*
X014561Y011485D01*
X014561Y011435D01*
X014511Y011385D01*
X014511Y011535D02*
X014561Y011585D01*
X014561Y011635D01*
X014511Y011685D01*
X014411Y011685D01*
X014361Y011635D01*
X014361Y011585D01*
X014411Y011535D01*
X014239Y011435D02*
X014239Y011635D01*
X014189Y011685D01*
X014039Y011685D01*
X014039Y011385D01*
X014189Y011385D01*
X014239Y011435D01*
X013594Y011385D02*
X013394Y011685D01*
X013272Y011635D02*
X013272Y011535D01*
X013222Y011485D01*
X013072Y011485D01*
X013172Y011485D02*
X013272Y011385D01*
X013394Y011385D02*
X013594Y011685D01*
X013272Y011635D02*
X013222Y011685D01*
X013072Y011685D01*
X013072Y011385D01*
X012627Y011435D02*
X012577Y011385D01*
X012477Y011385D01*
X012427Y011435D01*
X012627Y011635D01*
X012627Y011435D01*
X012427Y011435D02*
X012427Y011635D01*
X012477Y011685D01*
X012577Y011685D01*
X012627Y011635D01*
X012305Y011635D02*
X012305Y011435D01*
X012255Y011385D01*
X012105Y011385D01*
X012105Y011685D01*
X012255Y011685D01*
X012305Y011635D01*
X012255Y010935D02*
X012105Y010935D01*
X012105Y010635D01*
X012255Y010635D01*
X012305Y010685D01*
X012305Y010885D01*
X012255Y010935D01*
X012427Y010835D02*
X012527Y010935D01*
X012527Y010635D01*
X012427Y010635D02*
X012627Y010635D01*
X013072Y010935D02*
X013272Y010935D01*
X013172Y010935D02*
X013172Y010635D01*
X013394Y010635D02*
X013594Y010935D01*
X013394Y010935D02*
X013594Y010635D01*
X011341Y010471D02*
X011341Y011849D01*
X007719Y011849D01*
X007719Y010471D01*
X011341Y010471D01*
X007827Y012185D02*
X007827Y012485D01*
X007627Y012485D02*
X007627Y012185D01*
X007727Y012285D01*
X007827Y012185D01*
X007505Y012235D02*
X007455Y012185D01*
X007355Y012185D01*
X007305Y012235D01*
X007355Y012335D02*
X007455Y012335D01*
X007505Y012285D01*
X007505Y012235D01*
X007355Y012335D02*
X007305Y012385D01*
X007305Y012435D01*
X007355Y012485D01*
X007455Y012485D01*
X007505Y012435D01*
X007100Y010635D02*
X007150Y010585D01*
X007150Y010535D01*
X007100Y010485D01*
X007150Y010435D01*
X007150Y010385D01*
X007100Y010335D01*
X007000Y010335D01*
X006950Y010385D01*
X006827Y010335D02*
X006627Y010335D01*
X006727Y010335D02*
X006727Y010635D01*
X006627Y010535D01*
X006505Y010585D02*
X006505Y010385D01*
X006455Y010335D01*
X006305Y010335D01*
X006305Y010635D01*
X006455Y010635D01*
X006505Y010585D01*
X006080Y010710D02*
X006080Y010210D01*
X004980Y010210D01*
X004980Y010710D01*
X006080Y010710D01*
X006055Y010060D02*
X006055Y009560D01*
X005005Y009560D01*
X005005Y010060D01*
X006055Y010060D01*
X005580Y009810D02*
X005530Y009885D01*
X005530Y009735D01*
X005580Y009810D01*
X005530Y009735D02*
X005480Y009660D01*
X005480Y009960D01*
X005530Y009885D01*
X005505Y009910D02*
X005505Y009710D01*
X006950Y010585D02*
X007000Y010635D01*
X007100Y010635D01*
X007100Y010485D02*
X007050Y010485D01*
D11*
X004558Y011956D02*
X004558Y001364D01*
X004560Y001297D01*
X004566Y001230D01*
X004575Y001163D01*
X004588Y001097D01*
X004605Y001032D01*
X004625Y000968D01*
X004649Y000905D01*
X004677Y000843D01*
X004708Y000784D01*
X004742Y000726D01*
X004779Y000670D01*
X004820Y000616D01*
X004863Y000564D01*
X004909Y000515D01*
X004958Y000469D01*
X005010Y000426D01*
X005064Y000385D01*
X005120Y000348D01*
X005178Y000314D01*
X005237Y000283D01*
X005299Y000255D01*
X005362Y000231D01*
X005426Y000211D01*
X005491Y000194D01*
X005557Y000181D01*
X005624Y000172D01*
X005691Y000166D01*
X005758Y000164D01*
X019302Y000164D01*
X019369Y000166D01*
X019436Y000172D01*
X019503Y000181D01*
X019569Y000194D01*
X019634Y000211D01*
X019698Y000231D01*
X019761Y000255D01*
X019823Y000283D01*
X019882Y000314D01*
X019940Y000348D01*
X019996Y000385D01*
X020050Y000426D01*
X020102Y000469D01*
X020151Y000515D01*
X020197Y000564D01*
X020240Y000616D01*
X020281Y000670D01*
X020318Y000726D01*
X020352Y000784D01*
X020383Y000843D01*
X020411Y000905D01*
X020435Y000968D01*
X020455Y001032D01*
X020472Y001097D01*
X020485Y001163D01*
X020494Y001230D01*
X020500Y001297D01*
X020502Y001364D01*
X020502Y011956D01*
X020500Y012023D01*
X020494Y012090D01*
X020485Y012157D01*
X020472Y012223D01*
X020455Y012288D01*
X020435Y012352D01*
X020411Y012415D01*
X020383Y012477D01*
X020352Y012536D01*
X020318Y012594D01*
X020281Y012650D01*
X020240Y012704D01*
X020197Y012756D01*
X020151Y012805D01*
X020102Y012851D01*
X020050Y012894D01*
X019996Y012935D01*
X019940Y012972D01*
X019882Y013006D01*
X019823Y013037D01*
X019761Y013065D01*
X019698Y013089D01*
X019634Y013109D01*
X019569Y013126D01*
X019503Y013139D01*
X019436Y013148D01*
X019369Y013154D01*
X019302Y013156D01*
X005758Y013156D01*
X005691Y013154D01*
X005624Y013148D01*
X005557Y013139D01*
X005491Y013126D01*
X005426Y013109D01*
X005362Y013089D01*
X005299Y013065D01*
X005237Y013037D01*
X005178Y013006D01*
X005120Y012972D01*
X005064Y012935D01*
X005010Y012894D01*
X004958Y012851D01*
X004909Y012805D01*
X004863Y012756D01*
X004820Y012704D01*
X004779Y012650D01*
X004742Y012594D01*
X004708Y012536D01*
X004677Y012477D01*
X004649Y012415D01*
X004625Y012352D01*
X004605Y012288D01*
X004588Y012223D01*
X004575Y012157D01*
X004566Y012090D01*
X004560Y012023D01*
X004558Y011956D01*
X011780Y012360D02*
X012080Y012160D01*
X011830Y011910D02*
X012830Y011910D01*
X012830Y010460D01*
X013830Y010460D01*
X013830Y011860D01*
X014530Y012160D02*
X014830Y012360D01*
X014530Y012560D01*
X014830Y012360D02*
X011780Y012360D01*
X012080Y012560D01*
X011830Y011910D02*
X011830Y010460D01*
X012830Y010460D01*
X013830Y010460D02*
X014880Y010460D01*
X014880Y011160D01*
X011880Y011160D01*
X012830Y011910D02*
X014880Y011910D01*
X014880Y011160D01*
X020471Y003707D02*
X004589Y003707D01*
D12*
X011255Y008735D03*
X013805Y008735D03*
X013805Y006185D03*
D13*
X019693Y006957D02*
X019695Y006984D01*
X019701Y007010D01*
X019710Y007035D01*
X019723Y007058D01*
X019739Y007079D01*
X019758Y007098D01*
X019779Y007114D01*
X019802Y007127D01*
X019827Y007136D01*
X019853Y007142D01*
X019880Y007144D01*
X019907Y007142D01*
X019933Y007136D01*
X019958Y007127D01*
X019981Y007114D01*
X020002Y007098D01*
X020021Y007079D01*
X020037Y007058D01*
X020050Y007035D01*
X020059Y007010D01*
X020065Y006984D01*
X020067Y006957D01*
X020065Y006930D01*
X020059Y006904D01*
X020050Y006879D01*
X020037Y006856D01*
X020021Y006835D01*
X020002Y006816D01*
X019981Y006800D01*
X019958Y006787D01*
X019933Y006778D01*
X019907Y006772D01*
X019880Y006770D01*
X019853Y006772D01*
X019827Y006778D01*
X019802Y006787D01*
X019779Y006800D01*
X019758Y006816D01*
X019739Y006835D01*
X019723Y006856D01*
X019710Y006879D01*
X019701Y006904D01*
X019695Y006930D01*
X019693Y006957D01*
X019693Y007863D02*
X019695Y007890D01*
X019701Y007916D01*
X019710Y007941D01*
X019723Y007964D01*
X019739Y007985D01*
X019758Y008004D01*
X019779Y008020D01*
X019802Y008033D01*
X019827Y008042D01*
X019853Y008048D01*
X019880Y008050D01*
X019907Y008048D01*
X019933Y008042D01*
X019958Y008033D01*
X019981Y008020D01*
X020002Y008004D01*
X020021Y007985D01*
X020037Y007964D01*
X020050Y007941D01*
X020059Y007916D01*
X020065Y007890D01*
X020067Y007863D01*
X020065Y007836D01*
X020059Y007810D01*
X020050Y007785D01*
X020037Y007762D01*
X020021Y007741D01*
X020002Y007722D01*
X019981Y007706D01*
X019958Y007693D01*
X019933Y007684D01*
X019907Y007678D01*
X019880Y007676D01*
X019853Y007678D01*
X019827Y007684D01*
X019802Y007693D01*
X019779Y007706D01*
X019758Y007722D01*
X019739Y007741D01*
X019723Y007762D01*
X019710Y007785D01*
X019701Y007810D01*
X019695Y007836D01*
X019693Y007863D01*
X018439Y011660D02*
X018441Y011708D01*
X018447Y011756D01*
X018457Y011803D01*
X018470Y011849D01*
X018488Y011894D01*
X018508Y011938D01*
X018533Y011980D01*
X018561Y012019D01*
X018591Y012056D01*
X018625Y012090D01*
X018662Y012122D01*
X018700Y012151D01*
X018741Y012176D01*
X018784Y012198D01*
X018829Y012216D01*
X018875Y012230D01*
X018922Y012241D01*
X018970Y012248D01*
X019018Y012251D01*
X019066Y012250D01*
X019114Y012245D01*
X019162Y012236D01*
X019208Y012224D01*
X019253Y012207D01*
X019297Y012187D01*
X019339Y012164D01*
X019379Y012137D01*
X019417Y012107D01*
X019452Y012074D01*
X019484Y012038D01*
X019514Y012000D01*
X019540Y011959D01*
X019562Y011916D01*
X019582Y011872D01*
X019597Y011827D01*
X019609Y011780D01*
X019617Y011732D01*
X019621Y011684D01*
X019621Y011636D01*
X019617Y011588D01*
X019609Y011540D01*
X019597Y011493D01*
X019582Y011448D01*
X019562Y011404D01*
X019540Y011361D01*
X019514Y011320D01*
X019484Y011282D01*
X019452Y011246D01*
X019417Y011213D01*
X019379Y011183D01*
X019339Y011156D01*
X019297Y011133D01*
X019253Y011113D01*
X019208Y011096D01*
X019162Y011084D01*
X019114Y011075D01*
X019066Y011070D01*
X019018Y011069D01*
X018970Y011072D01*
X018922Y011079D01*
X018875Y011090D01*
X018829Y011104D01*
X018784Y011122D01*
X018741Y011144D01*
X018700Y011169D01*
X018662Y011198D01*
X018625Y011230D01*
X018591Y011264D01*
X018561Y011301D01*
X018533Y011340D01*
X018508Y011382D01*
X018488Y011426D01*
X018470Y011471D01*
X018457Y011517D01*
X018447Y011564D01*
X018441Y011612D01*
X018439Y011660D01*
X006929Y008498D02*
X006931Y008519D01*
X006937Y008539D01*
X006946Y008559D01*
X006958Y008576D01*
X006973Y008590D01*
X006991Y008602D01*
X007011Y008610D01*
X007031Y008615D01*
X007052Y008616D01*
X007073Y008613D01*
X007093Y008607D01*
X007112Y008596D01*
X007129Y008583D01*
X007142Y008567D01*
X007153Y008549D01*
X007161Y008529D01*
X007165Y008509D01*
X007165Y008487D01*
X007161Y008467D01*
X007153Y008447D01*
X007142Y008429D01*
X007129Y008413D01*
X007112Y008400D01*
X007093Y008389D01*
X007073Y008383D01*
X007052Y008380D01*
X007031Y008381D01*
X007011Y008386D01*
X006991Y008394D01*
X006973Y008406D01*
X006958Y008420D01*
X006946Y008437D01*
X006937Y008457D01*
X006931Y008477D01*
X006929Y008498D01*
X006929Y006222D02*
X006931Y006243D01*
X006937Y006263D01*
X006946Y006283D01*
X006958Y006300D01*
X006973Y006314D01*
X006991Y006326D01*
X007011Y006334D01*
X007031Y006339D01*
X007052Y006340D01*
X007073Y006337D01*
X007093Y006331D01*
X007112Y006320D01*
X007129Y006307D01*
X007142Y006291D01*
X007153Y006273D01*
X007161Y006253D01*
X007165Y006233D01*
X007165Y006211D01*
X007161Y006191D01*
X007153Y006171D01*
X007142Y006153D01*
X007129Y006137D01*
X007112Y006124D01*
X007093Y006113D01*
X007073Y006107D01*
X007052Y006104D01*
X007031Y006105D01*
X007011Y006110D01*
X006991Y006118D01*
X006973Y006130D01*
X006958Y006144D01*
X006946Y006161D01*
X006937Y006181D01*
X006931Y006201D01*
X006929Y006222D01*
X005439Y011660D02*
X005441Y011708D01*
X005447Y011756D01*
X005457Y011803D01*
X005470Y011849D01*
X005488Y011894D01*
X005508Y011938D01*
X005533Y011980D01*
X005561Y012019D01*
X005591Y012056D01*
X005625Y012090D01*
X005662Y012122D01*
X005700Y012151D01*
X005741Y012176D01*
X005784Y012198D01*
X005829Y012216D01*
X005875Y012230D01*
X005922Y012241D01*
X005970Y012248D01*
X006018Y012251D01*
X006066Y012250D01*
X006114Y012245D01*
X006162Y012236D01*
X006208Y012224D01*
X006253Y012207D01*
X006297Y012187D01*
X006339Y012164D01*
X006379Y012137D01*
X006417Y012107D01*
X006452Y012074D01*
X006484Y012038D01*
X006514Y012000D01*
X006540Y011959D01*
X006562Y011916D01*
X006582Y011872D01*
X006597Y011827D01*
X006609Y011780D01*
X006617Y011732D01*
X006621Y011684D01*
X006621Y011636D01*
X006617Y011588D01*
X006609Y011540D01*
X006597Y011493D01*
X006582Y011448D01*
X006562Y011404D01*
X006540Y011361D01*
X006514Y011320D01*
X006484Y011282D01*
X006452Y011246D01*
X006417Y011213D01*
X006379Y011183D01*
X006339Y011156D01*
X006297Y011133D01*
X006253Y011113D01*
X006208Y011096D01*
X006162Y011084D01*
X006114Y011075D01*
X006066Y011070D01*
X006018Y011069D01*
X005970Y011072D01*
X005922Y011079D01*
X005875Y011090D01*
X005829Y011104D01*
X005784Y011122D01*
X005741Y011144D01*
X005700Y011169D01*
X005662Y011198D01*
X005625Y011230D01*
X005591Y011264D01*
X005561Y011301D01*
X005533Y011340D01*
X005508Y011382D01*
X005488Y011426D01*
X005470Y011471D01*
X005457Y011517D01*
X005447Y011564D01*
X005441Y011612D01*
X005439Y011660D01*
D14*
X005455Y003090D02*
X005352Y003090D01*
X005300Y003039D01*
X005455Y003090D02*
X005507Y003039D01*
X005507Y002987D01*
X005300Y002780D01*
X005507Y002780D01*
X005622Y002832D02*
X005674Y002780D01*
X005777Y002780D01*
X005829Y002832D01*
X005829Y003039D01*
X005777Y003090D01*
X005674Y003090D01*
X005622Y003039D01*
X005622Y002987D01*
X005674Y002935D01*
X005829Y002935D01*
X012250Y002987D02*
X012353Y003090D01*
X012353Y002780D01*
X012250Y002780D02*
X012457Y002780D01*
X012572Y002832D02*
X012624Y002780D01*
X012727Y002780D01*
X012779Y002832D01*
X012779Y002935D01*
X012727Y002987D01*
X012676Y002987D01*
X012572Y002935D01*
X012572Y003090D01*
X012779Y003090D01*
X019450Y002987D02*
X019553Y003090D01*
X019553Y002780D01*
X019450Y002780D02*
X019657Y002780D01*
M02*
