G75*
G70*
%OFA0B0*%
%FSLAX24Y24*%
%IPPOS*%
%LPD*%
%AMOC8*
5,1,8,0,0,1.08239X$1,22.5*
%
%ADD10C,0.0100*%
%ADD11R,0.0787X0.2362*%
%ADD12R,0.0394X0.2362*%
%ADD13C,0.0000*%
%ADD14C,0.0394*%
%ADD15C,0.0433*%
%ADD16C,0.0200*%
%ADD17C,0.0120*%
%ADD18C,0.0240*%
D10*
X004558Y001364D02*
X004558Y011956D01*
X004560Y012023D01*
X004566Y012090D01*
X004575Y012157D01*
X004588Y012223D01*
X004605Y012288D01*
X004625Y012352D01*
X004649Y012415D01*
X004677Y012477D01*
X004708Y012536D01*
X004742Y012594D01*
X004779Y012650D01*
X004820Y012704D01*
X004863Y012756D01*
X004909Y012805D01*
X004958Y012851D01*
X005010Y012894D01*
X005064Y012935D01*
X005120Y012972D01*
X005178Y013006D01*
X005237Y013037D01*
X005299Y013065D01*
X005362Y013089D01*
X005426Y013109D01*
X005491Y013126D01*
X005557Y013139D01*
X005624Y013148D01*
X005691Y013154D01*
X005758Y013156D01*
X019302Y013156D01*
X019369Y013154D01*
X019436Y013148D01*
X019503Y013139D01*
X019569Y013126D01*
X019634Y013109D01*
X019698Y013089D01*
X019761Y013065D01*
X019823Y013037D01*
X019882Y013006D01*
X019940Y012972D01*
X019996Y012935D01*
X020050Y012894D01*
X020102Y012851D01*
X020151Y012805D01*
X020197Y012756D01*
X020240Y012704D01*
X020281Y012650D01*
X020318Y012594D01*
X020352Y012536D01*
X020383Y012477D01*
X020411Y012415D01*
X020435Y012352D01*
X020455Y012288D01*
X020472Y012223D01*
X020485Y012157D01*
X020494Y012090D01*
X020500Y012023D01*
X020502Y011956D01*
X020502Y001364D01*
X020500Y001297D01*
X020494Y001230D01*
X020485Y001163D01*
X020472Y001097D01*
X020455Y001032D01*
X020435Y000968D01*
X020411Y000905D01*
X020383Y000843D01*
X020352Y000784D01*
X020318Y000726D01*
X020281Y000670D01*
X020240Y000616D01*
X020197Y000564D01*
X020151Y000515D01*
X020102Y000469D01*
X020050Y000426D01*
X019996Y000385D01*
X019940Y000348D01*
X019882Y000314D01*
X019823Y000283D01*
X019761Y000255D01*
X019698Y000231D01*
X019634Y000211D01*
X019569Y000194D01*
X019503Y000181D01*
X019436Y000172D01*
X019369Y000166D01*
X019302Y000164D01*
X005758Y000164D01*
X005691Y000166D01*
X005624Y000172D01*
X005557Y000181D01*
X005491Y000194D01*
X005426Y000211D01*
X005362Y000231D01*
X005299Y000255D01*
X005237Y000283D01*
X005178Y000314D01*
X005120Y000348D01*
X005064Y000385D01*
X005010Y000426D01*
X004958Y000469D01*
X004909Y000515D01*
X004863Y000564D01*
X004820Y000616D01*
X004779Y000670D01*
X004742Y000726D01*
X004708Y000784D01*
X004677Y000843D01*
X004649Y000905D01*
X004625Y000968D01*
X004605Y001032D01*
X004588Y001097D01*
X004575Y001163D01*
X004566Y001230D01*
X004560Y001297D01*
X004558Y001364D01*
D11*
X005530Y001348D03*
X006530Y001348D03*
X007530Y001348D03*
X008530Y001348D03*
X009530Y001348D03*
X010530Y001348D03*
X011530Y001348D03*
X012530Y001348D03*
X013530Y001348D03*
X014530Y001348D03*
X015530Y001348D03*
X016530Y001348D03*
X017530Y001348D03*
X018530Y001348D03*
X019530Y001348D03*
D12*
X020325Y001348D03*
X004735Y001348D03*
D13*
X006929Y006222D02*
X006931Y006243D01*
X006937Y006263D01*
X006946Y006283D01*
X006958Y006300D01*
X006973Y006314D01*
X006991Y006326D01*
X007011Y006334D01*
X007031Y006339D01*
X007052Y006340D01*
X007073Y006337D01*
X007093Y006331D01*
X007112Y006320D01*
X007129Y006307D01*
X007142Y006291D01*
X007153Y006273D01*
X007161Y006253D01*
X007165Y006233D01*
X007165Y006211D01*
X007161Y006191D01*
X007153Y006171D01*
X007142Y006153D01*
X007129Y006137D01*
X007112Y006124D01*
X007093Y006113D01*
X007073Y006107D01*
X007052Y006104D01*
X007031Y006105D01*
X007011Y006110D01*
X006991Y006118D01*
X006973Y006130D01*
X006958Y006144D01*
X006946Y006161D01*
X006937Y006181D01*
X006931Y006201D01*
X006929Y006222D01*
X006929Y008498D02*
X006931Y008519D01*
X006937Y008539D01*
X006946Y008559D01*
X006958Y008576D01*
X006973Y008590D01*
X006991Y008602D01*
X007011Y008610D01*
X007031Y008615D01*
X007052Y008616D01*
X007073Y008613D01*
X007093Y008607D01*
X007112Y008596D01*
X007129Y008583D01*
X007142Y008567D01*
X007153Y008549D01*
X007161Y008529D01*
X007165Y008509D01*
X007165Y008487D01*
X007161Y008467D01*
X007153Y008447D01*
X007142Y008429D01*
X007129Y008413D01*
X007112Y008400D01*
X007093Y008389D01*
X007073Y008383D01*
X007052Y008380D01*
X007031Y008381D01*
X007011Y008386D01*
X006991Y008394D01*
X006973Y008406D01*
X006958Y008420D01*
X006946Y008437D01*
X006937Y008457D01*
X006931Y008477D01*
X006929Y008498D01*
X005439Y011660D02*
X005441Y011708D01*
X005447Y011756D01*
X005457Y011803D01*
X005470Y011849D01*
X005488Y011894D01*
X005508Y011938D01*
X005533Y011980D01*
X005561Y012019D01*
X005591Y012056D01*
X005625Y012090D01*
X005662Y012122D01*
X005700Y012151D01*
X005741Y012176D01*
X005784Y012198D01*
X005829Y012216D01*
X005875Y012230D01*
X005922Y012241D01*
X005970Y012248D01*
X006018Y012251D01*
X006066Y012250D01*
X006114Y012245D01*
X006162Y012236D01*
X006208Y012224D01*
X006253Y012207D01*
X006297Y012187D01*
X006339Y012164D01*
X006379Y012137D01*
X006417Y012107D01*
X006452Y012074D01*
X006484Y012038D01*
X006514Y012000D01*
X006540Y011959D01*
X006562Y011916D01*
X006582Y011872D01*
X006597Y011827D01*
X006609Y011780D01*
X006617Y011732D01*
X006621Y011684D01*
X006621Y011636D01*
X006617Y011588D01*
X006609Y011540D01*
X006597Y011493D01*
X006582Y011448D01*
X006562Y011404D01*
X006540Y011361D01*
X006514Y011320D01*
X006484Y011282D01*
X006452Y011246D01*
X006417Y011213D01*
X006379Y011183D01*
X006339Y011156D01*
X006297Y011133D01*
X006253Y011113D01*
X006208Y011096D01*
X006162Y011084D01*
X006114Y011075D01*
X006066Y011070D01*
X006018Y011069D01*
X005970Y011072D01*
X005922Y011079D01*
X005875Y011090D01*
X005829Y011104D01*
X005784Y011122D01*
X005741Y011144D01*
X005700Y011169D01*
X005662Y011198D01*
X005625Y011230D01*
X005591Y011264D01*
X005561Y011301D01*
X005533Y011340D01*
X005508Y011382D01*
X005488Y011426D01*
X005470Y011471D01*
X005457Y011517D01*
X005447Y011564D01*
X005441Y011612D01*
X005439Y011660D01*
X018439Y011660D02*
X018441Y011708D01*
X018447Y011756D01*
X018457Y011803D01*
X018470Y011849D01*
X018488Y011894D01*
X018508Y011938D01*
X018533Y011980D01*
X018561Y012019D01*
X018591Y012056D01*
X018625Y012090D01*
X018662Y012122D01*
X018700Y012151D01*
X018741Y012176D01*
X018784Y012198D01*
X018829Y012216D01*
X018875Y012230D01*
X018922Y012241D01*
X018970Y012248D01*
X019018Y012251D01*
X019066Y012250D01*
X019114Y012245D01*
X019162Y012236D01*
X019208Y012224D01*
X019253Y012207D01*
X019297Y012187D01*
X019339Y012164D01*
X019379Y012137D01*
X019417Y012107D01*
X019452Y012074D01*
X019484Y012038D01*
X019514Y012000D01*
X019540Y011959D01*
X019562Y011916D01*
X019582Y011872D01*
X019597Y011827D01*
X019609Y011780D01*
X019617Y011732D01*
X019621Y011684D01*
X019621Y011636D01*
X019617Y011588D01*
X019609Y011540D01*
X019597Y011493D01*
X019582Y011448D01*
X019562Y011404D01*
X019540Y011361D01*
X019514Y011320D01*
X019484Y011282D01*
X019452Y011246D01*
X019417Y011213D01*
X019379Y011183D01*
X019339Y011156D01*
X019297Y011133D01*
X019253Y011113D01*
X019208Y011096D01*
X019162Y011084D01*
X019114Y011075D01*
X019066Y011070D01*
X019018Y011069D01*
X018970Y011072D01*
X018922Y011079D01*
X018875Y011090D01*
X018829Y011104D01*
X018784Y011122D01*
X018741Y011144D01*
X018700Y011169D01*
X018662Y011198D01*
X018625Y011230D01*
X018591Y011264D01*
X018561Y011301D01*
X018533Y011340D01*
X018508Y011382D01*
X018488Y011426D01*
X018470Y011471D01*
X018457Y011517D01*
X018447Y011564D01*
X018441Y011612D01*
X018439Y011660D01*
X019693Y007863D02*
X019695Y007890D01*
X019701Y007916D01*
X019710Y007941D01*
X019723Y007964D01*
X019739Y007985D01*
X019758Y008004D01*
X019779Y008020D01*
X019802Y008033D01*
X019827Y008042D01*
X019853Y008048D01*
X019880Y008050D01*
X019907Y008048D01*
X019933Y008042D01*
X019958Y008033D01*
X019981Y008020D01*
X020002Y008004D01*
X020021Y007985D01*
X020037Y007964D01*
X020050Y007941D01*
X020059Y007916D01*
X020065Y007890D01*
X020067Y007863D01*
X020065Y007836D01*
X020059Y007810D01*
X020050Y007785D01*
X020037Y007762D01*
X020021Y007741D01*
X020002Y007722D01*
X019981Y007706D01*
X019958Y007693D01*
X019933Y007684D01*
X019907Y007678D01*
X019880Y007676D01*
X019853Y007678D01*
X019827Y007684D01*
X019802Y007693D01*
X019779Y007706D01*
X019758Y007722D01*
X019739Y007741D01*
X019723Y007762D01*
X019710Y007785D01*
X019701Y007810D01*
X019695Y007836D01*
X019693Y007863D01*
X019693Y006957D02*
X019695Y006984D01*
X019701Y007010D01*
X019710Y007035D01*
X019723Y007058D01*
X019739Y007079D01*
X019758Y007098D01*
X019779Y007114D01*
X019802Y007127D01*
X019827Y007136D01*
X019853Y007142D01*
X019880Y007144D01*
X019907Y007142D01*
X019933Y007136D01*
X019958Y007127D01*
X019981Y007114D01*
X020002Y007098D01*
X020021Y007079D01*
X020037Y007058D01*
X020050Y007035D01*
X020059Y007010D01*
X020065Y006984D01*
X020067Y006957D01*
X020065Y006930D01*
X020059Y006904D01*
X020050Y006879D01*
X020037Y006856D01*
X020021Y006835D01*
X020002Y006816D01*
X019981Y006800D01*
X019958Y006787D01*
X019933Y006778D01*
X019907Y006772D01*
X019880Y006770D01*
X019853Y006772D01*
X019827Y006778D01*
X019802Y006787D01*
X019779Y006800D01*
X019758Y006816D01*
X019739Y006835D01*
X019723Y006856D01*
X019710Y006879D01*
X019701Y006904D01*
X019695Y006930D01*
X019693Y006957D01*
D14*
X005807Y005667D02*
X005413Y005667D01*
X005413Y009053D02*
X005807Y009053D01*
D15*
X007047Y009053D02*
X007480Y009053D01*
X007480Y005667D02*
X007047Y005667D01*
D16*
X008030Y005160D03*
X008530Y004410D03*
X007030Y003160D03*
X007530Y002660D03*
X008530Y002660D03*
X009230Y002910D03*
X010530Y002910D03*
X011780Y002910D03*
X012530Y002810D03*
X012780Y002910D03*
X013530Y002910D03*
X013830Y003710D03*
X013030Y004235D03*
X012530Y004260D03*
X011780Y004260D03*
X011530Y004010D03*
X011030Y004660D03*
X010530Y004660D03*
X011580Y005660D03*
X011280Y006160D03*
X010780Y006410D03*
X011780Y006910D03*
X012530Y007460D03*
X013280Y006910D03*
X014280Y006869D03*
X013280Y008160D03*
X013380Y009160D03*
X014030Y009160D03*
X015030Y009060D03*
X015030Y009410D03*
X016280Y008910D03*
X017030Y008910D03*
X017030Y007660D03*
X017830Y007060D03*
X017030Y006410D03*
X016280Y005660D03*
X016280Y004410D03*
X015280Y003410D03*
X015030Y003160D03*
X014780Y002910D03*
X015530Y002910D03*
X016530Y002660D03*
X017530Y002660D03*
X018030Y003160D03*
X018780Y003160D03*
X019530Y002660D03*
X020030Y003160D03*
X018530Y004410D03*
X018530Y005660D03*
X019780Y005660D03*
X019280Y009160D03*
X017730Y009960D03*
X015880Y011860D03*
X013530Y010260D03*
X013030Y009660D03*
X012780Y009910D03*
X012080Y009960D03*
X011230Y010160D03*
X011080Y009760D03*
X012030Y009160D03*
X011780Y008160D03*
X010780Y008444D03*
X010380Y008810D03*
X010080Y008010D03*
X010230Y007760D03*
X010480Y007610D03*
X009730Y007360D03*
X008880Y007110D03*
X008880Y006410D03*
X009230Y008810D03*
X008530Y009160D03*
X008530Y010410D03*
X008530Y011160D03*
X009480Y011910D03*
X010530Y011910D03*
X010530Y010910D03*
X007430Y011360D03*
X006280Y009810D03*
X005980Y004960D03*
X005230Y004610D03*
X005030Y003160D03*
X005530Y002660D03*
X006030Y003160D03*
X012780Y005660D03*
D17*
X012830Y005360D02*
X013530Y004660D01*
X013530Y002910D01*
X013030Y003160D02*
X012780Y002910D01*
X012530Y002810D02*
X012530Y004260D01*
X012285Y004171D02*
X012025Y004171D01*
X012040Y004208D02*
X012040Y004312D01*
X012000Y004407D01*
X011927Y004480D01*
X011832Y004520D01*
X011728Y004520D01*
X011633Y004480D01*
X011560Y004407D01*
X011520Y004312D01*
X011520Y004270D01*
X011478Y004270D01*
X011383Y004230D01*
X011310Y004157D01*
X011270Y004062D01*
X011270Y003958D01*
X011310Y003863D01*
X011310Y003862D01*
X011310Y002689D01*
X011070Y002689D01*
X011030Y002649D01*
X010990Y002689D01*
X010677Y002689D01*
X010677Y002690D01*
X010750Y002763D01*
X010790Y002858D01*
X010790Y002962D01*
X010750Y003057D01*
X010677Y003130D01*
X010582Y003170D01*
X010581Y003170D01*
X010200Y003551D01*
X010200Y005479D01*
X010789Y004890D01*
X010971Y004890D01*
X012639Y004890D01*
X013034Y004495D01*
X012978Y004495D01*
X012883Y004455D01*
X012810Y004382D01*
X012785Y004323D01*
X012750Y004407D01*
X012677Y004480D01*
X012582Y004520D01*
X012478Y004520D01*
X012383Y004480D01*
X012310Y004407D01*
X012270Y004312D01*
X012270Y004208D01*
X012310Y004113D01*
X012310Y004112D01*
X012310Y002958D01*
X012310Y002957D01*
X012270Y002862D01*
X012270Y002758D01*
X012299Y002689D01*
X012070Y002689D01*
X012030Y002649D01*
X011990Y002689D01*
X011927Y002689D01*
X011927Y002690D01*
X012000Y002763D01*
X012040Y002858D01*
X012040Y002962D01*
X012000Y003057D01*
X012000Y003058D01*
X012000Y004112D01*
X012000Y004113D01*
X012040Y004208D01*
X012040Y004290D02*
X012270Y004290D01*
X012311Y004408D02*
X011999Y004408D01*
X011780Y004260D02*
X011780Y002910D01*
X012030Y002986D02*
X012310Y002986D01*
X012310Y003105D02*
X012000Y003105D01*
X012000Y003223D02*
X012310Y003223D01*
X012310Y003342D02*
X012000Y003342D01*
X012000Y003460D02*
X012310Y003460D01*
X012310Y003579D02*
X012000Y003579D01*
X012000Y003697D02*
X012310Y003697D01*
X012310Y003816D02*
X012000Y003816D01*
X012000Y003934D02*
X012310Y003934D01*
X012310Y004053D02*
X012000Y004053D01*
X011530Y004010D02*
X011530Y001348D01*
X012530Y001348D02*
X012530Y002810D01*
X012274Y002749D02*
X011987Y002749D01*
X012040Y002868D02*
X012273Y002868D01*
X013030Y003160D02*
X013030Y004235D01*
X012836Y004408D02*
X012749Y004408D01*
X012883Y004645D02*
X010200Y004645D01*
X010200Y004527D02*
X013002Y004527D01*
X013280Y004560D02*
X012730Y005110D01*
X010880Y005110D01*
X010230Y005760D01*
X010230Y007760D01*
X010340Y007996D02*
X010340Y008062D01*
X010300Y008157D01*
X010227Y008230D01*
X010132Y008270D01*
X010028Y008270D01*
X009933Y008230D01*
X009860Y008157D01*
X009820Y008062D01*
X009820Y008061D01*
X009760Y008001D01*
X009760Y007620D01*
X009700Y007620D01*
X009700Y011762D01*
X009700Y011763D01*
X009740Y011858D01*
X009740Y011962D01*
X009700Y012057D01*
X009627Y012130D01*
X009532Y012170D01*
X009428Y012170D01*
X009333Y012130D01*
X009260Y012057D01*
X009220Y011962D01*
X009220Y011858D01*
X009260Y011763D01*
X009260Y011762D01*
X009260Y009070D01*
X009178Y009070D01*
X009083Y009030D01*
X009010Y008957D01*
X008970Y008862D01*
X008970Y008758D01*
X009010Y008663D01*
X009010Y008662D01*
X009010Y003058D01*
X009010Y003057D01*
X008970Y002962D01*
X008970Y002858D01*
X009010Y002763D01*
X009083Y002690D01*
X009083Y002689D01*
X009070Y002689D01*
X009030Y002649D01*
X008990Y002689D01*
X008790Y002689D01*
X008790Y002712D01*
X008750Y002807D01*
X008677Y002880D01*
X008582Y002920D01*
X008478Y002920D01*
X008383Y002880D01*
X008310Y002807D01*
X008270Y002712D01*
X008270Y002689D01*
X008070Y002689D01*
X008030Y002649D01*
X007990Y002689D01*
X007790Y002689D01*
X007790Y002712D01*
X007750Y002807D01*
X007677Y002880D01*
X007582Y002920D01*
X007478Y002920D01*
X007383Y002880D01*
X007310Y002807D01*
X007270Y002712D01*
X007270Y002689D01*
X007070Y002689D01*
X007030Y002649D01*
X007022Y002657D01*
X006985Y002678D01*
X006945Y002689D01*
X006590Y002689D01*
X006590Y001408D01*
X006470Y001408D01*
X006470Y002689D01*
X006115Y002689D01*
X006075Y002678D01*
X006038Y002657D01*
X006030Y002649D01*
X005990Y002689D01*
X005810Y002689D01*
X005810Y002716D01*
X005767Y002819D01*
X005689Y002897D01*
X005586Y002940D01*
X005474Y002940D01*
X005371Y002897D01*
X005293Y002819D01*
X005250Y002716D01*
X005250Y002689D01*
X005070Y002689D01*
X005034Y002653D01*
X004998Y002689D01*
X004768Y002689D01*
X004768Y011956D01*
X004780Y012111D01*
X005420Y012111D01*
X005394Y012085D02*
X005279Y011809D01*
X005279Y011511D01*
X005394Y011235D01*
X005605Y011024D01*
X005881Y010909D01*
X006179Y010909D01*
X006455Y011024D01*
X006666Y011235D01*
X006781Y011511D01*
X006781Y011809D01*
X006666Y012085D01*
X006455Y012296D01*
X006179Y012411D01*
X005881Y012411D01*
X005605Y012296D01*
X005394Y012085D01*
X005355Y011993D02*
X004770Y011993D01*
X004780Y012111D02*
X004875Y012406D01*
X005058Y012656D01*
X005308Y012838D01*
X005603Y012934D01*
X005758Y012946D01*
X019302Y012946D01*
X019457Y012934D01*
X019752Y012838D01*
X020002Y012656D01*
X020185Y012406D01*
X020280Y012111D01*
X019640Y012111D01*
X019666Y012085D02*
X019455Y012296D01*
X019179Y012411D01*
X018881Y012411D01*
X018605Y012296D01*
X018394Y012085D01*
X018279Y011809D01*
X018279Y011511D01*
X018394Y011235D01*
X018605Y011024D01*
X018881Y010909D01*
X019179Y010909D01*
X019455Y011024D01*
X019666Y011235D01*
X019781Y011511D01*
X019781Y011809D01*
X019666Y012085D01*
X019705Y011993D02*
X020290Y011993D01*
X020292Y011956D02*
X020280Y012111D01*
X020242Y012230D02*
X019522Y012230D01*
X019330Y012348D02*
X020203Y012348D01*
X020140Y012467D02*
X004920Y012467D01*
X004857Y012348D02*
X005730Y012348D01*
X005538Y012230D02*
X004818Y012230D01*
X005006Y012585D02*
X020054Y012585D01*
X019937Y012704D02*
X005123Y012704D01*
X005286Y012822D02*
X019774Y012822D01*
X019373Y012941D02*
X005687Y012941D01*
X006330Y012348D02*
X018730Y012348D01*
X018538Y012230D02*
X006522Y012230D01*
X006640Y012111D02*
X009313Y012111D01*
X009233Y011993D02*
X006705Y011993D01*
X006754Y011874D02*
X009220Y011874D01*
X009260Y011756D02*
X006781Y011756D01*
X006781Y011637D02*
X009260Y011637D01*
X009260Y011519D02*
X006781Y011519D01*
X006735Y011400D02*
X008430Y011400D01*
X008383Y011380D02*
X008310Y011307D01*
X008270Y011212D01*
X008270Y011108D01*
X008310Y011013D01*
X008310Y011012D01*
X008310Y010558D01*
X008310Y010557D01*
X008270Y010462D01*
X008270Y010358D01*
X008310Y010263D01*
X008383Y010190D01*
X008478Y010150D01*
X008582Y010150D01*
X008677Y010190D01*
X008750Y010263D01*
X008790Y010358D01*
X008790Y010462D01*
X008750Y010557D01*
X008750Y010558D01*
X008750Y011012D01*
X008750Y011013D01*
X008790Y011108D01*
X008790Y011212D01*
X008750Y011307D01*
X008677Y011380D01*
X008582Y011420D01*
X008478Y011420D01*
X008383Y011380D01*
X008299Y011282D02*
X006686Y011282D01*
X006594Y011163D02*
X008270Y011163D01*
X008296Y011045D02*
X006476Y011045D01*
X006219Y010926D02*
X008310Y010926D01*
X008310Y010808D02*
X004768Y010808D01*
X004768Y010926D02*
X005841Y010926D01*
X005584Y011045D02*
X004768Y011045D01*
X004768Y011163D02*
X005466Y011163D01*
X005374Y011282D02*
X004768Y011282D01*
X004768Y011400D02*
X005325Y011400D01*
X005279Y011519D02*
X004768Y011519D01*
X004768Y011637D02*
X005279Y011637D01*
X005279Y011756D02*
X004768Y011756D01*
X004768Y011874D02*
X005306Y011874D01*
X004768Y010689D02*
X008310Y010689D01*
X008310Y010571D02*
X004768Y010571D01*
X004768Y010452D02*
X008270Y010452D01*
X008280Y010334D02*
X004768Y010334D01*
X004768Y010215D02*
X008357Y010215D01*
X008530Y010410D02*
X008530Y011160D01*
X008630Y011400D02*
X009260Y011400D01*
X009260Y011282D02*
X008761Y011282D01*
X008790Y011163D02*
X009260Y011163D01*
X009260Y011045D02*
X008764Y011045D01*
X008750Y010926D02*
X009260Y010926D01*
X009260Y010808D02*
X008750Y010808D01*
X008750Y010689D02*
X009260Y010689D01*
X009260Y010571D02*
X008750Y010571D01*
X008790Y010452D02*
X009260Y010452D01*
X009260Y010334D02*
X008780Y010334D01*
X008703Y010215D02*
X009260Y010215D01*
X009260Y010097D02*
X004768Y010097D01*
X004768Y009978D02*
X009260Y009978D01*
X009260Y009860D02*
X004768Y009860D01*
X004768Y009741D02*
X009260Y009741D01*
X009260Y009623D02*
X004768Y009623D01*
X004768Y009504D02*
X009260Y009504D01*
X009260Y009386D02*
X007660Y009386D01*
X007658Y009387D02*
X007590Y009415D01*
X007517Y009429D01*
X007263Y009429D01*
X007010Y009429D01*
X006937Y009415D01*
X006869Y009387D01*
X006807Y009345D01*
X006754Y009293D01*
X006713Y009231D01*
X006685Y009163D01*
X006670Y009090D01*
X006670Y009053D01*
X007263Y009053D01*
X007263Y009053D01*
X006670Y009053D01*
X006670Y009016D01*
X006685Y008943D01*
X006713Y008875D01*
X006754Y008813D01*
X006807Y008760D01*
X006869Y008719D01*
X006873Y008717D01*
X006811Y008655D01*
X006769Y008553D01*
X006769Y008442D01*
X006811Y008340D01*
X006889Y008262D01*
X006992Y008220D01*
X007102Y008220D01*
X007204Y008262D01*
X007283Y008340D01*
X007325Y008442D01*
X007325Y008553D01*
X007283Y008655D01*
X007262Y008676D01*
X007263Y008676D01*
X007263Y009053D01*
X007263Y009429D01*
X007263Y009053D01*
X007263Y009053D01*
X007263Y009053D01*
X007263Y008676D01*
X007517Y008676D01*
X007590Y008691D01*
X007658Y008719D01*
X007720Y008760D01*
X007772Y008813D01*
X007814Y008875D01*
X007842Y008943D01*
X007857Y009016D01*
X007857Y009053D01*
X007857Y009090D01*
X007842Y009163D01*
X007814Y009231D01*
X007772Y009293D01*
X007720Y009345D01*
X007658Y009387D01*
X007790Y009267D02*
X009260Y009267D01*
X009260Y009149D02*
X007845Y009149D01*
X007857Y009053D02*
X007263Y009053D01*
X007263Y009053D01*
X007857Y009053D01*
X007857Y009030D02*
X009082Y009030D01*
X008991Y008912D02*
X007829Y008912D01*
X007753Y008793D02*
X008970Y008793D01*
X009005Y008675D02*
X007264Y008675D01*
X007263Y008793D02*
X007263Y008793D01*
X007263Y008912D02*
X007263Y008912D01*
X007263Y009030D02*
X007263Y009030D01*
X007263Y009149D02*
X007263Y009149D01*
X007263Y009267D02*
X007263Y009267D01*
X007263Y009386D02*
X007263Y009386D01*
X006867Y009386D02*
X004768Y009386D01*
X004768Y009267D02*
X006737Y009267D01*
X006682Y009149D02*
X004768Y009149D01*
X004768Y009030D02*
X006670Y009030D01*
X006698Y008912D02*
X004768Y008912D01*
X004768Y008793D02*
X006774Y008793D01*
X006830Y008675D02*
X004768Y008675D01*
X004768Y008556D02*
X006770Y008556D01*
X006771Y008438D02*
X004768Y008438D01*
X004768Y008319D02*
X006832Y008319D01*
X007261Y008319D02*
X009010Y008319D01*
X009010Y008201D02*
X004768Y008201D01*
X004768Y008082D02*
X009010Y008082D01*
X009010Y007964D02*
X004768Y007964D01*
X004768Y007845D02*
X009010Y007845D01*
X009010Y007727D02*
X004768Y007727D01*
X004768Y007608D02*
X009010Y007608D01*
X009010Y007490D02*
X004768Y007490D01*
X004768Y007371D02*
X009010Y007371D01*
X009010Y007253D02*
X004768Y007253D01*
X004768Y007134D02*
X009010Y007134D01*
X009010Y007016D02*
X004768Y007016D01*
X004768Y006897D02*
X009010Y006897D01*
X009010Y006779D02*
X004768Y006779D01*
X004768Y006660D02*
X009010Y006660D01*
X009010Y006541D02*
X004768Y006541D01*
X004768Y006423D02*
X006854Y006423D01*
X006889Y006458D02*
X006811Y006380D01*
X006769Y006278D01*
X006769Y006167D01*
X006811Y006065D01*
X006873Y006003D01*
X006869Y006001D01*
X006807Y005960D01*
X006754Y005907D01*
X006713Y005845D01*
X006685Y005777D01*
X006670Y005704D01*
X006670Y005667D01*
X006670Y005630D01*
X006685Y005557D01*
X006713Y005489D01*
X006754Y005427D01*
X006807Y005375D01*
X006869Y005333D01*
X006937Y005305D01*
X007010Y005291D01*
X007263Y005291D01*
X007263Y005667D01*
X006670Y005667D01*
X007263Y005667D01*
X007263Y005667D01*
X007263Y005667D01*
X007263Y006044D01*
X007262Y006044D01*
X007283Y006065D01*
X007325Y006167D01*
X007325Y006278D01*
X007283Y006380D01*
X007204Y006458D01*
X007102Y006500D01*
X006992Y006500D01*
X006889Y006458D01*
X006780Y006304D02*
X004768Y006304D01*
X004768Y006186D02*
X006769Y006186D01*
X006810Y006067D02*
X004768Y006067D01*
X004768Y005949D02*
X006796Y005949D01*
X006707Y005830D02*
X004768Y005830D01*
X004768Y005712D02*
X006672Y005712D01*
X006678Y005593D02*
X004768Y005593D01*
X004768Y005475D02*
X006722Y005475D01*
X006834Y005356D02*
X004768Y005356D01*
X004768Y005238D02*
X009010Y005238D01*
X009010Y005356D02*
X007693Y005356D01*
X007720Y005375D02*
X007772Y005427D01*
X007814Y005489D01*
X007842Y005557D01*
X007857Y005630D01*
X007857Y005667D01*
X007263Y005667D01*
X007263Y005667D01*
X007263Y005291D01*
X007517Y005291D01*
X007590Y005305D01*
X007658Y005333D01*
X007720Y005375D01*
X007805Y005475D02*
X009010Y005475D01*
X009010Y005593D02*
X007849Y005593D01*
X007857Y005667D02*
X007263Y005667D01*
X007263Y006044D01*
X007517Y006044D01*
X007590Y006029D01*
X007658Y006001D01*
X007720Y005960D01*
X007772Y005907D01*
X007814Y005845D01*
X007842Y005777D01*
X007857Y005704D01*
X007857Y005667D01*
X007855Y005712D02*
X009010Y005712D01*
X009010Y005830D02*
X007820Y005830D01*
X007731Y005949D02*
X009010Y005949D01*
X009010Y006067D02*
X007284Y006067D01*
X007263Y005949D02*
X007263Y005949D01*
X007263Y005830D02*
X007263Y005830D01*
X007263Y005712D02*
X007263Y005712D01*
X007263Y005667D02*
X007263Y005667D01*
X007263Y005593D02*
X007263Y005593D01*
X007263Y005475D02*
X007263Y005475D01*
X007263Y005356D02*
X007263Y005356D01*
X007325Y006186D02*
X009010Y006186D01*
X009010Y006304D02*
X007314Y006304D01*
X007239Y006423D02*
X009010Y006423D01*
X009730Y007360D02*
X009730Y003360D01*
X010280Y002810D01*
X010280Y001598D01*
X010530Y001348D01*
X009530Y001348D02*
X009530Y002310D01*
X009480Y002360D01*
X009480Y011910D01*
X009727Y011993D02*
X010283Y011993D01*
X010270Y011962D02*
X010310Y012057D01*
X010383Y012130D01*
X010478Y012170D01*
X010582Y012170D01*
X010677Y012130D01*
X010750Y012057D01*
X010790Y011962D01*
X010790Y011858D01*
X010750Y011763D01*
X010750Y011762D01*
X010750Y011058D01*
X010750Y011057D01*
X010790Y010962D01*
X010790Y010858D01*
X010750Y010763D01*
X010677Y010690D01*
X010582Y010650D01*
X010478Y010650D01*
X010383Y010690D01*
X010310Y010763D01*
X010270Y010858D01*
X010270Y010962D01*
X010310Y011057D01*
X010310Y011058D01*
X010310Y011762D01*
X010310Y011763D01*
X010270Y011858D01*
X010270Y011962D01*
X010270Y011874D02*
X009740Y011874D01*
X009700Y011756D02*
X010310Y011756D01*
X010310Y011637D02*
X009700Y011637D01*
X009700Y011519D02*
X010310Y011519D01*
X010310Y011400D02*
X009700Y011400D01*
X009700Y011282D02*
X010310Y011282D01*
X010310Y011163D02*
X009700Y011163D01*
X009700Y011045D02*
X010304Y011045D01*
X010270Y010926D02*
X009700Y010926D01*
X009700Y010808D02*
X010291Y010808D01*
X010384Y010689D02*
X009700Y010689D01*
X009700Y010571D02*
X020292Y010571D01*
X020292Y010689D02*
X010676Y010689D01*
X010769Y010808D02*
X020292Y010808D01*
X020292Y010926D02*
X019219Y010926D01*
X019476Y011045D02*
X020292Y011045D01*
X020292Y011163D02*
X019594Y011163D01*
X019686Y011282D02*
X020292Y011282D01*
X020292Y011400D02*
X019735Y011400D01*
X019781Y011519D02*
X020292Y011519D01*
X020292Y011637D02*
X019781Y011637D01*
X019781Y011756D02*
X020292Y011756D01*
X020292Y011874D02*
X019754Y011874D01*
X020292Y011956D02*
X020292Y002689D01*
X020062Y002689D01*
X020026Y002653D01*
X019990Y002689D01*
X019810Y002689D01*
X019810Y002716D01*
X019767Y002819D01*
X019689Y002897D01*
X019586Y002940D01*
X019474Y002940D01*
X019371Y002897D01*
X019293Y002819D01*
X019250Y002716D01*
X019250Y002689D01*
X019070Y002689D01*
X019030Y002649D01*
X019022Y002657D01*
X018985Y002678D01*
X018945Y002689D01*
X018590Y002689D01*
X018590Y001408D01*
X018470Y001408D01*
X018470Y002689D01*
X018115Y002689D01*
X018075Y002678D01*
X018038Y002657D01*
X018030Y002649D01*
X017990Y002689D01*
X017790Y002689D01*
X017790Y002712D01*
X017750Y002807D01*
X017677Y002880D01*
X017582Y002920D01*
X017478Y002920D01*
X017383Y002880D01*
X017310Y002807D01*
X017270Y002712D01*
X017270Y002689D01*
X017070Y002689D01*
X017030Y002649D01*
X016990Y002689D01*
X016790Y002689D01*
X016790Y002712D01*
X016750Y002807D01*
X016677Y002880D01*
X016582Y002920D01*
X016478Y002920D01*
X016383Y002880D01*
X016310Y002807D01*
X016270Y002712D01*
X016270Y002689D01*
X016070Y002689D01*
X016030Y002649D01*
X016000Y002679D01*
X016000Y009451D01*
X015450Y010001D01*
X015321Y010130D01*
X012928Y010130D01*
X012927Y010130D01*
X012832Y010170D01*
X012728Y010170D01*
X012633Y010130D01*
X012560Y010057D01*
X012520Y009962D01*
X012520Y009858D01*
X012560Y009763D01*
X012633Y009690D01*
X012728Y009650D01*
X012770Y009650D01*
X012770Y009630D01*
X012189Y009630D01*
X011979Y009420D01*
X011978Y009420D01*
X011883Y009380D01*
X011810Y009307D01*
X011770Y009212D01*
X011770Y009108D01*
X011810Y009013D01*
X011883Y008940D01*
X011978Y008900D01*
X012082Y008900D01*
X012177Y008940D01*
X012250Y009013D01*
X012290Y009108D01*
X012290Y009109D01*
X012371Y009190D01*
X013100Y009190D01*
X013100Y009104D01*
X013143Y009001D01*
X014000Y008144D01*
X014000Y006176D01*
X013764Y005940D01*
X011428Y005940D01*
X011500Y006013D01*
X011540Y006108D01*
X011540Y006212D01*
X011500Y006307D01*
X011427Y006380D01*
X011332Y006420D01*
X011331Y006420D01*
X011300Y006451D01*
X011300Y009612D01*
X011300Y009613D01*
X011340Y009708D01*
X011340Y009812D01*
X011300Y009907D01*
X011227Y009980D01*
X011132Y010020D01*
X011028Y010020D01*
X010933Y009980D01*
X010860Y009907D01*
X010820Y009812D01*
X010820Y009708D01*
X010860Y009613D01*
X010860Y009612D01*
X010860Y008714D01*
X010836Y008724D01*
X010724Y008724D01*
X010621Y008682D01*
X010543Y008603D01*
X010500Y008500D01*
X010500Y007870D01*
X010466Y007870D01*
X010450Y007907D01*
X010377Y007980D01*
X010340Y007996D01*
X010394Y007964D02*
X010500Y007964D01*
X010500Y008082D02*
X010332Y008082D01*
X010257Y008201D02*
X010500Y008201D01*
X010500Y008319D02*
X009700Y008319D01*
X009700Y008201D02*
X009903Y008201D01*
X009828Y008082D02*
X009700Y008082D01*
X009700Y007964D02*
X009760Y007964D01*
X009760Y007845D02*
X009700Y007845D01*
X009700Y007727D02*
X009760Y007727D01*
X009980Y007910D02*
X010080Y008010D01*
X009980Y007910D02*
X009980Y003460D01*
X010530Y002910D01*
X010703Y003105D02*
X011310Y003105D01*
X011310Y003223D02*
X010528Y003223D01*
X010409Y003342D02*
X011310Y003342D01*
X011310Y003460D02*
X010291Y003460D01*
X010200Y003579D02*
X011310Y003579D01*
X011310Y003697D02*
X010200Y003697D01*
X010200Y003816D02*
X011310Y003816D01*
X011280Y003934D02*
X010200Y003934D01*
X010200Y004053D02*
X011270Y004053D01*
X011324Y004171D02*
X010200Y004171D01*
X010200Y004290D02*
X011520Y004290D01*
X011561Y004408D02*
X010200Y004408D01*
X010200Y004764D02*
X012765Y004764D01*
X012646Y004882D02*
X010200Y004882D01*
X010200Y005001D02*
X010678Y005001D01*
X010559Y005119D02*
X010200Y005119D01*
X010200Y005238D02*
X010441Y005238D01*
X010322Y005356D02*
X010200Y005356D01*
X010200Y005475D02*
X010204Y005475D01*
X010480Y005860D02*
X010980Y005360D01*
X012830Y005360D01*
X013280Y004560D02*
X013280Y002160D01*
X013530Y001910D01*
X013530Y001348D01*
X014530Y001348D02*
X014530Y008660D01*
X014030Y009160D01*
X014280Y009410D02*
X012280Y009410D01*
X012030Y009160D01*
X011793Y009267D02*
X011300Y009267D01*
X011300Y009149D02*
X011770Y009149D01*
X011802Y009030D02*
X011300Y009030D01*
X011300Y008912D02*
X011951Y008912D01*
X012109Y008912D02*
X013233Y008912D01*
X013131Y009030D02*
X012258Y009030D01*
X012330Y009149D02*
X013100Y009149D01*
X013351Y008793D02*
X011300Y008793D01*
X011300Y008675D02*
X013470Y008675D01*
X013588Y008556D02*
X011300Y008556D01*
X011300Y008438D02*
X013707Y008438D01*
X013825Y008319D02*
X011300Y008319D01*
X011300Y008201D02*
X013944Y008201D01*
X014000Y008082D02*
X011300Y008082D01*
X011300Y007964D02*
X014000Y007964D01*
X014000Y007845D02*
X011300Y007845D01*
X011300Y007727D02*
X014000Y007727D01*
X014000Y007608D02*
X011300Y007608D01*
X011300Y007490D02*
X014000Y007490D01*
X014000Y007371D02*
X011300Y007371D01*
X011300Y007253D02*
X014000Y007253D01*
X014000Y007134D02*
X011300Y007134D01*
X011300Y007016D02*
X014000Y007016D01*
X014000Y006897D02*
X011300Y006897D01*
X011300Y006779D02*
X014000Y006779D01*
X014000Y006660D02*
X011300Y006660D01*
X011300Y006541D02*
X014000Y006541D01*
X014000Y006423D02*
X011328Y006423D01*
X011502Y006304D02*
X014000Y006304D01*
X014000Y006186D02*
X011540Y006186D01*
X011523Y006067D02*
X013892Y006067D01*
X013773Y005949D02*
X011437Y005949D01*
X011280Y006160D02*
X011080Y006360D01*
X011080Y009760D01*
X010840Y009860D02*
X009700Y009860D01*
X009700Y009978D02*
X010930Y009978D01*
X010820Y009741D02*
X009700Y009741D01*
X009700Y009623D02*
X010856Y009623D01*
X010860Y009504D02*
X009700Y009504D01*
X009700Y009386D02*
X010860Y009386D01*
X010860Y009267D02*
X009700Y009267D01*
X009700Y009149D02*
X010860Y009149D01*
X010860Y009030D02*
X009700Y009030D01*
X009700Y008912D02*
X010860Y008912D01*
X010860Y008793D02*
X009700Y008793D01*
X009700Y008675D02*
X010614Y008675D01*
X010523Y008556D02*
X009700Y008556D01*
X009700Y008438D02*
X010500Y008438D01*
X010480Y007610D02*
X010480Y005860D01*
X009010Y005119D02*
X004768Y005119D01*
X004768Y005001D02*
X009010Y005001D01*
X009010Y004882D02*
X004768Y004882D01*
X004768Y004764D02*
X009010Y004764D01*
X009010Y004645D02*
X004768Y004645D01*
X004768Y004527D02*
X009010Y004527D01*
X009010Y004408D02*
X004768Y004408D01*
X004768Y004290D02*
X009010Y004290D01*
X009010Y004171D02*
X004768Y004171D01*
X004768Y004053D02*
X009010Y004053D01*
X009010Y003934D02*
X004768Y003934D01*
X004768Y003816D02*
X009010Y003816D01*
X009010Y003697D02*
X004768Y003697D01*
X004768Y003579D02*
X009010Y003579D01*
X009010Y003460D02*
X004768Y003460D01*
X004768Y003342D02*
X009010Y003342D01*
X009010Y003223D02*
X004768Y003223D01*
X004768Y003105D02*
X009010Y003105D01*
X008980Y002986D02*
X004768Y002986D01*
X004768Y002868D02*
X005342Y002868D01*
X005264Y002749D02*
X004768Y002749D01*
X005718Y002868D02*
X007370Y002868D01*
X007286Y002749D02*
X005796Y002749D01*
X006470Y002631D02*
X006590Y002631D01*
X006590Y002512D02*
X006470Y002512D01*
X006470Y002394D02*
X006590Y002394D01*
X006590Y002275D02*
X006470Y002275D01*
X006470Y002157D02*
X006590Y002157D01*
X006590Y002038D02*
X006470Y002038D01*
X006470Y001920D02*
X006590Y001920D01*
X006590Y001801D02*
X006470Y001801D01*
X006470Y001683D02*
X006590Y001683D01*
X006590Y001564D02*
X006470Y001564D01*
X006470Y001446D02*
X006590Y001446D01*
X007530Y001348D02*
X007530Y002660D01*
X007774Y002749D02*
X008286Y002749D01*
X008370Y002868D02*
X007690Y002868D01*
X008530Y002660D02*
X008530Y001348D01*
X008774Y002749D02*
X009023Y002749D01*
X008970Y002868D02*
X008690Y002868D01*
X009230Y002910D02*
X009230Y008810D01*
X009010Y008556D02*
X007324Y008556D01*
X007323Y008438D02*
X009010Y008438D01*
X009700Y010097D02*
X012599Y010097D01*
X012527Y009978D02*
X011230Y009978D01*
X011320Y009860D02*
X012520Y009860D01*
X012581Y009741D02*
X011340Y009741D01*
X011304Y009623D02*
X012181Y009623D01*
X012063Y009504D02*
X011300Y009504D01*
X011300Y009386D02*
X011895Y009386D01*
X012780Y009910D02*
X015230Y009910D01*
X015780Y009360D01*
X015780Y001598D01*
X015530Y001348D01*
X016530Y001348D02*
X016530Y002660D01*
X016286Y002749D02*
X016000Y002749D01*
X016000Y002868D02*
X016370Y002868D01*
X016690Y002868D02*
X017370Y002868D01*
X017286Y002749D02*
X016774Y002749D01*
X017530Y002660D02*
X017530Y001348D01*
X018470Y001446D02*
X018590Y001446D01*
X018590Y001564D02*
X018470Y001564D01*
X018470Y001683D02*
X018590Y001683D01*
X018590Y001801D02*
X018470Y001801D01*
X018470Y001920D02*
X018590Y001920D01*
X018590Y002038D02*
X018470Y002038D01*
X018470Y002157D02*
X018590Y002157D01*
X018590Y002275D02*
X018470Y002275D01*
X018470Y002394D02*
X018590Y002394D01*
X018590Y002512D02*
X018470Y002512D01*
X018470Y002631D02*
X018590Y002631D01*
X019264Y002749D02*
X017774Y002749D01*
X017690Y002868D02*
X019342Y002868D01*
X019718Y002868D02*
X020292Y002868D01*
X020292Y002986D02*
X016000Y002986D01*
X016000Y003105D02*
X020292Y003105D01*
X020292Y003223D02*
X016000Y003223D01*
X016000Y003342D02*
X020292Y003342D01*
X020292Y003460D02*
X016000Y003460D01*
X016000Y003579D02*
X020292Y003579D01*
X020292Y003697D02*
X016000Y003697D01*
X016000Y003816D02*
X020292Y003816D01*
X020292Y003934D02*
X016000Y003934D01*
X016000Y004053D02*
X020292Y004053D01*
X020292Y004171D02*
X016000Y004171D01*
X016000Y004290D02*
X020292Y004290D01*
X020292Y004408D02*
X016000Y004408D01*
X016000Y004527D02*
X020292Y004527D01*
X020292Y004645D02*
X016000Y004645D01*
X016000Y004764D02*
X020292Y004764D01*
X020292Y004882D02*
X016000Y004882D01*
X016000Y005001D02*
X020292Y005001D01*
X020292Y005119D02*
X016000Y005119D01*
X016000Y005238D02*
X020292Y005238D01*
X020292Y005356D02*
X016000Y005356D01*
X016000Y005475D02*
X020292Y005475D01*
X020292Y005593D02*
X016000Y005593D01*
X016000Y005712D02*
X020292Y005712D01*
X020292Y005830D02*
X016000Y005830D01*
X016000Y005949D02*
X020292Y005949D01*
X020292Y006067D02*
X016000Y006067D01*
X016000Y006186D02*
X020292Y006186D01*
X020292Y006304D02*
X016000Y006304D01*
X016000Y006423D02*
X020292Y006423D01*
X020292Y006541D02*
X016000Y006541D01*
X016000Y006660D02*
X019691Y006660D01*
X019683Y006663D02*
X019811Y006610D01*
X019949Y006610D01*
X020077Y006663D01*
X020174Y006761D01*
X020227Y006888D01*
X020227Y007026D01*
X020174Y007154D01*
X020077Y007251D01*
X019949Y007304D01*
X019811Y007304D01*
X019683Y007251D01*
X019586Y007154D01*
X019533Y007026D01*
X019533Y006888D01*
X019586Y006761D01*
X019683Y006663D01*
X019578Y006779D02*
X016000Y006779D01*
X016000Y006897D02*
X019533Y006897D01*
X019533Y007016D02*
X016000Y007016D01*
X016000Y007134D02*
X019578Y007134D01*
X019686Y007253D02*
X016000Y007253D01*
X016000Y007371D02*
X020292Y007371D01*
X020292Y007253D02*
X020074Y007253D01*
X020182Y007134D02*
X020292Y007134D01*
X020292Y007016D02*
X020227Y007016D01*
X020227Y006897D02*
X020292Y006897D01*
X020292Y006779D02*
X020182Y006779D01*
X020292Y006660D02*
X020069Y006660D01*
X020292Y007490D02*
X016000Y007490D01*
X016000Y007608D02*
X019644Y007608D01*
X019683Y007569D02*
X019811Y007516D01*
X019949Y007516D01*
X020077Y007569D01*
X020174Y007666D01*
X020227Y007794D01*
X020227Y007932D01*
X020174Y008059D01*
X020077Y008157D01*
X019949Y008210D01*
X019811Y008210D01*
X019683Y008157D01*
X019586Y008059D01*
X019533Y007932D01*
X019533Y007794D01*
X019586Y007666D01*
X019683Y007569D01*
X019561Y007727D02*
X016000Y007727D01*
X016000Y007845D02*
X019533Y007845D01*
X019546Y007964D02*
X016000Y007964D01*
X016000Y008082D02*
X019609Y008082D01*
X019789Y008201D02*
X016000Y008201D01*
X016000Y008319D02*
X020292Y008319D01*
X020292Y008201D02*
X019971Y008201D01*
X020151Y008082D02*
X020292Y008082D01*
X020292Y007964D02*
X020214Y007964D01*
X020227Y007845D02*
X020292Y007845D01*
X020292Y007727D02*
X020199Y007727D01*
X020116Y007608D02*
X020292Y007608D01*
X020292Y008438D02*
X016000Y008438D01*
X016000Y008556D02*
X020292Y008556D01*
X020292Y008675D02*
X016000Y008675D01*
X016000Y008793D02*
X020292Y008793D01*
X020292Y008912D02*
X016000Y008912D01*
X016000Y009030D02*
X020292Y009030D01*
X020292Y009149D02*
X016000Y009149D01*
X016000Y009267D02*
X020292Y009267D01*
X020292Y009386D02*
X016000Y009386D01*
X015947Y009504D02*
X020292Y009504D01*
X020292Y009623D02*
X015829Y009623D01*
X015710Y009741D02*
X020292Y009741D01*
X020292Y009860D02*
X015592Y009860D01*
X015473Y009978D02*
X020292Y009978D01*
X020292Y010097D02*
X015355Y010097D01*
X015130Y009660D02*
X013430Y009660D01*
X013030Y009660D01*
X014280Y009410D02*
X014780Y008910D01*
X014780Y002910D01*
X015030Y003160D02*
X015030Y009060D01*
X015280Y009160D02*
X015030Y009410D01*
X015130Y009660D02*
X015530Y009260D01*
X015530Y002910D01*
X015280Y003410D02*
X015280Y009160D01*
X018374Y011282D02*
X010750Y011282D01*
X010750Y011400D02*
X018325Y011400D01*
X018279Y011519D02*
X010750Y011519D01*
X010750Y011637D02*
X018279Y011637D01*
X018279Y011756D02*
X010750Y011756D01*
X010790Y011874D02*
X018306Y011874D01*
X018355Y011993D02*
X010777Y011993D01*
X010697Y012111D02*
X018420Y012111D01*
X018466Y011163D02*
X010750Y011163D01*
X010756Y011045D02*
X018584Y011045D01*
X018841Y010926D02*
X010790Y010926D01*
X010530Y010910D02*
X010530Y011910D01*
X010363Y012111D02*
X009647Y012111D01*
X009700Y010452D02*
X020292Y010452D01*
X020292Y010334D02*
X009700Y010334D01*
X009700Y010215D02*
X020292Y010215D01*
X011310Y002986D02*
X010780Y002986D01*
X010790Y002868D02*
X011310Y002868D01*
X011310Y002749D02*
X010737Y002749D01*
X019796Y002749D02*
X020292Y002749D01*
D18*
X019530Y002660D02*
X019530Y001348D01*
X013830Y003710D02*
X013830Y005460D01*
X013630Y005660D01*
X013830Y005660D01*
X013830Y005460D01*
X013830Y005660D02*
X013880Y005660D01*
X014280Y006060D01*
X014280Y006869D01*
X014280Y008260D01*
X013380Y009160D01*
X010780Y008444D02*
X010780Y006410D01*
X010780Y006010D01*
X011130Y005660D01*
X011580Y005660D01*
X012780Y005660D01*
X013630Y005660D01*
X005530Y002660D02*
X005530Y001348D01*
M02*
