G75*
G70*
%OFA0B0*%
%FSLAX24Y24*%
%IPPOS*%
%LPD*%
%AMOC8*
5,1,8,0,0,1.08239X$1,22.5*
%
%ADD10C,0.0100*%
%ADD11R,0.0787X0.2362*%
%ADD12R,0.0394X0.2362*%
%ADD13C,0.0000*%
D10*
X004558Y001364D02*
X004558Y011956D01*
X004560Y012023D01*
X004566Y012090D01*
X004575Y012157D01*
X004588Y012223D01*
X004605Y012288D01*
X004625Y012352D01*
X004649Y012415D01*
X004677Y012477D01*
X004708Y012536D01*
X004742Y012594D01*
X004779Y012650D01*
X004820Y012704D01*
X004863Y012756D01*
X004909Y012805D01*
X004958Y012851D01*
X005010Y012894D01*
X005064Y012935D01*
X005120Y012972D01*
X005178Y013006D01*
X005237Y013037D01*
X005299Y013065D01*
X005362Y013089D01*
X005426Y013109D01*
X005491Y013126D01*
X005557Y013139D01*
X005624Y013148D01*
X005691Y013154D01*
X005758Y013156D01*
X019302Y013156D01*
X019369Y013154D01*
X019436Y013148D01*
X019503Y013139D01*
X019569Y013126D01*
X019634Y013109D01*
X019698Y013089D01*
X019761Y013065D01*
X019823Y013037D01*
X019882Y013006D01*
X019940Y012972D01*
X019996Y012935D01*
X020050Y012894D01*
X020102Y012851D01*
X020151Y012805D01*
X020197Y012756D01*
X020240Y012704D01*
X020281Y012650D01*
X020318Y012594D01*
X020352Y012536D01*
X020383Y012477D01*
X020411Y012415D01*
X020435Y012352D01*
X020455Y012288D01*
X020472Y012223D01*
X020485Y012157D01*
X020494Y012090D01*
X020500Y012023D01*
X020502Y011956D01*
X020502Y001364D01*
X020500Y001297D01*
X020494Y001230D01*
X020485Y001163D01*
X020472Y001097D01*
X020455Y001032D01*
X020435Y000968D01*
X020411Y000905D01*
X020383Y000843D01*
X020352Y000784D01*
X020318Y000726D01*
X020281Y000670D01*
X020240Y000616D01*
X020197Y000564D01*
X020151Y000515D01*
X020102Y000469D01*
X020050Y000426D01*
X019996Y000385D01*
X019940Y000348D01*
X019882Y000314D01*
X019823Y000283D01*
X019761Y000255D01*
X019698Y000231D01*
X019634Y000211D01*
X019569Y000194D01*
X019503Y000181D01*
X019436Y000172D01*
X019369Y000166D01*
X019302Y000164D01*
X005758Y000164D01*
X005691Y000166D01*
X005624Y000172D01*
X005557Y000181D01*
X005491Y000194D01*
X005426Y000211D01*
X005362Y000231D01*
X005299Y000255D01*
X005237Y000283D01*
X005178Y000314D01*
X005120Y000348D01*
X005064Y000385D01*
X005010Y000426D01*
X004958Y000469D01*
X004909Y000515D01*
X004863Y000564D01*
X004820Y000616D01*
X004779Y000670D01*
X004742Y000726D01*
X004708Y000784D01*
X004677Y000843D01*
X004649Y000905D01*
X004625Y000968D01*
X004605Y001032D01*
X004588Y001097D01*
X004575Y001163D01*
X004566Y001230D01*
X004560Y001297D01*
X004558Y001364D01*
D11*
X005530Y001348D03*
X006530Y001348D03*
X007530Y001348D03*
X008530Y001348D03*
X009530Y001348D03*
X010530Y001348D03*
X011530Y001348D03*
X012530Y001348D03*
X013530Y001348D03*
X014530Y001348D03*
X015530Y001348D03*
X016530Y001348D03*
X017530Y001348D03*
X018530Y001348D03*
X019530Y001348D03*
D12*
X020325Y001348D03*
X004735Y001348D03*
D13*
X006929Y006222D02*
X006931Y006243D01*
X006937Y006263D01*
X006946Y006283D01*
X006958Y006300D01*
X006973Y006314D01*
X006991Y006326D01*
X007011Y006334D01*
X007031Y006339D01*
X007052Y006340D01*
X007073Y006337D01*
X007093Y006331D01*
X007112Y006320D01*
X007129Y006307D01*
X007142Y006291D01*
X007153Y006273D01*
X007161Y006253D01*
X007165Y006233D01*
X007165Y006211D01*
X007161Y006191D01*
X007153Y006171D01*
X007142Y006153D01*
X007129Y006137D01*
X007112Y006124D01*
X007093Y006113D01*
X007073Y006107D01*
X007052Y006104D01*
X007031Y006105D01*
X007011Y006110D01*
X006991Y006118D01*
X006973Y006130D01*
X006958Y006144D01*
X006946Y006161D01*
X006937Y006181D01*
X006931Y006201D01*
X006929Y006222D01*
X006929Y008498D02*
X006931Y008519D01*
X006937Y008539D01*
X006946Y008559D01*
X006958Y008576D01*
X006973Y008590D01*
X006991Y008602D01*
X007011Y008610D01*
X007031Y008615D01*
X007052Y008616D01*
X007073Y008613D01*
X007093Y008607D01*
X007112Y008596D01*
X007129Y008583D01*
X007142Y008567D01*
X007153Y008549D01*
X007161Y008529D01*
X007165Y008509D01*
X007165Y008487D01*
X007161Y008467D01*
X007153Y008447D01*
X007142Y008429D01*
X007129Y008413D01*
X007112Y008400D01*
X007093Y008389D01*
X007073Y008383D01*
X007052Y008380D01*
X007031Y008381D01*
X007011Y008386D01*
X006991Y008394D01*
X006973Y008406D01*
X006958Y008420D01*
X006946Y008437D01*
X006937Y008457D01*
X006931Y008477D01*
X006929Y008498D01*
X005439Y011660D02*
X005441Y011708D01*
X005447Y011756D01*
X005457Y011803D01*
X005470Y011849D01*
X005488Y011894D01*
X005508Y011938D01*
X005533Y011980D01*
X005561Y012019D01*
X005591Y012056D01*
X005625Y012090D01*
X005662Y012122D01*
X005700Y012151D01*
X005741Y012176D01*
X005784Y012198D01*
X005829Y012216D01*
X005875Y012230D01*
X005922Y012241D01*
X005970Y012248D01*
X006018Y012251D01*
X006066Y012250D01*
X006114Y012245D01*
X006162Y012236D01*
X006208Y012224D01*
X006253Y012207D01*
X006297Y012187D01*
X006339Y012164D01*
X006379Y012137D01*
X006417Y012107D01*
X006452Y012074D01*
X006484Y012038D01*
X006514Y012000D01*
X006540Y011959D01*
X006562Y011916D01*
X006582Y011872D01*
X006597Y011827D01*
X006609Y011780D01*
X006617Y011732D01*
X006621Y011684D01*
X006621Y011636D01*
X006617Y011588D01*
X006609Y011540D01*
X006597Y011493D01*
X006582Y011448D01*
X006562Y011404D01*
X006540Y011361D01*
X006514Y011320D01*
X006484Y011282D01*
X006452Y011246D01*
X006417Y011213D01*
X006379Y011183D01*
X006339Y011156D01*
X006297Y011133D01*
X006253Y011113D01*
X006208Y011096D01*
X006162Y011084D01*
X006114Y011075D01*
X006066Y011070D01*
X006018Y011069D01*
X005970Y011072D01*
X005922Y011079D01*
X005875Y011090D01*
X005829Y011104D01*
X005784Y011122D01*
X005741Y011144D01*
X005700Y011169D01*
X005662Y011198D01*
X005625Y011230D01*
X005591Y011264D01*
X005561Y011301D01*
X005533Y011340D01*
X005508Y011382D01*
X005488Y011426D01*
X005470Y011471D01*
X005457Y011517D01*
X005447Y011564D01*
X005441Y011612D01*
X005439Y011660D01*
X018439Y011660D02*
X018441Y011708D01*
X018447Y011756D01*
X018457Y011803D01*
X018470Y011849D01*
X018488Y011894D01*
X018508Y011938D01*
X018533Y011980D01*
X018561Y012019D01*
X018591Y012056D01*
X018625Y012090D01*
X018662Y012122D01*
X018700Y012151D01*
X018741Y012176D01*
X018784Y012198D01*
X018829Y012216D01*
X018875Y012230D01*
X018922Y012241D01*
X018970Y012248D01*
X019018Y012251D01*
X019066Y012250D01*
X019114Y012245D01*
X019162Y012236D01*
X019208Y012224D01*
X019253Y012207D01*
X019297Y012187D01*
X019339Y012164D01*
X019379Y012137D01*
X019417Y012107D01*
X019452Y012074D01*
X019484Y012038D01*
X019514Y012000D01*
X019540Y011959D01*
X019562Y011916D01*
X019582Y011872D01*
X019597Y011827D01*
X019609Y011780D01*
X019617Y011732D01*
X019621Y011684D01*
X019621Y011636D01*
X019617Y011588D01*
X019609Y011540D01*
X019597Y011493D01*
X019582Y011448D01*
X019562Y011404D01*
X019540Y011361D01*
X019514Y011320D01*
X019484Y011282D01*
X019452Y011246D01*
X019417Y011213D01*
X019379Y011183D01*
X019339Y011156D01*
X019297Y011133D01*
X019253Y011113D01*
X019208Y011096D01*
X019162Y011084D01*
X019114Y011075D01*
X019066Y011070D01*
X019018Y011069D01*
X018970Y011072D01*
X018922Y011079D01*
X018875Y011090D01*
X018829Y011104D01*
X018784Y011122D01*
X018741Y011144D01*
X018700Y011169D01*
X018662Y011198D01*
X018625Y011230D01*
X018591Y011264D01*
X018561Y011301D01*
X018533Y011340D01*
X018508Y011382D01*
X018488Y011426D01*
X018470Y011471D01*
X018457Y011517D01*
X018447Y011564D01*
X018441Y011612D01*
X018439Y011660D01*
X019693Y007863D02*
X019695Y007890D01*
X019701Y007916D01*
X019710Y007941D01*
X019723Y007964D01*
X019739Y007985D01*
X019758Y008004D01*
X019779Y008020D01*
X019802Y008033D01*
X019827Y008042D01*
X019853Y008048D01*
X019880Y008050D01*
X019907Y008048D01*
X019933Y008042D01*
X019958Y008033D01*
X019981Y008020D01*
X020002Y008004D01*
X020021Y007985D01*
X020037Y007964D01*
X020050Y007941D01*
X020059Y007916D01*
X020065Y007890D01*
X020067Y007863D01*
X020065Y007836D01*
X020059Y007810D01*
X020050Y007785D01*
X020037Y007762D01*
X020021Y007741D01*
X020002Y007722D01*
X019981Y007706D01*
X019958Y007693D01*
X019933Y007684D01*
X019907Y007678D01*
X019880Y007676D01*
X019853Y007678D01*
X019827Y007684D01*
X019802Y007693D01*
X019779Y007706D01*
X019758Y007722D01*
X019739Y007741D01*
X019723Y007762D01*
X019710Y007785D01*
X019701Y007810D01*
X019695Y007836D01*
X019693Y007863D01*
X019693Y006957D02*
X019695Y006984D01*
X019701Y007010D01*
X019710Y007035D01*
X019723Y007058D01*
X019739Y007079D01*
X019758Y007098D01*
X019779Y007114D01*
X019802Y007127D01*
X019827Y007136D01*
X019853Y007142D01*
X019880Y007144D01*
X019907Y007142D01*
X019933Y007136D01*
X019958Y007127D01*
X019981Y007114D01*
X020002Y007098D01*
X020021Y007079D01*
X020037Y007058D01*
X020050Y007035D01*
X020059Y007010D01*
X020065Y006984D01*
X020067Y006957D01*
X020065Y006930D01*
X020059Y006904D01*
X020050Y006879D01*
X020037Y006856D01*
X020021Y006835D01*
X020002Y006816D01*
X019981Y006800D01*
X019958Y006787D01*
X019933Y006778D01*
X019907Y006772D01*
X019880Y006770D01*
X019853Y006772D01*
X019827Y006778D01*
X019802Y006787D01*
X019779Y006800D01*
X019758Y006816D01*
X019739Y006835D01*
X019723Y006856D01*
X019710Y006879D01*
X019701Y006904D01*
X019695Y006930D01*
X019693Y006957D01*
M02*
