G75*
G70*
%OFA0B0*%
%FSLAX24Y24*%
%IPPOS*%
%LPD*%
%AMOC8*
5,1,8,0,0,1.08239X$1,22.5*
%
%ADD10C,0.0080*%
%ADD11C,0.0100*%
%ADD12C,0.0000*%
%ADD13C,0.0040*%
%ADD14R,0.0089X0.0006*%
%ADD15R,0.0094X0.0006*%
%ADD16R,0.0130X0.0006*%
%ADD17R,0.0106X0.0006*%
%ADD18R,0.0201X0.0006*%
%ADD19R,0.0136X0.0006*%
%ADD20R,0.1742X0.0006*%
%ADD21R,0.0154X0.0006*%
%ADD22R,0.0112X0.0006*%
%ADD23R,0.0219X0.0006*%
%ADD24R,0.0165X0.0006*%
%ADD25R,0.1748X0.0006*%
%ADD26R,0.0177X0.0006*%
%ADD27R,0.0100X0.0006*%
%ADD28R,0.0236X0.0006*%
%ADD29R,0.0189X0.0006*%
%ADD30R,0.0195X0.0006*%
%ADD31R,0.0248X0.0006*%
%ADD32R,0.0207X0.0006*%
%ADD33R,0.0213X0.0006*%
%ADD34R,0.0260X0.0006*%
%ADD35R,0.0224X0.0006*%
%ADD36R,0.0266X0.0006*%
%ADD37R,0.0278X0.0006*%
%ADD38R,0.0254X0.0006*%
%ADD39R,0.0283X0.0006*%
%ADD40R,0.0289X0.0006*%
%ADD41R,0.0272X0.0006*%
%ADD42R,0.0295X0.0006*%
%ADD43R,0.0301X0.0006*%
%ADD44R,0.0307X0.0006*%
%ADD45R,0.0313X0.0006*%
%ADD46R,0.0319X0.0006*%
%ADD47R,0.0148X0.0006*%
%ADD48R,0.0159X0.0006*%
%ADD49R,0.0124X0.0006*%
%ADD50R,0.0118X0.0006*%
%ADD51R,0.0242X0.0006*%
%ADD52R,0.0337X0.0006*%
%ADD53R,0.0331X0.0006*%
%ADD54R,0.0325X0.0006*%
%ADD55R,0.0142X0.0006*%
%ADD56R,0.0183X0.0006*%
%ADD57R,0.0230X0.0006*%
%ADD58R,0.0419X0.0006*%
%ADD59R,0.0425X0.0006*%
%ADD60R,0.0171X0.0006*%
%ADD61R,0.0083X0.0006*%
%ADD62R,0.0041X0.0006*%
%ADD63R,0.0047X0.0006*%
%ADD64R,0.1022X0.0006*%
%ADD65R,0.0980X0.0006*%
%ADD66R,0.0957X0.0006*%
%ADD67R,0.0933X0.0006*%
%ADD68R,0.0921X0.0006*%
%ADD69R,0.0904X0.0006*%
%ADD70R,0.0892X0.0006*%
%ADD71R,0.0886X0.0006*%
%ADD72R,0.0874X0.0006*%
%ADD73R,0.0868X0.0006*%
%ADD74R,0.0856X0.0006*%
%ADD75R,0.0850X0.0006*%
%ADD76R,0.0844X0.0006*%
%ADD77R,0.0839X0.0006*%
%ADD78R,0.0833X0.0006*%
%ADD79R,0.0827X0.0006*%
%ADD80R,0.0071X0.0006*%
%ADD81R,0.0862X0.0006*%
%ADD82R,0.0880X0.0006*%
%ADD83R,0.0898X0.0006*%
%ADD84R,0.0915X0.0006*%
%ADD85R,0.0927X0.0006*%
%ADD86R,0.0945X0.0006*%
%ADD87R,0.0969X0.0006*%
%ADD88R,0.0998X0.0006*%
D10*
X010215Y007160D02*
X010495Y007160D01*
X010285Y007370D01*
X010285Y006950D01*
X010676Y007020D02*
X010676Y007370D01*
X010956Y007370D02*
X010956Y007020D01*
X010886Y006950D01*
X010746Y006950D01*
X010676Y007020D01*
X011136Y006950D02*
X011416Y006950D01*
X011136Y007230D01*
X011136Y007300D01*
X011206Y007370D01*
X011346Y007370D01*
X011416Y007300D01*
X011596Y007300D02*
X011596Y007230D01*
X011666Y007160D01*
X011596Y007090D01*
X011596Y007020D01*
X011666Y006950D01*
X011807Y006950D01*
X011877Y007020D01*
X011737Y007160D02*
X011666Y007160D01*
X011596Y007300D02*
X011666Y007370D01*
X011807Y007370D01*
X011877Y007300D01*
X012517Y007160D02*
X012517Y007020D01*
X012587Y006950D01*
X012727Y006950D01*
X012797Y007020D01*
X012797Y007160D01*
X012727Y007230D01*
X012587Y007230D01*
X012517Y007160D01*
X012978Y007160D02*
X012978Y006950D01*
X012978Y007160D02*
X013048Y007230D01*
X013258Y007230D01*
X013258Y006950D01*
X013425Y006950D02*
X013565Y006950D01*
X013495Y006950D02*
X013495Y007230D01*
X013565Y007230D01*
X013495Y007370D02*
X013495Y007440D01*
X013745Y007230D02*
X013745Y006950D01*
X013955Y006950D01*
X014025Y007020D01*
X014025Y007230D01*
X014205Y007230D02*
X014415Y007230D01*
X014486Y007160D01*
X014486Y007020D01*
X014415Y006950D01*
X014205Y006950D01*
X014205Y007370D01*
X014659Y007230D02*
X014729Y007230D01*
X014869Y007090D01*
X014869Y006950D02*
X014869Y007230D01*
X015049Y007160D02*
X015049Y006950D01*
X015260Y006950D01*
X015330Y007020D01*
X015260Y007090D01*
X015049Y007090D01*
X015049Y007160D02*
X015119Y007230D01*
X015260Y007230D01*
X015510Y007300D02*
X015580Y007370D01*
X015720Y007370D01*
X015790Y007300D01*
X015790Y007020D01*
X015720Y006950D01*
X015580Y006950D01*
X015510Y007020D01*
X015630Y006420D02*
X015840Y006420D01*
X015840Y006000D01*
X015630Y006000D01*
X015560Y006070D01*
X015560Y006350D01*
X015630Y006420D01*
X015380Y006210D02*
X015310Y006280D01*
X015169Y006280D01*
X015099Y006210D01*
X015099Y006140D01*
X015380Y006140D01*
X015380Y006070D02*
X015380Y006210D01*
X015380Y006070D02*
X015310Y006000D01*
X015169Y006000D01*
X014919Y006070D02*
X014919Y006210D01*
X014849Y006280D01*
X014639Y006280D01*
X014639Y006000D02*
X014849Y006000D01*
X014919Y006070D01*
X013998Y006000D02*
X013718Y006000D01*
X013858Y006000D02*
X013858Y006420D01*
X013998Y006280D01*
X013538Y006280D02*
X013538Y006350D01*
X013468Y006420D01*
X013328Y006420D01*
X013258Y006350D01*
X013258Y006280D01*
X013328Y006210D01*
X013468Y006210D01*
X013538Y006280D01*
X013468Y006210D02*
X013538Y006140D01*
X013538Y006070D01*
X013468Y006000D01*
X013328Y006000D01*
X013258Y006070D01*
X013258Y006140D01*
X013328Y006210D01*
X013008Y006070D02*
X013008Y006000D01*
X012938Y006000D01*
X012938Y006070D01*
X013008Y006070D01*
X012938Y006000D02*
X013078Y005860D01*
X012310Y006000D02*
X012030Y006280D01*
X012030Y006350D01*
X012100Y006420D01*
X012240Y006420D01*
X012310Y006350D01*
X011850Y006350D02*
X011780Y006420D01*
X011640Y006420D01*
X011570Y006350D01*
X011850Y006070D01*
X011780Y006000D01*
X011640Y006000D01*
X011570Y006070D01*
X011570Y006350D01*
X011390Y006280D02*
X011249Y006420D01*
X011249Y006000D01*
X011109Y006000D02*
X011390Y006000D01*
X010929Y006070D02*
X010929Y006140D01*
X010859Y006210D01*
X010719Y006210D01*
X010649Y006140D01*
X010649Y006070D01*
X010719Y006000D01*
X010859Y006000D01*
X010929Y006070D01*
X010859Y006210D02*
X010929Y006280D01*
X010929Y006350D01*
X010859Y006420D01*
X010719Y006420D01*
X010649Y006350D01*
X010649Y006280D01*
X010719Y006210D01*
X011850Y006070D02*
X011850Y006350D01*
X012030Y006000D02*
X012310Y006000D01*
D11*
X004558Y001364D02*
X004558Y011956D01*
X004560Y012023D01*
X004566Y012090D01*
X004575Y012157D01*
X004588Y012223D01*
X004605Y012288D01*
X004625Y012352D01*
X004649Y012415D01*
X004677Y012477D01*
X004708Y012536D01*
X004742Y012594D01*
X004779Y012650D01*
X004820Y012704D01*
X004863Y012756D01*
X004909Y012805D01*
X004958Y012851D01*
X005010Y012894D01*
X005064Y012935D01*
X005120Y012972D01*
X005178Y013006D01*
X005237Y013037D01*
X005299Y013065D01*
X005362Y013089D01*
X005426Y013109D01*
X005491Y013126D01*
X005557Y013139D01*
X005624Y013148D01*
X005691Y013154D01*
X005758Y013156D01*
X019302Y013156D01*
X019369Y013154D01*
X019436Y013148D01*
X019503Y013139D01*
X019569Y013126D01*
X019634Y013109D01*
X019698Y013089D01*
X019761Y013065D01*
X019823Y013037D01*
X019882Y013006D01*
X019940Y012972D01*
X019996Y012935D01*
X020050Y012894D01*
X020102Y012851D01*
X020151Y012805D01*
X020197Y012756D01*
X020240Y012704D01*
X020281Y012650D01*
X020318Y012594D01*
X020352Y012536D01*
X020383Y012477D01*
X020411Y012415D01*
X020435Y012352D01*
X020455Y012288D01*
X020472Y012223D01*
X020485Y012157D01*
X020494Y012090D01*
X020500Y012023D01*
X020502Y011956D01*
X020502Y001364D01*
X020500Y001297D01*
X020494Y001230D01*
X020485Y001163D01*
X020472Y001097D01*
X020455Y001032D01*
X020435Y000968D01*
X020411Y000905D01*
X020383Y000843D01*
X020352Y000784D01*
X020318Y000726D01*
X020281Y000670D01*
X020240Y000616D01*
X020197Y000564D01*
X020151Y000515D01*
X020102Y000469D01*
X020050Y000426D01*
X019996Y000385D01*
X019940Y000348D01*
X019882Y000314D01*
X019823Y000283D01*
X019761Y000255D01*
X019698Y000231D01*
X019634Y000211D01*
X019569Y000194D01*
X019503Y000181D01*
X019436Y000172D01*
X019369Y000166D01*
X019302Y000164D01*
X005758Y000164D01*
X005691Y000166D01*
X005624Y000172D01*
X005557Y000181D01*
X005491Y000194D01*
X005426Y000211D01*
X005362Y000231D01*
X005299Y000255D01*
X005237Y000283D01*
X005178Y000314D01*
X005120Y000348D01*
X005064Y000385D01*
X005010Y000426D01*
X004958Y000469D01*
X004909Y000515D01*
X004863Y000564D01*
X004820Y000616D01*
X004779Y000670D01*
X004742Y000726D01*
X004708Y000784D01*
X004677Y000843D01*
X004649Y000905D01*
X004625Y000968D01*
X004605Y001032D01*
X004588Y001097D01*
X004575Y001163D01*
X004566Y001230D01*
X004560Y001297D01*
X004558Y001364D01*
X004530Y003710D02*
X020480Y003710D01*
D12*
X019693Y006957D02*
X019695Y006984D01*
X019701Y007010D01*
X019710Y007035D01*
X019723Y007058D01*
X019739Y007079D01*
X019758Y007098D01*
X019779Y007114D01*
X019802Y007127D01*
X019827Y007136D01*
X019853Y007142D01*
X019880Y007144D01*
X019907Y007142D01*
X019933Y007136D01*
X019958Y007127D01*
X019981Y007114D01*
X020002Y007098D01*
X020021Y007079D01*
X020037Y007058D01*
X020050Y007035D01*
X020059Y007010D01*
X020065Y006984D01*
X020067Y006957D01*
X020065Y006930D01*
X020059Y006904D01*
X020050Y006879D01*
X020037Y006856D01*
X020021Y006835D01*
X020002Y006816D01*
X019981Y006800D01*
X019958Y006787D01*
X019933Y006778D01*
X019907Y006772D01*
X019880Y006770D01*
X019853Y006772D01*
X019827Y006778D01*
X019802Y006787D01*
X019779Y006800D01*
X019758Y006816D01*
X019739Y006835D01*
X019723Y006856D01*
X019710Y006879D01*
X019701Y006904D01*
X019695Y006930D01*
X019693Y006957D01*
X019693Y007863D02*
X019695Y007890D01*
X019701Y007916D01*
X019710Y007941D01*
X019723Y007964D01*
X019739Y007985D01*
X019758Y008004D01*
X019779Y008020D01*
X019802Y008033D01*
X019827Y008042D01*
X019853Y008048D01*
X019880Y008050D01*
X019907Y008048D01*
X019933Y008042D01*
X019958Y008033D01*
X019981Y008020D01*
X020002Y008004D01*
X020021Y007985D01*
X020037Y007964D01*
X020050Y007941D01*
X020059Y007916D01*
X020065Y007890D01*
X020067Y007863D01*
X020065Y007836D01*
X020059Y007810D01*
X020050Y007785D01*
X020037Y007762D01*
X020021Y007741D01*
X020002Y007722D01*
X019981Y007706D01*
X019958Y007693D01*
X019933Y007684D01*
X019907Y007678D01*
X019880Y007676D01*
X019853Y007678D01*
X019827Y007684D01*
X019802Y007693D01*
X019779Y007706D01*
X019758Y007722D01*
X019739Y007741D01*
X019723Y007762D01*
X019710Y007785D01*
X019701Y007810D01*
X019695Y007836D01*
X019693Y007863D01*
X018439Y011660D02*
X018441Y011708D01*
X018447Y011756D01*
X018457Y011803D01*
X018470Y011849D01*
X018488Y011894D01*
X018508Y011938D01*
X018533Y011980D01*
X018561Y012019D01*
X018591Y012056D01*
X018625Y012090D01*
X018662Y012122D01*
X018700Y012151D01*
X018741Y012176D01*
X018784Y012198D01*
X018829Y012216D01*
X018875Y012230D01*
X018922Y012241D01*
X018970Y012248D01*
X019018Y012251D01*
X019066Y012250D01*
X019114Y012245D01*
X019162Y012236D01*
X019208Y012224D01*
X019253Y012207D01*
X019297Y012187D01*
X019339Y012164D01*
X019379Y012137D01*
X019417Y012107D01*
X019452Y012074D01*
X019484Y012038D01*
X019514Y012000D01*
X019540Y011959D01*
X019562Y011916D01*
X019582Y011872D01*
X019597Y011827D01*
X019609Y011780D01*
X019617Y011732D01*
X019621Y011684D01*
X019621Y011636D01*
X019617Y011588D01*
X019609Y011540D01*
X019597Y011493D01*
X019582Y011448D01*
X019562Y011404D01*
X019540Y011361D01*
X019514Y011320D01*
X019484Y011282D01*
X019452Y011246D01*
X019417Y011213D01*
X019379Y011183D01*
X019339Y011156D01*
X019297Y011133D01*
X019253Y011113D01*
X019208Y011096D01*
X019162Y011084D01*
X019114Y011075D01*
X019066Y011070D01*
X019018Y011069D01*
X018970Y011072D01*
X018922Y011079D01*
X018875Y011090D01*
X018829Y011104D01*
X018784Y011122D01*
X018741Y011144D01*
X018700Y011169D01*
X018662Y011198D01*
X018625Y011230D01*
X018591Y011264D01*
X018561Y011301D01*
X018533Y011340D01*
X018508Y011382D01*
X018488Y011426D01*
X018470Y011471D01*
X018457Y011517D01*
X018447Y011564D01*
X018441Y011612D01*
X018439Y011660D01*
X006929Y008498D02*
X006931Y008519D01*
X006937Y008539D01*
X006946Y008559D01*
X006958Y008576D01*
X006973Y008590D01*
X006991Y008602D01*
X007011Y008610D01*
X007031Y008615D01*
X007052Y008616D01*
X007073Y008613D01*
X007093Y008607D01*
X007112Y008596D01*
X007129Y008583D01*
X007142Y008567D01*
X007153Y008549D01*
X007161Y008529D01*
X007165Y008509D01*
X007165Y008487D01*
X007161Y008467D01*
X007153Y008447D01*
X007142Y008429D01*
X007129Y008413D01*
X007112Y008400D01*
X007093Y008389D01*
X007073Y008383D01*
X007052Y008380D01*
X007031Y008381D01*
X007011Y008386D01*
X006991Y008394D01*
X006973Y008406D01*
X006958Y008420D01*
X006946Y008437D01*
X006937Y008457D01*
X006931Y008477D01*
X006929Y008498D01*
X006929Y006222D02*
X006931Y006243D01*
X006937Y006263D01*
X006946Y006283D01*
X006958Y006300D01*
X006973Y006314D01*
X006991Y006326D01*
X007011Y006334D01*
X007031Y006339D01*
X007052Y006340D01*
X007073Y006337D01*
X007093Y006331D01*
X007112Y006320D01*
X007129Y006307D01*
X007142Y006291D01*
X007153Y006273D01*
X007161Y006253D01*
X007165Y006233D01*
X007165Y006211D01*
X007161Y006191D01*
X007153Y006171D01*
X007142Y006153D01*
X007129Y006137D01*
X007112Y006124D01*
X007093Y006113D01*
X007073Y006107D01*
X007052Y006104D01*
X007031Y006105D01*
X007011Y006110D01*
X006991Y006118D01*
X006973Y006130D01*
X006958Y006144D01*
X006946Y006161D01*
X006937Y006181D01*
X006931Y006201D01*
X006929Y006222D01*
X005439Y011660D02*
X005441Y011708D01*
X005447Y011756D01*
X005457Y011803D01*
X005470Y011849D01*
X005488Y011894D01*
X005508Y011938D01*
X005533Y011980D01*
X005561Y012019D01*
X005591Y012056D01*
X005625Y012090D01*
X005662Y012122D01*
X005700Y012151D01*
X005741Y012176D01*
X005784Y012198D01*
X005829Y012216D01*
X005875Y012230D01*
X005922Y012241D01*
X005970Y012248D01*
X006018Y012251D01*
X006066Y012250D01*
X006114Y012245D01*
X006162Y012236D01*
X006208Y012224D01*
X006253Y012207D01*
X006297Y012187D01*
X006339Y012164D01*
X006379Y012137D01*
X006417Y012107D01*
X006452Y012074D01*
X006484Y012038D01*
X006514Y012000D01*
X006540Y011959D01*
X006562Y011916D01*
X006582Y011872D01*
X006597Y011827D01*
X006609Y011780D01*
X006617Y011732D01*
X006621Y011684D01*
X006621Y011636D01*
X006617Y011588D01*
X006609Y011540D01*
X006597Y011493D01*
X006582Y011448D01*
X006562Y011404D01*
X006540Y011361D01*
X006514Y011320D01*
X006484Y011282D01*
X006452Y011246D01*
X006417Y011213D01*
X006379Y011183D01*
X006339Y011156D01*
X006297Y011133D01*
X006253Y011113D01*
X006208Y011096D01*
X006162Y011084D01*
X006114Y011075D01*
X006066Y011070D01*
X006018Y011069D01*
X005970Y011072D01*
X005922Y011079D01*
X005875Y011090D01*
X005829Y011104D01*
X005784Y011122D01*
X005741Y011144D01*
X005700Y011169D01*
X005662Y011198D01*
X005625Y011230D01*
X005591Y011264D01*
X005561Y011301D01*
X005533Y011340D01*
X005508Y011382D01*
X005488Y011426D01*
X005470Y011471D01*
X005457Y011517D01*
X005447Y011564D01*
X005441Y011612D01*
X005439Y011660D01*
D13*
X005436Y003090D02*
X005333Y003090D01*
X005281Y003039D01*
X005488Y002832D01*
X005436Y002780D01*
X005333Y002780D01*
X005281Y002832D01*
X005281Y003039D01*
X005436Y003090D02*
X005488Y003039D01*
X005488Y002832D01*
X005603Y002832D02*
X005655Y002780D01*
X005758Y002780D01*
X005810Y002832D01*
X005707Y002935D02*
X005655Y002935D01*
X005603Y002883D01*
X005603Y002832D01*
X005655Y002935D02*
X005603Y002987D01*
X005603Y003039D01*
X005655Y003090D01*
X005758Y003090D01*
X005810Y003039D01*
X012231Y003090D02*
X012334Y003039D01*
X012438Y002935D01*
X012283Y002935D01*
X012231Y002883D01*
X012231Y002832D01*
X012283Y002780D01*
X012386Y002780D01*
X012438Y002832D01*
X012438Y002935D01*
X012553Y002780D02*
X012760Y002780D01*
X012657Y002780D02*
X012657Y003090D01*
X012760Y002987D01*
X019453Y002987D02*
X019453Y003039D01*
X019505Y003090D01*
X019608Y003090D01*
X019660Y003039D01*
X019453Y002987D02*
X019660Y002780D01*
X019453Y002780D01*
D14*
X012873Y007955D03*
X012229Y008368D03*
X012223Y008398D03*
X012223Y008404D03*
X012217Y008421D03*
X012217Y008427D03*
X012217Y008433D03*
X012211Y008445D03*
X012211Y008451D03*
X012211Y008457D03*
X012117Y008457D03*
X012111Y008433D03*
X012111Y008427D03*
X012105Y008404D03*
X012099Y008374D03*
X012164Y008669D03*
X010056Y009307D03*
X010050Y009331D03*
X010050Y009337D03*
X010044Y009360D03*
X010044Y009366D03*
X010038Y009384D03*
X010038Y009390D03*
X010038Y009396D03*
X010032Y009414D03*
X009938Y009414D03*
X009938Y009408D03*
X009932Y009390D03*
X009932Y009384D03*
X009926Y009360D03*
X009926Y009354D03*
X009920Y009331D03*
X009985Y009626D03*
X009985Y009632D03*
D15*
X009988Y009620D03*
X010035Y009408D03*
X010035Y009402D03*
X010041Y009378D03*
X010041Y009372D03*
X010047Y009354D03*
X010047Y009349D03*
X010047Y009343D03*
X010053Y009325D03*
X010053Y009319D03*
X010053Y009313D03*
X010059Y009301D03*
X010059Y009295D03*
X010059Y009290D03*
X010059Y009284D03*
X010059Y009278D03*
X010065Y009272D03*
X010065Y009266D03*
X010065Y009260D03*
X010065Y009254D03*
X010071Y009242D03*
X010071Y009236D03*
X010071Y009230D03*
X010071Y009225D03*
X010077Y009213D03*
X010077Y009207D03*
X010077Y009201D03*
X010083Y009183D03*
X010083Y009177D03*
X010083Y009171D03*
X009899Y009225D03*
X009899Y009230D03*
X009899Y009236D03*
X009905Y009248D03*
X009905Y009254D03*
X009905Y009260D03*
X009905Y009266D03*
X009911Y009278D03*
X009911Y009284D03*
X009911Y009290D03*
X009911Y009295D03*
X009917Y009301D03*
X009917Y009307D03*
X009917Y009313D03*
X009917Y009319D03*
X009917Y009325D03*
X009923Y009337D03*
X009923Y009343D03*
X009923Y009349D03*
X009929Y009366D03*
X009929Y009372D03*
X009929Y009378D03*
X009935Y009396D03*
X009935Y009402D03*
X009894Y009207D03*
X009894Y009201D03*
X009888Y009177D03*
X009888Y009171D03*
X009274Y009331D03*
X009268Y009313D03*
X009262Y009295D03*
X009256Y009284D03*
X009250Y009266D03*
X009244Y009248D03*
X009238Y009230D03*
X009232Y009219D03*
X009982Y007955D03*
X011429Y009219D03*
X011435Y009236D03*
X011441Y009248D03*
X011447Y009266D03*
X011453Y009284D03*
X011459Y009301D03*
X011470Y009331D03*
X012161Y008664D03*
X012161Y008658D03*
X012114Y008451D03*
X012114Y008445D03*
X012114Y008439D03*
X012108Y008421D03*
X012108Y008416D03*
X012108Y008410D03*
X012102Y008398D03*
X012102Y008392D03*
X012102Y008386D03*
X012102Y008380D03*
X012096Y008368D03*
X012096Y008362D03*
X012096Y008356D03*
X012096Y008351D03*
X012090Y008345D03*
X012090Y008339D03*
X012090Y008333D03*
X012090Y008327D03*
X012090Y008321D03*
X012085Y008315D03*
X012085Y008309D03*
X012085Y008303D03*
X012085Y008297D03*
X012079Y008286D03*
X012079Y008280D03*
X012079Y008274D03*
X012073Y008256D03*
X012073Y008250D03*
X012073Y008244D03*
X012067Y008221D03*
X012250Y008262D03*
X012250Y008268D03*
X012250Y008274D03*
X012250Y008280D03*
X012244Y008291D03*
X012244Y008297D03*
X012244Y008303D03*
X012244Y008309D03*
X012238Y008315D03*
X012238Y008321D03*
X012238Y008327D03*
X012238Y008333D03*
X012238Y008339D03*
X012232Y008345D03*
X012232Y008351D03*
X012232Y008356D03*
X012232Y008362D03*
X012226Y008374D03*
X012226Y008380D03*
X012226Y008386D03*
X012226Y008392D03*
X012220Y008410D03*
X012220Y008416D03*
X012214Y008439D03*
X012256Y008250D03*
X012256Y008244D03*
X012256Y008238D03*
X012262Y008221D03*
X012262Y008215D03*
D16*
X012161Y008581D03*
X012090Y009024D03*
X012291Y009024D03*
X012291Y009526D03*
X012090Y009526D03*
X011565Y009549D03*
X011565Y009555D03*
X011335Y009006D03*
X011335Y009000D03*
X011335Y008994D03*
X011340Y008569D03*
X011340Y008362D03*
X010620Y008061D03*
X010088Y008061D03*
X009882Y008256D03*
X009882Y008569D03*
X010083Y008569D03*
X010809Y009024D03*
X010809Y009526D03*
X010608Y009526D03*
X009368Y009543D03*
X009368Y009549D03*
X009368Y009555D03*
X009138Y009006D03*
X009138Y009000D03*
X009138Y008994D03*
X012781Y008061D03*
X012876Y007961D03*
X012970Y008061D03*
X012970Y008569D03*
D17*
X012988Y008528D03*
X012988Y008522D03*
X012988Y008516D03*
X012988Y008510D03*
X012988Y008504D03*
X012988Y008498D03*
X012988Y008492D03*
X012988Y008486D03*
X012988Y008480D03*
X012988Y008475D03*
X012988Y008469D03*
X012988Y008463D03*
X012988Y008457D03*
X012988Y008451D03*
X012988Y008445D03*
X012988Y008439D03*
X012988Y008433D03*
X012988Y008427D03*
X012988Y008421D03*
X012988Y008416D03*
X012988Y008410D03*
X012988Y008404D03*
X012988Y008398D03*
X012988Y008392D03*
X012988Y008386D03*
X012988Y008380D03*
X012988Y008374D03*
X012988Y008368D03*
X012988Y008362D03*
X012988Y008356D03*
X012988Y008351D03*
X012988Y008345D03*
X012988Y008339D03*
X012988Y008333D03*
X012988Y008327D03*
X012988Y008321D03*
X012988Y008315D03*
X012988Y008309D03*
X012988Y008303D03*
X012988Y008297D03*
X012988Y008291D03*
X012988Y008286D03*
X012988Y008280D03*
X012988Y008274D03*
X012988Y008268D03*
X012988Y008262D03*
X012988Y008256D03*
X012988Y008250D03*
X012988Y008244D03*
X012988Y008238D03*
X012988Y008232D03*
X012988Y008227D03*
X012988Y008221D03*
X012988Y008215D03*
X012988Y008209D03*
X012988Y008203D03*
X012988Y008197D03*
X012988Y008191D03*
X012988Y008185D03*
X012988Y008179D03*
X012988Y008173D03*
X012988Y008167D03*
X012988Y008162D03*
X012988Y008156D03*
X012988Y008150D03*
X012988Y008144D03*
X012988Y008138D03*
X012988Y008132D03*
X012988Y008126D03*
X012988Y008120D03*
X012988Y008114D03*
X012988Y008108D03*
X012988Y008103D03*
X012758Y008103D03*
X012758Y008108D03*
X012758Y008114D03*
X012758Y008120D03*
X012758Y008126D03*
X012758Y008132D03*
X012758Y008138D03*
X012758Y008144D03*
X012758Y008150D03*
X012758Y008156D03*
X012758Y008475D03*
X012758Y008480D03*
X012758Y008486D03*
X012758Y008492D03*
X012758Y008498D03*
X012758Y008504D03*
X012758Y008510D03*
X012758Y008516D03*
X012758Y008522D03*
X012758Y008528D03*
X012982Y009024D03*
X012982Y009030D03*
X012982Y009036D03*
X012982Y009041D03*
X012982Y009047D03*
X012982Y009053D03*
X012982Y009059D03*
X012982Y009065D03*
X012982Y009071D03*
X012982Y009077D03*
X012982Y009083D03*
X012982Y009089D03*
X012982Y009095D03*
X012982Y009101D03*
X012982Y009106D03*
X012982Y009112D03*
X012982Y009118D03*
X012982Y009124D03*
X012982Y009130D03*
X012982Y009136D03*
X012982Y009142D03*
X012982Y009148D03*
X012982Y009154D03*
X012982Y009160D03*
X012982Y009166D03*
X012982Y009171D03*
X012982Y009177D03*
X012982Y009183D03*
X012982Y009189D03*
X012982Y009195D03*
X012982Y009201D03*
X012982Y009207D03*
X012982Y009213D03*
X012982Y009219D03*
X012982Y009225D03*
X012982Y009230D03*
X012982Y009236D03*
X012982Y009242D03*
X012982Y009248D03*
X012982Y009254D03*
X012982Y009260D03*
X012982Y009266D03*
X012982Y009272D03*
X012982Y009278D03*
X012982Y009284D03*
X012982Y009290D03*
X012982Y009295D03*
X012982Y009301D03*
X012982Y009307D03*
X012982Y009313D03*
X012982Y009319D03*
X012982Y009325D03*
X012982Y009331D03*
X012982Y009337D03*
X012982Y009343D03*
X012982Y009349D03*
X012982Y009354D03*
X012982Y009360D03*
X012982Y009366D03*
X012982Y009372D03*
X012982Y009378D03*
X012982Y009384D03*
X012982Y009390D03*
X012982Y009396D03*
X012982Y009402D03*
X012982Y009408D03*
X012982Y009414D03*
X012982Y009419D03*
X012982Y009425D03*
X012982Y009431D03*
X012982Y009437D03*
X012982Y009443D03*
X012982Y009449D03*
X012982Y009455D03*
X012982Y009461D03*
X012982Y009467D03*
X012982Y009473D03*
X012982Y009479D03*
X012982Y009484D03*
X012982Y009490D03*
X012982Y009496D03*
X012982Y009502D03*
X012982Y009508D03*
X012982Y009514D03*
X012982Y009520D03*
X012982Y009526D03*
X012982Y009532D03*
X012982Y009538D03*
X012982Y009543D03*
X012982Y009549D03*
X012982Y009555D03*
X012982Y009561D03*
X012982Y009567D03*
X012982Y009573D03*
X012982Y009579D03*
X012982Y009585D03*
X012982Y009591D03*
X012982Y009597D03*
X012982Y009603D03*
X012982Y009608D03*
X012982Y009614D03*
X012982Y009620D03*
X012982Y009626D03*
X012982Y009632D03*
X012309Y009496D03*
X012309Y009490D03*
X012309Y009484D03*
X012309Y009479D03*
X012315Y009461D03*
X012315Y009455D03*
X012315Y009449D03*
X012315Y009443D03*
X012315Y009437D03*
X012315Y009431D03*
X012315Y009425D03*
X012315Y009419D03*
X012315Y009414D03*
X012315Y009408D03*
X012315Y009402D03*
X012315Y009396D03*
X012315Y009390D03*
X012315Y009384D03*
X012315Y009378D03*
X012315Y009372D03*
X012315Y009366D03*
X012315Y009360D03*
X012315Y009354D03*
X012315Y009349D03*
X012315Y009343D03*
X012315Y009337D03*
X012315Y009331D03*
X012315Y009325D03*
X012315Y009319D03*
X012315Y009313D03*
X012315Y009307D03*
X012315Y009301D03*
X012315Y009295D03*
X012315Y009290D03*
X012315Y009284D03*
X012315Y009278D03*
X012315Y009272D03*
X012315Y009266D03*
X012315Y009260D03*
X012315Y009254D03*
X012315Y009248D03*
X012315Y009242D03*
X012315Y009236D03*
X012315Y009230D03*
X012315Y009225D03*
X012315Y009219D03*
X012315Y009213D03*
X012315Y009207D03*
X012315Y009201D03*
X012315Y009195D03*
X012315Y009189D03*
X012315Y009183D03*
X012315Y009177D03*
X012315Y009171D03*
X012315Y009166D03*
X012315Y009160D03*
X012315Y009154D03*
X012315Y009148D03*
X012315Y009142D03*
X012315Y009136D03*
X012315Y009130D03*
X012315Y009124D03*
X012315Y009118D03*
X012315Y009112D03*
X012315Y009106D03*
X012315Y009101D03*
X012315Y009095D03*
X012315Y009089D03*
X012309Y009071D03*
X012309Y009065D03*
X012309Y009059D03*
X012309Y009053D03*
X012191Y008917D03*
X012073Y009053D03*
X012073Y009059D03*
X012073Y009065D03*
X012073Y009071D03*
X012073Y009077D03*
X012073Y009083D03*
X012073Y009089D03*
X012073Y009095D03*
X012073Y009101D03*
X012073Y009106D03*
X012073Y009112D03*
X012073Y009118D03*
X012073Y009124D03*
X012073Y009130D03*
X012073Y009136D03*
X012073Y009142D03*
X012073Y009148D03*
X012073Y009154D03*
X012073Y009160D03*
X012073Y009166D03*
X012073Y009171D03*
X012073Y009177D03*
X012073Y009183D03*
X012073Y009189D03*
X012073Y009195D03*
X012073Y009201D03*
X012073Y009207D03*
X012073Y009213D03*
X012073Y009219D03*
X012073Y009225D03*
X012073Y009230D03*
X012073Y009236D03*
X012073Y009242D03*
X012073Y009248D03*
X012073Y009254D03*
X012073Y009260D03*
X012073Y009266D03*
X012073Y009272D03*
X012073Y009278D03*
X012073Y009284D03*
X012073Y009290D03*
X012073Y009295D03*
X012073Y009301D03*
X012073Y009307D03*
X012073Y009313D03*
X012073Y009319D03*
X012073Y009325D03*
X012073Y009331D03*
X012073Y009337D03*
X012073Y009343D03*
X012073Y009349D03*
X012073Y009354D03*
X012073Y009360D03*
X012073Y009366D03*
X012073Y009372D03*
X012073Y009378D03*
X012073Y009384D03*
X012073Y009390D03*
X012073Y009396D03*
X012073Y009402D03*
X012073Y009408D03*
X012073Y009414D03*
X012073Y009419D03*
X012073Y009425D03*
X012073Y009431D03*
X012073Y009437D03*
X012073Y009443D03*
X012073Y009449D03*
X012073Y009455D03*
X012073Y009461D03*
X012073Y009467D03*
X012073Y009473D03*
X012073Y009479D03*
X012073Y009484D03*
X012073Y009490D03*
X012073Y009496D03*
X012191Y009632D03*
X011577Y009620D03*
X011577Y009614D03*
X011323Y009614D03*
X011323Y009608D03*
X011323Y009603D03*
X011323Y009597D03*
X011323Y009591D03*
X011323Y009585D03*
X011323Y009579D03*
X011323Y009573D03*
X011323Y009567D03*
X011323Y009561D03*
X011323Y009555D03*
X011323Y009549D03*
X011323Y009543D03*
X011323Y009538D03*
X011323Y009532D03*
X011323Y009526D03*
X011323Y009520D03*
X011323Y009514D03*
X011323Y009508D03*
X011323Y009502D03*
X011323Y009496D03*
X011323Y009490D03*
X011323Y009484D03*
X011323Y009479D03*
X011323Y009473D03*
X011323Y009467D03*
X011323Y009461D03*
X011323Y009455D03*
X011323Y009449D03*
X011323Y009443D03*
X011323Y009437D03*
X011323Y009431D03*
X011323Y009425D03*
X011323Y009419D03*
X011323Y009414D03*
X011323Y009408D03*
X011323Y009402D03*
X011323Y009396D03*
X011323Y009390D03*
X011323Y009384D03*
X011323Y009378D03*
X011323Y009372D03*
X011323Y009366D03*
X011323Y009360D03*
X011323Y009354D03*
X011323Y009349D03*
X011323Y009343D03*
X011323Y009337D03*
X011323Y009331D03*
X011323Y009325D03*
X011323Y009319D03*
X011323Y009313D03*
X011323Y009307D03*
X011323Y009301D03*
X011323Y009295D03*
X011323Y009290D03*
X011323Y009284D03*
X011323Y009278D03*
X011323Y009272D03*
X011323Y009266D03*
X011323Y009260D03*
X011323Y009254D03*
X011323Y009248D03*
X011323Y009242D03*
X011323Y009236D03*
X011323Y009230D03*
X011323Y009225D03*
X011323Y009219D03*
X011577Y009219D03*
X011577Y009225D03*
X011577Y009230D03*
X011577Y009236D03*
X011577Y009242D03*
X011577Y009248D03*
X011577Y009254D03*
X011577Y009260D03*
X011577Y009266D03*
X011577Y009272D03*
X011577Y009278D03*
X011577Y009284D03*
X011577Y009290D03*
X011577Y009295D03*
X011577Y009301D03*
X011577Y009307D03*
X011577Y009313D03*
X011577Y009319D03*
X011577Y009325D03*
X011577Y009331D03*
X011577Y009213D03*
X011577Y009207D03*
X011577Y009201D03*
X011577Y009195D03*
X011577Y009189D03*
X011577Y009183D03*
X011577Y009177D03*
X011577Y009171D03*
X011577Y009166D03*
X011577Y009160D03*
X011577Y009154D03*
X011577Y009148D03*
X011577Y009142D03*
X011577Y009136D03*
X011577Y009130D03*
X011577Y009124D03*
X011577Y009118D03*
X011577Y009112D03*
X011577Y009106D03*
X011577Y009101D03*
X011577Y009095D03*
X011577Y009089D03*
X011577Y009083D03*
X011577Y009077D03*
X011577Y009071D03*
X011577Y009065D03*
X011577Y009059D03*
X011577Y009053D03*
X011577Y009047D03*
X011577Y009041D03*
X011577Y009036D03*
X011577Y009030D03*
X011577Y009024D03*
X011577Y009018D03*
X011577Y009012D03*
X011577Y009006D03*
X011577Y009000D03*
X011577Y008994D03*
X011577Y008988D03*
X011577Y008982D03*
X011577Y008977D03*
X011577Y008971D03*
X011577Y008965D03*
X011577Y008959D03*
X011577Y008953D03*
X011577Y008947D03*
X011577Y008941D03*
X011577Y008935D03*
X011577Y008929D03*
X011577Y008923D03*
X011577Y008917D03*
X011323Y008929D03*
X011323Y008935D03*
X011323Y008941D03*
X011323Y008545D03*
X011317Y008534D03*
X011317Y008528D03*
X011317Y008522D03*
X011317Y008516D03*
X011311Y008504D03*
X011311Y008498D03*
X011311Y008492D03*
X011311Y008486D03*
X011311Y008480D03*
X011311Y008475D03*
X011311Y008469D03*
X011311Y008463D03*
X011311Y008457D03*
X011311Y008451D03*
X011311Y008445D03*
X011311Y008439D03*
X011311Y008433D03*
X011311Y008427D03*
X011317Y008416D03*
X011317Y008410D03*
X011317Y008404D03*
X011317Y008398D03*
X011323Y008386D03*
X011388Y008250D03*
X011382Y008232D03*
X011382Y008227D03*
X011376Y008215D03*
X011376Y008209D03*
X011370Y008197D03*
X011370Y008191D03*
X011364Y008179D03*
X011364Y008173D03*
X011358Y008162D03*
X011358Y008156D03*
X011352Y008144D03*
X011352Y008138D03*
X011346Y008126D03*
X011346Y008120D03*
X011340Y008108D03*
X011340Y008103D03*
X011335Y008091D03*
X011335Y008085D03*
X011329Y008073D03*
X011329Y008067D03*
X011323Y008055D03*
X011323Y008049D03*
X011317Y008032D03*
X011311Y008014D03*
X011305Y007996D03*
X011299Y007979D03*
X011293Y007961D03*
X011553Y007961D03*
X011553Y007967D03*
X011553Y007973D03*
X011553Y007979D03*
X011553Y007984D03*
X011553Y007990D03*
X011553Y007996D03*
X011553Y008002D03*
X011553Y008008D03*
X011553Y008014D03*
X011553Y008020D03*
X011553Y008026D03*
X011553Y008032D03*
X011553Y008038D03*
X011553Y008043D03*
X011553Y008049D03*
X011553Y008055D03*
X011553Y008061D03*
X011553Y008067D03*
X011553Y008073D03*
X011553Y008079D03*
X011553Y008085D03*
X011553Y008091D03*
X011553Y008097D03*
X011553Y008103D03*
X011553Y008108D03*
X011553Y008114D03*
X011553Y008120D03*
X011553Y008126D03*
X011553Y008132D03*
X011553Y008138D03*
X011553Y008144D03*
X011553Y008150D03*
X011553Y008156D03*
X011553Y008162D03*
X011553Y008167D03*
X011553Y008173D03*
X011553Y008179D03*
X011553Y008185D03*
X011553Y008191D03*
X011553Y008197D03*
X011553Y008203D03*
X011553Y008209D03*
X011553Y008215D03*
X011553Y008221D03*
X011553Y008227D03*
X011553Y008232D03*
X011553Y008238D03*
X011553Y008244D03*
X011553Y008250D03*
X011553Y008256D03*
X011553Y008356D03*
X011553Y008362D03*
X011553Y008368D03*
X011553Y008374D03*
X011553Y008380D03*
X011553Y008386D03*
X011553Y008392D03*
X011553Y008398D03*
X011553Y008404D03*
X011553Y008410D03*
X011553Y008416D03*
X011553Y008421D03*
X011553Y008427D03*
X011553Y008433D03*
X011553Y008439D03*
X011553Y008445D03*
X011553Y008451D03*
X011553Y008457D03*
X011553Y008463D03*
X011553Y008469D03*
X011553Y008475D03*
X011553Y008480D03*
X011553Y008486D03*
X011553Y008492D03*
X011553Y008498D03*
X011553Y008504D03*
X011553Y008510D03*
X011553Y008516D03*
X011553Y008522D03*
X011553Y008528D03*
X011553Y008534D03*
X011553Y008540D03*
X011553Y008545D03*
X011553Y008551D03*
X011553Y008557D03*
X011553Y008563D03*
X011553Y008569D03*
X011553Y008575D03*
X012161Y008634D03*
X012043Y008108D03*
X012037Y008079D03*
X012031Y008055D03*
X012031Y008049D03*
X012025Y008026D03*
X012025Y008020D03*
X012020Y008002D03*
X012020Y007996D03*
X012020Y007990D03*
X012014Y007973D03*
X012014Y007967D03*
X012014Y007961D03*
X012303Y008008D03*
X012303Y008014D03*
X012303Y008020D03*
X012297Y008038D03*
X012297Y008043D03*
X012291Y008067D03*
X012291Y008073D03*
X012285Y008097D03*
X012309Y007990D03*
X012309Y007984D03*
X012309Y007979D03*
X012315Y007967D03*
X012315Y007961D03*
X010821Y008055D03*
X010821Y008061D03*
X010821Y008067D03*
X010821Y008073D03*
X010821Y008079D03*
X010821Y008085D03*
X010821Y008091D03*
X010821Y008097D03*
X010821Y008103D03*
X010821Y008108D03*
X010821Y008114D03*
X010821Y008120D03*
X010821Y008126D03*
X010821Y008132D03*
X010821Y008138D03*
X010821Y008144D03*
X010821Y008150D03*
X010821Y008156D03*
X010821Y008162D03*
X010821Y008167D03*
X010821Y008173D03*
X010821Y008179D03*
X010821Y008185D03*
X010821Y008191D03*
X010821Y008197D03*
X010821Y008203D03*
X010821Y008209D03*
X010821Y008215D03*
X010821Y008221D03*
X010821Y008227D03*
X010821Y008232D03*
X010821Y008238D03*
X010821Y008244D03*
X010821Y008250D03*
X010821Y008256D03*
X010821Y008262D03*
X010821Y008268D03*
X010821Y008274D03*
X010821Y008280D03*
X010821Y008286D03*
X010821Y008291D03*
X010821Y008297D03*
X010821Y008303D03*
X010821Y008309D03*
X010821Y008315D03*
X010821Y008321D03*
X010821Y008327D03*
X010821Y008333D03*
X010821Y008339D03*
X010821Y008345D03*
X010821Y008351D03*
X010821Y008356D03*
X010821Y008362D03*
X010821Y008368D03*
X010821Y008374D03*
X010821Y008380D03*
X010821Y008386D03*
X010821Y008392D03*
X010821Y008398D03*
X010821Y008404D03*
X010821Y008410D03*
X010821Y008416D03*
X010821Y008421D03*
X010821Y008427D03*
X010821Y008433D03*
X010821Y008439D03*
X010821Y008445D03*
X010821Y008451D03*
X010821Y008457D03*
X010821Y008463D03*
X010821Y008469D03*
X010821Y008475D03*
X010821Y008480D03*
X010821Y008486D03*
X010821Y008492D03*
X010821Y008498D03*
X010821Y008504D03*
X010821Y008510D03*
X010821Y008516D03*
X010821Y008522D03*
X010821Y008528D03*
X010821Y008534D03*
X010821Y008540D03*
X010821Y008545D03*
X010821Y008551D03*
X010821Y008557D03*
X010821Y008563D03*
X010821Y008569D03*
X010821Y008575D03*
X010596Y008534D03*
X010596Y008528D03*
X010596Y008522D03*
X010596Y008516D03*
X010596Y008510D03*
X010590Y008492D03*
X010590Y008486D03*
X010590Y008480D03*
X010590Y008475D03*
X010590Y008469D03*
X010590Y008463D03*
X010590Y008457D03*
X010590Y008451D03*
X010590Y008445D03*
X010590Y008439D03*
X010590Y008433D03*
X010590Y008427D03*
X010590Y008421D03*
X010590Y008416D03*
X010590Y008410D03*
X010590Y008404D03*
X010590Y008398D03*
X010590Y008392D03*
X010590Y008386D03*
X010590Y008380D03*
X010590Y008374D03*
X010590Y008368D03*
X010590Y008362D03*
X010590Y008356D03*
X010590Y008351D03*
X010590Y008345D03*
X010590Y008339D03*
X010590Y008333D03*
X010590Y008327D03*
X010590Y008321D03*
X010590Y008315D03*
X010590Y008309D03*
X010590Y008303D03*
X010590Y008297D03*
X010590Y008291D03*
X010590Y008286D03*
X010590Y008280D03*
X010590Y008274D03*
X010590Y008268D03*
X010590Y008262D03*
X010590Y008256D03*
X010590Y008250D03*
X010590Y008244D03*
X010590Y008238D03*
X010590Y008232D03*
X010590Y008227D03*
X010590Y008221D03*
X010590Y008215D03*
X010590Y008209D03*
X010590Y008203D03*
X010590Y008197D03*
X010590Y008191D03*
X010590Y008185D03*
X010590Y008179D03*
X010590Y008173D03*
X010590Y008167D03*
X010590Y008162D03*
X010590Y008156D03*
X010590Y008150D03*
X010596Y008126D03*
X010596Y008120D03*
X010596Y008114D03*
X010596Y008108D03*
X010596Y008103D03*
X010596Y008097D03*
X010602Y008091D03*
X010602Y008085D03*
X010112Y008108D03*
X010112Y008114D03*
X010112Y008120D03*
X010112Y008126D03*
X010112Y008132D03*
X010112Y008138D03*
X010112Y008144D03*
X010112Y008150D03*
X010112Y008156D03*
X010106Y008097D03*
X009870Y008091D03*
X009870Y008085D03*
X009864Y008097D03*
X009864Y008103D03*
X009864Y008108D03*
X009864Y008114D03*
X009864Y008120D03*
X009864Y008126D03*
X009858Y008156D03*
X009858Y008162D03*
X009858Y008167D03*
X009858Y008173D03*
X009864Y008191D03*
X009864Y008197D03*
X009864Y008203D03*
X009864Y008209D03*
X009864Y008215D03*
X009864Y008221D03*
X009864Y008227D03*
X009858Y008475D03*
X009858Y008480D03*
X009858Y008486D03*
X009858Y008492D03*
X009858Y008498D03*
X009858Y008504D03*
X009864Y008528D03*
X009982Y008675D03*
X010100Y008540D03*
X010100Y008534D03*
X010100Y008528D03*
X010100Y008522D03*
X010106Y008516D03*
X010106Y008510D03*
X010106Y008504D03*
X010106Y008498D03*
X010106Y008492D03*
X010106Y008486D03*
X010106Y008480D03*
X010106Y008475D03*
X010106Y008469D03*
X010106Y008463D03*
X010106Y008457D03*
X010106Y008451D03*
X010106Y008445D03*
X010100Y008439D03*
X010100Y008433D03*
X010100Y008427D03*
X010136Y008917D03*
X010136Y008923D03*
X010136Y008929D03*
X010130Y008941D03*
X010130Y008947D03*
X010130Y008953D03*
X010130Y008959D03*
X010124Y008977D03*
X010124Y008982D03*
X010118Y009006D03*
X010118Y009012D03*
X010112Y009036D03*
X009864Y009059D03*
X009858Y009036D03*
X009858Y009030D03*
X009852Y009006D03*
X009852Y009000D03*
X009846Y008982D03*
X009846Y008977D03*
X009846Y008971D03*
X009840Y008953D03*
X009840Y008947D03*
X009840Y008941D03*
X009835Y008929D03*
X009835Y008923D03*
X009835Y008917D03*
X009380Y008917D03*
X009380Y008923D03*
X009380Y008929D03*
X009380Y008935D03*
X009380Y008941D03*
X009380Y008947D03*
X009380Y008953D03*
X009380Y008959D03*
X009380Y008965D03*
X009380Y008971D03*
X009380Y008977D03*
X009380Y008982D03*
X009380Y008988D03*
X009380Y008994D03*
X009380Y009000D03*
X009380Y009006D03*
X009380Y009012D03*
X009380Y009018D03*
X009380Y009024D03*
X009380Y009030D03*
X009380Y009036D03*
X009380Y009041D03*
X009380Y009047D03*
X009380Y009053D03*
X009380Y009059D03*
X009380Y009065D03*
X009380Y009071D03*
X009380Y009077D03*
X009380Y009083D03*
X009380Y009089D03*
X009380Y009095D03*
X009380Y009101D03*
X009380Y009106D03*
X009380Y009112D03*
X009380Y009118D03*
X009380Y009124D03*
X009380Y009130D03*
X009380Y009136D03*
X009380Y009142D03*
X009380Y009148D03*
X009380Y009154D03*
X009380Y009160D03*
X009380Y009166D03*
X009380Y009171D03*
X009380Y009177D03*
X009380Y009183D03*
X009380Y009189D03*
X009380Y009195D03*
X009380Y009201D03*
X009380Y009207D03*
X009380Y009213D03*
X009380Y009219D03*
X009380Y009225D03*
X009380Y009230D03*
X009380Y009236D03*
X009380Y009242D03*
X009380Y009248D03*
X009380Y009254D03*
X009380Y009260D03*
X009380Y009266D03*
X009380Y009272D03*
X009380Y009278D03*
X009380Y009284D03*
X009380Y009290D03*
X009380Y009295D03*
X009380Y009301D03*
X009380Y009307D03*
X009380Y009313D03*
X009380Y009319D03*
X009380Y009325D03*
X009380Y009331D03*
X009126Y009331D03*
X009126Y009337D03*
X009126Y009343D03*
X009126Y009349D03*
X009126Y009354D03*
X009126Y009360D03*
X009126Y009366D03*
X009126Y009372D03*
X009126Y009378D03*
X009126Y009384D03*
X009126Y009390D03*
X009126Y009396D03*
X009126Y009402D03*
X009126Y009408D03*
X009126Y009414D03*
X009126Y009419D03*
X009126Y009425D03*
X009126Y009431D03*
X009126Y009437D03*
X009126Y009443D03*
X009126Y009449D03*
X009126Y009455D03*
X009126Y009461D03*
X009126Y009467D03*
X009126Y009473D03*
X009126Y009479D03*
X009126Y009484D03*
X009126Y009490D03*
X009126Y009496D03*
X009126Y009502D03*
X009126Y009508D03*
X009126Y009514D03*
X009126Y009520D03*
X009126Y009526D03*
X009126Y009532D03*
X009126Y009538D03*
X009126Y009543D03*
X009126Y009549D03*
X009126Y009555D03*
X009126Y009561D03*
X009126Y009567D03*
X009126Y009573D03*
X009126Y009579D03*
X009126Y009585D03*
X009126Y009591D03*
X009126Y009597D03*
X009126Y009603D03*
X009126Y009608D03*
X009126Y009614D03*
X009126Y009620D03*
X009126Y009626D03*
X009126Y009632D03*
X009380Y009620D03*
X009380Y009614D03*
X009380Y009608D03*
X009126Y009325D03*
X009126Y009319D03*
X009126Y009313D03*
X009126Y009307D03*
X009126Y009301D03*
X009126Y009295D03*
X009126Y009290D03*
X009126Y009284D03*
X009126Y009278D03*
X009126Y009272D03*
X009126Y009266D03*
X009126Y009260D03*
X009126Y009254D03*
X009126Y009248D03*
X009126Y009242D03*
X009126Y009236D03*
X009126Y009230D03*
X009126Y009225D03*
X009126Y009219D03*
X009126Y008941D03*
X009126Y008935D03*
X009126Y008929D03*
X010585Y009083D03*
X010585Y009089D03*
X010585Y009095D03*
X010585Y009101D03*
X010585Y009106D03*
X010585Y009112D03*
X010585Y009118D03*
X010585Y009124D03*
X010585Y009130D03*
X010585Y009136D03*
X010585Y009142D03*
X010585Y009148D03*
X010585Y009154D03*
X010585Y009160D03*
X010585Y009166D03*
X010585Y009171D03*
X010585Y009177D03*
X010585Y009183D03*
X010585Y009189D03*
X010585Y009195D03*
X010585Y009201D03*
X010585Y009207D03*
X010585Y009213D03*
X010585Y009219D03*
X010590Y009071D03*
X010590Y009065D03*
X010590Y009059D03*
X010590Y009053D03*
X010827Y009053D03*
X010827Y009059D03*
X010827Y009065D03*
X010827Y009071D03*
X010827Y009077D03*
X010827Y009083D03*
X010827Y009089D03*
X010827Y009095D03*
X010827Y009101D03*
X010827Y009106D03*
X010827Y009112D03*
X010827Y009118D03*
X010827Y009124D03*
X010827Y009130D03*
X010827Y009136D03*
X010827Y009142D03*
X010827Y009148D03*
X010827Y009154D03*
X010827Y009160D03*
X010827Y009166D03*
X010827Y009171D03*
X010827Y009177D03*
X010827Y009183D03*
X010827Y009189D03*
X010827Y009195D03*
X010827Y009201D03*
X010827Y009207D03*
X010827Y009213D03*
X010827Y009219D03*
X010827Y009225D03*
X010827Y009230D03*
X010827Y009236D03*
X010827Y009242D03*
X010827Y009248D03*
X010827Y009254D03*
X010827Y009260D03*
X010827Y009266D03*
X010827Y009272D03*
X010827Y009278D03*
X010827Y009284D03*
X010827Y009290D03*
X010827Y009295D03*
X010827Y009301D03*
X010827Y009307D03*
X010827Y009313D03*
X010827Y009319D03*
X010827Y009325D03*
X010827Y009331D03*
X010827Y009337D03*
X010827Y009343D03*
X010827Y009349D03*
X010827Y009354D03*
X010827Y009360D03*
X010827Y009366D03*
X010827Y009372D03*
X010827Y009378D03*
X010827Y009384D03*
X010827Y009390D03*
X010827Y009396D03*
X010827Y009402D03*
X010827Y009408D03*
X010827Y009414D03*
X010827Y009419D03*
X010827Y009425D03*
X010827Y009431D03*
X010827Y009437D03*
X010827Y009443D03*
X010827Y009449D03*
X010827Y009455D03*
X010827Y009461D03*
X010827Y009467D03*
X010827Y009473D03*
X010827Y009479D03*
X010827Y009484D03*
X010827Y009490D03*
X010827Y009496D03*
X010709Y009632D03*
X010590Y009496D03*
X010590Y009490D03*
X010590Y009484D03*
X010590Y009479D03*
X010585Y009467D03*
X010585Y009461D03*
X010585Y009455D03*
X010585Y009449D03*
X010585Y009443D03*
X010585Y009437D03*
X010585Y009431D03*
X011323Y009620D03*
X011323Y009626D03*
X011323Y009632D03*
D18*
X011529Y009360D03*
X011529Y009354D03*
X011529Y009349D03*
X011370Y009201D03*
X011370Y009195D03*
X011370Y009189D03*
X009982Y008652D03*
X009929Y008291D03*
X010774Y007961D03*
X009333Y009349D03*
X009333Y009354D03*
X009333Y009360D03*
X009173Y009201D03*
X009173Y009195D03*
X009173Y009189D03*
X012876Y008652D03*
D19*
X012873Y008669D03*
X012961Y008575D03*
X012164Y008575D03*
X012164Y008569D03*
X012164Y008563D03*
X011337Y009012D03*
X011337Y009018D03*
X011337Y009024D03*
X011562Y009532D03*
X011562Y009538D03*
X011562Y009543D03*
X012099Y009532D03*
X010800Y009532D03*
X009985Y009532D03*
X009985Y009538D03*
X009985Y009526D03*
X009985Y009520D03*
X009365Y009526D03*
X009365Y009532D03*
X009365Y009538D03*
X009141Y009024D03*
X009141Y009018D03*
X009141Y009012D03*
X010074Y008575D03*
X010080Y008398D03*
X009985Y007961D03*
D20*
X014473Y009632D03*
X015017Y009242D03*
X015017Y007967D03*
D21*
X012876Y007967D03*
X012793Y008055D03*
X012161Y008528D03*
X011352Y008356D03*
X011346Y009059D03*
X011346Y009065D03*
X011346Y009071D03*
X011553Y009479D03*
X011553Y009484D03*
X011553Y009490D03*
X009899Y008055D03*
X009149Y009059D03*
X009149Y009065D03*
X009149Y009071D03*
X009356Y009479D03*
X009356Y009484D03*
X009356Y009490D03*
D22*
X009377Y009597D03*
X009377Y009603D03*
X009985Y009591D03*
X009985Y009585D03*
X009985Y009579D03*
X009985Y009573D03*
X010593Y009508D03*
X010593Y009502D03*
X010599Y009514D03*
X010818Y009514D03*
X010824Y009508D03*
X010824Y009502D03*
X010824Y009047D03*
X010824Y009041D03*
X010818Y009036D03*
X010706Y008917D03*
X010593Y009041D03*
X010593Y009047D03*
X010605Y008551D03*
X010599Y008545D03*
X010599Y008540D03*
X010605Y008079D03*
X010109Y008103D03*
X010103Y008091D03*
X010103Y008085D03*
X009873Y008079D03*
X009873Y008073D03*
X009867Y008232D03*
X009867Y008238D03*
X009873Y008244D03*
X009861Y008510D03*
X009861Y008516D03*
X009861Y008522D03*
X009867Y008534D03*
X009867Y008540D03*
X010091Y008551D03*
X010091Y008557D03*
X010097Y008545D03*
X010097Y008421D03*
X009129Y008947D03*
X009129Y008953D03*
X009129Y008959D03*
X011326Y008959D03*
X011326Y008953D03*
X011326Y008947D03*
X011326Y008551D03*
X011320Y008540D03*
X011320Y008392D03*
X011326Y008380D03*
X011349Y008132D03*
X011343Y008114D03*
X011337Y008097D03*
X011332Y008079D03*
X011326Y008061D03*
X011320Y008043D03*
X011320Y008038D03*
X011314Y008026D03*
X011314Y008020D03*
X011308Y008008D03*
X011308Y008002D03*
X011302Y007990D03*
X011302Y007984D03*
X011296Y007973D03*
X011296Y007967D03*
X012164Y008616D03*
X012164Y008622D03*
X012164Y008628D03*
X012082Y009036D03*
X012076Y009041D03*
X012076Y009047D03*
X012306Y009047D03*
X012306Y009041D03*
X012306Y009502D03*
X012306Y009508D03*
X012300Y009514D03*
X012082Y009514D03*
X012076Y009508D03*
X012076Y009502D03*
X011574Y009597D03*
X011574Y009603D03*
X011574Y009608D03*
X012767Y008551D03*
X012767Y008545D03*
X012761Y008540D03*
X012761Y008534D03*
X012979Y008551D03*
X012979Y008557D03*
X012985Y008545D03*
X012985Y008540D03*
X012985Y008534D03*
X012985Y008097D03*
X012985Y008091D03*
X012985Y008085D03*
X012979Y008079D03*
X012979Y008073D03*
X012767Y008079D03*
X012767Y008085D03*
X012761Y008091D03*
X012761Y008097D03*
D23*
X012873Y008646D03*
X014249Y008870D03*
X014249Y008876D03*
X014249Y008882D03*
X014249Y008888D03*
X014249Y008894D03*
X014249Y008900D03*
X014249Y008906D03*
X014249Y008912D03*
X014249Y008917D03*
X015778Y008917D03*
X015778Y008912D03*
X015778Y008906D03*
X015778Y008900D03*
X015778Y008894D03*
X015778Y008888D03*
X015778Y008882D03*
X015778Y008876D03*
X015778Y008870D03*
X015778Y008864D03*
X015778Y008858D03*
X015778Y008923D03*
X015778Y008929D03*
X010765Y007967D03*
D24*
X009982Y007967D03*
X009982Y008664D03*
X010709Y008929D03*
X011352Y009095D03*
X011352Y009101D03*
X011352Y009106D03*
X011547Y009449D03*
X011547Y009455D03*
X011547Y009461D03*
X012191Y009620D03*
X012191Y008929D03*
X012161Y008504D03*
X012161Y008498D03*
X010709Y009620D03*
X009988Y009461D03*
X009350Y009455D03*
X009350Y009449D03*
X009155Y009101D03*
X009155Y009095D03*
D25*
X014470Y009366D03*
X014470Y009372D03*
X014470Y009378D03*
X014470Y009384D03*
X014470Y009390D03*
X014470Y009396D03*
X014470Y009402D03*
X014470Y009408D03*
X014470Y009414D03*
X014470Y009419D03*
X014470Y009425D03*
X014470Y009431D03*
X014470Y009437D03*
X014470Y009443D03*
X014470Y009449D03*
X014470Y009455D03*
X014470Y009461D03*
X014470Y009467D03*
X014470Y009473D03*
X014470Y009479D03*
X014470Y009484D03*
X014470Y009490D03*
X014470Y009496D03*
X014470Y009502D03*
X014470Y009508D03*
X014470Y009514D03*
X014470Y009520D03*
X014470Y009526D03*
X014470Y009532D03*
X014470Y009538D03*
X014470Y009543D03*
X014470Y009549D03*
X014470Y009555D03*
X014470Y009561D03*
X014470Y009567D03*
X014470Y009573D03*
X014470Y009579D03*
X014470Y009585D03*
X014470Y009591D03*
X014470Y009597D03*
X014470Y009603D03*
X014470Y009608D03*
X014470Y009614D03*
X014470Y009620D03*
X014470Y009626D03*
X015014Y009236D03*
X015014Y009230D03*
X015014Y009225D03*
X015014Y009219D03*
X015014Y009213D03*
X015014Y009207D03*
X015014Y009201D03*
X015014Y009195D03*
X015014Y009189D03*
X015014Y009183D03*
X015014Y009177D03*
X015014Y009171D03*
X015014Y009166D03*
X015014Y009160D03*
X015014Y009154D03*
X015014Y009148D03*
X015014Y009142D03*
X015014Y009136D03*
X015014Y009130D03*
X015014Y009124D03*
X015014Y009118D03*
X015014Y009112D03*
X015014Y009106D03*
X015014Y009101D03*
X015014Y009095D03*
X015014Y009089D03*
X015014Y009083D03*
X015014Y009077D03*
X015014Y009071D03*
X015014Y009065D03*
X015014Y009059D03*
X015014Y009053D03*
X015014Y009047D03*
X015014Y009041D03*
X015014Y009036D03*
X015014Y009030D03*
X015014Y009024D03*
X015014Y009018D03*
X015014Y008770D03*
X015014Y008764D03*
X015014Y008758D03*
X015014Y008752D03*
X015014Y008746D03*
X015014Y008740D03*
X015014Y008734D03*
X015014Y008729D03*
X015014Y008723D03*
X015014Y008717D03*
X015014Y008711D03*
X015014Y008705D03*
X015014Y008699D03*
X015014Y008693D03*
X015014Y008687D03*
X015014Y008681D03*
X015014Y008675D03*
X015014Y008669D03*
X015014Y008664D03*
X015014Y008658D03*
X015014Y008652D03*
X015014Y008646D03*
X015014Y008640D03*
X015014Y008634D03*
X015014Y008628D03*
X015014Y008622D03*
X015014Y008616D03*
X015014Y008610D03*
X015014Y008604D03*
X015014Y008599D03*
X015014Y008593D03*
X015014Y008587D03*
X015014Y008581D03*
X015014Y008575D03*
X015014Y008569D03*
X015014Y008563D03*
X015014Y008557D03*
X015014Y008551D03*
X015014Y008545D03*
X015014Y008540D03*
X015014Y008534D03*
X015014Y008528D03*
X015014Y008522D03*
X015014Y008516D03*
X015014Y008510D03*
X015014Y008504D03*
X015014Y008498D03*
X015014Y008492D03*
X015014Y008486D03*
X015014Y008480D03*
X015014Y008475D03*
X015014Y008469D03*
X015014Y008463D03*
X015014Y008457D03*
X015014Y008451D03*
X015014Y008445D03*
X015014Y008439D03*
X015014Y008433D03*
X015014Y008085D03*
X015014Y008079D03*
X015014Y008073D03*
X015014Y008067D03*
X015014Y008061D03*
X015014Y008055D03*
X015014Y008049D03*
X015014Y008043D03*
X015014Y008038D03*
X015014Y008032D03*
X015014Y008026D03*
X015014Y008020D03*
X015014Y008014D03*
X015014Y008008D03*
X015014Y008002D03*
X015014Y007996D03*
X015014Y007990D03*
X015014Y007984D03*
X015014Y007979D03*
X015014Y007973D03*
D26*
X015020Y008091D03*
X015020Y008097D03*
X015020Y008103D03*
X015020Y008108D03*
X015020Y008114D03*
X015020Y008120D03*
X015020Y008126D03*
X015020Y008132D03*
X015020Y008138D03*
X015020Y008144D03*
X015020Y008150D03*
X015020Y008156D03*
X015020Y008162D03*
X015020Y008167D03*
X015020Y008173D03*
X015020Y008179D03*
X015020Y008185D03*
X015020Y008191D03*
X015020Y008197D03*
X015020Y008203D03*
X015020Y008209D03*
X015020Y008215D03*
X015020Y008221D03*
X015020Y008227D03*
X015020Y008232D03*
X015020Y008238D03*
X015020Y008244D03*
X015020Y008250D03*
X015020Y008256D03*
X015020Y008262D03*
X015020Y008268D03*
X015020Y008274D03*
X015020Y008280D03*
X015020Y008286D03*
X015020Y008291D03*
X015020Y008297D03*
X015020Y008303D03*
X015020Y008309D03*
X015020Y008315D03*
X015020Y008321D03*
X015020Y008327D03*
X015020Y008333D03*
X015020Y008339D03*
X015020Y008345D03*
X015020Y008351D03*
X015020Y008356D03*
X015020Y008362D03*
X015020Y008368D03*
X015020Y008374D03*
X015020Y008380D03*
X015020Y008386D03*
X015020Y008392D03*
X015020Y008398D03*
X015020Y008404D03*
X015020Y008410D03*
X015020Y008416D03*
X015020Y008421D03*
X015020Y008427D03*
X015374Y008427D03*
X015374Y008421D03*
X015374Y008416D03*
X015374Y008410D03*
X015374Y008404D03*
X015374Y008398D03*
X015374Y008392D03*
X015374Y008386D03*
X015374Y008380D03*
X015374Y008374D03*
X015374Y008368D03*
X015374Y008362D03*
X015374Y008356D03*
X015374Y008351D03*
X015374Y008345D03*
X015374Y008339D03*
X015374Y008333D03*
X015374Y008327D03*
X015374Y008321D03*
X015374Y008315D03*
X015374Y008309D03*
X015374Y008303D03*
X015374Y008297D03*
X015374Y008291D03*
X015374Y008286D03*
X015374Y008280D03*
X015374Y008274D03*
X015374Y008268D03*
X015374Y008262D03*
X015374Y008256D03*
X015374Y008250D03*
X015374Y008244D03*
X015374Y008238D03*
X015374Y008232D03*
X015374Y008227D03*
X015374Y008221D03*
X015374Y008215D03*
X015374Y008209D03*
X015374Y008203D03*
X015374Y008197D03*
X015374Y008191D03*
X015374Y008185D03*
X015374Y008179D03*
X015374Y008173D03*
X015374Y008167D03*
X015374Y008162D03*
X015374Y008156D03*
X015374Y008150D03*
X015374Y008144D03*
X015374Y008138D03*
X015374Y008132D03*
X015374Y008126D03*
X015374Y008120D03*
X015374Y008114D03*
X015374Y008108D03*
X015374Y008103D03*
X015374Y008097D03*
X015374Y008091D03*
X014659Y008091D03*
X014659Y008097D03*
X014659Y008103D03*
X014659Y008108D03*
X014659Y008114D03*
X014659Y008120D03*
X014659Y008126D03*
X014659Y008132D03*
X014659Y008138D03*
X014659Y008144D03*
X014659Y008150D03*
X014659Y008156D03*
X014659Y008162D03*
X014659Y008167D03*
X014659Y008173D03*
X014659Y008179D03*
X014659Y008185D03*
X014659Y008191D03*
X014659Y008197D03*
X014659Y008203D03*
X014659Y008209D03*
X014659Y008215D03*
X014659Y008221D03*
X014659Y008227D03*
X014659Y008232D03*
X014659Y008238D03*
X014659Y008244D03*
X014659Y008250D03*
X014659Y008256D03*
X014659Y008262D03*
X014659Y008268D03*
X014659Y008274D03*
X014659Y008280D03*
X014659Y008286D03*
X014659Y008291D03*
X014659Y008297D03*
X014659Y008303D03*
X014659Y008309D03*
X014659Y008315D03*
X014659Y008321D03*
X014659Y008327D03*
X014659Y008333D03*
X014659Y008339D03*
X014659Y008345D03*
X014659Y008351D03*
X014659Y008356D03*
X014659Y008362D03*
X014659Y008368D03*
X014659Y008374D03*
X014659Y008380D03*
X014659Y008386D03*
X014659Y008392D03*
X014659Y008398D03*
X014659Y008404D03*
X014659Y008410D03*
X014659Y008416D03*
X014659Y008421D03*
X014659Y008427D03*
X012876Y007973D03*
X012161Y008475D03*
X011358Y009124D03*
X011358Y009130D03*
X011358Y009136D03*
X011541Y009414D03*
X011541Y009419D03*
X011541Y009425D03*
X010785Y008675D03*
X009911Y008280D03*
X009161Y009124D03*
X009161Y009130D03*
X009161Y009136D03*
X009344Y009414D03*
X009344Y009419D03*
X009344Y009425D03*
D27*
X009271Y009325D03*
X009271Y009319D03*
X009265Y009307D03*
X009265Y009301D03*
X009259Y009290D03*
X009253Y009278D03*
X009253Y009272D03*
X009247Y009260D03*
X009247Y009254D03*
X009241Y009242D03*
X009241Y009236D03*
X009235Y009225D03*
X009383Y009626D03*
X009383Y009632D03*
X009985Y009614D03*
X009985Y009608D03*
X009985Y009603D03*
X009985Y009597D03*
X009908Y009272D03*
X009902Y009242D03*
X009897Y009219D03*
X009897Y009213D03*
X009891Y009195D03*
X009891Y009189D03*
X009891Y009183D03*
X009867Y009065D03*
X009861Y009053D03*
X009861Y009047D03*
X009861Y009041D03*
X009855Y009024D03*
X009855Y009018D03*
X009855Y009012D03*
X009849Y008994D03*
X009849Y008988D03*
X009843Y008965D03*
X009843Y008959D03*
X009837Y008935D03*
X010121Y008988D03*
X010121Y008994D03*
X010121Y009000D03*
X010115Y009018D03*
X010115Y009024D03*
X010115Y009030D03*
X010109Y009041D03*
X010109Y009047D03*
X010109Y009053D03*
X010109Y009059D03*
X010103Y009065D03*
X010127Y008971D03*
X010127Y008965D03*
X010133Y008935D03*
X010080Y009189D03*
X010080Y009195D03*
X010074Y009219D03*
X010068Y009248D03*
X010587Y009077D03*
X010587Y009473D03*
X011432Y009230D03*
X011432Y009225D03*
X011438Y009242D03*
X011444Y009254D03*
X011444Y009260D03*
X011450Y009272D03*
X011450Y009278D03*
X011456Y009290D03*
X011456Y009295D03*
X011461Y009307D03*
X011461Y009313D03*
X011467Y009319D03*
X011467Y009325D03*
X011580Y009626D03*
X011580Y009632D03*
X012312Y009473D03*
X012312Y009467D03*
X012312Y009083D03*
X012312Y009077D03*
X012164Y008652D03*
X012164Y008646D03*
X012164Y008640D03*
X012082Y008291D03*
X012076Y008268D03*
X012076Y008262D03*
X012070Y008238D03*
X012070Y008232D03*
X012070Y008227D03*
X012064Y008215D03*
X012040Y008103D03*
X012040Y008097D03*
X012040Y008091D03*
X012040Y008085D03*
X012034Y008073D03*
X012034Y008067D03*
X012034Y008061D03*
X012028Y008043D03*
X012028Y008038D03*
X012028Y008032D03*
X012023Y008014D03*
X012023Y008008D03*
X012017Y007984D03*
X012017Y007979D03*
X012294Y008049D03*
X012294Y008055D03*
X012294Y008061D03*
X012288Y008079D03*
X012288Y008085D03*
X012288Y008091D03*
X012282Y008103D03*
X012282Y008108D03*
X012300Y008032D03*
X012300Y008026D03*
X012306Y008002D03*
X012306Y007996D03*
X012312Y007973D03*
X012259Y008227D03*
X012259Y008232D03*
X012253Y008256D03*
X012247Y008286D03*
X012761Y008162D03*
X012761Y008469D03*
X012873Y008675D03*
X011391Y008256D03*
X011385Y008244D03*
X011385Y008238D03*
X011379Y008221D03*
X011373Y008203D03*
X011367Y008185D03*
X011361Y008167D03*
X011355Y008150D03*
X011314Y008421D03*
X011314Y008510D03*
X011320Y008917D03*
X011320Y008923D03*
X010593Y008504D03*
X010593Y008498D03*
X010593Y008144D03*
X010593Y008138D03*
X010593Y008132D03*
X009861Y008132D03*
X009861Y008138D03*
X009861Y008144D03*
X009861Y008150D03*
X009861Y008179D03*
X009861Y008185D03*
X009861Y008469D03*
X009123Y008917D03*
X009123Y008923D03*
D28*
X009982Y008640D03*
X009994Y008339D03*
X009976Y008327D03*
X009970Y008321D03*
X009982Y007990D03*
X010756Y007973D03*
X010709Y008953D03*
X010709Y009597D03*
X012191Y009597D03*
X012191Y008953D03*
X012876Y007996D03*
X014258Y008829D03*
X014258Y008835D03*
X014258Y008959D03*
X015770Y008959D03*
X015770Y008965D03*
X015770Y008829D03*
X015770Y008823D03*
D29*
X012191Y008935D03*
X012191Y009614D03*
X011535Y009390D03*
X011535Y009384D03*
X011364Y009171D03*
X011364Y009166D03*
X011364Y009160D03*
X011512Y008675D03*
X010709Y008935D03*
X010626Y009225D03*
X010626Y009230D03*
X010626Y009236D03*
X010626Y009242D03*
X010626Y009248D03*
X010626Y009254D03*
X010626Y009260D03*
X010626Y009266D03*
X010626Y009272D03*
X010626Y009278D03*
X010626Y009284D03*
X010626Y009290D03*
X010626Y009295D03*
X010626Y009301D03*
X010626Y009307D03*
X010709Y009614D03*
X009982Y008658D03*
X009982Y007973D03*
X009167Y009160D03*
X009167Y009166D03*
X009338Y009378D03*
X009338Y009384D03*
X009338Y009390D03*
D30*
X009336Y009372D03*
X009336Y009366D03*
X009170Y009183D03*
X009170Y009177D03*
X009170Y009171D03*
X010038Y008368D03*
X011367Y009177D03*
X011367Y009183D03*
X011532Y009366D03*
X011532Y009372D03*
X011532Y009378D03*
X012879Y007979D03*
D31*
X012876Y008002D03*
X012191Y008959D03*
X012191Y009591D03*
X010709Y009591D03*
X010709Y008959D03*
X010750Y008658D03*
X009982Y008634D03*
X010750Y007979D03*
X014264Y008817D03*
X014264Y008977D03*
X015764Y008977D03*
X015764Y008811D03*
D32*
X011526Y009337D03*
X011526Y009343D03*
X011373Y009213D03*
X011373Y009207D03*
X010706Y008941D03*
X010026Y008362D03*
X009938Y008297D03*
X009985Y007979D03*
X009176Y009207D03*
X009176Y009213D03*
X009330Y009337D03*
X009330Y009343D03*
D33*
X010018Y008356D03*
X010768Y008669D03*
X010709Y009608D03*
X012191Y009608D03*
X012191Y008941D03*
X012876Y007984D03*
D34*
X012876Y008008D03*
X012191Y008965D03*
X012191Y009585D03*
X011476Y008658D03*
X011476Y008286D03*
X011476Y008280D03*
X011476Y008274D03*
X010744Y007984D03*
X009982Y008628D03*
X010709Y008965D03*
X010709Y009585D03*
X014270Y008988D03*
X014270Y008805D03*
X015758Y008799D03*
X015758Y008988D03*
D35*
X015775Y008947D03*
X015775Y008941D03*
X015775Y008935D03*
X015775Y008853D03*
X015775Y008847D03*
X014252Y008853D03*
X014252Y008858D03*
X014252Y008864D03*
X014252Y008923D03*
X014252Y008929D03*
X014252Y008935D03*
X012876Y007990D03*
X012191Y008947D03*
X012191Y009603D03*
X011494Y008669D03*
X010709Y008947D03*
X010709Y009603D03*
X009982Y008646D03*
X009947Y008303D03*
X009982Y007984D03*
D36*
X009985Y008002D03*
X010741Y007990D03*
X010741Y008646D03*
X011473Y008652D03*
X011473Y008268D03*
X011473Y008262D03*
X012873Y008622D03*
X014273Y008799D03*
X015755Y008994D03*
D37*
X015749Y009000D03*
X015749Y008788D03*
X014278Y009000D03*
X012873Y008610D03*
X012873Y008020D03*
X011467Y008297D03*
X011467Y008646D03*
X010735Y008634D03*
X010735Y007996D03*
X009985Y008014D03*
X009979Y008616D03*
D38*
X009985Y007996D03*
X010747Y008652D03*
X012873Y008628D03*
X014267Y008811D03*
X014267Y008982D03*
X014267Y008427D03*
X014267Y008421D03*
X014267Y008416D03*
X014267Y008410D03*
X014267Y008404D03*
X014267Y008398D03*
X014267Y008392D03*
X014267Y008386D03*
X014267Y008380D03*
X014267Y008374D03*
X014267Y008368D03*
X014267Y008362D03*
X014267Y008356D03*
X014267Y008351D03*
X014267Y008345D03*
X014267Y008339D03*
X014267Y008333D03*
X014267Y008327D03*
X014267Y008321D03*
X014267Y008315D03*
X014267Y008309D03*
X014267Y008303D03*
X014267Y008297D03*
X014267Y008291D03*
X014267Y008286D03*
X014267Y008280D03*
X014267Y008274D03*
X014267Y008268D03*
X014267Y008262D03*
X014267Y008256D03*
X014267Y008250D03*
X014267Y008244D03*
X014267Y008238D03*
X014267Y008232D03*
X014267Y008227D03*
X014267Y008221D03*
X014267Y008215D03*
X014267Y008209D03*
X014267Y008203D03*
X014267Y008197D03*
X014267Y008191D03*
X014267Y008185D03*
X014267Y008179D03*
X014267Y008173D03*
X014267Y008167D03*
X014267Y008162D03*
X014267Y008156D03*
X014267Y008150D03*
X014267Y008144D03*
X014267Y008138D03*
X014267Y008132D03*
X014267Y008126D03*
X014267Y008120D03*
X014267Y008114D03*
X014267Y008108D03*
X014267Y008103D03*
X014267Y008097D03*
X014267Y008091D03*
X015761Y008805D03*
X015761Y008982D03*
D39*
X014281Y008788D03*
X012876Y008026D03*
X012191Y008977D03*
X012191Y009567D03*
X012191Y009573D03*
X011464Y008640D03*
X010732Y008628D03*
X010709Y008977D03*
X010709Y009573D03*
X009982Y008610D03*
X010732Y008002D03*
D40*
X010729Y008008D03*
X010729Y008622D03*
X010706Y008982D03*
X010706Y009567D03*
X011461Y008634D03*
X011461Y008303D03*
X012194Y008982D03*
X012873Y008604D03*
X014284Y009006D03*
X015743Y009006D03*
X009985Y008020D03*
D41*
X009982Y008008D03*
X009982Y008622D03*
X010738Y008640D03*
X010709Y008971D03*
X010709Y009579D03*
X012191Y009579D03*
X012191Y008971D03*
X012876Y008616D03*
X012876Y008014D03*
X011470Y008291D03*
X014275Y008793D03*
X014275Y008994D03*
X015752Y008793D03*
D42*
X015740Y008782D03*
X014287Y008782D03*
X012876Y008599D03*
X012876Y008038D03*
X012876Y008032D03*
X012161Y008209D03*
X011459Y008309D03*
X011459Y008628D03*
X010726Y008616D03*
X010709Y008988D03*
X010709Y009561D03*
X009982Y008604D03*
X010726Y008020D03*
X010726Y008014D03*
X012191Y008988D03*
X012191Y009561D03*
D43*
X012873Y008593D03*
X012873Y008587D03*
X012164Y008203D03*
X012164Y008197D03*
X012164Y008191D03*
X011456Y008315D03*
X011456Y008622D03*
X010723Y008610D03*
X010723Y008026D03*
X009985Y008026D03*
X009985Y008032D03*
X009979Y008599D03*
X009985Y009148D03*
X009985Y009154D03*
X009985Y009160D03*
X009985Y009166D03*
X015737Y009012D03*
D44*
X014293Y009012D03*
X012882Y009018D03*
X012191Y009000D03*
X012191Y008994D03*
X012191Y009549D03*
X012191Y009555D03*
X011453Y008616D03*
X011453Y008321D03*
X010720Y008599D03*
X010720Y008604D03*
X010709Y008994D03*
X010709Y009000D03*
X010709Y009549D03*
X010709Y009555D03*
X009982Y008593D03*
X010720Y008038D03*
X010720Y008032D03*
X012161Y008185D03*
X012876Y008049D03*
X012876Y008043D03*
D45*
X012873Y008581D03*
X012879Y008917D03*
X012879Y008923D03*
X012879Y008929D03*
X012879Y008935D03*
X012879Y008941D03*
X012879Y008947D03*
X012879Y008953D03*
X012879Y008959D03*
X012879Y008965D03*
X012879Y008971D03*
X012879Y008977D03*
X012879Y008982D03*
X012879Y008988D03*
X012879Y008994D03*
X012879Y009000D03*
X012879Y009006D03*
X012879Y009012D03*
X012164Y008179D03*
X012164Y008173D03*
X012164Y008167D03*
X011450Y008327D03*
X011450Y008333D03*
X011450Y008604D03*
X011450Y008610D03*
X010717Y008593D03*
X010717Y008587D03*
X010717Y008049D03*
X010717Y008043D03*
X009985Y008038D03*
X009979Y008587D03*
X009985Y009118D03*
X009985Y009124D03*
X009985Y009130D03*
X009985Y009136D03*
X009985Y009142D03*
X014296Y008776D03*
X015731Y008776D03*
D46*
X012191Y009006D03*
X012191Y009012D03*
X012191Y009538D03*
X012191Y009543D03*
X011447Y008599D03*
X011447Y008339D03*
X010714Y008581D03*
X010709Y009006D03*
X010709Y009012D03*
X010709Y009538D03*
X010709Y009543D03*
X009982Y008581D03*
X009988Y008049D03*
X009988Y008043D03*
X012161Y008156D03*
X012161Y008162D03*
D47*
X012164Y008534D03*
X012164Y008540D03*
X012164Y008545D03*
X012956Y008055D03*
X011349Y008575D03*
X011343Y009047D03*
X011343Y009053D03*
X011556Y009496D03*
X011556Y009502D03*
X011556Y009508D03*
X010629Y008575D03*
X009891Y008575D03*
X009897Y008268D03*
X009147Y009041D03*
X009147Y009047D03*
X009147Y009053D03*
X009359Y009496D03*
X009359Y009502D03*
X009359Y009508D03*
X009985Y009508D03*
X009985Y009502D03*
X009985Y009496D03*
X009985Y009490D03*
D48*
X009985Y009484D03*
X009985Y009479D03*
X009985Y009473D03*
X009985Y009467D03*
X009353Y009467D03*
X009353Y009473D03*
X009353Y009461D03*
X009152Y009089D03*
X009152Y009083D03*
X009152Y009077D03*
X009902Y008274D03*
X010062Y008386D03*
X010074Y008055D03*
X010635Y008055D03*
X011349Y009077D03*
X011349Y009083D03*
X011349Y009089D03*
X011550Y009467D03*
X011550Y009473D03*
X012164Y008522D03*
X012164Y008516D03*
X012164Y008510D03*
X012873Y008664D03*
D49*
X012778Y008569D03*
X012773Y008563D03*
X012773Y008067D03*
X012164Y008587D03*
X012164Y008593D03*
X012164Y008599D03*
X011332Y008563D03*
X011332Y008982D03*
X011332Y008988D03*
X011568Y009561D03*
X011568Y009567D03*
X011568Y009573D03*
X010605Y009024D03*
X010617Y008569D03*
X010611Y008563D03*
X010086Y008404D03*
X009879Y008563D03*
X009873Y008557D03*
X009885Y008061D03*
X010091Y008067D03*
X009135Y008977D03*
X009135Y008982D03*
X009135Y008988D03*
X009371Y009561D03*
X009371Y009567D03*
X009371Y009573D03*
X009985Y009561D03*
X009985Y009555D03*
X009985Y009549D03*
X009985Y009543D03*
D50*
X009988Y009567D03*
X009374Y009579D03*
X009374Y009585D03*
X009374Y009591D03*
X009132Y008971D03*
X009132Y008965D03*
X009870Y008551D03*
X009870Y008545D03*
X010088Y008563D03*
X010094Y008416D03*
X010088Y008410D03*
X009876Y008250D03*
X009882Y008067D03*
X010100Y008073D03*
X010100Y008079D03*
X010608Y008073D03*
X010614Y008067D03*
X010608Y008557D03*
X010602Y009030D03*
X010596Y009036D03*
X010815Y009030D03*
X010815Y009520D03*
X010602Y009520D03*
X011329Y008977D03*
X011329Y008971D03*
X011329Y008965D03*
X011329Y008557D03*
X011329Y008374D03*
X011335Y008368D03*
X012161Y008604D03*
X012161Y008610D03*
X012085Y009030D03*
X012297Y009030D03*
X012303Y009036D03*
X012297Y009520D03*
X012085Y009520D03*
X011571Y009579D03*
X011571Y009585D03*
X011571Y009591D03*
X012770Y008557D03*
X012976Y008563D03*
X012976Y008067D03*
X012770Y008073D03*
D51*
X012873Y008634D03*
X011485Y008664D03*
X009985Y008333D03*
X014261Y008823D03*
X014261Y008965D03*
X014261Y008971D03*
X015767Y008971D03*
X015767Y008817D03*
X015767Y008427D03*
X015767Y008421D03*
X015767Y008416D03*
X015767Y008410D03*
X015767Y008404D03*
X015767Y008398D03*
X015767Y008392D03*
X015767Y008386D03*
X015767Y008380D03*
X015767Y008374D03*
X015767Y008368D03*
X015767Y008362D03*
X015767Y008356D03*
X015767Y008351D03*
X015767Y008345D03*
X015767Y008339D03*
X015767Y008333D03*
X015767Y008327D03*
X015767Y008321D03*
X015767Y008315D03*
X015767Y008309D03*
X015767Y008303D03*
X015767Y008297D03*
X015767Y008291D03*
X015767Y008286D03*
X015767Y008280D03*
X015767Y008274D03*
X015767Y008268D03*
X015767Y008262D03*
X015767Y008256D03*
X015767Y008250D03*
X015767Y008244D03*
X015767Y008238D03*
X015767Y008232D03*
X015767Y008227D03*
X015767Y008221D03*
X015767Y008215D03*
X015767Y008209D03*
X015767Y008203D03*
X015767Y008197D03*
X015767Y008191D03*
X015767Y008185D03*
X015767Y008179D03*
X015767Y008173D03*
X015767Y008167D03*
X015767Y008162D03*
X015767Y008156D03*
X015767Y008150D03*
X015767Y008144D03*
X015767Y008138D03*
X015767Y008132D03*
X015767Y008126D03*
X015767Y008120D03*
X015767Y008114D03*
X015767Y008108D03*
X015767Y008103D03*
X015767Y008097D03*
X015767Y008091D03*
D52*
X012164Y008114D03*
X012164Y008120D03*
X012164Y008126D03*
X009985Y009071D03*
X009985Y009077D03*
X009985Y009083D03*
X009985Y009089D03*
D53*
X012161Y008132D03*
D54*
X012164Y008138D03*
X012164Y008144D03*
X012164Y008150D03*
X011444Y008345D03*
X011444Y008351D03*
X011444Y008581D03*
X011444Y008587D03*
X011444Y008593D03*
X009985Y009095D03*
X009985Y009101D03*
X009985Y009106D03*
X009985Y009112D03*
D55*
X009988Y009514D03*
X009362Y009514D03*
X009362Y009520D03*
X009144Y009036D03*
X009144Y009030D03*
X009982Y008669D03*
X010071Y008392D03*
X009888Y008262D03*
X010614Y009018D03*
X010709Y008923D03*
X010803Y009018D03*
X011340Y009030D03*
X011340Y009036D03*
X011340Y009041D03*
X011559Y009514D03*
X011559Y009520D03*
X011559Y009526D03*
X012191Y009626D03*
X012285Y009532D03*
X012285Y009018D03*
X012191Y008923D03*
X012096Y009018D03*
X012161Y008557D03*
X012161Y008551D03*
X012787Y008575D03*
X010709Y009626D03*
X010614Y009532D03*
D56*
X009985Y009431D03*
X009985Y009425D03*
X009985Y009419D03*
X009341Y009408D03*
X009341Y009402D03*
X009341Y009396D03*
X009164Y009154D03*
X009164Y009148D03*
X009164Y009142D03*
X009920Y008286D03*
X010044Y008374D03*
X011361Y009142D03*
X011361Y009148D03*
X011361Y009154D03*
X011538Y009396D03*
X011538Y009402D03*
X011538Y009408D03*
X012164Y008469D03*
X012164Y008463D03*
X012873Y008658D03*
D57*
X012873Y008640D03*
X014255Y008841D03*
X014255Y008847D03*
X014255Y008941D03*
X014255Y008947D03*
X014255Y008953D03*
X015773Y008953D03*
X015773Y008841D03*
X015773Y008835D03*
X010759Y008664D03*
X010009Y008351D03*
X010003Y008345D03*
X009961Y008315D03*
X009956Y008309D03*
D58*
X013812Y008356D03*
D59*
X013809Y008362D03*
X013809Y008368D03*
X013809Y008374D03*
X013809Y008380D03*
X013809Y008386D03*
X013809Y008392D03*
X013809Y008398D03*
X013809Y008404D03*
X013809Y008410D03*
X013809Y008416D03*
X013809Y008421D03*
X013809Y008427D03*
X013809Y008433D03*
X013809Y008439D03*
X013809Y008445D03*
X013809Y008451D03*
X013809Y008457D03*
X013809Y008463D03*
X013809Y008469D03*
X013809Y008475D03*
X013809Y008480D03*
X013809Y008486D03*
X013809Y008492D03*
X013809Y008498D03*
X013809Y008504D03*
X013809Y008510D03*
X013809Y008516D03*
X013809Y008522D03*
X013809Y008528D03*
X013809Y008534D03*
X013809Y008540D03*
X013809Y008545D03*
X013809Y008551D03*
X013809Y008557D03*
X013809Y008563D03*
X013809Y008569D03*
X013809Y008575D03*
X013809Y008581D03*
X013809Y008587D03*
X013809Y008593D03*
X013809Y008599D03*
X013809Y008604D03*
X013809Y008610D03*
X013809Y008616D03*
X013809Y008622D03*
X013809Y008628D03*
X013809Y008634D03*
X013809Y008640D03*
X013809Y008646D03*
X013809Y008652D03*
X013809Y008658D03*
X013809Y008664D03*
X013809Y008669D03*
X013809Y008675D03*
X013809Y008681D03*
X013809Y008687D03*
X013809Y008693D03*
X013809Y008699D03*
X013809Y008705D03*
X013809Y008711D03*
X013809Y008717D03*
X013809Y008723D03*
X013809Y008729D03*
X013809Y008734D03*
X013809Y008740D03*
X013809Y008746D03*
X013809Y008752D03*
X013809Y008758D03*
X013809Y008764D03*
X013809Y008770D03*
X013809Y008776D03*
X013809Y008782D03*
X013809Y008788D03*
X013809Y008793D03*
X013809Y008799D03*
X013809Y008805D03*
X013809Y008811D03*
X013809Y008817D03*
X013809Y008823D03*
X013809Y008829D03*
X013809Y008835D03*
X013809Y008841D03*
X013809Y008847D03*
X013809Y008853D03*
X013809Y008858D03*
X013809Y008864D03*
X013809Y008870D03*
X013809Y008876D03*
X013809Y008882D03*
X013809Y008888D03*
X013809Y008894D03*
X013809Y008900D03*
X013809Y008906D03*
X013809Y008912D03*
X013809Y008917D03*
X013809Y008923D03*
X013809Y008929D03*
X013809Y008935D03*
X013809Y008941D03*
X013809Y008947D03*
X013809Y008953D03*
X013809Y008959D03*
X013809Y008965D03*
X013809Y008971D03*
X013809Y008977D03*
X013809Y008982D03*
X013809Y008988D03*
X013809Y008994D03*
X013809Y009000D03*
X013809Y009006D03*
X013809Y009012D03*
X013809Y009018D03*
X013809Y009024D03*
X013809Y009030D03*
X013809Y009036D03*
X013809Y009041D03*
X013809Y009047D03*
X013809Y009053D03*
X013809Y009059D03*
X013809Y009065D03*
X013809Y009071D03*
X013809Y009077D03*
X013809Y009083D03*
X013809Y009089D03*
X013809Y009095D03*
X013809Y009101D03*
X013809Y009106D03*
X013809Y009112D03*
X013809Y009118D03*
X013809Y009124D03*
X013809Y009130D03*
X013809Y009136D03*
X013809Y009142D03*
X013809Y009148D03*
X013809Y009154D03*
X013809Y009160D03*
X013809Y009166D03*
X013809Y009171D03*
X013809Y009177D03*
X013809Y009183D03*
X013809Y009189D03*
X013809Y009195D03*
X013809Y009201D03*
X013809Y009207D03*
X013809Y009213D03*
X013809Y009219D03*
X013809Y009225D03*
X013809Y009230D03*
X013809Y009236D03*
X013809Y009242D03*
X013809Y009248D03*
X013809Y009254D03*
X013809Y009260D03*
X013809Y009266D03*
X013809Y009272D03*
X013809Y009278D03*
X013809Y009284D03*
X013809Y009290D03*
X013809Y009295D03*
X013809Y009301D03*
X013809Y009307D03*
X013809Y009313D03*
X013809Y009319D03*
X013809Y009325D03*
X013809Y009331D03*
X013809Y009337D03*
X013809Y009343D03*
X013809Y009349D03*
X013809Y009354D03*
X013809Y009360D03*
D60*
X012164Y008492D03*
X012164Y008486D03*
X012164Y008480D03*
X011355Y009112D03*
X011355Y009118D03*
X011544Y009431D03*
X011544Y009437D03*
X011544Y009443D03*
X009985Y009443D03*
X009985Y009437D03*
X009985Y009449D03*
X009985Y009455D03*
X009347Y009443D03*
X009347Y009437D03*
X009347Y009431D03*
X009158Y009118D03*
X009158Y009112D03*
X009158Y009106D03*
X010056Y008380D03*
D61*
X012161Y008675D03*
D62*
X012873Y008681D03*
D63*
X009982Y008681D03*
D64*
X015017Y008776D03*
D65*
X015014Y008782D03*
D66*
X015014Y008788D03*
D67*
X015014Y008793D03*
D68*
X015014Y008799D03*
D69*
X015017Y008805D03*
D70*
X015017Y008811D03*
X015017Y008977D03*
D71*
X015014Y008817D03*
D72*
X015014Y008823D03*
D73*
X015017Y008829D03*
X015017Y008965D03*
D74*
X015017Y008953D03*
X015017Y008835D03*
D75*
X015014Y008841D03*
X015014Y008947D03*
D76*
X015017Y008941D03*
X015017Y008853D03*
X015017Y008847D03*
D77*
X015014Y008858D03*
X015014Y008929D03*
X015014Y008935D03*
D78*
X015017Y008923D03*
X015017Y008917D03*
X015017Y008876D03*
X015017Y008870D03*
X015017Y008864D03*
D79*
X015014Y008882D03*
X015014Y008888D03*
X015014Y008894D03*
X015014Y008900D03*
X015014Y008906D03*
X015014Y008912D03*
D80*
X012191Y008912D03*
X012191Y009638D03*
X010709Y009638D03*
X010709Y008912D03*
D81*
X015014Y008959D03*
D82*
X015017Y008971D03*
D83*
X015014Y008982D03*
D84*
X015017Y008988D03*
D85*
X015017Y008994D03*
D86*
X015014Y009000D03*
D87*
X015014Y009006D03*
D88*
X015017Y009012D03*
M02*
