%
M48
M72
T01C0.0100
T02C0.0236
T03C0.0374
T04C0.1181
%
T01
X7430Y11360
X8530Y11160
X8530Y10410
X8530Y9160
X9230Y8810
X10080Y8010
X10230Y7760
X10480Y7610
X9730Y7360
X8880Y7110
X8880Y6410
X8030Y5160
X8530Y4410
X7030Y3160
X7530Y2660
X8530Y2660
X9230Y2910
X10530Y2910
X11780Y2910
X12530Y2810
X12780Y2910
X13530Y2910
X13830Y3710
X13030Y4235
X12530Y4260
X11780Y4260
X11530Y4010
X11030Y4660
X10530Y4660
X11580Y5660
X11280Y6160
X10780Y6410
X11780Y6910
X12530Y7460
X13280Y6910
X14280Y6869
X13280Y8160
X13380Y9160
X14030Y9160
X15030Y9060
X15030Y9410
X16280Y8910
X17030Y8910
X17030Y7660
X17830Y7060
X17030Y6410
X16280Y5660
X16280Y4410
X15280Y3410
X15030Y3160
X14780Y2910
X15530Y2910
X16530Y2660
X17530Y2660
X18030Y3160
X18780Y3160
X19530Y2660
X20030Y3160
X18530Y4410
X18530Y5660
X19780Y5660
X19280Y9160
X17730Y9960
X15880Y11860
X13530Y10260
X13030Y9660
X12780Y9910
X12080Y9960
X11230Y10160
X11080Y9760
X12030Y9160
X11780Y8160
X10780Y8444
X10380Y8810
X10530Y10910
X10530Y11910
X9480Y11910
X6280Y9810
X5980Y4960
X5230Y4610
X5030Y3160
X5530Y2660
X6030Y3160
X12780Y5660
T02
X5610Y9053
X7047Y8498
X7263Y9053
X7047Y6222
X7263Y5667
X5610Y5667
T03
X19880Y7863
X19880Y6957
T04
X6030Y11660
X19030Y11660
M30
