G75*
G70*
%OFA0B0*%
%FSLAX24Y24*%
%IPPOS*%
%LPD*%
%AMOC8*
5,1,8,0,0,1.08239X$1,22.5*
%
%ADD10C,0.0088*%
%ADD11R,0.0800X0.0700*%
%ADD12C,0.0200*%
%ADD13C,0.0030*%
%ADD14C,0.0100*%
%ADD15R,0.0787X0.2362*%
%ADD16R,0.0394X0.2362*%
%ADD17C,0.0000*%
%ADD18R,0.0600X0.0450*%
%ADD19R,0.0400X0.0700*%
%ADD20C,0.0075*%
%ADD21C,0.0071*%
%ADD22C,0.0035*%
%ADD23C,0.0001*%
%ADD24C,0.0236*%
%ADD25C,0.0081*%
%ADD26R,0.0591X0.0787*%
D10*
X008349Y007716D02*
X008611Y007716D01*
X008611Y007454D01*
X008349Y007454D01*
X008349Y007716D01*
X008349Y007541D02*
X008611Y007541D01*
X008611Y007628D02*
X008349Y007628D01*
X008349Y007715D02*
X008611Y007715D01*
X008949Y007716D02*
X009211Y007716D01*
X009211Y007454D01*
X008949Y007454D01*
X008949Y007716D01*
X008949Y007541D02*
X009211Y007541D01*
X009211Y007628D02*
X008949Y007628D01*
X008949Y007715D02*
X009211Y007715D01*
X009811Y007679D02*
X009811Y007941D01*
X009811Y007679D02*
X009549Y007679D01*
X009549Y007941D01*
X009811Y007941D01*
X009811Y007766D02*
X009549Y007766D01*
X009549Y007853D02*
X009811Y007853D01*
X009811Y007940D02*
X009549Y007940D01*
X009811Y008279D02*
X009811Y008541D01*
X009811Y008279D02*
X009549Y008279D01*
X009549Y008541D01*
X009811Y008541D01*
X009811Y008366D02*
X009549Y008366D01*
X009549Y008453D02*
X009811Y008453D01*
X009811Y008540D02*
X009549Y008540D01*
X005961Y010329D02*
X005699Y010329D01*
X005699Y010591D01*
X005961Y010591D01*
X005961Y010329D01*
X005961Y010416D02*
X005699Y010416D01*
X005699Y010503D02*
X005961Y010503D01*
X005961Y010590D02*
X005699Y010590D01*
X005361Y010329D02*
X005099Y010329D01*
X005099Y010591D01*
X005361Y010591D01*
X005361Y010329D01*
X005361Y010416D02*
X005099Y010416D01*
X005099Y010503D02*
X005361Y010503D01*
X005361Y010590D02*
X005099Y010590D01*
X011749Y004704D02*
X012011Y004704D01*
X011749Y004704D02*
X011749Y004966D01*
X012011Y004966D01*
X012011Y004704D01*
X012011Y004791D02*
X011749Y004791D01*
X011749Y004878D02*
X012011Y004878D01*
X012011Y004965D02*
X011749Y004965D01*
X012349Y004704D02*
X012611Y004704D01*
X012349Y004704D02*
X012349Y004966D01*
X012611Y004966D01*
X012611Y004704D01*
X012611Y004791D02*
X012349Y004791D01*
X012349Y004878D02*
X012611Y004878D01*
X012611Y004965D02*
X012349Y004965D01*
X015099Y005029D02*
X015099Y005291D01*
X015361Y005291D01*
X015361Y005029D01*
X015099Y005029D01*
X015099Y005116D02*
X015361Y005116D01*
X015361Y005203D02*
X015099Y005203D01*
X015099Y005290D02*
X015361Y005290D01*
X015099Y005629D02*
X015099Y005891D01*
X015361Y005891D01*
X015361Y005629D01*
X015099Y005629D01*
X015099Y005716D02*
X015361Y005716D01*
X015361Y005803D02*
X015099Y005803D01*
X015099Y005890D02*
X015361Y005890D01*
X015361Y006279D02*
X015361Y006541D01*
X015361Y006279D02*
X015099Y006279D01*
X015099Y006541D01*
X015361Y006541D01*
X015361Y006366D02*
X015099Y006366D01*
X015099Y006453D02*
X015361Y006453D01*
X015361Y006540D02*
X015099Y006540D01*
X015361Y006879D02*
X015361Y007141D01*
X015361Y006879D02*
X015099Y006879D01*
X015099Y007141D01*
X015361Y007141D01*
X015361Y006966D02*
X015099Y006966D01*
X015099Y007053D02*
X015361Y007053D01*
X015361Y007140D02*
X015099Y007140D01*
X015099Y007529D02*
X015099Y007791D01*
X015361Y007791D01*
X015361Y007529D01*
X015099Y007529D01*
X015099Y007616D02*
X015361Y007616D01*
X015361Y007703D02*
X015099Y007703D01*
X015099Y007790D02*
X015361Y007790D01*
X015099Y008129D02*
X015099Y008391D01*
X015361Y008391D01*
X015361Y008129D01*
X015099Y008129D01*
X015099Y008216D02*
X015361Y008216D01*
X015361Y008303D02*
X015099Y008303D01*
X015099Y008390D02*
X015361Y008390D01*
D11*
X016280Y008185D03*
X016280Y006485D03*
D12*
X013430Y006560D02*
X013430Y008360D01*
X013430Y006560D02*
X011630Y006560D01*
X011630Y008360D01*
X013430Y008360D01*
X013430Y006759D02*
X011630Y006759D01*
X011630Y006958D02*
X013430Y006958D01*
X013430Y007157D02*
X011630Y007157D01*
X011630Y007356D02*
X013430Y007356D01*
X013430Y007555D02*
X011630Y007555D01*
X011630Y007754D02*
X013430Y007754D01*
X013430Y007953D02*
X011630Y007953D01*
X011630Y008152D02*
X013430Y008152D01*
X013430Y008351D02*
X011630Y008351D01*
D13*
X011393Y008488D02*
X011029Y008488D01*
X011393Y008488D02*
X011393Y008400D01*
X011029Y008400D01*
X011029Y008488D01*
X011029Y008429D02*
X011393Y008429D01*
X011393Y008458D02*
X011029Y008458D01*
X011029Y008487D02*
X011393Y008487D01*
X011393Y008291D02*
X011029Y008291D01*
X011393Y008291D02*
X011393Y008203D01*
X011029Y008203D01*
X011029Y008291D01*
X011029Y008232D02*
X011393Y008232D01*
X011393Y008261D02*
X011029Y008261D01*
X011029Y008290D02*
X011393Y008290D01*
X011393Y008095D02*
X011029Y008095D01*
X011393Y008095D02*
X011393Y008007D01*
X011029Y008007D01*
X011029Y008095D01*
X011029Y008036D02*
X011393Y008036D01*
X011393Y008065D02*
X011029Y008065D01*
X011029Y008094D02*
X011393Y008094D01*
X011393Y007898D02*
X011029Y007898D01*
X011393Y007898D02*
X011393Y007810D01*
X011029Y007810D01*
X011029Y007898D01*
X011029Y007839D02*
X011393Y007839D01*
X011393Y007868D02*
X011029Y007868D01*
X011029Y007897D02*
X011393Y007897D01*
X011393Y007701D02*
X011029Y007701D01*
X011393Y007701D02*
X011393Y007613D01*
X011029Y007613D01*
X011029Y007701D01*
X011029Y007642D02*
X011393Y007642D01*
X011393Y007671D02*
X011029Y007671D01*
X011029Y007700D02*
X011393Y007700D01*
X011393Y007504D02*
X011029Y007504D01*
X011393Y007504D02*
X011393Y007416D01*
X011029Y007416D01*
X011029Y007504D01*
X011029Y007445D02*
X011393Y007445D01*
X011393Y007474D02*
X011029Y007474D01*
X011029Y007503D02*
X011393Y007503D01*
X011393Y007307D02*
X011029Y007307D01*
X011393Y007307D02*
X011393Y007219D01*
X011029Y007219D01*
X011029Y007307D01*
X011029Y007248D02*
X011393Y007248D01*
X011393Y007277D02*
X011029Y007277D01*
X011029Y007306D02*
X011393Y007306D01*
X011393Y007110D02*
X011029Y007110D01*
X011393Y007110D02*
X011393Y007022D01*
X011029Y007022D01*
X011029Y007110D01*
X011029Y007051D02*
X011393Y007051D01*
X011393Y007080D02*
X011029Y007080D01*
X011029Y007109D02*
X011393Y007109D01*
X011393Y006913D02*
X011029Y006913D01*
X011393Y006913D02*
X011393Y006825D01*
X011029Y006825D01*
X011029Y006913D01*
X011029Y006854D02*
X011393Y006854D01*
X011393Y006883D02*
X011029Y006883D01*
X011029Y006912D02*
X011393Y006912D01*
X011393Y006717D02*
X011029Y006717D01*
X011393Y006717D02*
X011393Y006629D01*
X011029Y006629D01*
X011029Y006717D01*
X011029Y006658D02*
X011393Y006658D01*
X011393Y006687D02*
X011029Y006687D01*
X011029Y006716D02*
X011393Y006716D01*
X011393Y006520D02*
X011029Y006520D01*
X011393Y006520D02*
X011393Y006432D01*
X011029Y006432D01*
X011029Y006520D01*
X011029Y006461D02*
X011393Y006461D01*
X011393Y006490D02*
X011029Y006490D01*
X011029Y006519D02*
X011393Y006519D01*
X011502Y006323D02*
X011502Y005959D01*
X011502Y006323D02*
X011590Y006323D01*
X011590Y005959D01*
X011502Y005959D01*
X011502Y005988D02*
X011590Y005988D01*
X011590Y006017D02*
X011502Y006017D01*
X011502Y006046D02*
X011590Y006046D01*
X011590Y006075D02*
X011502Y006075D01*
X011502Y006104D02*
X011590Y006104D01*
X011590Y006133D02*
X011502Y006133D01*
X011502Y006162D02*
X011590Y006162D01*
X011590Y006191D02*
X011502Y006191D01*
X011502Y006220D02*
X011590Y006220D01*
X011590Y006249D02*
X011502Y006249D01*
X011502Y006278D02*
X011590Y006278D01*
X011590Y006307D02*
X011502Y006307D01*
X011699Y006323D02*
X011699Y005959D01*
X011699Y006323D02*
X011787Y006323D01*
X011787Y005959D01*
X011699Y005959D01*
X011699Y005988D02*
X011787Y005988D01*
X011787Y006017D02*
X011699Y006017D01*
X011699Y006046D02*
X011787Y006046D01*
X011787Y006075D02*
X011699Y006075D01*
X011699Y006104D02*
X011787Y006104D01*
X011787Y006133D02*
X011699Y006133D01*
X011699Y006162D02*
X011787Y006162D01*
X011787Y006191D02*
X011699Y006191D01*
X011699Y006220D02*
X011787Y006220D01*
X011787Y006249D02*
X011699Y006249D01*
X011699Y006278D02*
X011787Y006278D01*
X011787Y006307D02*
X011699Y006307D01*
X011895Y006323D02*
X011895Y005959D01*
X011895Y006323D02*
X011983Y006323D01*
X011983Y005959D01*
X011895Y005959D01*
X011895Y005988D02*
X011983Y005988D01*
X011983Y006017D02*
X011895Y006017D01*
X011895Y006046D02*
X011983Y006046D01*
X011983Y006075D02*
X011895Y006075D01*
X011895Y006104D02*
X011983Y006104D01*
X011983Y006133D02*
X011895Y006133D01*
X011895Y006162D02*
X011983Y006162D01*
X011983Y006191D02*
X011895Y006191D01*
X011895Y006220D02*
X011983Y006220D01*
X011983Y006249D02*
X011895Y006249D01*
X011895Y006278D02*
X011983Y006278D01*
X011983Y006307D02*
X011895Y006307D01*
X012092Y006323D02*
X012092Y005959D01*
X012092Y006323D02*
X012180Y006323D01*
X012180Y005959D01*
X012092Y005959D01*
X012092Y005988D02*
X012180Y005988D01*
X012180Y006017D02*
X012092Y006017D01*
X012092Y006046D02*
X012180Y006046D01*
X012180Y006075D02*
X012092Y006075D01*
X012092Y006104D02*
X012180Y006104D01*
X012180Y006133D02*
X012092Y006133D01*
X012092Y006162D02*
X012180Y006162D01*
X012180Y006191D02*
X012092Y006191D01*
X012092Y006220D02*
X012180Y006220D01*
X012180Y006249D02*
X012092Y006249D01*
X012092Y006278D02*
X012180Y006278D01*
X012180Y006307D02*
X012092Y006307D01*
X012289Y006323D02*
X012289Y005959D01*
X012289Y006323D02*
X012377Y006323D01*
X012377Y005959D01*
X012289Y005959D01*
X012289Y005988D02*
X012377Y005988D01*
X012377Y006017D02*
X012289Y006017D01*
X012289Y006046D02*
X012377Y006046D01*
X012377Y006075D02*
X012289Y006075D01*
X012289Y006104D02*
X012377Y006104D01*
X012377Y006133D02*
X012289Y006133D01*
X012289Y006162D02*
X012377Y006162D01*
X012377Y006191D02*
X012289Y006191D01*
X012289Y006220D02*
X012377Y006220D01*
X012377Y006249D02*
X012289Y006249D01*
X012289Y006278D02*
X012377Y006278D01*
X012377Y006307D02*
X012289Y006307D01*
X012486Y006323D02*
X012486Y005959D01*
X012486Y006323D02*
X012574Y006323D01*
X012574Y005959D01*
X012486Y005959D01*
X012486Y005988D02*
X012574Y005988D01*
X012574Y006017D02*
X012486Y006017D01*
X012486Y006046D02*
X012574Y006046D01*
X012574Y006075D02*
X012486Y006075D01*
X012486Y006104D02*
X012574Y006104D01*
X012574Y006133D02*
X012486Y006133D01*
X012486Y006162D02*
X012574Y006162D01*
X012574Y006191D02*
X012486Y006191D01*
X012486Y006220D02*
X012574Y006220D01*
X012574Y006249D02*
X012486Y006249D01*
X012486Y006278D02*
X012574Y006278D01*
X012574Y006307D02*
X012486Y006307D01*
X012683Y006323D02*
X012683Y005959D01*
X012683Y006323D02*
X012771Y006323D01*
X012771Y005959D01*
X012683Y005959D01*
X012683Y005988D02*
X012771Y005988D01*
X012771Y006017D02*
X012683Y006017D01*
X012683Y006046D02*
X012771Y006046D01*
X012771Y006075D02*
X012683Y006075D01*
X012683Y006104D02*
X012771Y006104D01*
X012771Y006133D02*
X012683Y006133D01*
X012683Y006162D02*
X012771Y006162D01*
X012771Y006191D02*
X012683Y006191D01*
X012683Y006220D02*
X012771Y006220D01*
X012771Y006249D02*
X012683Y006249D01*
X012683Y006278D02*
X012771Y006278D01*
X012771Y006307D02*
X012683Y006307D01*
X012880Y006323D02*
X012880Y005959D01*
X012880Y006323D02*
X012968Y006323D01*
X012968Y005959D01*
X012880Y005959D01*
X012880Y005988D02*
X012968Y005988D01*
X012968Y006017D02*
X012880Y006017D01*
X012880Y006046D02*
X012968Y006046D01*
X012968Y006075D02*
X012880Y006075D01*
X012880Y006104D02*
X012968Y006104D01*
X012968Y006133D02*
X012880Y006133D01*
X012880Y006162D02*
X012968Y006162D01*
X012968Y006191D02*
X012880Y006191D01*
X012880Y006220D02*
X012968Y006220D01*
X012968Y006249D02*
X012880Y006249D01*
X012880Y006278D02*
X012968Y006278D01*
X012968Y006307D02*
X012880Y006307D01*
X013077Y006323D02*
X013077Y005959D01*
X013077Y006323D02*
X013165Y006323D01*
X013165Y005959D01*
X013077Y005959D01*
X013077Y005988D02*
X013165Y005988D01*
X013165Y006017D02*
X013077Y006017D01*
X013077Y006046D02*
X013165Y006046D01*
X013165Y006075D02*
X013077Y006075D01*
X013077Y006104D02*
X013165Y006104D01*
X013165Y006133D02*
X013077Y006133D01*
X013077Y006162D02*
X013165Y006162D01*
X013165Y006191D02*
X013077Y006191D01*
X013077Y006220D02*
X013165Y006220D01*
X013165Y006249D02*
X013077Y006249D01*
X013077Y006278D02*
X013165Y006278D01*
X013165Y006307D02*
X013077Y006307D01*
X013273Y006323D02*
X013273Y005959D01*
X013273Y006323D02*
X013361Y006323D01*
X013361Y005959D01*
X013273Y005959D01*
X013273Y005988D02*
X013361Y005988D01*
X013361Y006017D02*
X013273Y006017D01*
X013273Y006046D02*
X013361Y006046D01*
X013361Y006075D02*
X013273Y006075D01*
X013273Y006104D02*
X013361Y006104D01*
X013361Y006133D02*
X013273Y006133D01*
X013273Y006162D02*
X013361Y006162D01*
X013361Y006191D02*
X013273Y006191D01*
X013273Y006220D02*
X013361Y006220D01*
X013361Y006249D02*
X013273Y006249D01*
X013273Y006278D02*
X013361Y006278D01*
X013361Y006307D02*
X013273Y006307D01*
X013470Y006323D02*
X013470Y005959D01*
X013470Y006323D02*
X013558Y006323D01*
X013558Y005959D01*
X013470Y005959D01*
X013470Y005988D02*
X013558Y005988D01*
X013558Y006017D02*
X013470Y006017D01*
X013470Y006046D02*
X013558Y006046D01*
X013558Y006075D02*
X013470Y006075D01*
X013470Y006104D02*
X013558Y006104D01*
X013558Y006133D02*
X013470Y006133D01*
X013470Y006162D02*
X013558Y006162D01*
X013558Y006191D02*
X013470Y006191D01*
X013470Y006220D02*
X013558Y006220D01*
X013558Y006249D02*
X013470Y006249D01*
X013470Y006278D02*
X013558Y006278D01*
X013558Y006307D02*
X013470Y006307D01*
X013667Y006432D02*
X014031Y006432D01*
X013667Y006432D02*
X013667Y006520D01*
X014031Y006520D01*
X014031Y006432D01*
X014031Y006461D02*
X013667Y006461D01*
X013667Y006490D02*
X014031Y006490D01*
X014031Y006519D02*
X013667Y006519D01*
X013667Y006629D02*
X014031Y006629D01*
X013667Y006629D02*
X013667Y006717D01*
X014031Y006717D01*
X014031Y006629D01*
X014031Y006658D02*
X013667Y006658D01*
X013667Y006687D02*
X014031Y006687D01*
X014031Y006716D02*
X013667Y006716D01*
X013667Y006825D02*
X014031Y006825D01*
X013667Y006825D02*
X013667Y006913D01*
X014031Y006913D01*
X014031Y006825D01*
X014031Y006854D02*
X013667Y006854D01*
X013667Y006883D02*
X014031Y006883D01*
X014031Y006912D02*
X013667Y006912D01*
X013667Y007022D02*
X014031Y007022D01*
X013667Y007022D02*
X013667Y007110D01*
X014031Y007110D01*
X014031Y007022D01*
X014031Y007051D02*
X013667Y007051D01*
X013667Y007080D02*
X014031Y007080D01*
X014031Y007109D02*
X013667Y007109D01*
X013667Y007219D02*
X014031Y007219D01*
X013667Y007219D02*
X013667Y007307D01*
X014031Y007307D01*
X014031Y007219D01*
X014031Y007248D02*
X013667Y007248D01*
X013667Y007277D02*
X014031Y007277D01*
X014031Y007306D02*
X013667Y007306D01*
X013667Y007416D02*
X014031Y007416D01*
X013667Y007416D02*
X013667Y007504D01*
X014031Y007504D01*
X014031Y007416D01*
X014031Y007445D02*
X013667Y007445D01*
X013667Y007474D02*
X014031Y007474D01*
X014031Y007503D02*
X013667Y007503D01*
X013667Y007613D02*
X014031Y007613D01*
X013667Y007613D02*
X013667Y007701D01*
X014031Y007701D01*
X014031Y007613D01*
X014031Y007642D02*
X013667Y007642D01*
X013667Y007671D02*
X014031Y007671D01*
X014031Y007700D02*
X013667Y007700D01*
X013667Y007810D02*
X014031Y007810D01*
X013667Y007810D02*
X013667Y007898D01*
X014031Y007898D01*
X014031Y007810D01*
X014031Y007839D02*
X013667Y007839D01*
X013667Y007868D02*
X014031Y007868D01*
X014031Y007897D02*
X013667Y007897D01*
X013667Y008007D02*
X014031Y008007D01*
X013667Y008007D02*
X013667Y008095D01*
X014031Y008095D01*
X014031Y008007D01*
X014031Y008036D02*
X013667Y008036D01*
X013667Y008065D02*
X014031Y008065D01*
X014031Y008094D02*
X013667Y008094D01*
X013667Y008203D02*
X014031Y008203D01*
X013667Y008203D02*
X013667Y008291D01*
X014031Y008291D01*
X014031Y008203D01*
X014031Y008232D02*
X013667Y008232D01*
X013667Y008261D02*
X014031Y008261D01*
X014031Y008290D02*
X013667Y008290D01*
X013667Y008400D02*
X014031Y008400D01*
X013667Y008400D02*
X013667Y008488D01*
X014031Y008488D01*
X014031Y008400D01*
X014031Y008429D02*
X013667Y008429D01*
X013667Y008458D02*
X014031Y008458D01*
X014031Y008487D02*
X013667Y008487D01*
X013558Y008597D02*
X013558Y008961D01*
X013558Y008597D02*
X013470Y008597D01*
X013470Y008961D01*
X013558Y008961D01*
X013558Y008626D02*
X013470Y008626D01*
X013470Y008655D02*
X013558Y008655D01*
X013558Y008684D02*
X013470Y008684D01*
X013470Y008713D02*
X013558Y008713D01*
X013558Y008742D02*
X013470Y008742D01*
X013470Y008771D02*
X013558Y008771D01*
X013558Y008800D02*
X013470Y008800D01*
X013470Y008829D02*
X013558Y008829D01*
X013558Y008858D02*
X013470Y008858D01*
X013470Y008887D02*
X013558Y008887D01*
X013558Y008916D02*
X013470Y008916D01*
X013470Y008945D02*
X013558Y008945D01*
X013361Y008961D02*
X013361Y008597D01*
X013273Y008597D01*
X013273Y008961D01*
X013361Y008961D01*
X013361Y008626D02*
X013273Y008626D01*
X013273Y008655D02*
X013361Y008655D01*
X013361Y008684D02*
X013273Y008684D01*
X013273Y008713D02*
X013361Y008713D01*
X013361Y008742D02*
X013273Y008742D01*
X013273Y008771D02*
X013361Y008771D01*
X013361Y008800D02*
X013273Y008800D01*
X013273Y008829D02*
X013361Y008829D01*
X013361Y008858D02*
X013273Y008858D01*
X013273Y008887D02*
X013361Y008887D01*
X013361Y008916D02*
X013273Y008916D01*
X013273Y008945D02*
X013361Y008945D01*
X013165Y008961D02*
X013165Y008597D01*
X013077Y008597D01*
X013077Y008961D01*
X013165Y008961D01*
X013165Y008626D02*
X013077Y008626D01*
X013077Y008655D02*
X013165Y008655D01*
X013165Y008684D02*
X013077Y008684D01*
X013077Y008713D02*
X013165Y008713D01*
X013165Y008742D02*
X013077Y008742D01*
X013077Y008771D02*
X013165Y008771D01*
X013165Y008800D02*
X013077Y008800D01*
X013077Y008829D02*
X013165Y008829D01*
X013165Y008858D02*
X013077Y008858D01*
X013077Y008887D02*
X013165Y008887D01*
X013165Y008916D02*
X013077Y008916D01*
X013077Y008945D02*
X013165Y008945D01*
X012968Y008961D02*
X012968Y008597D01*
X012880Y008597D01*
X012880Y008961D01*
X012968Y008961D01*
X012968Y008626D02*
X012880Y008626D01*
X012880Y008655D02*
X012968Y008655D01*
X012968Y008684D02*
X012880Y008684D01*
X012880Y008713D02*
X012968Y008713D01*
X012968Y008742D02*
X012880Y008742D01*
X012880Y008771D02*
X012968Y008771D01*
X012968Y008800D02*
X012880Y008800D01*
X012880Y008829D02*
X012968Y008829D01*
X012968Y008858D02*
X012880Y008858D01*
X012880Y008887D02*
X012968Y008887D01*
X012968Y008916D02*
X012880Y008916D01*
X012880Y008945D02*
X012968Y008945D01*
X012771Y008961D02*
X012771Y008597D01*
X012683Y008597D01*
X012683Y008961D01*
X012771Y008961D01*
X012771Y008626D02*
X012683Y008626D01*
X012683Y008655D02*
X012771Y008655D01*
X012771Y008684D02*
X012683Y008684D01*
X012683Y008713D02*
X012771Y008713D01*
X012771Y008742D02*
X012683Y008742D01*
X012683Y008771D02*
X012771Y008771D01*
X012771Y008800D02*
X012683Y008800D01*
X012683Y008829D02*
X012771Y008829D01*
X012771Y008858D02*
X012683Y008858D01*
X012683Y008887D02*
X012771Y008887D01*
X012771Y008916D02*
X012683Y008916D01*
X012683Y008945D02*
X012771Y008945D01*
X012574Y008961D02*
X012574Y008597D01*
X012486Y008597D01*
X012486Y008961D01*
X012574Y008961D01*
X012574Y008626D02*
X012486Y008626D01*
X012486Y008655D02*
X012574Y008655D01*
X012574Y008684D02*
X012486Y008684D01*
X012486Y008713D02*
X012574Y008713D01*
X012574Y008742D02*
X012486Y008742D01*
X012486Y008771D02*
X012574Y008771D01*
X012574Y008800D02*
X012486Y008800D01*
X012486Y008829D02*
X012574Y008829D01*
X012574Y008858D02*
X012486Y008858D01*
X012486Y008887D02*
X012574Y008887D01*
X012574Y008916D02*
X012486Y008916D01*
X012486Y008945D02*
X012574Y008945D01*
X012377Y008961D02*
X012377Y008597D01*
X012289Y008597D01*
X012289Y008961D01*
X012377Y008961D01*
X012377Y008626D02*
X012289Y008626D01*
X012289Y008655D02*
X012377Y008655D01*
X012377Y008684D02*
X012289Y008684D01*
X012289Y008713D02*
X012377Y008713D01*
X012377Y008742D02*
X012289Y008742D01*
X012289Y008771D02*
X012377Y008771D01*
X012377Y008800D02*
X012289Y008800D01*
X012289Y008829D02*
X012377Y008829D01*
X012377Y008858D02*
X012289Y008858D01*
X012289Y008887D02*
X012377Y008887D01*
X012377Y008916D02*
X012289Y008916D01*
X012289Y008945D02*
X012377Y008945D01*
X012180Y008961D02*
X012180Y008597D01*
X012092Y008597D01*
X012092Y008961D01*
X012180Y008961D01*
X012180Y008626D02*
X012092Y008626D01*
X012092Y008655D02*
X012180Y008655D01*
X012180Y008684D02*
X012092Y008684D01*
X012092Y008713D02*
X012180Y008713D01*
X012180Y008742D02*
X012092Y008742D01*
X012092Y008771D02*
X012180Y008771D01*
X012180Y008800D02*
X012092Y008800D01*
X012092Y008829D02*
X012180Y008829D01*
X012180Y008858D02*
X012092Y008858D01*
X012092Y008887D02*
X012180Y008887D01*
X012180Y008916D02*
X012092Y008916D01*
X012092Y008945D02*
X012180Y008945D01*
X011983Y008961D02*
X011983Y008597D01*
X011895Y008597D01*
X011895Y008961D01*
X011983Y008961D01*
X011983Y008626D02*
X011895Y008626D01*
X011895Y008655D02*
X011983Y008655D01*
X011983Y008684D02*
X011895Y008684D01*
X011895Y008713D02*
X011983Y008713D01*
X011983Y008742D02*
X011895Y008742D01*
X011895Y008771D02*
X011983Y008771D01*
X011983Y008800D02*
X011895Y008800D01*
X011895Y008829D02*
X011983Y008829D01*
X011983Y008858D02*
X011895Y008858D01*
X011895Y008887D02*
X011983Y008887D01*
X011983Y008916D02*
X011895Y008916D01*
X011895Y008945D02*
X011983Y008945D01*
X011787Y008961D02*
X011787Y008597D01*
X011699Y008597D01*
X011699Y008961D01*
X011787Y008961D01*
X011787Y008626D02*
X011699Y008626D01*
X011699Y008655D02*
X011787Y008655D01*
X011787Y008684D02*
X011699Y008684D01*
X011699Y008713D02*
X011787Y008713D01*
X011787Y008742D02*
X011699Y008742D01*
X011699Y008771D02*
X011787Y008771D01*
X011787Y008800D02*
X011699Y008800D01*
X011699Y008829D02*
X011787Y008829D01*
X011787Y008858D02*
X011699Y008858D01*
X011699Y008887D02*
X011787Y008887D01*
X011787Y008916D02*
X011699Y008916D01*
X011699Y008945D02*
X011787Y008945D01*
X011590Y008961D02*
X011590Y008597D01*
X011502Y008597D01*
X011502Y008961D01*
X011590Y008961D01*
X011590Y008626D02*
X011502Y008626D01*
X011502Y008655D02*
X011590Y008655D01*
X011590Y008684D02*
X011502Y008684D01*
X011502Y008713D02*
X011590Y008713D01*
X011590Y008742D02*
X011502Y008742D01*
X011502Y008771D02*
X011590Y008771D01*
X011590Y008800D02*
X011502Y008800D01*
X011502Y008829D02*
X011590Y008829D01*
X011590Y008858D02*
X011502Y008858D01*
X011502Y008887D02*
X011590Y008887D01*
X011590Y008916D02*
X011502Y008916D01*
X011502Y008945D02*
X011590Y008945D01*
D14*
X004558Y011956D02*
X004558Y001364D01*
X004560Y001297D01*
X004566Y001230D01*
X004575Y001163D01*
X004588Y001097D01*
X004605Y001032D01*
X004625Y000968D01*
X004649Y000905D01*
X004677Y000843D01*
X004708Y000784D01*
X004742Y000726D01*
X004779Y000670D01*
X004820Y000616D01*
X004863Y000564D01*
X004909Y000515D01*
X004958Y000469D01*
X005010Y000426D01*
X005064Y000385D01*
X005120Y000348D01*
X005178Y000314D01*
X005237Y000283D01*
X005299Y000255D01*
X005362Y000231D01*
X005426Y000211D01*
X005491Y000194D01*
X005557Y000181D01*
X005624Y000172D01*
X005691Y000166D01*
X005758Y000164D01*
X019302Y000164D01*
X019369Y000166D01*
X019436Y000172D01*
X019503Y000181D01*
X019569Y000194D01*
X019634Y000211D01*
X019698Y000231D01*
X019761Y000255D01*
X019823Y000283D01*
X019882Y000314D01*
X019940Y000348D01*
X019996Y000385D01*
X020050Y000426D01*
X020102Y000469D01*
X020151Y000515D01*
X020197Y000564D01*
X020240Y000616D01*
X020281Y000670D01*
X020318Y000726D01*
X020352Y000784D01*
X020383Y000843D01*
X020411Y000905D01*
X020435Y000968D01*
X020455Y001032D01*
X020472Y001097D01*
X020485Y001163D01*
X020494Y001230D01*
X020500Y001297D01*
X020502Y001364D01*
X020502Y011956D01*
X020500Y012023D01*
X020494Y012090D01*
X020485Y012157D01*
X020472Y012223D01*
X020455Y012288D01*
X020435Y012352D01*
X020411Y012415D01*
X020383Y012477D01*
X020352Y012536D01*
X020318Y012594D01*
X020281Y012650D01*
X020240Y012704D01*
X020197Y012756D01*
X020151Y012805D01*
X020102Y012851D01*
X020050Y012894D01*
X019996Y012935D01*
X019940Y012972D01*
X019882Y013006D01*
X019823Y013037D01*
X019761Y013065D01*
X019698Y013089D01*
X019634Y013109D01*
X019569Y013126D01*
X019503Y013139D01*
X019436Y013148D01*
X019369Y013154D01*
X019302Y013156D01*
X005758Y013156D01*
X005691Y013154D01*
X005624Y013148D01*
X005557Y013139D01*
X005491Y013126D01*
X005426Y013109D01*
X005362Y013089D01*
X005299Y013065D01*
X005237Y013037D01*
X005178Y013006D01*
X005120Y012972D01*
X005064Y012935D01*
X005010Y012894D01*
X004958Y012851D01*
X004909Y012805D01*
X004863Y012756D01*
X004820Y012704D01*
X004779Y012650D01*
X004742Y012594D01*
X004708Y012536D01*
X004677Y012477D01*
X004649Y012415D01*
X004625Y012352D01*
X004605Y012288D01*
X004588Y012223D01*
X004575Y012157D01*
X004566Y012090D01*
X004560Y012023D01*
X004558Y011956D01*
D15*
X005530Y001348D03*
X006530Y001348D03*
X007530Y001348D03*
X008530Y001348D03*
X009530Y001348D03*
X010530Y001348D03*
X011530Y001348D03*
X012530Y001348D03*
X013530Y001348D03*
X014530Y001348D03*
X015530Y001348D03*
X016530Y001348D03*
X017530Y001348D03*
X018530Y001348D03*
X019530Y001348D03*
D16*
X020325Y001348D03*
X004735Y001348D03*
D17*
X005369Y005475D02*
X005328Y005490D01*
X005290Y005513D01*
X005259Y005544D01*
X005236Y005582D01*
X005221Y005623D01*
X005216Y005667D01*
X005221Y005711D01*
X005236Y005752D01*
X005259Y005790D01*
X005290Y005821D01*
X005328Y005844D01*
X005369Y005859D01*
X005413Y005864D01*
X005807Y005864D01*
X005851Y005859D01*
X005892Y005844D01*
X005930Y005821D01*
X005961Y005790D01*
X005984Y005752D01*
X005999Y005711D01*
X006004Y005667D01*
X005999Y005623D01*
X005984Y005582D01*
X005961Y005544D01*
X005930Y005513D01*
X005892Y005490D01*
X005851Y005475D01*
X005807Y005470D01*
X005413Y005470D01*
X005369Y005475D01*
X006835Y005625D02*
X006830Y005667D01*
X006836Y005715D01*
X006852Y005761D01*
X006878Y005802D01*
X006912Y005836D01*
X006953Y005862D01*
X006999Y005878D01*
X007047Y005884D01*
X007480Y005884D01*
X007528Y005878D01*
X007574Y005862D01*
X007615Y005836D01*
X007649Y005802D01*
X007675Y005761D01*
X007691Y005715D01*
X007697Y005667D01*
X007692Y005625D01*
X007680Y005584D01*
X007660Y005547D01*
X007633Y005514D01*
X007600Y005487D01*
X007563Y005467D01*
X007522Y005455D01*
X007480Y005451D01*
X007047Y005451D01*
X007005Y005455D01*
X006964Y005467D01*
X006927Y005487D01*
X006894Y005514D01*
X006867Y005547D01*
X006847Y005584D01*
X006835Y005625D01*
X006929Y006222D02*
X006931Y006243D01*
X006937Y006263D01*
X006946Y006283D01*
X006958Y006300D01*
X006973Y006314D01*
X006991Y006326D01*
X007011Y006334D01*
X007031Y006339D01*
X007052Y006340D01*
X007073Y006337D01*
X007093Y006331D01*
X007112Y006320D01*
X007129Y006307D01*
X007142Y006291D01*
X007153Y006273D01*
X007161Y006253D01*
X007165Y006233D01*
X007165Y006211D01*
X007161Y006191D01*
X007153Y006171D01*
X007142Y006153D01*
X007129Y006137D01*
X007112Y006124D01*
X007093Y006113D01*
X007073Y006107D01*
X007052Y006104D01*
X007031Y006105D01*
X007011Y006110D01*
X006991Y006118D01*
X006973Y006130D01*
X006958Y006144D01*
X006946Y006161D01*
X006937Y006181D01*
X006931Y006201D01*
X006929Y006222D01*
X006929Y008498D02*
X006931Y008519D01*
X006937Y008539D01*
X006946Y008559D01*
X006958Y008576D01*
X006973Y008590D01*
X006991Y008602D01*
X007011Y008610D01*
X007031Y008615D01*
X007052Y008616D01*
X007073Y008613D01*
X007093Y008607D01*
X007112Y008596D01*
X007129Y008583D01*
X007142Y008567D01*
X007153Y008549D01*
X007161Y008529D01*
X007165Y008509D01*
X007165Y008487D01*
X007161Y008467D01*
X007153Y008447D01*
X007142Y008429D01*
X007129Y008413D01*
X007112Y008400D01*
X007093Y008389D01*
X007073Y008383D01*
X007052Y008380D01*
X007031Y008381D01*
X007011Y008386D01*
X006991Y008394D01*
X006973Y008406D01*
X006958Y008420D01*
X006946Y008437D01*
X006937Y008457D01*
X006931Y008477D01*
X006929Y008498D01*
X007005Y008841D02*
X006964Y008853D01*
X006927Y008873D01*
X006894Y008900D01*
X006867Y008933D01*
X006847Y008970D01*
X006835Y009011D01*
X006830Y009053D01*
X006836Y009101D01*
X006852Y009147D01*
X006878Y009188D01*
X006912Y009222D01*
X006953Y009248D01*
X006999Y009264D01*
X007047Y009269D01*
X007480Y009269D01*
X007528Y009264D01*
X007574Y009248D01*
X007615Y009222D01*
X007649Y009188D01*
X007675Y009147D01*
X007691Y009101D01*
X007697Y009053D01*
X007692Y009011D01*
X007680Y008970D01*
X007660Y008933D01*
X007633Y008900D01*
X007600Y008873D01*
X007563Y008853D01*
X007522Y008841D01*
X007480Y008836D01*
X007047Y008836D01*
X007005Y008841D01*
X005999Y009009D02*
X005984Y008968D01*
X005961Y008930D01*
X005930Y008899D01*
X005892Y008876D01*
X005851Y008861D01*
X005807Y008856D01*
X005413Y008856D01*
X005369Y008861D01*
X005328Y008876D01*
X005290Y008899D01*
X005259Y008930D01*
X005236Y008968D01*
X005221Y009009D01*
X005216Y009053D01*
X005221Y009097D01*
X005236Y009138D01*
X005259Y009176D01*
X005290Y009207D01*
X005328Y009230D01*
X005369Y009245D01*
X005413Y009250D01*
X005807Y009250D01*
X005851Y009245D01*
X005892Y009230D01*
X005930Y009207D01*
X005961Y009176D01*
X005984Y009138D01*
X005999Y009097D01*
X006004Y009053D01*
X005999Y009009D01*
X005439Y011660D02*
X005441Y011708D01*
X005447Y011756D01*
X005457Y011803D01*
X005470Y011849D01*
X005488Y011894D01*
X005508Y011938D01*
X005533Y011980D01*
X005561Y012019D01*
X005591Y012056D01*
X005625Y012090D01*
X005662Y012122D01*
X005700Y012151D01*
X005741Y012176D01*
X005784Y012198D01*
X005829Y012216D01*
X005875Y012230D01*
X005922Y012241D01*
X005970Y012248D01*
X006018Y012251D01*
X006066Y012250D01*
X006114Y012245D01*
X006162Y012236D01*
X006208Y012224D01*
X006253Y012207D01*
X006297Y012187D01*
X006339Y012164D01*
X006379Y012137D01*
X006417Y012107D01*
X006452Y012074D01*
X006484Y012038D01*
X006514Y012000D01*
X006540Y011959D01*
X006562Y011916D01*
X006582Y011872D01*
X006597Y011827D01*
X006609Y011780D01*
X006617Y011732D01*
X006621Y011684D01*
X006621Y011636D01*
X006617Y011588D01*
X006609Y011540D01*
X006597Y011493D01*
X006582Y011448D01*
X006562Y011404D01*
X006540Y011361D01*
X006514Y011320D01*
X006484Y011282D01*
X006452Y011246D01*
X006417Y011213D01*
X006379Y011183D01*
X006339Y011156D01*
X006297Y011133D01*
X006253Y011113D01*
X006208Y011096D01*
X006162Y011084D01*
X006114Y011075D01*
X006066Y011070D01*
X006018Y011069D01*
X005970Y011072D01*
X005922Y011079D01*
X005875Y011090D01*
X005829Y011104D01*
X005784Y011122D01*
X005741Y011144D01*
X005700Y011169D01*
X005662Y011198D01*
X005625Y011230D01*
X005591Y011264D01*
X005561Y011301D01*
X005533Y011340D01*
X005508Y011382D01*
X005488Y011426D01*
X005470Y011471D01*
X005457Y011517D01*
X005447Y011564D01*
X005441Y011612D01*
X005439Y011660D01*
X018439Y011660D02*
X018441Y011708D01*
X018447Y011756D01*
X018457Y011803D01*
X018470Y011849D01*
X018488Y011894D01*
X018508Y011938D01*
X018533Y011980D01*
X018561Y012019D01*
X018591Y012056D01*
X018625Y012090D01*
X018662Y012122D01*
X018700Y012151D01*
X018741Y012176D01*
X018784Y012198D01*
X018829Y012216D01*
X018875Y012230D01*
X018922Y012241D01*
X018970Y012248D01*
X019018Y012251D01*
X019066Y012250D01*
X019114Y012245D01*
X019162Y012236D01*
X019208Y012224D01*
X019253Y012207D01*
X019297Y012187D01*
X019339Y012164D01*
X019379Y012137D01*
X019417Y012107D01*
X019452Y012074D01*
X019484Y012038D01*
X019514Y012000D01*
X019540Y011959D01*
X019562Y011916D01*
X019582Y011872D01*
X019597Y011827D01*
X019609Y011780D01*
X019617Y011732D01*
X019621Y011684D01*
X019621Y011636D01*
X019617Y011588D01*
X019609Y011540D01*
X019597Y011493D01*
X019582Y011448D01*
X019562Y011404D01*
X019540Y011361D01*
X019514Y011320D01*
X019484Y011282D01*
X019452Y011246D01*
X019417Y011213D01*
X019379Y011183D01*
X019339Y011156D01*
X019297Y011133D01*
X019253Y011113D01*
X019208Y011096D01*
X019162Y011084D01*
X019114Y011075D01*
X019066Y011070D01*
X019018Y011069D01*
X018970Y011072D01*
X018922Y011079D01*
X018875Y011090D01*
X018829Y011104D01*
X018784Y011122D01*
X018741Y011144D01*
X018700Y011169D01*
X018662Y011198D01*
X018625Y011230D01*
X018591Y011264D01*
X018561Y011301D01*
X018533Y011340D01*
X018508Y011382D01*
X018488Y011426D01*
X018470Y011471D01*
X018457Y011517D01*
X018447Y011564D01*
X018441Y011612D01*
X018439Y011660D01*
X019693Y007863D02*
X019695Y007890D01*
X019701Y007916D01*
X019710Y007941D01*
X019723Y007964D01*
X019739Y007985D01*
X019758Y008004D01*
X019779Y008020D01*
X019802Y008033D01*
X019827Y008042D01*
X019853Y008048D01*
X019880Y008050D01*
X019907Y008048D01*
X019933Y008042D01*
X019958Y008033D01*
X019981Y008020D01*
X020002Y008004D01*
X020021Y007985D01*
X020037Y007964D01*
X020050Y007941D01*
X020059Y007916D01*
X020065Y007890D01*
X020067Y007863D01*
X020065Y007836D01*
X020059Y007810D01*
X020050Y007785D01*
X020037Y007762D01*
X020021Y007741D01*
X020002Y007722D01*
X019981Y007706D01*
X019958Y007693D01*
X019933Y007684D01*
X019907Y007678D01*
X019880Y007676D01*
X019853Y007678D01*
X019827Y007684D01*
X019802Y007693D01*
X019779Y007706D01*
X019758Y007722D01*
X019739Y007741D01*
X019723Y007762D01*
X019710Y007785D01*
X019701Y007810D01*
X019695Y007836D01*
X019693Y007863D01*
X019693Y006957D02*
X019695Y006984D01*
X019701Y007010D01*
X019710Y007035D01*
X019723Y007058D01*
X019739Y007079D01*
X019758Y007098D01*
X019779Y007114D01*
X019802Y007127D01*
X019827Y007136D01*
X019853Y007142D01*
X019880Y007144D01*
X019907Y007142D01*
X019933Y007136D01*
X019958Y007127D01*
X019981Y007114D01*
X020002Y007098D01*
X020021Y007079D01*
X020037Y007058D01*
X020050Y007035D01*
X020059Y007010D01*
X020065Y006984D01*
X020067Y006957D01*
X020065Y006930D01*
X020059Y006904D01*
X020050Y006879D01*
X020037Y006856D01*
X020021Y006835D01*
X020002Y006816D01*
X019981Y006800D01*
X019958Y006787D01*
X019933Y006778D01*
X019907Y006772D01*
X019880Y006770D01*
X019853Y006772D01*
X019827Y006778D01*
X019802Y006787D01*
X019779Y006800D01*
X019758Y006816D01*
X019739Y006835D01*
X019723Y006856D01*
X019710Y006879D01*
X019701Y006904D01*
X019695Y006930D01*
X019693Y006957D01*
D18*
X019280Y006560D03*
X019280Y008260D03*
D19*
X020080Y008810D03*
X020080Y006010D03*
D20*
X005943Y009672D02*
X005717Y009672D01*
X005717Y009948D01*
X005943Y009948D01*
X005943Y009672D01*
X005943Y009746D02*
X005717Y009746D01*
X005717Y009820D02*
X005943Y009820D01*
X005943Y009894D02*
X005717Y009894D01*
X005343Y009672D02*
X005117Y009672D01*
X005117Y009948D01*
X005343Y009948D01*
X005343Y009672D01*
X005343Y009746D02*
X005117Y009746D01*
X005117Y009820D02*
X005343Y009820D01*
X005343Y009894D02*
X005117Y009894D01*
D21*
X007298Y008557D02*
X007622Y008557D01*
X007298Y008557D02*
X007298Y008723D01*
X007622Y008723D01*
X007622Y008557D01*
X007622Y008627D02*
X007298Y008627D01*
X007298Y008697D02*
X007622Y008697D01*
X007622Y008222D02*
X007298Y008222D01*
X007298Y008388D01*
X007622Y008388D01*
X007622Y008222D01*
X007622Y008292D02*
X007298Y008292D01*
X007298Y008362D02*
X007622Y008362D01*
X007622Y006332D02*
X007298Y006332D01*
X007298Y006498D01*
X007622Y006498D01*
X007622Y006332D01*
X007622Y006402D02*
X007298Y006402D01*
X007298Y006472D02*
X007622Y006472D01*
X007622Y006017D02*
X007298Y006017D01*
X007298Y006183D01*
X007622Y006183D01*
X007622Y006017D01*
X007622Y006087D02*
X007298Y006087D01*
X007298Y006157D02*
X007622Y006157D01*
D22*
X007640Y006629D02*
X007280Y006629D01*
X007280Y006713D01*
X007640Y006713D01*
X007640Y006629D01*
X007640Y006663D02*
X007280Y006663D01*
X007280Y006697D02*
X007640Y006697D01*
X007640Y006826D02*
X007280Y006826D01*
X007280Y006910D01*
X007640Y006910D01*
X007640Y006826D01*
X007640Y006860D02*
X007280Y006860D01*
X007280Y006894D02*
X007640Y006894D01*
X007640Y007023D02*
X007280Y007023D01*
X007280Y007107D01*
X007640Y007107D01*
X007640Y007023D01*
X007640Y007057D02*
X007280Y007057D01*
X007280Y007091D02*
X007640Y007091D01*
X007640Y007220D02*
X007280Y007220D01*
X007280Y007304D01*
X007640Y007304D01*
X007640Y007220D01*
X007640Y007254D02*
X007280Y007254D01*
X007280Y007288D02*
X007640Y007288D01*
X007640Y007416D02*
X007280Y007416D01*
X007280Y007500D01*
X007640Y007500D01*
X007640Y007416D01*
X007640Y007450D02*
X007280Y007450D01*
X007280Y007484D02*
X007640Y007484D01*
X007640Y007613D02*
X007280Y007613D01*
X007280Y007697D01*
X007640Y007697D01*
X007640Y007613D01*
X007640Y007647D02*
X007280Y007647D01*
X007280Y007681D02*
X007640Y007681D01*
X007640Y007810D02*
X007280Y007810D01*
X007280Y007894D01*
X007640Y007894D01*
X007640Y007810D01*
X007640Y007844D02*
X007280Y007844D01*
X007280Y007878D02*
X007640Y007878D01*
X007640Y008007D02*
X007280Y008007D01*
X007280Y008091D01*
X007640Y008091D01*
X007640Y008007D01*
X007640Y008041D02*
X007280Y008041D01*
X007280Y008075D02*
X007640Y008075D01*
D23*
X007523Y008841D02*
X007004Y008841D01*
X007000Y008842D02*
X007527Y008842D01*
X007530Y008843D02*
X006997Y008843D01*
X006994Y008844D02*
X007533Y008844D01*
X007536Y008845D02*
X006990Y008845D01*
X006987Y008846D02*
X007540Y008846D01*
X007543Y008847D02*
X006984Y008847D01*
X006981Y008848D02*
X007546Y008848D01*
X007550Y008849D02*
X006977Y008849D01*
X006974Y008850D02*
X007553Y008850D01*
X007556Y008851D02*
X006971Y008851D01*
X006967Y008852D02*
X007560Y008852D01*
X007563Y008853D02*
X006964Y008853D01*
X006962Y008854D02*
X007565Y008854D01*
X007567Y008855D02*
X006960Y008855D01*
X006958Y008856D02*
X007568Y008856D01*
X007570Y008857D02*
X006957Y008857D01*
X006955Y008858D02*
X007572Y008858D01*
X007574Y008859D02*
X006953Y008859D01*
X006951Y008860D02*
X007576Y008860D01*
X007578Y008861D02*
X006949Y008861D01*
X006947Y008862D02*
X007580Y008862D01*
X007582Y008863D02*
X006945Y008863D01*
X006944Y008864D02*
X007583Y008864D01*
X007585Y008865D02*
X006942Y008865D01*
X006940Y008866D02*
X007587Y008866D01*
X007589Y008867D02*
X006938Y008867D01*
X006936Y008868D02*
X007591Y008868D01*
X007593Y008869D02*
X006934Y008869D01*
X006932Y008870D02*
X007595Y008870D01*
X007596Y008871D02*
X006930Y008871D01*
X006929Y008872D02*
X007598Y008872D01*
X007600Y008873D02*
X006927Y008873D01*
X006925Y008874D02*
X007601Y008874D01*
X007603Y008875D02*
X006924Y008875D01*
X006923Y008876D02*
X007604Y008876D01*
X007605Y008877D02*
X006922Y008877D01*
X006921Y008878D02*
X007606Y008878D01*
X007608Y008879D02*
X006919Y008879D01*
X006918Y008880D02*
X007609Y008880D01*
X007610Y008881D02*
X006917Y008881D01*
X006916Y008882D02*
X007611Y008882D01*
X007612Y008883D02*
X006915Y008883D01*
X006913Y008884D02*
X007614Y008884D01*
X007615Y008885D02*
X006912Y008885D01*
X006911Y008886D02*
X007616Y008886D01*
X007617Y008887D02*
X006910Y008887D01*
X006908Y008888D02*
X007618Y008888D01*
X007620Y008889D02*
X006907Y008889D01*
X006906Y008890D02*
X007621Y008890D01*
X007622Y008891D02*
X006905Y008891D01*
X006904Y008892D02*
X007623Y008892D01*
X007625Y008893D02*
X006902Y008893D01*
X006901Y008894D02*
X007626Y008894D01*
X007627Y008895D02*
X006900Y008895D01*
X006899Y008896D02*
X007628Y008896D01*
X007629Y008897D02*
X006897Y008897D01*
X006896Y008898D02*
X007631Y008898D01*
X007632Y008899D02*
X006895Y008899D01*
X006894Y008900D02*
X007633Y008900D01*
X007634Y008901D02*
X006893Y008901D01*
X006892Y008902D02*
X007635Y008902D01*
X007636Y008903D02*
X006891Y008903D01*
X006891Y008904D02*
X007636Y008904D01*
X007637Y008905D02*
X006890Y008905D01*
X006889Y008906D02*
X007638Y008906D01*
X007639Y008907D02*
X006888Y008907D01*
X006887Y008908D02*
X007640Y008908D01*
X007640Y008909D02*
X006886Y008909D01*
X006886Y008910D02*
X007641Y008910D01*
X007642Y008911D02*
X006885Y008911D01*
X006884Y008912D02*
X007643Y008912D01*
X007644Y008913D02*
X006883Y008913D01*
X006882Y008914D02*
X007645Y008914D01*
X007645Y008915D02*
X006882Y008915D01*
X006881Y008916D02*
X007646Y008916D01*
X007647Y008917D02*
X006880Y008917D01*
X006879Y008918D02*
X007648Y008918D01*
X007649Y008919D02*
X006878Y008919D01*
X006877Y008920D02*
X007650Y008920D01*
X007650Y008921D02*
X006877Y008921D01*
X006876Y008922D02*
X007651Y008922D01*
X007652Y008923D02*
X006875Y008923D01*
X006874Y008924D02*
X007653Y008924D01*
X007654Y008925D02*
X006873Y008925D01*
X006873Y008926D02*
X007654Y008926D01*
X007655Y008927D02*
X006872Y008927D01*
X006871Y008928D02*
X007656Y008928D01*
X007657Y008929D02*
X006870Y008929D01*
X006869Y008930D02*
X007658Y008930D01*
X007659Y008931D02*
X006868Y008931D01*
X006868Y008932D02*
X007659Y008932D01*
X007660Y008933D02*
X006867Y008933D01*
X006866Y008934D02*
X007661Y008934D01*
X007661Y008935D02*
X006866Y008935D01*
X006865Y008936D02*
X007662Y008936D01*
X007662Y008937D02*
X006865Y008937D01*
X006864Y008938D02*
X007663Y008938D01*
X007663Y008939D02*
X006864Y008939D01*
X006863Y008940D02*
X007664Y008940D01*
X007664Y008941D02*
X006863Y008941D01*
X006862Y008942D02*
X007665Y008942D01*
X007665Y008943D02*
X006861Y008943D01*
X006861Y008944D02*
X007666Y008944D01*
X007667Y008945D02*
X006860Y008945D01*
X006860Y008946D02*
X007667Y008946D01*
X007668Y008947D02*
X006859Y008947D01*
X006859Y008948D02*
X007668Y008948D01*
X007669Y008949D02*
X006858Y008949D01*
X006858Y008950D02*
X007669Y008950D01*
X007670Y008951D02*
X006857Y008951D01*
X006857Y008952D02*
X007670Y008952D01*
X007671Y008953D02*
X006856Y008953D01*
X006856Y008954D02*
X007671Y008954D01*
X007672Y008955D02*
X006855Y008955D01*
X006855Y008956D02*
X007672Y008956D01*
X007673Y008957D02*
X006854Y008957D01*
X006853Y008958D02*
X007673Y008958D01*
X007674Y008959D02*
X006853Y008959D01*
X006852Y008960D02*
X007675Y008960D01*
X007675Y008961D02*
X006852Y008961D01*
X006851Y008962D02*
X007676Y008962D01*
X007676Y008963D02*
X006851Y008963D01*
X006850Y008964D02*
X007677Y008964D01*
X007677Y008965D02*
X006850Y008965D01*
X006849Y008966D02*
X007678Y008966D01*
X007678Y008967D02*
X006849Y008967D01*
X006848Y008968D02*
X007679Y008968D01*
X007679Y008969D02*
X006848Y008969D01*
X006847Y008970D02*
X007680Y008970D01*
X007680Y008971D02*
X006847Y008971D01*
X006846Y008972D02*
X007681Y008972D01*
X007681Y008973D02*
X006846Y008973D01*
X006846Y008974D02*
X007681Y008974D01*
X007681Y008975D02*
X006845Y008975D01*
X006845Y008976D02*
X007682Y008976D01*
X007682Y008977D02*
X006845Y008977D01*
X006845Y008978D02*
X007682Y008978D01*
X007683Y008979D02*
X006844Y008979D01*
X006844Y008980D02*
X007683Y008980D01*
X007683Y008981D02*
X006844Y008981D01*
X006843Y008982D02*
X007684Y008982D01*
X007684Y008983D02*
X006843Y008983D01*
X006843Y008984D02*
X007684Y008984D01*
X007685Y008985D02*
X006842Y008985D01*
X006842Y008986D02*
X007685Y008986D01*
X007685Y008987D02*
X006842Y008987D01*
X006842Y008988D02*
X007685Y008988D01*
X007686Y008989D02*
X006841Y008989D01*
X006841Y008990D02*
X007686Y008990D01*
X007686Y008991D02*
X006841Y008991D01*
X006840Y008992D02*
X007687Y008992D01*
X007687Y008993D02*
X006840Y008993D01*
X006840Y008994D02*
X007687Y008994D01*
X007688Y008995D02*
X006839Y008995D01*
X006839Y008996D02*
X007688Y008996D01*
X007688Y008997D02*
X006839Y008997D01*
X006838Y008998D02*
X007688Y008998D01*
X007689Y008999D02*
X006838Y008999D01*
X006838Y009000D02*
X007689Y009000D01*
X007689Y009001D02*
X006838Y009001D01*
X006837Y009002D02*
X007690Y009002D01*
X007690Y009003D02*
X006837Y009003D01*
X006837Y009004D02*
X007690Y009004D01*
X007691Y009005D02*
X006836Y009005D01*
X006836Y009006D02*
X007691Y009006D01*
X007691Y009007D02*
X006836Y009007D01*
X006835Y009008D02*
X007691Y009008D01*
X007692Y009009D02*
X006835Y009009D01*
X006835Y009010D02*
X007692Y009010D01*
X007692Y009011D02*
X006835Y009011D01*
X006834Y009012D02*
X007692Y009012D01*
X007693Y009013D02*
X006834Y009013D01*
X006834Y009014D02*
X007693Y009014D01*
X007693Y009015D02*
X006834Y009015D01*
X006834Y009016D02*
X007693Y009016D01*
X007693Y009017D02*
X006834Y009017D01*
X006834Y009018D02*
X007693Y009018D01*
X007693Y009019D02*
X006834Y009019D01*
X006834Y009020D02*
X007693Y009020D01*
X007693Y009021D02*
X006834Y009021D01*
X006833Y009022D02*
X007693Y009022D01*
X007694Y009023D02*
X006833Y009023D01*
X006833Y009024D02*
X007694Y009024D01*
X007694Y009025D02*
X006833Y009025D01*
X006833Y009026D02*
X007694Y009026D01*
X007694Y009027D02*
X006833Y009027D01*
X006833Y009028D02*
X007694Y009028D01*
X007694Y009029D02*
X006833Y009029D01*
X006833Y009030D02*
X007694Y009030D01*
X007694Y009031D02*
X006833Y009031D01*
X006832Y009032D02*
X007694Y009032D01*
X007695Y009033D02*
X006832Y009033D01*
X006832Y009034D02*
X007695Y009034D01*
X007695Y009035D02*
X006832Y009035D01*
X006832Y009036D02*
X007695Y009036D01*
X007695Y009037D02*
X006832Y009037D01*
X006832Y009038D02*
X007695Y009038D01*
X007695Y009039D02*
X006832Y009039D01*
X006832Y009040D02*
X007695Y009040D01*
X007695Y009041D02*
X006832Y009041D01*
X006832Y009042D02*
X007695Y009042D01*
X007696Y009043D02*
X006831Y009043D01*
X006831Y009044D02*
X007696Y009044D01*
X007696Y009045D02*
X006831Y009045D01*
X006831Y009046D02*
X007696Y009046D01*
X007696Y009047D02*
X006831Y009047D01*
X006831Y009048D02*
X007696Y009048D01*
X007696Y009049D02*
X006831Y009049D01*
X006831Y009050D02*
X007696Y009050D01*
X007696Y009051D02*
X006831Y009051D01*
X006831Y009052D02*
X007696Y009052D01*
X007697Y009053D02*
X006830Y009053D01*
X006830Y009054D02*
X007696Y009054D01*
X007696Y009055D02*
X006831Y009055D01*
X006831Y009056D02*
X007696Y009056D01*
X007696Y009057D02*
X006831Y009057D01*
X006831Y009058D02*
X007696Y009058D01*
X007696Y009059D02*
X006831Y009059D01*
X006831Y009060D02*
X007696Y009060D01*
X007696Y009061D02*
X006831Y009061D01*
X006831Y009062D02*
X007696Y009062D01*
X007695Y009063D02*
X006831Y009063D01*
X006832Y009064D02*
X007695Y009064D01*
X007695Y009065D02*
X006832Y009065D01*
X006832Y009066D02*
X007695Y009066D01*
X007695Y009067D02*
X006832Y009067D01*
X006832Y009068D02*
X007695Y009068D01*
X007695Y009069D02*
X006832Y009069D01*
X006832Y009070D02*
X007695Y009070D01*
X007695Y009071D02*
X006832Y009071D01*
X006833Y009072D02*
X007694Y009072D01*
X007694Y009073D02*
X006833Y009073D01*
X006833Y009074D02*
X007694Y009074D01*
X007694Y009075D02*
X006833Y009075D01*
X006833Y009076D02*
X007694Y009076D01*
X007694Y009077D02*
X006833Y009077D01*
X006833Y009078D02*
X007694Y009078D01*
X007694Y009079D02*
X006833Y009079D01*
X006833Y009080D02*
X007694Y009080D01*
X007693Y009081D02*
X006834Y009081D01*
X006834Y009082D02*
X007693Y009082D01*
X007693Y009083D02*
X006834Y009083D01*
X006834Y009084D02*
X007693Y009084D01*
X007693Y009085D02*
X006834Y009085D01*
X006834Y009086D02*
X007693Y009086D01*
X007693Y009087D02*
X006834Y009087D01*
X006834Y009088D02*
X007693Y009088D01*
X007693Y009089D02*
X006834Y009089D01*
X006835Y009090D02*
X007692Y009090D01*
X007692Y009091D02*
X006835Y009091D01*
X006835Y009092D02*
X007692Y009092D01*
X007692Y009093D02*
X006835Y009093D01*
X006835Y009094D02*
X007692Y009094D01*
X007692Y009095D02*
X006835Y009095D01*
X006835Y009096D02*
X007692Y009096D01*
X007692Y009097D02*
X006835Y009097D01*
X006835Y009098D02*
X007691Y009098D01*
X007691Y009099D02*
X006836Y009099D01*
X006836Y009100D02*
X007691Y009100D01*
X007691Y009101D02*
X006836Y009101D01*
X006836Y009102D02*
X007691Y009102D01*
X007691Y009103D02*
X006836Y009103D01*
X006837Y009104D02*
X007690Y009104D01*
X007690Y009105D02*
X006837Y009105D01*
X006837Y009106D02*
X007690Y009106D01*
X007689Y009107D02*
X006838Y009107D01*
X006838Y009108D02*
X007689Y009108D01*
X007688Y009109D02*
X006838Y009109D01*
X006839Y009110D02*
X007688Y009110D01*
X007688Y009111D02*
X006839Y009111D01*
X006839Y009112D02*
X007687Y009112D01*
X007687Y009113D02*
X006840Y009113D01*
X006840Y009114D02*
X007687Y009114D01*
X007686Y009115D02*
X006841Y009115D01*
X006841Y009116D02*
X007686Y009116D01*
X007686Y009117D02*
X006841Y009117D01*
X006842Y009118D02*
X007685Y009118D01*
X007685Y009119D02*
X006842Y009119D01*
X006842Y009120D02*
X007685Y009120D01*
X007684Y009121D02*
X006843Y009121D01*
X006843Y009122D02*
X007684Y009122D01*
X007684Y009123D02*
X006843Y009123D01*
X006844Y009124D02*
X007683Y009124D01*
X007683Y009125D02*
X006844Y009125D01*
X006844Y009126D02*
X007683Y009126D01*
X007682Y009127D02*
X006845Y009127D01*
X006845Y009128D02*
X007682Y009128D01*
X007681Y009129D02*
X006845Y009129D01*
X006846Y009130D02*
X007681Y009130D01*
X007681Y009131D02*
X006846Y009131D01*
X006846Y009132D02*
X007680Y009132D01*
X007680Y009133D02*
X006847Y009133D01*
X006847Y009134D02*
X007680Y009134D01*
X007679Y009135D02*
X006848Y009135D01*
X006848Y009136D02*
X007679Y009136D01*
X007679Y009137D02*
X006848Y009137D01*
X006849Y009138D02*
X007678Y009138D01*
X007678Y009139D02*
X006849Y009139D01*
X006849Y009140D02*
X007678Y009140D01*
X007677Y009141D02*
X006850Y009141D01*
X006850Y009142D02*
X007677Y009142D01*
X007677Y009143D02*
X006850Y009143D01*
X006851Y009144D02*
X007676Y009144D01*
X007676Y009145D02*
X006851Y009145D01*
X006851Y009146D02*
X007676Y009146D01*
X007675Y009147D02*
X006852Y009147D01*
X006852Y009148D02*
X007675Y009148D01*
X007674Y009149D02*
X006853Y009149D01*
X006854Y009150D02*
X007673Y009150D01*
X007673Y009151D02*
X006854Y009151D01*
X006855Y009152D02*
X007672Y009152D01*
X007672Y009153D02*
X006855Y009153D01*
X006856Y009154D02*
X007671Y009154D01*
X007670Y009155D02*
X006857Y009155D01*
X006857Y009156D02*
X007670Y009156D01*
X007669Y009157D02*
X006858Y009157D01*
X006859Y009158D02*
X007668Y009158D01*
X007668Y009159D02*
X006859Y009159D01*
X006860Y009160D02*
X007667Y009160D01*
X007667Y009161D02*
X006860Y009161D01*
X006861Y009162D02*
X007666Y009162D01*
X007665Y009163D02*
X006862Y009163D01*
X006862Y009164D02*
X007665Y009164D01*
X007664Y009165D02*
X006863Y009165D01*
X006864Y009166D02*
X007663Y009166D01*
X007663Y009167D02*
X006864Y009167D01*
X006865Y009168D02*
X007662Y009168D01*
X007661Y009169D02*
X006865Y009169D01*
X006866Y009170D02*
X007661Y009170D01*
X007660Y009171D02*
X006867Y009171D01*
X006867Y009172D02*
X007660Y009172D01*
X007659Y009173D02*
X006868Y009173D01*
X006869Y009174D02*
X007658Y009174D01*
X007658Y009175D02*
X006869Y009175D01*
X006870Y009176D02*
X007657Y009176D01*
X007656Y009177D02*
X006870Y009177D01*
X006871Y009178D02*
X007656Y009178D01*
X007655Y009179D02*
X006872Y009179D01*
X006872Y009180D02*
X007655Y009180D01*
X007654Y009181D02*
X006873Y009181D01*
X006874Y009182D02*
X007653Y009182D01*
X007653Y009183D02*
X006874Y009183D01*
X006875Y009184D02*
X007652Y009184D01*
X007651Y009185D02*
X006875Y009185D01*
X006876Y009186D02*
X007651Y009186D01*
X007650Y009187D02*
X006877Y009187D01*
X006877Y009188D02*
X007650Y009188D01*
X007649Y009189D02*
X006878Y009189D01*
X006879Y009190D02*
X007648Y009190D01*
X007647Y009191D02*
X006880Y009191D01*
X006881Y009192D02*
X007646Y009192D01*
X007645Y009193D02*
X006882Y009193D01*
X006883Y009194D02*
X007644Y009194D01*
X007643Y009195D02*
X006884Y009195D01*
X006885Y009196D02*
X007642Y009196D01*
X007641Y009197D02*
X006886Y009197D01*
X006887Y009198D02*
X007640Y009198D01*
X007639Y009198D02*
X006888Y009198D01*
X006889Y009199D02*
X007638Y009199D01*
X007637Y009200D02*
X006890Y009200D01*
X006891Y009201D02*
X007636Y009201D01*
X007635Y009202D02*
X006892Y009202D01*
X006893Y009203D02*
X007634Y009203D01*
X007633Y009204D02*
X006894Y009204D01*
X006895Y009205D02*
X007632Y009205D01*
X007631Y009206D02*
X006896Y009206D01*
X006897Y009207D02*
X007630Y009207D01*
X007629Y009208D02*
X006898Y009208D01*
X006899Y009209D02*
X007628Y009209D01*
X007627Y009210D02*
X006900Y009210D01*
X006901Y009211D02*
X007626Y009211D01*
X007625Y009212D02*
X006902Y009212D01*
X006903Y009213D02*
X007624Y009213D01*
X007623Y009214D02*
X006904Y009214D01*
X006905Y009215D02*
X007622Y009215D01*
X007621Y009216D02*
X006906Y009216D01*
X006907Y009217D02*
X007620Y009217D01*
X007619Y009218D02*
X006908Y009218D01*
X006909Y009219D02*
X007618Y009219D01*
X007617Y009220D02*
X006910Y009220D01*
X006911Y009221D02*
X007616Y009221D01*
X007615Y009222D02*
X006912Y009222D01*
X006914Y009223D02*
X007613Y009223D01*
X007611Y009224D02*
X006916Y009224D01*
X006917Y009225D02*
X007610Y009225D01*
X007608Y009226D02*
X006919Y009226D01*
X006920Y009227D02*
X007607Y009227D01*
X007605Y009228D02*
X006922Y009228D01*
X006923Y009229D02*
X007603Y009229D01*
X007602Y009230D02*
X006925Y009230D01*
X006927Y009231D02*
X007600Y009231D01*
X007599Y009232D02*
X006928Y009232D01*
X006930Y009233D02*
X007597Y009233D01*
X007596Y009234D02*
X006931Y009234D01*
X006933Y009235D02*
X007594Y009235D01*
X007592Y009236D02*
X006935Y009236D01*
X006936Y009237D02*
X007591Y009237D01*
X007589Y009238D02*
X006938Y009238D01*
X006939Y009239D02*
X007588Y009239D01*
X007586Y009240D02*
X006941Y009240D01*
X006943Y009241D02*
X007584Y009241D01*
X007583Y009242D02*
X006944Y009242D01*
X006946Y009243D02*
X007581Y009243D01*
X007580Y009244D02*
X006947Y009244D01*
X006949Y009245D02*
X007578Y009245D01*
X007576Y009246D02*
X006951Y009246D01*
X006952Y009247D02*
X007575Y009247D01*
X007573Y009248D02*
X006954Y009248D01*
X006957Y009249D02*
X007570Y009249D01*
X007567Y009250D02*
X006960Y009250D01*
X006963Y009251D02*
X007564Y009251D01*
X007561Y009252D02*
X006966Y009252D01*
X006969Y009253D02*
X007558Y009253D01*
X007556Y009254D02*
X006971Y009254D01*
X006974Y009255D02*
X007553Y009255D01*
X007550Y009256D02*
X006977Y009256D01*
X006980Y009257D02*
X007547Y009257D01*
X007544Y009258D02*
X006983Y009258D01*
X006986Y009259D02*
X007541Y009259D01*
X007538Y009260D02*
X006989Y009260D01*
X006991Y009261D02*
X007536Y009261D01*
X007533Y009262D02*
X006994Y009262D01*
X006997Y009263D02*
X007530Y009263D01*
X007525Y009264D02*
X007002Y009264D01*
X007011Y009265D02*
X007516Y009265D01*
X007507Y009266D02*
X007020Y009266D01*
X007029Y009267D02*
X007498Y009267D01*
X007489Y009268D02*
X007038Y009268D01*
X007047Y009269D02*
X007480Y009269D01*
X007515Y008840D02*
X007012Y008840D01*
X007022Y008839D02*
X007505Y008839D01*
X007495Y008838D02*
X007032Y008838D01*
X007042Y008837D02*
X007485Y008837D01*
X005999Y009010D02*
X005221Y009010D01*
X005221Y009011D02*
X005999Y009011D01*
X005999Y009012D02*
X005221Y009012D01*
X005221Y009013D02*
X005999Y009013D01*
X005999Y009014D02*
X005221Y009014D01*
X005221Y009015D02*
X005999Y009015D01*
X005999Y009016D02*
X005220Y009016D01*
X005220Y009017D02*
X006000Y009017D01*
X006000Y009018D02*
X005220Y009018D01*
X005220Y009019D02*
X006000Y009019D01*
X006000Y009020D02*
X005220Y009020D01*
X005220Y009021D02*
X006000Y009021D01*
X006000Y009022D02*
X005220Y009022D01*
X005220Y009023D02*
X006000Y009023D01*
X006000Y009024D02*
X005220Y009024D01*
X005219Y009025D02*
X006000Y009025D01*
X006001Y009026D02*
X005219Y009026D01*
X005219Y009027D02*
X006001Y009027D01*
X006001Y009028D02*
X005219Y009028D01*
X005219Y009029D02*
X006001Y009029D01*
X006001Y009030D02*
X005219Y009030D01*
X005219Y009031D02*
X006001Y009031D01*
X006001Y009032D02*
X005219Y009032D01*
X005219Y009033D02*
X006001Y009033D01*
X006001Y009034D02*
X005218Y009034D01*
X005218Y009035D02*
X006002Y009035D01*
X006002Y009036D02*
X005218Y009036D01*
X005218Y009037D02*
X006002Y009037D01*
X006002Y009038D02*
X005218Y009038D01*
X005218Y009039D02*
X006002Y009039D01*
X006002Y009040D02*
X005218Y009040D01*
X005218Y009041D02*
X006002Y009041D01*
X006002Y009042D02*
X005217Y009042D01*
X005217Y009043D02*
X006002Y009043D01*
X006003Y009044D02*
X005217Y009044D01*
X005217Y009045D02*
X006003Y009045D01*
X006003Y009046D02*
X005217Y009046D01*
X005217Y009047D02*
X006003Y009047D01*
X006003Y009048D02*
X005217Y009048D01*
X005217Y009049D02*
X006003Y009049D01*
X006003Y009050D02*
X005217Y009050D01*
X005216Y009051D02*
X006003Y009051D01*
X006003Y009052D02*
X005216Y009052D01*
X005216Y009053D02*
X006004Y009053D01*
X006004Y009054D02*
X005216Y009054D01*
X005216Y009055D02*
X006003Y009055D01*
X006003Y009056D02*
X005217Y009056D01*
X005217Y009057D02*
X006003Y009057D01*
X006003Y009058D02*
X005217Y009058D01*
X005217Y009059D02*
X006003Y009059D01*
X006003Y009060D02*
X005217Y009060D01*
X005217Y009061D02*
X006003Y009061D01*
X006003Y009062D02*
X005217Y009062D01*
X005217Y009063D02*
X006003Y009063D01*
X006002Y009064D02*
X005217Y009064D01*
X005218Y009065D02*
X006002Y009065D01*
X006002Y009066D02*
X005218Y009066D01*
X005218Y009067D02*
X006002Y009067D01*
X006002Y009068D02*
X005218Y009068D01*
X005218Y009069D02*
X006002Y009069D01*
X006002Y009070D02*
X005218Y009070D01*
X005218Y009071D02*
X006002Y009071D01*
X006002Y009072D02*
X005218Y009072D01*
X005218Y009073D02*
X006001Y009073D01*
X006001Y009074D02*
X005219Y009074D01*
X005219Y009075D02*
X006001Y009075D01*
X006001Y009076D02*
X005219Y009076D01*
X005219Y009077D02*
X006001Y009077D01*
X006001Y009078D02*
X005219Y009078D01*
X005219Y009079D02*
X006001Y009079D01*
X006001Y009080D02*
X005219Y009080D01*
X005219Y009081D02*
X006000Y009081D01*
X006000Y009082D02*
X005219Y009082D01*
X005220Y009083D02*
X006000Y009083D01*
X006000Y009084D02*
X005220Y009084D01*
X005220Y009085D02*
X006000Y009085D01*
X006000Y009086D02*
X005220Y009086D01*
X005220Y009087D02*
X006000Y009087D01*
X006000Y009088D02*
X005220Y009088D01*
X005220Y009089D02*
X006000Y009089D01*
X005999Y009090D02*
X005220Y009090D01*
X005220Y009091D02*
X005999Y009091D01*
X005999Y009092D02*
X005221Y009092D01*
X005221Y009093D02*
X005999Y009093D01*
X005999Y009094D02*
X005221Y009094D01*
X005221Y009095D02*
X005999Y009095D01*
X005999Y009096D02*
X005221Y009096D01*
X005221Y009097D02*
X005999Y009097D01*
X005998Y009098D02*
X005221Y009098D01*
X005222Y009099D02*
X005998Y009099D01*
X005998Y009100D02*
X005222Y009100D01*
X005223Y009101D02*
X005997Y009101D01*
X005997Y009102D02*
X005223Y009102D01*
X005223Y009103D02*
X005997Y009103D01*
X005996Y009104D02*
X005224Y009104D01*
X005224Y009105D02*
X005996Y009105D01*
X005996Y009106D02*
X005224Y009106D01*
X005225Y009107D02*
X005995Y009107D01*
X005995Y009108D02*
X005225Y009108D01*
X005225Y009109D02*
X005995Y009109D01*
X005994Y009110D02*
X005226Y009110D01*
X005226Y009111D02*
X005994Y009111D01*
X005993Y009112D02*
X005226Y009112D01*
X005227Y009113D02*
X005993Y009113D01*
X005993Y009114D02*
X005227Y009114D01*
X005227Y009115D02*
X005992Y009115D01*
X005992Y009116D02*
X005228Y009116D01*
X005228Y009117D02*
X005992Y009117D01*
X005991Y009118D02*
X005228Y009118D01*
X005229Y009119D02*
X005991Y009119D01*
X005991Y009120D02*
X005229Y009120D01*
X005230Y009121D02*
X005990Y009121D01*
X005990Y009122D02*
X005230Y009122D01*
X005230Y009123D02*
X005990Y009123D01*
X005989Y009124D02*
X005231Y009124D01*
X005231Y009125D02*
X005989Y009125D01*
X005989Y009126D02*
X005231Y009126D01*
X005232Y009127D02*
X005988Y009127D01*
X005988Y009128D02*
X005232Y009128D01*
X005232Y009129D02*
X005988Y009129D01*
X005987Y009130D02*
X005233Y009130D01*
X005233Y009131D02*
X005987Y009131D01*
X005986Y009132D02*
X005233Y009132D01*
X005234Y009133D02*
X005986Y009133D01*
X005986Y009134D02*
X005234Y009134D01*
X005234Y009135D02*
X005985Y009135D01*
X005985Y009136D02*
X005235Y009136D01*
X005235Y009137D02*
X005985Y009137D01*
X005984Y009138D02*
X005235Y009138D01*
X005236Y009139D02*
X005984Y009139D01*
X005983Y009140D02*
X005236Y009140D01*
X005237Y009141D02*
X005983Y009141D01*
X005982Y009142D02*
X005238Y009142D01*
X005238Y009143D02*
X005981Y009143D01*
X005981Y009144D02*
X005239Y009144D01*
X005240Y009145D02*
X005980Y009145D01*
X005980Y009146D02*
X005240Y009146D01*
X005241Y009147D02*
X005979Y009147D01*
X005978Y009148D02*
X005242Y009148D01*
X005242Y009149D02*
X005978Y009149D01*
X005977Y009150D02*
X005243Y009150D01*
X005243Y009151D02*
X005976Y009151D01*
X005976Y009152D02*
X005244Y009152D01*
X005245Y009153D02*
X005975Y009153D01*
X005975Y009154D02*
X005245Y009154D01*
X005246Y009155D02*
X005974Y009155D01*
X005973Y009156D02*
X005247Y009156D01*
X005247Y009157D02*
X005973Y009157D01*
X005972Y009158D02*
X005248Y009158D01*
X005248Y009159D02*
X005971Y009159D01*
X005971Y009160D02*
X005249Y009160D01*
X005250Y009161D02*
X005970Y009161D01*
X005970Y009162D02*
X005250Y009162D01*
X005251Y009163D02*
X005969Y009163D01*
X005968Y009164D02*
X005252Y009164D01*
X005252Y009165D02*
X005968Y009165D01*
X005967Y009166D02*
X005253Y009166D01*
X005253Y009167D02*
X005966Y009167D01*
X005966Y009168D02*
X005254Y009168D01*
X005255Y009169D02*
X005965Y009169D01*
X005965Y009170D02*
X005255Y009170D01*
X005256Y009171D02*
X005964Y009171D01*
X005963Y009172D02*
X005257Y009172D01*
X005257Y009173D02*
X005963Y009173D01*
X005962Y009174D02*
X005258Y009174D01*
X005258Y009175D02*
X005961Y009175D01*
X005961Y009176D02*
X005259Y009176D01*
X005260Y009177D02*
X005960Y009177D01*
X005959Y009178D02*
X005261Y009178D01*
X005262Y009179D02*
X005958Y009179D01*
X005957Y009180D02*
X005263Y009180D01*
X005264Y009181D02*
X005956Y009181D01*
X005955Y009182D02*
X005265Y009182D01*
X005266Y009183D02*
X005954Y009183D01*
X005953Y009184D02*
X005267Y009184D01*
X005268Y009185D02*
X005952Y009185D01*
X005951Y009186D02*
X005269Y009186D01*
X005270Y009187D02*
X005950Y009187D01*
X005949Y009188D02*
X005271Y009188D01*
X005272Y009189D02*
X005948Y009189D01*
X005947Y009190D02*
X005273Y009190D01*
X005274Y009191D02*
X005946Y009191D01*
X005945Y009192D02*
X005275Y009192D01*
X005276Y009193D02*
X005944Y009193D01*
X005943Y009194D02*
X005277Y009194D01*
X005278Y009195D02*
X005942Y009195D01*
X005941Y009196D02*
X005279Y009196D01*
X005280Y009197D02*
X005940Y009197D01*
X005939Y009198D02*
X005281Y009198D01*
X005282Y009198D02*
X005938Y009198D01*
X005937Y009199D02*
X005283Y009199D01*
X005284Y009200D02*
X005936Y009200D01*
X005935Y009201D02*
X005285Y009201D01*
X005286Y009202D02*
X005934Y009202D01*
X005933Y009203D02*
X005287Y009203D01*
X005288Y009204D02*
X005932Y009204D01*
X005931Y009205D02*
X005289Y009205D01*
X005290Y009206D02*
X005930Y009206D01*
X005928Y009207D02*
X005291Y009207D01*
X005293Y009208D02*
X005927Y009208D01*
X005925Y009209D02*
X005295Y009209D01*
X005296Y009210D02*
X005924Y009210D01*
X005922Y009211D02*
X005298Y009211D01*
X005299Y009212D02*
X005920Y009212D01*
X005919Y009213D02*
X005301Y009213D01*
X005303Y009214D02*
X005917Y009214D01*
X005916Y009215D02*
X005304Y009215D01*
X005306Y009216D02*
X005914Y009216D01*
X005913Y009217D02*
X005307Y009217D01*
X005309Y009218D02*
X005911Y009218D01*
X005909Y009219D02*
X005310Y009219D01*
X005312Y009220D02*
X005908Y009220D01*
X005906Y009221D02*
X005314Y009221D01*
X005315Y009222D02*
X005905Y009222D01*
X005903Y009223D02*
X005317Y009223D01*
X005318Y009224D02*
X005901Y009224D01*
X005900Y009225D02*
X005320Y009225D01*
X005322Y009226D02*
X005898Y009226D01*
X005897Y009227D02*
X005323Y009227D01*
X005325Y009228D02*
X005895Y009228D01*
X005893Y009229D02*
X005326Y009229D01*
X005328Y009230D02*
X005892Y009230D01*
X005889Y009231D02*
X005331Y009231D01*
X005334Y009232D02*
X005886Y009232D01*
X005883Y009233D02*
X005337Y009233D01*
X005340Y009234D02*
X005880Y009234D01*
X005877Y009235D02*
X005343Y009235D01*
X005345Y009236D02*
X005874Y009236D01*
X005872Y009237D02*
X005348Y009237D01*
X005351Y009238D02*
X005869Y009238D01*
X005866Y009239D02*
X005354Y009239D01*
X005357Y009240D02*
X005863Y009240D01*
X005860Y009241D02*
X005360Y009241D01*
X005362Y009242D02*
X005857Y009242D01*
X005854Y009243D02*
X005365Y009243D01*
X005368Y009244D02*
X005852Y009244D01*
X005845Y009245D02*
X005375Y009245D01*
X005384Y009246D02*
X005836Y009246D01*
X005827Y009247D02*
X005393Y009247D01*
X005401Y009248D02*
X005818Y009248D01*
X005810Y009249D02*
X005410Y009249D01*
X005221Y009009D02*
X005999Y009009D01*
X005998Y009008D02*
X005222Y009008D01*
X005222Y009007D02*
X005998Y009007D01*
X005997Y009006D02*
X005222Y009006D01*
X005223Y009005D02*
X005997Y009005D01*
X005997Y009004D02*
X005223Y009004D01*
X005223Y009003D02*
X005996Y009003D01*
X005996Y009002D02*
X005224Y009002D01*
X005224Y009001D02*
X005996Y009001D01*
X005995Y009000D02*
X005224Y009000D01*
X005225Y008999D02*
X005995Y008999D01*
X005995Y008998D02*
X005225Y008998D01*
X005226Y008997D02*
X005994Y008997D01*
X005994Y008996D02*
X005226Y008996D01*
X005226Y008995D02*
X005994Y008995D01*
X005993Y008994D02*
X005227Y008994D01*
X005227Y008993D02*
X005993Y008993D01*
X005993Y008992D02*
X005227Y008992D01*
X005228Y008991D02*
X005992Y008991D01*
X005992Y008990D02*
X005228Y008990D01*
X005228Y008989D02*
X005992Y008989D01*
X005991Y008988D02*
X005229Y008988D01*
X005229Y008987D02*
X005991Y008987D01*
X005990Y008986D02*
X005229Y008986D01*
X005230Y008985D02*
X005990Y008985D01*
X005990Y008984D02*
X005230Y008984D01*
X005230Y008983D02*
X005989Y008983D01*
X005989Y008982D02*
X005231Y008982D01*
X005231Y008981D02*
X005989Y008981D01*
X005988Y008980D02*
X005231Y008980D01*
X005232Y008979D02*
X005988Y008979D01*
X005988Y008978D02*
X005232Y008978D01*
X005232Y008977D02*
X005987Y008977D01*
X005987Y008976D02*
X005233Y008976D01*
X005233Y008975D02*
X005987Y008975D01*
X005986Y008974D02*
X005234Y008974D01*
X005234Y008973D02*
X005986Y008973D01*
X005986Y008972D02*
X005234Y008972D01*
X005235Y008971D02*
X005985Y008971D01*
X005985Y008970D02*
X005235Y008970D01*
X005235Y008969D02*
X005985Y008969D01*
X005984Y008968D02*
X005236Y008968D01*
X005236Y008967D02*
X005984Y008967D01*
X005983Y008966D02*
X005237Y008966D01*
X005237Y008965D02*
X005982Y008965D01*
X005982Y008964D02*
X005238Y008964D01*
X005239Y008963D02*
X005981Y008963D01*
X005981Y008962D02*
X005239Y008962D01*
X005240Y008961D02*
X005980Y008961D01*
X005979Y008960D02*
X005241Y008960D01*
X005241Y008959D02*
X005979Y008959D01*
X005978Y008958D02*
X005242Y008958D01*
X005242Y008957D02*
X005977Y008957D01*
X005977Y008956D02*
X005243Y008956D01*
X005244Y008955D02*
X005976Y008955D01*
X005975Y008954D02*
X005244Y008954D01*
X005245Y008953D02*
X005975Y008953D01*
X005974Y008952D02*
X005246Y008952D01*
X005246Y008951D02*
X005974Y008951D01*
X005973Y008950D02*
X005247Y008950D01*
X005248Y008949D02*
X005972Y008949D01*
X005972Y008948D02*
X005248Y008948D01*
X005249Y008947D02*
X005971Y008947D01*
X005970Y008946D02*
X005249Y008946D01*
X005250Y008945D02*
X005970Y008945D01*
X005969Y008944D02*
X005251Y008944D01*
X005251Y008943D02*
X005969Y008943D01*
X005968Y008942D02*
X005252Y008942D01*
X005253Y008941D02*
X005967Y008941D01*
X005967Y008940D02*
X005253Y008940D01*
X005254Y008939D02*
X005966Y008939D01*
X005965Y008938D02*
X005254Y008938D01*
X005255Y008937D02*
X005965Y008937D01*
X005964Y008936D02*
X005256Y008936D01*
X005256Y008935D02*
X005964Y008935D01*
X005963Y008934D02*
X005257Y008934D01*
X005258Y008933D02*
X005962Y008933D01*
X005962Y008932D02*
X005258Y008932D01*
X005259Y008931D02*
X005961Y008931D01*
X005960Y008930D02*
X005260Y008930D01*
X005261Y008929D02*
X005959Y008929D01*
X005958Y008928D02*
X005262Y008928D01*
X005263Y008927D02*
X005957Y008927D01*
X005956Y008926D02*
X005264Y008926D01*
X005265Y008925D02*
X005955Y008925D01*
X005954Y008924D02*
X005266Y008924D01*
X005267Y008923D02*
X005953Y008923D01*
X005952Y008922D02*
X005268Y008922D01*
X005269Y008921D02*
X005951Y008921D01*
X005950Y008920D02*
X005270Y008920D01*
X005271Y008919D02*
X005949Y008919D01*
X005948Y008918D02*
X005272Y008918D01*
X005273Y008917D02*
X005947Y008917D01*
X005946Y008916D02*
X005274Y008916D01*
X005275Y008915D02*
X005945Y008915D01*
X005944Y008914D02*
X005276Y008914D01*
X005277Y008913D02*
X005943Y008913D01*
X005942Y008912D02*
X005278Y008912D01*
X005279Y008911D02*
X005941Y008911D01*
X005940Y008910D02*
X005280Y008910D01*
X005281Y008909D02*
X005939Y008909D01*
X005938Y008908D02*
X005282Y008908D01*
X005283Y008907D02*
X005937Y008907D01*
X005936Y008906D02*
X005284Y008906D01*
X005285Y008905D02*
X005935Y008905D01*
X005934Y008904D02*
X005286Y008904D01*
X005287Y008903D02*
X005933Y008903D01*
X005932Y008902D02*
X005288Y008902D01*
X005289Y008901D02*
X005931Y008901D01*
X005930Y008900D02*
X005290Y008900D01*
X005291Y008899D02*
X005929Y008899D01*
X005928Y008898D02*
X005292Y008898D01*
X005294Y008897D02*
X005926Y008897D01*
X005924Y008896D02*
X005295Y008896D01*
X005297Y008895D02*
X005923Y008895D01*
X005921Y008894D02*
X005299Y008894D01*
X005300Y008893D02*
X005920Y008893D01*
X005918Y008892D02*
X005302Y008892D01*
X005303Y008891D02*
X005916Y008891D01*
X005915Y008890D02*
X005305Y008890D01*
X005307Y008889D02*
X005913Y008889D01*
X005912Y008888D02*
X005308Y008888D01*
X005310Y008887D02*
X005910Y008887D01*
X005908Y008886D02*
X005311Y008886D01*
X005313Y008885D02*
X005907Y008885D01*
X005905Y008884D02*
X005315Y008884D01*
X005316Y008883D02*
X005904Y008883D01*
X005902Y008882D02*
X005318Y008882D01*
X005319Y008881D02*
X005901Y008881D01*
X005899Y008880D02*
X005321Y008880D01*
X005322Y008879D02*
X005897Y008879D01*
X005896Y008878D02*
X005324Y008878D01*
X005326Y008877D02*
X005894Y008877D01*
X005893Y008876D02*
X005327Y008876D01*
X005330Y008875D02*
X005890Y008875D01*
X005887Y008874D02*
X005333Y008874D01*
X005335Y008873D02*
X005884Y008873D01*
X005882Y008872D02*
X005338Y008872D01*
X005341Y008871D02*
X005879Y008871D01*
X005876Y008870D02*
X005344Y008870D01*
X005347Y008869D02*
X005873Y008869D01*
X005870Y008868D02*
X005350Y008868D01*
X005353Y008867D02*
X005867Y008867D01*
X005864Y008866D02*
X005355Y008866D01*
X005358Y008865D02*
X005862Y008865D01*
X005859Y008864D02*
X005361Y008864D01*
X005364Y008863D02*
X005856Y008863D01*
X005853Y008862D02*
X005367Y008862D01*
X005371Y008861D02*
X005849Y008861D01*
X005840Y008860D02*
X005380Y008860D01*
X005388Y008859D02*
X005831Y008859D01*
X005822Y008858D02*
X005397Y008858D01*
X005406Y008857D02*
X005814Y008857D01*
X006983Y005873D02*
X007544Y005873D01*
X007547Y005872D02*
X006980Y005872D01*
X006978Y005871D02*
X007549Y005871D01*
X007552Y005870D02*
X006975Y005870D01*
X006972Y005869D02*
X007555Y005869D01*
X007558Y005868D02*
X006969Y005868D01*
X006966Y005867D02*
X007561Y005867D01*
X007564Y005866D02*
X006963Y005866D01*
X006960Y005865D02*
X007567Y005865D01*
X007569Y005864D02*
X006958Y005864D01*
X006955Y005863D02*
X007572Y005863D01*
X007575Y005862D02*
X006952Y005862D01*
X006951Y005861D02*
X007576Y005861D01*
X007578Y005860D02*
X006949Y005860D01*
X006948Y005859D02*
X007579Y005859D01*
X007581Y005858D02*
X006946Y005858D01*
X006944Y005857D02*
X007583Y005857D01*
X007584Y005856D02*
X006943Y005856D01*
X006941Y005855D02*
X007586Y005855D01*
X007587Y005854D02*
X006940Y005854D01*
X006938Y005853D02*
X007589Y005853D01*
X007590Y005852D02*
X006936Y005852D01*
X006935Y005851D02*
X007592Y005851D01*
X007594Y005850D02*
X006933Y005850D01*
X006932Y005849D02*
X007595Y005849D01*
X007597Y005848D02*
X006930Y005848D01*
X006929Y005847D02*
X007598Y005847D01*
X007600Y005846D02*
X006927Y005846D01*
X006925Y005845D02*
X007602Y005845D01*
X007603Y005844D02*
X006924Y005844D01*
X006922Y005843D02*
X007605Y005843D01*
X007606Y005842D02*
X006921Y005842D01*
X006919Y005841D02*
X007608Y005841D01*
X007610Y005840D02*
X006917Y005840D01*
X006916Y005839D02*
X007611Y005839D01*
X007613Y005838D02*
X006914Y005838D01*
X006913Y005837D02*
X007614Y005837D01*
X007616Y005836D02*
X006911Y005836D01*
X006910Y005835D02*
X007617Y005835D01*
X007618Y005834D02*
X006909Y005834D01*
X006908Y005833D02*
X007619Y005833D01*
X007620Y005832D02*
X006907Y005832D01*
X006906Y005831D02*
X007621Y005831D01*
X007622Y005830D02*
X006905Y005830D01*
X006904Y005829D02*
X007623Y005829D01*
X007624Y005828D02*
X006903Y005828D01*
X006902Y005827D02*
X007625Y005827D01*
X007626Y005826D02*
X006901Y005826D01*
X006900Y005825D02*
X007627Y005825D01*
X007628Y005824D02*
X006899Y005824D01*
X006898Y005823D02*
X007629Y005823D01*
X007630Y005822D02*
X006897Y005822D01*
X006896Y005821D02*
X007631Y005821D01*
X007632Y005820D02*
X006895Y005820D01*
X006894Y005819D02*
X007633Y005819D01*
X007634Y005818D02*
X006893Y005818D01*
X006892Y005817D02*
X007635Y005817D01*
X007636Y005816D02*
X006891Y005816D01*
X006890Y005815D02*
X007637Y005815D01*
X007638Y005814D02*
X006889Y005814D01*
X006888Y005813D02*
X007639Y005813D01*
X007640Y005812D02*
X006887Y005812D01*
X006886Y005811D02*
X007641Y005811D01*
X007642Y005810D02*
X006885Y005810D01*
X006884Y005809D02*
X007643Y005809D01*
X007644Y005808D02*
X006883Y005808D01*
X006882Y005807D02*
X007645Y005807D01*
X007646Y005806D02*
X006881Y005806D01*
X006880Y005805D02*
X007647Y005805D01*
X007648Y005804D02*
X006879Y005804D01*
X006878Y005803D02*
X007649Y005803D01*
X007649Y005802D02*
X006877Y005802D01*
X006877Y005801D02*
X007650Y005801D01*
X007651Y005800D02*
X006876Y005800D01*
X006876Y005799D02*
X007651Y005799D01*
X007652Y005798D02*
X006875Y005798D01*
X006874Y005797D02*
X007653Y005797D01*
X007653Y005796D02*
X006874Y005796D01*
X006873Y005795D02*
X007654Y005795D01*
X007654Y005794D02*
X006872Y005794D01*
X006872Y005793D02*
X007655Y005793D01*
X007656Y005792D02*
X006871Y005792D01*
X006871Y005791D02*
X007656Y005791D01*
X007657Y005790D02*
X006870Y005790D01*
X006869Y005789D02*
X007658Y005789D01*
X007658Y005788D02*
X006869Y005788D01*
X006868Y005787D02*
X007659Y005787D01*
X007659Y005786D02*
X006867Y005786D01*
X006867Y005785D02*
X007660Y005785D01*
X007661Y005784D02*
X006866Y005784D01*
X006866Y005783D02*
X007661Y005783D01*
X007662Y005782D02*
X006865Y005782D01*
X006864Y005781D02*
X007663Y005781D01*
X007663Y005780D02*
X006864Y005780D01*
X006863Y005779D02*
X007664Y005779D01*
X007665Y005778D02*
X006862Y005778D01*
X006862Y005777D02*
X007665Y005777D01*
X007666Y005776D02*
X006861Y005776D01*
X006861Y005775D02*
X007666Y005775D01*
X007667Y005774D02*
X006860Y005774D01*
X006859Y005773D02*
X007668Y005773D01*
X007668Y005772D02*
X006859Y005772D01*
X006858Y005771D02*
X007669Y005771D01*
X007670Y005770D02*
X006857Y005770D01*
X006857Y005769D02*
X007670Y005769D01*
X007671Y005768D02*
X006856Y005768D01*
X006856Y005767D02*
X007671Y005767D01*
X007672Y005766D02*
X006855Y005766D01*
X006854Y005765D02*
X007673Y005765D01*
X007673Y005764D02*
X006854Y005764D01*
X006853Y005763D02*
X007674Y005763D01*
X007675Y005762D02*
X006852Y005762D01*
X006852Y005761D02*
X007675Y005761D01*
X007675Y005760D02*
X006851Y005760D01*
X006851Y005759D02*
X007676Y005759D01*
X007676Y005758D02*
X006851Y005758D01*
X006850Y005757D02*
X007677Y005757D01*
X007677Y005756D02*
X006850Y005756D01*
X006850Y005755D02*
X007677Y005755D01*
X007678Y005754D02*
X006849Y005754D01*
X006849Y005753D02*
X007678Y005753D01*
X007678Y005752D02*
X006849Y005752D01*
X006848Y005751D02*
X007679Y005751D01*
X007679Y005750D02*
X006848Y005750D01*
X006848Y005749D02*
X007679Y005749D01*
X007680Y005748D02*
X006847Y005748D01*
X006847Y005747D02*
X007680Y005747D01*
X007680Y005746D02*
X006847Y005746D01*
X006846Y005745D02*
X007681Y005745D01*
X007681Y005744D02*
X006846Y005744D01*
X006845Y005743D02*
X007681Y005743D01*
X007682Y005742D02*
X006845Y005742D01*
X006845Y005741D02*
X007682Y005741D01*
X007682Y005740D02*
X006844Y005740D01*
X006844Y005739D02*
X007683Y005739D01*
X007683Y005738D02*
X006844Y005738D01*
X006843Y005737D02*
X007684Y005737D01*
X007684Y005736D02*
X006843Y005736D01*
X006843Y005735D02*
X007684Y005735D01*
X007685Y005734D02*
X006842Y005734D01*
X006842Y005733D02*
X007685Y005733D01*
X007685Y005732D02*
X006842Y005732D01*
X006841Y005731D02*
X007686Y005731D01*
X007686Y005730D02*
X006841Y005730D01*
X006841Y005729D02*
X007686Y005729D01*
X007687Y005728D02*
X006840Y005728D01*
X006840Y005727D02*
X007687Y005727D01*
X007687Y005726D02*
X006840Y005726D01*
X006839Y005725D02*
X007688Y005725D01*
X007688Y005724D02*
X006839Y005724D01*
X006839Y005723D02*
X007688Y005723D01*
X007689Y005722D02*
X006838Y005722D01*
X006838Y005721D02*
X007689Y005721D01*
X007689Y005720D02*
X006837Y005720D01*
X006837Y005719D02*
X007690Y005719D01*
X007690Y005718D02*
X006837Y005718D01*
X006836Y005717D02*
X007691Y005717D01*
X007691Y005716D02*
X006836Y005716D01*
X006836Y005715D02*
X007691Y005715D01*
X007691Y005714D02*
X006836Y005714D01*
X006836Y005713D02*
X007691Y005713D01*
X007691Y005712D02*
X006835Y005712D01*
X006835Y005711D02*
X007692Y005711D01*
X007692Y005710D02*
X006835Y005710D01*
X006835Y005709D02*
X007692Y005709D01*
X007692Y005708D02*
X006835Y005708D01*
X006835Y005707D02*
X007692Y005707D01*
X007692Y005706D02*
X006835Y005706D01*
X006835Y005705D02*
X007692Y005705D01*
X007692Y005704D02*
X006835Y005704D01*
X006834Y005703D02*
X007692Y005703D01*
X007693Y005702D02*
X006834Y005702D01*
X006834Y005701D02*
X007693Y005701D01*
X007693Y005700D02*
X006834Y005700D01*
X006834Y005699D02*
X007693Y005699D01*
X007693Y005698D02*
X006834Y005698D01*
X006834Y005697D02*
X007693Y005697D01*
X007693Y005696D02*
X006834Y005696D01*
X006834Y005695D02*
X007693Y005695D01*
X007694Y005694D02*
X006833Y005694D01*
X006833Y005693D02*
X007694Y005693D01*
X007694Y005692D02*
X006833Y005692D01*
X006833Y005691D02*
X007694Y005691D01*
X007694Y005690D02*
X006833Y005690D01*
X006833Y005689D02*
X007694Y005689D01*
X007694Y005688D02*
X006833Y005688D01*
X006833Y005687D02*
X007694Y005687D01*
X007694Y005686D02*
X006833Y005686D01*
X006832Y005685D02*
X007695Y005685D01*
X007695Y005684D02*
X006832Y005684D01*
X006832Y005683D02*
X007695Y005683D01*
X007695Y005682D02*
X006832Y005682D01*
X006832Y005681D02*
X007695Y005681D01*
X007695Y005680D02*
X006832Y005680D01*
X006832Y005679D02*
X007695Y005679D01*
X007695Y005678D02*
X006832Y005678D01*
X006832Y005677D02*
X007695Y005677D01*
X007696Y005676D02*
X006831Y005676D01*
X006831Y005675D02*
X007696Y005675D01*
X007696Y005674D02*
X006831Y005674D01*
X006831Y005673D02*
X007696Y005673D01*
X007696Y005672D02*
X006831Y005672D01*
X006831Y005671D02*
X007696Y005671D01*
X007696Y005670D02*
X006831Y005670D01*
X006831Y005669D02*
X007696Y005669D01*
X007696Y005668D02*
X006830Y005668D01*
X006830Y005667D02*
X007697Y005667D01*
X007696Y005666D02*
X006831Y005666D01*
X006831Y005665D02*
X007696Y005665D01*
X007696Y005664D02*
X006831Y005664D01*
X006831Y005663D02*
X007696Y005663D01*
X007696Y005662D02*
X006831Y005662D01*
X006831Y005661D02*
X007696Y005661D01*
X007696Y005660D02*
X006831Y005660D01*
X006831Y005659D02*
X007696Y005659D01*
X007696Y005658D02*
X006831Y005658D01*
X006831Y005657D02*
X007696Y005657D01*
X007695Y005656D02*
X006831Y005656D01*
X006832Y005655D02*
X007695Y005655D01*
X007695Y005654D02*
X006832Y005654D01*
X006832Y005653D02*
X007695Y005653D01*
X007695Y005652D02*
X006832Y005652D01*
X006832Y005651D02*
X007695Y005651D01*
X007695Y005650D02*
X006832Y005650D01*
X006832Y005649D02*
X007695Y005649D01*
X007695Y005648D02*
X006832Y005648D01*
X006832Y005647D02*
X007695Y005647D01*
X007694Y005646D02*
X006832Y005646D01*
X006833Y005645D02*
X007694Y005645D01*
X007694Y005644D02*
X006833Y005644D01*
X006833Y005643D02*
X007694Y005643D01*
X007694Y005642D02*
X006833Y005642D01*
X006833Y005641D02*
X007694Y005641D01*
X007694Y005640D02*
X006833Y005640D01*
X006833Y005639D02*
X007694Y005639D01*
X007694Y005638D02*
X006833Y005638D01*
X006833Y005637D02*
X007694Y005637D01*
X007693Y005636D02*
X006833Y005636D01*
X006834Y005635D02*
X007693Y005635D01*
X007693Y005634D02*
X006834Y005634D01*
X006834Y005633D02*
X007693Y005633D01*
X007693Y005632D02*
X006834Y005632D01*
X006834Y005631D02*
X007693Y005631D01*
X007693Y005630D02*
X006834Y005630D01*
X006834Y005629D02*
X007693Y005629D01*
X007693Y005628D02*
X006834Y005628D01*
X006834Y005627D02*
X007693Y005627D01*
X007692Y005626D02*
X006834Y005626D01*
X006835Y005625D02*
X007692Y005625D01*
X007692Y005624D02*
X006835Y005624D01*
X006835Y005623D02*
X007692Y005623D01*
X007692Y005622D02*
X006835Y005622D01*
X006836Y005621D02*
X007691Y005621D01*
X007691Y005620D02*
X006836Y005620D01*
X006836Y005619D02*
X007691Y005619D01*
X007690Y005618D02*
X006837Y005618D01*
X006837Y005617D02*
X007690Y005617D01*
X007690Y005616D02*
X006837Y005616D01*
X006838Y005615D02*
X007689Y005615D01*
X007689Y005614D02*
X006838Y005614D01*
X006838Y005613D02*
X007689Y005613D01*
X007688Y005612D02*
X006838Y005612D01*
X006839Y005611D02*
X007688Y005611D01*
X007688Y005610D02*
X006839Y005610D01*
X006839Y005609D02*
X007688Y005609D01*
X007687Y005608D02*
X006840Y005608D01*
X006840Y005607D02*
X007687Y005607D01*
X007687Y005606D02*
X006840Y005606D01*
X006841Y005605D02*
X007686Y005605D01*
X007686Y005604D02*
X006841Y005604D01*
X006841Y005603D02*
X007686Y005603D01*
X007685Y005602D02*
X006841Y005602D01*
X006842Y005601D02*
X007685Y005601D01*
X007685Y005600D02*
X006842Y005600D01*
X006842Y005599D02*
X007685Y005599D01*
X007684Y005598D02*
X006843Y005598D01*
X006843Y005597D02*
X007684Y005597D01*
X007684Y005596D02*
X006843Y005596D01*
X006844Y005595D02*
X007683Y005595D01*
X007683Y005594D02*
X006844Y005594D01*
X006844Y005593D02*
X007683Y005593D01*
X007682Y005592D02*
X006845Y005592D01*
X006845Y005591D02*
X007682Y005591D01*
X007682Y005590D02*
X006845Y005590D01*
X006845Y005589D02*
X007682Y005589D01*
X007681Y005588D02*
X006846Y005588D01*
X006846Y005587D02*
X007681Y005587D01*
X007681Y005586D02*
X006846Y005586D01*
X006847Y005585D02*
X007680Y005585D01*
X007680Y005584D02*
X006847Y005584D01*
X006847Y005583D02*
X007679Y005583D01*
X007679Y005582D02*
X006848Y005582D01*
X006849Y005581D02*
X007678Y005581D01*
X007678Y005580D02*
X006849Y005580D01*
X006850Y005579D02*
X007677Y005579D01*
X007677Y005578D02*
X006850Y005578D01*
X006851Y005577D02*
X007676Y005577D01*
X007676Y005576D02*
X006851Y005576D01*
X006852Y005575D02*
X007675Y005575D01*
X007675Y005574D02*
X006852Y005574D01*
X006853Y005573D02*
X007674Y005573D01*
X007674Y005572D02*
X006853Y005572D01*
X006854Y005571D02*
X007673Y005571D01*
X007672Y005570D02*
X006854Y005570D01*
X006855Y005569D02*
X007672Y005569D01*
X007671Y005568D02*
X006856Y005568D01*
X006856Y005567D02*
X007671Y005567D01*
X007670Y005566D02*
X006857Y005566D01*
X006857Y005565D02*
X007670Y005565D01*
X007669Y005564D02*
X006858Y005564D01*
X006858Y005563D02*
X007669Y005563D01*
X007668Y005562D02*
X006859Y005562D01*
X006859Y005561D02*
X007668Y005561D01*
X007667Y005560D02*
X006860Y005560D01*
X006860Y005559D02*
X007667Y005559D01*
X007666Y005558D02*
X006861Y005558D01*
X006861Y005557D02*
X007666Y005557D01*
X007665Y005556D02*
X006862Y005556D01*
X006862Y005555D02*
X007664Y005555D01*
X007664Y005554D02*
X006863Y005554D01*
X006864Y005553D02*
X007663Y005553D01*
X007663Y005552D02*
X006864Y005552D01*
X006865Y005551D02*
X007662Y005551D01*
X007662Y005550D02*
X006865Y005550D01*
X006866Y005549D02*
X007661Y005549D01*
X007661Y005548D02*
X006866Y005548D01*
X006867Y005547D02*
X007660Y005547D01*
X007659Y005546D02*
X006867Y005546D01*
X006868Y005545D02*
X007659Y005545D01*
X007658Y005544D02*
X006869Y005544D01*
X006870Y005543D02*
X007657Y005543D01*
X007656Y005542D02*
X006871Y005542D01*
X006872Y005541D02*
X007655Y005541D01*
X007655Y005540D02*
X006872Y005540D01*
X006873Y005539D02*
X007654Y005539D01*
X007653Y005538D02*
X006874Y005538D01*
X006875Y005537D02*
X007652Y005537D01*
X007651Y005536D02*
X006876Y005536D01*
X006876Y005535D02*
X007650Y005535D01*
X007650Y005534D02*
X006877Y005534D01*
X006878Y005533D02*
X007649Y005533D01*
X007648Y005532D02*
X006879Y005532D01*
X006880Y005531D02*
X007647Y005531D01*
X007646Y005530D02*
X006881Y005530D01*
X006881Y005529D02*
X007646Y005529D01*
X007645Y005528D02*
X006882Y005528D01*
X006883Y005527D02*
X007644Y005527D01*
X007643Y005526D02*
X006884Y005526D01*
X006885Y005525D02*
X007642Y005525D01*
X007641Y005524D02*
X006885Y005524D01*
X006886Y005523D02*
X007641Y005523D01*
X007640Y005522D02*
X006887Y005522D01*
X006888Y005521D02*
X007639Y005521D01*
X007638Y005520D02*
X006889Y005520D01*
X006890Y005519D02*
X007637Y005519D01*
X007637Y005518D02*
X006890Y005518D01*
X006891Y005517D02*
X007636Y005517D01*
X007635Y005516D02*
X006892Y005516D01*
X006893Y005515D02*
X007634Y005515D01*
X007633Y005514D02*
X006894Y005514D01*
X006895Y005513D02*
X007632Y005513D01*
X007631Y005512D02*
X006896Y005512D01*
X006897Y005511D02*
X007630Y005511D01*
X007628Y005510D02*
X006898Y005510D01*
X006900Y005509D02*
X007627Y005509D01*
X007626Y005508D02*
X006901Y005508D01*
X006902Y005507D02*
X007625Y005507D01*
X007624Y005506D02*
X006903Y005506D01*
X006905Y005505D02*
X007622Y005505D01*
X007621Y005504D02*
X006906Y005504D01*
X006907Y005503D02*
X007620Y005503D01*
X007619Y005502D02*
X006908Y005502D01*
X006909Y005501D02*
X007617Y005501D01*
X007616Y005500D02*
X006911Y005500D01*
X006912Y005499D02*
X007615Y005499D01*
X007614Y005498D02*
X006913Y005498D01*
X006914Y005497D02*
X007613Y005497D01*
X007611Y005496D02*
X006916Y005496D01*
X006917Y005495D02*
X007610Y005495D01*
X007609Y005494D02*
X006918Y005494D01*
X006919Y005493D02*
X007608Y005493D01*
X007607Y005492D02*
X006920Y005492D01*
X006922Y005491D02*
X007605Y005491D01*
X007604Y005490D02*
X006923Y005490D01*
X006924Y005489D02*
X007603Y005489D01*
X007602Y005488D02*
X006925Y005488D01*
X006926Y005487D02*
X007600Y005487D01*
X007599Y005486D02*
X006928Y005486D01*
X006930Y005485D02*
X007597Y005485D01*
X007595Y005484D02*
X006932Y005484D01*
X006934Y005483D02*
X007593Y005483D01*
X007591Y005482D02*
X006936Y005482D01*
X006938Y005481D02*
X007589Y005481D01*
X007587Y005480D02*
X006940Y005480D01*
X006941Y005479D02*
X007586Y005479D01*
X007584Y005478D02*
X006943Y005478D01*
X006945Y005477D02*
X007582Y005477D01*
X007580Y005476D02*
X006947Y005476D01*
X006949Y005475D02*
X007578Y005475D01*
X007576Y005474D02*
X006951Y005474D01*
X006953Y005473D02*
X007574Y005473D01*
X007572Y005472D02*
X006954Y005472D01*
X006956Y005471D02*
X007571Y005471D01*
X007569Y005470D02*
X006958Y005470D01*
X006960Y005469D02*
X007567Y005469D01*
X007565Y005468D02*
X006962Y005468D01*
X006964Y005467D02*
X007563Y005467D01*
X007560Y005466D02*
X006967Y005466D01*
X006970Y005465D02*
X007557Y005465D01*
X007553Y005464D02*
X006973Y005464D01*
X006977Y005463D02*
X007550Y005463D01*
X007547Y005462D02*
X006980Y005462D01*
X006983Y005461D02*
X007544Y005461D01*
X007540Y005460D02*
X006987Y005460D01*
X006990Y005459D02*
X007537Y005459D01*
X007534Y005458D02*
X006993Y005458D01*
X006997Y005457D02*
X007530Y005457D01*
X007527Y005456D02*
X007000Y005456D01*
X007003Y005455D02*
X007524Y005455D01*
X007517Y005454D02*
X007010Y005454D01*
X007020Y005453D02*
X007507Y005453D01*
X007497Y005452D02*
X007030Y005452D01*
X007040Y005451D02*
X007486Y005451D01*
X007541Y005874D02*
X006986Y005874D01*
X006989Y005875D02*
X007538Y005875D01*
X007535Y005876D02*
X006992Y005876D01*
X006995Y005877D02*
X007532Y005877D01*
X007529Y005878D02*
X006998Y005878D01*
X007004Y005879D02*
X007523Y005879D01*
X007514Y005880D02*
X007013Y005880D01*
X007022Y005881D02*
X007505Y005881D01*
X007496Y005882D02*
X007030Y005882D01*
X007039Y005883D02*
X007488Y005883D01*
X005999Y005710D02*
X005221Y005710D01*
X005221Y005711D02*
X005999Y005711D01*
X005998Y005712D02*
X005222Y005712D01*
X005222Y005713D02*
X005998Y005713D01*
X005998Y005714D02*
X005222Y005714D01*
X005223Y005715D02*
X005997Y005715D01*
X005997Y005716D02*
X005223Y005716D01*
X005223Y005717D02*
X005997Y005717D01*
X005996Y005718D02*
X005224Y005718D01*
X005224Y005719D02*
X005996Y005719D01*
X005996Y005720D02*
X005224Y005720D01*
X005225Y005721D02*
X005995Y005721D01*
X005995Y005722D02*
X005225Y005722D01*
X005225Y005723D02*
X005994Y005723D01*
X005994Y005724D02*
X005226Y005724D01*
X005226Y005725D02*
X005994Y005725D01*
X005993Y005726D02*
X005226Y005726D01*
X005227Y005727D02*
X005993Y005727D01*
X005993Y005728D02*
X005227Y005728D01*
X005227Y005729D02*
X005992Y005729D01*
X005992Y005730D02*
X005228Y005730D01*
X005228Y005731D02*
X005992Y005731D01*
X005991Y005732D02*
X005229Y005732D01*
X005229Y005733D02*
X005991Y005733D01*
X005991Y005734D02*
X005229Y005734D01*
X005230Y005735D02*
X005990Y005735D01*
X005990Y005736D02*
X005230Y005736D01*
X005230Y005737D02*
X005990Y005737D01*
X005989Y005738D02*
X005231Y005738D01*
X005231Y005739D02*
X005989Y005739D01*
X005989Y005740D02*
X005231Y005740D01*
X005232Y005741D02*
X005988Y005741D01*
X005988Y005742D02*
X005232Y005742D01*
X005232Y005743D02*
X005987Y005743D01*
X005987Y005744D02*
X005233Y005744D01*
X005233Y005745D02*
X005987Y005745D01*
X005986Y005746D02*
X005233Y005746D01*
X005234Y005747D02*
X005986Y005747D01*
X005986Y005748D02*
X005234Y005748D01*
X005234Y005749D02*
X005985Y005749D01*
X005985Y005750D02*
X005235Y005750D01*
X005235Y005751D02*
X005985Y005751D01*
X005984Y005752D02*
X005236Y005752D01*
X005236Y005753D02*
X005984Y005753D01*
X005983Y005754D02*
X005237Y005754D01*
X005237Y005755D02*
X005983Y005755D01*
X005982Y005756D02*
X005238Y005756D01*
X005238Y005757D02*
X005981Y005757D01*
X005981Y005758D02*
X005239Y005758D01*
X005240Y005759D02*
X005980Y005759D01*
X005979Y005760D02*
X005240Y005760D01*
X005241Y005761D02*
X005979Y005761D01*
X005978Y005762D02*
X005242Y005762D01*
X005242Y005763D02*
X005978Y005763D01*
X005977Y005764D02*
X005243Y005764D01*
X005243Y005765D02*
X005976Y005765D01*
X005976Y005766D02*
X005244Y005766D01*
X005245Y005767D02*
X005975Y005767D01*
X005974Y005768D02*
X005245Y005768D01*
X005246Y005769D02*
X005974Y005769D01*
X005973Y005770D02*
X005247Y005770D01*
X005247Y005771D02*
X005973Y005771D01*
X005972Y005772D02*
X005248Y005772D01*
X005249Y005773D02*
X005971Y005773D01*
X005971Y005774D02*
X005249Y005774D01*
X005250Y005775D02*
X005970Y005775D01*
X005969Y005776D02*
X005250Y005776D01*
X005251Y005777D02*
X005969Y005777D01*
X005968Y005778D02*
X005252Y005778D01*
X005252Y005779D02*
X005968Y005779D01*
X005967Y005780D02*
X005253Y005780D01*
X005254Y005781D02*
X005966Y005781D01*
X005966Y005782D02*
X005254Y005782D01*
X005255Y005783D02*
X005965Y005783D01*
X005964Y005784D02*
X005255Y005784D01*
X005256Y005785D02*
X005964Y005785D01*
X005963Y005786D02*
X005257Y005786D01*
X005257Y005787D02*
X005963Y005787D01*
X005962Y005788D02*
X005258Y005788D01*
X005259Y005789D02*
X005961Y005789D01*
X005961Y005790D02*
X005259Y005790D01*
X005260Y005791D02*
X005960Y005791D01*
X005959Y005792D02*
X005261Y005792D01*
X005262Y005793D02*
X005958Y005793D01*
X005957Y005794D02*
X005263Y005794D01*
X005264Y005795D02*
X005956Y005795D01*
X005955Y005796D02*
X005265Y005796D01*
X005266Y005797D02*
X005954Y005797D01*
X005953Y005798D02*
X005267Y005798D01*
X005268Y005799D02*
X005952Y005799D01*
X005951Y005800D02*
X005269Y005800D01*
X005270Y005801D02*
X005950Y005801D01*
X005949Y005802D02*
X005271Y005802D01*
X005272Y005803D02*
X005948Y005803D01*
X005947Y005804D02*
X005273Y005804D01*
X005274Y005805D02*
X005946Y005805D01*
X005945Y005806D02*
X005275Y005806D01*
X005276Y005807D02*
X005944Y005807D01*
X005943Y005808D02*
X005277Y005808D01*
X005278Y005809D02*
X005942Y005809D01*
X005941Y005810D02*
X005279Y005810D01*
X005280Y005811D02*
X005940Y005811D01*
X005939Y005812D02*
X005281Y005812D01*
X005282Y005813D02*
X005938Y005813D01*
X005937Y005814D02*
X005283Y005814D01*
X005284Y005815D02*
X005936Y005815D01*
X005935Y005816D02*
X005285Y005816D01*
X005286Y005817D02*
X005934Y005817D01*
X005933Y005818D02*
X005287Y005818D01*
X005288Y005819D02*
X005932Y005819D01*
X005931Y005820D02*
X005289Y005820D01*
X005290Y005821D02*
X005930Y005821D01*
X005928Y005822D02*
X005292Y005822D01*
X005293Y005823D02*
X005927Y005823D01*
X005925Y005824D02*
X005295Y005824D01*
X005296Y005825D02*
X005923Y005825D01*
X005922Y005826D02*
X005298Y005826D01*
X005300Y005827D02*
X005920Y005827D01*
X005919Y005828D02*
X005301Y005828D01*
X005303Y005829D02*
X005917Y005829D01*
X005915Y005830D02*
X005304Y005830D01*
X005306Y005831D02*
X005914Y005831D01*
X005912Y005832D02*
X005308Y005832D01*
X005309Y005833D02*
X005911Y005833D01*
X005909Y005834D02*
X005311Y005834D01*
X005312Y005835D02*
X005908Y005835D01*
X005906Y005836D02*
X005314Y005836D01*
X005316Y005837D02*
X005904Y005837D01*
X005903Y005838D02*
X005317Y005838D01*
X005319Y005839D02*
X005901Y005839D01*
X005900Y005840D02*
X005320Y005840D01*
X005322Y005841D02*
X005898Y005841D01*
X005896Y005842D02*
X005323Y005842D01*
X005325Y005843D02*
X005895Y005843D01*
X005893Y005844D02*
X005327Y005844D01*
X005329Y005845D02*
X005891Y005845D01*
X005888Y005846D02*
X005332Y005846D01*
X005334Y005847D02*
X005885Y005847D01*
X005883Y005848D02*
X005337Y005848D01*
X005340Y005849D02*
X005880Y005849D01*
X005877Y005850D02*
X005343Y005850D01*
X005346Y005851D02*
X005874Y005851D01*
X005871Y005852D02*
X005349Y005852D01*
X005352Y005853D02*
X005868Y005853D01*
X005865Y005854D02*
X005354Y005854D01*
X005357Y005855D02*
X005863Y005855D01*
X005860Y005856D02*
X005360Y005856D01*
X005363Y005857D02*
X005857Y005857D01*
X005854Y005858D02*
X005366Y005858D01*
X005369Y005859D02*
X005851Y005859D01*
X005844Y005860D02*
X005376Y005860D01*
X005385Y005861D02*
X005835Y005861D01*
X005826Y005862D02*
X005394Y005862D01*
X005403Y005863D02*
X005817Y005863D01*
X005808Y005864D02*
X005412Y005864D01*
X005221Y005709D02*
X005999Y005709D01*
X005999Y005708D02*
X005221Y005708D01*
X005221Y005707D02*
X005999Y005707D01*
X005999Y005706D02*
X005221Y005706D01*
X005220Y005705D02*
X005999Y005705D01*
X005999Y005704D02*
X005220Y005704D01*
X005220Y005703D02*
X006000Y005703D01*
X006000Y005702D02*
X005220Y005702D01*
X005220Y005701D02*
X006000Y005701D01*
X006000Y005700D02*
X005220Y005700D01*
X005220Y005699D02*
X006000Y005699D01*
X006000Y005698D02*
X005220Y005698D01*
X005220Y005697D02*
X006000Y005697D01*
X006000Y005696D02*
X005219Y005696D01*
X005219Y005695D02*
X006000Y005695D01*
X006001Y005694D02*
X005219Y005694D01*
X005219Y005693D02*
X006001Y005693D01*
X006001Y005692D02*
X005219Y005692D01*
X005219Y005691D02*
X006001Y005691D01*
X006001Y005690D02*
X005219Y005690D01*
X005219Y005689D02*
X006001Y005689D01*
X006001Y005688D02*
X005219Y005688D01*
X005218Y005687D02*
X006001Y005687D01*
X006001Y005686D02*
X005218Y005686D01*
X005218Y005685D02*
X006002Y005685D01*
X006002Y005684D02*
X005218Y005684D01*
X005218Y005683D02*
X006002Y005683D01*
X006002Y005682D02*
X005218Y005682D01*
X005218Y005681D02*
X006002Y005681D01*
X006002Y005680D02*
X005218Y005680D01*
X005218Y005679D02*
X006002Y005679D01*
X006002Y005678D02*
X005217Y005678D01*
X005217Y005677D02*
X006003Y005677D01*
X006003Y005676D02*
X005217Y005676D01*
X005217Y005675D02*
X006003Y005675D01*
X006003Y005674D02*
X005217Y005674D01*
X005217Y005673D02*
X006003Y005673D01*
X006003Y005672D02*
X005217Y005672D01*
X005217Y005671D02*
X006003Y005671D01*
X006003Y005670D02*
X005217Y005670D01*
X005216Y005669D02*
X006003Y005669D01*
X006004Y005668D02*
X005216Y005668D01*
X005216Y005667D02*
X006004Y005667D01*
X006003Y005666D02*
X005216Y005666D01*
X005216Y005665D02*
X006003Y005665D01*
X006003Y005664D02*
X005217Y005664D01*
X005217Y005663D02*
X006003Y005663D01*
X006003Y005662D02*
X005217Y005662D01*
X005217Y005661D02*
X006003Y005661D01*
X006003Y005660D02*
X005217Y005660D01*
X005217Y005659D02*
X006003Y005659D01*
X006003Y005658D02*
X005217Y005658D01*
X005217Y005657D02*
X006002Y005657D01*
X006002Y005656D02*
X005217Y005656D01*
X005218Y005655D02*
X006002Y005655D01*
X006002Y005654D02*
X005218Y005654D01*
X005218Y005653D02*
X006002Y005653D01*
X006002Y005652D02*
X005218Y005652D01*
X005218Y005651D02*
X006002Y005651D01*
X006002Y005650D02*
X005218Y005650D01*
X005218Y005649D02*
X006002Y005649D01*
X006001Y005648D02*
X005218Y005648D01*
X005218Y005647D02*
X006001Y005647D01*
X006001Y005646D02*
X005219Y005646D01*
X005219Y005645D02*
X006001Y005645D01*
X006001Y005644D02*
X005219Y005644D01*
X005219Y005643D02*
X006001Y005643D01*
X006001Y005642D02*
X005219Y005642D01*
X005219Y005641D02*
X006001Y005641D01*
X006001Y005640D02*
X005219Y005640D01*
X005219Y005639D02*
X006000Y005639D01*
X006000Y005638D02*
X005219Y005638D01*
X005220Y005637D02*
X006000Y005637D01*
X006000Y005636D02*
X005220Y005636D01*
X005220Y005635D02*
X006000Y005635D01*
X006000Y005634D02*
X005220Y005634D01*
X005220Y005633D02*
X006000Y005633D01*
X006000Y005632D02*
X005220Y005632D01*
X005220Y005631D02*
X006000Y005631D01*
X005999Y005630D02*
X005220Y005630D01*
X005221Y005629D02*
X005999Y005629D01*
X005999Y005628D02*
X005221Y005628D01*
X005221Y005627D02*
X005999Y005627D01*
X005999Y005626D02*
X005221Y005626D01*
X005221Y005625D02*
X005999Y005625D01*
X005999Y005624D02*
X005221Y005624D01*
X005221Y005623D02*
X005999Y005623D01*
X005998Y005622D02*
X005222Y005622D01*
X005222Y005621D02*
X005998Y005621D01*
X005998Y005620D02*
X005222Y005620D01*
X005223Y005619D02*
X005997Y005619D01*
X005997Y005618D02*
X005223Y005618D01*
X005223Y005617D02*
X005996Y005617D01*
X005996Y005616D02*
X005224Y005616D01*
X005224Y005615D02*
X005996Y005615D01*
X005995Y005614D02*
X005224Y005614D01*
X005225Y005613D02*
X005995Y005613D01*
X005995Y005612D02*
X005225Y005612D01*
X005225Y005611D02*
X005994Y005611D01*
X005994Y005610D02*
X005226Y005610D01*
X005226Y005609D02*
X005994Y005609D01*
X005993Y005608D02*
X005226Y005608D01*
X005227Y005607D02*
X005993Y005607D01*
X005993Y005606D02*
X005227Y005606D01*
X005228Y005605D02*
X005992Y005605D01*
X005992Y005604D02*
X005228Y005604D01*
X005228Y005603D02*
X005992Y005603D01*
X005991Y005602D02*
X005229Y005602D01*
X005229Y005601D02*
X005991Y005601D01*
X005991Y005600D02*
X005229Y005600D01*
X005230Y005599D02*
X005990Y005599D01*
X005990Y005598D02*
X005230Y005598D01*
X005230Y005597D02*
X005990Y005597D01*
X005989Y005596D02*
X005231Y005596D01*
X005231Y005595D02*
X005989Y005595D01*
X005988Y005594D02*
X005231Y005594D01*
X005232Y005593D02*
X005988Y005593D01*
X005988Y005592D02*
X005232Y005592D01*
X005232Y005591D02*
X005987Y005591D01*
X005987Y005590D02*
X005233Y005590D01*
X005233Y005589D02*
X005987Y005589D01*
X005986Y005588D02*
X005233Y005588D01*
X005234Y005587D02*
X005986Y005587D01*
X005986Y005586D02*
X005234Y005586D01*
X005235Y005585D02*
X005985Y005585D01*
X005985Y005584D02*
X005235Y005584D01*
X005235Y005583D02*
X005985Y005583D01*
X005984Y005582D02*
X005236Y005582D01*
X005236Y005581D02*
X005984Y005581D01*
X005983Y005580D02*
X005237Y005580D01*
X005237Y005579D02*
X005982Y005579D01*
X005982Y005578D02*
X005238Y005578D01*
X005239Y005577D02*
X005981Y005577D01*
X005981Y005576D02*
X005239Y005576D01*
X005240Y005575D02*
X005980Y005575D01*
X005979Y005574D02*
X005240Y005574D01*
X005241Y005573D02*
X005979Y005573D01*
X005978Y005572D02*
X005242Y005572D01*
X005242Y005571D02*
X005977Y005571D01*
X005977Y005570D02*
X005243Y005570D01*
X005244Y005569D02*
X005976Y005569D01*
X005976Y005568D02*
X005244Y005568D01*
X005245Y005567D02*
X005975Y005567D01*
X005974Y005566D02*
X005246Y005566D01*
X005246Y005565D02*
X005974Y005565D01*
X005973Y005564D02*
X005247Y005564D01*
X005247Y005563D02*
X005972Y005563D01*
X005972Y005562D02*
X005248Y005562D01*
X005249Y005561D02*
X005971Y005561D01*
X005971Y005560D02*
X005249Y005560D01*
X005250Y005559D02*
X005970Y005559D01*
X005969Y005558D02*
X005251Y005558D01*
X005251Y005557D02*
X005969Y005557D01*
X005968Y005556D02*
X005252Y005556D01*
X005252Y005555D02*
X005967Y005555D01*
X005967Y005554D02*
X005253Y005554D01*
X005254Y005553D02*
X005966Y005553D01*
X005966Y005552D02*
X005254Y005552D01*
X005255Y005551D02*
X005965Y005551D01*
X005964Y005550D02*
X005256Y005550D01*
X005256Y005549D02*
X005964Y005549D01*
X005963Y005548D02*
X005257Y005548D01*
X005257Y005547D02*
X005962Y005547D01*
X005962Y005546D02*
X005258Y005546D01*
X005259Y005545D02*
X005961Y005545D01*
X005960Y005544D02*
X005259Y005544D01*
X005260Y005543D02*
X005959Y005543D01*
X005958Y005542D02*
X005261Y005542D01*
X005262Y005541D02*
X005957Y005541D01*
X005956Y005540D02*
X005263Y005540D01*
X005264Y005539D02*
X005955Y005539D01*
X005954Y005538D02*
X005265Y005538D01*
X005266Y005537D02*
X005953Y005537D01*
X005952Y005536D02*
X005267Y005536D01*
X005268Y005535D02*
X005951Y005535D01*
X005950Y005534D02*
X005269Y005534D01*
X005270Y005533D02*
X005949Y005533D01*
X005948Y005532D02*
X005271Y005532D01*
X005272Y005531D02*
X005947Y005531D01*
X005946Y005530D02*
X005273Y005530D01*
X005274Y005529D02*
X005945Y005529D01*
X005944Y005528D02*
X005275Y005528D01*
X005276Y005527D02*
X005943Y005527D01*
X005942Y005526D02*
X005277Y005526D01*
X005278Y005525D02*
X005941Y005525D01*
X005940Y005524D02*
X005279Y005524D01*
X005280Y005523D02*
X005939Y005523D01*
X005938Y005522D02*
X005281Y005522D01*
X005282Y005521D02*
X005937Y005521D01*
X005936Y005520D02*
X005283Y005520D01*
X005284Y005519D02*
X005935Y005519D01*
X005934Y005518D02*
X005285Y005518D01*
X005286Y005517D02*
X005933Y005517D01*
X005932Y005516D02*
X005287Y005516D01*
X005288Y005515D02*
X005931Y005515D01*
X005930Y005514D02*
X005289Y005514D01*
X005290Y005513D02*
X005929Y005513D01*
X005928Y005512D02*
X005292Y005512D01*
X005294Y005511D02*
X005926Y005511D01*
X005925Y005510D02*
X005295Y005510D01*
X005297Y005509D02*
X005923Y005509D01*
X005921Y005508D02*
X005298Y005508D01*
X005300Y005507D02*
X005920Y005507D01*
X005918Y005506D02*
X005302Y005506D01*
X005303Y005505D02*
X005917Y005505D01*
X005915Y005504D02*
X005305Y005504D01*
X005306Y005503D02*
X005914Y005503D01*
X005912Y005502D02*
X005308Y005502D01*
X005310Y005501D02*
X005910Y005501D01*
X005909Y005500D02*
X005311Y005500D01*
X005313Y005499D02*
X005907Y005499D01*
X005906Y005498D02*
X005314Y005498D01*
X005316Y005497D02*
X005904Y005497D01*
X005902Y005496D02*
X005317Y005496D01*
X005319Y005495D02*
X005901Y005495D01*
X005899Y005494D02*
X005321Y005494D01*
X005322Y005493D02*
X005898Y005493D01*
X005896Y005492D02*
X005324Y005492D01*
X005325Y005491D02*
X005894Y005491D01*
X005893Y005490D02*
X005327Y005490D01*
X005329Y005489D02*
X005891Y005489D01*
X005888Y005488D02*
X005332Y005488D01*
X005335Y005487D02*
X005885Y005487D01*
X005882Y005486D02*
X005338Y005486D01*
X005341Y005485D02*
X005879Y005485D01*
X005876Y005484D02*
X005344Y005484D01*
X005346Y005483D02*
X005873Y005483D01*
X005871Y005482D02*
X005349Y005482D01*
X005352Y005481D02*
X005868Y005481D01*
X005865Y005480D02*
X005355Y005480D01*
X005358Y005479D02*
X005862Y005479D01*
X005859Y005478D02*
X005361Y005478D01*
X005364Y005477D02*
X005856Y005477D01*
X005853Y005476D02*
X005366Y005476D01*
X005369Y005475D02*
X005851Y005475D01*
X005842Y005474D02*
X005378Y005474D01*
X005387Y005473D02*
X005833Y005473D01*
X005824Y005472D02*
X005396Y005472D01*
X005405Y005471D02*
X005815Y005471D01*
D24*
X005983Y006494D02*
X005433Y006494D01*
X005433Y007044D01*
X005983Y007044D01*
X005983Y006494D01*
X005983Y006729D02*
X005433Y006729D01*
X005433Y006964D02*
X005983Y006964D01*
X005983Y007676D02*
X005433Y007676D01*
X005433Y008226D01*
X005983Y008226D01*
X005983Y007676D01*
X005983Y007911D02*
X005433Y007911D01*
X005433Y008146D02*
X005983Y008146D01*
D25*
X008348Y008520D02*
X008590Y008520D01*
X008590Y008100D01*
X008348Y008100D01*
X008348Y008520D01*
X008348Y008180D02*
X008590Y008180D01*
X008590Y008260D02*
X008348Y008260D01*
X008348Y008340D02*
X008590Y008340D01*
X008590Y008420D02*
X008348Y008420D01*
X008348Y008500D02*
X008590Y008500D01*
X008970Y008520D02*
X009212Y008520D01*
X009212Y008100D01*
X008970Y008100D01*
X008970Y008520D01*
X008970Y008180D02*
X009212Y008180D01*
X009212Y008260D02*
X008970Y008260D01*
X008970Y008340D02*
X009212Y008340D01*
X009212Y008420D02*
X008970Y008420D01*
X008970Y008500D02*
X009212Y008500D01*
D26*
X009530Y009782D03*
X008546Y009782D03*
X010514Y009782D03*
X010514Y012538D03*
X009530Y012538D03*
X008546Y012538D03*
M02*
